<?xml version="1.0" standalone="no"?>
<!DOCTYPE svg PUBLIC "-//W3C//DTD SVG 20010904//EN"
 "http://www.w3.org/TR/2001/REC-SVG-20010904/DTD/svg10.dtd">
<svg version="1.0" xmlns="http://www.w3.org/2000/svg"
 width="512.000000pt" height="512.000000pt" viewBox="0 0 512.000000 512.000000"
 preserveAspectRatio="xMidYMid meet">
<metadata>
Created by potrace 1.14, written by Peter Selinger 2001-2017
</metadata>
<g transform="translate(0.000000,512.000000) scale(0.100000,-0.100000)"
fill="#000000" stroke="none">
<path d="M475 5096 c-118 -32 -198 -79 -287 -168 -60 -60 -86 -96 -118 -161
-74 -153 -69 2 -67 -2237 l2 -2015 23 -65 c41 -112 84 -181 162 -260 86 -86
201 -151 311 -175 53 -11 399 -13 2059 -14 2223 -1 2050 -6 2208 70 147 71
261 205 324 379 l23 65 2 2023 c1 2247 7 2076 -68 2230 -70 145 -229 281 -379
323 -25 7 -52 15 -60 18 -8 3 -924 6 -2035 7 l-2020 3 -80 -23z"/>
</g>
</svg>
