<svg width="18" height="17" viewBox="0 0 18 17" fill="none" xmlns="http://www.w3.org/2000/svg">
<path d="M6.34235 16.2501C7.15764 16.2501 7.81857 15.5892 7.81857 14.7739C7.81857 13.9586 7.15764 13.2977 6.34235 13.2977C5.52706 13.2977 4.86613 13.9586 4.86613 14.7739C4.86613 15.5892 5.52706 16.2501 6.34235 16.2501Z" fill="#009CDD"/>
<path d="M12.2472 16.2501C13.0625 16.2501 13.7234 15.5892 13.7234 14.7739C13.7234 13.9586 13.0625 13.2977 12.2472 13.2977C11.4319 13.2977 10.7709 13.9586 10.7709 14.7739C10.7709 15.5892 11.4319 16.2501 12.2472 16.2501Z" fill="#009CDD"/>
<path d="M3.38991 0.749878H0.4375V2.2261H3.38991V0.749878Z" fill="#009CDD"/>
<path d="M4.55613 3.70232L4.12804 0.749913L3.38991 0.749878L2.65181 0.853224L4.22398 11.8215H14.2032L17.8125 3.70229L4.55613 3.70232ZM13.2436 10.3453H5.50828L4.77019 5.17854H15.5391L13.2436 10.3453Z" fill="#009CDD"/>
</svg>
