<svg width="13" height="14" viewBox="0 0 13 14" fill="none" xmlns="http://www.w3.org/2000/svg">
<path d="M11.9569 9.07016C11.1609 9.07016 10.3795 8.94568 9.6389 8.70095C9.27602 8.57718 8.82992 8.69072 8.60845 8.91819L7.14673 10.0216C5.45156 9.11674 4.40736 8.07289 3.51483 6.39044L4.58581 4.96681C4.86405 4.68893 4.96385 4.28302 4.84428 3.90216C4.5985 3.15771 4.47365 2.3766 4.47365 1.58035C4.47368 1.00514 4.00572 0.53717 3.43054 0.53717H1.04315C0.467965 0.53717 0 1.00514 0 1.58032C0 8.1734 5.36377 13.5371 11.9569 13.5371C12.532 13.5371 13 13.0692 13 12.494V10.1133C13 9.53812 12.532 9.07016 11.9569 9.07016Z" fill="#7E7E7E"/>
</svg>
