<svg width="19" height="16" viewBox="0 0 19 16" fill="none" xmlns="http://www.w3.org/2000/svg">
<path d="M6.59235 15.5902C7.40764 15.5902 8.06857 14.9293 8.06857 14.114C8.06857 13.2987 7.40764 12.6378 6.59235 12.6378C5.77706 12.6378 5.11613 13.2987 5.11613 14.114C5.11613 14.9293 5.77706 15.5902 6.59235 15.5902Z" fill="white"/>
<path d="M12.4972 15.5902C13.3125 15.5902 13.9734 14.9293 13.9734 14.114C13.9734 13.2987 13.3125 12.6378 12.4972 12.6378C11.6819 12.6378 11.0209 13.2987 11.0209 14.114C11.0209 14.9293 11.6819 15.5902 12.4972 15.5902Z" fill="white"/>
<path d="M3.63991 0.0899658H0.6875V1.56619H3.63991V0.0899658Z" fill="white"/>
<path d="M4.80613 3.04241L4.37804 0.0900004L3.63991 0.0899658L2.90181 0.193312L4.47398 11.1615H14.4532L18.0625 3.04237L4.80613 3.04241ZM13.4936 9.68535H5.75828L5.02019 4.51863H15.7891L13.4936 9.68535Z" fill="white"/>
</svg>
