<svg width="41" height="32" viewBox="0 0 41 32" fill="none" xmlns="http://www.w3.org/2000/svg">
<path d="M26.814 20.9854C26.814 21.0057 26.8132 21.0261 26.8124 21.0457V21.0465C26.7795 24.6504 23.8383 27.5728 20.2266 27.5728C16.5944 27.5728 13.6399 24.6175 13.6399 20.9854V11.3524H4.21715V15.2065C4.21715 24.034 11.3991 31.2159 20.2266 31.2159C29.054 31.2159 36.236 24.034 36.236 15.2065V11.3524H26.814V20.9854Z" fill="white"/>
<path d="M24.4611 15.9446V11.3524H15.9928V15.9438C17.1387 14.9799 18.6156 14.3987 20.2266 14.3987C21.8375 14.3987 23.3152 14.9799 24.4611 15.9446Z" fill="white"/>
<path d="M20.2266 16.7516C17.8893 16.7516 15.9928 18.6528 15.9928 20.9854C15.9928 23.3179 17.8893 25.2199 20.2266 25.2199C22.5638 25.2199 24.4603 23.3179 24.4603 20.9854C24.4603 18.6528 22.5638 16.7516 20.2266 16.7516ZM21.403 21.012C21.403 21.6614 20.8752 22.1885 20.2266 22.1885C19.5779 22.1885 19.0501 21.6614 19.0501 21.012V20.9587C19.0501 20.3093 19.5779 19.7822 20.2266 19.7822C20.8752 19.7822 21.403 20.3093 21.403 20.9587V21.012Z" fill="white"/>
<path d="M39.4423 0.335938H1.01088C0.577935 0.335938 0.226562 0.68731 0.226562 1.12025V7.52888C0.226562 8.34143 0.884602 8.99947 1.69715 8.99947H38.756C39.5685 8.99947 40.2266 8.34143 40.2266 7.52888V1.12025C40.2266 0.68731 39.8752 0.335938 39.4423 0.335938ZM8.62343 5.84417H8.27048C7.62107 5.84417 7.09401 5.31711 7.09401 4.6677C7.09401 4.01751 7.62107 3.49123 8.27048 3.49123H8.62343C9.27362 3.49123 9.7999 4.01751 9.7999 4.6677C9.7999 5.31711 9.27362 5.84417 8.62343 5.84417ZM32.1826 5.84417H14.6234C13.974 5.84417 13.447 5.31711 13.447 4.6677C13.447 4.01751 13.974 3.49123 14.6234 3.49123H32.1826C32.8321 3.49123 33.3591 4.01751 33.3591 4.6677C33.3591 5.31711 32.8321 5.84417 32.1826 5.84417Z" fill="white"/>
</svg>
