<svg width="39" height="43" viewBox="0 0 39 43" fill="none" xmlns="http://www.w3.org/2000/svg">
<path d="M9.88835 28.518H29.2055V31.432H9.88835V28.518Z" fill="white"/>
<path d="M9.88835 23.0528H29.2055V25.9668H9.88835V23.0528Z" fill="white"/>
<path d="M20.5979 0.562579C20.0175 0.0644268 19.0763 0.0644268 18.4958 0.562579L0.982302 15.5916C0.703546 15.8308 0.546875 16.1552 0.546875 16.4936V41.0866C0.546875 41.791 1.2124 42.3621 2.03331 42.3621H6.91547V21.7773C6.91547 21.0728 7.581 20.5017 8.40191 20.5017H30.6918C31.5128 20.5017 32.1783 21.0728 32.1783 21.7773V42.3621H37.0604C37.8813 42.3621 38.5469 41.791 38.5469 41.0866V16.4936C38.5469 16.1552 38.3903 15.8309 38.1114 15.5917L20.5979 0.562579Z" fill="white"/>
<path d="M9.88835 39.4481H29.2055V42.3621H9.88835V39.4481Z" fill="white"/>
<path d="M9.88835 33.9831H29.2055V36.8971H9.88835V33.9831Z" fill="white"/>
</svg>
