<svg width="41" height="36" viewBox="0 0 41 36" fill="none" xmlns="http://www.w3.org/2000/svg">
<path d="M36.3649 0.611328H18.7914C16.7577 0.611328 15.1094 2.25989 15.1094 4.29327V12.9496C16.0384 13.4113 17.0421 13.9106 17.979 14.3763L19.4124 11.5082C20.2803 9.77393 22.3961 9.06927 24.1298 9.93567C25.8672 10.8051 26.5712 12.9151 25.7015 14.6528L23.1462 19.7645C23.214 20.441 23.1539 21.1231 22.9631 21.7832H24.6501L20.2007 34.0183C19.9367 34.744 20.447 35.5909 21.3024 35.5909C21.7806 35.5909 22.2304 35.2958 22.4031 34.8191L27.1437 21.7832H27.965L32.7538 34.8231C32.928 35.2973 33.3766 35.5909 33.8546 35.5909C34.6538 35.5909 35.2397 34.7925 34.9538 34.0153L30.4616 21.7832H36.3649C38.3983 21.7832 40.0469 20.1346 40.0469 18.1013V4.29327C40.0469 2.25989 38.3983 0.611328 36.3649 0.611328ZM33.8539 16.7628H28.5961C27.9491 16.7628 27.4242 16.2379 27.4242 15.5909C27.4242 14.9433 27.9491 14.419 28.5961 14.419H33.8539C34.5015 14.419 35.0258 14.9433 35.0258 15.5909C35.0258 16.2379 34.5015 16.7628 33.8539 16.7628ZM33.8539 12.3691H28.5961C27.9491 12.3691 27.4242 11.8448 27.4242 11.1973C27.4242 10.5503 27.9491 10.0254 28.5961 10.0254H33.8539C34.5015 10.0254 35.0258 10.5503 35.0258 11.1973C35.0258 11.8448 34.5015 12.3691 33.8539 12.3691ZM33.8539 7.97614H21.3024C20.6548 7.97614 20.1305 7.45123 20.1305 6.80426C20.1305 6.15729 20.6548 5.63239 21.3024 5.63239H33.8539C34.5015 5.63239 35.0258 6.15729 35.0258 6.80426C35.0258 7.45123 34.5015 7.97614 33.8539 7.97614Z" fill="white"/>
<path d="M20.6658 21.2806C20.8776 20.6602 20.876 20.012 20.6972 19.4205L23.6055 13.6045C23.8948 13.0256 23.6605 12.3215 23.0815 12.0322C22.5029 11.7426 21.7989 11.9773 21.5093 12.5562L19.0288 17.5165C17.5463 16.7783 15.2938 15.6583 13.4792 14.7559C11.791 13.9164 10.5861 13.1635 8.53046 13.1635H7.495C9.09564 13.1635 10.5242 12.4268 11.4592 11.2739C12.1727 10.3965 12.5994 9.27832 12.5994 8.05975C12.5994 5.24023 10.3142 2.95508 7.49438 2.95508C4.67578 2.95508 2.39062 5.24023 2.39062 8.05975C2.39062 9.41382 2.91797 10.6443 3.77826 11.5574C4.70844 12.5464 6.02954 13.1635 7.49408 13.1638C5.53058 13.1638 3.61102 13.9594 2.2301 15.344C0.822327 16.7481 0.046875 18.6188 0.046875 20.6116V24.3772C0.046875 25.9983 1.09943 27.3777 2.55725 27.8684V34.4187C2.55725 35.066 3.08185 35.5906 3.72913 35.5906H11.2603C11.9075 35.5906 12.4321 35.066 12.4321 34.4187V21.2519C13.5433 21.8073 15.0029 22.537 16.184 23.1278C17.0119 23.5416 17.9793 23.5789 18.842 23.2279C19.7023 22.8739 20.3655 22.1693 20.6612 21.2943C20.6627 21.2897 20.6642 21.2852 20.6658 21.2806Z" fill="white"/>
</svg>
