<svg width="38" height="41" viewBox="0 0 38 41" fill="none" xmlns="http://www.w3.org/2000/svg">
<path d="M36.6604 34.5882L23.77 21.6974C23.6493 21.5762 23.5202 21.4687 23.3873 21.368L25.6703 18.964C25.787 18.8464 25.8975 18.7228 25.9991 18.5957C29.03 19.739 32.5866 19.0963 35.0228 16.6604C36.7998 14.8828 37.6959 12.4249 37.479 9.91632C37.4555 9.63245 37.2675 9.38702 37 9.29012C36.732 9.19223 36.4317 9.25899 36.23 9.45992L32.0988 13.5909L27.916 12.5365L26.7298 8.2218L30.8601 4.0913C31.0627 3.88929 31.129 3.58873 31.0314 3.32104C30.9341 3.05261 30.6888 2.86613 30.4041 2.84114C27.8958 2.62493 25.4377 3.52056 23.66 5.29812C21.2259 7.73226 20.5815 11.2869 21.7235 14.3166C21.5993 14.4216 21.4757 14.5333 21.3545 14.6528L17.9942 17.88L11.8236 11.71C11.7466 11.6327 11.6644 11.5647 11.5797 11.5008C11.6521 11.3738 11.7225 11.243 11.7883 11.1073C13.0915 11.3581 15.4739 8.82035 17.4973 6.79769L11.6026 0.902344C8.96672 3.53866 7.04196 5.30792 7.29179 6.61113C6.68917 6.90555 6.15198 7.26556 5.77021 7.64782L4.93984 8.47794C4.40074 9.01779 4.0756 9.68916 3.95953 10.3888C3.87899 10.4808 3.79704 10.5776 3.71559 10.6813L3.40614 11.0702C3.39751 11.0797 3.37086 11.118 3.36347 11.1278L3.083 11.5204C2.90756 11.7545 2.7542 12.0087 2.60592 12.2541C2.5512 12.3452 2.49549 12.4364 2.43861 12.5274C2.42956 12.5431 2.42068 12.5585 2.41263 12.5741L2.288 12.8089C2.13739 13.0913 1.98104 13.3838 1.84728 13.7055L1.8257 13.7567C1.66794 14.1314 1.50446 14.5194 1.39038 14.9307L1.33517 15.1086C1.29 15.2549 1.24408 15.4008 1.2019 15.5753L1.08733 16.1426C1.00189 16.4974 0.973161 16.8474 0.94817 17.1573L0.931481 17.361C0.889303 17.6824 0.901591 17.9854 0.913049 18.2529C0.916951 18.3425 0.920438 18.4303 0.923095 18.5488C0.926084 18.5981 0.926582 18.6462 0.928077 18.6936C0.930983 18.8131 0.934221 18.9488 0.957303 19.0915L1.02921 19.5519C1.04465 19.6409 1.05768 19.7274 1.06997 19.8102C1.09745 19.9972 1.12568 20.1906 1.1814 20.3742L1.48296 21.4205C1.57595 21.7385 1.87801 21.9491 2.20854 21.926C2.38348 21.9138 2.54074 21.8381 2.65781 21.7208C2.76234 21.6163 2.83474 21.4789 2.85683 21.3238L3.01317 20.2601C3.02471 20.1756 3.06099 20.052 3.09852 19.9212C3.12526 19.8304 3.15125 19.7378 3.17134 19.6589L3.28251 19.2618C3.29605 19.2081 3.32228 19.1558 3.34537 19.1021C3.36745 19.0523 3.38954 19.001 3.40921 18.9504C3.44649 18.866 3.48162 18.7816 3.51616 18.695C3.58465 18.5252 3.64942 18.3655 3.7483 18.2086C3.79131 18.1362 3.83125 18.0643 3.87202 17.9909C3.97505 17.8064 4.07294 17.6322 4.18927 17.4879C4.19657 17.4793 4.20322 17.4698 4.21085 17.4596L4.47314 17.0979C4.52686 17.03 4.58722 16.9657 4.64592 16.9009C4.6876 16.8553 4.72937 16.8093 4.78209 16.749C4.93694 16.5627 5.11877 16.4003 5.29421 16.2405L5.3882 16.1561C5.51822 16.0354 5.66867 15.9218 5.82692 15.8017C5.89168 15.7533 5.95503 15.7052 6.0173 15.6579C6.09726 15.6061 6.17464 15.5544 6.25086 15.5031C6.39367 15.4066 6.5173 15.3231 6.66019 15.2488L6.97113 15.0719L7.28573 14.9176C7.39541 14.8609 7.50343 14.8172 7.60298 14.7771C7.6621 14.7525 7.72055 14.7287 7.77477 14.7052C7.82998 14.6861 7.8832 14.6654 7.93352 14.6468C8.00094 14.6222 8.05914 14.5986 8.13818 14.578L8.22304 14.5589C8.31553 14.7086 8.42397 14.851 8.55407 14.981L14.6579 21.0851L1.62759 33.6008C1.62244 33.6057 1.61754 33.6111 1.61281 33.6155C-0.0086498 35.237 -0.27268 37.6118 1.34903 39.2337C2.97074 40.8552 5.19458 40.4395 6.81562 38.8186C6.82276 38.8117 6.82891 38.8053 6.83522 38.7979L18.3303 26.6939C18.3978 26.7733 18.4645 26.8533 18.5394 26.9284L31.4287 39.8188C32.8731 41.2635 35.2159 41.2635 36.6603 39.8188C38.1042 38.3749 38.1042 36.032 36.6604 34.5882ZM5.13338 37.4817C4.53633 38.0794 3.56788 38.0794 2.97033 37.4817C2.37335 36.8845 2.37335 35.9166 2.97033 35.3194C3.5673 34.7226 4.53583 34.7221 5.13338 35.3194C5.72986 35.9167 5.72986 36.8845 5.13338 37.4817Z" fill="white"/>
</svg>
