<svg width="41" height="47" viewBox="0 0 41 47" fill="none" xmlns="http://www.w3.org/2000/svg">
<path d="M12.4228 24.5067H28.5307C29.2729 24.5067 29.8731 23.9062 29.8731 23.1644V6.96699C29.8731 6.22522 29.2729 5.62467 28.5307 5.62467H24.5038V4.28234C24.5038 2.06192 22.6972 0.255371 20.4768 0.255371C18.2564 0.255371 16.4498 2.06192 16.4498 4.28234V5.62467H12.4228C11.6811 5.62467 11.0805 6.22522 11.0805 6.96699V23.1644C11.0805 23.9062 11.6811 24.5067 12.4228 24.5067ZM19.1345 4.28234C19.1345 3.54162 19.7375 2.94002 20.4768 2.94002C21.2161 2.94002 21.8191 3.54162 21.8191 4.28234V5.62467H19.1345V4.28234Z" fill="white"/>
<path d="M40.0324 22.4694C39.7912 22.0685 39.3532 21.8221 38.8841 21.8221C36.519 21.8221 34.3492 23.1347 33.2512 25.2296L29.1337 33.0878C28.4339 34.4196 27.0678 35.2453 25.5657 35.2453H16.4498C15.708 35.2453 15.1075 34.6447 15.1075 33.903C15.1075 33.1612 15.708 32.5606 16.4498 32.5606H25.5654C26.0663 32.5606 26.5225 32.2855 26.756 31.8409C26.9885 31.3969 27.6907 30.0564 28.2944 28.9042C28.4846 28.5414 28.4713 28.1055 28.2591 27.7548C28.0466 27.4046 27.6666 27.1913 27.2569 27.1913H13.3037C11.5105 27.1913 9.82733 27.8901 8.55841 29.1576L0.619822 37.0962C0.0954761 37.6206 0.0954761 38.47 0.619822 38.9944L7.33144 45.6801C7.59362 45.9423 7.93724 46.0737 8.28051 46.0737C8.62378 46.0737 8.9674 45.9423 9.22958 45.6801L14.321 40.6146H25.5654C29.0708 40.6146 32.2613 38.685 33.8895 35.5795L40.0716 23.7883C40.2918 23.3727 40.2761 22.8721 40.0324 22.4694Z" fill="white"/>
</svg>
