<svg width="26" height="26" viewBox="0 0 26 26" fill="none" xmlns="http://www.w3.org/2000/svg">
<path d="M15.3732 6.26963L20.2896 1.35322L19.185 0.248535L13.1639 6.26963H12.2482L6.22715 0.248535L5.12246 1.35322L10.0389 6.26963H0.206055V25.0196H25.2061V6.26963H15.3732ZM23.6436 23.4571H1.76855V7.83213H23.6436V23.4571Z" fill="white"/>
<path d="M8.01855 10.4743V20.8149L18.3592 15.6446L8.01855 10.4743ZM9.58105 13.0024L14.8654 15.6446L9.58105 18.2868V13.0024Z" fill="white"/>
<path d="M4.89355 12.5196H3.33105V14.0821H4.89355V12.5196Z" fill="white"/>
<path d="M4.89355 17.2071H3.33105V18.7696H4.89355V17.2071Z" fill="white"/>
<path d="M22.0811 12.5196H20.5186V14.0821H22.0811V12.5196Z" fill="white"/>
<path d="M22.0811 17.2071H20.5186V18.7696H22.0811V17.2071Z" fill="white"/>
</svg>
