<svg width="26" height="26" viewBox="0 0 26 26" fill="none" xmlns="http://www.w3.org/2000/svg">
<path d="M0.798828 25.2485H5.48633V18.9985H0.798828V25.2485ZM2.36133 20.561H3.92383V23.686H2.36133V20.561Z" fill="black"/>
<path d="M7.57007 25.2485H12.2576V18.9985H7.57007V25.2485ZM9.13257 20.561H10.6951V23.686H9.13257V20.561Z" fill="black"/>
<path d="M14.3401 25.2485H19.0276V18.9985H14.3401V25.2485ZM15.9026 20.561H17.4651V23.686H15.9026V20.561Z" fill="black"/>
<path d="M21.1113 25.2485H25.7988V18.9985H21.1113V25.2485ZM22.6738 20.561H24.2363V23.686H22.6738V20.561Z" fill="black"/>
<path d="M16.4238 0.248535H12.2574L6.00742 4.93604H0.798828V14.311H6.0832L12.3332 17.436H16.4238V0.248535ZM5.48633 12.7485H2.36133V6.49854H5.48633V12.7485ZM14.8613 15.8735H13.2988V4.15479H11.7363V15.3907L7.04883 13.047V6.10791L12.7777 1.81104H14.8613V15.8735Z" fill="black"/>
<path d="M19.5488 3.37354H17.9863V4.93604H19.5488V3.37354Z" fill="black"/>
<path d="M22.6738 3.37354H21.1113V4.93604H22.6738V3.37354Z" fill="black"/>
<path d="M19.5488 8.06104H17.9863V9.62354H19.5488V8.06104Z" fill="black"/>
<path d="M22.6738 8.06104H21.1113V9.62354H22.6738V8.06104Z" fill="black"/>
<path d="M25.7988 8.06104H24.2363V9.62354H25.7988V8.06104Z" fill="black"/>
<path d="M19.5488 12.7485H17.9863V14.311H19.5488V12.7485Z" fill="black"/>
<path d="M22.6738 12.7485H21.1113V14.311H22.6738V12.7485Z" fill="black"/>
</svg>
