<svg width="26" height="23" viewBox="0 0 26 23" fill="none" xmlns="http://www.w3.org/2000/svg">
<path d="M7.78131 17.6534L6.59855 18.7006C6.97516 19.1243 7.3843 19.5179 7.82231 19.8778L8.82214 18.6556C8.44922 18.3496 8.1012 18.0145 7.78131 17.6534Z" fill="black"/>
<path d="M6.22748 15.2138L4.77821 15.8359C5.00229 16.3581 5.26836 16.8612 5.57381 17.3404L6.90402 16.4951C6.64461 16.0868 6.41835 15.6583 6.22748 15.2138Z" fill="black"/>
<path d="M19.8987 2.42897C18.2773 1.48892 16.4365 0.993596 14.5624 0.993103C9.23182 1.00168 4.72832 4.94928 4.02163 10.2328L1.321 7.53218L0.206055 8.64712L4.70605 13.1471L9.20604 8.64712L8.0911 7.53218L5.65225 9.96787C6.57889 5.05164 11.3155 1.81749 16.2317 2.74413C21.1479 3.67077 24.3821 8.40737 23.4554 13.3236C22.5288 18.2397 17.7922 21.474 12.876 20.5473C11.8682 20.3574 10.9 19.9977 10.0127 19.4835L9.22023 20.8468C14.3062 23.7956 20.8196 22.063 23.7684 16.9771C26.7172 11.8912 24.9847 5.37773 19.8987 2.42897Z" fill="black"/>
<path d="M13.3801 4.54138V13.2149L16.8495 15.817L17.7957 14.5554L14.9571 12.4264V4.54138H13.3801Z" fill="black"/>
</svg>
