<svg width="26" height="27" viewBox="0 0 26 27" fill="none" xmlns="http://www.w3.org/2000/svg">
<path d="M5.94818 7.63489C6.59213 6.51133 7.65832 5.69163 8.90964 5.35809L8.48925 3.79035C5.0186 4.72099 2.95851 8.2879 3.88686 11.7592L5.45704 11.3379C5.11928 10.0875 5.29614 8.75398 5.94818 7.63489Z" fill="black"/>
<path d="M25.2704 18.1992L24.7549 16.2721C24.3391 14.7378 22.8752 13.7288 21.2933 13.8863L20.668 11.5559C23.7676 11.0319 25.8556 8.09427 25.3316 4.99468C24.8075 1.89508 21.87 -0.192867 18.7704 0.331153C17.5725 0.533676 16.4709 1.11411 15.6266 1.98763C14.0172 0.89771 12.1189 0.313518 10.1753 0.310113C9.32181 0.313416 8.47238 0.426849 7.648 0.647567C2.44333 2.04139 -0.646506 7.38999 0.746051 12.5951L2.43576 18.9319C0.980795 19.5798 0.214408 21.1908 0.629772 22.7285L1.14612 24.6556L5.54359 23.479C6.6826 25.9135 9.57952 26.9637 12.014 25.8247C13.7295 25.0221 14.8236 23.297 14.8183 21.403C14.8183 21.2737 14.8037 21.1379 14.7906 21.0038L25.2704 18.1992ZM19.6971 1.88761C21.9426 1.88761 23.7629 3.70788 23.7629 5.95332C23.7629 8.19876 21.9426 10.019 19.6971 10.019C17.4517 10.019 15.6314 8.19876 15.6314 5.95332C15.6341 3.709 17.4528 1.8903 19.6971 1.88761ZM2.31704 12.1747C1.15252 7.84484 3.71844 3.3908 8.04827 2.22628C10.3058 1.61907 12.7155 2.01456 14.6606 3.31142C13.1975 6.08719 14.2617 9.52347 17.0375 10.9866C17.6475 11.3081 18.311 11.5159 18.9955 11.5998L19.7086 14.2579L3.99379 18.4619L2.31704 12.1747ZM9.93944 24.6556C8.79174 24.6498 7.73237 24.0386 7.1528 23.048L12.2756 21.6779L13.1961 21.4339C13.1791 23.2197 11.7254 24.6579 9.93944 24.6556ZM14.454 19.41L2.29671 22.6618L2.20076 22.3048C1.97303 21.4477 2.47403 20.5662 3.32697 20.3232L21.208 15.537C21.3408 15.5028 21.4774 15.4854 21.6145 15.485C22.3511 15.4846 22.996 15.9793 23.1863 16.6909L23.2815 17.047L14.4564 19.4051L14.454 19.41Z" fill="black"/>
<path d="M18.8841 23.0294H17.2578V24.6557H18.8841V23.0294Z" fill="black"/>
<path d="M22.1367 23.0294H20.5104V24.6557H22.1367V23.0294Z" fill="black"/>
<path d="M25.3893 23.0294H23.763V24.6557H25.3893V23.0294Z" fill="black"/>
<path d="M20.5104 3.51388H18.8841V8.39274H20.5104V3.51388Z" fill="black"/>
</svg>
