<svg width="41" height="31" viewBox="0 0 41 31" fill="none" xmlns="http://www.w3.org/2000/svg">
<path d="M40.4871 14.954L12.987 0.787315C12.7884 0.683955 12.5589 0.665205 12.3473 0.736065C12.1357 0.805205 11.96 0.955831 11.8607 1.15521L6.02736 12.8218C5.82392 13.2287 5.98501 13.7243 6.38869 13.9343L12.9226 17.3313C12.7291 17.8635 12.6061 18.4297 12.6061 19.0279C12.6061 20.1231 12.9703 21.1286 13.5698 21.9532L12.6485 24.0279H5.08822C4.30532 22.9895 3.07485 22.3613 1.77274 22.3613C1.31219 22.3612 0.939453 22.7339 0.939453 23.1946V29.8612C0.939453 30.3219 1.31219 30.6946 1.77281 30.6946C3.07493 30.6946 4.3054 30.0663 5.08829 29.0279H14.2729C15.2576 29.0279 16.1544 28.4461 16.5581 27.5436L18.1451 23.9735C19.609 23.8138 20.8862 23.0393 21.6927 21.8925L27.2222 24.7676C27.3427 24.8303 27.4745 24.8612 27.6063 24.8612C27.7675 24.8612 27.9286 24.814 28.0686 24.7212L30.0439 23.4044L33.8596 25.5847C33.9899 25.6588 34.1314 25.6946 34.2731 25.6946C34.5335 25.6946 34.789 25.5717 34.9518 25.3454L39.1185 19.5121C39.2536 19.3232 39.3024 19.0856 39.2552 18.8585C39.208 18.6306 39.068 18.4329 38.8678 18.3133L38.2431 17.9384L40.5687 16.3879C40.8145 16.2243 40.9545 15.9427 40.9382 15.6481C40.9217 15.3527 40.7507 15.0891 40.4871 14.954Z" fill="black"/>
</svg>
