<svg width="40" height="39" viewBox="0 0 40 39" fill="none" xmlns="http://www.w3.org/2000/svg">
<path d="M4.6875 19.6127H7.03125V26.6439H4.6875V19.6127Z" fill="black"/>
<path d="M18.75 19.6127H21.0938V26.6439H18.75V19.6127Z" fill="black"/>
<path d="M23.4375 19.6127H25.7812V26.6439H23.4375V19.6127Z" fill="black"/>
<path d="M14.0625 28.9877H16.4062V36.0189H14.0625V28.9877Z" fill="black"/>
<path d="M9.375 26.6439H16.4062V19.6127H9.375V26.6439ZM11.7188 21.9564H14.0625V24.3002H11.7188V21.9564Z" fill="black"/>
<path d="M11.7188 28.9877H4.6875V36.0189H11.7188V28.9877ZM9.375 33.6752H7.03125V31.3314H9.375V33.6752Z" fill="black"/>
<path d="M18.75 36.0189H25.7812V28.9877H18.75V36.0189ZM21.0938 31.3314H23.4375V33.6752H21.0938V31.3314Z" fill="black"/>
<path d="M31.6406 11.4095C32.2878 11.4095 32.8125 10.8849 32.8125 10.2377C32.8125 9.59046 32.2878 9.0658 31.6406 9.0658C30.9934 9.0658 30.4688 9.59046 30.4688 10.2377C30.4688 10.8849 30.9934 11.4095 31.6406 11.4095Z" fill="black"/>
<path d="M30.4688 0.862671C27.1202 0.862671 24.0109 2.68001 22.348 5.55017H3.03039L0 8.58056V11.8948L3.51562 15.4104L5.85938 13.0667L8.20312 15.4104L10.5469 13.0667L12.8906 15.4104L15.2344 13.0667L17.0929 14.9252H22.348C24.0109 17.7953 27.1202 19.6127 30.4688 19.6127C35.638 19.6127 40 15.407 40 10.2377C40 5.06837 35.638 0.862671 30.4688 0.862671ZM31.6406 13.7533C29.702 13.7533 28.125 12.1763 28.125 10.2377C28.125 8.29908 29.702 6.72205 31.6406 6.72205C33.5792 6.72205 35.1562 8.29908 35.1562 10.2377C35.1562 12.1763 33.5792 13.7533 31.6406 13.7533Z" fill="black"/>
<path d="M2.34375 19.6127H4.6875V17.2689H0V21.9564H2.34375V19.6127Z" fill="black"/>
<path d="M4.6875 36.0189H2.34375V33.6752H0V38.3627H4.6875V36.0189Z" fill="black"/>
<path d="M30.4688 38.3627V33.6752H28.125V36.0189H25.7812V38.3627H30.4688Z" fill="black"/>
</svg>
