<svg width="31" height="41" viewBox="0 0 31 41" fill="none" xmlns="http://www.w3.org/2000/svg">
<path d="M30.0651 15.6127H27.5651V12.2793C27.5651 5.84626 22.3316 0.612671 15.8984 0.612671C9.46531 0.612671 4.2318 5.84626 4.2318 12.2793V15.6127H1.7318C1.27117 15.6127 0.898438 15.9854 0.898438 16.446V37.2794C0.898438 39.1178 2.39336 40.6127 4.2318 40.6127H27.5652C29.4035 40.6127 30.8984 39.1177 30.8984 37.2793V16.446C30.8984 15.9854 30.5257 15.6127 30.0651 15.6127ZM18.3936 33.0207C18.4196 33.2559 18.344 33.4919 18.1861 33.6685C18.0282 33.8451 17.802 33.946 17.5652 33.946H14.2318C13.995 33.946 13.7687 33.8451 13.6109 33.6685C13.453 33.492 13.3773 33.256 13.4034 33.0207L13.9291 28.2934C13.0754 27.6724 12.5652 26.6902 12.5652 25.6127C12.5652 23.7743 14.0601 22.2793 15.8985 22.2793C17.737 22.2793 19.2319 23.7742 19.2319 25.6127C19.2319 26.6902 18.7216 27.6724 17.868 28.2934L18.3936 33.0207ZM22.5651 15.6127H9.2318V12.2793C9.2318 8.60337 12.2225 5.61267 15.8984 5.61267C19.5744 5.61267 22.5651 8.60337 22.5651 12.2793V15.6127Z" fill="black"/>
</svg>
