<svg width="9" height="17" viewBox="0 0 9 17" fill="none" xmlns="http://www.w3.org/2000/svg">
<path d="M8.22356 0.0100098H7.22975C4.46755 0.0100098 2.22037 1.97657 2.22037 4.39377V6.24385H0.522461C0.347624 6.24385 0.205841 6.36793 0.205841 6.52093V8.73752C0.205841 8.89052 0.347624 9.0146 0.522461 9.0146H2.22024V15.8033C2.22024 15.9563 2.36203 16.0803 2.53686 16.0803H5.06983C5.24466 16.0803 5.38645 15.9563 5.38645 15.8033V9.0146H7.90586C8.0807 9.0146 8.22248 8.89052 8.22248 8.73752V6.52093C8.22248 6.36793 8.0807 6.24385 7.90586 6.24385H5.38645V4.39377C5.38645 3.50436 6.21333 2.78075 7.22962 2.78075H8.22343C8.39827 2.78075 8.54005 2.65668 8.54005 2.50368V0.287084C8.54018 0.134084 8.39839 0.0100098 8.22356 0.0100098Z" fill="black"/>
</svg>
