<svg width="20" height="14" viewBox="0 0 20 14" fill="none" xmlns="http://www.w3.org/2000/svg">
<path d="M18.7698 2.16484C18.84 2.44551 18.8985 2.79635 18.9452 3.21735C19.0154 3.63836 19.0622 4.05936 19.0856 4.48037C19.109 4.87799 19.1207 5.25221 19.1207 5.60305C19.144 5.95389 19.1557 6.24625 19.1557 6.48015V6.7959C19.1557 8.90093 19.0271 10.4563 18.7698 11.462C18.6529 11.8597 18.4424 12.2105 18.1383 12.5146C17.8343 12.8186 17.4717 13.0291 17.0507 13.1461C16.6063 13.263 15.7643 13.3566 14.5247 13.4267C13.2851 13.4735 12.1507 13.5086 11.1216 13.532H9.57787C5.57832 13.532 3.08737 13.4033 2.10503 13.1461C1.19285 12.8888 0.619813 12.3274 0.385922 11.462C0.268976 11.0176 0.175419 10.4095 0.105251 9.63768C0.058473 8.84245 0.0233892 8.17586 0 7.63791V6.7959C0 4.71426 0.128641 3.17058 0.385922 2.16484C0.502867 1.74384 0.71337 1.3813 1.01743 1.07724C1.32149 0.773185 1.68402 0.562682 2.10503 0.445736C2.54942 0.32879 3.39143 0.246928 4.63106 0.20015C5.87068 0.129982 7.00506 0.0832036 8.03418 0.0598145H9.57787C13.5774 0.0598145 16.0684 0.188455 17.0507 0.445736C17.4717 0.562682 17.8343 0.773185 18.1383 1.07724C18.4424 1.3813 18.6529 1.74384 18.7698 2.16484ZM7.61318 9.67277L12.6302 6.7959L7.61318 3.95411V9.67277Z" fill="black"/>
</svg>
