<svg width="18" height="10" viewBox="0 0 18 10" fill="none" xmlns="http://www.w3.org/2000/svg">
<path d="M17.0124 7.54499C16.6293 7.14132 16.194 6.77953 15.773 6.42964C15.6233 6.3052 15.4685 6.17656 15.3193 6.04863C14.8909 5.68097 14.8753 5.54285 15.2145 5.12523C15.4491 4.83737 15.6979 4.54913 15.9385 4.27037C16.1567 4.01746 16.3824 3.75591 16.5987 3.49352L16.6431 3.43957C17.0565 2.93744 17.484 2.41822 17.7115 1.79186C17.7706 1.62661 17.8327 1.38344 17.6908 1.18009C17.5491 0.97692 17.2741 0.914935 17.0795 0.885983C16.9833 0.871656 16.8878 0.869701 16.7991 0.869701L14.0918 0.868L14.0695 0.86783C13.6601 0.86783 13.3843 1.03716 13.2262 1.38556C13.0753 1.71844 12.9095 2.07292 12.7204 2.40997C12.3439 3.08113 11.8658 3.85416 11.174 4.49888L11.1448 4.5263C11.0631 4.60338 10.9705 4.69066 10.9029 4.69066C10.8925 4.69066 10.8812 4.68892 10.8684 4.68539C10.7251 4.63637 10.6289 4.33184 10.6333 4.19019C10.6333 4.18823 10.6334 4.18628 10.6334 4.18432L10.6315 1.43751C10.6315 1.42799 10.6307 1.41855 10.6293 1.40911C10.5605 0.962593 10.4079 0.684638 9.8315 0.585539C9.8162 0.582861 9.80055 0.581543 9.78496 0.581543H6.96995C6.51133 0.581543 6.25862 0.745178 6.02108 0.990099C5.95695 1.05557 5.82348 1.19187 5.88964 1.3572C5.95676 1.52501 6.17464 1.56089 6.24559 1.57254C6.59777 1.63138 6.79628 1.82048 6.85251 2.15089C6.95068 2.72466 6.96274 3.33707 6.89048 4.07821C6.87033 4.28419 6.83048 4.44327 6.76481 4.57919C6.74955 4.6109 6.69545 4.71443 6.64029 4.71447C6.62276 4.71447 6.57206 4.70843 6.4797 4.65257C6.26133 4.52124 6.10156 4.33384 5.91531 4.10236C5.28166 3.31624 4.74985 2.45023 4.28929 1.45426C4.11848 1.08763 3.79947 0.88237 3.39063 0.876333C2.9414 0.870338 2.53411 0.867447 2.14566 0.867447C1.72122 0.867447 1.32773 0.870891 0.943495 0.877906C0.614563 0.883007 0.387041 0.969565 0.267324 1.13537C0.147413 1.3013 0.15521 1.51927 0.290522 1.78311C1.37369 3.89701 2.35579 5.43401 3.475 6.7669C4.25921 7.69957 5.0458 8.34514 5.95017 8.79838C6.90297 9.27687 7.97075 9.5095 9.21441 9.5095C9.35539 9.5095 9.50116 9.50648 9.64815 9.50044C10.3708 9.46954 10.6389 9.23992 10.6728 8.62224C10.6889 8.30658 10.7283 7.97552 10.905 7.69319C11.0166 7.51531 11.1206 7.51531 11.1548 7.51531C11.2207 7.51531 11.3023 7.54192 11.3901 7.59179C11.5474 7.68192 11.6822 7.80266 11.7928 7.90814C11.8969 8.00834 11.9998 8.10957 12.1028 8.21084C12.3251 8.4294 12.5549 8.65536 12.795 8.86967C13.3206 9.33906 13.8996 9.54551 14.5646 9.5007H17.0467C17.0519 9.5007 17.0573 9.50053 17.0625 9.50023C17.3099 9.48591 17.5241 9.36547 17.6502 9.16982C17.8065 8.92745 17.8034 8.61824 17.6418 8.3425C17.4585 8.0307 17.2207 7.76431 17.0124 7.54499Z" fill="black"/>
</svg>
