<svg width="12" height="19" viewBox="0 0 12 19" fill="none" xmlns="http://www.w3.org/2000/svg">
<path d="M9.7018 12.0334C8.92996 12.5246 7.87745 12.8403 6.54426 12.9807L9.94739 16.3838C10.2514 16.6879 10.3333 17.0387 10.193 17.4363C10.0526 17.8573 9.79536 18.1146 9.42113 18.2082C9.07029 18.3251 8.71946 18.2549 8.36862 17.9977C7.90084 17.5299 7.00035 16.6294 5.66717 15.2962L3.0008 17.9626C2.69674 18.2666 2.33421 18.3485 1.9132 18.2082C1.51559 18.0678 1.25831 17.8105 1.14136 17.4363C1.0478 17.0855 1.14136 16.7346 1.42203 16.3838C3.19961 14.5828 4.0884 13.6823 4.0884 13.6823L4.82516 12.9807C3.4452 12.8403 2.38099 12.5246 1.63253 12.0334C1.00103 11.6124 0.591716 11.2733 0.404602 11.016C0.217489 10.7353 0.229183 10.3845 0.439686 9.96347C0.580021 9.65941 0.802218 9.47229 1.10628 9.40213C1.43373 9.30857 1.84304 9.42552 2.33421 9.75296C2.42777 9.82313 2.5681 9.91669 2.75521 10.0336C2.94233 10.1506 3.31656 10.3026 3.8779 10.4897C4.46263 10.6768 5.05905 10.7704 5.66717 10.7704C6.27529 10.7704 6.86002 10.6885 7.42136 10.5248C7.9827 10.3611 8.38031 10.1857 8.61421 9.99855L9.00013 9.75296C9.4913 9.42552 9.88892 9.30857 10.193 9.40213C10.5204 9.47229 10.766 9.65941 10.9297 9.96347C10.9999 10.2207 11.0467 10.4196 11.0701 10.5599C11.0935 10.7002 11.035 10.864 10.8947 11.0511C10.7543 11.2382 10.6023 11.4019 10.4386 11.5422C10.2748 11.6592 10.0293 11.8229 9.7018 12.0334ZM1.10628 4.87632C1.10628 3.6133 1.55067 2.5374 2.43946 1.64861C3.32825 0.759824 4.40415 0.31543 5.66717 0.31543C6.48579 0.31543 7.24594 0.525932 7.94761 0.946938C8.64929 1.34455 9.19894 1.8942 9.59655 2.59588C10.0176 3.27416 10.2281 4.03431 10.2281 4.87632C10.2281 6.11595 9.78366 7.18015 8.89488 8.06894C8.00609 8.95773 6.93018 9.40213 5.66717 9.40213C4.40415 9.40213 3.32825 8.95773 2.43946 8.06894C1.55067 7.18015 1.10628 6.11595 1.10628 4.87632ZM3.42181 4.87632C3.42181 5.48444 3.644 6.0107 4.0884 6.45509C4.53279 6.8761 5.05905 7.0866 5.66717 7.0866C6.27529 7.0866 6.80154 6.8761 7.24594 6.45509C7.69033 6.0107 7.91253 5.48444 7.91253 4.87632C7.91253 4.24481 7.69033 3.71856 7.24594 3.29755C6.80154 2.85316 6.27529 2.63096 5.66717 2.63096C5.26955 2.63096 4.89533 2.73621 4.54449 2.94671C4.19365 3.13383 3.91298 3.4028 3.70248 3.75364C3.51536 4.08109 3.42181 4.45532 3.42181 4.87632Z" fill="black"/>
</svg>
