<svg width="17" height="17" viewBox="0 0 17 17" fill="none" xmlns="http://www.w3.org/2000/svg">
<path d="M11.6275 0.902832H5.72406C3.00752 0.902832 0.804565 3.02674 0.804565 5.64581V11.3374C0.804565 13.9565 3.00752 16.0804 5.72406 16.0804H11.6275C14.344 16.0804 16.547 13.9565 16.547 11.3374V5.64581C16.547 3.02674 14.344 0.902832 11.6275 0.902832ZM15.0711 11.3374C15.0711 13.1682 13.5264 14.6575 11.6275 14.6575H5.72406C3.82514 14.6575 2.28041 13.1682 2.28041 11.3374V5.64581C2.28041 3.81502 3.82514 2.32572 5.72406 2.32572H11.6275C13.5264 2.32572 15.0711 3.81502 15.0711 5.64581V11.3374Z" fill="black"/>
<path d="M8.67576 4.69721C6.50233 4.69721 4.74016 6.39615 4.74016 8.49159C4.74016 10.587 6.50233 12.286 8.67576 12.286C10.8492 12.286 12.6114 10.587 12.6114 8.49159C12.6114 6.39615 10.8492 4.69721 8.67576 4.69721ZM8.67576 10.8631C7.31995 10.8631 6.21601 9.79876 6.21601 8.49159C6.21601 7.18348 7.31995 6.12011 8.67576 6.12011C10.0316 6.12011 11.1355 7.18348 11.1355 8.49159C11.1355 9.79876 10.0316 10.8631 8.67576 10.8631Z" fill="black"/>
<path d="M12.9066 4.91824C13.1962 4.91824 13.431 4.69187 13.431 4.41263C13.431 4.1334 13.1962 3.90703 12.9066 3.90703C12.6169 3.90703 12.3821 4.1334 12.3821 4.41263C12.3821 4.69187 12.6169 4.91824 12.9066 4.91824Z" fill="black"/>
</svg>
