<svg width="142" height="37" viewBox="0 0 142 37" fill="none" xmlns="http://www.w3.org/2000/svg">
<g clip-path="url(#clip0)">
<mask id="mask0" mask-type="alpha" maskUnits="userSpaceOnUse" x="0" y="-1" width="142" height="39">
<path d="M0.0167847 -0.239502H141.227V37.3282H0.0167847V-0.239502Z" fill="white"/>
</mask>
<g mask="url(#mask0)">
<path fill-rule="evenodd" clip-rule="evenodd" d="M39.7906 6.18986C40.3623 9.7188 34.9985 15.0765 29.3313 16.135C23.9898 17.1841 19.5042 15.0056 18.9092 11.3877C18.32 7.12988 20.7625 3.82883 27.9178 2.74453C33.7081 2.00484 39.0598 2.46308 39.7906 6.18986Z" fill="#46B035"/>
<path fill-rule="evenodd" clip-rule="evenodd" d="M12.0689 34.1924C4.63016 36.3055 1.21673 33.1204 0.379544 30.1137C-0.287216 26.1841 2.95877 22.74 8.27318 21.5563C13.5851 20.3787 22.3442 21.5715 22.0874 26.4075C21.4743 30.2753 18.5761 32.4396 12.0689 34.1924Z" fill="#DD007F"/>
<path d="M6.33711 15.7602C8.70783 19.1765 12.5657 21.358 15.2318 18.5957C17.8968 15.8334 18.3097 5.96769 15.9415 2.55255C13.57 -0.864922 9.66541 -0.924833 5.9747 3.05151C2.28352 7.03017 3.97049 12.3455 6.33727 15.76" fill="#00A1E9"/>
<path d="M34.5752 20.6114C32.0758 17.4513 28.1594 15.704 25.653 18.7915C23.1449 21.8803 23.192 31.8482 25.6914 35.009C28.192 38.1687 32.027 37.5587 35.4942 33.1296C38.9582 28.7 37.0758 23.7706 34.5752 20.6114Z" fill="#F6AB00"/>
<path d="M21.0675 10.6815C18.0795 10.6815 15.2623 12.7715 13.7122 16.1301C12.0331 19.7733 13.1114 23.3263 16.5259 25.401C17.8423 26.1107 19.282 26.4903 20.6782 26.4903C23.5441 26.4903 25.7951 24.9391 26.8543 22.2327C28.3778 17.4601 27.2636 13.2189 24.0129 11.441C23.0908 10.9385 22.0992 10.6815 21.0675 10.6815ZM20.6782 27.0363C19.1892 27.0363 17.6564 26.6326 16.2472 25.8728C12.6199 23.6682 11.432 19.7582 13.2085 15.9052C14.8473 12.3476 17.8593 10.1365 21.0674 10.1365C22.1941 10.1365 23.2765 10.4156 24.2822 10.967C27.774 12.8737 28.9881 17.3669 27.3774 22.411C26.225 25.3568 23.7855 27.0363 20.6784 27.0363" fill="white"/>
<path d="M11.9028 25.9216C13.656 28.0041 16.8697 29.3491 20.0957 29.3491H20.097C24.8007 29.3491 28.5057 26.63 30.2663 21.8836C31.7764 17.1521 29.967 12.1166 25.652 9.07528C24.4197 8.29998 22.9781 7.90227 21.3836 7.90227C18.4662 7.90227 15.2146 9.33072 13.1019 11.5396C8.91678 16.3106 8.49724 21.2884 11.9028 25.9216ZM20.0968 30.1679H20.0957C16.6263 30.1679 13.1565 28.7018 11.2537 26.4323L11.2373 26.4128C8.6812 22.9404 6.82365 17.4459 12.4849 10.9928C14.7935 8.57802 18.1989 7.08502 21.3836 7.08502C23.1398 7.08502 24.7319 7.52762 26.1181 8.39875C30.6773 11.6116 32.6536 17.1315 31.0535 22.1463C29.1607 27.2517 25.1694 30.1679 20.097 30.1679" fill="white"/>
<path d="M117.935 19.8908C118.701 19.1146 129.41 9.27059 129.41 9.27059H117.47V6.46835H134.973C134.973 7.75777 135.03 8.65305 134.751 9.27493C134.751 9.27493 134.503 9.75732 133.632 10.4886C132.624 11.5078 122.466 20.7928 122.466 20.7928H135.281V23.4143H116.854C116.814 21.3793 116.969 20.9414 117.935 19.8908ZM67.8421 19.8908C68.6072 19.1146 79.3164 9.27059 79.3164 9.27059H67.3779V6.46835H84.8798C84.8798 7.75777 84.9374 8.65305 84.6585 9.27493C84.6585 9.27493 84.4094 9.75732 83.5384 10.4886C82.5313 11.5078 72.3722 20.7928 72.3722 20.7928H85.1873V23.4143H66.7618C66.7212 21.3793 66.8741 20.9414 67.8419 19.8908H67.8421ZM110.065 6.46819H114.672V23.4145H110.065V6.46819ZM60.4558 13.6821H49.6304V10.4962C49.6304 9.87064 50.0737 9.28004 51.1422 9.28004H58.9004C59.7753 9.28004 60.4558 9.36921 60.4558 10.4962V13.6823V13.6821ZM60.5666 6.45317H49.1311C46.8386 6.45317 45.1682 7.45264 45.1682 10.0742V19.1262C45.1682 21.678 45.8667 23.4309 49.4071 23.4309H64.652V20.6253H52.176C49.967 20.6253 49.6304 19.8837 49.6304 19.0243V16.5009H64.7355V10.0937C64.7355 7.74322 63.6475 6.45317 60.5666 6.45317ZM99.5304 22.463L108.657 6.46819H104.052L96.2257 19.8351L91.342 6.46819H86.7339L92.9222 22.472C93.1263 22.8008 93.6413 23.4143 94.6192 23.4143H97.8301C98.8154 23.4143 99.3314 22.7925 99.5304 22.463Z" fill="#9F9FA0"/>
<path d="M49.4124 31.9436C49.4124 31.6804 49.312 31.4649 49.1114 31.2977C48.9106 31.1305 48.5612 30.9828 48.0632 30.8543C47.5244 30.7212 47.1165 30.5483 46.839 30.3354C46.5619 30.1227 46.4231 29.8354 46.4231 29.4739C46.4231 29.1034 46.5783 28.8018 46.8881 28.569C47.1981 28.3362 47.5967 28.2198 48.0835 28.2198C48.5907 28.2198 48.9998 28.3585 49.3109 28.6356C49.622 28.9127 49.7731 29.251 49.7642 29.6502L49.7539 29.67H49.3819C49.3819 29.3465 49.2655 29.0802 49.0321 28.8718C48.7986 28.6633 48.4824 28.5591 48.0835 28.5591C47.689 28.5591 47.3805 28.6453 47.1588 28.8186C46.9366 28.9915 46.8257 29.2065 46.8257 29.4638C46.8257 29.7078 46.9283 29.9112 47.1335 30.0741C47.3384 30.2373 47.6924 30.3809 48.1951 30.5049C48.7249 30.6381 49.1278 30.8178 49.4039 31.0441C49.68 31.2702 49.8183 31.5686 49.8183 31.939C49.8183 32.3247 49.6576 32.6319 49.3363 32.8601C49.0149 33.0886 48.6053 33.203 48.1072 33.203C47.6158 33.203 47.187 33.0815 46.8203 32.8387C46.454 32.5957 46.2768 32.2415 46.2878 31.7758L46.2947 31.7558H46.6667C46.6667 32.1317 46.8099 32.4104 47.096 32.5916C47.3823 32.7731 47.7195 32.8636 48.1072 32.8636C48.4972 32.8636 48.8122 32.7794 49.0522 32.611C49.2925 32.443 49.4126 32.2204 49.4126 31.9438L49.4124 31.9436ZM51.9689 29.8066C51.6691 29.8066 51.4176 29.9188 51.2148 30.1431C51.0118 30.3678 50.8936 30.6491 50.8597 30.9875L50.8665 31.0042H53.0105V30.9045C53.0105 30.5927 52.9168 30.3317 52.7297 30.1215C52.5425 29.9115 52.2888 29.8066 51.9689 29.8066ZM52.0194 33.2028C51.5621 33.2028 51.1814 33.0366 50.8785 32.7037C50.5751 32.3712 50.4237 31.9499 50.4237 31.4397V31.2569C50.4237 30.7424 50.5741 30.3156 50.8748 29.9759C51.1759 29.6369 51.5405 29.4672 51.9689 29.4672C52.4173 29.4672 52.7702 29.6069 53.0271 29.8865C53.2843 30.1657 53.4127 30.5382 53.4127 31.0042V31.3432H50.8292V31.4395C50.8292 31.8445 50.9384 32.1832 51.1572 32.4553C51.3759 32.7273 51.6632 32.8638 52.0192 32.8638C52.2716 32.8638 52.4872 32.8293 52.665 32.7605C52.8373 32.6956 52.9932 32.5946 53.1217 32.4644L53.2942 32.737C53.1567 32.8796 52.9826 32.9929 52.7717 33.077C52.5609 33.1607 52.3103 33.2028 52.0192 33.2028H52.0194ZM55.57 32.8636C55.8382 32.8636 56.0748 32.7886 56.2801 32.6382C56.4851 32.4881 56.5879 32.2792 56.5879 32.012H56.9463L56.953 32.0322C56.9643 32.3645 56.8289 32.643 56.5473 32.8669C56.2654 33.0909 55.9398 33.203 55.57 33.203C55.0718 33.203 54.6869 33.0347 54.4153 32.6989C54.1435 32.363 54.008 31.9309 54.008 31.4032V31.2635C54.008 30.7402 54.1441 30.3099 54.4172 29.9728C54.6899 29.6357 55.0731 29.4672 55.5666 29.4672C55.9678 29.4672 56.3021 29.5835 56.5693 29.8163C56.8363 30.0492 56.9654 30.3555 56.9564 30.7347L56.9496 30.7545H56.5879C56.5879 30.4664 56.4894 30.2362 56.2919 30.0642C56.0947 29.8923 55.8528 29.8064 55.5664 29.8064C55.1744 29.8064 54.8839 29.9442 54.696 30.2201C54.5078 30.4958 54.4135 30.8432 54.4135 31.262V31.4013C54.4135 31.8269 54.5072 32.1769 54.6943 32.4517C54.8815 32.7262 55.1731 32.8636 55.57 32.8636ZM60.1993 32.5441C60.0817 32.755 59.9239 32.9174 59.7256 33.0315C59.5273 33.1457 59.293 33.2028 59.0226 33.2028C58.6369 33.2028 58.3348 33.0743 58.1162 32.817C57.8975 32.5596 57.7883 32.1606 57.7883 31.6196V29.5338H58.1939V31.6304C58.1939 32.0702 58.2701 32.3859 58.4221 32.5769C58.5745 32.7681 58.7904 32.8636 59.0698 32.8636C59.3764 32.8636 59.6209 32.7958 59.8035 32.6602C59.986 32.5246 60.1135 32.3379 60.1859 32.1004V29.5338H60.5914V33.1332H60.2331L60.1993 32.5441ZM63.3406 29.8762L63.0396 29.8561C62.7851 29.8561 62.5756 29.9269 62.4125 30.0676C62.2488 30.2085 62.1323 30.402 62.0625 30.6481V33.1329H61.6565V29.5338H62.0116L62.0625 30.1325V30.1726C62.1684 29.9506 62.3105 29.7776 62.4883 29.6536C62.6664 29.5293 62.8784 29.4674 63.1241 29.4674C63.176 29.4674 63.226 29.4711 63.2748 29.4787C63.323 29.4864 63.3629 29.4948 63.3947 29.5038L63.3406 29.8762ZM64.4666 33.133H64.0642V29.5338H64.4666V33.1332V33.133ZM64.4666 28.5026H64.0642V27.9436H64.4666V28.5024V28.5026ZM66.2217 28.6122V29.5338H67.0263V29.8597H66.2217V32.2048C66.2217 32.4401 66.2651 32.607 66.3516 32.7056C66.4385 32.8042 66.5542 32.8536 66.6983 32.8536C66.7638 32.8536 66.8274 32.8506 66.8895 32.8454C66.9515 32.8395 67.023 32.8305 67.1042 32.817L67.1649 33.113C67.0972 33.1417 67.0149 33.1641 66.9178 33.1796C66.8218 33.195 66.7247 33.2028 66.6273 33.2028C66.3704 33.2028 66.1702 33.1231 66.0272 32.9633C65.884 32.8039 65.8125 32.5508 65.8125 32.2048V29.8597H65.1799V29.5338H65.8125V28.6124H66.2217V28.6122ZM68.9235 32.1583L69.0519 32.5875H69.0722L70.178 29.5338H70.6309L69.0415 33.7085C68.9469 33.9523 68.824 34.1597 68.6731 34.3305C68.522 34.5014 68.3011 34.5869 68.0103 34.5869C67.9631 34.5869 67.9053 34.5816 67.8378 34.5717C67.7701 34.5618 67.7207 34.5512 67.6891 34.5401L67.7365 34.2076C67.7635 34.2117 67.807 34.2169 67.8668 34.2224C67.9264 34.2278 67.9698 34.2308 67.9969 34.2308C68.1727 34.2308 68.3137 34.1692 68.4196 34.0463C68.5257 33.9232 68.6157 33.7651 68.6901 33.5722L68.8829 33.0864L67.4694 29.5338H67.919L68.9235 32.1583ZM74.4517 32.3147L74.5499 32.6372H74.5701L74.6683 32.3147L76.146 28.2896H76.5856L74.7495 33.133H74.3674L72.5313 28.2896H72.9706L74.4517 32.3147ZM77.6814 33.133H77.2788V29.5338H77.6814V33.1332V33.133ZM77.6814 28.5026H77.2788V27.9436H77.6814V28.5024V28.5026ZM79.0473 31.4336C79.0473 31.8702 79.1359 32.2176 79.3129 32.476C79.4897 32.7345 79.7562 32.8636 80.1124 32.8636C80.3738 32.8636 80.592 32.8054 80.7669 32.6899C80.9414 32.5738 81.0773 32.4138 81.1743 32.2088V30.5114C81.0817 30.3021 80.951 30.1321 80.7821 30.0021C80.6129 29.8718 80.3918 29.8064 80.1191 29.8064C79.763 29.8064 79.4955 29.9506 79.3161 30.2391C79.1369 30.5275 79.0473 30.9023 79.0473 31.3632V31.4336ZM78.6415 31.3632C78.6415 30.789 78.7648 30.3294 79.0119 29.9845C79.2587 29.6397 79.603 29.4674 80.0449 29.4674C80.2995 29.4674 80.5204 29.5203 80.7077 29.6268C80.8948 29.7334 81.0503 29.8841 81.1743 30.0792V27.9436H81.5767V33.1329H81.2183L81.1845 32.6107C81.0627 32.8016 80.906 32.9479 80.7143 33.0499C80.5228 33.1519 80.2973 33.2028 80.0381 33.2028C79.6008 33.2028 79.2587 33.0426 79.0119 32.7221C78.7648 32.4017 78.6415 31.9719 78.6415 31.433V31.3634V31.3632ZM83.9776 29.8066C83.6777 29.8066 83.4263 29.9188 83.2235 30.1431C83.0205 30.3678 82.9021 30.6491 82.8685 30.9875L82.8751 31.0042H85.019V30.9045C85.019 30.5927 84.9256 30.3317 84.7383 30.1215C84.551 29.9115 84.2975 29.8066 83.9776 29.8066ZM84.028 33.2028C83.5706 33.2028 83.1901 33.0366 82.8871 32.7037C82.5836 32.3712 82.4323 31.9499 82.4323 31.4397V31.2569C82.4323 30.7424 82.5829 30.3156 82.8836 29.9759C83.1846 29.6369 83.5491 29.4672 83.9776 29.4672C84.4261 29.4672 84.7789 29.6069 85.0359 29.8865C85.2929 30.1657 85.4214 30.5382 85.4214 31.0042V31.3432H82.838V31.4395C82.838 31.8445 82.9473 32.1832 83.1659 32.4553C83.3846 32.7273 83.672 32.8638 84.0281 32.8638C84.2805 32.8638 84.496 32.8293 84.6739 32.7605C84.8462 32.6956 85.002 32.5946 85.1305 32.4644L85.3029 32.737C85.1656 32.8796 84.9913 32.9929 84.7805 33.077C84.5696 33.1607 84.3191 33.2028 84.0281 33.2028H84.028ZM86.4018 31.3881C86.4018 31.8049 86.5088 32.1548 86.7232 32.4384C86.9373 32.7217 87.236 32.8636 87.6194 32.8636C87.9958 32.8636 88.2916 32.7218 88.5069 32.4384C88.7222 32.1548 88.8298 31.8049 88.8298 31.3881V31.2785C88.8298 30.8686 88.7217 30.521 88.5052 30.2351C88.2886 29.9495 87.9911 29.8066 87.6126 29.8066C87.2338 29.8066 86.9375 29.9495 86.7232 30.2351C86.509 30.521 86.402 30.8686 86.402 31.2785V31.3881H86.4018ZM85.9961 31.2802C85.9961 30.7502 86.1439 30.3156 86.4393 29.9761C86.7345 29.6369 87.1255 29.4672 87.6126 29.4672C88.1017 29.4672 88.4938 29.6369 88.7892 29.9761C89.0844 30.3156 89.2322 30.7502 89.2322 31.2802V31.39C89.2322 31.9221 89.0851 32.3576 88.791 32.6955C88.4967 33.0339 88.1061 33.203 87.6194 33.203C87.1278 33.203 86.7345 33.0339 86.4393 32.6955C86.1439 32.3574 85.9961 31.9221 85.9961 31.39V31.2801V31.2802ZM94.6697 30.861H92.2755V33.1329H91.8731V28.2896H95.0146V28.6289H92.2755V30.5217H94.6697V30.861ZM95.863 31.3881C95.863 31.8049 95.97 32.1548 96.1842 32.4384C96.3985 32.7217 96.697 32.8636 97.0804 32.8636C97.4568 32.8636 97.7526 32.7218 97.9679 32.4384C98.1832 32.1548 98.2908 31.8049 98.2908 31.3881V31.2785C98.2908 30.8686 98.1827 30.521 97.9662 30.2351C97.7496 29.9495 97.4522 29.8066 97.0736 29.8066C96.695 29.8066 96.3985 29.9495 96.1842 30.2351C95.97 30.521 95.863 30.8686 95.863 31.2785V31.3881ZM95.4571 31.2802C95.4571 30.7502 95.6049 30.3156 95.9003 29.9761C96.1955 29.6369 96.5867 29.4672 97.0736 29.4672C97.5627 29.4672 97.9549 29.6369 98.2504 29.9761C98.5456 30.3156 98.6932 30.7502 98.6932 31.2802V31.39C98.6932 31.9221 98.5462 32.3576 98.252 32.6955C97.9577 33.0339 97.5671 33.203 97.0804 33.203C96.5888 33.203 96.1955 33.0339 95.9003 32.6955C95.6049 32.3574 95.4571 31.9221 95.4571 31.39V31.2801V31.2802ZM101.223 29.8762L100.922 29.8561C100.667 29.8561 100.458 29.9269 100.294 30.0676C100.131 30.2085 100.014 30.402 99.9444 30.6481V33.1329H99.5386V29.5338H99.8936L99.9444 30.1325V30.1726C100.05 29.9506 100.192 29.7776 100.37 29.6536C100.548 29.5293 100.76 29.4674 101.006 29.4674C101.058 29.4674 101.108 29.4711 101.157 29.4787C101.205 29.4864 101.245 29.4948 101.277 29.5038L101.223 29.8762ZM106.508 31.9436C106.508 31.6804 106.407 31.4649 106.207 31.2977C106.006 31.1305 105.657 30.9828 105.158 30.8543C104.619 30.7212 104.212 30.5483 103.934 30.3354C103.657 30.1227 103.518 29.8354 103.518 29.4739C103.518 29.1034 103.673 28.8018 103.983 28.569C104.293 28.3362 104.692 28.2198 105.179 28.2198C105.686 28.2198 106.095 28.3585 106.406 28.6356C106.717 28.9127 106.868 29.251 106.859 29.6502L106.849 29.67H106.477C106.477 29.3465 106.361 29.0802 106.127 28.8718C105.894 28.6633 105.578 28.5591 105.179 28.5591C104.784 28.5591 104.476 28.6453 104.254 28.8186C104.032 28.9915 103.921 29.2065 103.921 29.4638C103.921 29.7078 104.023 29.9112 104.229 30.0741C104.434 30.2373 104.788 30.3809 105.29 30.5049C105.82 30.6381 106.223 30.8178 106.499 31.0441C106.775 31.2702 106.914 31.5686 106.914 31.939C106.914 32.3247 106.753 32.6319 106.432 32.8601C106.11 33.0886 105.701 33.203 105.203 33.203C104.711 33.203 104.282 33.0815 103.916 32.8387C103.549 32.5957 103.372 32.2415 103.383 31.7758L103.39 31.7558H103.762C103.762 32.1317 103.905 32.4104 104.191 32.5916C104.478 32.7731 104.815 32.8636 105.202 32.8636C105.592 32.8636 105.907 32.7794 106.147 32.611C106.388 32.443 106.508 32.2204 106.508 31.9438V31.9436ZM108.083 29.5338L108.121 30.1294C108.238 29.9184 108.394 29.7555 108.589 29.6403C108.784 29.525 109.017 29.4674 109.287 29.4674C109.567 29.4674 109.801 29.5338 109.989 29.6669C110.177 29.7999 110.312 30.0026 110.393 30.2757C110.503 30.0225 110.661 29.8248 110.865 29.6818C111.069 29.5386 111.317 29.4674 111.61 29.4674C112 29.4674 112.301 29.5946 112.513 29.8496C112.725 30.1051 112.831 30.4997 112.831 31.0339V33.1332H112.425V31.0231C112.425 30.5788 112.346 30.265 112.187 30.0814C112.028 29.8984 111.806 29.8064 111.522 29.8064C111.209 29.8064 110.967 29.903 110.795 30.0965C110.624 30.2899 110.518 30.5376 110.477 30.8398C110.477 30.8553 110.478 30.8776 110.479 30.9064C110.48 30.9353 110.481 30.9567 110.481 30.9698V33.133H110.072V31.0231C110.072 30.5876 109.991 30.2761 109.83 30.0882C109.669 29.9004 109.447 29.8064 109.165 29.8064C108.879 29.8064 108.652 29.8781 108.484 30.0216C108.316 30.165 108.198 30.3576 108.131 30.5997V33.133H107.722V29.5338H108.084H108.083ZM114.867 32.8503C115.157 32.8503 115.414 32.7833 115.638 32.6489C115.861 32.515 116.022 32.3436 116.121 32.1351V31.3835H115.306C114.939 31.3835 114.645 31.4606 114.425 31.6148C114.206 31.769 114.096 31.9603 114.096 32.1885C114.096 32.3836 114.164 32.5427 114.3 32.6658C114.436 32.7889 114.625 32.8505 114.867 32.8505V32.8503ZM116.196 33.133C116.172 33.0287 116.152 32.9233 116.138 32.8172C116.127 32.7277 116.121 32.6377 116.121 32.5475C115.986 32.7361 115.806 32.8924 115.58 33.0166C115.355 33.1408 115.101 33.203 114.819 33.203C114.463 33.203 114.186 33.1098 113.989 32.9234C113.792 32.737 113.693 32.4878 113.693 32.1752C113.693 31.8424 113.839 31.5761 114.131 31.3765C114.423 31.1771 114.817 31.0773 115.313 31.0773H116.121V30.6314C116.121 30.3743 116.037 30.1724 115.869 30.0261C115.701 29.8796 115.466 29.8066 115.164 29.8066C114.882 29.8066 114.649 29.8762 114.462 30.016C114.276 30.1558 114.184 30.3266 114.184 30.5285L113.812 30.5249L113.805 30.5051C113.791 30.2368 113.916 29.9967 114.179 29.7849C114.441 29.5731 114.775 29.4672 115.181 29.4672C115.585 29.4672 115.909 29.5682 116.155 29.7699C116.401 29.9718 116.523 30.2611 116.523 30.6381V32.4079C116.523 32.5344 116.531 32.6571 116.546 32.7771C116.56 32.8971 116.584 33.0155 116.618 33.133H116.196ZM119.286 29.8762L118.985 29.8561C118.73 29.8561 118.521 29.9269 118.358 30.0676C118.194 30.2085 118.078 30.402 118.008 30.6481V33.1329H117.602V29.5338H117.957L118.008 30.1325V30.1726C118.114 29.9506 118.256 29.7776 118.434 29.6536C118.612 29.5293 118.824 29.4674 119.07 29.4674C119.122 29.4674 119.172 29.4711 119.22 29.4787C119.269 29.4864 119.308 29.4948 119.34 29.5038L119.286 29.8762ZM120.703 28.6122V29.5338H121.508V29.8597H120.703V32.2048C120.703 32.4401 120.747 32.607 120.833 32.7056C120.92 32.8042 121.036 32.8536 121.18 32.8536C121.245 32.8536 121.309 32.8506 121.371 32.8454C121.433 32.8395 121.504 32.8305 121.586 32.817L121.646 33.113C121.579 33.1417 121.496 33.1641 121.399 33.1796C121.303 33.195 121.206 33.2028 121.109 33.2028C120.852 33.2028 120.652 33.1231 120.509 32.9633C120.365 32.8039 120.294 32.5508 120.294 32.2048V29.8597H119.661V29.5338H120.294V28.6124H120.703L120.703 28.6122ZM124.568 32.7938H127.003V33.1329H124.162V28.2896H124.568L124.568 32.7938ZM128.152 33.133H127.75V29.5338H128.152V33.1332V33.133ZM128.152 28.5026H127.75V27.9436H128.152V28.5024V28.5026ZM129.566 33.1329V29.8598H128.96V29.5336H129.566V29.0082C129.566 28.6467 129.658 28.3673 129.841 28.1699C130.025 27.9725 130.283 27.8738 130.614 27.8738C130.689 27.8738 130.764 27.8793 130.841 27.8905C130.917 27.9016 130.995 27.9168 131.074 27.9369L131.023 28.2664C130.968 28.2528 130.912 28.2423 130.856 28.2348C130.798 28.2269 130.731 28.2232 130.655 28.2232C130.434 28.2232 130.264 28.2919 130.147 28.4294C130.03 28.5668 129.972 28.7596 129.972 29.0082V29.5335H130.844V29.8597H129.972V33.133H129.566L129.566 33.1329ZM132.788 29.8066C132.488 29.8066 132.237 29.9188 132.034 30.1431C131.831 30.3678 131.713 30.6491 131.679 30.9875L131.686 31.0042H133.83V30.9045C133.83 30.5927 133.736 30.3317 133.549 30.1215C133.362 29.9115 133.108 29.8066 132.788 29.8066ZM132.839 33.2028C132.381 33.2028 132.001 33.0366 131.698 32.7037C131.394 32.3712 131.243 31.9499 131.243 31.4397V31.2569C131.243 30.7424 131.393 30.3156 131.694 29.9759C131.995 29.6369 132.36 29.4672 132.788 29.4672C133.237 29.4672 133.589 29.6069 133.846 29.8865C134.103 30.1657 134.232 30.5382 134.232 31.0042V31.3432H131.649V31.4395C131.649 31.8445 131.758 32.1832 131.976 32.4553C132.195 32.7273 132.483 32.8638 132.839 32.8638C133.091 32.8638 133.307 32.8293 133.485 32.7605C133.657 32.6956 133.813 32.5946 133.941 32.4644L134.113 32.737C133.976 32.8796 133.802 32.9929 133.591 33.077C133.38 33.1607 133.13 33.2028 132.839 33.2028Z" fill="#9FA0A0"/>
<path d="M137.803 6.93666H136.99V9.32587H136.414V6.93681H135.605V6.50009H137.803V6.93666ZM138.876 6.49978L139.608 8.58262H139.62L140.358 6.49978H141.112V9.32587H140.535V8.48369L140.591 7.2356L140.579 7.23374L139.809 9.32587H139.423L138.657 7.24148L138.645 7.2435L138.701 8.48354V9.32571H138.125V6.49993L138.876 6.49978Z" fill="#9F9FA0"/>
</g>
</g>
<defs>
<clipPath id="clip0">
<rect x="0.226562" width="141" height="37" fill="white"/>
</clipPath>
</defs>
</svg>
