<svg width="246" height="65" viewBox="0 0 246 65" fill="none" xmlns="http://www.w3.org/2000/svg">
<g clip-path="url(#clip0)">
<mask id="mask0" mask-type="alpha" maskUnits="userSpaceOnUse" x="-1" y="0" width="247" height="66">
<path d="M-0.366211 0.566879H246V65.5488H-0.366211V0.566879Z" fill="white"/>
</mask>
<g mask="url(#mask0)">
<path fill-rule="evenodd" clip-rule="evenodd" d="M69.0263 11.6879C70.0238 17.792 60.6656 27.0594 50.7781 28.8902C41.459 30.705 33.6331 26.9368 32.595 20.6787C31.5671 13.3139 35.8284 7.60395 48.3121 5.7284C58.4143 4.44894 67.7513 5.24157 69.0263 11.6879Z" fill="#46B035"/>
<path fill-rule="evenodd" clip-rule="evenodd" d="M20.6606 60.1248C7.68242 63.78 1.72707 58.2707 0.266449 53.0698C-0.896834 46.2727 4.76638 40.3153 14.0383 38.2678C23.3059 36.2308 38.5878 38.2941 38.1397 46.6591C37.0701 53.3493 32.0136 57.0929 20.6606 60.1248Z" fill="#DD007F"/>
<path d="M10.6608 28.2419C14.797 34.1513 21.5276 37.9246 26.1791 33.1466C30.8287 28.3685 31.5491 11.3036 27.4174 5.39628C23.2798 -0.515018 16.4676 -0.618649 10.0285 6.25934C3.58859 13.1414 6.5318 22.3354 10.6611 28.2416" fill="#00A1E9"/>
<path d="M59.927 36.6332C55.5663 31.1673 48.7334 28.1448 44.3606 33.4855C39.9848 38.8282 40.0669 56.0699 44.4276 61.5373C48.7903 67.0027 55.4812 65.9476 61.5304 58.2864C67.5739 50.6243 64.2897 42.0979 59.927 36.6332Z" fill="#F6AB00"/>
<path d="M36.3602 19.4575C31.147 19.4575 26.2319 23.0726 23.5276 28.8821C20.5981 35.1838 22.4793 41.3294 28.4366 44.9182C30.7332 46.1458 33.2451 46.8024 35.6809 46.8024C40.6811 46.8024 44.6083 44.1192 46.4563 39.4378C49.1143 31.1826 47.1705 23.8464 41.499 20.7712C39.8901 19.902 38.1602 19.4575 36.3602 19.4575ZM35.6809 47.7468C33.0831 47.7468 30.409 47.0484 27.9503 45.7342C21.6219 41.921 19.5493 35.1576 22.6487 28.493C25.5079 22.3394 30.7629 18.5146 36.3599 18.5146C38.3257 18.5146 40.2141 18.9974 41.9688 19.9513C48.0608 23.2493 50.179 31.0214 47.369 39.7463C45.3584 44.8417 41.1023 47.7468 35.6812 47.7468" fill="white"/>
<path d="M20.3709 45.8186C23.4297 49.4208 29.0366 51.7473 34.665 51.7473H34.6671C42.8736 51.7473 49.3376 47.0439 52.4093 38.834C55.044 30.6498 51.8871 21.9396 44.3589 16.679C42.2089 15.338 39.6937 14.65 36.9119 14.65C31.822 14.65 26.1489 17.1209 22.463 20.9416C15.1612 29.1941 14.4293 37.8044 20.3709 45.8186ZM34.6669 53.1636H34.665C28.6119 53.1636 22.5582 50.6277 19.2383 46.702L19.2098 46.6682C14.7502 40.6619 11.5094 31.158 21.3864 19.9958C25.4141 15.8189 31.3555 13.2364 36.9119 13.2364C39.9759 13.2364 42.7536 14.002 45.1721 15.5088C53.1265 21.0661 56.5743 30.6141 53.7827 39.2884C50.4803 48.1194 43.5168 53.1636 34.6671 53.1636" fill="white"/>
<path d="M205.362 35.3869C206.699 34.0442 225.383 17.0167 225.383 17.0167H204.552V12.1696H235.09C235.09 14.4 235.188 15.9485 234.702 17.0242C234.702 17.0242 234.27 17.8586 232.749 19.1236C230.991 20.8865 213.268 36.947 213.268 36.947H235.626V41.4816H203.477C203.408 37.9616 203.677 37.204 205.362 35.3869ZM117.967 35.3869C119.302 34.0442 137.986 17.0167 137.986 17.0167H117.157V12.1696H147.692C147.692 14.4 147.793 15.9485 147.306 17.0242C147.306 17.0242 146.872 17.8586 145.352 19.1236C143.595 20.8865 125.871 36.947 125.871 36.947H148.229V41.4816H116.082C116.011 37.9616 116.278 37.204 117.967 35.3869H117.967ZM191.633 12.1693H199.67V41.4819H191.633V12.1693ZM105.08 24.6475H86.1934V19.1368C86.1934 18.0547 86.9669 17.0331 88.8311 17.0331H102.367C103.893 17.0331 105.08 17.1873 105.08 19.1368V24.6477V24.6475ZM105.274 12.1434H85.3223C81.3226 12.1434 78.4082 13.8722 78.4082 18.4068V34.0643C78.4082 38.4782 79.627 41.5103 85.8039 41.5103H112.401V36.6572H90.6346C86.7807 36.6572 86.1934 35.3746 86.1934 33.8881V29.5232H112.547V18.4405C112.547 14.3748 110.649 12.1434 105.274 12.1434ZM173.253 39.8361L189.176 12.1693H181.142L167.487 35.2905L158.967 12.1693H150.927L161.724 39.8516C162.08 40.4204 162.978 41.4816 164.684 41.4816H170.286C172.005 41.4816 172.906 40.4059 173.253 39.8361Z" fill="#9F9FA0"/>
<path d="M85.8132 56.235C85.8132 55.7798 85.6381 55.407 85.288 55.1178C84.9377 54.8286 84.3282 54.5732 83.4592 54.3509C82.5191 54.1206 81.8075 53.8215 81.3235 53.4533C80.84 53.0854 80.5978 52.5884 80.5978 51.9631C80.5978 51.3223 80.8685 50.8006 81.4091 50.3979C81.95 49.9952 82.6454 49.7938 83.4946 49.7938C84.3795 49.7938 85.0933 50.0337 85.6361 50.513C86.1789 50.9924 86.4425 51.5775 86.4268 52.2681L86.409 52.3024H85.76C85.76 51.7427 85.5568 51.2821 85.1496 50.9217C84.7422 50.561 84.1906 50.3808 83.4946 50.3808C82.8063 50.3808 82.2682 50.5299 81.8813 50.8296C81.4937 51.1287 81.3001 51.5006 81.3001 51.9457C81.3001 52.3677 81.4791 52.7196 81.8371 53.0013C82.1946 53.2835 82.8124 53.532 83.6893 53.7465C84.6137 53.9768 85.3166 54.2877 85.7984 54.6792C86.28 55.0702 86.5213 55.5864 86.5213 56.227C86.5213 56.8943 86.241 57.4256 85.6803 57.8203C85.1197 58.2155 84.405 58.4134 83.5361 58.4134C82.6786 58.4134 81.9305 58.2032 81.2908 57.7833C80.6516 57.3629 80.3425 56.7502 80.3617 55.9447L80.3738 55.9102H81.0228C81.0228 56.5604 81.2727 57.0424 81.7718 57.356C82.2712 57.6698 82.8596 57.8264 83.5361 57.8264C84.2164 57.8264 84.7661 57.6808 85.1848 57.3894C85.604 57.0989 85.8135 56.7138 85.8135 56.2353L85.8132 56.235ZM90.2733 52.5385C89.7503 52.5385 89.3116 52.7327 88.9577 53.1207C88.6035 53.5093 88.3973 53.9958 88.3383 54.5812L88.3501 54.6101H92.0906V54.4377C92.0906 53.8983 91.9273 53.4469 91.6008 53.0832C91.2741 52.7201 90.8315 52.5385 90.2733 52.5385ZM90.3615 58.4132C89.5636 58.4132 88.8995 58.1256 88.371 57.5498C87.8416 56.9746 87.5775 56.246 87.5775 55.3634V55.0471C87.5775 54.1573 87.84 53.419 88.3647 52.8315C88.8899 52.2451 89.526 51.9516 90.2733 51.9516C91.0558 51.9516 91.6714 52.1931 92.1197 52.6767C92.5683 53.1598 92.7924 53.8041 92.7924 54.6101V55.1966H88.285V55.3631C88.285 56.0636 88.4756 56.6495 88.8572 57.12C89.2388 57.5905 89.7402 57.8267 90.3612 57.8267C90.8016 57.8267 91.1777 57.767 91.488 57.6481C91.7886 57.5358 92.0605 57.361 92.2847 57.1358L92.5856 57.6074C92.3457 57.854 92.042 58.05 91.6741 58.1954C91.3062 58.3403 90.8691 58.4132 90.3612 58.4132H90.3615ZM96.5562 57.8264C97.0241 57.8264 97.437 57.6966 97.795 57.4366C98.1528 57.1768 98.332 56.8156 98.332 56.3534H98.9575L98.969 56.3882C98.9888 56.9631 98.7527 57.4449 98.2612 57.8321C97.7695 58.2195 97.2014 58.4134 96.5562 58.4134C95.687 58.4134 95.0154 58.1223 94.5416 57.5415C94.0674 56.9604 93.831 56.2131 93.831 55.3002V55.0586C93.831 54.1535 94.0685 53.4091 94.5448 52.8261C95.0207 52.2429 95.6892 51.9516 96.5502 51.9516C97.2503 51.9516 97.8335 52.1527 98.2997 52.5554C98.7656 52.9582 98.9907 53.4881 98.9751 54.1439L98.9632 54.1782H98.332C98.332 53.6798 98.1602 53.2816 97.8156 52.9841C97.4716 52.6869 97.0496 52.5383 96.5499 52.5383C95.866 52.5383 95.3592 52.7766 95.0314 53.2538C94.703 53.7307 94.5385 54.3316 94.5385 55.056V55.297C94.5385 56.0331 94.7019 56.6386 95.0283 57.1139C95.3551 57.5887 95.8638 57.8264 96.5562 57.8264ZM104.633 57.2737C104.428 57.6385 104.152 57.9194 103.806 58.1167C103.46 58.3143 103.052 58.4132 102.58 58.4132C101.907 58.4132 101.38 58.1909 100.999 57.7458C100.617 57.3005 100.426 56.6104 100.426 55.6745V52.0667H101.134V55.6933C101.134 56.4541 101.267 57.0001 101.532 57.3305C101.798 57.6612 102.175 57.8264 102.662 57.8264C103.197 57.8264 103.624 57.7092 103.942 57.4746C104.261 57.24 104.483 56.9171 104.609 56.5063V52.0667H105.317V58.2927H104.692L104.633 57.2737ZM110.113 52.659L109.588 52.6242C109.144 52.6242 108.779 52.7466 108.494 52.99C108.209 53.2337 108.005 53.5684 107.883 53.9942V58.2921H107.175V52.0667H107.795L107.883 53.1022V53.1716C108.068 52.7876 108.316 52.4885 108.626 52.274C108.937 52.0589 109.307 51.9518 109.736 51.9518C109.826 51.9518 109.914 51.9583 109.999 51.9714C110.083 51.9848 110.152 51.9992 110.208 52.0148L110.113 52.659ZM112.078 58.2924H111.376V52.0667H112.078V58.2927V58.2924ZM112.078 50.283H111.376V49.3161H112.078V50.2827V50.283ZM115.14 50.4726V52.0667H116.544V52.6304H115.14V56.6868C115.14 57.0938 115.216 57.3825 115.367 57.553C115.518 57.7236 115.72 57.809 115.972 57.809C116.086 57.809 116.197 57.804 116.305 57.7948C116.413 57.7847 116.538 57.7691 116.68 57.7458L116.786 58.2578C116.668 58.3074 116.524 58.3462 116.355 58.373C116.187 58.3996 116.018 58.4131 115.848 58.4132C115.399 58.4132 115.05 58.2752 114.801 57.9989C114.551 57.7231 114.426 57.2853 114.426 56.6868V52.6304H113.322V52.0667H114.426V50.4729H115.14V50.4726ZM119.854 56.6064L120.078 57.3487H120.113L122.042 52.0667H122.833L120.06 59.2877C119.895 59.7095 119.68 60.0683 119.417 60.3637C119.153 60.6593 118.768 60.8071 118.261 60.8071C118.178 60.8071 118.077 60.798 117.96 60.7809C117.842 60.7637 117.755 60.7455 117.7 60.7263L117.783 60.1511C117.83 60.1583 117.906 60.1671 118.01 60.1768C118.114 60.1861 118.19 60.1912 118.237 60.1912C118.544 60.1912 118.79 60.0847 118.975 59.872C119.16 59.6591 119.317 59.3857 119.447 59.0521L119.783 58.2118L117.317 52.0667H118.101L119.854 56.6064ZM129.499 56.8769L129.67 57.4347H129.705L129.877 56.8769L132.455 49.9145H133.222L130.018 58.2924H129.352L126.148 49.9145H126.915L129.499 56.8769ZM135.133 58.2924H134.431V52.0667H135.133V58.2927V58.2924ZM135.133 50.283H134.431V49.3161H135.133V50.2827V50.283ZM137.517 55.3529C137.517 56.1081 137.671 56.709 137.98 57.1559C138.288 57.6031 138.753 57.8264 139.375 57.8264C139.831 57.8264 140.212 57.7258 140.517 57.526C140.821 57.3252 141.058 57.0483 141.227 56.6937V53.7578C141.066 53.3957 140.838 53.1017 140.543 52.8768C140.248 52.6513 139.862 52.5383 139.387 52.5383C138.765 52.5383 138.299 52.7876 137.986 53.2867C137.673 53.7856 137.517 54.4339 137.517 55.2311V55.3529ZM136.809 55.2311C136.809 54.2379 137.024 53.4428 137.455 52.8462C137.885 52.2499 138.486 51.9518 139.257 51.9518C139.701 51.9518 140.087 52.0434 140.413 52.2277C140.74 52.4119 141.011 52.6727 141.227 53.0101V49.3161H141.93V58.2921H141.304L141.245 57.3889C141.033 57.7191 140.759 57.9721 140.425 58.1486C140.091 58.3251 139.697 58.4132 139.245 58.4132C138.482 58.4132 137.885 58.136 137.455 57.5817C137.024 57.0274 136.809 56.284 136.809 55.3519V55.2314V55.2311ZM146.118 52.5385C145.595 52.5385 145.157 52.7327 144.803 53.1207C144.449 53.5093 144.242 53.9958 144.183 54.5812L144.195 54.6101H147.935V54.4377C147.935 53.8983 147.772 53.4469 147.446 53.0832C147.119 52.7201 146.677 52.5385 146.118 52.5385ZM146.206 58.4132C145.408 58.4132 144.745 58.1256 144.216 57.5498C143.686 56.9746 143.422 56.246 143.422 55.3634V55.0471C143.422 54.1573 143.685 53.419 144.21 52.8315C144.735 52.2451 145.371 51.9516 146.118 51.9516C146.901 51.9516 147.516 52.1931 147.965 52.6767C148.413 53.1598 148.637 53.8041 148.637 54.6101V55.1966H144.13V55.3631C144.13 56.0636 144.321 56.6495 144.702 57.12C145.084 57.5905 145.585 57.8267 146.207 57.8267C146.647 57.8267 147.023 57.767 147.333 57.6481C147.634 57.5358 147.906 57.361 148.13 57.1358L148.431 57.6074C148.191 57.854 147.887 58.05 147.519 58.1954C147.151 58.3403 146.714 58.4132 146.207 58.4132H146.206ZM150.348 55.2742C150.348 55.9951 150.535 56.6003 150.909 57.0908C151.282 57.5809 151.803 57.8264 152.472 57.8264C153.129 57.8264 153.645 57.5812 154.021 57.0908C154.396 56.6003 154.584 55.9951 154.584 55.2742V55.0846C154.584 54.3755 154.395 53.7744 154.018 53.2798C153.64 52.7857 153.121 52.5385 152.46 52.5385C151.799 52.5385 151.282 52.7857 150.909 53.2798C150.535 53.7744 150.348 54.3755 150.348 55.0846V55.2742H150.348ZM149.64 55.0876C149.64 54.1707 149.898 53.419 150.413 52.8318C150.928 52.2451 151.611 51.9516 152.46 51.9516C153.314 51.9516 153.998 52.2451 154.513 52.8318C155.028 53.419 155.286 54.1707 155.286 55.0876V55.2774C155.286 56.1978 155.029 56.9511 154.516 57.5356C154.003 58.121 153.321 58.4134 152.472 58.4134C151.614 58.4134 150.928 58.121 150.413 57.5356C149.898 56.9508 149.64 56.1978 149.64 55.2774V55.0873V55.0876ZM164.773 54.3624H160.596V58.2921H159.894V49.9145H165.374V50.5015H160.596V53.7754H164.773V54.3624ZM166.855 55.2742C166.855 55.9951 167.041 56.6003 167.415 57.0908C167.789 57.5809 168.31 57.8264 168.979 57.8264C169.635 57.8264 170.151 57.5812 170.527 57.0908C170.903 56.6003 171.09 55.9951 171.09 55.2742V55.0846C171.09 54.3755 170.902 53.7744 170.524 53.2798C170.146 52.7857 169.627 52.5385 168.967 52.5385C168.306 52.5385 167.789 52.7857 167.415 53.2798C167.041 53.7744 166.855 54.3755 166.855 55.0846V55.2742ZM166.147 55.0876C166.147 54.1707 166.404 53.419 166.92 52.8318C167.435 52.2451 168.117 51.9516 168.967 51.9516C169.82 51.9516 170.504 52.2451 171.02 52.8318C171.535 53.419 171.792 54.1707 171.792 55.0876V55.2774C171.792 56.1978 171.536 56.9511 171.023 57.5356C170.509 58.121 169.828 58.4134 168.979 58.4134C168.121 58.4134 167.435 58.121 166.92 57.5356C166.404 56.9508 166.147 56.1978 166.147 55.2774V55.0873V55.0876ZM176.205 52.659L175.68 52.6242C175.236 52.6242 174.871 52.7466 174.586 52.99C174.301 53.2337 174.097 53.5684 173.975 53.9942V58.2921H173.267V52.0667H173.887L173.975 53.1022V53.1716C174.16 52.7876 174.408 52.4885 174.718 52.274C175.029 52.0589 175.399 51.9518 175.828 51.9518C175.918 51.9518 176.005 51.9583 176.091 51.9714C176.175 51.9848 176.244 51.9992 176.3 52.0148L176.205 52.659ZM185.426 56.235C185.426 55.7798 185.251 55.407 184.901 55.1178C184.551 54.8286 183.941 54.5732 183.072 54.3509C182.132 54.1206 181.42 53.8215 180.936 53.4533C180.453 53.0854 180.211 52.5884 180.211 51.9631C180.211 51.3223 180.481 50.8006 181.022 50.3979C181.563 49.9952 182.258 49.7938 183.108 49.7938C183.992 49.7938 184.706 50.0337 185.249 50.513C185.792 50.9924 186.056 51.5775 186.04 52.2681L186.022 52.3024H185.373C185.373 51.7427 185.17 51.2821 184.763 50.9217C184.355 50.561 183.803 50.3808 183.108 50.3808C182.419 50.3808 181.881 50.5299 181.494 50.8296C181.107 51.1287 180.913 51.5006 180.913 51.9457C180.913 52.3677 181.092 52.7196 181.45 53.0013C181.808 53.2835 182.425 53.532 183.302 53.7465C184.227 53.9768 184.93 54.2877 185.411 54.6792C185.893 55.0702 186.134 55.5864 186.134 56.227C186.134 56.8943 185.854 57.4256 185.293 57.8203C184.732 58.2155 184.018 58.4134 183.149 58.4134C182.292 58.4134 181.543 58.2032 180.904 57.7833C180.265 57.3629 179.955 56.7502 179.975 55.9447L179.987 55.9102H180.636C180.636 56.5604 180.886 57.0424 181.385 57.356C181.884 57.6698 182.472 57.8264 183.149 57.8264C183.829 57.8264 184.379 57.6808 184.798 57.3894C185.217 57.0989 185.426 56.7138 185.426 56.2353V56.235ZM188.175 52.0667L188.24 53.0969C188.445 52.7319 188.717 52.4502 189.057 52.2509C189.398 52.0515 189.804 51.9518 190.275 51.9518C190.763 51.9518 191.172 52.0667 191.5 52.297C191.828 52.527 192.063 52.8776 192.205 53.3499C192.397 52.9121 192.672 52.5701 193.028 52.3227C193.384 52.075 193.817 51.9518 194.329 51.9518C195.009 51.9518 195.534 52.172 195.903 52.613C196.273 53.0548 196.458 53.7374 196.458 54.6615V58.2927H195.75V54.6428C195.75 53.8742 195.611 53.3315 195.335 53.0139C195.057 52.6973 194.67 52.5383 194.175 52.5383C193.628 52.5383 193.205 52.7054 192.907 53.0401C192.608 53.3746 192.424 53.803 192.352 54.3257C192.352 54.3525 192.353 54.3911 192.355 54.4409C192.357 54.4909 192.358 54.5279 192.358 54.5507V58.2924H191.645V54.6428C191.645 53.8895 191.504 53.3507 191.223 53.0256C190.941 52.7008 190.555 52.5383 190.063 52.5383C189.564 52.5383 189.167 52.6623 188.874 52.9105C188.581 53.1585 188.376 53.4916 188.258 53.9104V58.2924H187.544V52.0667H188.176H188.175ZM200.01 57.8034C200.517 57.8034 200.966 57.6875 201.355 57.455C201.744 57.2234 202.025 56.927 202.198 56.5663V55.2662H200.777C200.136 55.2662 199.623 55.3995 199.24 55.6662C198.857 55.933 198.665 56.2639 198.665 56.6586C198.665 56.9961 198.784 57.2713 199.022 57.4842C199.259 57.6971 199.589 57.8037 200.01 57.8037V57.8034ZM202.329 58.2924C202.287 58.1119 202.253 57.9296 202.228 57.7461C202.208 57.5914 202.198 57.4356 202.198 57.2796C201.962 57.6058 201.648 57.8763 201.255 58.091C200.861 58.3058 200.419 58.4134 199.927 58.4134C199.306 58.4134 198.823 58.2522 198.479 57.9298C198.135 57.6074 197.963 57.1763 197.963 56.6356C197.963 56.0599 198.217 55.5993 198.727 55.2541C199.236 54.9092 199.923 54.7365 200.789 54.7365H202.198V53.9653C202.198 53.5205 202.052 53.1713 201.759 52.9183C201.466 52.6649 201.056 52.5385 200.529 52.5385C200.037 52.5385 199.629 52.659 199.305 52.9009C198.98 53.1427 198.818 53.438 198.818 53.7872L198.169 53.7811L198.157 53.7468C198.134 53.2827 198.351 52.8674 198.809 52.5011C199.267 52.1347 199.85 51.9516 200.558 51.9516C201.262 51.9516 201.829 52.1262 202.258 52.4751C202.687 52.8243 202.9 53.3248 202.9 53.9768V57.0381C202.9 57.2569 202.913 57.4692 202.939 57.6768C202.964 57.8843 203.007 58.0891 203.065 58.2924H202.329ZM207.721 52.659L207.195 52.6242C206.751 52.6242 206.386 52.7466 206.101 52.99C205.816 53.2337 205.612 53.5684 205.49 53.9942V58.2921H204.783V52.0667H205.402L205.49 53.1022V53.1716C205.675 52.7876 205.923 52.4885 206.234 52.274C206.544 52.0589 206.914 51.9518 207.343 51.9518C207.433 51.9518 207.521 51.9583 207.606 51.9714C207.69 51.9848 207.759 51.9992 207.815 52.0148L207.721 52.659ZM210.192 50.4726V52.0667H211.596V52.6304H210.193V56.6868C210.193 57.0938 210.268 57.3825 210.419 57.553C210.571 57.7236 210.773 57.809 211.024 57.809C211.138 57.809 211.249 57.804 211.358 57.7948C211.466 57.7847 211.591 57.7691 211.732 57.7458L211.838 58.2578C211.721 58.3074 211.577 58.3462 211.408 58.373C211.24 58.3997 211.07 58.4131 210.9 58.4132C210.452 58.4132 210.103 58.2752 209.853 57.9989C209.603 57.7231 209.479 57.2853 209.479 56.6868V52.6304H208.375V52.0667H209.479V50.4729H210.193L210.192 50.4726ZM216.935 57.7057H221.184V58.2921H216.228V49.9145H216.936L216.935 57.7057ZM223.189 58.2924H222.487V52.0667H223.189V58.2927V58.2924ZM223.189 50.283H222.487V49.3161H223.189V50.2827V50.283ZM225.655 58.2921V52.6307H224.599V52.0664H225.655V51.1576C225.655 50.5323 225.815 50.049 226.136 49.7076C226.457 49.3661 226.906 49.1953 227.484 49.1953C227.614 49.1953 227.745 49.2049 227.879 49.2242C228.013 49.2435 228.149 49.2697 228.286 49.3045L228.198 49.8744C228.102 49.851 228.004 49.8328 227.906 49.8198C227.805 49.8061 227.689 49.7997 227.555 49.7997C227.17 49.7997 226.874 49.9186 226.67 50.1564C226.465 50.3941 226.363 50.7275 226.363 51.1576V52.0662H227.885V52.6304H226.363V58.2924H225.655L225.655 58.2921ZM231.277 52.5385C230.754 52.5385 230.315 52.7327 229.961 53.1207C229.607 53.5093 229.401 53.9958 229.342 54.5812L229.354 54.6101H233.094V54.4377C233.094 53.8983 232.931 53.4469 232.604 53.0832C232.278 52.7201 231.835 52.5385 231.277 52.5385ZM231.365 58.4132C230.567 58.4132 229.903 58.1256 229.375 57.5498C228.845 56.9746 228.581 56.246 228.581 55.3634V55.0471C228.581 54.1573 228.844 53.419 229.368 52.8315C229.894 52.2451 230.53 51.9516 231.277 51.9516C232.06 51.9516 232.675 52.1931 233.124 52.6767C233.572 53.1598 233.796 53.8041 233.796 54.6101V55.1966H229.289V55.3631C229.289 56.0636 229.48 56.6495 229.861 57.12C230.243 57.5905 230.744 57.8267 231.365 57.8267C231.806 57.8267 232.182 57.767 232.492 57.6481C232.793 57.5358 233.064 57.361 233.289 57.1358L233.59 57.6074C233.35 57.854 233.046 58.05 232.678 58.1954C232.31 58.3403 231.873 58.4132 231.365 58.4132Z" fill="#9FA0A0"/>
<path d="M240.027 12.9799H238.609V17.1125H237.604V12.9801H236.192V12.2247H240.027V12.9799ZM241.9 12.2242L243.176 15.8269H243.197L244.485 12.2242H245.799V17.1125H244.794V15.6558L244.891 13.4969L244.87 13.4937L243.527 17.1125H242.853L241.517 13.5071L241.497 13.5106L241.593 15.6555V17.1123H240.588V12.2244L241.9 12.2242Z" fill="#9F9FA0"/>
</g>
</g>
<defs>
<clipPath id="clip0">
<rect y="0.981201" width="246" height="64" fill="white"/>
</clipPath>
</defs>
</svg>
