<svg viewBox="0 0 24 16" xmlns="http://www.w3.org/2000/svg"><title>Group 5_v1</title><path d="M0 2.183C0 .977 1 0 2.247 0h19.506C22.994 0 24 .977 24 2.183v11.634C24 15.023 23 16 21.753 16H2.247C1.006 16 0 15.023 0 13.817V2.183zm1.35 0v11.634c0 .484.402.874.897.874h19.506a.882.882 0 0 0 .897-.874V2.183a.885.885 0 0 0-.897-.874H2.247a.882.882 0 0 0-.897.874zM4.2 7.6H3v-3A1.6 1.6 0 0 1 4.6 3h3v1.2h-3a.4.4 0 0 0-.4.4v3zm15.6.8H21v3a1.6 1.6 0 0 1-1.6 1.6h-3v-1.2h3a.4.4 0 0 0 .4-.4v-3z" fill="#000" fill-rule="nonzero"></path></svg>