<svg xmlns="http://www.w3.org/2000/svg" viewBox="0 0 29.6 23.1"><path d="M29.2 6C21.2-2 8.3-2 .4 6c-.5.4-.5 1.2 0 1.6.2.2.5.4.9.4s.6-.2.8-.4c7-7 18.4-7 25.5 0 .5.5 1.2.5 1.7 0 .4-.4.4-1.2-.1-1.6m-14.4-.4c-3.9 0-7.6 1.5-10.4 4.3-.5.5-.5 1.2 0 1.7.2.2.5.3.9.3.3 0 .6-.1.9-.3C8.5 9.3 11.6 8 14.9 8c3.3 0 6.4 1.3 8.7 3.6.5.5 1.2.5 1.7 0 .4-.5.5-1.2 0-1.7-2.8-2.7-6.5-4.3-10.5-4.3m-6.2 8.6c-.5.5-.5 1.2 0 1.7.2.2.5.3.9.3.3 0 .6-.1.9-.3 2.5-2.5 6.6-2.5 9.1 0 .5.5 1.2.5 1.7 0s.5-1.2 0-1.7c-3.6-3.5-9.2-3.5-12.6 0m6.2 3.4c-.7 0-1.4.3-2 .8-1.1 1.1-1.1 2.8 0 3.9.5.5 1.2.8 2 .8.7 0 1.4-.3 2-.8 1.1-1.1 1.1-2.8 0-3.9-.6-.6-1.3-.8-2-.8"></path></svg>