<svg xmlns="http://www.w3.org/2000/svg" fill="none" viewBox="0 0 67 66"><g fill="#485158" fill-rule="evenodd" clip-path="url(#a)" clip-rule="evenodd"><path d="M31.945 28.218c0-.436.357-.788.798-.788h3.981c.44 0 .798.352.798.788a.793.793 0 0 1-.798.788H33.54v2.82h3.184c.44 0 .798.353.798.788a.793.793 0 0 1-.798.788H33.54v2.82h3.184c.44 0 .798.353.798.788a.793.793 0 0 1-.798.789h-3.981a.793.793 0 0 1-.798-.789v-8.792ZM48.569 28.218c0-.436.356-.788.797-.788h2.503c1.257 0 2.828 1.15 2.846 3.187.01 1.241-.486 2.062-1.164 2.543a3.026 3.026 0 0 1-1.682.537l-.45.001c-.35.002-.822.004-1.256.004v3.308a.793.793 0 0 1-.797.789.793.793 0 0 1-.797-.789v-8.792Zm1.594 3.907c.416 0 .87-.002 1.22-.003l.486-.002c.142 0 .478-.047.753-.242.226-.16.505-.481.498-1.247-.01-1.175-.872-1.625-1.25-1.625h-1.707v3.12ZM40.257 28.218c0-.436.357-.788.797-.788h2.504c1.257 0 2.827 1.15 2.845 3.187.01 1.241-.486 2.062-1.164 2.543-.494.35-1.03.481-1.41.521l2.142 2.86a.782.782 0 0 1-.167 1.103.803.803 0 0 1-1.115-.165l-2.828-3.777h-.01v3.308a.793.793 0 0 1-.797.789.793.793 0 0 1-.797-.789v-8.792Zm1.595 3.907v-3.119h1.706c.379 0 1.24.45 1.25 1.625.007.766-.272 1.087-.498 1.247a1.424 1.424 0 0 1-.752.242c-.097 0-.266 0-.474.002a329.795 329.795 0 0 1-1.232.003Z"/><path d="M32.392 1.172A3.02 3.02 0 0 0 29.244.097L23.45 1.592c-1.603.414-2.564 2.034-2.145 3.619l1.387 5.255a27.264 27.264 0 0 0-6.967 6.545l-5.882-2.87c-1.486-.725-3.285-.122-4.018 1.347l-2.65 5.309a2.95 2.95 0 0 0 1.361 3.972l6.383 3.115a26.778 26.778 0 0 0-.484 5.08c0 1.77.173 3.5.503 5.176L4.823 41.22a2.95 2.95 0 0 0-1.31 3.99l2.72 5.275c.752 1.46 2.559 2.04 4.035 1.296L15.788 49a27.265 27.265 0 0 0 6.726 6.343l-1.307 5.737c-.364 1.598.65 3.185 2.267 3.545l5.842 1.302a3.018 3.018 0 0 0 3.076-1.134v-5.614l-.953 4.18a1.5 1.5 0 0 1-1.793 1.121l-5.842-1.302a1.483 1.483 0 0 1-1.134-1.772l1.533-6.728-.853-.566a25.775 25.775 0 0 1-6.358-5.996l-.756-1.007-6.65 3.351a1.508 1.508 0 0 1-2.017-.648l-2.72-5.274a1.475 1.475 0 0 1 .656-1.995l7.121-3.59-.216-1.097a25.313 25.313 0 0 1-.475-4.893c0-1.642.157-3.247.457-4.8l.214-1.11L5.2 23.44a1.475 1.475 0 0 1-.68-1.986l2.65-5.309a1.508 1.508 0 0 1 2.01-.673l7.008 3.42.745-1a25.772 25.772 0 0 1 6.585-6.187l.897-.585-1.659-6.283a1.482 1.482 0 0 1 1.073-1.81l5.794-1.494a1.502 1.502 0 0 1 1.83 1.06l.939 3.554V1.172Z"/><path d="M31.782.847c.414 0 .75.332.75.742v13.165a.742.742 0 0 1-.496.698c-3.85 1.37-7.323 3.306-9.83 6.04-2.491 2.718-4.06 6.26-4.06 10.926 0 8.99 7.538 14.895 13.964 17.44a.742.742 0 0 1 .47.689v13.81c0 .409-.335.74-.75.74a.746.746 0 0 1-.75-.74V51.042c-6.55-2.735-14.435-8.956-14.435-18.625 0-5.033 1.707-8.93 4.45-11.922 2.614-2.852 6.14-4.85 9.937-6.26V1.59c0-.41.336-.742.75-.742Z"/><path d="M24.364 31.763v1.412c0 4.64 3.806 8.403 8.5 8.403h19.264c4.694 0 8.5-3.762 8.5-8.404v-1.41c0-4.642-3.806-8.405-8.5-8.405H32.864c-4.694 0-8.5 3.763-8.5 8.404Zm-1.5 1.412c0 5.46 4.477 9.886 10 9.886h19.264c5.523 0 10-4.426 10-9.886v-1.412c0-5.46-4.477-9.887-10-9.887H32.864c-5.523 0-10 4.427-10 9.887v1.412ZM31.08 4.064c0-.41.336-.742.75-.742h11.045c.414 0 .75.332.75.742s-.336.741-.75.741H31.83a.746.746 0 0 1-.75-.741Zm0 7.48c0-.41.336-.741.75-.741h23.248c.414 0 .75.332.75.741 0 .41-.336.742-.75.742H31.831a.746.746 0 0 1-.75-.742Zm.135 42.131c0-.41.336-.741.75-.741h23.439c.414 0 .75.332.75.741 0 .41-.336.742-.75.742H31.965a.746.746 0 0 1-.75-.742Zm0 7.199c0-.41.336-.742.75-.742h11.68c.415 0 .75.332.75.742s-.335.741-.75.741h-11.68a.746.746 0 0 1-.75-.741Z"/><path d="M46.496 6.426c1.38 0 2.5-1.106 2.5-2.471s-1.12-2.472-2.5-2.472-2.5 1.107-2.5 2.472 1.12 2.471 2.5 2.471Zm0 1.484c2.21 0 4-1.771 4-3.955S48.706 0 46.496 0s-4 1.77-4 3.955c0 2.184 1.79 3.955 4 3.955ZM58.838 14.087c1.381 0 2.5-1.107 2.5-2.472s-1.119-2.472-2.5-2.472c-1.38 0-2.5 1.107-2.5 2.472s1.12 2.472 2.5 2.472Zm0 1.483c2.21 0 4-1.77 4-3.955 0-2.184-1.79-3.955-4-3.955-2.209 0-4 1.771-4 3.955s1.791 3.955 4 3.955ZM59.404 56.493c1.38 0 2.5-1.107 2.5-2.472s-1.12-2.471-2.5-2.471-2.5 1.106-2.5 2.471 1.12 2.472 2.5 2.472Zm0 1.483c2.209 0 4-1.77 4-3.955 0-2.184-1.791-3.955-4-3.955-2.21 0-4 1.771-4 3.955s1.79 3.955 4 3.955ZM47.33 63.346c1.38 0 2.5-1.107 2.5-2.472s-1.12-2.472-2.5-2.472-2.5 1.107-2.5 2.472 1.12 2.472 2.5 2.472Zm0 1.483c2.21 0 4-1.771 4-3.955s-1.79-3.955-4-3.955c-2.209 0-4 1.77-4 3.955 0 2.184 1.791 3.955 4 3.955Z"/></g><defs><clipPath id="a"><path fill="#fff" d="M0 0h66v66H0z" transform="translate(.134)"/></clipPath></defs></svg>