<svg xmlns="http://www.w3.org/2000/svg" fill="none" viewBox="0 0 67 66"><g fill="#485158" fill-rule="evenodd" clip-path="url(#a)" clip-rule="evenodd"><path d="M40.224 21.257c.334-.02.64.193.743.518l2.768 8.733 2.63-8.723a.736.736 0 0 1 .733-.528.74.74 0 0 1 .687.59l2.336 10.994a.75.75 0 0 1-.562.892.735.735 0 0 1-.874-.574l-1.742-8.194-2.488 8.256a.737.737 0 0 1-.697.529.736.736 0 0 1-.705-.52l-2.606-8.222-1.543 8.134a.736.736 0 0 1-.86.594.75.75 0 0 1-.582-.879l2.085-10.994a.74.74 0 0 1 .677-.606Z"/><path d="M63.066 6.747H2.944c-.812 0-1.47.672-1.47 1.5v37.925c0 .829.658 1.5 1.47 1.5h60.122c.811 0 1.47-.671 1.47-1.5V8.247c0-.828-.659-1.5-1.47-1.5Zm-60.122-1.5c-1.623 0-2.94 1.343-2.94 3v37.925c0 1.657 1.317 3 2.94 3h60.122c1.623 0 2.939-1.343 2.939-3V8.247c0-1.657-1.316-3-2.94-3H2.945Z"/><path d="M60.46 10.756H5.55c-.271 0-.49.223-.49.5v31.907c0 .277.22.5.49.5H60.46c.27 0 .49-.223.49-.5V11.256c0-.277-.22-.5-.49-.5ZM5.55 9.256c-1.083 0-1.96.895-1.96 2v31.907c0 1.105.877 2 1.96 2H60.46c1.082 0 1.96-.895 1.96-2V11.256c0-1.105-.878-2-1.96-2H5.549ZM50.47 57.44H15.54a.897.897 0 0 0-.888.907c0 .5.398.906.888.906h34.93c.49 0 .887-.406.887-.907 0-.5-.397-.906-.888-.906Zm-34.93-1.5c-1.302 0-2.357 1.077-2.357 2.407 0 1.328 1.055 2.406 2.357 2.406h34.93c1.301 0 2.357-1.078 2.357-2.407s-1.056-2.406-2.358-2.406H15.54Z"/><path d="M24.714 47.945h16.581v9.157h-16.58v-9.157Zm1.47 1.5v6.157h13.642v-6.157H26.184ZM21.648 21.484c1.419.187 2.617.824 3.31 1.375a.76.76 0 0 1 .127 1.053.725.725 0 0 1-1.03.13c-.514-.408-1.47-.922-2.596-1.07-1.1-.146-2.358.057-3.563 1.06-2.407 2.003-2.336 5.258-.013 7.105.513.409 1.47.923 2.595 1.071 1.1.145 2.358-.057 3.563-1.06a.725.725 0 0 1 1.034.107.76.76 0 0 1-.105 1.055c-1.56 1.3-3.238 1.576-4.68 1.386-1.42-.188-2.618-.825-3.31-1.375-3.081-2.452-3.138-6.851-.013-9.452 1.56-1.299 3.238-1.576 4.68-1.385ZM27.619 21.91c0-.414.329-.75.735-.75h3.062c1.336 0 3.417 1.197 3.417 3.786 0 1.21-.554 2.138-1.236 2.748-.644.576-1.459.92-2.136.934l3.199 3.89a.76.76 0 0 1-.09 1.056.725.725 0 0 1-1.035-.092l-3.993-4.853h-.454V33c0 .414-.329.75-.734.75a.743.743 0 0 1-.735-.75V21.91Zm1.47 5.219h2.327c.262 0 .767-.164 1.213-.563.422-.378.735-.916.735-1.62 0-1.607-1.264-2.286-1.948-2.286h-2.328v4.469Z"/></g><defs><clipPath id="a"><path fill="#fff" d="M0 0h66v66H0z" transform="translate(.005)"/></clipPath></defs></svg>