<svg xmlns="http://www.w3.org/2000/svg" fill="none" viewBox="0 0 66 66"><path fill="#485158" fill-rule="evenodd" d="M63.06 12.346H2.94a1.48 1.48 0 0 0-1.47 1.49v37.678c0 .823.657 1.49 1.47 1.49h60.12a1.48 1.48 0 0 0 1.47-1.49V13.836a1.48 1.48 0 0 0-1.47-1.49Zm-60.12-1.49c-1.624 0-2.94 1.334-2.94 2.98v37.678c0 1.646 1.316 2.98 2.94 2.98h60.12c1.624 0 2.94-1.334 2.94-2.98V13.836c0-1.646-1.316-2.98-2.94-2.98H2.94Z" clip-rule="evenodd"/><path fill="#485158" fill-rule="evenodd" d="M60.456 16.329H5.544c-.27 0-.49.222-.49.496v31.7c0 .275.22.497.49.497h54.912c.27 0 .49-.222.49-.497v-31.7a.493.493 0 0 0-.49-.496Zm-54.912-1.49c-1.082 0-1.96.889-1.96 1.986v31.7c0 1.098.878 1.987 1.96 1.987h54.912c1.082 0 1.96-.89 1.96-1.987v-31.7c0-1.097-.878-1.987-1.96-1.987H5.544ZM50.465 62.709h-34.93a.894.894 0 0 0-.887.9c0 .498.397.9.888.9h34.928c.491 0 .889-.402.889-.9 0-.497-.398-.9-.889-.9Zm-34.93-1.49c-1.302 0-2.357 1.07-2.357 2.39S14.233 66 15.535 66h34.93c1.302 0 2.357-1.07 2.357-2.39 0-1.321-1.055-2.392-2.358-2.392H15.537Z" clip-rule="evenodd"/><path fill="#485158" fill-rule="evenodd" d="M24.71 53.276h16.58v9.097H24.71v-9.097Zm1.47 1.49v6.117h13.64v-6.117H26.18ZM21.4 7.082V4.237h-1.47v4.335h4.765v13.511l-4.765 2.204v16.99l13.35 6.53 13.01-6.536V24.293l-4.639-2.204V8.572h4.64V4.237h-1.47v2.845h-4.64V21.39l-6.17-2.932V4.237h-1.47v14.217l-6.376 2.95V7.082H21.4Zm11.872 12.672-10.877 5.031 10.877 5.322 10.592-5.322-10.592-5.031Zm11.55 6.213L34.011 31.4v14.379l10.81-5.432V25.967Zm-12.28 19.825V31.404L21.4 25.954V40.34l11.142 5.45Z" clip-rule="evenodd"/><path fill="#485158" fill-rule="evenodd" d="M20.665 3.477c.541 0 .98-.445.98-.993a.987.987 0 0 0-.98-.994.987.987 0 0 0-.98.994c0 .548.44.993.98.993Zm0 1.49c1.353 0 2.45-1.112 2.45-2.483 0-1.372-1.097-2.484-2.45-2.484-1.352 0-2.45 1.112-2.45 2.484 0 1.371 1.098 2.483 2.45 2.483ZM33.308 3.477c.54 0 .98-.445.98-.993a.987.987 0 0 0-.98-.994.987.987 0 0 0-.98.994c0 .548.439.993.98.993Zm0 1.49c1.352 0 2.449-1.112 2.449-2.483C35.757 1.112 34.66 0 33.307 0c-1.352 0-2.449 1.112-2.449 2.484 0 1.371 1.097 2.483 2.45 2.483ZM45.556 3.477c.541 0 .98-.445.98-.993a.987.987 0 0 0-.98-.994.987.987 0 0 0-.98.994c0 .548.439.993.98.993Zm0 1.49c1.353 0 2.45-1.112 2.45-2.483 0-1.372-1.097-2.484-2.45-2.484-1.353 0-2.45 1.112-2.45 2.484 0 1.371 1.097 2.483 2.45 2.483Z" clip-rule="evenodd"/></svg>