<svg xmlns="http://www.w3.org/2000/svg" fill="none" viewBox="0 0 67 66"><g fill="#485158" clip-path="url(#a)"><path fill-rule="evenodd" d="M5.807 5.75h56.155c1.872 0 3.389 1.566 3.389 3.5v40.7c0 1.932-1.517 3.5-3.389 3.5H35.314c-.339.243-.456.567-.563 1.204l-.049.295h27.26c2.674 0 4.841-2.238 4.841-5V9.25c0-2.761-2.167-5-4.84-5H5.806c-2.674 0-4.84 2.239-4.84 5v40.7c0 2.762 2.166 5 4.84 5h22.85l-.77-1.5H5.807c-1.871 0-3.389-1.567-3.389-3.5V9.25c0-1.933 1.518-3.5 3.39-3.5Z" clip-rule="evenodd"/><path fill-rule="evenodd" d="M23.923 42.244c.299-.016.642.067.924.142l.022.005 17.856 5.956.109.096c.3.26.781.83.714 1.572-.076.846-.789 1.376-1.76 1.677a277.004 277.004 0 0 0-4.834 1.555c-.596.198-.76.3-.832.378-.047.05-.116.151-.202.665l-.345 2.053c-.294 1.741-.402 2.387-.61 3.832l-.006.049-.013.047c-.18.653-.7 1.364-1.518 1.467-.877.111-1.617-.521-2.136-1.53-.876-1.59-2.825-5.398-4.633-8.927-1.055-2.062-2.063-4.029-2.778-5.403l-.003-.005c-.335-.654-.58-1.178-.737-1.59a3.993 3.993 0 0 1-.178-.585 1.61 1.61 0 0 1-.024-.6c.04-.239.16-.482.39-.653.209-.154.434-.193.594-.201Zm1.238 2.926c.73 1.4 1.746 3.387 2.807 5.458 1.801 3.517 3.728 7.28 4.592 8.849l.005.01.006.01c.2.39.379.586.502.678.111.083.167.076.178.075.043-.006.202-.088.286-.35.205-1.426.318-2.098.609-3.825l.343-2.04c.087-.525.207-1.047.592-1.456.36-.383.873-.575 1.428-.76.872-.29 3.065-1.009 4.862-1.564.39-.121.587-.246.677-.326a.317.317 0 0 0 .053-.059.3.3 0 0 0-.032-.075.716.716 0 0 0-.084-.118l-17.443-5.819c.129.32.33.747.619 1.312ZM9.098 28.887a.72.72 0 0 1 .933.444l2.52 7.037 2.85-7.066a.726.726 0 0 1 .684-.461.728.728 0 0 1 .666.486l2.553 7.03 2.772-7.049a.718.718 0 0 1 .946-.412c.372.156.55.593.4.977L19.949 38.7a.726.726 0 0 1-.682.468.728.728 0 0 1-.67-.487l-2.56-7.052-2.856 7.077a.726.726 0 0 1-.685.462.728.728 0 0 1-.667-.49l-3.16-8.827a.757.757 0 0 1 .43-.964ZM26.933 28.887a.72.72 0 0 1 .933.444l2.52 7.037 2.85-7.066a.726.726 0 0 1 .684-.461.728.728 0 0 1 .667.486l2.552 7.03 2.772-7.049a.718.718 0 0 1 .946-.412c.372.156.55.593.4.977L37.785 38.7a.726.726 0 0 1-.683.468.728.728 0 0 1-.67-.487l-2.56-7.052-2.856 7.077a.726.726 0 0 1-.685.462.728.728 0 0 1-.666-.49l-3.16-8.827a.757.757 0 0 1 .428-.964ZM44.769 28.887a.72.72 0 0 1 .933.444l2.52 7.037 2.85-7.066a.726.726 0 0 1 .683-.461.728.728 0 0 1 .667.486l2.552 7.03 2.772-7.049a.718.718 0 0 1 .946-.412c.372.156.55.593.4.977L55.62 38.7a.726.726 0 0 1-.683.468.728.728 0 0 1-.67-.487l-2.56-7.052-2.856 7.077a.726.726 0 0 1-.685.462.728.728 0 0 1-.666-.49l-3.16-8.827a.757.757 0 0 1 .428-.964ZM.876 16.203c0-.414.325-.75.726-.75H66.15c.4 0 .726.336.726.75 0 .415-.325.75-.726.75H1.602a.738.738 0 0 1-.726-.75Z" clip-rule="evenodd"/><path d="M10.78 11.485c0 1.104-.867 2-1.936 2-1.07 0-1.937-.896-1.937-2 0-1.105.867-2 1.937-2 1.069 0 1.936.895 1.936 2ZM16.389 11.485c0 1.104-.867 2-1.937 2s-1.936-.896-1.936-2c0-1.105.867-2 1.936-2 1.07 0 1.937.895 1.937 2ZM21.997 11.485c0 1.104-.866 2-1.936 2-1.07 0-1.936-.896-1.936-2 0-1.105.867-2 1.936-2 1.07 0 1.936.895 1.936 2Z"/></g><defs><clipPath id="a"><path fill="#fff" d="M0 0h66v66H0z" transform="translate(.876)"/></clipPath></defs></svg>