<svg xmlns="http://www.w3.org/2000/svg" fill="none" viewBox="0 0 67 66"><g fill="#485158" clip-path="url(#a)"><path d="M51.348 16.328h9.984c.27 0 .49.223.49.497v31.7c0 .275-.22.497-.49.497H6.42a.493.493 0 0 1-.49-.497v-31.7c0-.274.22-.497.49-.497h9.005c-.179-.411-.312-.9-.388-1.49H6.42c-1.082 0-1.96.89-1.96 1.987v31.7c0 1.098.878 1.987 1.96 1.987h54.912c1.082 0 1.96-.89 1.96-1.987v-31.7c0-1.097-.878-1.987-1.96-1.987h-9.374a4.753 4.753 0 0 1-.61 1.49Z"/><path fill-rule="evenodd" d="M15.117 12.346a4.422 4.422 0 0 1 .689-1.49H3.816c-1.624 0-2.94 1.334-2.94 2.98v37.678c0 1.646 1.316 2.98 2.94 2.98h21.77v6.724h-9.174c-1.303 0-2.358 1.07-2.358 2.391 0 1.32 1.055 2.391 2.357 2.391h34.93c1.302 0 2.357-1.07 2.357-2.39 0-1.321-1.055-2.392-2.358-2.392h-9.174v-6.723h21.77c1.624 0 2.94-1.335 2.94-2.98V13.835c0-1.646-1.316-2.98-2.94-2.98H51.125c.316.414.577.907.744 1.49h12.069c.812 0 1.47.667 1.47 1.49v37.678a1.48 1.48 0 0 1-1.47 1.49H3.815a1.48 1.48 0 0 1-1.47-1.49V13.836c0-.823.658-1.49 1.47-1.49h11.302ZM51.34 62.71H16.41a.894.894 0 0 0-.888.9c0 .498.398.9.889.9H51.34c.491 0 .888-.402.888-.9 0-.497-.397-.9-.888-.9Zm-24.286-1.826v-6.117h13.642v6.117H27.055Z" clip-rule="evenodd"/><path fill-rule="evenodd" d="M23.18 18.644a.75.75 0 0 1 .75.75v4.968a.75.75 0 0 1-.75.75h-5.839a.75.75 0 1 1 0-1.5h5.089v-4.218a.75.75 0 0 1 .75-.75Zm5.322 0a.75.75 0 0 1 .75.75v11.892a.75.75 0 0 1-.75.75h-3.875a.75.75 0 0 1 0-1.5h3.125V19.394a.75.75 0 0 1 .75-.75Zm10.593 0a.75.75 0 0 1 .75.75v11.142h2.918a.75.75 0 1 1 0 1.5h-3.668a.75.75 0 0 1-.75-.75V19.394a.75.75 0 0 1 .75-.75Zm-5.322.147a.75.75 0 0 1 .75.75V34.49a.75.75 0 0 1-1.5 0V19.541a.75.75 0 0 1 .75-.75Zm10.696 0a.75.75 0 0 1 .75.75v4.07h5.192a.75.75 0 0 1 0 1.5h-5.942a.75.75 0 0 1-.75-.75v-4.82a.75.75 0 0 1 .75-.75Z" clip-rule="evenodd"/><path fill-rule="evenodd" d="M14.341 25.785a1.5 1.5 0 1 0 0-3 1.5 1.5 0 0 0 0 3Zm0 1.5a3 3 0 1 0 0-6 3 3 0 0 0 0 6ZM21.715 32.99a1.5 1.5 0 1 0 0-3 1.5 1.5 0 0 0 0 3Zm0 1.5a3 3 0 1 0 0-6 3 3 0 0 0 0 6ZM33.876 38.99a1.5 1.5 0 1 0 0-3 1.5 1.5 0 0 0 0 3Zm0 1.5a3 3 0 1 0 0-6 3 3 0 0 0 0 6ZM45.956 32.99a1.5 1.5 0 1 0 0-3 1.5 1.5 0 0 0 0 3Zm0 1.5a3 3 0 1 0 0-6 3 3 0 0 0 0 6ZM53.41 25.785a1.5 1.5 0 1 0 0-3 1.5 1.5 0 0 0 0 3Zm0 1.5a3 3 0 1 0 0-6 3 3 0 0 0 0 6ZM34.565 3.775c-2.392-2.018-5.34-2.263-7.062-1.719-3.771 1.191-4.34 4.592-4.5 6.87a.75.75 0 0 1-1.084.619c-.148-.074-.578-.156-1.245-.094a6.348 6.348 0 0 0-2.064.565c-1.378.648-2.519 1.824-2.519 3.778 0 2 .522 2.9 1.143 3.44.336.291.742.514 1.228.73.227.102.462.198.713.3l.05.02c.219.09.448.184.679.286H47.81a6.815 6.815 0 0 0 2.484-1.489c.838-.802 1.45-1.872 1.398-3.259-.054-1.422-.66-2.348-1.386-2.952a4.547 4.547 0 0 0-2.152-.977H44.69a.75.75 0 0 1-.744-.655c-.175-1.39-.474-3.524-2.318-4.8-.91-.63-2.189-.924-3.44-.968-1.264-.044-2.338.17-2.806.403a.75.75 0 0 1-.817-.098Zm.611-1.433C32.45.246 29.163-.041 27.051.626c-4.217 1.332-5.185 4.915-5.465 7.323a5.797 5.797 0 0 0-1.051.008 7.846 7.846 0 0 0-2.563.701c-1.74.818-3.38 2.44-3.38 5.136 0 2.288.613 3.664 1.66 4.573.498.433 1.059.727 1.599.967.25.112.507.217.752.317l.056.023c.267.108.523.214.774.328a.75.75 0 0 0 .31.068h28.18a.75.75 0 0 0 .215-.031 8.269 8.269 0 0 0 3.194-1.874c1.063-1.018 1.93-2.48 1.859-4.4-.071-1.884-.903-3.197-1.925-4.048-.999-.832-2.167-1.216-2.968-1.318a.752.752 0 0 0-.094-.006h-2.858c-.218-1.459-.76-3.732-2.864-5.188-1.238-.858-2.839-1.185-4.241-1.234-1.145-.04-2.268.102-3.065.37Z" clip-rule="evenodd"/></g><defs><clipPath id="a"><path fill="#fff" d="M0 0h66v66H0z" transform="translate(.876)"/></clipPath></defs></svg>