<svg width="13" height="18" viewBox="0 0 13 18" fill="none" xmlns="http://www.w3.org/2000/svg">
<path d="M6.49463 0.461365C3.18621 0.461365 0.494629 3.15295 0.494629 6.46133C0.494629 10.5671 5.86404 16.5947 6.09265 16.8493C6.30737 17.0885 6.68227 17.088 6.89661 16.8493C7.12522 16.5947 12.4946 10.5671 12.4946 6.46133C12.4946 3.15295 9.80301 0.461365 6.49463 0.461365ZM6.49463 9.48008C4.83008 9.48008 3.47591 8.12588 3.47591 6.46133C3.47591 4.79678 4.83011 3.44261 6.49463 3.44261C8.15914 3.44261 9.51332 4.79682 9.51332 6.46136C9.51332 8.12591 8.15914 9.48008 6.49463 9.48008Z" fill="white"/>
</svg>
