<svg width="18" height="14" viewBox="0 0 18 14" fill="none" xmlns="http://www.w3.org/2000/svg">
<path d="M16.0291 0.376282H2.01733C1.78734 0.376282 1.57201 0.432827 1.37721 0.526028L8.98999 8.13881L10.6963 6.499C10.6963 6.499 10.6964 6.49884 10.6964 6.49877C10.6965 6.49871 10.6966 6.49864 10.6966 6.49864L16.6694 0.526161C16.4746 0.432893 16.2591 0.376282 16.0291 0.376282Z" fill="#71AFCA"/>
<path d="M17.3736 1.23053L11.7529 6.85096L17.3734 12.4715C17.4666 12.2767 17.5232 12.0614 17.5232 11.8314V1.87042C17.5232 1.64056 17.4668 1.42527 17.3736 1.23053Z" fill="#71AFCA"/>
<path d="M0.672939 1.2303C0.579738 1.4251 0.523193 1.64042 0.523193 1.87042V11.8314C0.523193 12.0612 0.579672 12.2766 0.672807 12.4713L6.29353 6.85089L0.672939 1.2303Z" fill="#71AFCA"/>
<path d="M11.0487 7.55523L9.34214 9.19523C9.24486 9.29252 9.11742 9.34116 8.99002 9.34116C8.86262 9.34116 8.73516 9.29252 8.6379 9.19523L6.9978 7.55516L1.37698 13.1756C1.57181 13.2689 1.78727 13.3255 2.01733 13.3255H16.0291C16.2591 13.3255 16.4744 13.269 16.6692 13.1758L11.0487 7.55523Z" fill="#71AFCA"/>
</svg>
