<svg width="16" height="16" viewBox="0 0 16 16" fill="none" xmlns="http://www.w3.org/2000/svg">
<path d="M14.9622 6.05673L13.8094 5.80611C13.7091 5.49918 13.585 5.1998 13.4384 4.91141L14.0766 3.91863C14.1906 3.74125 14.1655 3.50836 14.0165 3.35936L12.2205 1.56332C12.0715 1.41432 11.8386 1.38926 11.6612 1.50324L10.6684 2.14148C10.38 1.99488 10.0807 1.87071 9.77373 1.77046L9.5231 0.617584C9.47836 0.411591 9.29594 0.264648 9.08514 0.264648H6.54523C6.33443 0.264648 6.15202 0.411591 6.10727 0.617584L5.85664 1.77046C5.54971 1.87071 5.25034 1.99488 4.96194 2.14148L3.96917 1.50324C3.79179 1.38926 3.5589 1.41432 3.4099 1.56332L1.61386 3.35936C1.46486 3.50836 1.4398 3.74125 1.55378 3.91863L2.19202 4.91141C2.04542 5.1998 1.92125 5.49918 1.821 5.80611L0.668121 6.05673C0.462128 6.10159 0.315186 6.2839 0.315186 6.4947V9.0346C0.315186 9.2454 0.462128 9.4277 0.668121 9.47256L1.821 9.72319C1.92125 10.0301 2.04542 10.3295 2.19202 10.6179L1.55378 11.6107C1.4398 11.788 1.46486 12.0209 1.61386 12.1699L3.4099 13.966C3.5589 14.115 3.79179 14.14 3.96917 14.0261L4.96194 13.3878C5.25034 13.5344 5.54971 13.6586 5.85664 13.7588L6.10727 14.9117C6.15202 15.1177 6.33443 15.2646 6.54523 15.2646H9.08514C9.29594 15.2646 9.47836 15.1177 9.5231 14.9117L9.77373 13.7588C10.0807 13.6586 10.38 13.5344 10.6684 13.3878L11.6612 14.0261C11.8386 14.14 12.0715 14.1151 12.2205 13.966L14.0165 12.1699C14.1655 12.0209 14.1906 11.788 14.0766 11.6107L13.4384 10.6179C13.585 10.3295 13.7091 10.0301 13.8094 9.72319L14.9622 9.47256C15.1682 9.4277 15.3152 9.2454 15.3152 9.0346V6.4947C15.3152 6.2839 15.1682 6.10159 14.9622 6.05673ZM10.5044 7.76465C10.5044 9.24746 9.298 10.4539 7.81519 10.4539C6.33237 10.4539 5.12594 9.24746 5.12594 7.76465C5.12594 6.28184 6.33237 5.0754 7.81519 5.0754C9.298 5.0754 10.5044 6.28184 10.5044 7.76465Z" fill="#71AFCA"/>
</svg>
