<svg width="13" height="17" viewBox="0 0 13 17" fill="none" xmlns="http://www.w3.org/2000/svg">
<path d="M6.573 0C3.26458 0 0.572998 2.69158 0.572998 5.99997C0.572998 10.1058 5.94241 16.1333 6.17102 16.3879C6.38574 16.6271 6.76064 16.6267 6.97498 16.3879C7.20359 16.1333 12.573 10.1058 12.573 5.99997C12.5729 2.69158 9.88138 0 6.573 0ZM6.573 9.01872C4.90845 9.01872 3.55428 7.66451 3.55428 5.99997C3.55428 4.33542 4.90848 2.98125 6.573 2.98125C8.23751 2.98125 9.59168 4.33545 9.59168 6C9.59168 7.66455 8.23751 9.01872 6.573 9.01872Z" fill="#71AFCA"/>
</svg>
