<svg width="16" height="16" viewBox="0 0 16 16" fill="none" xmlns="http://www.w3.org/2000/svg">
<path d="M14.0519 2.49934H13.4189V1.23322C13.4189 0.88386 13.1353 0.60022 12.7858 0.60022H12.1528C11.8033 0.60022 11.5198 0.88386 11.5198 1.23322V2.49934H5.18931V1.23322C5.18931 0.88386 4.90578 0.60022 4.5563 0.60022H3.9233C3.57382 0.60022 3.29018 0.88386 3.29018 1.23322V2.49934H2.65718C1.61014 2.49934 0.758057 3.35142 0.758057 4.39847V13.8941C0.758057 14.9411 1.61014 15.7932 2.65718 15.7932H14.0519C15.099 15.7932 15.951 14.9411 15.951 13.8941V4.39847C15.951 3.35142 15.099 2.49934 14.0519 2.49934ZM14.6849 13.8941C14.6849 14.2429 14.4007 14.5271 14.0519 14.5271H2.65718C2.3084 14.5271 2.02418 14.2429 2.02418 13.8941V6.95598H14.6849V13.8941Z" fill="#71AFCA"/>
</svg>
