<svg width="16" height="16" viewBox="0 0 16 16" fill="none" xmlns="http://www.w3.org/2000/svg">
<path d="M14.58 12.0134L12.1112 9.54461C12.5601 8.64686 12.8593 7.59948 12.8593 6.55209C12.8593 3.03589 10.0164 0.192993 6.50021 0.192993C2.98401 0.192993 0.141113 3.03589 0.141113 6.55209C0.141113 10.0683 2.98401 12.9112 6.50021 12.9112C7.5476 12.9112 8.59498 12.6119 9.49273 12.1631L11.9616 14.6319C12.7097 15.38 13.8319 15.38 14.58 14.6319C15.2533 13.8838 15.2533 12.7616 14.58 12.0134ZM6.50021 11.4149C3.80695 11.4149 1.63737 9.24536 1.63737 6.55209C1.63737 3.85883 3.80695 1.68925 6.50021 1.68925C9.19348 1.68925 11.3631 3.85883 11.3631 6.55209C11.3631 9.24536 9.19348 11.4149 6.50021 11.4149Z" fill="#71AFCA"/>
</svg>
