<svg width="16" height="16" viewBox="0 0 16 16" fill="none" xmlns="http://www.w3.org/2000/svg">
<path d="M14.4441 10.222C13.5257 10.222 12.624 10.0784 11.7695 9.79602C11.3508 9.65321 10.8361 9.78423 10.5805 10.0467L8.89393 11.3199C6.93796 10.2758 5.73312 9.07134 4.70328 7.13005L5.93902 5.4874C6.26007 5.16678 6.37523 4.69842 6.23726 4.25897C5.95367 3.39999 5.80961 2.4987 5.80961 1.57995C5.80965 0.916241 5.26969 0.376282 4.60602 0.376282H1.85133C1.18766 0.376282 0.647705 0.916241 0.647705 1.57991C0.647705 9.18731 6.83667 15.3762 14.4441 15.3762C15.1077 15.3762 15.6477 14.8363 15.6477 14.1726V11.4256C15.6477 10.762 15.1077 10.222 14.4441 10.222Z" fill="#71AFCA"/>
</svg>
