<svg width="16" height="16" viewBox="0 0 16 16" fill="none" xmlns="http://www.w3.org/2000/svg">
<path d="M13.2728 2.37422C10.3426 -0.556066 5.5993 -0.556534 2.66861 2.37422C-0.261711 5.30451 -0.26215 10.0477 2.66861 12.9785C5.59883 15.9087 10.3421 15.9092 13.2728 12.9785C16.2031 10.0482 16.2035 5.30495 13.2728 2.37422ZM12.9594 11.9096C12.6091 11.5963 12.2343 11.3191 11.8393 11.0801C12.1004 10.1783 12.2551 9.18582 12.2916 8.15418H14.4962C14.3965 9.54473 13.8622 10.8492 12.9594 11.9096ZM1.44523 8.15418H3.64975C3.68631 9.18582 3.84099 10.1783 4.10208 11.0801C3.70707 11.3191 3.33231 11.5963 2.98197 11.9096C2.07919 10.8492 1.54493 9.54473 1.44523 8.15418ZM2.982 3.4431C3.33234 3.75638 3.70709 4.03362 4.1021 4.27255C3.84102 5.17442 3.68634 6.16686 3.64978 7.1985H1.44523C1.54493 5.80798 2.07919 4.50354 2.982 3.4431ZM7.49289 4.37131C6.71358 4.31558 5.96217 4.12364 5.26556 3.80699C5.6707 2.76373 6.41757 1.51245 7.49289 1.20236V4.37131ZM7.49289 5.32878V7.19853H4.60583C4.63891 6.32584 4.76256 5.48785 4.9682 4.7211C5.75984 5.06716 6.61121 5.27383 7.49289 5.32878ZM7.49289 8.15418V10.0239C6.61121 10.0789 5.75984 10.2855 4.9682 10.6316C4.76256 9.86486 4.63891 9.02687 4.60583 8.15418H7.49289ZM7.49289 10.9814V14.1503C6.41763 13.8402 5.67076 12.5891 5.26556 11.5457C5.96217 11.2291 6.71358 11.0371 7.49289 10.9814ZM8.44853 10.9814C9.22784 11.0371 9.97925 11.2291 10.6759 11.5457C10.2707 12.589 9.52385 13.8402 8.44853 14.1503V10.9814ZM8.44853 10.0239V8.15418H11.3356C11.3025 9.02687 11.1789 9.86486 10.9732 10.6316C10.1816 10.2855 9.33021 10.0789 8.44853 10.0239ZM8.44853 7.19853V5.32878C9.33021 5.27383 10.1816 5.06716 10.9732 4.7211C11.1789 5.48785 11.3025 6.32584 11.3356 7.19853H8.44853ZM8.44853 4.37131V1.20239C9.52385 1.51248 10.2707 2.76376 10.6759 3.80702C9.97925 4.12364 9.22784 4.31558 8.44853 4.37131ZM10.5948 1.67946C11.2065 1.9473 11.7771 2.31049 12.2887 2.76112C12.0452 2.97581 11.7883 3.17048 11.52 3.34456C11.2817 2.75465 10.9774 2.18137 10.5948 1.67946ZM4.42141 3.34456C4.15313 3.17048 3.89623 2.97581 3.65271 2.76112C4.16425 2.31049 4.7349 1.9473 5.34656 1.67946C4.96402 2.18143 4.65967 2.75471 4.42141 3.34456ZM4.42144 12.0081C4.65967 12.598 4.96408 13.1713 5.34659 13.6733C4.73493 13.4054 4.16428 13.0422 3.65273 12.5916C3.89623 12.3769 4.15316 12.1822 4.42144 12.0081ZM11.52 12.0081C11.7883 12.1822 12.0452 12.3769 12.2887 12.5916C11.7771 13.0422 11.2065 13.4054 10.5948 13.6732C10.9773 13.1714 11.2817 12.5981 11.52 12.0081ZM12.2917 7.19853C12.2551 6.16689 12.1004 5.17442 11.8393 4.27258C12.2344 4.03365 12.6091 3.75641 12.9594 3.44313C13.8622 4.50354 14.3965 5.80798 14.4962 7.19853H12.2917Z" fill="#71AFCA"/>
</svg>
