<svg xmlns="http://www.w3.org/2000/svg" width="97" height="20" viewBox="0 0 97 20">
    <g fill="none">
        <path fill="#999" d="M47.32 10.077c0-1.323-1.081-2.425-2.364-2.425-1.284 0-2.366 1.102-2.366 2.425 0 1.303 1.082 2.426 2.366 2.426 1.283 0 2.365-1.123 2.365-2.426zm1.023-3.388c.902.922 1.403 2.125 1.403 3.388s-.5 2.466-1.403 3.388c-.902.902-2.104 1.383-3.387 1.383-.842 0-1.604-.3-2.266-.902l-.1-.08v5.369L40.165 20V5.486h2.425v.722l.1-.1c.722-.702 1.544-.802 2.266-.802 1.263 0 2.465.481 3.387 1.383zM53.034 10.077c0 1.323 1.083 2.426 2.366 2.426 1.283 0 2.365-1.103 2.365-2.426 0-1.303-1.082-2.425-2.365-2.425-1.283 0-2.366 1.122-2.366 2.425zm-1.022 3.388c-.902-.922-1.403-2.125-1.403-3.388s.5-2.466 1.403-3.388c.902-.902 2.105-1.383 3.388-1.383.842 0 1.604.3 2.265.902l.1.08v-.802h2.426v9.182h-2.426v-.722l-.1.1c-.721.702-1.544.802-2.265.802-1.263 0-2.466-.481-3.388-1.383zM62.617 20L64.802 14.688 61.134 5.486 63.82 5.486 66.105 11.2 68.43 5.486 71.096 5.486 65.243 20 62.617 20M4.693 6.852c-1.768 0-3.205 1.447-3.205 3.225s1.437 3.225 3.205 3.225c1.767 0 3.205-1.447 3.205-3.225S6.46 6.852 4.693 6.852zm0 7.898c-1.255 0-2.436-.48-3.325-1.35C.485 12.5 0 11.32 0 10.078c0-1.241.486-2.422 1.37-3.325.887-.868 2.068-1.348 3.323-1.348 1.27 0 2.338.672 3.011 1.235l.194.163V5.605h1.488v8.945H7.898v-1.198l-.194.163c-.673.563-1.742 1.235-3.011 1.235zM12.079 14.55V7.012h-1.363V5.605h1.363V2.96c0-1.62 1.286-2.89 2.928-2.89h1.871l-.377 1.409h-1.453c-.79 0-1.482.71-1.482 1.521v2.604h2.827v1.407h-2.827v7.538H12.08M22.003 14.55c-1.615 0-2.928-1.314-2.928-2.93V7.013H17.71V5.605h1.364V.072h1.487v5.533h2.827v1.407h-2.827v4.569c0 .817.706 1.561 1.482 1.561h1.452l.378 1.408h-1.87M28.41 6.912c-1.15 0-2.218.829-2.658 2.063l-.014.027-.085.17h5.514l-.106-.21c-.412-1.22-1.48-2.05-2.652-2.05zm-.003 7.798c-1.164 0-2.235-.485-3.016-1.364-.717-.776-1.136-1.75-1.214-2.816-.02-.14-.02-.273-.02-.413 0-.35.04-.706.118-1.057.172-.804.558-1.554 1.115-2.171.776-.854 1.877-1.344 3.02-1.344 1.152 0 2.232.478 3.04 1.345.58.643.966 1.392 1.113 2.167.117.685.12 1.11.107 1.323h-7.085v.158c.207 1.585 1.403 2.783 2.782 2.805.848-.042 1.685-.389 2.264-.933l1.241.741c-.336.357-.697.65-1.098.895-.655.392-1.473.622-2.367.664zM34.131 14.55V5.605h1.488v1.13l.206-.227c.527-.582 2.078-1.056 3.109-1.1l-.363 1.485c-1.636.047-2.952 1.323-2.952 2.883v4.774h-1.488M83.94 8.022l2.606-1.508c-.288-.505-.218-.383-.48-.86-.278-.505-.173-.704.4-.708 1.672-.011 3.344-.013 5.015-.004.496.003.616.215.367.653-.827 1.454-1.662 2.902-2.506 4.346-.27.461-.505.46-.786.01-.29-.464-.212-.35-.522-.875l-2.596 1.508c.051.134.116.22.17.313.643 1.119.93 1.654 1.595 2.76.787 1.312 2.438 1.39 3.376.179.104-.135.2-.278.285-.426 1.577-2.732 3.155-5.463 4.723-8.2.159-.278.302-.58.371-.89.275-1.232-.64-2.397-1.924-2.404-3.38-.018-6.76-.02-10.14.01-1.54.013-2.465 1.554-1.79 2.909.221.441.486.86.733 1.287.466.805.59 1.017 1.104 1.9"/>
        <path fill="#757575" d="M76.425 16.463l.005-2.999s-.416-.004-.978-.004c-.572 0-.69-.202-.407-.697.822-1.44 1.654-2.874 2.494-4.304.25-.424.47-.462.743.01.83 1.437 1.662 2.873 2.481 4.316.262.46.143.662-.384.679h-1.01v3.007h3.516c1.518-.022 2.408-1.399 1.835-2.807-.064-.156-.139-.31-.223-.456-1.558-2.715-3.116-5.43-4.683-8.139-.159-.274-.347-.548-.578-.76-.92-.85-2.375-.647-3.02.452-1.7 2.891-3.387 5.79-5.045 8.705-.756 1.328.106 2.89 1.605 2.984.488.03 2.573.013 3.65.013"/>
    </g>
</svg>
