<svg xmlns="http://www.w3.org/2000/svg" width="48" height="24" viewBox="0 0 48 24">
    <g fill="none">
        <rect width="48" height="24" fill="#999" rx="1.5"/>
        <path fill="#FFF" d="M11.46 9.953l1.005 2.443h-2.003l.998-2.443zm20.888.102H28.48v1.077h3.806v1.613h-3.799v1.2h3.869v.963l2.699-2.924-2.7-3.046-.007 1.117zM14.074 7.008h5.191l1.153 2.52L21.486 7h13.475l1.4 1.55L37.812 7H44l-4.573 5.016L43.953 17h-6.281l-1.401-1.55L34.809 17H12.836l-.642-1.55h-1.469L10.082 17H5L9.27 7h4.457l.347.008zM25.331 8.41h-2.91l-1.949 4.605-2.111-4.605h-2.888v6.263l-2.676-6.263h-2.59L7.112 15.59h2.02l.642-1.55h3.373l.642 1.55h3.535v-5.124l2.275 5.131h1.547l2.26-5.116v5.118h1.895l.031-7.188-.001.001zm12.137 3.605l3.289-3.605h-2.368l-2.08 2.248-2.012-2.248h-7.659v7.185h7.55l2.097-2.263 2.012 2.263h2.436l-3.264-3.58h-.001z"/>
    </g>
</svg>
