<svg xmlns="http://www.w3.org/2000/svg" width="44" height="14" viewBox="0 0 44 14">
    <path fill="#999" d="M28.624 0c1.084-.006 2.16.187 3.175.569l-.48 2.94L31 3.354c-.653-.275-1.49-.54-2.65-.522-1.385 0-2.028.603-2.028 1.166-.007.637.751 1.055 1.989 1.682 2.043.97 2.988 2.141 2.975 3.687C31.257 12.182 28.839 14 25.119 14c-1.59-.017-3.12-.345-3.946-.724l.494-3.034.456.216c1.165.506 1.918.71 3.336.71 1.017 0 2.11-.414 2.12-1.325.005-.593-.458-1.018-1.838-1.681-1.343-.649-3.124-1.737-3.1-3.687C22.658 1.84 25.124 0 28.623 0zm12.26.249V.25l2.866 13.555h-3.289s-.325-1.559-.43-2.033l-4.535-.008c-.137.368-.745 2.04-.745 2.04h-3.72l5.26-12.431C36.663.489 37.298.249 38.146.249h2.737zM21.166.235L18.952 13.8h-3.54L17.626.235h3.542zM5.757.237c.769.03 1.392.287 1.605 1.145l1.242 6.232.372 1.88L12.442.248h3.752l-5.577 13.539-3.747.002-3.146-11.78C2.634 1.378 1.39.871 0 .52L.048.237zm32.638 3.667c-.179.509-.49 1.332-.47 1.294 0 0-1.117 3.013-1.41 3.792h2.939l-.82-3.916z"/>
</svg>
