<svg xmlns="http://www.w3.org/2000/svg" xmlns:xlink="http://www.w3.org/1999/xlink" width="172" height="163" viewBox="0 0 172 163">
    <defs>
        <path id="prefix__a" d="M175.372 111.616L176.296 113.525 176.655 115.02 176.274 116.192 176.392 117.363 177.216 118.602 179.823 122.424 181.109 126.092 181.931 127.519 183.828 129.37 184 130.128 183.239 130.823 182.625 130.915 182.126 131.1 181.805 131.749 182.303 132.442 182.975 133.46 183.81 136.338 183.727 138.688 183.084 139.285 182.263 140.679 181.705 141.95 177.207 142.835 176.126 144.194 173.663 146.817 171.981 148.323 169.496 151.042 165.564 155.702 164.114 157.646 163.053 159.252 159.872 163.517 158.893 165.303 159.087 166.772 160.109 170.215 160.325 171.766 160.144 173.198 159.806 174.471 159.863 175.039 160.803 175.961 162.301 177.409 162.387 177.896 162.175 178.522 161.658 179 159.788 178.495 157.696 177.515 156.984 177.634 155.853 177.407 151.19 175.513 148.045 174.028 147.735 173.063 147.141 171.663 145.804 170.489 142.735 169.47 141.486 168.675 136.501 168.229 134.337 168.211 132.805 168.54 131.827 168.508 130.479 170.584 129.55 171.186 128.191 171.249 127.002 170.88 125.787 169.788 123.841 169.211 122.435 169.489 121.4 169.251 120.505 169.195 120.196 169.413 119.477 169.382 118.435 169.904 117.297 170.642 116.041 171.204 115.074 172.411 114.212 174.773 111.773 173.715 110.96 174.174 109.81 174.482 109.024 174.163 109.209 173.35 109.564 172.432 109.547 171.147 109.322 169.729 108.566 169.267 107.43 169.096 106.845 168.816 106.783 168.346 106.204 167.742 105.199 166.212 104.249 164.311 103.593 163.743 102.638 164.649 101.192 165.68 100.293 166.036 98.556 168.991 95.434 169.091 95.242 167.712 94.914 166.385 93.087 166.053 93.037 165.274 92.652 163.317 88.992 159.477 88.547 157.872 88.69 157.252 88.436 156.23 87.64 155.613 84.747 154.878 84.003 155.3 83.332 154.866 82.279 153.942 80.451 153.191 80.252 152.802 79.594 152.14 79.229 152.051 78.993 152.453 78.461 153.022 76.582 153.741 75.831 153.445 75.149 152.82 74.372 151.473 73.242 150.291 72.311 149.871 71.781 149.25 71.661 148.766 73.728 147.795 74.18 146.792 73.915 144.962 73.607 144.731 72.787 145.35 71.062 145.894 69.471 146.145 68.659 146.145 64.121 142.809 61.169 141.786 59.434 141.49 59.245 141.83 60.031 143.704 61.387 146.012 61.323 146.626 59.696 147.568 58.774 147.979 57.684 148.778 56.765 149.88 55.969 150.38 55.28 150.254 54.548 149.722 52.668 146.317 50.304 143.704 50.023 143.118 49.283 142.983 48.24 142.382 47.888 141.58 48.412 140.742 49.132 139.975 50.41 139.501 50.797 139.057 51.024 138.385 51.497 137.517 51.373 137.204 50.467 136.22 49.127 135.289 45.406 135.987 44.386 136.485 43.81 135.837 43.374 134.89 42.433 134.71 41.145 133.844 39.617 133 38.124 132.75 35.021 131.524 33.825 131.457 33.132 131.035 32.411 130.107 31.798 129.089 31.48 127.023 29.194 126.083 26.915 125.494 26.754 125.794 26.849 127.88 26.728 128.992 25.226 129.68 23.736 129.746 23.82 129.4 25.6 125.648 26.399 123.278 27.308 118.943 26.214 115.511 25.911 113.902 25.401 113.127 22.276 111.451 22.039 110.867 22.517 108.585 22.28 107.624 21.529 106.61 20.539 104.588 20.155 102.871 21.418 100.847 21.729 99.36 22.278 97.319 22.68 96.199 22.756 95.89 21.93 95.093 21.719 93.974 21.943 92.359 21.504 91.161 20.396 90.383 19.677 89.353 19.344 88.068 19.605 86.049 20.461 83.291 18.645 79.967 14.157 76.069 12 73.336 12.177 71.774 13.121 70.358 14.837 69.084 16.137 66.822 16.867 64.134 16.891 63.624 16.929 61.699 14.933 53.799 14.608 51.814 14.37 49.416 14.246 48.76 18.189 50.443 19.842 51.389 19.636 50.327 19.302 49.41 19.522 48.064 19.409 46.029 15.832 44.99 13.466 44.638 13.2 43.225 13.427 42.308 14.081 42.847 16.406 43.059 22.121 40.314 31.994 36.739 42.538 33.375 44.999 33.009 47.474 32.299 48.388 31.038 49.3 30.192 50.737 27.962 53.911 24.489 59.526 23.222 61.622 21.569 66.016 19.25 76.033 16.644 80.217 16.07 84.316 16 87.966 18.058 91.83 20.593 92.525 22.121 90.434 21.168 87.387 18.893 86.261 18.796 88.862 25.705 90.285 28.139 93.16 29.956 95.571 30.568 102.998 29.468 105.637 28.029 106.399 27.3 107.086 27.66 111.915 28.048 116.809 28.44 124.679 28.859 132.881 29.298 141.391 29.753 150.602 30.244 160.314 30.533 160.907 30.335 161.899 29.18 163.109 29.336 164.537 30.052 165.205 30.585 165.488 31.191 165.665 31.891 166.446 32.031 167.873 32.564 169.804 33.778 171.318 34.953 172.757 36.634 173.236 38.531 173.264 40.677 173.172 42.056 173.293 42.617 175.263 52.557 178.544 62.061 179.749 66.634 180.231 69.062 180.614 72.574 180.734 75.035 180.719 76.418 180.475 78.317 179.5 79.438 173.205 82.637 172.022 83.639 170.167 86.126 168.456 88.683 168.062 89.555 167.956 90.129 168.333 90.966 170.577 92.331 172.84 93.426 173.577 94.245 175.246 95.293 175.855 96.233 176.185 97.052 176.162 98.94 175.409 101.547 175.724 103.514 174.959 104.822 174.33 106.274 174.24 108.814z"/>
    </defs>
    <g fill="none" fill-rule="evenodd" transform="translate(-12 -16)">
        <use fill="#00B3F0" fill-opacity=".4" xlink:href="#prefix__a"/>
    </g>
</svg>
