<svg xmlns="http://www.w3.org/2000/svg" width="65" height="72" viewBox="0 0 65 72">
    <g fill="none" fill-rule="evenodd">
        <circle cx="32" cy="40" r="32" fill="#FFF"/>
        <circle cx="32" cy="40" r="32" fill="#AFD2FF"/>
        <g fill="#061058">
            <path d="M16.034 37.044c.59 0 1.143.23 1.56.646.236.236.544.354.853.354.31 0 .618-.118.854-.354.471-.471.471-1.235 0-1.707-.873-.872-2.033-1.353-3.267-1.353s-2.394.48-3.266 1.353c-.472.472-.472 1.236 0 1.707.471.472 1.235.472 1.706 0 .417-.416.97-.646 1.56-.646zM37.76 35.983c-.472.472-.472 1.236 0 1.707.47.472 1.235.472 1.706 0 .86-.86 2.26-.86 3.12 0 .235.236.544.354.853.354.309 0 .618-.118.853-.354.472-.471.472-1.235 0-1.707-1.8-1.8-4.731-1.8-6.533 0zM41.02 47.89c-6.887 6.886-18.093 6.886-24.98 0-.47-.472-1.235-.472-1.706 0-.471.47-.471 1.235 0 1.706 3.914 3.914 9.055 5.87 14.196 5.87s10.282-1.956 14.196-5.87c.471-.471.471-1.235 0-1.707-.471-.471-1.235-.471-1.707 0z" transform="translate(8)"/>
            <path d="M57.006 38.345c0-3.279-2.37-6.012-5.486-6.582v-20.19c0-2.62-1.303-5.047-3.485-6.495-2.05-1.36-4.595-1.67-6.896-.858l-7.577-2.572C27.74-.328 21.61-.532 15.839 1.061 8.282 3.146 3.949 7.555 3.28 13.823c-.592.78-1.062 1.657-1.382 2.603l-.587 1.74c-.316.933.032 1.915.865 2.441.834.527 1.87.42 2.578-.265.242-.234.506-.432.785-.597v12.018c-3.116.57-5.486 3.303-5.486 6.582 0 3.41 2.563 6.23 5.863 6.64.83 4.576 3.007 8.797 6.337 12.175C16.602 61.57 22.382 64 28.53 64h.002c6.14 0 11.913-2.392 16.254-6.734 3.392-3.391 5.593-7.656 6.395-12.286 3.281-.428 5.825-3.24 5.825-6.635zM46.7 7.089c1.53 1.014 2.406 2.649 2.406 4.484v15.793c-3.746-.582-6.622-3.83-6.622-7.736l-.1-13.27c1.474-.388 3.01-.137 4.316.729zM3.952 17.892l.234-.694c.615-1.818 1.98-3.295 3.744-4.05 1.764-.756 3.774-.724 5.515.086 3.654 1.702 8.072.782 10.743-2.238l.3-.338c.441-.499.394-1.262-.105-1.703-.5-.442-1.262-.395-1.703.104l-.3.338c-1.968 2.225-5.223 2.903-7.916 1.65-2.362-1.1-5.09-1.144-7.484-.118-.218.093-.43.197-.639.307 1.403-3.74 4.798-6.374 10.14-7.848 5.304-1.464 10.942-1.275 16.305.545l7.184 2.44.095 6.235c-3.2 4.35-7.865 7.294-13.181 8.306-5.444 1.037-10.998-.06-15.639-3.089-2.267-1.479-5.126-1.416-7.293.067zM2.468 38.345c0-1.94 1.298-3.583 3.072-4.105v6.541c0 .565.02 1.127.06 1.686-1.804-.503-3.132-2.16-3.132-4.122zM43.08 55.559c-3.886 3.886-9.053 6.026-14.548 6.027h-.002c-5.496 0-10.666-2.174-14.557-6.12-3.882-3.938-6.02-9.153-6.02-14.685V19.176c.684.051 1.362.272 1.973.67 5.166 3.372 11.349 4.593 17.409 3.44 4.92-.938 9.339-3.36 12.735-6.93v3.274c0 5.24 3.955 9.57 9.036 10.17v11.21c0 5.496-2.14 10.663-6.026 14.55zm8.393-13.096c.03-.482.047-.967.047-1.454v-6.77c1.774.523 3.072 2.165 3.072 4.106 0 1.957-1.321 3.61-3.119 4.118z" transform="translate(8)"/>
        </g>
    </g>
</svg>
