<svg xmlns="http://www.w3.org/2000/svg" width="52" height="50" viewBox="0 0 52 50">
    <path fill="#061058" d="M23.901.753C24.967-.249 26.64-.25 27.708.748l10.816 10.115c.363.339.381.907.042 1.268-.34.362-.909.38-1.271.042L26.478 2.058c-.377-.353-.968-.352-1.344.002L6.646 19.445c-.191.18-.3.422-.308.684-.008.262.087.51.267.701.18.19.422.3.684.308.264.007.512-.087.703-.266L25.195 4.695c.345-.325.884-.325 1.23-.001l17.248 16.128c.183.17.42.264.672.264.275 0 .528-.11.715-.31.18-.19.274-.44.265-.701-.008-.262-.118-.504-.31-.683l-4.343-4.062c-.363-.339-.381-.907-.042-1.268.34-.362.909-.38 1.271-.042l4.344 4.062c.541.506.853 1.194.878 1.934.024.74-.243 1.447-.75 1.988-.523.557-1.261.876-2.03.878-.707 0-1.382-.267-1.9-.75l-2.018-1.888.019 15.456 6.343-4.237c1.474-.988 3.469-.644 4.532.752l.103.143c.944 1.385.71 3.268-.544 4.379l-10.272 9.222-.252.198c-1.032.777-2.244 1.293-3.524 1.497L20.944 49.94c-.254.04-.512.06-.771.06-.479 0-.963-.069-1.446-.205l-.028-.008-10.634-4.018-.013.178c-.15 1.375-1.283 2.46-2.681 2.535l-.156.004h-2.36C1.28 48.486 0 47.208 0 45.636V44.35c0-.496.403-.898.9-.898.496 0 .898.402.898.898v1.288c0 .581.474 1.054 1.056 1.054h2.36c.583 0 1.057-.473 1.057-1.054V28.2c0-.581-.474-1.054-1.056-1.054h-2.36c-.583 0-1.057.473-1.057 1.054v11.538c0 .495-.402.897-.899.897-.496 0-.899-.402-.899-.897V28.2c0-1.571 1.28-2.85 2.854-2.85h2.36c1.575 0 2.855 1.279 2.855 2.85v.28h1.1c.602 0 1.206.036 1.81.107l.269.034-.01-8.338-2.013 1.894c-.476.448-1.081.71-1.727.75l-.208.005-.224-.011c-.677-.061-1.3-.363-1.77-.86-.51-.54-.778-1.246-.756-1.986.023-.74.333-1.43.873-1.937l5.948-5.594-.011-7.092c0-.311.105-.607.3-.845l.09-.098c.251-.252.586-.391.943-.391l4.235-.006c.356 0 .691.138.943.389.252.25.392.586.392.941l.001.62zM9.17 30.115H7.908v13.847l11.293 4.27c.362.098.72.143 1.071.133l.21-.013.228-.03 15.868-2.282c.995-.16 1.938-.557 2.746-1.155l.217-.167 10.246-9.199c.645-.571.764-1.534.282-2.242-.503-.738-1.491-.959-2.257-.527l-.113.07-10.364 6.923-.049.03-.069.033-.053.02-.058.018-.055.011-.126.013-.041-.001-3.111-.175-16.376-1.432c-.406-.036-.706-.393-.67-.798.03-.347.298-.617.629-.664l.084-.008.086.003 15.489 1.354-.033-.329c-.018-.184-.052-.363-.1-.536-.32-1.168-1.28-2.066-2.498-2.294l-.136-.023-8.283-.952c-1.88-.265-3.67-.861-5.327-1.773l-.536-.305-.254-.14-.184-.097-.23-.116-.192-.093-.203-.095-.2-.09-.247-.105c-.18-.075-.362-.146-.545-.214l-.317-.112-.2-.067-.269-.084-.19-.056-.223-.063-.19-.05-.308-.074c-.909-.21-1.84-.331-2.778-.358l-.402-.006zM25.812 6.36L12.874 18.526l.011 10.566.454.12.372.109.136.041.254.083.38.132.25.093.382.151.49.212.366.172.261.13.33.171.236.13.234.133c1.119.653 2.308 1.144 3.55 1.467l.416.102-.012-9.953c0-.356.138-.69.39-.942.22-.22.504-.355.81-.385l.133-.007 7.032-.01c.697 0 1.27.536 1.33 1.216l.005.115.013 11.177c1.957.385 3.451 1.956 3.73 3.93l.023.193.059.587 2.211.124 2.088-1.396-.022-18.497L25.812 6.36zm3.397 16.155l-6.75.01.012 10.065 6.751.776-.013-10.851zm-3.373-9.078c.493 0 .893.4.893.892v1.51c0 .493-.4.892-.893.892-.494 0-.894-.4-.894-.892v-1.51c0-.492.4-.892.894-.892zm-9.219-7.69l-3.63.006.009 5.478L16.62 7.82l-.004-2.074z"/>
</svg>
