<svg xmlns="http://www.w3.org/2000/svg" width="44" height="52" viewBox="0 0 44 52">
    <g fill="#061058">
        <path d="M16.444 13.775H4.314c-2.373 0-4.304 1.93-4.304 4.304v14.005c0 1.424 1.158 2.583 2.582 2.583.302 0 .592-.053.861-.148v14.334c0 1.672 1.36 3.032 3.033 3.032 1.672 0 3.032-1.36 3.032-3.032v-15.85h1.722v15.85c0 1.672 1.36 3.032 3.032 3.032s3.033-1.36 3.033-3.032V34.527c.268.09.557.14.86.14 1.449 0 2.583-1.11 2.583-2.526V18.08c0-2.373-1.93-4.304-4.304-4.304zm2.582 18.366c0 .458-.37.804-.86.804-.491 0-.861-.346-.861-.804V18.08c0-.475-.386-.86-.861-.86-.476 0-.861.385-.861.86v30.774c0 .722-.588 1.31-1.31 1.31-.723 0-1.311-.588-1.311-1.31V32.14c0-.475-.386-.86-.861-.86H8.657c-.476 0-.86.385-.86.86v16.712c0 .722-.589 1.31-1.311 1.31-.723 0-1.31-.588-1.31-1.31V23.245c0-.475-.386-.86-.862-.86-.475 0-.86.385-.86.86v8.839c0 .475-.387.86-.862.86-.474 0-.86-.385-.86-.86V18.079c0-1.424 1.158-2.582 2.582-2.582h12.13c1.424 0 2.582 1.158 2.582 2.582v14.062z"/>
        <path d="M4.314 17.219c-.475 0-.86.385-.86.86v1.722c0 .476.385.861.86.861.476 0 .861-.385.861-.86v-1.723c0-.475-.385-.86-.86-.86zM10.341 12.053c3.323 0 6.027-2.703 6.027-6.027C16.368 2.703 13.664 0 10.34 0S4.315 2.703 4.315 6.026c0 3.324 2.703 6.027 6.026 6.027zm0-10.331c2.374 0 4.305 1.93 4.305 4.304 0 2.374-1.931 4.305-4.305 4.305-2.373 0-4.304-1.93-4.304-4.305 0-2.373 1.93-4.304 4.304-4.304zM38.904 13.832h-12.13c-2.373 0-4.304 1.931-4.304 4.305V32.14c0 1.424 1.159 2.583 2.583 2.583.302 0 .591-.053.86-.148V48.91c0 1.672 1.361 3.033 3.033 3.033s3.033-1.36 3.033-3.033V33.06H33.7v15.85c0 1.672 1.36 3.033 3.033 3.033 1.672 0 3.032-1.36 3.032-3.033V34.585c.268.09.558.14.861.14 1.449 0 2.583-1.11 2.583-2.526V18.137c0-2.374-1.931-4.305-4.305-4.305zM41.487 32.2c0 .458-.37.803-.86.803-.491 0-.862-.345-.862-.803V18.137c0-.476-.385-.861-.86-.861-.476 0-.862.385-.862.86V48.91c0 .723-.588 1.31-1.31 1.31-.723 0-1.31-.587-1.31-1.31V32.2c0-.476-.386-.861-.862-.861h-3.443c-.476 0-.861.385-.861.86V48.91c0 .723-.588 1.31-1.31 1.31-.723 0-1.311-.587-1.311-1.31V18.137c0-.476-.386-.861-.861-.861-.476 0-.861.385-.861.86v14.005c0 .475-.386.861-.861.861s-.86-.386-.86-.86V18.136c0-1.424 1.158-2.583 2.582-2.583h12.13c1.423 0 2.582 1.159 2.582 2.583v14.062zM32.802 12.11c3.323 0 6.026-2.703 6.026-6.026S36.125.057 32.802.057s-6.027 2.704-6.027 6.027 2.704 6.026 6.027 6.026zm0-10.33c2.373 0 4.304 1.93 4.304 4.304 0 2.374-1.93 4.305-4.304 4.305-2.374 0-4.305-1.931-4.305-4.305 0-2.374 1.931-4.305 4.305-4.305z"/>
    </g>
</svg>
