<svg xmlns="http://www.w3.org/2000/svg" width="52" height="52" viewBox="0 0 52 52">
    <g fill="#061058">
        <path d="M43.333 31.244v-8.71c0-3.421-10.895-4.334-17.333-4.334-6.438 0-17.333.913-17.333 4.333v8.711c-4.905.452-8.66 4.563-8.667 9.49C0 42.647 1.552 44.2 3.467 44.2v5.2c0 1.436 1.164 2.6 2.6 2.6H7.8c1.366-.006 2.494-1.069 2.583-2.432.838-.795 6.733-1.901 15.617-1.901s14.78 1.106 15.616 1.899c.088 1.364 1.217 2.428 2.584 2.434h1.733c1.436 0 2.6-1.164 2.6-2.6v-5.2c1.915 0 3.467-1.552 3.467-3.467-.007-4.926-3.762-9.037-8.667-9.489zM26 19.934c9.61 0 15.244 1.698 15.6 2.618V31.2h-1.893c.103-.278.157-.57.16-.867V26c0-1.436-1.164-2.6-2.6-2.6h-7.8c-1.436 0-2.6 1.164-2.6 2.6v4.333c.003.296.056.59.16.867h-2.053c.103-.278.156-.57.16-.867V26c0-1.436-1.165-2.6-2.6-2.6h-7.8c-1.437 0-2.6 1.164-2.6 2.6v4.333c.002.296.056.59.159.867H10.4v-8.639c.315-.917 5.957-2.628 15.6-2.628zm2.6 10.4V26c0-.479.388-.867.867-.867h7.8c.478 0 .866.388.866.867v4.333c0 .479-.388.867-.866.867h-7.8c-.479 0-.867-.388-.867-.867zm-14.733 0V26c0-.479.388-.867.866-.867h7.8c.479 0 .867.388.867.867v4.333c0 .479-.388.867-.867.867h-7.8c-.478 0-.866-.388-.866-.867zM7.8 50.266H6.067c-.479 0-.867-.388-.867-.867v-5.2h3.467v5.2c0 .479-.388.867-.867.867zm2.6-2.583V44.2h31.2v3.484c-3.923-1.647-13.325-1.75-15.6-1.75-2.275 0-11.677.103-15.6 1.75zM46.8 49.4c0 .479-.388.867-.867.867H44.2c-.479 0-.867-.388-.867-.867v-5.2H46.8v5.2zm1.733-6.933H3.467c-.958 0-1.734-.776-1.734-1.734.005-4.306 3.494-7.795 7.8-7.8h32.934c4.306.005 7.795 3.494 7.8 7.8 0 .958-.776 1.734-1.734 1.734z"/>
        <path d="M9.533 34.667c-2.962-.007-5.494 2.133-5.98 5.056-.08.472.24.919.711.998.047.008.094.012.142.012.423 0 .784-.306.854-.722.348-2.088 2.157-3.617 4.273-3.611.479 0 .867-.388.867-.867 0-.478-.388-.866-.867-.866z"/>
        <circle cx="13" cy="35.533" r="1"/>
        <path d="M36.4 15.6c.957 0 1.733-.776 1.733-1.733V2.69c0-.753-.486-1.42-1.204-1.65-.717-.23-1.5.03-1.94.642L33.016 4.45 30.97.874C30.662.334 30.088 0 29.467 0c-.622 0-1.196.333-1.505.873L26 4.306 24.038.874C23.729.334 23.155 0 22.533 0c-.621 0-1.195.333-1.504.873l-2.044 3.575-1.975-2.766c-.438-.613-1.222-.872-1.94-.642-.717.23-1.203.897-1.203 1.65v11.176c0 .957.776 1.733 1.733 1.733h20.8zM15.6 2.687l2.762 3.866c.168.245.453.383.749.362.294-.015.56-.178.708-.433l2.714-4.749 2.715 4.75c.166.253.449.405.752.405s.586-.152.752-.405l2.715-4.75 2.714 4.75c.147.255.414.418.708.433.296.018.58-.12.749-.362L36.4 2.69v11.176H15.6V2.687z"/>
        <circle cx="23.4" cy="9.533" r="1"/>
        <circle cx="18.2" cy="9.533" r="1"/>
        <circle cx="33.8" cy="9.533" r="1"/>
        <circle cx="28.6" cy="9.533" r="1"/>
    </g>
</svg>
