<svg xmlns="http://www.w3.org/2000/svg" width="31" height="31" viewBox="0 0 31 31"><g><g clip-path="url(#clip-47075823-84e1-46dc-bea8-f8625265e7c8)"><g><g><g><path fill="#fff" d="M18.043 29.79h-5.086v-10.9h5.086zm12.352 0H27.73v-4.784a.605.605 0 0 0-1.21 0v4.783h-7.266V18.285a.605.605 0 0 0-.606-.605h-6.296a.605.605 0 0 0-.606.605V29.79H4.481V16.105h.233c.16 0 .314-.063.428-.177L15.5 5.57l10.358 10.358a.606.606 0 0 0 .429.177h.233v4.541a.605.605 0 0 0 1.21 0v-4.54h2.665a.606.606 0 0 0 .428-1.034L15.928.177a.606.606 0 0 0-.856 0L9.38 5.87a.605.605 0 0 0 .857.856L15.5 1.462l13.433 13.433h-2.396L15.928 4.285a.606.606 0 0 0-.856 0l-10.61 10.61H2.068l4.78-4.78a.606.606 0 0 0-.857-.856L.177 15.072a.606.606 0 0 0 .429 1.034H3.27v13.683H.606a.605.605 0 0 0 0 1.211h29.788a.605.605 0 0 0 0-1.21z"/></g></g></g><g><g><g><path fill="#fff" d="M23.977 23.734h-2.18v-4.843h2.18zm.605-6.054h-3.39a.605.605 0 0 0-.606.605v6.055c0 .334.271.605.605.605h3.391a.605.605 0 0 0 .605-.605v-6.055a.605.605 0 0 0-.605-.605z"/></g></g></g><g><g><g><path fill="#fff" d="M9.203 23.734h-2.18v-4.843h2.18zm.606-6.054H6.418a.605.605 0 0 0-.605.605v6.055c0 .334.27.605.605.605h3.39a.605.605 0 0 0 .606-.605v-6.055a.605.605 0 0 0-.605-.605z"/></g></g></g><g><g><g><path fill="#fff" d="M15.5 14.309a1.576 1.576 0 0 1-1.574-1.575c0-.868.706-1.574 1.574-1.574.868 0 1.574.706 1.574 1.574 0 .868-.706 1.575-1.574 1.575zm0-4.36a2.788 2.788 0 0 0-2.785 2.785A2.788 2.788 0 0 0 15.5 15.52a2.788 2.788 0 0 0 2.785-2.785A2.788 2.788 0 0 0 15.5 9.95z"/></g></g></g><g><g><g><path fill="#fff" d="M14.778 23.912a.61.61 0 0 0-.428-.178.61.61 0 0 0-.428.178.61.61 0 0 0-.178.428.61.61 0 0 0 .606.605.61.61 0 0 0 .605-.605.61.61 0 0 0-.177-.428z"/></g></g></g><g><g><g><path fill="#fff" d="M8.48 7.625a.61.61 0 0 0-.427-.178.61.61 0 0 0-.428.178.61.61 0 0 0-.178.428.61.61 0 0 0 .606.605.61.61 0 0 0 .605-.605.61.61 0 0 0-.177-.428z"/></g></g></g><g><g><g><path fill="#fff" d="M27.553 22.236a.61.61 0 0 0-.428-.177.61.61 0 0 0-.428.177.611.611 0 0 0-.177.428c0 .16.064.316.177.43a.61.61 0 0 0 .856 0 .61.61 0 0 0 0-.857z"/></g></g></g></g></g></svg>