<svg xmlns="http://www.w3.org/2000/svg" width="26" height="20" viewBox="0 0 26 20"><g><g><g><path fill="#ed6e28" d="M23.563 5.3h-.694v7.63c0 1.187-.692 2.261-2.078 2.261H7.207v.363c0 1.05 1.194 2.11 2.42 2.11h10.386L23.986 20l-.576-2.336h.153c1.225 0 1.778-1.058 1.778-2.11V7.11c0-1.05-.553-1.81-1.778-1.81z"/></g><g><path fill="#ed6e28" d="M16.04 8.072a1.426 1.426 0 1 1 0-2.852 1.426 1.426 0 0 1 0 2.852zm-5.324 0a1.425 1.425 0 1 1 0-2.85 1.425 1.425 0 0 1 0 2.85zm-5.323 0a1.425 1.425 0 1 1 0-2.85 1.425 1.425 0 0 1 0 2.85zM18.763 0H2.986C1.598 0 0 1.233 0 2.422v9.562c0 1.094 1.354 1.885 2.652 2.007l-.845 3.207 5.414-3.185h11.542c1.388 0 2.669-.842 2.669-2.03V2.423C21.432 1.233 20.15 0 18.762 0z"/></g></g></g></svg>