<svg xmlns="http://www.w3.org/2000/svg" width="179" height="168" viewBox="0 0 179 168"><g><g><g><path fill="#575f64" d="M10.89 155.863v-9.678h2.42v9.678z"/></g><g><path fill="#32393f" d="M12.1 155.863v-9.678h1.21v9.678z"/></g><g><path fill="#7c8388" d="M9.681 163.282v-8.63h4.839v8.63z"/></g><g><path fill="#575f64" d="M12.1 163.282v-8.63h2.42v8.63z"/></g><g><path fill="#ffa200" d="M12.415 123.202H12.1c-6.532 0-11.927 5.226-12.096 11.782-.17 6.677 5.129 12.242 11.782 12.411h.314c6.532 0 11.927-5.226 12.097-11.782.169-6.677-5.13-12.241-11.782-12.41z"/></g><g><path fill="#ed6e28" d="M24.197 135.613c-.17 6.556-5.565 11.782-12.097 11.782v-24.193h.315c6.653.17 11.951 5.734 11.782 12.411z"/></g><g><path fill="#ececf1" d="M21.777 135.54c-.145 5.202-4.475 9.436-9.677 9.436h-.242c-5.346-.145-9.556-4.597-9.435-9.92.145-5.2 4.476-9.435 9.677-9.435h.242c5.347.146 9.556 4.597 9.435 9.92z"/></g><g><path fill="#d3d3d8" d="M21.777 135.54c-.145 5.202-4.475 9.436-9.677 9.436V125.62h.242c5.347.146 9.556 4.597 9.435 9.92z"/></g><g><path fill="#575f64" d="M13.31 135.299h-2.42v-4.839h2.42c1.33 0 2.42 1.089 2.42 2.42 0 1.33-1.09 2.419-2.42 2.419zm0-7.258H8.47v14.515h2.42v-4.838h2.419a4.853 4.853 0 0 0 4.838-4.839 4.853 4.853 0 0 0-4.838-4.838z"/></g><g><path fill="#32393f" d="M18.148 132.88a4.853 4.853 0 0 1-4.838 4.838H12.1v-2.42h1.21c1.33 0 2.42-1.088 2.42-2.419 0-1.33-1.09-2.419-2.42-2.419H12.1v-2.42h1.21a4.853 4.853 0 0 1 4.838 4.84z"/></g><g><path fill="#ffa200" d="M21.245 141.516l-1.718 1.718-7.427-7.427-7.935-7.936 1.718-1.717z"/></g><g><path fill="#ed6e28" d="M21.245 141.516l-1.718 1.718-7.427-7.427v-3.436z"/></g><g><g><path fill="#ed6e28" d="M164.176 154.827c-1.022-1.004-2.088-1.43-3.086-1.512-.034-.165-.03-.31.026-.424l.033-.067.817-1.658 1.794-3.636c.047-.094.18-.133.368-.133.559 0 1.609.342 2.353.63l.724-1.468 2.386 1.177-.724 1.468c1.391.79 2.233 1.486 2.052 1.856l-1.306 2.647-.39.792-.872 1.767a3.906 3.906 0 0 0-.64-.61c-1.282-.965-2.87-.909-3.535-.828zm12.923-22.376l-2.422-1.194c-.299 1.008-.367 1.969.34 2.318.774.382 1.457-.204 2.082-1.124zm2.025-1.374l-.398.72c-.458.85-1.379 2.55-2.709 2.907l-1.248 2.532-2.386-1.177 1.225-2.486c-.598-1.333.259-3.322.64-4.195l.251-.582zm-5.302 6.879l-4.236 8.59-1.432-.707 4.237-8.59z"/></g><g><path fill="#ffa200" d="M56.212 95.197h5.6v5.6h-5.6z"/></g><g><path fill="#ffa200" d="M67.411 95.197h5.6v5.6h-5.6z"/></g><g><path fill="#ffa200" d="M78.611 95.197h5.6v5.6h-5.6z"/></g><g><path fill="#ffa200" d="M56.212 106.396h5.6v5.6h-5.6z"/></g><g><path fill="#ffa200" d="M67.411 106.396h5.6v5.6h-5.6z"/></g><g><path fill="#ffa200" d="M78.611 106.396h5.6v5.6h-5.6z"/></g><g><path fill="#ffa200" d="M89.81 106.396h5.6v5.6h-5.6z"/></g><g><path fill="#ffa200" d="M101.01 106.396h5.6v5.6h-5.6z"/></g><g><path fill="#ed6e28" d="M56.212 117.596h5.6v5.6h-5.6z"/></g><g><path fill="#ed6e28" d="M67.411 117.596h5.6v5.6h-5.6z"/></g><g><path fill="#ffa200" d="M78.611 117.596h5.6v5.6h-5.6z"/></g><g><path fill="#ffa200" d="M89.81 117.596h5.6v5.6h-5.6z"/></g><g><path fill="#ffa200" d="M101.01 117.596h5.6v5.6h-5.6z"/></g><g><path fill="#ed6e28" d="M56.212 128.796h5.6v5.6h-5.6z"/></g><g><path fill="#ed6e28" d="M67.411 128.796h5.6v5.6h-5.6z"/></g><g><path fill="#ed6e28" d="M78.611 128.796h5.6v5.6h-5.6z"/></g><g><path fill="#ffa200" d="M89.81 128.796h5.6v5.6h-5.6z"/></g><g><path fill="#ffa200" d="M101.01 128.796h5.6v5.6h-5.6z"/></g><g><path fill="#ed6e28" d="M56.212 139.995h5.6v5.6h-5.6z"/></g><g><path fill="#c8c8c8" d="M67.411 139.995h5.6v5.6h-5.6z"/></g><g><path fill="#ed6e28" d="M78.611 139.995h5.6v5.6h-5.6z"/></g><g><path fill="#ed6e28" d="M89.81 139.995h5.6v5.6h-5.6z"/></g><g><path fill="#ed6e28" d="M101.01 139.995h5.6v5.6h-5.6z"/></g><g><path fill="#ed6e28" d="M56.212 151.195h5.6v5.6h-5.6z"/></g><g><path fill="#ed6e28" d="M67.411 151.195h5.6v5.6h-5.6z"/></g><g><path fill="#ed6e28" d="M78.611 151.195h5.6v5.6h-5.6z"/></g><g><path fill="#ed6e28" d="M89.81 151.195h5.6v5.6h-5.6z"/></g><g><path fill="#ed6e28" d="M101.01 151.195h5.6v5.6h-5.6z"/></g><g><path fill="#494949" d="M126.207 5.6h11.205v11.199h-11.205zM26.25 13.999h15.125l-7.563 5.042zm33.604 0h15.119l-7.563 5.042zm33.597 0h15.12l-7.563 5.042zm60.76 0h7.557l-7.557 5.042zm-139.998 0h1.963l8.4 5.6H14.213zm36.398.563l7.563 5.037H43.049zm33.598 0l7.562 5.037H76.652zm34.441-.563h1.957v5.6H110.25zm52.36.563v5.037h-7.563zm-44.803 7.836h14.004a2.8 2.8 0 0 0 2.8-2.8V5.6h5.6v19.598h-22.404zm8.404 8.4h3.168l-3.168 4.763zm5.6 6.442v15.12l-5.041-7.563zm-5.6 16.799l5.037 7.557-5.037 7.563zm-84 13.157h16.8v4.668h-16.8zm89.6 3.642v15.12l-5.041-7.562zM73.01 67.196h16.799v24.082l-6.436-6.365a2.83 2.83 0 0 0-1.963-.809h-8.4zm22.398 0h16.805v27.998H95.408zM21.213 92.395h2.8l4.2 5.6h-11.2zm113.398-4.758l5.037 7.557-5.037 7.563zM14.213 103.594h16.799v7.246l-3.957 3.958h-8.883l-3.96-3.958zm125.998.842v15.106l-5.041-7.543zm-5.6 16.799l5.037 7.562-5.037 7.558zm5.6 16.804v15.115l-5.041-7.557zM25.412 155.155l7.242 7.24H18.172zm25.2-77.691H67.41v9.45c0 1.55 1.254 2.799 2.8 2.799h10.05L90.65 99.99a2.81 2.81 0 0 0 1.96.809h19.603v61.597H50.61zm84 77.374l5.036 7.558h-5.037zm41.997 13.157v-5.6c-.681.01-1.623.016-2.755.02a2.287 2.287 0 0 0 1.166-1.992c0-1.092-.776-2-1.811-2.232.014-.846-.805-1.102-1.41-1.102a1.27 1.27 0 0 0-.477.104c.227-.355.36-.77.36-1.22 0-.984-.522-1.736-1.184-1.925l-1.398 2.833c-.05.095-.11.175-.19.255.293.61.473 1.334.533 2.157a.557.557 0 0 1-.51.6h-.042a.555.555 0 0 1-.553-.515c-.1-1.31-.535-2.26-1.291-2.833-1.235-.927-2.938-.582-2.951-.582l-.309.067-.213-.227c-2.695-2.876-5.467-.426-5.584-.317a.559.559 0 0 1-.748-.828 5.557 5.557 0 0 1 2.914-1.329c-.039-.241-.02-.468.074-.657l.26-.525.489-.989c-.35.005-.3.029-.616.123a4.79 4.79 0 0 0-3.789-1.84c-2.629 0-4.761 2.086-4.761 4.66 0 .382.052.76.142 1.115-1.5.624-2.508 1.75-2.508 3.041 0 .412.11.809.3 1.173-.673.294-1.132.852-1.132 1.5 0 .609.403 1.14 1.012 1.445-1.568.002-2.883.008-3.816.02V30.799h5.595a2.8 2.8 0 0 0 2.805-2.8v-2.8h19.598c1.543 0 2.8-1.253 2.8-2.8V11.2c0-1.546-1.257-2.8-2.8-2.8H154.21V2.8c0-1.546-1.254-2.8-2.805-2.8h-27.994a2.804 2.804 0 0 0-2.805 2.8v5.6H11.414a2.8 2.8 0 0 0-2.8 2.8v11.2a2.8 2.8 0 0 0 2.8 2.8h8.399v53.197c0 1.55 1.253 2.8 2.8 2.8a2.799 2.799 0 0 1 2.8 2.8c0 1.55-1.253 2.799-2.8 2.799a2.797 2.797 0 0 1-2.8-2.8h-5.6a8.345 8.345 0 0 0 2.142 5.548L9.172 99.12l.037.024a2.75 2.75 0 0 0-.596 1.65V112c0 .742.293 1.451.819 1.976l5.6 5.6a2.81 2.81 0 0 0 1.982.823h11.199c.742 0 1.457-.298 1.976-.823l5.604-5.6a2.806 2.806 0 0 0 .818-1.976v-11.205a2.762 2.762 0 0 0-.595-1.65l.039-.024-7.186-9.577a8.35 8.35 0 0 0 1.883-7.662 8.35 8.35 0 0 0-5.34-5.803v-50.88h95.195v2.8c0 1.547 1.258 2.8 2.805 2.8h5.6v131.598h-11.2V50.397h-5.6v11.2H95.409v-5.6h-5.6v5.6H73.01v-2.8h-5.6v2.8H50.611v-8.4H87.01v-5.6H50.61v-11.2h-5.6v125.999h-4.44l-13.176-13.182a2.801 2.801 0 0 0-3.96 0l-13.181 13.182h-1.64v5.6z"/></g></g></g></g></svg>