<svg xmlns="http://www.w3.org/2000/svg" width="24" height="20" viewBox="0 0 24 20"><g><g clip-path="url(#clip-4581c9c7-84a1-4497-9530-2825ac99de08)"><g><path fill="#ff8d0d" d="M24 16.857h-9.2l-.856 1.286h-3.888L9.2 16.857H0v1.286c0 .71.576 1.286 1.286 1.286h21.428c.71 0 1.286-.576 1.286-1.286z"/></g><g><path fill="#ff8d0d" d="M8.017 4.303l-.606-.606.857-.857.606.606zM3.732 8.589l-.606-.606 3.857-3.857.606.606zM6.554 2.41l.606.606-3.857 3.857-.606-.606zm14.875-.125H2.57v11.143H21.43z"/></g><g><path fill="#ff8d0d" d="M13.485 17.286l.285-.429h-3.54l.285.429z"/></g><g><path fill="#ff8d0d" d="M22.286 14.286H1.714V1.429h20.572zm-9.429 1.285h-1.714v-.857h1.714zm10.286-15H.857V16h22.286z"/></g></g></g></svg>