<svg xmlns="http://www.w3.org/2000/svg" width="180" height="27" viewBox="0 0 180 27"><g><g><path fill="#001f34" d="M173.814 19.008c1.592 0 2.63-.073 3.11-.227a2.15 2.15 0 0 0 1.154-.84c.288-.408.43-.932.43-1.57 0-.709-.181-1.275-.537-1.721a2.266 2.266 0 0 0-1.373-.81c-.553-.1-1.587-.147-3.101-.147h-1.193v5.315zM170.89 6.251h1.415v6.065h1.021c1.85 0 3.179.09 3.985.27.807.18 1.459.593 1.948 1.236.497.648.742 1.476.742 2.492 0 1-.24 1.828-.72 2.484-.481.656-1.095 1.085-1.837 1.291-.746.202-1.99.3-3.74.3h-2.819V6.256zm-9.78 1.377V6.25h7.738v1.377h-3.149v12.757h-1.437V7.628zM151.97 6.25h8.09v1.377h-6.67v4.431h6.615v1.377h-6.615v5.572h6.615v1.377h-8.03V6.251zm-2.852 2.612l-.002-.002.002-.002zm-1.116.854a6.093 6.093 0 0 0-2.213-1.823c-.858-.412-1.806-.618-2.84-.618-1.124 0-2.17.275-3.131.815a5.806 5.806 0 0 0-2.231 2.184c-.528.913-.794 1.943-.794 3.08 0 1.724.592 3.165 1.772 4.32 1.18 1.153 2.668 1.732 4.47 1.732 1.977 0 3.633-.776 4.963-2.325l1.115.85a7.097 7.097 0 0 1-2.638 2.08c-1.05.49-2.23.734-3.53.734-2.475 0-4.427-.824-5.851-2.471-1.197-1.39-1.798-3.067-1.798-5.032 0-2.068.725-3.81 2.175-5.22 1.454-1.416 3.269-2.12 5.457-2.12 1.32 0 2.51.258 3.573.777a7.008 7.008 0 0 1 2.615 2.18zm-22.392-2.08h-2.5c-.975 0-1.67.08-2.086.248-.42.163-.755.442-1.012.828-.257.386-.386.82-.386 1.291 0 .49.129.927.382 1.322.257.39.613.677 1.064.857.454.18 1.154.27 2.102.27l2.44-.02V7.627zm1.416-1.386v14.134h-1.416V13.81h-.815l-5.087 6.576h-1.738l5.088-6.576c-1.188-.004-2.12-.154-2.793-.454-.673-.296-1.192-.738-1.553-1.322-.364-.579-.544-1.257-.544-2.024 0-.923.266-1.7.793-2.33.523-.635 1.21-1.046 2.05-1.235.558-.129 1.626-.193 3.196-.193h2.823zm-16.983 2.968l.002.005.002-.005zm-2.428 5.144h4.852l-2.422-5.14zm2.608-8.112l6.593 14.134H115.3l-2.21-4.645h-6.125l-2.196 4.645h-1.575l6.675-14.134h.356zM94.55 13.573v5.435h1.754c1.034 0 1.789-.103 2.274-.3.48-.202.87-.519 1.162-.952.292-.43.442-.897.442-1.394 0-.631-.206-1.18-.618-1.652-.412-.463-.974-.785-1.694-.96-.48-.117-1.321-.177-2.518-.177h-.802zm0-5.945v4.53h.81c.983 0 1.708-.09 2.17-.27a2.324 2.324 0 0 0 1.1-.867c.274-.395.407-.832.407-1.313 0-.647-.228-1.154-.678-1.527-.455-.369-1.18-.553-2.166-.553H94.55zM93.173 6.25h2.784c1.123 0 1.986.133 2.586.399a3.136 3.136 0 0 1 1.429 1.227c.351.549.523 1.162.523 1.831 0 .63-.154 1.201-.459 1.716-.304.515-.755.931-1.347 1.253.734.249 1.3.54 1.695.88.398.334.703.741.922 1.222.219.476.33.995.33 1.553 0 1.136-.416 2.097-1.244 2.882-.828.785-1.943 1.18-3.342 1.18h-3.882V6.259zM82.826 7.276c-1.043 0-2.033.275-2.973.815a5.908 5.908 0 0 0-2.196 2.2c-.524.927-.785 1.953-.785 3.09 0 1.677.579 3.092 1.746 4.246 1.167 1.158 2.57 1.737 4.208 1.737a6.037 6.037 0 0 0 3.046-.797 5.68 5.68 0 0 0 2.183-2.184c.52-.922.785-1.947.785-3.076 0-1.12-.262-2.136-.785-3.041-.523-.905-1.261-1.63-2.21-2.175a5.968 5.968 0 0 0-3.02-.815zM82.762 5.9c2.14 0 3.929.716 5.37 2.14 1.442 1.43 2.162 3.188 2.162 5.273 0 2.072-.72 3.826-2.153 5.267-1.442 1.442-3.192 2.162-5.264 2.162-2.093 0-3.86-.716-5.302-2.153-1.441-1.433-2.162-3.17-2.162-5.208 0-1.36.33-2.616.983-3.775a7.183 7.183 0 0 1 2.685-2.724 7.208 7.208 0 0 1 3.676-.982zM72.119 20.39L67.426 9.448l-4.77 10.943h-1.54l6.16-14.135h.317l6.062 14.135zM51.666 6.256h8.09v1.377h-6.675v4.431h6.615v1.377H53.08v5.573h6.615v1.377h-8.03V6.255zm-4.813 12.813l-4.419-9.862-4.204 9.862zm-11.35 1.322v-1.322h1.132l5.542-12.813h.489l5.855 12.813h1.094v1.322z"/></g><g><path fill="#ff8d0d" d="M13.337 1.961c2.205 0 3.998 1.013 3.998 2.265-1.338.777-3.333 4.633-3.62 7.267-.056.103-.189.176-.378.176-.184 0-.321-.073-.377-.176-1.617-1.883-3.92-5.487-3.62-7.267 0-1.248 1.788-2.265 3.993-2.265zm-.025 22.723c-2.205 0-3.994-1.013-3.994-2.261 1.338-.777 3.333-4.633 3.62-7.267.056-.103.19-.176.378-.176.189 0 .322.073.377.176 1.618 1.88 3.921 5.487 3.62 7.267 0 1.248-1.788 2.26-3.997 2.26zM3.492 7.632c1.103-1.913 2.875-2.955 3.96-2.33.004 1.545 2.346 5.204 4.483 6.766.06.098.06.253-.035.416-.094.163-.223.24-.343.24-2.436.459-6.709.652-8.103-.498-1.081-.626-1.064-2.68.039-4.594zm19.664 11.38c-1.102 1.914-2.874 2.956-3.959 2.33 0-1.549-2.346-5.203-4.483-6.765-.06-.103-.06-.253.035-.416.094-.163.223-.24.343-.236 2.436-.459 6.709-.652 8.099.498 1.08.626 1.064 2.68-.039 4.59zm1.703.97c-3.676 6.37-11.83 8.554-18.196 4.877-6.37-3.68-8.554-11.826-4.878-18.196 3.68-6.37 11.827-8.554 18.197-4.878 6.37 3.677 8.554 11.827 4.877 18.197zm-1.184-.678C26.98 13.586 25.018 6.272 19.3 2.97 13.582-.334 6.268 1.627 2.965 7.345-.338 13.063 1.622 20.377 7.34 23.68c5.719 3.299 13.032 1.338 16.335-4.38zm-9.39-5.426a1.112 1.112 0 1 1-.407-1.514c.532.304.716.986.407 1.518zM3.475 18.99c-1.102-1.909-1.12-3.963-.038-4.59 1.342.772 5.68.57 8.103-.497.12-.005.249.073.343.236.095.163.099.313.034.411-.819 2.338-2.788 6.139-4.482 6.77-1.081.621-2.853-.42-3.955-2.334zm19.69-11.337c1.102 1.913 1.12 3.967.039 4.594-1.343-.772-5.68-.57-8.104.497-.115 0-.248-.073-.343-.24-.094-.163-.098-.313-.034-.416.824-2.342 2.788-6.138 4.483-6.765 1.08-.626 2.852.416 3.959 2.33z"/></g></g></svg>