<svg xmlns="http://www.w3.org/2000/svg" width="145" height="15" viewBox="0 0 145 15"><g><g><path fill="#001f34" d="M138.312 13.11c1.591 0 2.63-.074 3.11-.228a2.15 2.15 0 0 0 1.154-.84c.287-.408.429-.932.429-1.57 0-.709-.18-1.275-.536-1.721a2.266 2.266 0 0 0-1.373-.81c-.553-.1-1.587-.147-3.102-.147h-1.192v5.315zM135.386.351h1.416v6.065h1.02c1.85 0 3.18.09 3.986.27.807.18 1.459.593 1.948 1.236.497.648.742 1.476.742 2.492 0 1-.24 1.828-.721 2.484-.48.656-1.094 1.085-1.836 1.291-.746.202-1.99.3-3.74.3h-2.819V.357zm-9.78 1.377V.352h7.739v1.377h-3.15v12.757h-1.436V1.73zM116.469.352h8.09v1.377h-6.67V6.16h6.615v1.377h-6.615v5.572h6.615v1.377h-8.03V.352zm-2.853 2.612l-.002-.003.002-.001zm-1.115.854a6.093 6.093 0 0 0-2.214-1.823c-.857-.412-1.805-.618-2.84-.618-1.123 0-2.17.275-3.13.815a5.806 5.806 0 0 0-2.231 2.183c-.528.914-.794 1.944-.794 3.08 0 1.725.592 3.166 1.772 4.32 1.18 1.154 2.668 1.733 4.47 1.733 1.977 0 3.633-.776 4.963-2.325l1.115.85a7.097 7.097 0 0 1-2.638 2.08c-1.051.49-2.23.734-3.53.734-2.476 0-4.428-.824-5.852-2.471-1.197-1.39-1.797-3.067-1.797-5.032 0-2.068.725-3.81 2.175-5.22 1.454-1.416 3.269-2.12 5.456-2.12 1.321 0 2.51.258 3.574.777a7.008 7.008 0 0 1 2.614 2.18zm-22.392-2.08h-2.501c-.974 0-1.669.08-2.085.248-.42.163-.755.442-1.012.828-.258.386-.386.82-.386 1.291 0 .49.128.927.382 1.321.257.39.613.678 1.063.858.455.18 1.154.27 2.102.27l2.441-.02V1.728zM91.524.351v14.134H90.11V7.91h-.815l-5.088 6.576H82.47l5.087-6.576c-1.188-.004-2.119-.154-2.792-.455-.674-.296-1.193-.737-1.553-1.32-.365-.58-.545-1.258-.545-2.025 0-.923.266-1.7.794-2.33.523-.635 1.21-1.046 2.05-1.235.558-.129 1.626-.193 3.196-.193h2.823zM74.542 3.32l.002.005.002-.005zm-2.428 5.144h4.851l-2.421-5.14zM74.722.352l6.593 14.134h-1.519l-2.209-4.645h-6.125l-2.197 4.645h-1.574L74.366.352h.356zM59.047 7.674v5.435h1.755c1.034 0 1.789-.103 2.273-.3.48-.202.871-.52 1.163-.952.291-.43.442-.897.442-1.394 0-.631-.206-1.18-.618-1.652-.412-.463-.974-.785-1.695-.96-.48-.117-1.32-.177-2.518-.177h-.802zm0-5.945v4.53h.811c.982 0 1.707-.09 2.17-.27a2.324 2.324 0 0 0 1.099-.867c.274-.395.407-.832.407-1.313 0-.648-.227-1.154-.677-1.527-.455-.369-1.18-.553-2.167-.553h-1.643zM57.67.352h2.784c1.124 0 1.986.133 2.587.399a3.136 3.136 0 0 1 1.428 1.227c.352.549.524 1.162.524 1.831 0 .63-.155 1.201-.46 1.716-.304.515-.754.931-1.346 1.253.733.248 1.3.54 1.694.88.4.334.704.741.923 1.222.218.476.33.995.33 1.552 0 1.137-.416 2.098-1.244 2.883-.828.785-1.943 1.18-3.342 1.18h-3.882V.36zM47.324 1.377c-1.043 0-2.034.275-2.973.815a5.908 5.908 0 0 0-2.196 2.2c-.524.927-.786 1.952-.786 3.09 0 1.676.58 3.092 1.746 4.246 1.167 1.158 2.57 1.737 4.209 1.737a6.037 6.037 0 0 0 3.045-.798 5.68 5.68 0 0 0 2.184-2.183c.519-.922.785-1.948.785-3.076 0-1.12-.262-2.136-.785-3.041-.524-.905-1.261-1.63-2.21-2.175a5.968 5.968 0 0 0-3.02-.815zM47.259 0c2.14 0 3.93.716 5.37 2.14 1.442 1.429 2.163 3.188 2.163 5.273 0 2.071-.72 3.826-2.154 5.267-1.44 1.442-3.191 2.162-5.263 2.162-2.093 0-3.86-.716-5.302-2.153-1.441-1.433-2.162-3.17-2.162-5.208 0-1.36.33-2.616.982-3.775A7.183 7.183 0 0 1 43.58.982 7.208 7.208 0 0 1 47.255 0zM36.617 14.49L31.924 3.549l-4.77 10.943h-1.54L31.774.356h.317l6.061 14.135zM16.163.357h8.09v1.377H17.58v4.431h6.615v1.377h-6.615v5.573h6.615v1.377h-8.03V.356zM11.35 13.169L6.932 3.307 2.728 13.17zM0 14.491v-1.322h1.132L6.675.356h.489l5.855 12.813h1.094v1.322z"/></g></g></svg>