<svg xmlns="http://www.w3.org/2000/svg" width="40" height="40" viewBox="0 0 40 40"><g><g clip-path="url(#clip-0354c722-284d-4c2e-b7f2-abb214cae954)"><g><g><path fill="#ed6e28" d="M38.666 16.293A6.328 6.328 0 0 1 36 21.432l-7.333 5.22-7.334-5.22a6.328 6.328 0 0 1-2.666-5.14V5.714l3.566-1.54.019-.009 6.415-2.77 10 4.319zM26 38.667H3.334a2 2 0 0 1-2-2V36h4a.667.667 0 1 0 0-1.333h-4v-1.334h4a.667.667 0 1 0 0-1.333h-4v-1.333h4a.667.667 0 1 0 0-1.334h-4V28h4a.667.667 0 1 0 0-1.333h-4v-1.334h4a.667.667 0 1 0 0-1.333h-4v-1.333h4a.667.667 0 1 0 0-1.333h-4V20h4a.667.667 0 1 0 0-1.333h-4V18a2 2 0 0 1 2-2h14v.293a7.663 7.663 0 0 0 3.227 6.224l5.828 4.15H24A.667.667 0 1 0 24 28h4v1.333h-4a.667.667 0 1 0 0 1.334h4V32h-4a.667.667 0 1 0 0 1.333h4v1.334h-4A.667.667 0 1 0 24 36h4v.667a2 2 0 0 1-2 2zm-8.667-24H8.667v-3.333a5.977 5.977 0 0 1 8.666-5.361zM4.667 11.334a9.997 9.997 0 0 1 16.05-7.959l-2.984 1.288a.271.271 0 0 0-.023.014 7.323 7.323 0 0 0-10.377 6.657v3.333H4.667zM39.6 4.664L28.933.054a.667.667 0 0 0-.528 0l-6.317 2.728a11.32 11.32 0 0 0-18.754 8.55v3.334A3.337 3.337 0 0 0 0 18v18.667A3.337 3.337 0 0 0 3.334 40H26a3.337 3.337 0 0 0 3.333-3.333V27.8c.022-.013.046-.019.067-.033l7.371-5.248A7.667 7.667 0 0 0 40 16.293V5.275a.667.667 0 0 0-.4-.612z"/></g><g><path fill="#ed6e28" d="M36 7.467v8.826a3.656 3.656 0 0 1-1.547 2.967l-5.786 4.118-5.786-4.118a3.66 3.66 0 0 1-1.548-2.967V7.467l7.334-3.169zM28.4 2.96l-8 3.456a.667.667 0 0 0-.4.612v9.266a4.995 4.995 0 0 0 2.107 4.053l6.173 4.393a.667.667 0 0 0 .773 0l6.173-4.393a4.992 4.992 0 0 0 2.107-4.054V7.026a.667.667 0 0 0-.4-.612l-8-3.456a.667.667 0 0 0-.533.002z"/></g><g><path fill="#ed6e28" d="M24.495 14.61a.666.666 0 1 0-.8 1.066l3.047 2.286a.667.667 0 0 0 .92-.117l6.096-7.619a.667.667 0 0 0-1.042-.832l-5.69 7.114z"/></g><g><path fill="#ed6e28" d="M15.96 27a.667.667 0 0 0-.33.7l.903 4.967H12.8l.904-4.968a.667.667 0 0 0-.329-.7 2.667 2.667 0 1 1 2.586 0zm2.707-2.333a4 4 0 1 0-6.356 3.231l-.966 5.316A.667.667 0 0 0 12 34h5.333a.667.667 0 0 0 .656-.786l-.967-5.316a4.016 4.016 0 0 0 1.645-3.231z"/></g></g></g></g></svg>