<svg xmlns="http://www.w3.org/2000/svg" width="20" height="16" viewBox="0 0 20 16"><g><g opacity=".3"><path d="M20 1.799a8.549 8.549 0 0 1-2.362.647A4.077 4.077 0 0 0 19.44.18a8.194 8.194 0 0 1-2.6.993 4.099 4.099 0 0 0-7.093 2.804c0 .324.028.637.096.934-3.409-.166-6.425-1.8-8.452-4.288a4.128 4.128 0 0 0-.56 2.072c0 1.42.73 2.679 1.82 3.408A4.05 4.05 0 0 1 .8 5.598v.045A4.119 4.119 0 0 0 4.085 9.67a4.092 4.092 0 0 1-1.075.135c-.263 0-.528-.015-.776-.07.531 1.624 2.038 2.818 3.831 2.856a8.239 8.239 0 0 1-5.084 1.75A7.68 7.68 0 0 1 0 14.284a11.543 11.543 0 0 0 6.29 1.84c7.545 0 11.67-6.25 11.67-11.668 0-.18-.006-.356-.015-.53A8.18 8.18 0 0 0 20 1.8z"/></g></g></svg>