<svg xmlns="http://www.w3.org/2000/svg" width="26" height="31" viewBox="0 0 26 31"><g><g><path fill="#e2574c" d="M1.75.227h15.93l8.445 8.41v19.715c0 1.035-.84 1.875-1.875 1.875H1.75a1.875 1.875 0 0 1-1.875-1.875V2.102c0-1.036.84-1.875 1.875-1.875z"/></g><g><path fill="#b53629" d="M26.098 8.664h-6.535a1.876 1.876 0 0 1-1.875-1.875V.245z"/></g><g><path fill="#fff" d="M9.048 15.225c0-.47-.294-.83-.755-.83h-.747v1.658h.747c.461 0 .754-.36.755-.828zm-.734-1.862c1.077 0 1.875.75 1.875 1.868 0 1.143-.828 1.854-1.83 1.854h-.813v1.283c0 .392-.235.61-.55.61-.315 0-.55-.218-.55-.61v-4.396c0-.367.205-.61.572-.61h1.296zm6.278 2.824c0-1.008-.473-1.739-1.562-1.739h-.719v3.428h.798c1.018 0 1.483-.746 1.483-1.69zm1.233.054c0 1.65-1.074 2.72-2.7 2.72h-1.373c-.26 0-.622-.14-.622-.59v-4.403c0-.361.252-.605.607-.605h1.309c1.767 0 2.778 1.132 2.779 2.878zm3.267-1.8h-1.284v1.64h1.081c.336 0 .504.266.504.533 0 .273-.168.548-.504.548h-1.081v1.206c0 .392-.224.61-.525.61-.301 0-.525-.218-.525-.61v-4.396c0-.32.195-.61.545-.61h1.789c.307 0 .468.266.468.54 0 .266-.154.54-.468.54z"/></g></g></svg>