<svg xmlns="http://www.w3.org/2000/svg" width="31" height="31" viewBox="0 0 31 31"><g><g clip-path="url(#clip-aac66207-8219-41a4-8695-cf2d0c1002fa)"><g><g><g><path fill="#fff" d="M8.75 12.214H7.055v-2.18H8.75zm.606-3.39H6.449a.605.605 0 0 0-.605.605v3.39c0 .335.27.606.605.606h2.907a.605.605 0 0 0 .605-.605V9.43a.605.605 0 0 0-.605-.606z"/></g></g></g><g><g><g><path fill="#fff" d="M8.75 18.996H7.055v-2.18H8.75zm.606-3.391H6.449a.605.605 0 0 0-.605.605v3.391c0 .334.27.606.605.606h2.907a.605.605 0 0 0 .605-.606v-3.39a.605.605 0 0 0-.605-.606z"/></g></g></g><g><g><g><path fill="#fff" d="M8.75 25.777H7.055v-2.18H8.75zm.606-3.39H6.449a.605.605 0 0 0-.605.605v3.39c0 .335.27.606.605.606h2.907a.605.605 0 0 0 .605-.606v-3.39a.605.605 0 0 0-.605-.606z"/></g></g></g><g><g><g><path fill="#fff" d="M24.552 25.777h-1.696v-2.18h1.696zm.605-3.39h-2.906a.605.605 0 0 0-.606.605v3.39c0 .335.271.606.606.606h2.906a.605.605 0 0 0 .606-.606v-3.39a.605.605 0 0 0-.606-.606z"/></g></g></g><g><g><g><path fill="#fff" d="M14.017 12.214h-1.695v-2.18h1.695zm.606-3.39h-2.907a.605.605 0 0 0-.605.605v3.39c0 .335.271.606.605.606h2.907a.605.605 0 0 0 .605-.605V9.43a.605.605 0 0 0-.605-.606z"/></g></g></g><g><g><g><path fill="#fff" d="M19.284 12.214H17.59v-2.18h1.695zm.606-3.39h-2.906a.605.605 0 0 0-.606.605v3.39c0 .335.271.606.606.606h2.906a.605.605 0 0 0 .605-.605V9.43a.605.605 0 0 0-.605-.606z"/></g></g></g><g><g><g><path fill="#fff" d="M14.017 18.996h-1.695v-2.18h1.695zm.606-3.391h-2.907a.605.605 0 0 0-.605.605v3.391c0 .334.271.606.605.606h2.907a.605.605 0 0 0 .605-.606v-3.39a.605.605 0 0 0-.605-.606z"/></g></g></g><g><g><g><path fill="#fff" d="M19.284 18.996H17.59v-2.18h1.695zm.606-3.391h-2.906a.605.605 0 0 0-.606.605v3.391c0 .334.271.606.606.606h2.906a.605.605 0 0 0 .605-.606v-3.39a.605.605 0 0 0-.605-.606z"/></g></g></g><g><g><g><path fill="#fff" d="M24.552 12.214h-1.696v-2.18h1.696zm.605-3.39h-2.906a.605.605 0 0 0-.606.605v3.39c0 .335.271.606.606.606h2.906a.605.605 0 0 0 .606-.605V9.43a.605.605 0 0 0-.606-.606z"/></g></g></g><g><g><g><path fill="#fff" d="M24.552 18.996h-1.696v-2.18h1.696zm.605-3.391h-2.906a.605.605 0 0 0-.606.605v3.391c0 .334.271.606.606.606h2.906a.605.605 0 0 0 .606-.606v-3.39a.605.605 0 0 0-.606-.606z"/></g></g></g><g><g><g><path fill="#fff" d="M26.912 29.79zm-7.658 0v-7.267h.212a.605.605 0 1 0 0-1.21h-7.932a.605.605 0 1 0 0 1.21h.212v7.266H4.088V6.906h6.72a.605.605 0 1 0 0-1.21H8.055V4.116h14.892v1.578h-7.354a.605.605 0 1 0 0 1.211h11.32V29.79zm-6.297-5.096v-2.17h2.171zm5.086-.803a.61.61 0 0 0-.04.036l-5.046 5.046v-2.566l3.884-3.884h1.202zm0 5.898h-4.19l4.19-4.19zM11.988 1.211h7.024v1.695h-7.024zm16.135 28.578V6.301a.605.605 0 0 0-.605-.606h-3.36V3.512a.605.605 0 0 0-.606-.606h-3.33v-2.3A.605.605 0 0 0 19.618 0h-8.234a.605.605 0 0 0-.606.605v2.301H7.448a.605.605 0 0 0-.605.606v2.183h-3.36a.605.605 0 0 0-.606.606v23.488H.605a.605.605 0 1 0 0 1.211h29.79a.605.605 0 1 0 0-1.21z"/></g></g></g><g><g><g><path fill="#fff" d="M13.598 5.872a.61.61 0 0 0-.428-.177.61.61 0 0 0-.429.177.61.61 0 0 0-.177.429.607.607 0 0 0 1.034.428.61.61 0 0 0 .177-.428.61.61 0 0 0-.177-.429z"/></g></g></g></g></g></svg>