<svg xmlns="http://www.w3.org/2000/svg" width="20" height="21" viewBox="0 0 20 21"><g><g clip-path="url(#clip-1fd7f085-bfeb-46e3-bca6-609f63746436)" opacity=".5"><g opacity=".5"><g opacity=".5"><path d="M19.236 13.65a.83.83 0 0 0-.833.832v4.016H1.733v-4.016a.83.83 0 0 0-.832-.833.83.83 0 0 0-.832.833v4.849a.83.83 0 0 0 .832.832h18.335a.83.83 0 0 0 .833-.832v-4.85a.83.83 0 0 0-.833-.832z"/></g><g opacity=".5"><path d="M9.456 14.637a.836.836 0 0 0 1.22 0l4.789-5.151a.833.833 0 1 0-1.22-1.135L10.9 11.947V1.123A.83.83 0 0 0 10.07.29a.83.83 0 0 0-.833.833V11.95L5.893 8.355a.837.837 0 0 0-1.18-.045.837.837 0 0 0-.044 1.18l4.787 5.147z"/></g></g></g></g></svg>