<svg xmlns="http://www.w3.org/2000/svg" width="364" height="220" viewBox="0 0 364 220"><g><g><g><path fill="#dbdbdb" d="M295.06 209.902c-9.175 6.81-24.162 10.868-33.492 9.07-.183-5.246-20.628-16.928-39.032-21.581-.524-.331-.542-.84.243-1.42.786-.58 1.874-.88 2.9-.901 20.726-2.28 57.142-4.207 69.132-.727 9.293 1.8 9.39 8.765.213 15.56z"/></g><g><path fill="#ed6e28" d="M296.312 204.954c-10.081 11.65-25.607 17.472-34.697 13.009.515-9.83-18.372-34.086-36.155-44.958-.48-.68-.43-1.633.432-2.626.863-.992 1.991-1.424 3.019-1.343 21.028-1.82 57.697-1.127 69.222 6.795 9.054 4.461 8.223 17.498-1.857 29.12z"/></g><g><path fill="#ed6e28" d="M184.416 12.963c13.85 0 25.111 6.358 25.111 14.226-8.406 4.877-20.935 29.099-22.74 45.642-.35.647-1.185 1.105-2.37 1.105-1.16 0-2.022-.458-2.372-1.105-10.158-11.828-24.626-34.46-22.74-45.642 0-7.84 11.235-14.226 25.084-14.226zm-.162 142.72c-13.848 0-25.084-6.36-25.084-14.2 8.406-4.877 20.935-29.099 22.74-45.642.35-.647 1.186-1.105 2.371-1.105 1.186 0 2.021.458 2.371 1.105 10.158 11.801 24.627 34.46 22.74 45.642 0 7.84-11.235 14.2-25.11 14.2zM122.581 48.581c6.924-12.017 18.052-18.564 24.869-14.63.027 9.7 14.738 32.682 28.156 42.49.377.62.377 1.59-.216 2.613-.593 1.024-1.401 1.509-2.155 1.509-15.304 2.883-42.14 4.095-50.897-3.126-6.79-3.933-6.682-16.84.243-28.856zm134.205 77.57c-23.09 40.011-74.31 53.725-114.294 30.635-40.01-23.118-53.725-74.283-30.635-114.294 23.118-40.011 74.284-53.726 114.295-30.635 40.01 23.09 53.725 74.283 30.634 114.294zm-7.436-4.257c20.746-35.916 8.433-81.854-27.482-102.6-35.916-20.747-81.855-8.434-102.601 27.482-20.747 35.915-8.433 81.854 27.482 102.6 35.916 20.72 81.854 8.407 102.6-27.509zm-58.98-34.083a6.983 6.983 0 0 1-9.537 2.586c-3.341-1.94-4.5-6.224-2.56-9.538a6.951 6.951 0 0 1 9.538-2.56 6.968 6.968 0 0 1 2.56 9.539zm-67.897 32.116c-6.924-11.99-7.032-24.896-.242-28.83 8.433 4.85 35.673 3.584 50.896-3.125.754-.027 1.563.458 2.155 1.482.593 1.024.62 1.967.216 2.587-5.146 14.684-17.513 38.556-28.156 42.516-6.79 3.907-17.917-2.64-24.842-14.657zm123.67-71.211c6.925 12.016 7.033 24.922.243 28.856-8.433-4.85-35.673-3.583-50.896 3.126-.728 0-1.563-.459-2.156-1.51-.592-1.023-.62-1.966-.215-2.613 5.173-14.71 17.513-38.556 28.156-42.49 6.79-3.933 17.917 2.614 24.869 14.63z"/></g><g><g><text dominant-baseline="text-before-edge" style="line-height:193px;font-kerning:normal" fill="#ed6e28" font-family="'Lato','Lato-Black'" font-size="136" transform="translate(0 -5)"><tspan>4</tspan></text></g></g><g><g><text dominant-baseline="text-before-edge" style="line-height:193px;font-kerning:normal" fill="#ed6e28" font-family="'Lato','Lato-Black'" font-size="136" transform="translate(288 -5)"><tspan>4</tspan></text></g></g></g></g></svg>