<svg xmlns="http://www.w3.org/2000/svg" width="24" height="24" viewBox="0 0 24 24"><g><g clip-path="url(#clip-fedfe670-ba30-478b-92e7-5b6f50ac5de9)"><g><path fill="#ff8d0d" d="M15.483 15.631a7.151 7.151 0 0 1-1.967-.274A7.12 7.12 0 0 1 10.454 3.49a7.066 7.066 0 0 1 5.03-2.083c1.899 0 3.685.74 5.029 2.083a7.12 7.12 0 0 1 0 10.059 7.066 7.066 0 0 1-5.03 2.083zm6.024-13.136A8.463 8.463 0 0 0 15.483 0 8.463 8.463 0 0 0 9.46 2.495L.208 11.747a.703.703 0 0 0 .994.994l5.94-5.94a8.588 8.588 0 0 0 .023 3.543L4.708 12.8a.703.703 0 0 0 .995.994l1.941-1.941a8.454 8.454 0 0 0 1.339 2.172L.235 22.772a.703.703 0 0 0 .995.995l8.747-8.748c.644.548 1.356.99 2.117 1.32l-.354.354a.703.703 0 0 0 .994.995l.86-.86a8.59 8.59 0 0 0 3.6.039L11.26 22.8a.703.703 0 0 0 .994.994l9.252-9.252c3.321-3.321 3.321-8.725 0-12.047z"/></g><g><path fill="#ff8d0d" d="M18.848 11.884a4.764 4.764 0 0 1-6.73 0 4.764 4.764 0 0 1 0-6.73 4.728 4.728 0 0 1 3.365-1.394c1.271 0 2.467.495 3.365 1.394a4.764 4.764 0 0 1 0 6.73zm.995-7.725a6.125 6.125 0 0 0-4.36-1.806 6.125 6.125 0 0 0-4.36 1.806 6.172 6.172 0 0 0 0 8.72 6.146 6.146 0 0 0 4.36 1.802c1.58 0 3.158-.6 4.36-1.803a6.172 6.172 0 0 0 0-8.719z"/></g><g><path fill="#ff8d0d" d="M3.234 16.263l.999-.999a.703.703 0 1 0-.995-.994l-.998.998a.703.703 0 1 0 .994.995z"/></g><g><path fill="#ff8d0d" d="M11.302 18.125a.703.703 0 0 0-.994 0l-3.68 3.68a.703.703 0 0 0 .995.994l3.679-3.68a.703.703 0 0 0 0-.994z"/></g><g><path fill="#ff8d0d" d="M15.483 4.546a.703.703 0 0 0-.703.703v.784a.703.703 0 0 0 1.406 0V5.25a.703.703 0 0 0-.703-.703z"/></g><g><path fill="#ff8d0d" d="M15.483 10.307a.703.703 0 0 0-.703.703v.784a.703.703 0 0 0 1.406 0v-.784a.703.703 0 0 0-.703-.703z"/></g><g><path fill="#ff8d0d" d="M18.756 7.815h-.784a.703.703 0 0 0 0 1.407h.784a.703.703 0 0 0 0-1.407z"/></g><g><path fill="#ff8d0d" d="M13.698 8.519a.703.703 0 0 0-.703-.704h-.784a.703.703 0 0 0 0 1.407h.784a.703.703 0 0 0 .703-.703z"/></g><g><path fill="#ff8d0d" d="M13.667 5.711a.703.703 0 1 0-.994.995l.555.555a.7.7 0 0 0 .994 0 .703.703 0 0 0 0-.995z"/></g><g><path fill="#ff8d0d" d="M17.741 9.785a.703.703 0 1 0-.994.995l.554.554a.701.701 0 0 0 .995 0 .703.703 0 0 0 0-.994z"/></g><g><path fill="#ff8d0d" d="M17.242 7.464a.7.7 0 0 0 .497-.206l.554-.554a.703.703 0 1 0-.994-.995l-.555.555a.703.703 0 0 0 .498 1.2z"/></g><g><path fill="#ff8d0d" d="M13.225 9.783l-.554.555a.703.703 0 0 0 .994.994l.555-.555a.703.703 0 1 0-.995-.994z"/></g></g></g></svg>