<svg width="25" height="25" fill="none" xmlns="http://www.w3.org/2000/svg"><path d="M21.74 18.073H3.26a.26.26 0 01-.26-.26V7.187a.26.26 0 01.26-.259h18.48a.26.26 0 01.26.26v10.627a.259.259 0 01-.26.259zm-18.222-.519h17.964V7.445H3.518v10.11z" fill="#FF0101"/><path d="M21.74 9.626a2.442 2.442 0 01-2.438-2.44.26.26 0 01.518 0c0 1.06.862 1.921 1.92 1.921a.26.26 0 010 .519zm-2.18 8.447a.26.26 0 01-.259-.26 2.442 2.442 0 012.44-2.439.26.26 0 010 .518c-1.06 0-1.922.862-1.922 1.921 0 .144-.115.26-.259.26zM3.26 9.626a.26.26 0 010-.518c1.059 0 1.92-.863 1.92-1.922a.26.26 0 01.518 0 2.442 2.442 0 01-2.439 2.44zm2.18 8.447a.26.26 0 01-.26-.26c0-1.06-.862-1.92-1.92-1.92a.26.26 0 010-.519 2.442 2.442 0 012.438 2.44.258.258 0 01-.259.259zm7.17-2.856c-.71 0-1.598-.442-1.974-.74a.259.259 0 11.322-.407c.324.257 1.098.628 1.651.628.538 0 1.335-.287 1.335-.905 0-.552-.543-.77-1.252-.997l-.21-.068c-.56-.189-1.726-.582-1.726-1.526 0-.912.71-1.525 1.766-1.525 1.064 0 1.732.546 1.76.57a.26.26 0 01-.332.398 2.424 2.424 0 00-1.428-.45c-.77 0-1.248.386-1.248 1.007 0 .504.694.806 1.373 1.035l.203.066c.64.205 1.61.516 1.61 1.49.002.982-1.082 1.424-1.85 1.424z" fill="#FF0101"/><path d="M12.522 15.988a.26.26 0 01-.259-.259V9.296a.26.26 0 01.518 0v6.433a.26.26 0 01-.259.26z" fill="#FF0101"/></svg>