<svg width="25" height="25" fill="none" xmlns="http://www.w3.org/2000/svg"><path d="M18.4 9.103C18.391 5.73 15.65 3 12.266 3 8.879 3 6.133 5.723 6.133 9.082c0 .268.022.53.056.79L4 10.96v11.674l5.333-2.653 5.334 2.653L20 19.981V8.307l-1.6.796zm-9.333 10.48L4.533 21.84V11.226l1.74-.866c.172.799.5 1.54.954 2.19l1.84 2.52v4.513zm5.333 2.388l-4.8-2.387V15.8l2.667 3.653 2.133-2.9v5.417zm-2.133-3.416L7.71 12.31a5.497 5.497 0 01-1.043-3.228c0-3.067 2.507-5.553 5.6-5.553v.002c3.092 0 5.6 2.501 5.6 5.585a5.55 5.55 0 01-1.044 3.246l-4.556 6.193zm7.2 1.161l-4.534 2.255V15.83l2.374-3.227a6.07 6.07 0 001.069-2.961l1.09-.54v10.614zm-7.2-13.798a3.192 3.192 0 00-3.2 3.185 3.192 3.192 0 003.2 3.184c1.767 0 3.2-1.426 3.2-3.184a3.192 3.192 0 00-3.2-3.185zm0 5.842a2.665 2.665 0 01-2.672-2.657 2.664 2.664 0 012.672-2.658 2.664 2.664 0 012.67 2.658 2.665 2.665 0 01-2.67 2.657z" fill="#FF0101"/></svg>