<svg width="25" height="25" fill="none" xmlns="http://www.w3.org/2000/svg"><path d="M15.517 16.737l-6.037-.001a.29.29 0 01-.288-.256c-.07-.593-.277-1.43-.87-2.044 0-.002 0-.002-.002-.003A6.467 6.467 0 016.018 9.48 6.49 6.49 0 0112.5 3a6.489 6.489 0 016.481 6.481c0 1.926-.85 3.74-2.33 4.976-.568.594-.775 1.431-.845 2.025a.288.288 0 01-.288.255zm-5.785-.581l5.534.002c.108-.654.37-1.48.99-2.125A5.912 5.912 0 0018.4 9.481a5.908 5.908 0 00-5.902-5.901A5.908 5.908 0 006.6 9.48a5.89 5.89 0 002.12 4.53.287.287 0 01.047.049c.601.64.858 1.452.966 2.096zm5.785 2.334H9.48a.29.29 0 010-.58h6.037a.29.29 0 010 .58zm0 1.755H9.48a.29.29 0 010-.58h6.037a.29.29 0 010 .58zM13.763 22h-2.528a.29.29 0 010-.58h2.528a.29.29 0 010 .58z" fill="#FF0101"/></svg>