<svg width="25" height="25" fill="none" xmlns="http://www.w3.org/2000/svg"><path d="M12.5 4C7.813 4 4 7.813 4 12.5c0 4.687 3.813 8.5 8.5 8.5 4.687 0 8.5-3.813 8.5-8.5C21 7.813 17.187 4 12.5 4zm0 16.433c-4.374 0-7.933-3.559-7.933-7.933S8.126 4.567 12.5 4.567s7.933 3.559 7.933 7.933-3.559 7.933-7.933 7.933z" fill="#FF0101"/><path d="M12.783 11.373V8.499a.283.283 0 10-.566 0v2.874a1.132 1.132 0 00-.81.81H9.383a.283.283 0 100 .566h2.024c.127.487.566.85 1.093.85a1.132 1.132 0 00.283-2.226zm-.283 1.66a.567.567 0 11.001-1.135.567.567 0 01-.001 1.134zm0-6.234a.283.283 0 00.283-.283v-.284a.283.283 0 10-.566 0v.284c0 .156.127.283.283.283zm0 11.334a.283.283 0 00-.283.283v.283a.283.283 0 10.566 0v-.283a.283.283 0 00-.283-.283zm6.233-5.951h-.283a.283.283 0 100 .567h.283a.283.283 0 100-.567zm-12.183 0h-.283a.283.283 0 100 .567h.283a.283.283 0 100-.567zm10.157-4.324l-.2.2a.283.283 0 10.4.4l.2-.2a.283.283 0 10-.4-.4zm-8.615 8.615l-.2.2a.283.283 0 10.4.4l.201-.2a.283.283 0 10-.4-.4zm8.816 0a.283.283 0 10-.401.4l.2.2a.282.282 0 00.4 0 .28.28 0 000-.4l-.2-.2zM8.293 7.857a.283.283 0 10-.4.401l.2.2a.283.283 0 00.4 0c.11-.11.11-.29 0-.4l-.2-.2z" fill="#FF0101"/></svg>