<svg width="25" height="25" fill="none" xmlns="http://www.w3.org/2000/svg"><path d="M19.81 6.847l-7.24-3.805a.364.364 0 00-.343.002l-7.04 3.805A.355.355 0 005 7.161v4.97c.004 4.086 2.458 7.782 6.254 9.42l.977.42a.367.367 0 00.287 0l1.1-.47c3.867-1.6 6.382-5.333 6.382-9.468V7.16a.355.355 0 00-.19-.314zm-.53 5.186c-.002 3.85-2.344 7.325-5.943 8.815h-.003l-.959.41-.833-.36c-3.533-1.523-5.817-4.963-5.821-8.767v-4.76l6.681-3.612 6.877 3.615v4.659z" fill="#FF0101"/><path d="M9.63 11.738c-.129-.175-.354-.196-.505-.046a.465.465 0 00-.04.586l1.889 2.576c.126.172.347.195.497.053l4.397-4.168a.464.464 0 00.052-.585c-.125-.179-.35-.206-.503-.06l-4.126 3.91-1.662-2.266z" fill="#FF0101"/></svg>