<svg width="26" height="23" viewBox="0 0 26 23" fill="none" xmlns="http://www.w3.org/2000/svg">
<path d="M13 23C12.6299 23 12.273 22.8667 11.9949 22.6245C10.9445 21.7113 9.9319 20.8531 9.03847 20.0961L9.03391 20.0922C6.41451 17.8727 4.15256 15.9559 2.57874 14.0678C0.819443 11.957 0 9.95565 0 7.76929C0 5.64507 0.732559 3.68534 2.06259 2.25085C3.40849 0.799395 5.25526 0 7.26331 0C8.76413 0 10.1386 0.471787 11.3484 1.40215C11.959 1.87176 12.5124 2.44651 13 3.11691C13.4878 2.44651 14.041 1.87176 14.6518 1.40215C15.8616 0.471787 17.2361 0 18.7369 0C20.7447 0 22.5917 0.799395 23.9376 2.25085C25.2676 3.68534 26 5.64507 26 7.76929C26 9.95565 25.1808 11.957 23.4215 14.0676C21.8476 15.9559 19.5859 17.8725 16.9669 20.0918C16.0719 20.8499 15.0576 21.7095 14.0049 22.6249C13.727 22.8667 13.3699 23 13 23V23ZM7.26331 1.51437C5.68571 1.51437 4.23647 2.1404 3.18216 3.27726C2.11218 4.43128 1.52284 6.02652 1.52284 7.76929C1.52284 9.60812 2.21017 11.2527 3.75127 13.1016C5.24078 14.8887 7.45631 16.766 10.0216 18.9397L10.0263 18.9437C10.9231 19.7036 11.9397 20.5651 12.9978 21.485C14.0622 20.5634 15.0804 19.7005 15.979 18.9393C18.5441 16.7656 20.7594 14.8887 22.2489 13.1016C23.7898 11.2527 24.4772 9.60812 24.4772 7.76929C24.4772 6.02652 23.8878 4.43128 22.8178 3.27726C21.7637 2.1404 20.3143 1.51437 18.7369 1.51437C17.5812 1.51437 16.5202 1.87965 15.5833 2.59996C14.7484 3.24215 14.1668 4.05397 13.8258 4.62201C13.6504 4.91412 13.3418 5.08847 13 5.08847C12.6582 5.08847 12.3496 4.91412 12.1742 4.62201C11.8334 4.05397 11.2518 3.24215 10.4167 2.59996C9.47983 1.87965 8.41878 1.51437 7.26331 1.51437V1.51437Z" fill="#1A323E"/>
</svg>
