<svg width="40" height="40" viewBox="0 0 40 40" fill="none" xmlns="http://www.w3.org/2000/svg">
<mask id="path-1-inside-1" fill="white">
<path fill-rule="evenodd" clip-rule="evenodd" d="M29.2441 25.3253C30.9682 23.4993 32 21.1785 32 18.6524C32 12.7692 26.4036 8 19.5 8C12.5964 8 7 12.7692 7 18.6524C7 24.5356 12.5964 29.3048 19.5 29.3048C21.2565 29.3048 22.9283 28.9961 24.4449 28.4388L30.0529 32.9999L29.2441 25.3253Z"/>
</mask>
<path d="M29.2441 25.3253L28.1535 24.2955L27.6801 24.7968L27.7524 25.4825L29.2441 25.3253ZM24.4449 28.4388L25.3914 27.2751L24.729 26.7364L23.9276 27.0308L24.4449 28.4388ZM30.0529 32.9999L29.1065 34.1636L31.9255 36.4565L31.5447 32.8427L30.0529 32.9999ZM30.5 18.6524C30.5 20.7531 29.6453 22.7154 28.1535 24.2955L30.3348 26.3551C32.291 24.2831 33.5 21.6039 33.5 18.6524H30.5ZM19.5 9.5C25.8091 9.5 30.5 13.8137 30.5 18.6524H33.5C33.5 11.7248 26.998 6.5 19.5 6.5V9.5ZM8.5 18.6524C8.5 13.8137 13.1909 9.5 19.5 9.5V6.5C12.002 6.5 5.5 11.7248 5.5 18.6524H8.5ZM19.5 27.8048C13.1909 27.8048 8.5 23.4911 8.5 18.6524H5.5C5.5 25.58 12.002 30.8048 19.5 30.8048V27.8048ZM23.9276 27.0308C22.5774 27.527 21.0807 27.8048 19.5 27.8048V30.8048C21.4323 30.8048 23.2793 30.4652 24.9623 29.8468L23.9276 27.0308ZM30.9994 31.8362L25.3914 27.2751L23.4985 29.6025L29.1065 34.1636L30.9994 31.8362ZM27.7524 25.4825L28.5612 33.1572L31.5447 32.8427L30.7359 25.1681L27.7524 25.4825Z" fill="#FAFAFA" mask="url(#path-1-inside-1)"/>
<rect x="13" y="15" width="14" height="1" rx="0.5" fill="#FAFAFA"/>
<rect x="13" y="18" width="14" height="1" rx="0.5" fill="#FAFAFA"/>
<rect x="13" y="21" width="14" height="1" rx="0.5" fill="#FAFAFA"/>
<circle cx="20" cy="20" r="19.25" stroke="#FAFAFA" stroke-width="1.5"/>
</svg>
