<svg width="40" height="40" viewBox="0 0 40 40" fill="none" xmlns="http://www.w3.org/2000/svg">
<circle r="19.25" transform="matrix(1 0 0 -1 20 20)" stroke="#FAFAFA" stroke-width="1.5"/>
<path fill-rule="evenodd" clip-rule="evenodd" d="M15.342 10.2519L15.3041 10.2493L15.266 10.2505C13.5107 10.309 12.5936 10.4909 11.2955 11.1118L11.2836 11.1175L11.272 11.1235C10.6076 11.4703 10.0735 11.8073 9.57493 12.2559C9.07938 12.7018 8.64607 13.2337 8.15538 13.9405L8.13732 13.9665L8.12152 13.9939C7.70061 14.7249 7.45964 15.3547 7.3426 16.0301C7.22849 16.6886 7.23925 17.3558 7.2728 18.1272L7.27386 18.1515L7.27649 18.1756C7.37319 19.0652 7.52009 19.7889 7.78952 20.5183C8.05671 21.2417 8.43362 21.9409 8.95789 22.7887L8.97197 22.8115L8.98765 22.8332C10.0812 24.3483 10.8127 25.2025 12.3808 26.6685L12.3904 26.6775L12.4003 26.6861C13.0896 27.2867 13.7396 27.8499 14.3506 28.3793L14.351 28.3797L14.3511 28.3797C16.2627 30.0361 17.7915 31.3607 18.9418 32.4599C18.9327 32.4696 18.9237 32.4792 18.9148 32.4889L19.8079 33.321C19.8695 33.3853 19.9295 33.4487 19.9878 33.5114L20.0001 33.5L20.0123 33.5114C20.0706 33.4487 20.1306 33.3853 20.1922 33.321L21.0853 32.4889C21.0764 32.4792 21.0674 32.4696 21.0583 32.4599C22.2086 31.3607 23.7374 30.0361 25.6491 28.3797L25.6491 28.3797C26.2601 27.8502 26.9103 27.2868 27.5998 26.6861L27.6097 26.6775L27.6193 26.6685C29.1874 25.2025 29.9189 24.3483 31.0125 22.8332L31.0281 22.8115L31.0422 22.7887C31.5665 21.9409 31.9434 21.2417 32.2106 20.5183C32.48 19.7889 32.6269 19.0652 32.7236 18.1756L32.7262 18.1515L32.7273 18.1272C32.7609 17.3558 32.7716 16.6886 32.6575 16.0301C32.5405 15.3547 32.2995 14.7249 31.8786 13.9939L31.8628 13.9665L31.8447 13.9405C31.354 13.2337 30.9207 12.7018 30.4252 12.2559C29.9266 11.8073 29.3925 11.4703 28.7281 11.1235L28.7165 11.1175L28.7046 11.1118C27.4065 10.4909 26.4894 10.309 24.7341 10.2505L24.696 10.2493L24.6581 10.2519C23.4307 10.3355 22.8009 10.4872 21.8682 10.883L21.855 10.8886L21.842 10.8947C21.1254 11.2318 20.5976 11.5585 20.0001 12.0396C19.4025 11.5585 18.8747 11.2318 18.1581 10.8947L18.1451 10.8886L18.1319 10.883C17.1992 10.4872 16.5695 10.3355 15.342 10.2519ZM20.0001 14.0336C20.0088 14.0416 20.0175 14.0497 20.0263 14.0579L20.3237 13.7376C21.1701 12.9755 21.6735 12.6328 22.4675 12.2582C23.2121 11.9431 23.6745 11.8245 24.7223 11.751C26.3019 11.8057 26.9997 11.9604 28.0456 12.4593C28.6403 12.7704 29.0526 13.0387 29.4218 13.371C29.7915 13.7036 30.1448 14.1245 30.5943 14.7696C30.9363 15.3687 31.0998 15.8259 31.1795 16.2862C31.2626 16.7653 31.2621 17.2835 31.2298 18.0375C31.142 18.8339 31.0159 19.4236 30.8035 19.9986C30.5888 20.5799 30.2751 21.1757 29.7805 21.9771C28.754 23.3978 28.0864 24.1777 26.6045 25.5638C25.9371 26.1453 25.3022 26.6953 24.7008 27.2163L24.7007 27.2164C22.779 28.881 21.2 30.249 20.0001 31.3971C18.8001 30.249 17.2211 28.881 15.2994 27.2164L15.2993 27.2163C14.698 26.6953 14.063 26.1453 13.3956 25.5638C11.9137 24.1777 11.2462 23.3978 10.2196 21.9771C9.72505 21.1757 9.41132 20.5799 9.19659 19.9986C8.98419 19.4236 8.85812 18.8339 8.77033 18.0375C8.73799 17.2835 8.73755 16.7653 8.82057 16.2862C8.90034 15.8259 9.06378 15.3687 9.40584 14.7696C9.85528 14.1245 10.2086 13.7036 10.5783 13.371C10.9475 13.0387 11.3598 12.7704 11.9545 12.4593C13.0004 11.9604 13.6982 11.8057 15.2778 11.751C16.3256 11.8245 16.788 11.9431 17.5326 12.2582C18.3266 12.6328 18.83 12.9755 19.6764 13.7376L19.9738 14.0579C19.9826 14.0497 19.9914 14.0416 20.0001 14.0336Z" fill="#FAFAFA"/>
</svg>
