<svg xmlns="http://www.w3.org/2000/svg" width="28" height="30" viewBox="0 0 28 30"><g><g><path fill="#1a323e" d="M.179 5.176A.626.626 0 0 1 .636 5h6.145l1.392-3.262c.199-.482.557-.892 1.074-1.23C9.764.169 10.288 0 10.818 0h6.364c.53 0 1.054.17 1.57.508.518.338.876.748 1.075 1.23L21.219 5h6.145a.604.604 0 0 1 .636.625v1.25c0 .182-.06.332-.179.449a.626.626 0 0 1-.457.176h-1.91v18.594c0 1.08-.31 2.002-.934 2.763-.623.762-1.372 1.143-2.247 1.143H5.727c-.875 0-1.624-.394-2.247-1.181-.623-.788-.935-1.722-.935-2.803V7.5H.636a.625.625 0 0 1-.457-.176.603.603 0 0 1-.179-.45v-1.25c0-.181.06-.331.179-.448zM17.48 2.714a.561.561 0 0 0-.338-.214h-6.304a.563.563 0 0 0-.338.214L9.545 5h8.91zM5.09 26.016c0 .286.047.55.14.79.093.241.19.417.288.528.1.111.17.166.21.166h16.545c.04 0 .109-.055.208-.166.1-.11.196-.286.29-.527.092-.24.138-.505.138-.791V7.5H5.091v18.516z"/></g><g><path fill="#1a323e" d="M19.727 23.75h-1.272a.604.604 0 0 1-.636-.625v-11.25a.604.604 0 0 1 .636-.625h1.272a.603.603 0 0 1 .636.625v11.25c0 .183-.059.332-.178.45a.626.626 0 0 1-.458.175z"/></g><g><path fill="#1a323e" d="M14.635 23.75h-1.273a.625.625 0 0 1-.457-.175.602.602 0 0 1-.18-.45v-11.25c0-.182.06-.332.18-.45a.625.625 0 0 1 .457-.175h1.273a.603.603 0 0 1 .636.625v11.25c0 .183-.06.332-.179.45a.626.626 0 0 1-.457.175z"/></g><g><path fill="#1a323e" d="M9.546 23.75H8.273a.603.603 0 0 1-.636-.625v-11.25a.603.603 0 0 1 .636-.625h1.273a.603.603 0 0 1 .636.625v11.25a.604.604 0 0 1-.636.625z"/></g></g></svg>