<svg xmlns="http://www.w3.org/2000/svg" width="79" height="50" viewBox="0 0 79 50">
    <g fill="none">
        <path fill="#231F20" d="M75.057 43.924c0-1.916-1.32-3.236-2.996-3.236-1.864 0-3.016 1.456-3.016 3.236 0 1.906 1.32 3.234 3.016 3.234 1.677 0 2.996-1.328 2.996-3.234m.837 0c0 2.357-1.78 3.916-3.833 3.916-2.073 0-3.853-1.56-3.853-3.916 0-2.23 1.602-3.917 3.853-3.917 2.053 0 3.833 1.56 3.833 3.917m-4.606.22v1.268h.858c.43 0 .942-.065.942-.587 0-.629-.47-.681-1.006-.681h-.794zm0-.607h.668l1.12-1.854h.806l-1.212 1.908c.65.071 1.13.396 1.13 1.182 0 .878-.534 1.244-1.58 1.244h-1.644v-4.334h.712v1.854M5.839 11.431L6.644 11.431 6.644 9.338 8.692 11.431 9.684 11.431 7.848 9.596 9.813 6.832 8.808 6.832 7.301 9.029 6.644 8.378 6.644 6.832 5.839 6.832 5.839 11.431M12.62 8.5c0 .574-.29 1.173-.946 1.173-.657 0-.947-.6-.947-1.172 0-.58.29-1.179.947-1.179s.947.599.947 1.179zm-2.627 0c0 1.018.612 1.752 1.68 1.752 1.07 0 1.682-.734 1.682-1.751 0-1.025-.612-1.759-1.681-1.759-1.07 0-1.681.734-1.681 1.759M13.966 10.162h.69v-.644h.012c.084.354.522.734.973.734.167 0 .213-.012.277-.019v-.708c-.103.012-.213.032-.316.032-.502 0-.901-.406-.901-1.14V6.832h-.735v3.33M16.253 11.431L16.987 11.431 16.987 8.816 18.314 10.162 19.215 10.162 17.94 8.939 19.338 6.832 18.442 6.832 17.425 8.449 16.987 8.024 16.987 6.832 16.253 6.832 16.253 11.431M21.978 8.79c-.026.464-.341.883-.837.883-.51 0-.857-.387-.876-.882h1.713zm-1.713-.483c0-.521.283-.985.895-.985.425 0 .683.187.812.554h.695c-.16-.728-.78-1.134-1.507-1.134-1.043 0-1.63.728-1.63 1.752 0 .947.619 1.758 1.61 1.758 1.05 0 1.695-.946 1.572-1.945h-2.447M23.292 10.162h.91v-3.33h-.91v3.33zm0 1.27h.91v-.696h-.91v.695M24.824 10.162h.696v-.49l.013-.012c.219.367.599.592 1.037.592.721 0 1.179-.386 1.179-1.133V6.832h-.735v2.093c-.013.522-.219.748-.65.748-.49 0-.805-.387-.805-.876V6.832h-.735v3.33M30.331 11.431L31.065 11.431 31.065 6.832 30.331 6.832 30.331 11.431M34.788 6.832h-.722v.464h-.013c-.18-.335-.58-.554-.946-.554-.87 0-1.243.438-1.243 1.308v2.112h.734V8.12c0-.586.238-.798.637-.798.612 0 .818.393.818.908v1.932h.735v-3.33M38.033 8.5c0 .574-.29 1.173-.946 1.173-.657 0-.947-.6-.947-1.172 0-.58.29-1.179.947-1.179s.946.599.946 1.179zm-2.628 0c0 1.018.612 1.752 1.682 1.752 1.069 0 1.68-.734 1.68-1.751 0-1.025-.611-1.759-1.68-1.759-1.07 0-1.682.734-1.682 1.759M39.044 10.162h.554v.999h.734v-.999h.664v-.547h-.664V7.837c0-.303.026-.457.354-.457.104 0 .207 0 .31.026v-.567c-.161-.013-.316-.039-.477-.039-.766 0-.908.297-.92.85v1.965h-.555v.547M41.189 10.162h.554v.999h.734v-.999h.663v-.547h-.663V7.837c0-.303.026-.457.354-.457.103 0 .206 0 .31.026v-.567c-.162-.013-.316-.039-.477-.039-.767 0-.909.297-.921.85v1.965h-.554v.547M46.141 8.5c0 .574-.29 1.173-.946 1.173-.657 0-.947-.6-.947-1.172 0-.58.29-1.179.947-1.179.656 0 .946.599.946 1.179zm-2.627 0c0 1.018.611 1.752 1.68 1.752 1.07 0 1.682-.734 1.682-1.751 0-1.025-.612-1.759-1.681-1.759-1.07 0-1.681.734-1.681 1.759M47.506 11.431L48.241 11.431 48.241 6.832 47.506 6.832 47.506 11.431M51.963 6.832h-.721v.464h-.013c-.18-.335-.58-.554-.947-.554-.87 0-1.243.438-1.243 1.308v2.112h.734V8.12c0-.586.239-.798.638-.798.612 0 .818.393.818.908v1.932h.734v-3.33M55.209 8.5c0 .574-.29 1.173-.947 1.173s-.947-.6-.947-1.172c0-.58.29-1.179.947-1.179s.947.599.947 1.179zm-2.628 0c0 1.018.612 1.752 1.681 1.752 1.07 0 1.681-.734 1.681-1.751 0-1.025-.612-1.759-1.68-1.759-1.07 0-1.682.734-1.682 1.759M56.574 11.431L57.308 11.431 57.308 8.816 58.635 10.162 59.537 10.162 58.261 8.939 59.659 6.832 58.764 6.832 57.746 8.449 57.308 8.024 57.308 6.832 56.574 6.832 56.574 11.431M60.032 10.162h.91v-3.33h-.91v3.33zm0 1.27h.91v-.696h-.91v.695M61.23 10.162h.554v.999h.734v-.999h.664v-.547h-.664V7.837c0-.303.026-.457.355-.457.102 0 .206 0 .309.026v-.567c-.161-.013-.316-.039-.477-.039-.766 0-.908.297-.92.85v1.965h-.555v.547M66.634 6.832h-.722v.464H65.9c-.18-.335-.58-.554-.946-.554-.87 0-1.243.438-1.243 1.308v2.112h.734V8.12c0-.586.238-.798.637-.798.612 0 .818.393.818.908v1.932h.735v-3.33M67.96 7.902c.039-.426.361-.58.754-.58.277 0 .76.058.74.438-.019.386-.553.431-1.088.554-.541.116-1.07.309-1.07.985 0 .728.787.953 1.392.953.683 0 1.301-.283 1.391-1.024h-.766c-.065.348-.354.445-.676.445-.213 0-.606-.052-.606-.342 0-.36.541-.412 1.082-.534.535-.122 1.076-.316 1.076-.973 0-.792-.799-1.082-1.488-1.082-.837 0-1.462.374-1.475 1.16h.734M22.88 2.74c-.062-.283-.274-.457-.541-.457-.392 0-.645.285-.645.665 0 .386.239.662.636.662.276 0 .503-.15.546-.441h-.183c-.032.163-.168.282-.36.282-.287 0-.441-.218-.441-.497 0-.273.171-.511.447-.511.192 0 .328.125.354.296h.186zm-.576-.718c.503 0 .892.4.892.932 0 .517-.39.92-.892.92-.508 0-.897-.403-.897-.92 0-.531.39-.932.897-.932zm0 2.012c.593 0 1.09-.467 1.09-1.08 0-.624-.497-1.092-1.09-1.092-.595 0-1.094.468-1.094 1.092 0 .613.499 1.08 1.094 1.08M24.338.476h1.204c.415 0 .678.253.678.648 0 .47-.38.602-.784.602h-1.098V.476zm0 1.655h.961c.547 0 .77.197.77.577 0 .5-.355.572-.77.572h-.961V2.13zm-.481 1.553h1.31c.32 0 .74 0 .957-.131.238-.142.425-.4.425-.754 0-.385-.202-.673-.536-.81v-.01c.445-.091.688-.425.688-.87C26.7.578 26.32.07 25.603.07h-1.746v3.613M27.278 2.688h.533V.07h-.533v2.617zm.533.47h-.533v.526h.533v-.526M28.639.896c.015-.384.349-.506.703-.506.268 0 .633.061.633.39 0 .334-.425.39-.855.485-.426.097-.856.238-.856.74 0 .526.521.743.977.743.577 0 1.037-.182 1.073-.82h-.43c-.03.334-.324.44-.608.44-.258 0-.556-.07-.556-.333 0-.309.455-.36.855-.456.43-.096.855-.238.855-.744 0-.622-.582-.824-1.113-.824-.587 0-1.083.238-1.108.885h.43M30.906 2.688h.404v-.416h.01c.183.324.476.476.85.476.689 0 .901-.395.901-.956V.072h-.43v1.77c0 .32-.202.527-.531.527-.521 0-.774-.35-.774-.82V.071h-.43v2.617M34.848.39c.45 0 .814.355.814.987 0 .637-.364.992-.814.992-.45 0-.815-.355-.815-.992 0-.632.364-.987.815-.987zm0 2.358c.83 0 1.27-.602 1.27-1.371 0-.764-.44-1.366-1.27-1.366-.83 0-1.27.602-1.27 1.366 0 .769.44 1.371 1.27 1.371M37.747.39c.577 0 .8.496.8.987 0 .516-.233.992-.825.992-.587 0-.785-.501-.785-1.012 0-.491.253-.967.81-.967zM38.96.071h-.43v.355h-.01C38.38.137 38.045.01 37.686.01c-.804 0-1.204.637-1.204 1.376 0 .739.395 1.361 1.194 1.361.268 0 .653-.1.845-.41h.01v1.346h.43V.071M41.44 1.63c-.02.41-.328.739-.753.739-.45 0-.719-.34-.75-.739h1.504zm.416-.729c-.117-.577-.532-.89-1.119-.89-.834 0-1.23.577-1.255 1.376 0 .784.517 1.361 1.23 1.361.926 0 1.21-.865 1.184-1.498h-1.958c-.015-.455.243-.86.815-.86.354 0 .602.172.678.511h.425M43.647 2.389c-.035.729.395 1.27 1.154 1.27.627 0 1.123-.364 1.123-1.032 0-.633-.425-.952-.87-1.23-.45-.273-.921-.5-1.007-.946h1.842v-.38h-2.343c.07.85.5 1.154 1.007 1.468.607.374.916.597.916 1.093 0 .39-.314.648-.694.648-.5 0-.713-.461-.698-.891h-.43M47.645.39c.733 0 .738.911.738 1.447 0 .532-.005 1.443-.738 1.443-.734 0-.74-.911-.74-1.443 0-.536.006-1.447.74-1.447zm0 3.269c1.123 0 1.194-1.032 1.194-1.827 0-.79-.071-1.821-1.194-1.821-1.124 0-1.195 1.032-1.195 1.821 0 .795.071 1.827 1.195 1.827M50.853.071h-.43v2.571h-.931v.344c.49 0 .936.132 1.032.673h.329V.071M53.287 2.151c.339 0 .592.213.592.577 0 .36-.253.552-.603.552-.344 0-.627-.193-.627-.552 0-.395.283-.577.638-.577zm0-1.76c.43 0 .733.298.733.698 0 .39-.334.683-.738.683-.425 0-.76-.274-.76-.689 0-.43.32-.693.765-.693zm-.04 3.268c.783 0 1.087-.46 1.087-.916 0-.319-.202-.612-.496-.744.43-.136.638-.45.638-.895 0-.694-.527-1.093-1.19-1.093-.688 0-1.219.359-1.219 1.093 0 .425.228.754.628.895-.299.122-.501.42-.501.744 0 .592.5.916 1.052.916" transform="matrix(1 0 0 -1 .161 49.845)"/>
        <path fill="#DB1F26" d="M39.49 47.75h-6.305L21.44 14.47h12.933l1.156 4.508h7.89l1.156-4.508H57.51L45.765 47.75H39.46h.03zm-2.347-20.837l2.358 10.167 2.382-10.167h-4.74z" transform="matrix(1 0 0 -1 .161 49.845)"/>
        <path fill="#DB1F26" d="M14.546 42.867H9.47L.016 16.075h10.411l.931 3.63h6.352l.93-3.63h10.412L19.6 42.867h-5.077.024zm-1.89-16.775l1.898 8.186 1.918-8.186h-3.815zM63.074 40.57h-4.455l-8.297-23.513h9.138l.816 3.186h5.575l.816-3.186h9.138L67.508 40.57h-4.454.02zm-1.658-14.722l1.665 7.184 1.684-7.184h-3.349z" transform="matrix(1 0 0 -1 .161 49.845)"/>
    </g>
</svg>
