<svg xmlns="http://www.w3.org/2000/svg" xmlns:xlink="http://www.w3.org/1999/xlink" width="140" height="172" viewBox="0 0 140 172">
    <defs>
        <path id="prefix__a" d="M165.012 121.637l.076 5.471-.8 1.591-1.177 1.047-3.078 1.11-2.665 1.548-2.377 2.719-.876 3.88 1.86 2.834 3.381 1.55.861 5.383-2.792 2.65-7.163 2.642-.752 6.363.231 5.002-.13 3.628-.568 5.01-5.794 2.28-3.74-7.627-.033-3.061-1.116-3.58-.211-3.054-1.324-4.895-5.482-1.327-2.127-.174-2.975.911-.737-.355-3.563-6.707.587-7.426-1.901-3.757-.262-1.702.045-1.888-1.561-1.557-1.896-.825-.92-4.209 2.178-1.022 5.385.494 1.574-.289 1.44-.878 4.357-6.944-.126-1.533.467-1.99 4.714-.738 2.1 2.69-.421 4.302.268 5.5 2.855 1.493 1.113.219 1.188-4.057.834-1.975 1.13-1.103.386-3.72-.671-2.273-1.43-1.696 5.338-4.624 5.524-3.669 3.213-.191 3.234.897 3.006 1.24 1.63 1.066.915 1.712-2.016 4.073-.56 2.227 1.354 7.314zm-87.156 51.882H77.4l-1.964-.473-1.4-1.124-3.607.801-4.829 1.823-2.68-.09-2.13-1.96-8.717-2.794-1.407-.225-5.747-.117-.012-.005-.273-4.422-.713-3.2-2.013-4.77 2.985-1.152-.578-9.334-1.083-4.855-8.337-5-6.568-4.87 1.516-16.48.647-4.462L28 102.126l.259-10.039 1.05-15.917 2.088-.626 1.531.077 5.906 2.866 2.458.286 1.685 2.557 1.974 1.051 1.429-2.713.556-4.648 4.682-6.03 3.28-2.232 2.235-1.07 2.256 2.438 1.727 2.737.41-5.993 1.392-11.463-4.45-1.806-3.625 1.557-3.595 7.273-3.208 9.107-5.202.835-4.152 2.57-3.748-2.666-2.416-2.35-.06-3.447.547-2.082 4.405-7.449 5.9-7.178 5.945.069 4.336-2.299 2.59-.274 8.087.504 4.152-1.577 3.719-3.305 8.036-14.035 4.534-5.88 9.144-2.072 8.448-6.814 2.36-.088-3.974 5.082-.638 1.962-.481 3.007 2.849 6.513-.602 3.955.202 7.759-2.687 4.032-3.032 8.552-1.306 1.256-.28 9.933.298 2.364-.43 8.992 3.107 3.671 3.286 1.917 10.957-.069 1.137 1.61 1.336 2.764-.977 4.685-1.17 3.526-3.175 2.966-4.074 2.21-2.533.096-3.45-4.2-1.64 1.364-1.694 2.142-2.837 11.454-1.345 7.703-.728.624-1.604-1.133-2.77-.088-3.503 1.823 1.796 1.63 1.899 2.827-.758 1.416-3.081 1.529-2.732 3.089-1.143 2.334-3.445 2.76-2.166 3.493 1.062 4.322.451 3.788.948 4.176-.854 3.329-4.267 4.766-1.573 4.124 3.655-.053 2.25.952 1.318 1.216 1.36 1.723-.833 2.128 1.062 5.498zm27.893-42.312l1.284 2.842 1.58 6.047 2.5 6.742-1.044 2.817.71 3.603-.713 3.751-4.973 4.354-5.578.197-5.798-2.102-8.19-4.053-.658-2.28-1.15-1.264-2.19-6.936.052-8.585 4.115-1.077 8.993-4.113 2.08.647 2.168 2.103 2.498.124 3.625-2.983.689.166zm22.068 38.777l5.451 3.319 3.689-.19 2.509 1.373.599 2.122.213 4.701-2.636 1.37-2.909-.465-3.959 1.786-12.997-7.681.19-6.426.52-2.528 6.159-.602 3.17 3.221zm-19.327 7.527l-1.366.302-1.857-4.323-.24-1.354 2.181-2.774 1.411-3.146 3.65-4.84 2.102-5.684.804.09-.933 5.062-4.793 14.057-.96 2.61zm55.92-11.497l-1.175.798-4.73-.586-5.331 3.714-2.022-1.174.764-2.372.556-.864 1.794-1.008 1.197-1.475.47-2.311 1.11 1.246 3.3.522 1.613.737 1.348 1.082 1.107 1.691zm3.59-34.083l-2.9 2.315-.638-.122-.942-3.178 1.528-1.935.903-1.644.64.048.876 1.777.533 2.739zm-67.204 40.411l-2.066.556-2.365-1.164-3.849-4.39-.484-1.167 2.022.745 2.51 2.296 2.055.489 2.81 1.94-.633.695zm-13.036-2.076l-3.207.745-1.64-1.293-3.009-.502-1.08-8.254.31-.491 1.514.58 5.19 3.853 1.814 4.21.108 1.152zm16.824-48.52l-.523.983-1.953-1.023-.204-3.544.74-3.188-.87-2.854.957-1.837 2.747 4.276.782 2.007-1.059 2.397-.617 2.783zm13.705-81.999l-1.255 1.333-4.24-1.886 1.872-2.64 4.658-1.216 2.735.402-3.009 2.62-.761 1.387z"/>
    </defs>
    <g fill="none" fill-rule="evenodd" transform="translate(-28 -12)">
        <use fill="#00B3F0" fill-opacity=".4" xlink:href="#prefix__a"/>
    </g>
</svg>
