<svg xmlns="http://www.w3.org/2000/svg" xmlns:xlink="http://www.w3.org/1999/xlink" width="143" height="172" viewBox="0 0 143 172">
    <defs>
        <path id="prefix__a" d="M112.49 46.065l-.712.055-2.051.19.905 1.329.3.53.06.779-.157 1.44-.434 1.228-.506.994-.977.984 1.483.97-1.007 1.305-.47.508-.546-.088-.977-.45-2.363-1.092-1.128-.411-1.008-.126-.538.016-2.138-.938-.414.105-.767.407-.085.91.049 2.257.113 1.727-.283.994-.282.674-.856 1.808-1.924-1.228-1.312-.816-.843 1.086-2.115 1.982-1.082 3.879-.063.126-.64.98-.82.448-.62.222-.362 1.14.843 1.627.432.856.403 1.377-.075.874-.093.542-.907 1.108-1.932 2.909-1.788 3.01-.733.86.333 2.529-.596.737-1.211.833-.62.32-.667.189-2.048.331.365 2.67.137 1.176-.003.695-.212.676-.253 1.29-.382 4.573-.292.488-.403 1.227-1.297 2.933-1.04 1.936-1.501 2.77 1.22.87 1.116.634.231.972.154 1.618-.037 1.098-.426.984-.331.69-.23.335-1.585-.335-2.029-.43-.525-.003-1.18.31-1.065.633-.561.535-.15.212-.71 1.212-1.262 2.145-.693.932.202 1.28-1.16 2.464.759 2.471.032.08.402.994-.422.64-.177.343.06 1.129.111 1.257-.098.736-.04.815 1.033 3.642-.012.849-.051.546-.319 2.239-.428 2.986.747.78 1.065.932.597.366.882 1.102.674 1.073-.094.711-.193.783-.284.547-.265.749-.12.55-.125.148-1.178.06-.622.209-.326.233.112 1.252.714 2.283.593 1.614.19 1.06-.195 1.072-.202.547-.007.737-.155 1.46-.46.736-.602.801-.67.597-.533.168-.456.069-.307.303-.278.888-.257.931-.84 1.142.023.396.32 1.347.3 1.528-.254 1.422-.217 1.487-.38.988-.541.352-.398-.175-.451-1.356-.01-.312-.112-.415-1.278-.415-.226.015-.502-.243-.295-.068-.604-.14-.502-1.206-.534-1.005-.076-.421.019-1.89-.164-.844-.05-.922-.336.75.195 1.183-.414.496-.523.24.05.69.214.13.045.715-.127 1.055-1.029 2.335-.208.25-.14.314-.527-.209-.675.647-.64.104-.231-.732-.902-.97-.426.054.382.48.377.622-.214.41-.21.269-.369.139-1.318.81.47.545-.399.616-.46.09-.246.288-.085.39-1.365 1.11-2.225 2.83-1.143.796-.799.825-.703-.02-.885.7-2.239.614-1.485-.277-1.035.243-.554-.481-.072-.33.027-.193.093-.23-.192-.082-.406-.04-.174.233-.023.527-.193.138-.77-.302-.194-.272.277-.551.474-.498-.086-.102-.093-.302-.23-.039-.69.073-.56-.089-1.827-1.122-.427-.6-1.475-.961-.66-1.021-.376-1.122.029-1.02.181-1.624.31-.403 1.323.57 1.337.95.21-.046.42-.746.814-.6-.23-.166-1.212.688-.45-.38-.7-.78v-.4l.326-.402.108-.543-.17-.515.08-.7.54-.745.81-.756.583-.73.6-.45-.063-.152-.685.288-.656.486-.772.814-.94.659-.696.254-.331.211-.51.205-.528.94-.575.403-1.033.04-.227-.686.291-2.45.313-1.2.343-.85.539-.144.377-.625h.312l.272.289 1.054.28.52-.797.676-.116 1.233-.805-.026-.147-.834.177-.506.026-.726.203-.385-.145-.18-.604.29-.545 1.164-1.305.401-.573.23-.536-.037-.365.193-.757 1.138-1.326.926-.608.303.523-.258 1.631.002.672.733-2.377.322-.567.368-.4.888-.27.252-.376-1.035.124-2.51.912-1.06.81-.281.624-.735.937-.344.608-.152.89-.414.483-.558.178-.775 1.123-.341.9-.772.717-.49.55-.16.195-.265.54-.22.037-.191-.316-.032-.696.078-1.115.37-.804.178-.787-.246-.737.17-.465.327.016.607.212.645-.034 1.06-.584-.168-.341-.458-.048-.855.048-.719-.57-.559-1.14-.254-1.526.17-.438 2.067-1.563.557-.712-.322-.071-.776.864-1.112.535-.7-.744-.365-.803-.21-1.703.076-.877-.088-1.158.475-.376.53.2.524.074 1.186-.102 2.617-.696 1.687.414.685-.038 1.049-.6.918-.062.687.459.375.525.046.702.318.467.214-.151-.17-.556-.036-.862 2.76-.98.325-.381-1.096-.133-.314-.897.58-1.362-.055-.177-.609.72-.3 1.01.12.804-.121.373-.56.171-1.263.062-.81-.34-.75-.186-.256-.257.085-.574-.142-.119-.31.517-.276 1.027-.596.236-1.645-.381-2.382.225-1.069.515-.692-.067-1.191-.904-.465-.72-.173-1.457.07-.642.927-.271.47.019.439-.346-.389-.225-.547-.442-.372-.888-.562-.29-.376-.76-.095-1.149.107-.801.3-.259.722.176 1.904-.135 1.792.815 1.217.461 2.464-.232 1.444-.727-.265-.201-1.566.42-1.447-.017-2.551-.823-1.046-.265-1.127.117-.587-.25-.344-.816.255-1.567.534-.338.29.41.349.025.353-.656.338-.375.268-.849 1.01-.806.428-.068.612-.373.391.106.25.373.317.31.686-.038 2.028-.646.219-.19.395-.533-1.286.237-1.068.378-.687.105-.096-.471.253-.42.397-.447.194-.763.437-.326.473.018.978-.14.69-.198 1.184.133 1.764.293 1.136.71.429-.064.453-.189.206-.257-.893-.296-.05-.42.11-.319 1.456-.587 1.59-.13-.274-.473-3.482.714-.91-.487-.717.004-.47.278-1.338.337-.246-.24.254-.828.802-1.363.067-.335.372-.33 2.08-.794 1-.926.45-.117.447.064.68-.108 1.312.265.605 1.159.543.363 1.708 1.44-.076-.413-1.48-1.956-.565-.486-.421-.966.145-.915.475-.612 1.688-.328.302-.355.03-.61-.258-.42-.621.025-.512-.26-.14-.66.204-.448.973-.816.533-.266.922-.288 1.604.647.122.339-.45.813.045.455.393.05.916-1.369 1.077-.19.446-.295.518-.186.74 1.241.323.397.244.162.236 1.029.228.054.325-.515.59-.271.829-.18 1.371.273.62-.202.305.029-.292-.926-.181-.267.282-.83.295-.323.947-.584.904-.26.59-.556.792-.51-.124-.41-.22-.476-.513-.03-.21-.26.651-.617.891-.687-.155-.27-.67-.306-.51.23-.756.533-.88.84.287.244.44.704-.613.936-3.257 2.47-1.553.72-.716-.111-.17-.673-.331-.498-.355-1.03-.602.028-.342.228-.15-.338.26-1.103.51-.874.854-.662.41-.801.386-1.274 1.236-1.217 1.801-3.029 1.467-.972.537-1.065.865-.473.737-.834.58-.083 1.052-.753.596-.898-.39-.056-.924.585-.523.235.036-.964.254-.991.762-.909 3.664-2.652.365.44.437.776 1.104-.175 1.257-1.506.968-1.643-.523.287-.571.673-1.113.933-.515.147-.293-.121-.163-.622-.386-.203-.349.14-.36-.443-.063-1.097.46-1.639.363-1.088.394-.826 1.546-2.355.334-1.293.7-.683.908.152.274-.198-.311-.851-.99-.677-.061-.425 3.297-1.12 1.57.037.467-.56.853-.359.647-.687-.334-.303-1.595.632-.997.296-.45-.01-.353.218-1.274.082-.277-2.744.2-1.498.475.031.108-1.436.548-.848.758-.19.382-.364.551-.742.912.172.938-.165-.233-.35-1.164-.452-.287-.777.41-.435.448-.32.392-.057.777-1.525.473-.653.529.113.736-.676.724.231.7-.442.955-.293 3.5-.113.104-.629-.737-.146-2.6-.162-1.327.013-.56.163-.205-.22.037-.377.482-.598.23-.661.964-1.622 1.131-1.084.867.278.922 1.034.657.13.306.333.478 1.42.227.047-.102-1.365.633-1.114-.165-.31-.95.404-.73-.42-.575-.84-.164-.77.357-.761.338-.384-.23-.449-1.437 1.201-1.018.279-.4-.168.217-1.087-.121-.866 1.363-2.14.47-.25.766.173.691.606.578-.097.627-.323-.085-.581-1.36-.23-.35-.484.126-.475.934-.503.928-.91 1.064-.263.856-.69.165.157.145.27.307 2.549.765 2.064.282.075-.293-1.756.274-.506.347-.385.108-.44-.398-.149-.325-.632-.464-2.028.158-.528 1.007-1.087 1.262-.25 1.345.762.473.009.78-.205 1.323-.627.778-.239.406.001.1-.317-.376-.204-.121-.199-.295-.114-1.224.34-3.375-.108-.325-.363-.06-.63.358-.905.394-.5 1.272-.902 1.348-.122 1.419-1.608.542-1.21.308-1.875.865-1.523 2.17-.87.087-.385-.23-.797.018-1.442.594-1.686.395-.588.183-.07.468.553.567 1.174.89.67 1.168.116.311-.33-.907-.669-.686-.876-.055-.881.326-.469.506.053.635-.1.592-.595.086-.419.025-.569.147-.58.869-1.388 2.677-.906.194.368-.145 2.677-.307 1.72.01 1.252.52-1.252.699-3.45.524-1.632.593-.94.423-.213.419-.489.553-.29.169.375.175.87-.298 3.035.03.955-.334 1.275-1.275 2.825.059.36.288-.134.494-.465 1.58-2.684 1.381.34.017-.221-.443-.792-.54-.76-.164-.942.073-2.528.416-1.006 1.193.106.715-.14.333.459.716-.033.495-1.826.98-.16.86 1.208 1.035.81.831 1.163.235-.317-.449-2.72-.49-.997-1.066-.52-1.134-1.235-.296-.55.052-.408 1-.396 1.32.453 1.177-1.035.322.284.902-.542.56.729.344-.216.199-.978 1.44-.609.913.562.49.58.227 1.113.348 2.19.713 1.175.442.575.525.16.253-.586-.492-.706-.132-.667.235-1.66.275-.655 1.54-2.49 1.29-1.3.773-.108 1.35-2.931.383-.536.352-.123-.09-.723-.74-.457-.025-.898.974-1.095 1.182-1.847.583-.125.366.514 1.15.834.706.952.51.478.333-.099.274-.714.33-.336.732.189.437.46.34.06.307.278.073.61-.633.664-1.079 1.754-1.065 1.983-.35 1.04-.344 2.716-.832 1.726-.063 1.205.334.566.918-.444 1.132-1.608.282-1.716 2.83-4.693 1.326-2.62 1.51-2.184.843-.454.398 1.45-.32 1.884-.641 1.197.472.547-.09 1.414-.147.783-.094.818.006.72.443-.192 1.766-1.477.448-1.605.415-1.209.2-1.047.686-.996 1.297-.007.05-.392-1.567-1.388-.185-.627.527-.836 1.45-1.603.746.178.446.364 1.786.278 1.37 1.145-.053 1.784-.305.742-.3.457-1.754 1.343-.29.66.55.227 1.186-.667.307.606-.378 1.51-.064 2.257-.136 1.31v1.189l.147.637.476-2.532.163-.651.696-.96.26-1.943.681-2.346.768-1.37.446-.377 1.48.054.636.517.56 1.146.419.457 1.32.485.452.607.085.36.323.072.89-.862.578-.143.943 1.343-.19.992.056.314 1.142-.064.95.388 1.807 2.018.187.939-.09 1.134-2.597 1.247-1.126 1.187-1.843.456-6.257-.792.126.856 4.357 1.867.249.53-.14 1.117-.002.892.082.608.32.565.534.266 1.083-.14.535.303.366-.45.136-1.518.315-.337.608.442.264 1.621.17.168.307-1.156.602.084.655-.097.849.195.297 2.092-.009.727-.14.703-.197.36-.393.156-.948-.064-1.289-.822-.831-.776-.26-.032-.11.094.2.78-.053.595-.126.648-.174.587-.244.492-.51.632-.881.501-2.43.972-.192.429-.782 2.688-.214.393-.286.333-.835.43-.404-.594-.324-.9.075-.896.976-1.725.912-1.227.258-.426.516-1.24-1.048-3.13-1.866-.952-2.124-1.454-.78-.777-1.212-1.608-.86-1.45-.776-.05-.854.364-1.332 1.323-.778.664-.427.195-.103.03-.954-.377-1.06-.079-.853.108-.322.181-1.187 2.127-.831 1.07-.458.367-.333.616-.273 1.012-.609 3.488-.454 1.308-.101.796.107 2.402-.109 1.323-.555 1.089-.39.489-.517.1-.676.277-.59.628-.417.852-.47 1.905-.795.7-.76-.2-.542-.7-1.163-.543-.866-.346-.973-.749-.856-.571-.784-.114-.445.723-.358.676-1.337.549-.757.433-.982.097-.397-.48-1.425-.318-1.696-.377-.491.005-.153-.862-.451-1.207-1.207-2.096-.493-.743-.928-1.75-1.082-1.802-.153-.045-.724-.06-1.063.058-.672.411-.425.515-.073.427.41 1.634-.127.407-.212.195-.965-.457-1.166.03-.292.497zM26.873 150.72l-.484.144-.389-.122.139-1.088.203-.179.294-.063.316.583-.08.725zm.695 8.733l.018 1.317-.504-.1-.226-.504-.066-.322.04-.764-.113-.789.148-.392.183-.054.326.703.194.905zM163.509 34.164l-1.038.466-.12-.383.228-.598.272-1.224.428.05.431.468.34.557-.54.664zM65.186 94.862l-.362.41-.675-.118-.072-.352.193-.707.41-.294.53.058.168.296-.192.707zM46.07 120.055l-.627.029-.377-.278.898-.555 1.408-.529.134-.336.17-.041.244.413.03.566-.154.28-1.726.45zm-2.012 4.064l-.536.008-.636-.19-.399-.4-.062-.355.735-.442.738-.258.343.485.026.798-.209.354zm83.837-106.606l-.107.525-.185.51-.448.537-1.295 2.121-.761.341-.242.331-.304.198-.946-.289-.277.428-.261.285-.685.11-.402-.092-1.038-.782-.618-.848-.334-.728.959.014.342-.176.643.154.387-.748.818.09 1.571-.52.576.29 1.318-1.746.413.046.631-.5.245.449zM139.624 12l1.46.65.5-.013.725 1.214.379-.108-.072.74-.732.35-1.14.212-.17.147-.973-.118-.547-.994-.913-.246.001-.32.592-.754.89-.76zm-10.774 9.948l.102.772.039.636-.51.917-1.175 1.2.068.322-.407.307-.61.226-.322-.22.045-1.026-.097-.308-.463.407-.482-.522v-.527l.127-.457.445-.697.743-.48.49.18 1.633-1.852.176.388.198.734zm2.199-.3l-1.04.66-.605-.568-.254-.583-.037-1.298.141-.792.488-.41.318.3.085.25.57.246.666.816-.332 1.38zM75.598 57.734l.325.253.85-.073.17.094-.121.42-.369.46-.774.281-.348.702-.25.237-.668.003-.394.162-.485.622-.388-.459-.109.325-.07.581-.216.17-.67.21-.164-1.352.309-.492.242-.59.37-.09.332.05.597-1.273.819-.362.526-.04.486.16zm-4.926 5.766l-.807.772.294-1.41.436-1.434.604-.823.3.323-.138.688.003.678-.13.321-.562.885zm12.219-15.995l.71 1.54.325.896-.263 1.687-.69.848-1.067.15-.748-.07-.471-.408-.059-.457-.272-.135-.718.588-.5.08-.634-.457-.17-.73.673-.918.312-.715.747.063.187.223.422.139.257-.863-.06-.597.189-.416.902.3.002-1.629.35-.115.144.063.259.344.173.59zm24.927-20.102l.278.19.275-.117.228.168.458.854.493.336.023.43-.451.417-.594.125-.637-.145-.186-.535-.196-.888-.532-.874-.08-.766.464-.121.457.926zm5.53 2.059l-.295.375-.452.153-.243-.232-.346-.153-.385.07-.324-.689.036-.579.443-.786.886-.448.717.184.183.23-.22 1.875zm-8.33.377l.484.878.429-.084.13-.332.292-.163.592.464-.085.788-.82.99-.587 1.41-.753.327-.362-.17-.673.81-.539.841-.559 1.06-.034.545-.087.416-2.047.413-.744.273-.789-.353-.373-.698.12-.38.787-.152.025-.65.199-.396.254-.217.188-.833.311-.218.58.205.391-.604.221-.103.272.5.13-.689-.13-.63.068-.426.75-1.11.325-.81.467-.524.45.083.13-.772-.13-.793.05-.518.397-1.26.437-.054.2 1.12.032 1.816zm-36.872 61.33l-.438.04.004-.552.251-.502.398-.335.511-.09.573-.038.173.266-.329.376-1.143.836zm-.49-1.91l-.506.09.084-.598.41-.57.157-.39.082-.458.36-.348.511.444.01.755-.253.687-.855.389zM61.16 104.86l-.287.36-.636-.29-1.257.225-.507-.353.403-.686 1.134-.721.61.033.62.887-.08.545zm34.28-67.514l.657.902.296-.276.582-.102.432.316.353.572.42.026.262.745.134.968-.304.721-.432.326-.117.847.164 1.183-.968.405-1.123.18-.439-.564-.897 1.034-.89 1.605-.428.188-.03-.507-.64-.35-.817-.02.027-.377.148-.266.706-.395.141-.816-.128-1.461.125-.711.026-.493.445-.577 1.518.271.185-.55-.116-.348-.784-.609.12-.41.567-.368.536-.047.16-.623.028-.27.081-.15zm-9.525 15.96l.066.105.744-1.453.826-.454.05-.508.32-.492-.036-.804.163-.656.42-.174.263-.222.292-.122.526.53.298.59.37 1.312-.154 1.265-.99.982-.788.443-.795 1.123-.4.917-.343.197-.217-.074-.193-.221-.403-.001-.444.793-1.339.644-.525-.186-.024-.79-.314.066-.501.946-.491.315-.33.097-.606-.356-1.629 1.606-1.527.3-.503-.186-.001-.981.987-1.26.809-.878 2.785-.615 1.734-2.623.42-2.873.41-1.043-.193-.59-.467-.105-.028-.91.243-.997.91-1.374.506-.587.823-1.667.397-.376h.452l.446.438-.08.893-.668 1.606-.989 1.363.12.975.395.8.096 1.363.024 1.308-.75 1.758-.167.842z"/>
    </defs>
    <g fill="none" fill-rule="evenodd" transform="translate(-26 -12)">
        <use fill="#00B3F0" fill-opacity=".4" xlink:href="#prefix__a"/>
    </g>
</svg>
