<svg xmlns="http://www.w3.org/2000/svg" xmlns:xlink="http://www.w3.org/1999/xlink" width="115" height="172" viewBox="0 0 115 172">
    <defs>
        <path id="prefix__a" d="M102.548 115.827l.966.362.637 2.028 1.964 3.486 2.136.61 5.903 1.34 1.207.703 3.323 3.06 1.992 1.497 1.268 1.194 1.933 2.335 1.117 1.696 1.867 1.28 2.21.862.79.134-.043 1.23-.377 2.083-.738 2.685-.775 2.076-.186.8.588.666 2.898.314 1.23.356.241.55-.643.714-.926.593-.414.561-.736 2.004-4.822-.255-.64.408-.304.93-.24 1.073-.633 1.27-1.282 1.105-2.002.407-1.64.75-1.222 2.313-.91 3.093.023 2.189.12 1.218-.106.697-.618.76-1.01 2.006-.823 2.215-.315 1.2.159.56.925.016 1.335.454.71.882.264 1.018.003 1.094-.25.602-1.07.436-1.675.016-.978-.521-.202-.413.467-1.054-.338-1.318-.694-.737-1.41 1.1-1.355-.001-1.624.979-1.06 1.568-1.019.577-2.752-.32-.683.69-.568 3.182-.328.62-2.298-.136-2.216 1.26L94.397 184l-1.268-.709-.707-.8-1.362.143-1.486.351-.999-.192-1.12.086-2.164.615-2.721-.199-1.16-.524-.11-.503.084-1.236-.026-1.924-.432-1.7-1.302-1.506-1.368-1.054-1.745-1.088-1.291-.477-.706-.126-.16-.627-.256-.543-.604-.478-1.29-.642-1.095-.14-.896 1.036-.653-1.296-.693-2.325.072-1.863.393-1.86 1.894-5.512-.102-.882-1.374-1.548-1.7-1.126-.937-2.385-3.443-.138-3.25.131-1.02-.116-3.093-1-2.98-1.613-1.995-.947-1.678-1.06-.9-1.115-1.43.3-.963.01.009-.193-.55-1.972.574-3.029-1.04-4.446-1.702-5.372-.127-5.782-.12-1.305 4.185-3.276 5.282-3.519 1.2-.318 4.868-2.089.65-.166 4.384.387 3.444.497 2.904-.062 1.595-.534 1.445.447 1.164 1.573 1.198-.184 1.185-1.018 6.496.93 1.466-.022 1.65.15 3.048.947 1.753.864 3.852-.523 1.648-.03.863-.34 2.658-2.371 1.149-.408 1.056-.427zm-58.254 22.078l.013 1.307-.18 2.172-1.106 3.697-1.133 1.923-.888-.208 1.75-3.1.667-2.016.464-2.872.413-.903zm62.398-72.55l.993.907.828 1.029.458.012.222-.383-.062-.661.216-.471.89.262 3.578 2.796 1.376.653.94.183 1.128 1.305 3.054.875.374.675.234.84 2.858 3.526 1.285 1.766 2.54 1.617 1.09.385 4.445-1.649 1.24-.574 1.024-.01 1.043.869 2.38 1.155 2.158.367.393-.075 1.823.117.64.453.427 2.234 2.075 1.754 1.921 1.454.491.67.15 1.294-.124 1.507-.243.78-.802.898-.702 2.27-.097 2.157-1.11 3.718.251.068 2.328-.67.66.384.509.82.163 2.325.763 1.044.777 1.63.246 1.266 1.48 1.506.12.973.904 3.435.347 1.972.16 1.523-.444 1.932-.393 1.305-.466-.079-1.328.344-2.101 1.57-3.128 3.69-.804.817-.817 2.8-.197.284-1.82-.13-.496-.066-1.826.056-3.972-.727-1.54.48-2.02 2.826-.784.414-2.347.39-.413.33-.784-.133-2.195-.853-1.855-1.27-1.11-1.68-1.919-2.315-1.259-1.183-1.978-1.485-3.3-3.032-1.199-.697-5.863-1.328-2.12-.605-1.952-3.455-.632-2.01-.96-.359-1.049.423-1.14.405-2.64 2.35-.857.338-1.637.03-3.826.517-1.74-.856-3.027-.94-1.64-.148-1.456.022-6.45-.921-1.178 1.009-1.19.182-1.156-1.56-1.435-.442-1.584.53-2.884.06-3.42-.492-4.355-.384-.645.165-4.834 2.07-1.193.316-5.245 3.488-4.156 3.247-.483-5.2.256-10.472.617-5.23 2.88-3.059 1.446-2.388.84-3.196.254-2.965.583-2.457 4.172-7.08 3.307-.768 4.475-1.974 5.001-1.65.966 2.097.49 1.598 6.023 5.799 1.533 1.94 2.33 6.625 5.578 3.343 4.387-1.053 1.906-1.624 3.512-2.998 1.57-2.2.318-2.127-.623-9.135-.95-3.984.325-2.49.618.128 1.492-1.202 4.905-2.236.98-.1 1.118-.459 3.09-1.704zM115.704 12l.497.16.892.955-.12.236.199.405.134.767.221.34.304.165.174-.039.122-.027.273-.278.24-.467-.12-.217.231-.747.346.232.363.593.285.336.331-.084.033-.206-.07-.275.027-.281.202-.312.189-.098.214.054.56.298.615.599.063.127.032.178.022.233.15.052 3.057-.052.312.098.66.433.996.235.905.543.65.186.356.016.268-.1.548-.447.233-.1.672.06.627.193.602.334.594.492.676.734.745.807.79.292.675.426.326.129 2.888.253 2.568-.155 2.167-.155 2.492.624 2.489.155 2.527.615.67-.218.626-.429.48-.592.58-1.096.316.592.726.38.346.368.38.937.153.286.19.226.417.356.18.218-.075.593-.393-.25-.711.584-1.313.109-.513.258 1.173.463.383-.014-.328.444-1.89-.037-.902.504-.35.461.137.552-.279.675-.503 2.354-.94 2.622-.277.661-.692 1.291-.178.7-.282.458-.024.039-1.441 1.28-2.062 1.838-.51 1.75-.577 1.977 1.427 6.779.906 4.264-.982 2.31-.182 1.55.202 1.436.722 1.509.642 1.393.82 1.139.1.88-.105.793.024.872.308.123.298.245.099.73-.077.387-.117.332-.062.347.09.424.132.168 1.638.666.266.296.137.596-.202.406-.378.268-1.014.416-2.335.353-.303.046-.21.128.128.067.345.31-.448.225-.223.179-.16.263-.075.506.179.846-.019.38-.28.305-1.338.468-.263.263-.11.174-.08.238-.043.291.015.15.037.12.042.396.037.097.03.107-.034.618-.045.128-.117.144-.199.099-.22.015-.2.07-.138.255.008.376.114.497.152.472.129.313-.534.342-2.495-.912-1.299-.081-.385-.186-.326-.382-.594-.91-.38-.3-.56-.19-.28-.007-.284.064-.25-.047-.181-.212-.2-.152-.298.138-.253.38-.165.442-.194.414-.333.295-.285.084-1.256-.067-.541.175-.528.312-.478.42-.104.194-.057.219-.077.183-.165.075-.155-.052-.3-.216-.153-.04-.22.128-.22.197-.25.043-.3-.337-.541-.77-.27-.262-.003-.001-1.284-.55-.205-.089-.67-.477-.55-.648-1.531-2.491-.538-.62-1.787-1.488-.14-.37-.049-.62.049-.276.092-.178.056-.18-.053-.287-.12-.147-.19-.095-3.399-.3-.406-.39-.207-.601-.15-.612-.245-.42-.247-.008-.18.062-.87.299-.404.034-.381-.058-.358-.218-.34-.446-.088-.24-.013-.2-.005-.031-.025-.165-.139-.226-.157-.11-.571-.125-.638-.406-.98-1.182-.648-.35-.164.01-.105.055-.1.024-.147-.09-.102-.176-.193-.548-.11-.208-.289-.237-.294-.052-.207.201-.019.524.453.819.11.482-.32.422-.519.266h-.254l-.237-.199-.197-.651-.149-.745-.222-.622-.42-.281-.757.02-.381.113-.353.224-1.196 1.22-.413.285-1.242.181-.391.25-.338.31-.172.158-.421-.07-.421-.27-.505-.129-.237.313-.298.834-.252.2-.983.109-1.135-.104-.324.07-.849.777-.642.338-.202.234-.266.716-.18.304-.378.211-.461.024-.704-.287.17-.273.125-.287.057-.342.04-.36.056-.339.764-1.885.278-1.192.78-.945.285-.534v-1.466l.118-.665.024-.371-.087-.32-.125-.28-.076-.327-.004-.34.205-.65.01-.334-.009-.334.054-.338.332-.45.486-.316.437-.402.192-.702-.152-.652-.359-.516-1.369-1.084-.663-.28-.668-.06-.564.28-.179.25-.184.362-.142.4-.057.362-.023.475-.064.274-.5.884-.204.283-.234.186-.292.083-.592-.165h-.294l-.276.27-.292.693-.149.126-.284-.111-.171-.189-.49-.833-.746-.678-.434-.546-1.074-.454-.649-.057-.308-.136-.084-.095-.179-.263-.079-.078-.146-.019-.099.086-.09.106-.115.054-.146-.07-.158-.13-.158-.058-.146.144-.097.179-.104.133-.115.03-.122-.124-.1-.253-.09-.35-.064-.368-.027-.299-.076-.454-.184-.238-.216-.177-.175-.276-.096-.4.001-.314.095-.75.016-.907-.087-.751-.245-.37-.467.24-.203-.022-.31-.21-.306-.273-.175-.218-.117-.428-.018-.352-.063-.178-.244.1-.217.296-.129.329-.136.151-.24-.241-.056-.299.103-.33.147-.333.077-.305-.094-.573-.185-.761-.127-.81.074-.714.142-.27.134-.04.341.12.119-.066.055-.145-.007-.144-.262-.264-.043-.41.092-.35.212-.008.62.303.603-.107.601-.232.616-.07.317.129.624.414.268.09h.497l.047-.099.02-.218-.03-.217-.093-.098-.254-.145-.062-.326.096-.357.227-.228.27.023.63.35.31.05-.435-.512-.513-.362-.51-.032-.429.483-.293-.39-.33-.034-.689.213-1.183-.082-.372.082-.324.196-.164.152-.12.171-.099.028-.513-.143-.313.055-.907.385.6-1.108.31-.275.535-.094.118-.22-1.01-1.373-.139-.584-.529-.796-.005-.62.35-.477 1.074.076.353-.468.279.182.287.021.284-.106.521-.438.132-.153.046-.204.006-.38-.105-.744-.26-.54-.356-.376-.383-.25.202.406.479.475.202.41-.137.087-.297.032-.117.075-.332.424-.022.108.002.185-.09.345-.157.031-.1-.139-.083-.192-.103-.106-1.04-.262-.428-.355-.428-.677.11.019.23-.028.111.009-.114-.561.092-.39.734-.857.169-.145.17.089.275.378.018-1.611-.537-1.535-.247-1.188.885-.572.18.023.34.14.192.032.143-.066.231-.293.367-.191.198-.26.229-.23.33-.027.86.833.05.008.193.031.19-.281.011-.336-.112-.296-.2-.172.182-.397.355-.185 1.432-.032.703.185.755-.057.842-.324.824-.074.68.689.315-.727-.13-.567-1.033-1.415-.142-.302.046-.341.204-.332.216-.202.24-.071.283.06.454.334.91.966.468.2.454-.234-.138-.537-.422-.58-.391-.364.32-.204 1.429-.105.564-.22.187-.374.192-1.034.069-.215 1.064-.259.37.044.318.239.584.676.324.144.298-.138.253-.27.255-.194.307.092.933.665.287.078.29-.132-.064-.292-.262-.288-.3-.129v-.236l.425.044.169-.09.068-.286.057-.345.14-.124.184.03.181.127.292.478.206.546.26.358.457-.091.187-.148.094-.13.376-.792.04-.167-.144-.485-.106-.185-.144-.13-.127-.163-.055-.287-.003-.298-.016-.224-.036-.21-.066-.248.499-.333.617.508 1.092 1.354.408.11 1.258-.325.382.1.668.447.335.1.301-.166-.138-.817.229-.331.379.011.786.52 3.454.998h.028l-.115-.734.217-.403.394-.16 1.505.003.17-.098-.006-.223-.116-.224-.169-.1-.463-.581-.245-1.275-.055-1.278.103-.58.284.24.532 1.054.297.24.345.143.275.344.49.808.359.273.52.182.472-.101.204-.58-.125-.536-.246-.36-.174-.403.095-.656-.103-.027-.146-.124-.075-.043.388-.488zm-50.27 32.371l.176.166.3.72.179.165.102.065.172.288.118.065.163-.065.283-.29.103-.063.33.1.268.18.276.097.349-.149.527-.673.334-.25.564.293.86-.21.36.087.355.223.737.259.753.54.88.406.328.467.233.634.125.187.238.228.65.342.678.171.395.146.539.364.48.481.24.494-.133.43-1.025-.722-.384.292.204.056.185.09.155.171.107.29-.695-.103-.31-.183-.316-.321-.062-.146-.064-.217-.103-.198-.16-.086-.249-.001-.028.062-.094.167-.032.112-.086.445-.058.175-.123.202-.11.117-.24.204-.11-.017-.15-.06-.134.059-.06.34.009.186.02.197.03.184.041.153-.37.29-.343.427-.331.252-.717-.563-.366.019-.118.257.354.38-1.077 1.475-.253.136-.259.082-.273.181-.47.596-.22.175-.365.062-.736-.074-.35.107-.179.382.75.472-.54.513-.87.119-.23-.706-.244-.168-.298-.077-.303.02-.263.13-.246.255-.097.13-.075-.064-.18-.32-.228-.19-.143.202-.138.516-.115.098-.053.07-.048.042-.112.014-.006-.105-.086-.456-.009-.097-.228-.012-.282.127-.263.208-.172.223-.173.156-.188-.073-.186-.113-.17.03-.119.1-.307.175-.124.028-.49.31-.457.417-.21.313-.118.1-.048.152-.03 1.13-.073.667-.137.66-.445 1.244-.133.28-.18.243-.16.268-.025.293.074.677-.21.306-2.283 2.074-.508.018-.432-.637.07-.35-.06-.332-.16-.25-.225-.097-.044-.05-.023-.118-.007-.142.019-.122.425.039.126-.04.113-.208.174-.637.096-.278.606-.94.278-.639.154-.278.17-.116.233.071.207.137.193.085.197-.086.088-.202.094-.633.097-.296.612-.94-.365-.393-.62-.263-1.123-.193-.31-.326-.583-1.438-.372-.329-1.047-.012-.522-.171-.462-.423-.266-.526-.122-.357-.008-.26.2-.145.847.248-.187-.462-.275-.477-.101-.369.342-.148.288.206.258.394.262.246.303-.24-.137-.532.211-.32.363-.1.334.118-.145-.35-.196-.657-.711-1.386-.347-.45-.376-.656-.217-.278-.456-.441-.436-.585.849.391.264.007.24-.098.035-.108.008-.161.154-.258.615.025.467.154.406.407.7 1.304.091.312.035.419.025.18.069.096.089.038.097.01.147-.12.003-.264-.09-.452.092-.804.079-.35.16-.33.213-.204.518-.275.209-.244.183-.427.072-.227.11-.091.296-.016.043.067.056.159.05.183.022.143.022.366.064.18.234.176.481.086.157-.614.017-.844.07-.607.543-.475 2.275-.25 1.407-1.127.53-.152zm9.636-1.492l.358.016 1.478.44.684.418.22.26.088.3-.016.308-.036.297.026.264.132.275.3.372.124.2.253.506.051.256-.332.244-.135.273-.154.196-.249-.094-.261-.187-.28-.098-.574-.053-.227.078-.486.286-.18-.026-1.456-1.38-.838-.33-.39-.403.057-.657.206-.163.5.175.242-.128.043-.168.111-.647.07-.228.326-.44.345-.162zM65.716 30.2l.691.077.01.002.414.065.482.18.284.3-.364.89.158.505.309.418.261.204 1.623-.11 1.566.767.25.41.05.321-.082.483.032.279.144.295.34.283.13.178.103.19.228.262.114.175.047.143.016.161-.008.353.052.205.109.061.113.004.058.03.023.63-.113.325-.234.038-.666-.469-.17-.072-.17-.028-.116.108-.041.198-.078.104-.21-.18-.268.137-.276.003-.258.087-.2.393.153.005.104.081.063.17.02.272-.024.39-.075.077-.126.003-.172.177-.295.177-.464.018-.43-.157-.189-.347.178-.325.353-.255.254-.258-.122-.326-.276-.023-.399.187-.394.287-.267.27-.347.757-.552 1.798-.42.66-.708.38-.896.108-.872-.24-.624-.672.147-.107.142-.151.263-.395-.224-.33-.294-.571-.254-.627-.11-.505v-.75l-.046-.44-.159-.345-.773-.928-.442-.305-.48-.142-.537.045-1.048.272-.515-.048-2.14-1.179-.288-.322.175-.515.626-.104 1.195.176 4.762-.64-.316-.213-.023-.217.202-.079.358.208.189-.019-.014-1.102.27-.286.365-.024.283-.117.24-.26.22-.45.057-.279v-.263l.03-.26.143-.268.17-.079zm9.26 1.343l.61.059 1.13.383.71-.217.358-.01.319.34.413.7.066.369-.145.513-.169.164-.193-.064-.192-.144-.166-.067-.172.069-.49.357-.33.007-.552-.348-.338-.085-.095.067-.04.148-.069.144-.59.151-.176-.02-.242-.166-.466-1.375-.085-.187.077-.383.201-.236.272-.121.354-.048z"/>
    </defs>
    <g fill="none" fill-rule="evenodd" transform="translate(-41 -12)">
        <use fill="#00B3F0" fill-opacity=".4" xlink:href="#prefix__a"/>
    </g>
</svg>
