<svg xmlns="http://www.w3.org/2000/svg" xmlns:xlink="http://www.w3.org/1999/xlink" width="156" height="58" viewBox="0 0 156 58">
    <defs>
        <filter id="prefix__a" width="128%" height="141.1%" x="-14%" y="-20.5%" filterUnits="objectBoundingBox">
            <feOffset dy="2" in="SourceAlpha" result="shadowOffsetOuter1"/>
            <feGaussianBlur in="shadowOffsetOuter1" result="shadowBlurOuter1" stdDeviation="5"/>
            <feColorMatrix in="shadowBlurOuter1" result="shadowMatrixOuter1" values="0 0 0 0 0.532196417 0 0 0 0 0.606674105 0 0 0 0 0.74498981 0 0 0 0.7 0"/>
            <feMerge>
                <feMergeNode in="shadowMatrixOuter1"/>
                <feMergeNode in="SourceGraphic"/>
            </feMerge>
        </filter>
        <path id="prefix__b" d="M0.001 0.001L23.834 0.001 23.834 23.69 0.001 23.69z"/>
    </defs>
    <g fill="none" fill-rule="evenodd" filter="url(#prefix__a)" transform="translate(-4 1)">
        <g>
            <g transform="translate(21 16)">
                <mask id="prefix__c" fill="#fff">
                    <use xlink:href="#prefix__b"/>
                </mask>
                <path fill="#1877F2" d="M23.834 11.917C23.834 5.336 18.5 0 11.917 0 5.336 0 0 5.336 0 11.917c0 5.948 4.358 10.879 10.055 11.773v-8.328H7.03v-3.445h3.026V9.292c0-2.987 1.78-4.637 4.501-4.637 1.304 0 2.668.233 2.668.233V7.82h-1.503c-1.48 0-1.942.918-1.942 1.86v2.236h3.305l-.528 3.445H13.78v8.328c5.698-.894 10.055-5.825 10.055-11.773" mask="url(#prefix__c)"/>
                <path fill="#FFF" d="M16.556 15.362l.528-3.445H13.78V9.682c0-.943.462-1.861 1.942-1.861h1.503V4.888s-1.364-.233-2.668-.233c-2.722 0-4.5 1.65-4.5 4.637v2.625H7.028v3.445h3.026v8.328c.607.095 1.229.144 1.862.144.634 0 1.256-.05 1.862-.144v-8.328h2.777"/>
            </g>
            <g fill="#64747F">
                <path d="M7.171.348v1.248c0 .081-.054.135-.135.135h-5.36v2.551H6.1c.081 0 .135.054.135.136v1.248c0 .082-.054.136-.135.136H1.676v3.772c0 .081-.054.135-.135.135H.198c-.082 0-.136-.054-.136-.135V.348c0-.082.054-.136.136-.136h6.838c.081 0 .135.054.135.136M15.264 5.693c-.495-1.37-1.044-2.74-1.607-3.989h-.32c-.562 1.249-1.119 2.619-1.614 3.99h3.541zm2.843 4.016h-1.48c-.08 0-.135-.04-.155-.122-.197-.78-.434-1.6-.706-2.429h-4.538c-.271.828-.509 1.649-.699 2.43-.02.08-.074.121-.156.121H8.95c-.095 0-.15-.054-.123-.149.855-3.026 2.158-6.363 3.474-9.172.06-.129.136-.176.264-.176h1.927c.129 0 .203.047.265.176 1.33 2.802 2.611 6.146 3.473 9.172.027.095-.027.15-.122.15zM20.535 5.042c0-2.944 1.94-5.007 4.708-5.007h.204c1.736 0 3.08.882 3.792 2.158.047.081.034.149-.048.19l-1.194.59c-.081.04-.183.04-.237-.061-.502-.869-1.255-1.33-2.368-1.33h-.203c-1.744 0-2.944 1.384-2.944 3.392 0 2.015 1.18 3.365 2.944 3.365h.203c1.14 0 1.805-.387 2.314-.977.068-.075.142-.088.224-.047l1.227.597c.048.027.068.06.068.095 0 .033-.013.06-.04.101-.753 1.1-2.11 1.778-3.765 1.778h-.204c-2.815 0-4.68-1.934-4.68-4.844M40.045 8.325v1.249c0 .081-.054.135-.135.135h-7.124c-.08 0-.135-.054-.135-.135V.348c0-.082.054-.136.135-.136h7.001c.082 0 .136.054.136.136v1.248c0 .081-.054.135-.136.135h-5.522v2.47h4.491c.082 0 .136.054.136.135v1.235c0 .081-.054.136-.136.136h-4.49V8.19h5.644c.08 0 .135.054.135.135M50.655 6.962c0-.882-.583-1.282-1.866-1.282h-3.195v2.55h3.195c1.303 0 1.866-.38 1.866-1.268zm-2.32-5.271h-2.74v2.55h2.74c1.228 0 1.79-.4 1.79-1.275 0-.875-.562-1.275-1.79-1.275zm3.975 5.413c0 1.662-1.275 2.605-3.527 2.605h-4.668c-.081 0-.135-.054-.135-.135V.348c0-.082.054-.136.135-.136h4.254c2.19 0 3.385.868 3.385 2.456 0 1.044-.53 1.73-1.601 2.048 1.506.32 2.157 1.221 2.157 2.388zM60.24 8.339c1.947 0 3.175-1.337 3.175-3.378 0-2.042-1.228-3.379-3.175-3.379h-.204c-1.946 0-3.174 1.337-3.174 3.379 0 2.041 1.228 3.378 3.174 3.378h.204zM55.152 4.96c0-2.863 1.9-4.926 4.884-4.926h.204c2.985 0 4.884 2.063 4.884 4.926 0 2.862-1.9 4.925-4.884 4.925h-.204c-2.984 0-4.884-2.063-4.884-4.925zM72.966 8.339c1.948 0 3.175-1.337 3.175-3.378 0-2.042-1.227-3.379-3.175-3.379h-.203c-1.947 0-3.175 1.337-3.175 3.379 0 2.041 1.228 3.378 3.175 3.378h.203zM67.878 4.96c0-2.863 1.9-4.926 4.885-4.926h.203c2.986 0 4.885 2.063 4.885 4.926 0 2.862-1.9 4.925-4.885 4.925h-.203c-2.985 0-4.885-2.063-4.885-4.925zM89.553 9.71h-1.75c-.116 0-.163-.028-.238-.116-1.228-1.445-2.68-2.883-3.914-3.942h-.787v3.922c0 .081-.055.135-.136.135h-1.344c-.08 0-.135-.054-.135-.135V.348c0-.082.054-.136.135-.136h1.344c.081 0 .136.054.136.136v3.744h.8c1.323-1.194 2.544-2.483 3.542-3.778.067-.089.121-.102.203-.102h1.655c.082 0 .123.04.123.095 0 .027-.015.06-.048.102-1.458 1.797-2.904 3.27-4.24 4.409 1.682 1.425 3.277 3.012 4.728 4.722.075.088.035.17-.074.17" transform="translate(21 16) translate(31.78 7.448)"/>
            </g>
        </g>
    </g>
</svg>
