<svg xmlns="http://www.w3.org/2000/svg" width="66" height="72" viewBox="0 0 66 72">
    <g fill="none" fill-rule="evenodd">
        <circle cx="32" cy="40" r="32" fill="#AFD2FF"/>
        <g fill="#061058">
            <path d="M38.64 19.841c-.562-.4-1.343-.267-1.742.296l-.024.034c-.4.563-.267 1.344.296 1.743.22.156.472.23.722.23.391 0 .777-.182 1.02-.526l.025-.034c.4-.563.267-1.343-.296-1.743zM35.793 23.384c-.438-.534-1.225-.612-1.76-.174-1.736 1.424-3.71 2.438-5.864 3.014-.668.178-1.064.863-.886 1.53.15.56.655.928 1.207.928.107 0 .215-.014.323-.043 2.503-.668 4.792-1.844 6.806-3.496.534-.438.612-1.226.174-1.76z" transform="translate(2)"/>
            <path d="M60.25 28.309c-2.068 0-3.75 1.682-3.75 3.75v.625c0 5.242-3.817 9.607-8.817 10.468.653-.964 1.035-2.125 1.035-3.373v-.869c0-3.322-2.703-6.025-6.026-6.025-3.322 0-6.025 2.703-6.025 6.025v.869c0 1.217.364 2.35.987 3.298-4.804-1.018-8.42-5.29-8.42-10.393v-.625c0-2.068-1.682-3.75-3.75-3.75s-3.75 1.682-3.75 3.75v.625c0 2.537.516 4.99 1.512 7.257H14.741V27.353c0-.558-.37-1.049-.906-1.202C7.16 24.242 2.5 18.064 2.5 11.125V10.5c0-.69.56-1.25 1.25-1.25S5 9.81 5 10.5v.625c0 7.237 5.888 13.125 13.125 13.125h6.016c7.237 0 13.125-5.888 13.125-13.125V10.5c0-.69.56-1.25 1.25-1.25s1.25.56 1.25 1.25v.625c0 1.921-.346 3.798-1.029 5.578-.247.645.075 1.368.72 1.615.644.247 1.367-.075 1.614-.72.793-2.066 1.195-4.244 1.195-6.473V10.5c0-2.068-1.682-3.75-3.75-3.75s-3.75 1.682-3.75 3.75v.625c0 5.242-3.817 9.607-8.817 10.468.653-.963 1.035-2.124 1.035-3.373v-.868c0-3.323-2.703-6.026-6.026-6.026-3.322 0-6.025 2.703-6.025 6.026v.868c0 1.217.364 2.35.986 3.298C11.116 20.5 7.5 16.228 7.5 11.125V10.5c0-2.068-1.682-3.75-3.75-3.75S0 8.432 0 10.5v.625c0 4.013 1.29 7.819 3.731 11.004 2.168 2.83 5.164 4.984 8.51 6.14V41.19c0 .69.56 1.25 1.25 1.25h.228V62.75c0 .69.56 1.25 1.25 1.25s1.25-.56 1.25-1.25V42.441h8.37c.274.425.565.841.876 1.247.083.108.17.213.254.319V62.75c0 .69.56 1.25 1.25 1.25s1.25-.56 1.25-1.25V46.561c1.703 1.428 3.661 2.543 5.756 3.267V62.75c0 .69.56 1.25 1.25 1.25s1.25-.56 1.25-1.25V48.911c0-.558-.37-1.048-.906-1.201-6.674-1.909-11.335-8.088-11.335-15.026v-.625c0-.69.56-1.25 1.25-1.25s1.25.56 1.25 1.25v.625c0 7.237 5.888 13.125 13.125 13.125h6.016C53.112 45.809 59 39.92 59 32.684v-.625c0-.69.56-1.25 1.25-1.25s1.25.56 1.25 1.25v.625c0 7.067-4.769 13.275-11.597 15.099-.547.146-.928.641-.928 1.207v9.052c0 .69.56 1.25 1.25 1.25s1.25-.56 1.25-1.25v-8.118C58.897 47.513 64 40.557 64 32.684v-.625c0-2.068-1.682-3.75-3.75-3.75zM17.433 17.352c0-1.944 1.581-3.526 3.525-3.526s3.526 1.582 3.526 3.526v.868c0 1.944-1.582 3.526-3.526 3.526-1.944 0-3.525-1.582-3.525-3.526v-.868zm28.785 22.427c0 1.944-1.581 3.525-3.526 3.525-1.944 0-3.525-1.581-3.525-3.525v-.869c0-1.944 1.581-3.525 3.526-3.525 1.944 0 3.525 1.581 3.525 3.525v.869zM51.109 61.866c-.233-.232-.555-.366-.884-.366-.329 0-.651.134-.884.366-.232.233-.366.555-.366.884 0 .329.134.651.366.884.233.232.555.366.884.366.329 0 .651-.134.884-.366.232-.233.366-.555.366-.884 0-.329-.134-.651-.366-.884z" transform="translate(2)"/>
            <path d="M20.958 46.75c-.69 0-1.25.56-1.25 1.25v14.75c0 .69.56 1.25 1.25 1.25s1.25-.56 1.25-1.25V48c0-.69-.56-1.25-1.25-1.25zM58.25 10.25c-.69 0-1.25.56-1.25 1.25v1.554c0 .69.56 1.25 1.25 1.25s1.25-.56 1.25-1.25V11.5c0-.69-.56-1.25-1.25-1.25zM58.25 17.696c-.69 0-1.25.56-1.25 1.25V20.5c0 .69.56 1.25 1.25 1.25s1.25-.56 1.25-1.25v-1.554c0-.69-.56-1.25-1.25-1.25zM62.75 14.75h-1.554c-.69 0-1.25.56-1.25 1.25s.56 1.25 1.25 1.25h1.554c.69 0 1.25-.56 1.25-1.25s-.56-1.25-1.25-1.25zM55.304 14.75H53.75c-.69 0-1.25.56-1.25 1.25s.56 1.25 1.25 1.25h1.554c.69 0 1.25-.56 1.25-1.25s-.56-1.25-1.25-1.25zM27.484 0c-.69 0-1.25.56-1.25 1.25v1.554c0 .69.56 1.25 1.25 1.25s1.25-.56 1.25-1.25V1.25c0-.69-.56-1.25-1.25-1.25zM27.484 7.446c-.69 0-1.25.56-1.25 1.25v1.554c0 .69.56 1.25 1.25 1.25s1.25-.56 1.25-1.25V8.696c0-.69-.56-1.25-1.25-1.25zM31.984 4.5H30.43c-.69 0-1.25.56-1.25 1.25S29.74 7 30.43 7h1.554c.69 0 1.25-.56 1.25-1.25s-.56-1.25-1.25-1.25zM24.538 4.5h-1.554c-.69 0-1.25.56-1.25 1.25S22.294 7 22.984 7h1.554c.69 0 1.25-.56 1.25-1.25s-.56-1.25-1.25-1.25z" transform="translate(2)"/>
        </g>
    </g>
</svg>
