<svg xmlns="http://www.w3.org/2000/svg" width="50" height="26" viewBox="0 0 50 26">
    <g fill="none" transform="translate(1 1)">
        <rect width="48" height="24" fill="#FFF" stroke="#061058" stroke-opacity=".1" rx="3"/>
        <path fill="#1B1F72" d="M28.282 7c.769-.004 1.531.133 2.25.406l-.34 2.1-.226-.11c-.463-.196-1.056-.386-1.878-.372-.982 0-1.437.43-1.437.833-.005.455.532.753 1.41 1.201 1.447.692 2.116 1.53 2.107 2.633-.02 2.01-1.733 3.309-4.37 3.309-1.125-.012-2.21-.247-2.796-.517l.35-2.168.324.155c.825.362 1.359.508 2.364.508.72 0 1.495-.297 1.502-.947.004-.424-.325-.727-1.303-1.201-.95-.464-2.213-1.241-2.197-2.633C24.056 8.314 25.802 7 28.282 7zm8.687.178L39 16.86h-2.33s-.23-1.113-.305-1.451l-3.213-.006c-.097.263-.528 1.457-.528 1.457h-2.636l3.727-8.88c.264-.63.713-.802 1.314-.802h1.94zm-13.97-.01l-1.57 9.688h-2.508l1.568-9.688h2.51zm-10.92.001c.545.022.987.205 1.138.818l.88 4.451.263 1.344 2.456-6.606h2.659l-3.952 9.67-2.655.002-2.23-8.414C9.865 7.984 8.984 7.622 8 7.371l.034-.202zm23.127 2.62c-.127.363-.348.95-.333.924 0 0-.792 2.152-1 2.709h2.083l-.58-2.797z"/>
    </g>
</svg>
