<svg xmlns="http://www.w3.org/2000/svg" width="66" height="72" viewBox="0 0 66 72">
    <g fill="none" fill-rule="evenodd">
        <circle cx="32" cy="40" r="32" fill="#AFD2FF"/>
        <g fill="#061058">
            <path d="M53.75 5H33.125V1.25c0-.69-.56-1.25-1.25-1.25h-6.25c-.69 0-1.25.56-1.25 1.25V5H17.5c-.69 0-1.25.56-1.25 1.25s.56 1.25 1.25 1.25h36.25c.69 0 1.25.561 1.25 1.25v35c0 .69-.56 1.25-1.25 1.25h-50c-.69 0-1.25-.56-1.25-1.25v-35c0-.689.56-1.25 1.25-1.25h2.5c.69 0 1.25-.56 1.25-1.25S6.94 5 6.25 5h-2.5C1.682 5 0 6.683 0 8.75v35c0 2.068 1.682 3.75 3.75 3.75h20.625v15.25c0 .69.56 1.25 1.25 1.25h6.25c.69 0 1.25-.56 1.25-1.25V47.5H53.75c2.068 0 3.75-1.682 3.75-3.75v-35C57.5 6.683 55.818 5 53.75 5zM26.875 2.5h3.75V5h-3.75V2.5zm3.75 59h-3.75v-14h3.75v14z" transform="translate(8)"/>
            <path d="M11.876 7.5c.69 0 1.25-.56 1.25-1.25S12.566 5 11.876 5h-.001c-.69 0-1.25.56-1.25 1.25s.56 1.25 1.25 1.25zM14.24 23.702c-1.593 1.588-2.106 3.658-1.483 5.987.764 2.855 3.046 5.387 4.338 6.642 1.883 1.828 4.007 3.252 5.411 3.627.106.028.214.043.323.043.108 0 .216-.015.322-.043 1.404-.375 3.528-1.799 5.411-3.627.49-.475 1.12-1.133 1.757-1.922.51.253.977.437 1.395.549.105.028.213.042.322.042.108 0 .217-.014.322-.042 1.756-.47 4.434-2.27 6.823-4.59 1.64-1.594 4.537-4.804 5.5-8.404.768-2.872.14-5.422-1.82-7.374-2.799-2.791-7.354-2.791-10.154 0-.44.44-1.009.332-1.342 0-2.8-2.791-7.356-2.79-10.155 0-2.001 1.995-2.595 4.587-1.778 7.505-1.826-.333-3.782.202-5.192 1.607zm8.589 13.73c-2.013-.818-6.673-4.712-7.657-8.39-.389-1.455-.117-2.623.833-3.57.653-.65 1.51-.976 2.369-.976.857 0 1.715.326 2.368.977 1.17 1.166 3.003 1.166 4.173 0 1.306-1.302 3.431-1.302 4.737 0 .95.946 1.222 2.114.833 3.57-.268 1.002-.81 2.02-1.496 2.986-.019.025-.036.05-.053.077-1.834 2.55-4.657 4.737-6.107 5.326zm.146-21.072c1.826-1.82 4.798-1.82 6.625 0 1.366 1.362 3.506 1.362 4.872 0 1.826-1.82 4.798-1.82 6.625 0 1.325 1.322 1.708 2.943 1.169 4.958-1.341 5.013-7.577 10.133-10.229 11.12-.085-.033-.177-.07-.27-.112.48-.824.886-1.713 1.133-2.637.623-2.329.11-4.4-1.483-5.987-2.279-2.272-5.987-2.272-8.267 0-.092.092-.186.132-.274.141-1.773-3.133-1.741-5.649.099-7.483z" transform="translate(8)"/>
        </g>
    </g>
</svg>
