<svg xmlns="http://www.w3.org/2000/svg" width="20" height="20" viewBox="0 0 20 20">
    <path fill="#061058" d="M10.104 0c3.21 0 5.827 2.495 5.827 5.592 0 1.845-.929 3.477-2.36 4.494C17.31 10.93 20 13.076 20 15.731c0 .063-.008.125-.023.183v2.712c0 .665-.265 1.295-.965 1.367l-.136.007H1.332c-.64 0-1.255-.634-1.325-1.257L0 18.626v-2.895c0-.07.01-.138.028-.202.134-2.594 2.85-4.675 6.564-5.476-1.405-1.018-2.315-2.635-2.315-4.461C4.277 2.495 6.894 0 10.104 0zm-.176 11.181l.084-.001c-4.753 0-8.507 2.148-8.507 4.551 0 .063-.008.124-.023.182v2.605h17.013V15.73c0-.053.006-.104.016-.154-.151-2.306-3.742-4.338-8.297-4.396l-.11.003c-.059 0-.117-.001-.176-.003zm.176-9.7c-2.408 0-4.345 1.849-4.345 4.11 0 2.263 1.937 4.111 4.345 4.111l-.156-.004h.064l.207.003c2.354-.058 4.23-1.883 4.23-4.11 0-2.261-1.937-4.11-4.345-4.11z"/>
</svg>
