<svg xmlns="http://www.w3.org/2000/svg" width="20" height="20" viewBox="0 0 20 20">
    <path fill="#061058" d="M8.565 0c4.723 0 8.566 3.84 8.566 8.564 0 1.98-.678 3.858-1.895 5.367l-.062.073 4.585 4.585c.265.264.31.668.14.98l-.064.1-.072.083c-.155.161-.368.248-.587.248-.18 0-.357-.061-.501-.172l-.083-.072-4.585-4.585-.073.062c-1.342 1.082-2.975 1.737-4.713 1.87l-.327.018-.329.006C3.844 17.127 0 13.284 0 8.564 0 3.84 3.84 0 8.565 0zm-.004 1.656c-3.809 0-6.91 3.098-6.91 6.908 0 3.81 3.102 6.912 6.91 6.912 3.81 0 6.91-3.103 6.91-6.912 0-3.809-3.1-6.908-6.91-6.908z"/>
</svg>
