<svg xmlns="http://www.w3.org/2000/svg" width="52" height="52" viewBox="0 0 52 52">
    <g fill="#061058">
        <path d="M50.42 9.175h-.96c-.027-1.52-1.271-2.747-2.797-2.747H44.34v-3.63C44.339 1.257 43.083 0 41.54 0H10.46C8.916 0 7.66 1.256 7.66 2.799v3.629H5.337c-1.526 0-2.77 1.228-2.797 2.747h-.96c-.871 0-1.58.709-1.58 1.58v8.136c0 .87.709 1.579 1.58 1.579h3.444c.871 0 1.58-.709 1.58-1.58v-8.135c0-.871-.709-1.58-1.58-1.58h-.956c.027-.677.585-1.221 1.269-1.221H7.66v30.752c0 .422.342.764.764.764.42 0 .763-.342.763-.764v-6.294c.381.196.814.307 1.272.307h31.08c.458 0 .89-.11 1.272-.307v12.322c0 .702-.57 1.272-1.272 1.272H10.46c-.702 0-1.272-.57-1.272-1.272v-2.5c0-.421-.342-.763-.763-.763-.422 0-.764.342-.764.763v2.5c0 1.543 1.255 2.798 2.799 2.798h.794v1.775c0 1.178.958 2.137 2.137 2.137h3.43c1.179 0 2.137-.96 2.137-2.137v-1.775h14.084v1.775c0 1.178.958 2.137 2.136 2.137h3.431c1.179 0 2.137-.96 2.137-2.137v-1.775h.794c1.544 0 2.799-1.255 2.799-2.798V7.954h2.324c.684 0 1.242.544 1.27 1.221h-.957c-.87 0-1.58.709-1.58 1.58v8.136c0 .87.71 1.579 1.58 1.579h3.445c.87 0 1.579-.709 1.579-1.58v-8.135c0-.871-.709-1.58-1.58-1.58zM5.025 10.701c.03 0 .053.024.053.054v8.136c0 .029-.024.053-.053.053H1.58c-.029 0-.053-.024-.053-.053v-8.136c0-.03.024-.054.053-.054h3.445zm11.798 39.216H13.39c-.337 0-.61-.274-.61-.61v-1.775h4.65v1.775c.001.336-.273.61-.61.61zm22.398-.61c0 .336-.274.61-.61.61h-3.432c-.336 0-.61-.274-.61-.61v-1.775h4.652v1.775zm3.592-40.191H11.991c-.422 0-.763.341-.763.763 0 .421.341.763.763.763h30.822v16.895H37.77c-.422 0-.764.342-.764.764 0 .421.342.763.764.763h5.042v.857c0 .701-.57 1.272-1.272 1.272H10.46c-.702 0-1.272-.57-1.272-1.272v-.857h25.02c.422 0 .764-.342.764-.763 0-.422-.342-.764-.763-.764h-7.507l7.2-6.019c.323-.27.366-.75.096-1.073-.27-.323-.75-.366-1.072-.096l-8.599 7.188H21.05l7.2-6.019c.323-.27.366-.75.096-1.073-.27-.323-.75-.366-1.073-.096l-8.599 7.189H9.188V6.673h33.624v2.443zm0-3.97H9.188V2.8c0-.702.57-1.272 1.272-1.272h31.08c.702 0 1.272.57 1.272 1.272v2.348zm7.662 13.745c0 .029-.024.053-.053.053h-3.445c-.03 0-.053-.024-.053-.053v-8.136c0-.03.024-.054.053-.054h3.445c.029 0 .053.024.053.054v8.136z"/>
        <path d="M18.851 40.759c.702 0 1.272-.571 1.272-1.273v-1.22c0-1.656-1.346-3.002-3.002-3.002h-4.68c-.702 0-1.273.57-1.273 1.272v1.22c0 1.656 1.347 3.003 3.002 3.003h4.681zm-6.156-3.002v-.967h4.426c.814 0 1.476.662 1.476 1.475v.967H14.17c-.813 0-1.475-.662-1.475-1.475zM37.83 40.759c1.655 0 3.002-1.347 3.002-3.002v-1.221c0-.702-.57-1.272-1.272-1.272h-4.681c-1.655 0-3.002 1.346-3.002 3.001v1.221c0 .702.57 1.273 1.272 1.273h4.68zm-4.427-2.494c0-.813.662-1.475 1.476-1.475h4.426v.967c0 .813-.662 1.475-1.475 1.475h-4.427v-.967zM29.369 44.863c.54 0 .978-.439.978-.978v-2.013c0-.54-.439-.978-.978-.978h-6.738c-.54 0-.978.439-.978.978v2.013c0 .54.439.978.978.978h6.738zm-6.19-2.442h5.641v.916h-5.64v-.916z"/>
    </g>
</svg>
