<svg xmlns="http://www.w3.org/2000/svg" width="127" height="36" viewBox="0 0 127 36">
    <g fill="none" fill-rule="evenodd">
        <path fill="#00B3F0" d="M2.062.521S.15.467.586 2.326l6.998 30.887s.437 1.859 2.35 1.804l114.093-3.826s1.914-.055 1.914-1.968V5.496s0-1.913-1.914-1.968L2.062.521z"/>
        <path fill="#FFF" fill-rule="nonzero" d="M124.042 3.007L2.075 0h-.059C1.6.008 1.156.101.764.353.124.764-.147 1.486.078 2.445L7.075 33.33c.069.293.232.694.533 1.099.533.713 1.313 1.14 2.341 1.11l114.096-3.826c.31-.009.741-.093 1.183-.327.763-.403 1.234-1.124 1.234-2.162V5.483c-.01-.377-.099-.826-.338-1.268-.393-.725-1.087-1.18-2.082-1.208zM2.028 1.043L124.015 4.05c.608.017.972.254 1.192.662.148.272.207.57.212.785v23.726c0 .635-.245 1.011-.679 1.24-.16.085-.336.143-.514.177-.104.02-.18.028-.214.03L9.917 34.495c-.665.02-1.133-.237-1.472-.692-.12-.16-.213-.332-.283-.505-.04-.1-.063-.173-.07-.205L1.094 2.21c-.128-.542-.026-.812.233-.98.197-.125.468-.182.7-.187z"/>
        <path fill="#F7F8F8" fill-rule="nonzero" d="M24.367 15.337h-9.458l.438-2.132h9.457l-.437 2.132zm-5.303 7.49h-2.077l1.366-6.452h2.078l-1.367 6.451zM25.734 22.826L23.601 22.826 25.679 13.15 27.811 13.15zM36.394 22.826h-2.078l1.586-7.27c0-.055 0-.11-.055-.165-.054-.054-.054-.054-.11-.054H34.59c-.164 0-.219.054-.274.218l-1.585 7.271H30.6l1.585-7.27v-.165c-.054-.054-.054-.054-.109-.054h-1.148c-.055 0-.11 0-.164.054-.055.055-.055.11-.11.164l-1.585 7.271h-2.077l1.64-7.49c.11-.6.437-1.093.93-1.53.491-.437 1.038-.601 1.64-.601h1.585c.218 0 .437.054.601.109.164.055.273.164.383.273.11-.109.273-.218.492-.273.218-.055.437-.11.656-.11h1.585c.602 0 1.039.22 1.367.602.328.437.437.93.273 1.53l-1.75 7.49zM46.945 22.826h-7.326c-.601 0-1.038-.218-1.366-.601-.328-.437-.438-.93-.274-1.53l1.148-5.358c.11-.602.438-1.094.93-1.531.492-.437 1.038-.601 1.64-.601h8.583l.765 2.132h-9.622c-.054 0-.109 0-.164.054-.054.055-.054.11-.109.164l-.273 1.367h7.325l-.437 2.132h-7.326l-.273 1.367v.164c.055.055.055.055.11.055h7.106l-.437 2.186z"/>
        <path fill="#F7F8F8" fill-rule="nonzero" d="M57.715 15.337h-9.458l.437-2.132h9.458l-.437 2.132zm-5.303 7.49h-2.078l1.367-6.452h2.077l-1.366 6.451z"/>
        <path fill="#F7F8F8" fill-rule="nonzero" d="M65.86 22.826h-2.077L64 19.273c0-.164-.054-.219-.164-.219h-4.81l-.82 3.772h-2.078l1.258-5.904h6.888c.054 0 .11 0 .164-.055.054-.054.054-.109.11-.164l.272-1.202c.055-.164 0-.219-.164-.219h-8.692l-.984-2.132h10.332c.547 0 1.04.219 1.313.601.328.438.437.93.273 1.531l-.328 1.585c-.055.22-.11.438-.219.602-.11.218-.218.328-.382.437.109.11.164.273.164.492V19l-.274 3.826zM77.45 22.826H69.85l1.476-2.132h3.335l-1.039-4.373c0-.11-.055-.11-.164-.11-.11 0-.164.055-.219.11l-4.373 6.505H66.57l5.904-8.801c.437-.656.984-.984 1.64-.984.656 0 1.093.328 1.257.984l2.078 8.801zM87.618 13.15l-5.959 8.802c-.218.328-.492.546-.765.71-.328.164-.656.219-.984.219-.383 0-.656-.055-.875-.219-.218-.164-.382-.382-.437-.71l-2.132-8.802h2.405l1.586 6.506c0 .109.054.109.164.109.109 0 .164-.055.218-.11l4.374-6.505h2.405zM95.108 22.826h-7.326c-.601 0-1.038-.218-1.366-.601-.329-.437-.438-.93-.274-1.53l1.148-5.358c.11-.602.438-1.094.93-1.531.492-.437 1.038-.601 1.64-.601h7.325l-.437 2.132H89.64c-.055 0-.11 0-.164.054-.055.055-.055.11-.11.164l-.273 1.367h7.326l-.438 2.132h-7.325l-.273 1.367v.164c.054.055.054.055.109.055H95.6l-.492 2.186zM104.565 22.826H98.28c-.602 0-1.04-.218-1.367-.601-.328-.437-.438-.93-.273-1.53l1.64-7.49h2.077l-1.585 7.27v.165c.054.054.054.054.109.054h6.068l-.383 2.132z"/>
        <path fill="#F7F8F8" fill-rule="nonzero" d="M114.023 20.64c-.11.6-.437 1.093-.93 1.476-.491.437-1.038.656-1.64.656h-8.965l-.765-2.132h9.95c.163 0 .218-.055.273-.22l.273-1.147v-.164c-.055-.055-.055-.055-.11-.055h-5.029c-.601 0-1.039-.218-1.367-.601-.328-.438-.437-.93-.273-1.53l.328-1.586c.11-.602.437-1.094.93-1.531.492-.437 1.038-.601 1.64-.601h7.325l-.437 2.132h-7.107c-.055 0-.11 0-.164.054-.055.055-.055.11-.11.164l-.273 1.203c0 .055 0 .11.055.164.055.055.055.055.11.055h5.029c.601 0 1.038.218 1.366.601.328.437.438.93.274 1.53l-.383 1.532z"/>
    </g>
</svg>
