<svg xmlns="http://www.w3.org/2000/svg" width="147" height="58" viewBox="0 0 147 58">
    <defs>
        <filter id="prefix__a" width="128%" height="141.1%" x="-14%" y="-20.5%" filterUnits="objectBoundingBox">
            <feOffset dy="2" in="SourceAlpha" result="shadowOffsetOuter1"/>
            <feGaussianBlur in="shadowOffsetOuter1" result="shadowBlurOuter1" stdDeviation="5"/>
            <feColorMatrix in="shadowBlurOuter1" result="shadowMatrixOuter1" values="0 0 0 0 0.532196417 0 0 0 0 0.606674105 0 0 0 0 0.74498981 0 0 0 0.7 0"/>
            <feMerge>
                <feMergeNode in="shadowMatrixOuter1"/>
                <feMergeNode in="SourceGraphic"/>
            </feMerge>
        </filter>
    </defs>
    <g fill="none" filter="url(#prefix__a)" transform="translate(-9 1)">
        <g transform="translate(26 16)">
            <path fill="#000" d="M112.11 16.026c-.35 0-.634.284-.634.634 0 .35.284.633.634.633.35 0 .633-.284.633-.633 0-.35-.284-.634-.633-.634zm0 1.167c-.295 0-.534-.24-.534-.533 0-.295.24-.534.534-.534.294 0 .534.24.534.534 0 .293-.24.533-.534.533zm.206-.642c0-.115-.082-.184-.203-.184h-.202v.578h.1v-.21h.108l.104.21h.107l-.115-.23c.062-.029.1-.085.1-.164zm-.206.095h-.098v-.191h.098c.066 0 .107.033.107.095 0 .063-.042.096-.107.096zM35.748 9.612V8.079h-2.35v9.12h2.35V11.73c0-.99.635-1.476 1.625-1.476h1.287V8.079H37.56c-.86 0-1.608.449-1.813 1.533zm5.113-5.14c-.804 0-1.42.635-1.42 1.44 0 .785.616 1.42 1.42 1.42.804 0 1.42-.635 1.42-1.42 0-.805-.616-1.44-1.42-1.44zm-1.172 12.726h2.344V8.08H39.69v9.12zm13.513-4.56c0 2.604-2.11 4.714-4.713 4.714-1.05 0-2.003-.344-2.767-.926v3.45h-2.345V8.078h2.345v.772c.764-.582 1.716-.926 2.767-.926 2.603 0 4.713 2.11 4.713 4.714zm-2.36 0c0-1.413-1.146-2.56-2.56-2.56-1.413 0-2.56 1.147-2.56 2.56 0 1.414 1.147 2.561 2.56 2.561 1.414 0 2.56-1.145 2.56-2.56zm43.113-.8l-1.368-.374c-.9-.235-1.25-.51-1.25-.986 0-.464.493-.788 1.197-.788.672 0 1.198.44 1.198 1.002v.052h2.161v-.052c0-1.655-1.349-2.767-3.359-2.767-1.99 0-3.435 1.11-3.435 2.642 0 1.191.79 2.089 2.167 2.462l1.31.357c.995.276 1.365.582 1.365 1.13 0 .577-.534.966-1.33.966-.83 0-1.388-.525-1.388-1.305v-.052h-2.294v.052c0 1.87 1.506 3.178 3.663 3.178 2.078 0 3.587-1.277 3.587-3.035 0-.863-.386-1.99-2.224-2.481zM61.52 8.08h2.345v9.12H61.52v-.773c-.764.582-1.716.926-2.767.926-2.603 0-4.713-2.11-4.713-4.713 0-2.604 2.11-4.714 4.713-4.714 1.05 0 2.003.344 2.767.926v-.772zm0 4.56c0-1.415-1.147-2.56-2.56-2.56-1.414 0-2.56 1.146-2.56 2.56 0 1.413 1.146 2.56 2.56 2.56 1.414 0 2.56-1.145 2.56-2.56zm10.811-7.805h2.345V17.2H72.33v-.771c-.764.581-1.716.926-2.767.926-2.603 0-4.713-2.11-4.713-4.714 0-2.603 2.11-4.714 4.713-4.714 1.05 0 2.003.345 2.767.926V4.834zm0 7.805c0-1.414-1.147-2.56-2.56-2.56-1.414 0-2.56 1.146-2.56 2.56 0 1.413 1.145 2.56 2.56 2.56 1.413 0 2.56-1.145 2.56-2.56zm13.231 4.56h2.345v-9.12h-2.345v9.12zm1.172-12.727c-.804 0-1.42.635-1.42 1.44 0 .785.616 1.42 1.42 1.42.804 0 1.42-.635 1.42-1.42 0-.805-.616-1.44-1.42-1.44zm19.58 8.167c0 2.603-2.11 4.713-4.714 4.713-2.603 0-4.714-2.11-4.714-4.713 0-2.604 2.11-4.714 4.714-4.714 2.603 0 4.713 2.11 4.713 4.714zm-2.154 0c0-1.414-1.147-2.56-2.56-2.56-1.414 0-2.56 1.146-2.56 2.56 0 1.413 1.145 2.56 2.56 2.56 1.413 0 2.56-1.145 2.56-2.56zM34.548 4.834h-8.995v2.092h3.33v10.272h2.337V6.926h3.329V4.834h-.001zm45.486 9.867l-2.086-6.622h-2.463l3.129 9.12h2.821l3.148-9.12H82.12l-2.086 6.622zm29.715-5.089V8.079h-2.35v9.12h2.35V11.73c0-.99.635-1.476 1.625-1.476h1.286V8.079h-1.098c-.86 0-1.607.449-1.813 1.533z"/>
            <circle cx="11.992" cy="11.992" r="11.992" fill="#34E0A1"/>
            <path fill="#000" d="M19.398 9.652l1.447-1.574h-3.209C16.03 6.98 14.09 6.34 11.992 6.34c-2.096 0-4.03.64-5.634 1.737H3.14l1.447 1.574c-.887.81-1.443 1.975-1.443 3.27 0 2.442 1.98 4.422 4.422 4.422 1.16 0 2.218-.447 3.007-1.179l1.418 1.544 1.417-1.543c.79.732 1.845 1.178 3.005 1.178 2.443 0 4.426-1.98 4.426-4.423.001-1.295-.555-2.46-1.442-3.269zm-11.83 6.263c-1.653 0-2.992-1.34-2.992-2.994 0-1.653 1.34-2.993 2.993-2.993 1.653 0 2.993 1.34 2.993 2.993 0 1.654-1.34 2.994-2.993 2.994zm4.425-3.08c0-1.97-1.432-3.661-3.323-4.383 1.022-.428 2.144-.665 3.322-.665 1.177 0 2.3.237 3.322.665-1.889.723-3.321 2.413-3.321 4.382zm4.423 3.08c-1.654 0-2.994-1.34-2.994-2.994 0-1.653 1.34-2.993 2.994-2.993 1.653 0 2.993 1.34 2.993 2.993 0 1.654-1.34 2.994-2.993 2.994zm0-4.564c-.867 0-1.57.702-1.57 1.569s.703 1.569 1.57 1.569c.867 0 1.569-.702 1.569-1.569 0-.866-.702-1.569-1.57-1.569zm-7.278 1.57c0 .867-.702 1.57-1.57 1.57-.866 0-1.568-.703-1.568-1.57 0-.867.702-1.569 1.569-1.569s1.569.702 1.569 1.57z"/>
        </g>
    </g>
</svg>
