<svg width="24" height="22" viewBox="0 0 24 22" fill="none" xmlns="http://www.w3.org/2000/svg">
<path d="M12 4.2168L11.3899 3.36335C10.978 2.78725 10.516 2.30086 10.0132 1.90752L10.0131 1.90749C9.02494 1.13435 7.91804 0.75 6.70441 0.75C5.06085 0.75 3.55758 1.41271 2.45812 2.61898L12 4.2168ZM12 4.2168L12.6101 3.36338M12 4.2168L12.6101 3.36338M12.6101 3.36338C13.0221 2.7871 13.484 2.30088 13.9866 1.90753L12.6101 3.36338ZM8.82869 18.3011L8.82873 18.3011L8.83165 18.3036C9.6562 19.0146 10.5944 19.8235 11.5691 20.6855L11.5696 20.686C11.6897 20.7924 11.8424 20.85 12 20.85C12.1576 20.85 12.3105 20.7923 12.4301 20.6863L12.4305 20.686C13.3979 19.8302 14.3299 19.0265 15.1503 18.3191L15.1718 18.3006L15.1719 18.3005C17.6062 16.202 19.6371 14.4482 21.0396 12.736L21.0397 12.736C22.5817 10.8538 23.25 9.13687 23.25 7.2962C23.25 5.46925 22.6313 3.81459 21.5418 2.61905L8.82869 18.3011ZM8.82869 18.3011C6.39401 16.2023 4.36313 14.4482 2.96054 12.7362C1.41841 10.8538 0.75 9.13682 0.75 7.29638C0.75 5.46926 1.36872 3.81459 2.45806 2.61905L8.82869 18.3011ZM17.2956 0.75C18.9391 0.75 20.4423 1.41271 21.5417 2.61902L13.9867 1.90745C14.9751 1.13432 16.082 0.75 17.2956 0.75Z" stroke="black" stroke-width="1.5"/>
</svg>
