<svg width="20" height="20" viewBox="0 0 20 20" fill="none" xmlns="http://www.w3.org/2000/svg">
<path fill-rule="evenodd" clip-rule="evenodd" d="M0 4.44444C0 1.98985 1.98985 0 4.44444 0H15.5556C18.0102 0 20 1.98985 20 4.44444V15.5556C20 18.0102 18.0102 20 15.5556 20H4.44444C1.98985 20 0 18.0102 0 15.5556V4.44444ZM10 14.4444C12.4546 14.4444 14.4444 12.4546 14.4444 10C14.4444 7.5454 12.4546 5.55556 10 5.55556C7.5454 5.55556 5.55556 7.5454 5.55556 10C5.55556 12.4546 7.5454 14.4444 10 14.4444ZM10 15.5556C13.0682 15.5556 15.5556 13.0682 15.5556 10C15.5556 6.93176 13.0682 4.44444 10 4.44444C6.93175 4.44444 4.44444 6.93176 4.44444 10C4.44444 13.0682 6.93175 15.5556 10 15.5556ZM16.1111 5C16.7248 5 17.2222 4.50253 17.2222 3.88889C17.2222 3.27525 16.7248 2.77778 16.1111 2.77778C15.4975 2.77778 15 3.27525 15 3.88889C15 4.50253 15.4975 5 16.1111 5Z" fill="black"/>
</svg>
