<svg width="27" height="24" viewBox="0 0 27 24" fill="none" xmlns="http://www.w3.org/2000/svg">
<path d="M8.69913 15.8205H8.70036C8.70139 15.8205 8.70242 15.8203 8.70345 15.8203H23.045C23.398 15.8203 23.7085 15.5861 23.8055 15.2466L26.9696 4.17241C27.0377 3.93366 26.99 3.67699 26.8406 3.47883C26.6911 3.28066 26.4573 3.16407 26.209 3.16407H6.87484L6.30939 0.619424C6.22885 0.257492 5.90791 0 5.53712 0H0.791017C0.354104 0 0 0.354104 0 0.791017C0 1.22793 0.354104 1.58203 0.791017 1.58203H4.90266C5.00277 2.03296 7.60859 13.7594 7.75856 14.434C6.9179 14.7994 6.32814 15.6376 6.32814 16.6114C6.32814 17.9198 7.39271 18.9844 8.70119 18.9844H23.045C23.4819 18.9844 23.836 18.6303 23.836 18.1934C23.836 17.7565 23.4819 17.4024 23.045 17.4024H8.70119C8.2651 17.4024 7.91017 17.0474 7.91017 16.6114C7.91017 16.1759 8.26386 15.8216 8.69913 15.8205ZM25.1603 4.7461L22.4482 14.2383H9.33565L7.22627 4.7461H25.1603Z" fill="black"/>
<path d="M7.91016 21.3574C7.91016 22.6659 8.97473 23.7305 10.2832 23.7305C11.5917 23.7305 12.6563 22.6659 12.6563 21.3574C12.6563 20.049 11.5917 18.9844 10.2832 18.9844C8.97473 18.9844 7.91016 20.049 7.91016 21.3574ZM10.2832 20.5664C10.7193 20.5664 11.0742 20.9213 11.0742 21.3574C11.0742 21.7935 10.7193 22.1484 10.2832 22.1484C9.84712 22.1484 9.49219 21.7935 9.49219 21.3574C9.49219 20.9213 9.84712 20.5664 10.2832 20.5664Z" fill="black"/>
<path d="M19.0898 21.3574C19.0898 22.6659 20.1544 23.7305 21.4629 23.7305C22.7714 23.7305 23.8359 22.6659 23.8359 21.3574C23.8359 20.049 22.7714 18.9844 21.4629 18.9844C20.1544 18.9844 19.0898 20.049 19.0898 21.3574ZM21.4629 20.5664C21.899 20.5664 22.2539 20.9213 22.2539 21.3574C22.2539 21.7935 21.899 22.1484 21.4629 22.1484C21.0268 22.1484 20.6719 21.7935 20.6719 21.3574C20.6719 20.9213 21.0268 20.5664 21.4629 20.5664Z" fill="black"/>
</svg>
