<svg width="188" height="246" fill="none" xmlns="http://www.w3.org/2000/svg"><path d="M80.155 147.832c-.778-.07-1.485-.21-2.334-.351-4.1-.561-8.202-1.123-12.374-1.474-1.626-.21-3.323.211-5.02.07-2.9-.21-5.87-.491-8.769-.702-2.192-.21-3.96.702-5.94 1.545-1.201.491-2.403 1.263-3.606 1.474-3.535.562-6.717 2.036-9.899 3.37-1.91.772-3.889 1.614-6.01 1.614-.425 0-.92-.07-1.556-.14 1.131-1.825 2.828-2.668 4.243-3.651 1.555-.982 3.11-1.965 4.384-2.667-1.627-.07-3.677-.141-5.728-.351-1.91-.211-3.889-.632-5.727-.913-.99-.14-2.051-.21-3.112-.421-.353-.07-.777-.351-1.06-.491.283-.281.424-.843.777-.913.99-.281 2.051-.632 3.041-.772 6.364-.702 12.728-.843 19.092.14 2.192.351 4.667 0 6.859-.07.424 0 .707-.14 1.131-.421-1.485-.211-2.97-.281-4.313-.632-2.192-.632-4.314-1.334-6.293-2.176-3.112-1.404-6.435-2.036-9.688-2.598l-2.758-.631c-.212-.071-.424-.422-.636-.632.212-.211.424-.562.636-.632.92-.211 1.98-.421 2.9-.351 6.576.21 13.081 1.193 19.233 3.65.212.071.495.211.707.281 3.89 2.598 8.273 3.019 12.728 3.229 1.768.071 3.465.211 5.374.281-.283-.421-.424-.842-.707-1.123-2.05-2.317-4.808-3.791-7.425-5.405-4.95-3.089-10.324-5.055-16.051-6.389-.92-.21-1.838-.561-2.616-.912-.283-.141-.495-.632-.425-.843.071-.21.495-.491.778-.491 7-.211 13.86.421 19.8 4.633 3.11 2.106 6.08 4.493 8.555 7.371 1.132 1.264 2.334 2.457 3.748 3.44.99.702 2.192 1.053 3.394 1.264 3.394.561 6.718 1.053 10.112 1.333 2.616.211 5.303.071 8.06 0 1.273 0 2.617-.07 3.96-.28-1.414-.281-2.828-.562-4.172-.773-6.576-1.053-12.091-4.141-17.324-7.932-1.485-1.053-2.757-2.317-3.96-3.651-.353-.351-.282-1.123-.424-1.685.566 0 1.061-.07 1.627.071a402.25 402.25 0 016.717 2.457 42.093 42.093 0 019.122 4.422c4.101 2.668 8.556 4.423 13.293 5.757.778.21 1.485.491 2.405.842-.99-1.404-1.839-2.527-2.546-3.65a10.495 10.495 0 01-1.131-2.387c-.071-.351.141-.842.283-1.264.424.141.848.141 1.202.351 2.545 1.966 4.737 4.142 6.081 7.161.141.281.495.632.778.632 1.131.14 2.262.28 3.464.491a253.575 253.575 0 01-2.192-4.282c-1.98-3.931-3.889-7.793-5.939-11.654-3.465-6.669-7.566-12.846-12.092-18.743-2.404-3.229-4.596-6.669-7-10.039-1.06-1.614-2.263-3.089-3.394-4.773 0 0-.071-.07-.142 0-1.909 1.474-3.96 1.263-6.152.772-4.454-.913-8.768 0-12.657 2.035-3.465 1.756-6.788 2.247-10.324.703-1.98-.843-4.1-1.124-6.222-.703-.849.14-1.839.14-2.687-.14-1.202-.35-1.344-1.053-.495-2.036.566-.561 1.273-.983 1.838-1.404 1.273-.842 2.617-1.614 3.819-2.386.636-.352 1.273-.843 1.909-1.053.778-.211.92-.632.778-1.475-1.344.07-2.758.07-4.102.281-3.606.491-7 .351-10.465-.842-1.414-.562-2.97-.843-4.384-.983-5.02-.492-9.333-2.527-13.647-4.844-2.263-1.264-4.667-2.106-7-3.16-.495-.21-.92-.35-1.415-.56-.848-.422-1.343-1.054-1.06-2.036.141-.843-.07-1.475-.637-2.036-.424-.421-.919-1.053-.919-1.615-.212-1.614-1.131-2.668-2.192-3.72a31.294 31.294 0 01-2.899-3.3c-.424-.702-.778-1.615-.566-2.387.425-2.527 0-4.633-1.626-6.669-1.556-2.106-1.273-4.633.566-6.037.565-.421 1.343-.632 2.05-.913.637-.21 1.415-.14 2.122-.421.424-.14.777-.632.777-1.053.213-1.474.99-2.246 2.546-2.246.566 0 1.131 0 2.05.07-.636-.632-1.06-1.053-1.555-1.404-2.97-2.527-2.828-7.02.354-9.197 1.485-1.052 2.12-2.246 1.909-4-.142-1.686.141-3.37 1.485-4.564.07-.07.141-.14.141-.28.92-2.879 3.182-3.862 5.94-3.932.283 0 .495-.07.778-.07.707 0 1.555.14 1.98-.14.353-.211.141-1.264.494-1.756.425-.702 1.061-1.614 1.627-1.614 4.242-.421 8.485-1.123 12.304 1.825.777.632 1.909.632 2.757 1.193 1.91 1.194 3.748 2.457 5.657 3.791.283.14.424.421.778.632.07.07.212.07.212.07v-8.424c0-2.948 1.131-5.195 3.394-7.02.637-.491 1.132-1.123 1.414-1.825.637-1.334 1.627-2.176 3.112-2.387 1.767-.21 2.899-.913 3.394-2.808.707-2.527 2.121-4.633 4.808-5.195C64.6.692 67.003.692 69.407.692c.566 0 1.343.632 1.838 1.263.99 1.124 2.051 1.755 3.536 1.826.636.07 1.273.14 1.98.28.919.211 1.626.632 2.121 1.545.636 1.193 1.556 2.106 2.97 2.527.778.21 1.414 1.123 2.192 1.895.495-.491 1.06-1.053 1.768-1.614 1.343-1.194 1.838-1.264 3.182-.07.848.702 1.485.912 2.475.35.636-.35 1.485-.49 2.333-.631.495-.07 1.06.07 1.485.35 2.545 1.686 4.95 3.37 6.293 6.249.071.21.212.35.354.491 2.545 1.825 3.606 4.704 4.596 7.511a75.49 75.49 0 011.909 5.125c.283.843.354 1.755.283 2.668.071 2.316 0 4.633 0 7.02 0 .842-.071 1.615.071 2.597.141-.28.353-.491.495-.772 1.06-1.755 1.909-3.58 3.111-5.195 1.626-2.176 2.616-4.703 3.818-7.16.637-1.334 1.344-2.598 2.122-3.931.212-.351.565-.702.919-.913.353-.21.848-.14 1.343-.21 0 .42.071.772 0 1.123-.212 1.614-.495 3.159-.636 4.843a20.577 20.577 0 01-1.344 6.108c-.707 1.965-1.131 4.212-1.484 6.248-.425 2.527-1.273 4.914-2.687 7.16-.637.913-1.061 1.896-1.556 2.808-2.616 5.546-6.364 10.11-11.455 13.62-.99.701-2.121 1.122-3.253 1.684l-4.667 2.527c-1.414.843-2.828 1.685-4.172 2.598.212.21.212.35.354.35 3.606.913 4.737 3.862 5.94 6.88.07.21 0 .702-.071.773-.212.07-.637.07-.92-.07-1.272-.843-2.474-1.756-3.818-2.528-.778-.491-1.768-.632-2.757-1.053-.566 4.353-3.96 5.055-7.072 6.318.495.21.99.421 1.415.702 1.98 1.264 3.252 3.23 4.525 5.195a13.83 13.83 0 011.414 2.668c.566 1.404.354 2.176-.919 3.018-.566.422-1.273.843-2.05 1.334.707.983 1.272 2.106 2.05 3.019 2.334 3.018 5.02 5.826 7.142 8.915 3.394 5.055 6.788 10.25 9.758 15.585 3.535 6.318 6.647 12.776 9.97 19.165.354.772.778 1.614 1.202 2.597 1.202-1.895 2.051-3.58 2.546-5.476.283-1.123.848-2.106 1.06-3.299.354-1.896.708-3.791.849-5.757.141-1.263.141-2.527.919-3.72.212-.351.071-1.194-.283-1.685-1.485-2.036-3.323-3.58-5.303-5.125-2.263-1.825-4.243-3.931-6.293-6.107-.495-.492-.707-1.123-1.061-1.755-.071-.211-.141-.702 0-.702.283-.141.637-.211.919-.07 4.102 2.106 8.556 3.72 11.597 7.581 0 0 .071.071.283 0 .141-1.263.424-2.527.495-3.861.212-3.44.919-6.809 2.05-10.038.849-2.668.495-5.265-.777-7.793-.849-1.825-1.203-4.001-1.697-6.037-.071-.351 0-.842-.213-1.053-1.272-1.825-2.545-3.79-3.959-5.476-1.768-2.035-3.536-4.071-4.597-6.528-.212-.492-.07-1.194-.07-1.755.636.07 1.414 0 1.909.35 1.202 1.054 2.192 2.317 3.323 3.44.99 1.124 2.051 2.177 3.253 3.51 0-.42.071-.631 0-.842-.707-2.808-.636-5.546-.636-8.354 0-.561-.142-1.123-.142-1.685 0-.28.142-.561.212-.772.283.14.637.21.778.351 1.768 2.738 3.111 5.616 2.899 9.056-.141 2.527 0 5.055.142 7.582 0 .561.141 1.123.141 1.685h.283c.141-.422.141-.843.283-1.264 1.202-5.265 2.121-10.67 3.818-15.725 1.414-4.352 3.041-8.635 5.94-12.355.778-1.053 1.343-2.177 1.98-3.23 1.202-1.755 3.111-2.106 5.02-2.457.849-.14 1.344.773.778 1.615-.707.983-1.414 1.966-2.333 2.878-4.526 4.774-6.789 10.53-8.344 16.849-1.132 4.492-2.475 8.775-3.607 13.267-.353 1.334-.212 2.879-.282 4.353.141 0 .282.14.424.14.353-.631.636-1.334.99-1.965.353-.632.495-1.755 1.555-1.545.92.21.849 1.264.849 1.966.071 2.036-.424 3.931-1.414 5.756-2.546 4.353-4.101 8.986-4.596 13.97-.213 2.738-.566 5.476-.849 8.284-.071.351 0 .702 0 1.123.071.07.212.07.283.141.566-1.124 1.131-2.106 1.697-3.23 2.97-6.177 5.94-12.355 8.839-18.603 1.131-2.387 3.111-3.79 5.515-4.773.283-.14.849 0 .919.21.142.28.142.702.071 1.053-.071.21-.141.421-.283.562-2.97 3.65-4.879 7.932-6.364 12.355-1.626 4.984-4.667 9.267-7.212 13.759a102.241 102.241 0 00-3.889 7.231c-.637 1.334-.849 2.948-1.344 4.423a549.667 549.667 0 01-3.889 11.583c-.424 1.263-.495 2.457.354 3.58 2.262 3.089 4.596 6.108 6.647 9.267 2.828 4.212 5.515 8.564 8.131 12.987 3.253 5.475 6.364 11.091 9.546 16.497.212.351.424.702.778.912 2.475 1.475 4.243 3.791 6.081 5.897 1.627 1.755 3.677 2.949 5.798 3.932.213.07.354.07.566.14 0 0 .142 0 .354-.211l-1.061-1.474c-1.98-3.089-4.031-6.107-5.728-9.337-.919-1.755-1.484-3.72-1.909-5.686-.353-1.474.071-2.316.99-2.527 1.132-.281 1.839.421 2.334 1.334 1.555 2.948 3.04 5.967 4.667 8.845.707 1.264 1.555 2.387 2.333 3.58.141.281.495.492.707.702l.283-.28c-.636-2.879-.212-5.968-1.839-8.705-1.414-2.247-2.616-4.563-4.454-6.529-.637-.632-.99-1.544-1.202-2.317-.142-.561.141-1.404.565-1.684.283-.281 1.132-.141 1.697 0 .637.21 1.132.701 1.697 1.123.354.21.708.561 1.061.772.071-.07.142-.14.354-.211-.707-1.404-1.202-3.018-2.122-4.352-2.192-3.3-4.525-6.459-6.859-9.758-.424-.562-.707-1.264-.848-1.966-.283-1.404.707-2.246 1.98-1.544 1.343.772 2.475 1.895 3.747 2.878.566.421.92 1.053 1.344 1.615.071-.07.212-.07.283-.141-.212-.491-.354-1.053-.495-1.474-.354-.912-.707-1.825.212-2.597.707-.562 1.838-.421 2.687.561 1.061 1.194 2.121 2.528 2.899 4.002 1.697 3.229 2.616 6.669 2.899 10.179.142 2.106.424 4.212.707 6.318.071.491.212 1.053.566 1.404 1.202 1.334 2.121 2.808 2.616 4.563 0 .14.142.281.212.351.071.07.071.07.213.07.919-.772 1.484-2.457 1.202-3.44-.212-.772-.495-1.614-.707-2.386-.566-2.387-.071-3.019 2.333-2.879a6.688 6.688 0 01-.283-1.263c-.071-.351-.283-.702-.212-.913.141-.842.354-1.614.636-2.457.637.211 1.556.281 1.98.702 4.526 4.493 7.637 9.688 6.647 16.427-.919 6.388-3.96 11.653-9.122 15.655-1.626 1.193-2.121 2.527-2.05 4.282.141 4.072.707 8.003 1.909 11.864.071.211.212.491.283.702.141 0 .283 0 .353.07.213-.632.495-1.334.637-2.036.707-3.51 2.545-6.458 4.172-9.617 1.202-2.317 2.545-4.493 3.394-6.88.707-1.825.848-3.791 1.202-5.686.283-1.264.424-2.527.636-3.721.142-.702.495-1.474 1.344-1.474.919-.07 1.131.702 1.343 1.474.637 2.879.707 5.757.071 8.635-.071.351-.071.632-.141.983.07.07.212.07.282.14.283-.421.566-.842.92-1.193.565-.702 1.131-1.545 2.333-1.194.778.211 1.132 1.264.778 2.598-.99 4.212-3.182 7.792-6.93 10.109-3.606 2.176-5.444 5.405-7.141 9.056-1.132 2.667-1.344 5.405-.92 8.213.425 2.808.707 5.616.849 8.424.071 1.474-.142 3.089-1.485 4.142-.919.772-1.839.702-2.687-.281-.566-.702-.919-1.614-1.485-2.316-3.111-4.774-6.364-9.548-9.475-14.321-.354-.492-.919-.913-1.485-1.194-3.324-1.614-7.001-1.193-10.536-1.334-.778-.07-1.556 0-2.192-.351-.495-.21-1.131-.842-1.202-1.333 0-.562.495-1.194.919-1.615.283-.281.778-.351 1.202-.351 1.839-.14 3.606-.211 5.445-.351.353-.07.707 0 1.061-.07.07-.07.07-.211.141-.281-.707-.562-1.273-1.404-2.051-1.755-1.272-.702-2.687-1.404-4.172-1.755-3.04-.632-5.586-2.176-7.919-4.212-2.404-2.106-4.879-4.002-7.283-6.108-.849-.702-1.627-1.614-2.263-2.527-.212-.351-.283-1.123 0-1.404.212-.351 1.061-.632 1.414-.421 1.909.913 3.748 2.036 5.516 3.089.636.351 1.202.912 1.909 1.334.07-.071.212-.211.283-.281l-1.273-1.685c-1.839-2.668-3.182-5.546-3.536-8.845-.07-.211-.07-.492-.07-.632.141-.421.282-1.123.565-1.264.283-.14 1.132 0 1.344.351 1.414 1.545 2.828 3.089 4.03 4.704 2.192 3.018 4.243 6.318 6.364 9.407.424.702 1.061 1.193 1.839 1.965.212-2.176-1.627-4.563 1.202-5.967-.142-.983-.707-1.544-1.627-2.036-1.343-.631-2.474-1.614-3.606-2.457-.424-.421-.707-1.123-.778-1.755-.283-1.404.495-2.035 1.91-1.614.212.07.494.07.919.21-.707-1.404-1.273-2.667-1.909-3.861-3.819-6.739-7.708-13.548-11.738-20.218-1.768-2.878-3.889-5.686-5.728-8.494-2.828-4.352-5.728-8.775-8.556-13.127-.212-.351-.707-.702-1.131-.702-2.97-.562-5.799-.983-8.698-1.615-5.869-1.193-11.808-.772-17.748-.772-.707 0-1.485-.07-2.192.07-.849.14-1.697.421-2.475.913-4.88 3.159-9.687 6.388-14.566 9.407-2.122 1.263-4.597 2.035-6.86 3.018-.282.141-.707-.14-1.06-.21.07-.351.07-.773.283-.983 1.909-1.755 3.889-3.58 5.94-5.195 3.535-2.808 7.283-5.265 11.384-7.09.353-.211.707-.281 1.131-.422-.141.141-.07.071-.141 0zM55.123 52.64a.757.757 0 01-.353.21l-2.122-2.526c-2.05-2.177-4.242-4.212-6.293-6.389-3.111-3.229-6.222-6.458-9.404-9.758-2.687-2.808-5.657-5.475-9.405-6.669-2.687-.842-5.232-2.246-8.132-1.614-1.131.28-2.545.421-3.323 1.053-1.06 1.053-1.91 2.457-2.546 3.931-.424.842-.424 1.966-.282 2.948.07 1.896-.495 3.44-2.263 4.353-.283.14-.495.35-.707.561-2.122 1.826-2.122 5.055-.071 6.81.424.421.849.842 1.202 1.334.424.561.849.702 1.556.421 1.414-.702 2.899-.913 4.384-.421 2.545.842 5.02 1.755 7.495 2.667 3.677 1.404 7.283 3.019 10.324 5.616 2.545 2.106 5.091 4.212 7.566 6.248 4.596 3.861 9.687 6.81 15.556 8.284.354.07.707.421 1.06.632-.706.842-1.413.561-2.12.421-2.051-.632-4.102-1.264-6.01-2.036-4.526-1.965-8.203-5.195-11.95-8.213-2.83-2.247-5.516-4.914-8.628-6.6-4.1-2.246-8.626-3.79-13.081-5.545-1.131-.421-2.546-.421-3.677-.14-1.626.491-3.182 1.193-5.02 1.053-.637-.07-1.203.21-1.203 1.053-.141 1.404-.495 1.895-1.909 2.176-.636.21-1.273.14-1.98.28-2.05.211-3.182 1.756-2.616 3.721.141.702.566 1.404.99 1.966 1.414 1.685 2.05 3.72 1.626 5.827-.282 1.544.071 2.597.849 3.93.636 1.054 1.556 1.545 2.545 2.247 3.041 2.317 6.435 4.142 10.041 5.195 6.435 1.895 12.87 3.65 19.375 5.476 1.06.35 2.05.632 3.111.983-.07.21-.07.35-.141.561-10.536-2.176-21.072-4.212-30.688-9.688.212 1.194.353 2.177 1.272 3.09.495.49.778 1.474.778 2.175-.07.913.283 1.264.99 1.545 2.97 1.263 6.081 2.527 9.051 3.931 3.606 1.755 7.213 3.37 11.314 3.931 2.263.281 4.455 1.053 6.717 1.475 1.627.35 3.324.631 5.02.772 2.334.07 4.81 0 7.142-.21.92-.071 1.91-.492 2.9-.913.565-.281 1.131-.843 1.697-1.124 1.555-.842 3.111-1.544 4.667-2.246 1.555-.842 2.97-1.966 3.889-3.58-.778-.07-1.415-.14-2.192-.21.141-.422.212-.492.282-.563 1.556-.14 2.688-1.403 4.385-1.263.919.07 2.05-.632 3.04-1.053 1.06-.351 1.273-.14 1.273.983-.141 2.246-.283 4.493-.495 6.669l-.212.632c-.142 0-.212-.07-.354-.07-.919-2.458.354-4.985.212-7.652-2.333 1.333-3.182 3.72-4.596 5.545-.07-.07-.283-.14-.353-.21.636-1.194 1.131-2.387 1.767-3.58-.707.28-1.272.701-1.697 1.263-1.697 2.387-3.889 4.002-6.576 4.984-2.05.773-3.818 1.966-5.303 3.44-.283.281-.424.562-.849.983h1.273c2.192.21 3.89-.35 5.657-1.825 2.192-2.036 5.162-2.317 8.061-1.404 1.414.421 2.758.491 4.101 0 1.061-.351 2.122-.702 3.182-.772 2.05-.211 4.102-.14 5.304 2.035.141.281.636.351.919.492 0-.562 0-.843-.142-1.123l-3.818-5.897c-.424-.562-.849-.983-1.768-.772-.353.07-1.131-.14-1.343-.492-.637-1.053-.99-2.246-1.556-3.51 1.485.07 1.697.983 1.98 1.825.141.421.495.772.707 1.123.354-.35.778-.631.92-1.052.919-2.598 1.838-5.195-.142-7.582.212-.351.566-.702.566-.983-.425-2.808.282-5.476 1.414-7.862-.283-.422-.495-.632-.636-.913.353-.21.848-.421 1.414-.702 0-.28-.213-.772-.213-1.194.213-2.597.637-5.124.778-7.651.071-2.177-.07-4.423-.282-6.74-.849-8.845-.637-17.76.424-26.536.353-2.878.707-5.756 2.263-8.283.777-1.194.353-2.317-.99-2.668-1.698-.421-2.546-1.544-3.536-2.808-.283-.421-.778-.772-1.273-.983-.495-.21-1.202-.21-1.838-.28-1.839-.14-3.182-.913-4.314-2.317-.353-.491-1.13-.842-1.697-.842-1.697 0-3.323.07-4.95.28-1.98.281-3.323 1.475-4.171 3.3a11.78 11.78 0 00-.849 1.965c-.353 1.475-1.414 2.247-2.758 2.598-.565.14-1.272.14-1.767.491-.637.351-1.202.772-1.627 1.334-.636.772-1.202 1.755-1.909 2.457-1.98 1.685-3.04 3.72-2.97 6.459.071 1.474-.07 3.018-.141 4.492-.212 1.896.07 3.721.99 5.476 1.273 2.527 3.182 4.563 5.232 6.599 3.89 3.86 7.284 8.073 8.98 13.408 1.274 3.931 2.688 7.722 4.031 11.583.142.281.07.492.142.843-.142 0-.283.14-.425.14-.353-.632-.777-1.193-1.06-1.895-1.132-3.23-2.334-6.389-3.324-9.618-1.485-4.703-4.242-8.705-7.778-12.074a81.494 81.494 0 01-6.788-7.16c-1.273-1.545-2.758-3.02-4.313-4.423-2.688-2.528-6.435-3.16-9.405-5.265l-.07-.07c-2.758-.913-5.587-.773-8.345-.562-.919.07-1.485.631-1.414 1.685l-.212 1.474c1.626.491 3.182.912 4.738 1.474 4.1 1.404 7.142 4.423 10.111 7.371l13.294 13.619c1.838 1.123 3.04 2.738 3.818 4.633zm85.56 2.668c-1.98.14-3.535.842-4.384 2.667-.424.983-1.061 1.896-1.697 2.808-2.758 3.862-4.313 8.354-5.798 12.777-.919 2.878-1.202 5.967-2.051 8.916-.99 3.65-2.121 7.3-2.263 11.091 0 .14-.212.351-.424.702-.141-.28-.283-.42-.353-.491-.354-2.598-.849-5.195-1.061-7.792-.212-3.019-.141-6.038-.354-9.056-.07-1.334-.636-2.457-1.555-3.51-.142.42-.212.912-.142 1.263.354 3.16.707 6.318.99 9.407.071.351-.141.702-.283.983-.212-.21-.565-.421-.707-.702-.565-.842-.99-1.825-1.626-2.597-1.626-1.896-3.323-3.721-5.02-5.546-.283-.281-.708-.421-.99-.702l-.283.28c.565.983 1.06 1.896 1.697 2.809 2.121 2.948 4.95 5.335 6.576 8.634.353.632.566 1.404.707 2.106.566 1.825.778 3.861 1.626 5.546.849 1.825 1.627 3.72 1.344 5.686-.283 1.966-.99 3.932-1.344 5.827-.636 4.142-1.131 8.284-1.767 12.426-.071.351-.354.772-.495 1.053-.283-.141-.707-.281-.849-.562-.778-2.036-2.263-3.37-4.03-4.563-2.051-1.334-4.314-2.457-6.435-3.721l-.283.281c.142.14.212.351.354.491 1.767 1.755 3.464 3.44 5.374 5.055 1.626 1.474 3.747 2.457 5.02 4.423.283.421.637.772 1.061 1.053.778.772 1.202 2.176.636 2.878-.778 1.053-.778 2.176-.919 3.44-.212 2.035-.495 4.001-.919 5.967-.283 1.263-.778 2.597-1.344 3.861a46.556 46.556 0 01-2.475 4.984c-.212.351-.707.421-1.202.632-.141-.281-.283-.562-.353-.913-.071-.21-.212-.491-.283-.702-1.202-2.036-2.475-4.142-3.606-6.248-3.324-5.967-6.435-12.144-9.9-17.971-3.818-6.459-7.707-12.847-12.657-18.603-1.414-1.685-2.616-3.58-3.89-5.406-1.555.702-1.625.913-.636 2.176.495.632.99 1.124 1.415 1.826 2.616 3.72 5.232 7.441 7.92 11.091 2.12 2.949 4.454 5.827 6.363 8.846 3.677 5.756 7.071 11.653 9.829 18.041 1.414 3.23 3.182 6.248 4.808 9.407.071.211.212.632.142.702-.142.141-.495.211-.778.211-1.273-.141-2.616-.351-4.031-.492-1.06-.07-1.485-.631-1.98-1.404-.494-.912-.848-1.825-1.484-2.597-1.132-1.264-2.334-2.457-3.607-3.721-.141.141-.353.211-.495.351.354.351.566.702.849 1.124.919 1.193 1.768 2.457 2.616 3.72.495.772.354 1.334-.566 1.404-.424 0-.919-.07-1.343-.21-.849-.281-1.768-.632-2.687-.843-3.818-.983-7.425-2.316-10.819-4.422-3.606-2.177-7.283-4.283-11.384-5.546-1.626-.492-3.324-1.053-4.95-1.545 0 0 0 .141.07.211l.354.351c6.294 5.125 13.153 8.845 21.284 10.319 2.758.492 5.374 1.545 8.061 2.387-.283.702-.919.632-1.485.632-2.687-.14-5.374-.281-8.131-.351-2.758-.07-5.587.211-8.344 0-3.111-.281-6.223-.983-9.334-1.264-2.546-.28-4.738-1.333-6.647-3.088-1.98-1.966-3.96-3.932-5.94-5.757-4.737-4.563-10.394-7.09-16.9-7.792-1.414-.141-2.757-.07-4.242-.141 0 .141 0 .281-.07.351 1.13.281 2.262.562 3.323.773 5.586 1.474 10.748 4.071 15.485 7.371 1.91 1.334 3.607 2.878 5.304 4.422.353.351.636 1.194.424 1.685-.212.772-1.06.632-1.697.562-1.414-.141-2.9-.211-4.455-.351-1.768-.211-3.535-.141-5.303-.492-1.98-.421-4.03-1.053-6.01-1.755-1.132-.421-2.122-1.263-3.253-1.684-5.516-2.106-11.385-2.879-17.254-3.23-.424 0-.778.071-1.202.071v.28c.495.07 1.131.141 1.556.281 2.97.843 6.01 1.615 8.91 2.527 2.262.702 4.454 1.615 6.717 2.177 1.909.491 3.96.421 5.94.702.495.07.848.28 1.343.351 0 .14 0 .28-.07.351-.284.14-.637.351-.99.421-3.112.983-6.223 1.685-9.405 1.334-5.445-.632-10.89-1.124-16.476-.632-1.414.14-2.97.281-4.667.421.354.211.495.351.495.351.778.211 1.556.421 2.404.562 4.95.842 9.97.912 14.92.631.354-.07.708 0 1.061.071.142 0 .424.28.424.421-.07.21-.212.491-.424.561-.212.071-.495.071-.707.141-2.475.772-4.95 1.263-7.354 2.246-1.697.702-3.182 1.896-4.879 2.878.07.071.07.211.141.281h.566c1.273-.421 2.475-.912 3.748-1.334 3.394-1.263 6.647-3.088 10.324-3.51 1.202-.21 2.333-.912 3.464-1.333 1.697-.562 3.394-1.404 5.02-1.475 3.183-.07 6.294.351 9.405.492 2.051.07 4.102-.141 6.082 0 5.232.561 10.465 1.263 15.768 1.895.849.141 1.626.211 2.475.351 0 .141.07.211.07.351-7.848 2.598-14.495 7.231-20.505 12.777.353.07.707 0 .99-.141 2.828-1.544 5.798-2.948 8.555-4.703 3.536-2.247 7-4.704 10.536-6.95.849-.562 1.98-.842 3.04-.913 1.627-.21 3.254-.14 4.88-.21 7.424-.492 14.708.561 21.92 1.825 1.202.211 2.475.351 3.253 1.544 2.828 4.212 5.727 8.354 8.556 12.566 2.05 3.019 4.172 5.967 6.081 9.126 3.394 5.476 6.647 11.092 9.9 16.708.353.492.565.983.919 1.615.636-1.334.353-2.317-.283-3.51-2.97-5.055-5.869-10.179-8.839-15.234a723.014 723.014 0 00-7.566-12.425c-2.192-3.44-4.667-6.74-7.071-10.109-1.131-1.545-1.273-3.229-.354-4.984a33.43 33.43 0 001.485-4.002c.92-3.018 1.627-6.107 2.546-9.126 1.202-4.142 3.535-7.722 5.727-11.443 2.9-4.703 5.445-9.477 7.284-14.672.919-2.737 2.545-5.194 3.818-7.722.354-.632.849-1.263 1.273-1.825l-.212-.21c-.495.35-.99.701-1.627 1.052-2.05 1.334-2.616 3.721-3.606 5.687l-7.637 15.584c-.848 1.685-1.767 3.44-2.757 5.125-.071.07-.566.14-.707 0-.142-.14-.142-.562-.213-.772-.353-3.44.071-6.81.425-10.25.636-5.545 2.121-10.81 5.02-15.654.849-1.545 1.273-3.23 1.061-4.985-.212.211-.354.351-.424.562-.708 1.264-1.344 2.597-2.122 3.79-.141.282-.565.422-.778.633-.07-.351-.212-.632-.282-.983-.071-1.053.141-2.106.07-3.16-.212-2.035.142-3.93.637-5.826l3.394-12.636c1.555-5.756 3.747-11.021 7.849-15.514 1.485-.773 2.192-1.755 3.04-2.738zM91.327 15.153c.07.07.142 0 .212.07 0 .281 0 .562-.07.913-.354 1.193-.637 2.457-1.061 3.58-1.131 3.51-2.475 6.81-3.394 10.39-1.414 5.475-1.485 11.021-1.06 16.637.14 1.124.14 2.247.14 3.37.071.07.213.07.283.14.354-.35.778-.772.99-1.123.99-2.387 1.98-4.773 2.9-7.23.212-.492.353-1.053.495-1.615.14 0 .212.07.353.07-.212 2.878-1.202 5.546-2.333 8.354 1.131-.562 2.333-1.053 3.182-1.895.99-.983 1.909-2.177 2.687-3.37.777-1.053 1.767-1.615 3.04-1.896.566-.14 1.202-.631 1.485-1.193 1.909-3.86 3.041-7.933 3.323-12.145 0-.42.142-.842.142-1.263.141 0 .212.07.353.07.637 4.844-.848 9.407-2.828 13.9.99.28 1.98.42 1.626 1.755-.777 3.44-1.414 6.88-2.05 10.32 0 .14 0 .28.07.49.92-.631 1.698-1.263 2.546-1.825 1.485-1.053 2.263-2.527 2.687-4.212.212-.912.424-1.965.919-2.737 1.132-1.826 1.344-3.861 1.344-5.968.071-3.159.141-6.318.141-9.406 0-.422-.141-.843-.283-1.264l-2.121-5.897c-.919-2.316-1.838-4.633-4.03-6.248-.425-.28-.708-.702-.92-1.193-.848-2.106-2.687-3.23-4.384-4.633-1.555-1.264-2.899-.913-4.384-.14-.92.49-1.626.35-2.404-.141-1.838-1.123-1.838-1.123-3.465.491l-.566.562c-1.626 1.193-2.474 2.878-2.899 4.844-1.485 6.388-1.626 12.846-1.767 19.305-.071 3.86.353 7.652.495 11.583.141 3.79.636 7.511 0 11.232.212-.35.424-.702.495-1.053.424-2.106 1.414-3.79 3.181-5.125.354-.21.495-.772.495-1.193 0-1.685-.14-3.37-.282-5.054-.495-6.53.07-12.847 2.333-19.025 1.273-3.51 2.546-6.88 3.89-10.32.211-.49.424-.701.494-.912zm51.548 183.294c-.07.07-.141.141-.141.281.566 1.544 1.909 2.176 3.323 2.738 2.404.983 5.091 1.123 7.708 1.053 4.737-.07 9.192 3.229 10.253 7.792.636 2.457.778 4.984 1.414 7.441.707 3.23 1.626 6.389 2.475 9.618.212.772.353 1.614.424 2.387 0 .28-.141.561-.283.702-.141.14-.495-.071-.778-.211-3.606-2.878-7.141-5.686-10.606-8.705-2.192-1.895-4.243-4.071-5.303-6.809a80.47 80.47 0 00-2.758-6.108c-.212-.351-.424-.702-.778-1.053-.071.07-.212.07-.283.141.071.351-.071.772.071 1.053.283 1.123.707 2.246.99 3.369.141.422-.071.913-.142 1.404-.495-.07-1.06-.07-1.485-.351-2.616-2.176-4.949-4.633-6.717-7.511-1.556-2.527-3.253-5.055-4.879-7.512-.424-.561-.919-1.053-1.344-1.474-.07.07-.212.07-.353.211.071.351 0 .702.141 1.123.637 2.457 1.556 4.774 3.182 6.669 1.697 2.106 3.465 4.282 5.162 6.388.283.281.212.772.283 1.123-.354-.07-.919-.07-1.202-.21-.637-.492-1.061-1.194-1.768-1.615-2.475-1.614-5.02-3.299-7.566-4.844-.778-.491-1.697-.842-2.545-1.263-.071.07-.142.281-.213.351l1.273 1.263c2.616 2.036 5.303 4.002 7.849 6.108 2.334 2.036 5.021 3.299 7.99 4.001 1.132.281 2.192 1.053 3.253 1.685.566.281 1.061.772 1.485 1.194 1.485 1.193 2.899 2.457 4.525 3.79-3.889.071-7.566-.21-11.101.913.566.281 1.202.351 1.768.351 2.404.14 4.879-.211 7.212.281 5.728 1.193 9.9 4.914 13.577 9.266.282.281.424.702.495 1.053.07.211-.142.562-.142.843-.212-.07-.566-.141-.707-.281-.424-.421-.778-.913-1.202-1.334-1.344-1.334-2.687-2.527-4.101-3.791-.142.281-.142.421-.071.492 2.899 4.142 5.798 8.283 8.627 12.355.141.281.495.491.778.632.212-.351.636-.632.707-.983.141-.983.212-2.036.141-2.948-.212-2.036-.636-4.002-.707-6.038 0-2.808.354-5.686.495-8.494 0 0-.071-.07-.071-.211-1.202.351-1.555.141-2.121-.982-.141-.281-.212-.492-.354-.773-1.555-4.212-2.05-8.634-2.262-13.057-.142-1.825.495-3.58 1.98-4.774 3.04-2.457 5.091-5.475 6.858-8.915 2.051-4.002 2.758-8.214 1.485-12.566-.919-3.299-3.04-5.967-5.091-8.705-.07-.07-.283-.14-.424-.281-.071.071-.212.071-.283.141.283.842.495 1.614.707 2.527.637 2.317 1.414 4.633 2.051 6.95.071.351-.212.772-.354 1.053-.283-.281-.636-.492-.778-.772-.353-1.053-.707-2.247-1.06-3.3-.495-1.474-1.344-2.316-2.546-2.246.637 2.176 1.202 4.282 2.404 6.177 1.627 2.457 2.122 5.195 1.697 8.144-.424 3.229-2.262 5.756-4.242 8.283-.99 1.264-2.122 1.264-3.041-.07-.848-1.123-.778-2.316-.283-3.51a407.514 407.514 0 014.526-9.688c.636-1.333.636-1.895-.778-3.159-.424.843-.778 1.615-1.343 2.317-.283.421-.849.702-1.344 1.053-.283-.421-.778-.772-.919-1.334-.495-2.176-1.344-4.001-2.97-5.475-.495-.492-1.202-.773-1.839-1.124.142.702.142 1.545.566 2.247.707 1.404 1.627 2.738 2.334 4.142 1.272 2.667 1.909 5.265.353 8.073-.353.632-.495 1.614-1.414 1.263-.919-.351-.424-1.263-.071-1.895.849-1.825.99-3.651.212-5.406-.707-1.684-1.555-3.229-2.333-4.843-.495-1.053-.99-2.106-1.131-3.23-.283-1.544.707-2.246 2.192-1.895h.565c-.283-2.668-.636-5.265-.99-7.863-.636-3.72-1.838-7.3-4.313-10.179-.283-.28-.636-.491-.849-.702-.07.071-.212.211-.353.211.283.702.636 1.474.919 2.176a90.218 90.218 0 011.839 4.633c.07.351-.142.843-.283 1.264-.354-.211-.778-.351-.99-.562-1.839-2.106-3.606-4.282-5.445-6.388-.566-.702-1.485-1.193-2.263-1.825l-.282.281c.141.281.212.632.424.842 1.485 2.176 3.111 4.353 4.596 6.529 1.202 1.755 2.475 3.44 3.465 5.265.848 1.685 1.273 3.51 1.697 5.335.071.351-.212 1.053-.495 1.194-.283.14-.849-.141-1.202-.351-.99-.843-1.839-1.685-2.758-2.598-.353-.351-.778-.491-1.273-.842-.141 1.123.142 1.544 1.344 2.878 3.111 3.51 5.445 7.371 5.727 12.285.071 1.334.283 2.668.283 4.072 0 .421-.283.983-.566 1.123-.282.14-.919-.07-1.131-.281-1.273-1.404-2.758-2.738-3.748-4.423-1.767-2.878-3.252-6.037-4.808-9.126-.212-.351-.495-.631-.707-.842-.071.07-.212.07-.283.14.071.351 0 .702.071 1.053.566 1.545.919 3.3 1.838 4.634 2.405 3.931 5.092 7.722 7.566 11.583.213.351.425.842.283 1.123-.141.281-.778.491-1.06.491-1.061-.21-2.192-.351-3.112-.702-3.111-1.263-5.657-3.229-7.778-5.896-.848-1.124-2.05-2.036-3.111-3.089-.778.772-.212 1.474.141 1.965 1.98 2.668 3.819 5.476 6.93 7.02.212.071.424.281.566.422.212.21.353.491.282.702-.07.21-.353.351-.707.421-.353.07-.777.07-1.06-.07-1.061-.351-2.192-.773-3.253-1.124-1.485-.351-2.97-.982-4.455-1.474zM100.732 42.04c-.849.28-1.556.702-2.192.632-1.627-.07-2.546.842-3.395 1.965-1.201 1.755-2.545 3.37-4.454 4.563-1.839 1.124-3.677 2.387-5.516 3.51-1.131.702-1.838 1.685-2.333 3.02-.99 2.807-2.05 5.545-3.182 8.213-1.132 2.667-1.768 5.265-1.344 8.213.212 1.615.354 3.3.283 4.914 0 .983-.353 1.896-.636 2.878.636-.07 1.202-.35 1.768-.35 1.98 0 3.535-.983 5.09-1.966 1.061-.632 1.486-1.615 1.556-2.808.071-1.194.213-2.457.566-3.65.566-2.388 1.273-4.634 1.91-6.95.14-.422.353-.913.565-1.405.141 0 .353.07.495.07-.283 1.966-.566 3.932-.92 6.108 1.556-1.123 2.97-2.106 3.82-3.65 1.343-2.317 3.252-4.212 3.888-6.95l2.334-10.32c.565-1.825 1.131-3.79 1.697-6.037zM84.327 93.006c-1.414-.702-2.758-1.334-3.96-1.966-.354-.21-.707-.421-.92-.772-.424-.983-1.272-1.404-2.262-1.404-1.06-.07-2.192-.07-3.253.28-2.545.843-4.95.983-7.495.281-2.546-.702-4.95.14-6.788 2.106-.92.913-1.91 1.475-3.182 1.475-.849 0-1.697 0-2.617-.07-1.414 0-2.616.49-3.818 1.263-1.202.772-2.545 1.404-3.747 2.176-.708.421-1.485.772-2.193 1.194.071.21.071.35.142.561 1.06-.07 2.05-.07 3.04-.21 1.98-.421 3.96-.14 5.87.632.636.21 1.13.42 1.767.631 2.121.702 4.243.702 6.364-.28 2.192-1.053 4.526-1.966 6.86-2.598 3.252-.983 6.646-.702 9.97-.07.848.14 1.767.07 2.474-.351 1.273-.843 2.334-1.895 3.748-2.878zm10.04-27.66l.284.281c1.697-.842 3.394-1.544 5.02-2.457 4.313-2.316 7.213-6.177 9.9-10.109 1.414-2.106 2.333-4.422 3.606-6.669 1.273-2.106 2.05-4.282 2.545-6.599.495-2.456.99-4.913 1.98-7.16 1.344-3.019.778-6.248 1.627-9.337-.354.21-.495.492-.637.773-.778 1.614-1.626 3.299-2.263 5.054-1.06 3.019-3.252 5.476-4.879 8.213-.848 1.404-1.485 2.879-2.333 4.283-1.202 1.895-2.404 3.79-2.828 6.037-.495 2.317-1.627 4.282-3.677 5.476-2.617 1.614-4.314 3.72-4.88 6.669-.14.561-.353 1.053-.636 1.614.495-.07.849-.28 1.132-.42 5.727-4.143 9.828-9.478 12.303-16.147.566-1.404 1.273-2.808 1.909-4.282.071.07.213.07.354.21-.495 1.334-1.061 2.598-1.414 3.932-2.617 8.073-7.637 14.18-14.991 18.532-.778.352-1.344 1.334-2.121 2.107zm56.852 138.858c.142.28.071.491.212.631 2.687 5.476 5.304 10.882 7.849 16.498 1.414 3.088 4.455 4.141 6.718 6.247.141-.421.07-.772-.071-1.053-1.131-4.773-2.192-9.617-3.394-14.321-.424-1.544-.778-3.299-1.697-4.492-2.404-2.949-5.728-4.002-9.617-3.51zm30.83-7.161c-.141 0-.283 0-.354-.07-.141.421-.212.913-.282 1.264-.354 3.018-.708 6.037-2.192 8.775-.99 1.965-2.051 4.001-3.253 5.897-1.909 3.159-3.182 6.528-4.313 10.038-.071.07.07.211.212.492.282-.562.495-.913.636-1.334 1.556-3.229 3.253-6.318 6.505-8.143a13.79 13.79 0 004.95-4.915c.707-1.263 1.202-2.737 1.697-4.071.142-.281-.071-.632-.141-.983-.283.14-.637.351-.849.562-.778 1.053-1.485 2.176-2.192 3.159-.919 1.333-1.697 2.808-3.747 3.299.212-.632.282-1.123.495-1.474 1.555-2.106 2.05-4.563 2.545-7.02.566-1.685.637-3.58.283-5.476zM77.397 81.633v.421c2.192 2.598 4.455 5.125 5.374 8.565 0 .14.212.35.283.421.849.983 1.91.913 3.04.632 1.415-.421 1.698-.702.99-1.966-1.98-3.37-3.606-6.95-7.99-7.933-.495-.07-1.06-.07-1.697-.14zm70.64 122.22c2.97 6.037 4.738 12.566 9.617 17.409-.212-.772-.637-1.333-.919-2.035-2.263-4.774-4.526-9.548-6.718-14.392-.212-.772-.636-1.193-1.98-.982zm23.688-13.409c-.141 0-.212-.07-.353-.07-.142.281-.283.562-.495.913-.425.982-.92 1.895-1.415 2.948-.636 1.334-1.414 2.668-2.05 4.002-.283.702-.424 1.544-.495 2.316-.071.211.212.492.424.702.212-.21.495-.21.637-.491.353-.492.565-.983.989-1.404 1.698-1.966 2.546-4.353 2.829-6.88 0-.702-.141-1.404-.071-2.036zM94.015 76.789l.211-.21c-.282-.562-.495-1.053-.778-1.615-.919-1.614-2.12-2.948-4.171-3.3-.637-.07-1.132 0-1.061.632.07.632-.707 1.404.566 1.826 1.484.491 2.899 1.334 4.313 2.035.283.281.566.422.92.632zm50.416 117.867c.707 1.545.778 3.581 2.687 4.212.071-.07.212-.21.353-.21-1.06-1.334-2.05-2.598-3.04-4.002z" fill="#BA9151" fill-opacity=".5"/></svg>