<svg width="293" height="361" fill="none" xmlns="http://www.w3.org/2000/svg"><path d="M84.285 124.889c-2.834-2.578-5.194-5.625-8.264-7.969-8.027-6.094-15.11-13.126-19.831-22.501-3.305-6.329-8.5-11.251-14.402-15.236-4.25-3.047-6.846-6.563-8.027-11.719-.708-3.985-1.889-8.204-2.597-12.188-.472-2.579-.472-5.157-.236-7.97.472-4.453.236-8.672-2.125-12.89-.708-1.173-.472-3.282.236-4.689.945-1.64 2.833-1.875 4.722-1.406 2.833.469 5.666 1.172 8.5 1.406 5.902.47 10.86 3.047 14.4 7.97C64.454 48.243 72.245 58.79 79.8 69.573c3.777 5.157 6.846 10.548 10.624 15.47 2.597 3.282 5.902 5.625 9.68 8.204a182.871 182.871 0 01-.709-4.454c-1.18-6.797-2.597-13.594-3.305-20.392-1.18-11.25 1.889-21.798 5.43-32.11 3.069-8.908 6.847-17.346 12.041-25.315 2.125-3.281 4.25-5.39 8.263-5.625 1.417 0 3.069-1.407 4.486-2.578 3.777-3.516 5.43-3.516 9.68-.938 3.069 1.875 6.61 3.516 10.624 2.813 2.597-.47 4.249 1.172 6.138 2.812 1.417 1.172 3.069 2.344 4.958 3.047 3.305 1.172 5.194 3.516 5.902 6.798 2.361 10.547 4.722 21.095 6.847 31.642 1.416 6.563 2.361 13.126 3.305 19.689 1.181-.703 2.597-1.875 4.014-2.344 1.18-.469 2.833-1.172 4.013-.703 5.903 1.406 11.805 0 17.707-.938 6.611-1.406 12.513.703 18.179 3.282.945.468 2.125 1.172 2.833 2.11 1.653 1.64 3.306 3.046 5.43 3.984 1.653.703 3.07 2.813 3.778 4.688.708 2.343.472 4.922.236 7.266-.708 4.688-1.653 9.14-.944 13.829.236 1.875-.709 3.984-.945 6.328 11.097-5.391 22.901-3.984 34.47-4.922 7.791-.703 14.165 4.219 20.067 8.907 1.417 1.172 2.597 2.578 4.014 3.75 4.013 3.281 4.958 7.5 3.305 12.423-.708 2.109-.472 3.984.945 5.625 2.36 2.813 2.36 5.625 1.888 9.141-.708 5.391-2.597 9.61-6.138 13.595-1.653 1.875-2.833 4.453-4.486 6.328-1.889 2.344-4.249 4.219-6.374 6.563-1.417 1.406-3.069 2.813-4.486 4.453-2.833 3.751-6.374 6.329-10.86 7.735-13.457 4.454-27.387 4.923-41.316 4.688-9.208-.234-18.179-.703-27.151-3.047-.708-.234-1.416-.234-2.125-.469-.236.235-.472.469-.708.469.236 0 .708.234.944.234 8.028 4.688 14.638 11.251 21.249 17.814 4.722 4.688 10.152 8.438 16.762 11.016 14.402 5.391 26.679 14.064 37.303 25.08 1.888 1.875 3.541 4.219 4.485 6.563 2.361 5.156.237 9.375-4.957 11.485-.945.234-1.889 1.172-2.361 2.109-1.889 3.282-4.014 5.86-8.264 5.626-2.833 0-5.902-.235-8.499 2.109-.944.703-2.833.469-4.013.703-3.07.469-5.903.704-8.972 1.172-8.499 1.641-15.818-.937-22.901-5.156-7.555-4.688-13.693-11.016-19.359-17.814-.472-.469-.945-.937-.945-1.172-3.069 2.813-5.902 5.86-8.971 8.204-3.069 2.344-6.375 4.453-9.68 6.328-.708.469-1.653.704-2.125.469-2.361-1.172-4.249 0-6.138.703-9.68 3.516-20.776-.234-26.678-8.672-3.778-5.391-5.903-11.485-6.847-18.048-.708-4.688-1.653-8.907-5.194-12.657-1.417 1.641-2.833 3.047-4.25 4.688-1.888 2.109-4.249 2.578-6.846 2.109-5.194-.703-8.736-3.516-12.277-7.5l-4.958 5.625c-12.985 15.235-25.97 30.705-38.955 45.94-3.305 3.985-4.722 8.673-6.138 13.361-.236.468.236.937.472 2.109.708-1.406 1.18-2.109 1.416-3.047 2.361-5.391 5.43-10.079 10.152-13.595 1.18-.937 3.07-1.875 4.486-1.64.708 0 1.18 2.578 1.653 3.984 0 0 .472-.234.708-.468 2.597-4.688 6.846-7.032 11.568-9.142 3.778-1.64 4.722-1.172 4.25 3.751 2.833-2.11 4.958-3.985 7.319-5.626 2.833-1.875 5.43-3.984 8.263-5.625 1.18-.703 2.833-.234 4.486-.469v4.219c0 .469-.236.938 0 1.875 2.597-1.64 5.194-3.281 7.791-4.687 2.361-1.407 4.722-2.813 7.319-3.751 2.833-.937 4.721.938 4.249 3.985-.236.938-.472 1.641-.708 2.344-.236.703-.708 1.406-1.417 3.047 1.653-.703 2.833-1.406 3.778-1.641.944-.234 1.889 0 3.069.235 0 .937 0 2.109-.236 2.812-1.417 2.344-3.069 4.454-4.722 6.797 1.417-.234 2.597-.468 3.778-.234.708 0 1.888.469 2.124.938.237.468 0 1.64-.472 2.344-3.541 3.984-6.846 7.969-10.624 11.485-1.653 1.64-4.486 2.109-6.847 2.812-1.888.469-3.777.703-6.138.938 2.597 2.813 2.597 3.516.236 6.094-2.125 2.344-3.069 2.813-10.152 4.688l1.417.703c2.125 1.406 2.361 3.047 0 4.219-4.722 2.344-9.916 3.985-15.346 3.047-1.889-.234-3.778-.234-5.666-.469 0 .235 0 .469-.236.703 1.652.469 3.305.938 4.957 1.641 1.89.703 4.722 1.172 4.486 3.985-.236 2.812-3.069 2.578-4.958 2.812-5.43.704-10.624.235-15.818-1.875-.944-.468-2.125-.469-3.069-.469 2.833 2.344 8.5.469 8.972 6.329 5.43-.469 10.624-1.172 16.054-1.406 4.486-.235 9.207 0 13.693.468 3.305.469 4.014 2.813 1.889 5.391-.236.235-.472.704-.945 1.172 1.653.235 3.306.469 4.722.703 1.889.469 3.778.469 5.666 1.172 3.542 1.407 4.014 2.813 1.653 6.563 4.486 1.641 8.735 3.047 13.221 4.923 1.181.468 2.125 1.406 3.305 2.343-.944 1.172-1.652 2.579-2.833 3.282-3.305 1.875-6.846 2.344-10.388 1.875-.708 0-1.652-.234-3.069-.234 1.181 1.406 2.125 2.109 2.833 3.047 1.417 1.875.945 3.281-.944 4.453-3.778 2.11-7.319 1.172-10.86-.469-2.597-1.172-5.194-2.344-7.555-3.75-.236.234-.236.469-.472.469 1.652 2.344 3.305 4.688 4.957 6.797 2.361 3.047 1.653 4.688-1.888 5.625-.472.235-.945.235-1.417.235-7.555 2.344-13.693.234-18.651-5.86-.708-.703-1.417-1.406-2.597-1.641 0 .704.236 1.641.236 2.344.236 2.813-1.18 4.688-3.777 4.219-1.89-.234-4.014-1.172-5.667-2.344-4.013-2.812-7.555-6.094-11.332-8.672-4.014-2.578-8.263-4.688-12.04-6.797-.473 2.109-.237 3.984-.945 4.922-1.417 1.641-3.305.234-4.958-.469-2.597-1.172-5.43-2.344-8.027-3.281-3.777-1.172-6.847-3.282-8.5-7.032-.472-1.172-1.18-2.344-1.888-3.516-1.653-2.813-3.305-3.75-6.374-3.047-2.125.469-4.014 1.406-6.139 1.641-1.889.234-3.777.469-5.43-.235-3.07-1.172-3.07-3.047-.944-5.625 3.541-4.219 7.082-8.438 10.388-12.891.472-.703.708-1.875.472-2.813-1.18-5.391-1.417-10.782 2.125-15.704.236-.469 0-1.172 0-1.875-.945-3.985-1.89-7.735-2.597-11.72-.236-2.344 0-4.687.472-7.031.708-2.813 2.833-3.282 4.958-1.172.944.937 1.652 1.875 2.597 2.578.236 0 .472-.234.708-.234 0-1.641 0-3.516-.472-5.157-.708-4.453-.236-8.672 3.305-11.954.708-.703.708-2.109.944-3.281.237-4.219 0-8.438.709-12.657.708-4.454 3.305-5.391 7.082-2.813.237-1.406.709-2.813.945-4.219.708-3.985 3.07-7.032 5.666-10.079 1.889-2.109 3.778-1.406 4.25 1.172.472 1.641.472 3.282.708 4.922.236-.234.472-.234.472-.234.236-7.969 6.375-11.954 11.333-16.642.944-.703 3.069-1.406 3.777-.937 1.18.703 1.889 2.578 2.125 3.984.472 6.798 0 13.361-1.653 19.924v.468c1.653.235 3.306 0 4.25.703.944.938 1.416 2.579 1.653 3.985.236 1.406-.237 3.047 0 4.688 12.276-10.782 21.484-24.142 31.636-37.268-.945-.469-1.653-1.172-2.361-1.406-4.958-2.11-7.083-6.094-7.791-11.251-.236-1.406-1.18-2.578-1.889-3.985-.944-1.875-1.889-3.984-2.833-5.859-.708-1.407-1.417-2.813-2.125-3.985-.708-1.172-2.125-2.344-2.597-3.516-.472-2.578-2.125-3.516-4.013-3.75-3.306-.469-5.194-2.11-5.903-5.391-.944-3.281-1.652-6.797-2.597-10.313-3.777-1.875-8.027-.938-12.513-.234-2.36.468-4.958.468-7.554.468-.709 0-1.417 0-2.125.235-7.791 1.875-14.166-1.172-18.415-7.97-.945-1.64-2.125-3.281-3.306-4.687-2.125-2.579-4.013-5.391-4.722-8.907-.236-1.406-1.652-3.047-3.069-3.75-4.25-2.344-6.61-6.563-9.443-10.313-.709-.938-.945-3.047-.236-4.219 1.416-3.282 3.54-6.563 7.082-7.97 4.25-1.875 8.5-3.516 12.75-5.156 6.374-2.344 12.984-2.578 19.83-.938 8.5 1.875 16.291 5.157 23.61 9.845 5.666 3.515 11.805 5.859 17.943 8.906-1.417 1.875-1.18 1.641-.944 1.172zM121.587 8.398c-2.361-.235-4.013.469-5.194 2.344-8.971 13.594-14.165 28.83-17.47 44.768-1.89 9.376 0 18.517 1.652 27.658 1.416 7.735 2.833 15.704 6.847 22.736 4.957 8.672 10.388 17.11 15.582 25.548.944 1.641 1.888.938 3.305 0-3.542-3.75-5.43-8.438-5.666-13.594.944 1.406 1.416 2.812 2.124 4.219 1.181 2.344 2.361 4.922 3.778 7.031.472.703 1.889.703 2.833.938 0-.938.236-1.641 0-2.578-.472-1.641-1.18-3.282-1.653-5.157-.472-1.641-.472-3.281-.944-4.922.236 0 .708-.235.944-.235.709 5.157 5.194 9.376 3.07 15.47-.945-.234-1.653-.234-2.361-.469-.472 3.985-4.014.469-4.722 2.11-.708-.703-1.181-1.407-1.889-1.875-3.305-2.813-5.43-6.094-7.319-9.845-.944-2.343-2.361-4.453-3.541-6.563-1.889-3.047-4.722-5.859-5.902-9.141-2.361-6.094-6.375-10.547-11.333-14.532-5.666-4.922-10.624-10.313-14.165-17.11-1.417-3.047-3.306-5.86-5.194-8.673A1034.798 1034.798 0 0055.48 40.744c-3.777-5.157-8.499-8.204-15.11-8.204-2.124 0-4.485-.703-6.61-.938-.944-.234-1.889-.234-3.305-.234.708 1.406.944 2.344 1.416 3.047 1.89 2.813 3.542 5.625 5.666 7.97 5.195 6.093 8.264 13.36 12.513 20.157 4.958 8.203 10.624 16.173 15.819 24.142.708.937 1.18 2.11 1.888 3.047-.236.234-.472.469-.708.469-3.777-4.922-8.027-9.376-11.569-14.532-4.485-6.798-8.263-14.064-12.276-21.096-2.597-4.453-5.666-8.438-8.5-12.657-.472.235-.708.235-1.18.47 0 4.218 0 8.672.472 12.89.472 4.22 1.653 8.439 2.597 12.658.708 3.515 2.361 6.563 5.43 8.672 2.125 1.64 4.486 3.281 6.375 5.157 4.485 4.219 8.735 8.438 11.332 14.063 2.833 6.328 7.555 11.016 12.749 15.47 4.486 3.984 8.971 7.969 13.457 12.188 2.361 2.109 4.486 4.453 7.083 6.328 5.43 3.985 11.096 7.501 16.762 11.251 1.653.938 3.306 1.641 5.194 2.578 1.653.938 3.306 1.876 4.958 2.579-.236.234-.236.469-.472.937h-1.652c-3.07-1.406-6.139-2.578-8.736-4.219-9.916-5.86-20.068-11.485-30.692-16.173-6.374-2.812-12.513-6.094-18.65-9.61-7.792-4.453-16.527-6.562-25.263-7.734-1.416-.235-2.833-.235-4.25.234-6.61 2.344-13.457 4.453-19.831 7.266-2.125.938-3.541 3.516-5.194 5.625-.472.469-.472 1.875 0 2.579 2.597 3.515 4.722 7.5 8.971 9.375 2.361 1.172 3.542 3.282 4.25 5.86.708 2.109 1.653 4.219 2.833 6.094 1.417 2.11 3.07 3.985 4.486 6.094 4.013 6.094 8.5 8.204 15.818 6.797.708-.234 1.653 0 2.597-.234 2.597-.234 4.958-.469 7.555-.469 3.541-.234 7.083-.937 10.388-.468 4.014.468 4.25.703 5.43-3.516-13.93-6.798-29.04-10.079-43.677-14.532 15.582.937 30.22 6.094 44.621 12.422.237-.703.473-1.172.473-1.406 3.305-10.782 11.568-14.532 21.484-10.079l24.081 10.548c1.653.703 3.542 1.172 5.43 1.875-1.18-5.157-.708-6.094 2.361-5.626 0 .704-.236 1.641 0 1.875 1.889 2.11-1.652 3.985-.236 5.86-.472 0-.708.469-1.18.235-2.833-.938-5.903-1.407-8.5-2.579-8.027-3.281-16.054-6.797-23.845-10.313-7.555-3.281-14.874.235-16.998 8.438-.472 1.875-.709 3.985-1.89 5.626-3.068 4.453-2.124 8.672-.707 13.125.944 2.344 2.125 3.751 4.722 4.219 2.833.469 4.957 1.876 5.43 5.157.236.937.944 2.109 1.888 2.578 2.125 1.407 2.833 3.516 3.306 5.86.236 1.406.708 3.047 1.652 3.75 2.125 1.875 2.833 3.985 3.07 6.563.236 3.516 1.652 6.329 4.721 7.735 3.542 1.406 5.666 3.985 7.555 7.032 1.417 2.343 2.597 4.687 5.194 6.328 5.666 3.516 9.208 4.454 13.457-.703 5.903-7.5 10.625-15.704 12.749-25.08 1.417-5.859 1.889-11.954 2.833-17.813.237-1.875.473-3.282-1.888-4.219-1.653 12.891-5.903 24.611-16.291 32.814 0-.703.236-1.172.709-1.406 8.263-8.907 12.276-19.454 14.165-31.408.236-1.641 1.181-3.282 2.125-5.626.944 1.876 1.417 3.047 2.125 4.219 0-.234.236-.468.236-.703 1.889.469 4.013.938 6.138 1.641 0 0 .709-.234 1.181-.234.708 0 1.18.234 2.125.468.236.938.472 2.579 1.18 3.282 4.25 4.219 8.735 8.438 12.985 12.657 2.597 2.344 4.958 5.156 7.319 7.735l-.708.703c-4.014-3.282-8.264-6.563-12.041-10.079-3.778-3.516-7.319-7.5-10.624-11.016-2.361-.235-4.958-.469-7.319-.703 0 .937.236 2.109.236 3.047-.472 12.657-3.305 24.845-10.152 35.627-1.416 2.109-1.18 3.75 0 5.625 3.305 3.985 4.014 8.907 4.722 13.829.708 4.688 2.361 8.907 4.722 13.126 5.194 8.907 14.401 12.891 24.317 10.079.945-.235 1.653-.704 2.597-.938-1.416-2.578-2.597-5.156-4.013-7.5-4.958-8.673-10.152-17.345-14.874-26.018-3.778-7.266-5.666-15-5.666-23.204 0-1.172.472-2.344.708-3.516.708.469.944.703.944 1.172 0 11.251 4.014 21.329 9.68 30.939 4.722 8.204 9.444 16.408 13.929 24.611.945 1.875 1.653 3.282 3.778 3.047 1.18 0 2.361-.468 3.305-.937 1.417-.703 2.597-1.875 4.014-2.578 7.791-3.282 12.513-9.845 15.582-17.345 1.416-3.751 1.18-8.438 1.652-12.423.709-5.86-.472-11.016-4.485-15.235-4.25-4.688-7.791-9.845-13.221-13.595-8.5-5.625-16.999-11.719-25.498-17.579-.709-.469-1.181-1.172-1.653-1.875 1.889-1.641 3.541-3.75 4.25.234 0 .235.472.703.708.938 7.083 4.922 14.165 10.079 21.72 14.532 8.264 4.922 13.458 12.657 19.124 19.923.236.234.236.703.472 1.172 2.833 7.735.944 15.47.236 23.205-.236 1.875-.236 3.047.944 4.218 7.083 7.501 14.874 14.064 23.373 19.924.945.468 1.653 1.172 2.597 1.875l-.708.703c-10.388-5.86-19.595-13.126-28.331-22.033-.236 1.172-.472 2.344 0 3.047a34.378 34.378 0 003.778 4.454c5.666 6.563 12.04 12.422 20.068 15.938 6.138 2.813 12.276 3.985 19.123 1.875 1.652-.468 3.305-.468 4.958-.703 2.597-.234 5.43.235 7.555-1.875.708-.469 1.652-.703 2.597-.703 1.889-.235 3.777-.235 5.43-.235 2.597-.234 3.777-1.875 4.722-3.984.944-2.344-.945-3.282-2.361-3.985-6.611-3.75-13.221-7.266-19.832-11.016-.708-.469-1.653-.938-2.361-1.406 1.181-.235 1.889-.235 2.597 0 8.027 2.578 15.346 6.797 22.193 11.954 2.597 1.875 6.138.937 7.083-2.11 1.416-4.219-1.181-7.266-3.778-9.844-9.444-9.376-19.596-18.048-32.108-22.736-10.625-3.985-19.596-10.313-27.387-18.517-7.083-7.735-15.582-13.594-25.734-17.345-6.138-2.344-11.805-5.391-17.707-8.203-.708-.235-1.18-1.172-1.889-1.641 0-.234.237-.469.237-.703 1.18.234 2.361.234 3.541.703 4.486 1.875 8.971 4.453 13.693 5.625 15.11 3.751 30.22 6.798 46.038 6.563 12.749-.234 25.262-.937 37.539-4.688 4.013-1.171 6.846-3.515 9.443-6.797 1.653-2.109 3.778-3.516 5.43-5.391 2.833-3.281 5.667-6.563 8.736-10.313-12.513 1.875-24.082 3.75-35.65 5.625 0-.234 0-.703-.236-.937 3.069-.703 6.374-1.641 9.444-2.344 8.027-1.406 16.29-2.578 24.317-3.985 4.25-.703 6.374-3.515 7.319-7.5.472-1.641.472-3.282.944-4.688.944-3.047.236-5.391-1.653-7.735-1.652-2.109-2.124-4.453-1.18-7.031 1.417-3.751.944-7.032-2.361-9.845-1.653-1.406-3.069-3.047-4.722-4.453-6.846-5.157-14.165-9.376-23.373-7.501-4.013.704-8.263.469-12.513.704-6.374.234-12.276 1.64-17.706 4.922-1.181.703-2.125 1.875-3.07 2.812.236.235.236.469.473.704 2.36-.704 4.485-1.407 6.846-1.876l7.083-1.406c2.597-.469 4.958-.703 7.555-.937 2.361-.235 4.486-.235 6.846-.235v.938c-.708 0-1.652.234-2.36.234-5.903.938-11.805 1.641-17.707 2.578-5.666.938-11.097 2.344-13.93 8.204 0 0 0 .234-.236.234-4.958 5.86-11.096 9.845-17.471 13.829-10.624 6.563-21.248 13.126-34.233 13.595 0 1.172-.236 2.344-.472 3.985-1.417-1.172-2.125-2.11-3.069-2.579-1.889-.937-1.889-1.875-.236-3.047-.709-.468-1.417-.937-1.889-1.64-.708-1.172-.944-2.579-1.653-4.219.709-.938 2.361-.469 3.778 0 .944.234 2.125.703 2.833.234 2.125-.703 4.25-1.406 5.902-2.578 5.666-3.751 11.333-7.735 16.763-11.72 1.652-1.172 3.069-2.344 4.485-3.516.237.235.237.469.473.704-7.791 9.375-17.707 15.704-29.276 19.688.945.938 1.417 1.641 2.361 2.578 2.833-.703 5.903-.937 8.5-2.109 7.318-3.281 14.401-6.329 21.248-10.313 5.43-3.047 10.624-7.032 15.818-11.016 6.61-5.157 9.68-13.126 13.693-20.392.472-.704.472-1.875.236-2.813-.944-5.156.236-10.079 1.181-15.235.236-1.875.236-3.75 0-5.626-.709-3.515-3.306-4.453-6.375-2.578-1.18.703-2.597 1.406-3.541 2.578-4.486 4.688-8.972 9.376-13.221 14.064-2.361 2.578-4.722 5.39-7.083 7.969l-.472-.469c6.846-9.844 14.165-19.454 24.789-26.486-1.888-1.64-3.777-3.281-5.666-4.453-6.61-3.516-13.457-3.047-20.776-1.875-5.43.703-8.735 3.75-11.332 7.969-3.069 4.922-5.666 9.844-8.499 14.766-.945 1.641-1.889 3.516-2.834 5.157-.236 0-.472-.234-.472-.234 3.305-9.61 7.791-18.517 14.874-26.252-7.083-2.344-11.096-.469-13.457 6.094-.472 1.406-.945 2.813-1.181 4.22-1.652 8.437-3.777 16.64-7.555 24.376-1.888 3.75-4.721 6.797-5.902 10.547-2.125 6.329-6.374 11.251-9.207 16.876-.237.703-.945 1.172-1.417 1.641-.236 0-.472-.234-.708-.234.236-.938.236-2.11.472-2.813 3.069-6.094 6.138-12.188 9.444-18.283 2.36-4.453 5.194-8.906 7.082-13.594 4.958-12.188 8.027-25.08 5.666-38.44-2.597-13.594-5.43-26.955-8.263-40.315-.944-4.453-2.597-5.625-7.555-6.094 2.125 10.548 3.542 21.095 2.361 32.111 0-.468 0-1.172-.236-1.64-1.18-10.782-1.652-21.564-4.722-31.877-.708-2.813-2.597-3.985-5.43-3.516-.944.234-2.361.469-3.305 0-3.069-1.172-6.138-2.813-9.444-3.985-1.18-.469-3.069-.469-3.777 0-3.778 2.813-6.847 6.329-8.972 10.782-4.721 10.782-8.263 22.033-10.86 33.518-.472 1.64-.944 3.516-1.416 5.156-.236 0-.473-.234-.945-.234 2.361-16.642 7.319-31.174 14.874-45.237zm3.069 262.516c0-.235-.236-.469-.236-.469-1.889.234-3.541.703-5.43.938-.708 0-1.653-.235-2.361-.469.472-.938.708-1.875 1.181-2.344.944-.938 2.124-1.641 3.069-2.578 1.416-1.407 2.597-2.813 4.013-4.219-.236-.235-.236-.469-.472-.469-.708.234-1.416.703-2.361.937-1.416.235-3.541 1.172-4.249.469-1.653-1.406.708-2.813 1.18-3.985.944-1.875 2.597-3.281 1.889-6.328-1.889.938-3.778 1.641-5.43 2.578-4.958 2.813-9.916 5.86-14.874 8.438-.472.235-1.417 0-2.361 0 0-.703 0-1.64.236-2.344.236-.703 1.18-.937 1.653-1.64.944-1.407 1.888-3.047 2.833-4.688l-.945-.938c-2.833 1.875-5.43 3.751-8.263 5.626-2.597 1.875-4.958 4.219-7.555 5.859-1.18.704-2.833.704-4.25.938 0-1.406-.235-2.578-.235-3.985 0-.234-.237-.234-.473-.703-3.54 2.578-7.79 4.454-10.388 8.204-1.18 1.641-2.833 3.047-4.25 4.453-.471.469-1.888.469-2.36 0s-.708-1.641-.708-2.344c0-1.172.472-2.109.708-3.281-.236-.235-.472-.235-.708-.469-1.653 1.641-3.306 3.282-4.722 5.157-2.833 4.453-5.194 9.141-8.027 13.594-.709.938-1.653 1.875-2.833 2.344-.473.234-1.417-1.406-2.125-2.109-3.306 2.812-6.375 5.859-7.083 10.547-.236.938-.708 1.875-1.18 2.813-1.18 1.875-2.125 1.875-3.542.234-.708-.703-1.18-1.641-1.889-2.578-.472.234-.708.469-.944.469-2.36 1.875-1.417 4.219-.944 6.563.236 2.109.472 4.453-1.889 5.39-2.597 1.172-5.43 3.048-8.5.938l-.708-.703c.945-1.406 1.653-2.11 2.125-3.282 2.597-6.797 8.027-10.781 13.457-14.766 5.903-4.219 11.097-8.673 12.985-16.407.709-2.813 0-3.516-3.069-3.751 1.417-2.109 2.597-3.984 3.778-5.625a84.094 84.094 0 016.138-6.797c4.958-5.157 6.61-11.485 6.61-18.283 0-.703-.236-1.64-.708-1.875-.472-.234-1.416.235-1.888.469-.709.469-1.417 1.172-2.361 1.641-.945.469-1.889.469-2.833.703 0-.938-.236-1.875 0-2.813.944-4.922 2.597-9.61 3.069-14.297.472-3.282-.236-6.563-.472-10.548-1.653 1.406-2.834 2.11-3.778 3.047-1.18 1.172-2.36 2.813-3.777 3.75-2.597 1.876-3.542 4.219-3.778 7.032-.236 1.406-.236 2.813-.944 3.985-.708.937-1.889 1.875-3.07 2.109-.471 0-1.652-1.641-1.888-2.812-.472-1.407-.472-3.048-.708-5.157-3.542 3.516-5.194 7.032-5.667 11.485-.236 1.172-.236 2.344-.472 3.516-.472 1.641-1.652 2.109-3.069.937-.944-.703-1.652-1.64-2.597-2.578-.472 1.172-1.18 1.875-1.18 2.813-.236 3.75-.473 7.5-.473 11.016 0 2.11 0 3.985-1.652 5.391-3.07 2.578-3.305 5.86-2.833 9.61.236 2.344.472 4.688.236 6.797-.472 2.813-2.597 3.516-4.722 1.641-.944-.938-1.889-1.875-3.305-3.516-.236 1.641-.708 2.578-.472 3.516 0 6.094 1.18 12.188 4.013 17.579.708 1.172 1.653 2.579.236 4.219-.708-.937-1.416-1.875-2.36-2.812-.237.468-.709.703-.709.937-1.416 5.157-1.653 10.079 1.18 14.767.709 1.172 1.18 3.515.473 4.219-1.417 1.64-3.542 2.578-5.194 3.984l-.473-.469c1.18-1.875 2.361-3.515 3.306-5.39-.236-.235-.472-.235-.708-.469-3.778 4.688-7.555 9.61-11.569 14.297 1.653.938 2.833 2.344 4.486.469 2.597-2.578 5.43-2.578 8.735-2.109 4.25.469 6.61 3.516 8.263 7.266 1.18 2.578 2.597 4.922 5.43 5.86l11.333 4.219s.236-.235 0 0c-.472-1.876-.709-3.516-1.18-5.391 1.652.234 3.54 0 4.957.703 8.972 3.047 16.527 8.438 23.61 14.532 1.416 1.172 2.832 2.344 4.485 3.047 1.417.703 2.597 0 2.361-1.875l-.708-4.219v-2.344c.944.234 1.888.234 2.36.703 2.362 2.11 4.722 4.219 7.32 6.329 4.485 3.984 10.388 4.453 16.29 1.406a1559.727 1559.727 0 01-8.263-10.313c-.472-.703-.945-1.875-.709-2.344.236-.469 1.417-.703 2.361-.703.709 0 1.417.234 2.125.703 3.541 1.641 7.083 3.047 10.624 4.688 2.833 1.172 5.43 1.875 8.499 0-.708-.703-1.18-1.172-1.652-1.875-.472-.704-1.181-1.172-1.653-1.876-1.416-1.875-.944-3.281 1.417-3.515 2.125-.235 4.249 0 6.138.234 2.597.234 4.958-.703 7.319-2.344-5.666-2.109-11.096-3.75-16.763-5.625-.708-.235-1.416-.703-2.124-1.172.708-.469 1.18-.938 1.888-1.406l3.542-2.11c0-.234-.236-.703-.236-.938-1.181-.468-2.361-1.171-3.542-1.171-3.069-.469-6.138-.704-9.207-1.172-.945-.235-2.125-.704-3.07-1.172.709-.938 1.417-1.641 2.125-2.579.945-.937 1.89-1.64 2.833-2.344 0-.234-.236-.703-.236-.937-4.25-.234-8.499-1.172-12.513-.703-7.318.703-14.637 2.109-21.72 3.047-.944.234-2.36.234-2.597-.235-1.18-1.875-3.07-1.172-4.722-1.406-2.125-.234-4.25-.703-6.374-.703-1.417 0-3.07 0-4.25.469-2.833 1.406-5.43 3.281-8.027 4.687-2.125.938-3.305.235-2.833-2.109.472-2.11-.472-2.578-2.36-2.344-3.778.469-7.32 1.172-11.097 1.875-1.18.235-2.361.235-3.542.235 0-.469-.236-.704-.236-1.172 1.889-.938 3.778-1.875 5.666-3.047 8.264-4.923 16.763-5.86 25.735-2.11 3.305 1.406 7.082 1.406 10.624 1.641 1.416.234 3.069-.703 4.721-.938v-.703c-.708-.234-1.18-.469-1.888-.703-2.597-.703-5.194-.938-7.555-1.875-.945-.235-1.417-1.172-2.361-1.875.708-.703 1.18-1.641 1.889-2.11 3.305-1.406 6.374-.937 9.68-.234 4.249.937 8.735 1.172 12.984 1.64.472 0 .945-.234 2.125-.703a97.012 97.012 0 00-3.541-.937c-2.361-.938-4.486-2.11-6.61-3.282-.473-.468-1.181-1.64-.945-2.344.236-.703 1.416-1.406 2.125-1.406 2.833-.234 5.902-.469 8.735 0 4.014.703 7.791-.469 11.569-1.406.472 0 .708-.469.944-.703-2.125-.938-4.014-1.875-6.139-2.579 0-.234 0-.703.237-.937 1.18-.469 2.124-1.407 3.305-1.641 2.36-.469 4.722-.703 6.847-1.172 2.596-.469 4.485-1.641 5.902-4.219-.472-.234-.708-.469-.945-.703l-2.597-2.578c1.181-.704 2.125-2.11 3.306-2.344 2.361-.703 4.958-.703 7.319-1.407 1.888-.468 4.249-1.172 5.666-2.578 3.777-2.344 6.374-5.625 8.971-8.672zm-71.063-4.454l.236.235c7.555-8.438 15.346-16.876 22.9-25.549 6.847-7.969 13.458-16.173 20.305-24.142 2.124-2.344 2.124-2.812-.709-4.922-1.652 2.11-3.305 4.219-4.958 6.563a208.192 208.192 0 01-26.442 31.174c-.708.703-1.416 1.406-1.889 2.344-2.36 3.515-4.485 7.266-6.846 11.016-.472.937-1.653 2.109-2.597 3.281zm-12.985 54.613c1.652-.938 3.541-2.109 5.666-3.047 0-.234 0-.703-.236-.938-3.07-.234-6.375-.468-9.916-.703 1.889 1.875 3.07 3.047 4.486 4.688zm-12.985-17.11c-1.18 2.109-2.125 3.515-3.306 5.391 4.486-.938 4.722-1.172 3.306-5.391z" fill="#BA9151" fill-opacity=".5"/><path d="M220.273 168.017c-.708.234-1.652.703-2.361.937-16.29 4.688-32.58 5.626-48.635.235-2.36-.938-4.721-2.344-7.082-3.516-.709.469-1.653 1.406-2.597 2.109-.472.235-1.181-.234-1.417-.234.472-1.406.472-2.578.945-3.516.708-.937 1.652-1.406 2.597-2.109 0-.469 0-1.407-.237-2.344.473 0 .945-.235 1.181 0 .708.937 1.889 2.109 1.653 2.812-.945 3.751 1.652 3.985 3.777 4.688 12.985 4.454 26.206 4.688 39.663 2.344l12.041-2.109c.236.234.472.468.472.703zM178.013 229.896c-.472-.703-1.181-1.172-1.653-1.875-4.722-7.266-11.096-13.126-17.943-18.283-7.555-5.859-11.568-14.297-14.401-23.439-.709-2.109-1.181-4.453-1.889-6.563.236 0 .472-.234.944-.234.472 1.172.945 2.109 1.417 3.281 2.597 5.86 5.194 11.72 8.263 17.345 2.597 4.688 7.083 7.735 11.096 11.017 5.431 4.219 10.388 9.141 13.458 15.235.472.938.708 1.875 1.18 3.047 0 .235-.236.469-.472.469zM89.479 116.451c9.443 8.204 18.887 16.408 28.567 24.846.708-.938.944-1.172.944-1.407.236-.234.472-.703-.236-.703-3.777-6.094-7.555-12.188-11.332-18.048l.472-.469c2.125 2.579 4.25 4.922 6.138 7.501 1.889 2.813 3.542 5.625 5.43 8.672.236-.234.473-.468.473-.703h3.777v.703c-.708.235-1.417.703-2.361 1.172.472.703.708 1.407 1.181 2.11-.945.469-1.889.703-3.07 1.172.709.469 1.181.703 1.889 1.172-.236.469-.236.937-.472.937-.472.235-1.417.469-1.653.235-6.61-5.391-13.457-10.548-19.831-16.173-3.778-3.282-6.847-7.267-10.152-11.017 0 .235.236.235.236 0zM131.975 78.715c.236 16.876-.708 33.752 4.013 50.628 0 0-.472.469-.708.938-.236.468-.708.937-1.18 1.406-4.014-17.814-5.667-35.159-2.125-52.972zM122.767 158.876c-7.791 1.172-15.346-.235-22.664-2.813v-.938c1.416.235 2.833.235 4.249.469 4.722.703 9.444 1.407 14.166 1.875.944 0 1.888-.468 2.833-.937.944-.469 2.125-1.641 2.361-1.407 1.18.704 1.888 1.876 2.833 3.048.236.468.236 1.172.472 1.875 1.18 1.875 1.416 5.391 0 7.032-3.541 4.922-8.499 8.203-13.929 11.016-.237-.234-.237-.469-.473-.469l2.125-2.109c3.305-2.579 6.847-5.157 10.152-7.97 1.653-1.406.944-4.922-.944-6.094 0-.703-.472-1.641-1.181-2.578zM185.568 192.627c-.473-.468-.945-.703-1.417-1.171-3.305-2.813-6.611-5.626-10.152-8.204-4.958-3.516-10.388-6.797-15.582-10.313-.944-.703-2.361-.937-3.305-1.406-.708-.469-1.181-1.406-1.653-2.11-.236-.234.236-1.172.472-1.172.709 0 1.417 0 1.889.469 8.027 5.391 16.054 11.016 24.081 16.407 2.597 1.875 4.722 3.985 6.375 6.797-.472.469-.708.469-.708.703zM143.78 131.218l-.708-2.109a54.639 54.639 0 01-5.43 2.344c-.945-3.047.472-3.985 4.485-3.282 3.306-9.141 6.611-18.517 9.916-27.658.236 0 .708.234.944.234-1.18 3.75-2.36 7.735-3.541 11.485l-4.958 14.767c-.236.469-.236 1.407.236 1.875.945 1.172.945 1.407-.944 2.344zM126.781 172.236c.944-3.047 1.653-5.391 2.597-7.969 1.18 1.172 1.889 1.875 2.597 2.812-1.653 1.641-3.069 3.282-5.194 5.157zM132.211 157.704c1.889.937 3.777 1.64 5.902 2.578-1.889 2.813-3.777 2.344-6.138-1.641 0-.469.236-.703.236-.937zM159.125 139.187c-2.124-1.406-4.958-.703-5.194-3.985 1.889-.937 5.194 1.172 5.194 3.985zM152.751 139.187c-.236 1.406-.472 2.578-.708 3.985-.945-.469-1.653-.938-2.597-1.641.708-.938 1.18-1.875 1.889-3.047l1.416.703zM141.183 161.219c-1.417 3.282-3.542 3.985-5.902 1.875 1.888-.469 3.541-.937 5.902-1.875zM134.808 137.781c-1.888.234-3.541.468-5.43.703 1.889-3.048 3.778-3.282 5.43-.703zM144.724 155.595c.708-.469 1.417-.938 2.125-1.172.708-.235 1.416 0 2.361 0-.472.703-.945 1.64-1.653 1.875-.708.469-1.652.234-2.597.234 0-.234 0-.703-.236-.937zM152.987 157c.709-.703 1.181-1.406 1.653-1.875.236.704.944 1.407.944 2.11 0 .703-.944 1.171-1.416 1.874-.472-.703-.709-1.406-1.181-2.109zM146.849 166.376c.236-.469.236-.938.472-1.172.708-.703 1.652-1.172 2.361-1.875 0 .469.472 1.172.236 1.406-.472 1.406-1.181 2.578-3.069 1.641zM165.028 158.172l-2.361-2.344c0-.234.236-.468.236-.703.708.235 1.889 0 2.361.469.472.469.708 1.406.944 2.344-.472 0-.944.234-1.18.234zM145.668 163.564c-.708 1.875-2.125 2.109-3.777 1.64-.236-.234-.236-.468-.473-.937 1.181-.469 2.361-1.172 3.542-1.641.472.234.708.703.708.938zM134.572 145.75c1.18.234 2.361.468 3.541.937 0 .235-.236.704-.236 1.172l-3.541-.703c0-.469 0-.938.236-1.406zM140.474 138.014c.473-.937 1.181-1.874 1.653-2.812 0 0 .708.234.944.469-.472.937-.944 2.109-1.416 3.046-.236-.234-.708-.468-1.181-.703zM93.965 264.116a316.386 316.386 0 00-6.847 12.189c9.916-2.579 19.359-5.626 27.622-11.954-1.18 3.047-3.541 4.219-5.902 5.625-2.361 1.406-4.958 2.813-8.027 4.688 5.194.937 9.68.469 14.166 0v.937c-1.417.235-2.597.938-4.014.938-2.833.234-5.902.469-8.735 0-4.014-.938-7.555 0-10.86 1.641-6.611 2.812-13.222 5.859-19.832 8.907-2.597 1.171-4.958 3.281-7.791 5.156 6.374 3.047 12.749 3.516 19.123 3.75v.704c-.708.234-1.652.468-2.36.703-5.43.234-10.625-.469-15.583-2.579-1.889-.703-3.305-.703-4.958.704-4.958 3.515-10.152 6.797-15.346 10.313-.708.469-1.18.937-2.36 1.875 2.596 1.172 4.957 2.109 7.082 3.047 0 .234-.236.703-.236.938-2.125-.704-4.25-.938-6.138-1.876-1.653-.937-3.07-.703-4.722.235-3.07 1.641-6.139 3.047-9.444 4.453-.236-.234-.236-.703-.472-1.172 1.889-1.172 3.777-2.578 5.902-3.281 6.139-2.344 10.86-7.266 16.055-11.251 1.652-1.172 2.124-4.219 2.833-6.328 1.416-3.516 2.833-7.267 4.25-10.782.471-.938 1.18-1.407 2.124-2.11-3.07 5.157-4.722 10.548-5.666 16.876 2.597-1.875 4.958-3.516 7.083-5.391 5.666-4.922 12.04-8.438 18.887-11.016 2.833-1.172 4.486-2.813 5.902-5.391 1.653-3.047 3.542-5.86 5.194-8.673.472-.703 1.417-1.406 1.889-2.109.944 0 .944.234 1.18.234zM41.08 265.523c7.083-5.86 13.693-11.251 17.235-19.689.236.234.472.234.708.469-.236.937-.473 1.64-.945 2.578-2.833 5.86-7.082 10.313-12.04 14.298-6.847 5.156-10.152 12.891-13.93 20.391 2.125-.937 4.486-1.875 6.61-3.047 2.126-1.171 4.25-2.343 6.375-3.515.236.234.236.468.473.703-.945.703-1.89 1.64-3.07 2.344-2.833 1.406-5.43 2.812-8.263 4.219-2.833 1.172-4.958 2.812-6.374 5.391-2.597 4.922-5.194 9.844-7.791 14.532-.236.234-.473.703-.473.937-.235 0-.472-.234-.708-.234.472-2.11 1.18-4.453 1.653-6.563.708-2.109 1.652-3.985-.472-6.329-1.417-1.64-2.361-4.218-1.889-6.797.236 0 .472-.234.708-.234.945 2.812 2.125 5.391 3.305 8.672 1.89-2.812 3.306-4.922 4.722-7.266 3.07-5.156 5.666-10.547 8.736-15.704 2.833-4.688 3.777-9.375 1.888-14.766-1.416-4.454-1.652-9.376-2.124-14.298-.236-1.875.472-3.985.944-5.625.708 7.266 1.417 14.766 2.36 22.032H39.9c2.361-12.657 8.972-23.673 13.457-35.627.473 0 .709.234 1.181.234 0 .938 0 1.876-.236 2.579-1.653 4.453-3.07 9.141-4.958 13.36-4.25 8.438-6.61 17.345-8.263 26.955zM65.633 348.496c-1.416-1.64-3.069-3.047-4.25-4.688-4.249-6.797-11.096-10.078-17.706-13.594-.708-.469-1.653-.469-2.36-.469-4.487-.937-9.209-1.641-13.694-2.578-3.778-.703-7.791-1.172-11.569-1.875-.472 0-.944-.235-1.416-.235-.236 0-.473-.234-.945-.703 1.18-.234 2.125-.703 3.07-.703 4.25.703 8.735 1.172 12.985 2.344 6.61 1.875 13.457 2.344 20.303 1.641 7.083-.704 13.694.234 20.304 2.344 9.444 2.812 6.61 2.812 13.694-3.282 2.124-1.875 4.957-3.281 7.319-4.688.472-.234 1.416-.234 2.124-.234-4.25 3.281-8.263 6.563-12.276 9.61 0 .234.236.703.236.937 9.207 1.641 18.651 3.282 27.858 4.923 0 .468-.236.937-.236 1.171l-35.413-4.922c5.43 7.032 8.263 16.173 17.234 19.689-.236.234-.472.469-.708.938-1.889-1.172-4.013-1.876-5.43-3.516-2.361-2.344-4.486-5.391-6.847-7.969-2.597-3.048-4.722-6.798-7.555-9.376-1.888-1.641-5.194-2.344-7.79-2.813-4.486-.703-8.972-.703-13.222-.937-.236.468-.236.703-.472 1.172 8.263 3.281 12.985 10.078 17.707 17.11-.472.234-.708.469-.945.703z" fill="#BA9151" fill-opacity=".5"/></svg>