<svg width="125" height="113" fill="none" xmlns="http://www.w3.org/2000/svg"><path d="M37.384 74.832l-1.483 2.565c-.741 1.1-1.36 2.321-2.1 3.42-.866 1.466-2.101 2.321-3.832 2.81-.741.244-1.359.61-1.977.977a131.716 131.716 0 00-6.55 5.008c-1.73 1.343-3.583 1.466-5.684 1.588-2.966.244-5.684-.489-8.28-1.832-2.347-1.222-3.46-3.42-4.078-5.864-.37-1.22-.988-2.565-1.853-3.664-1.36-1.832-1.854-3.664-1.36-5.863 1.236-6.474 5.067-10.627 10.999-13.192 1.854-.855 3.707-1.954 5.56-2.931 1.36-.733 2.596-1.344 4.079-2.199-1.483-.733-2.966-1.465-4.325-2.198-1.73-.855-3.46-1.833-5.19-2.688-3.708-1.954-7.292-7.45-6.92-10.993 0-.366 0-.855.246-1.1 1.236-1.587 1.112-3.297.989-5.13 0-3.42 1.112-6.473 2.595-9.527 1.36-2.687 3.09-4.397 6.055-4.885 1.73-.245 3.46-.855 5.19-.978 1.73-.122 3.46.367 5.438.611a105.292 105.292 0 01-1.977-5.74c-.618-1.955-1.236-3.787-1.73-5.864-.371-1.832.37-2.687 2.348-2.198 3.46.732 6.796 1.71 10.256 2.442.371.123 1.236-.122 1.483-.488 2.101-4.03 5.808-4.764 9.886-4.397.371 0 .99-.122 1.236-.367 3.831-3.176 7.786-2.443 11.74-.366 1.36.733 2.719 1.466 4.078 2.076 2.225 1.1 3.584 2.932 3.831 5.375.37 3.542.494 6.962-.247 10.504-.495 2.443-.37 5.008-.618 7.573-.124.977-.124 1.832-.247 3.054.494-.244.865-.244 1.112-.489 5.56-3.42 11.616-4.641 18.042-4.886 2.224-.122 4.202.49 5.685 2.444.37.488 1.112.854 1.606 1.22.495.367 1.112.612 1.36 1.1.617 1.222 1.483.977 2.595.855 4.448-.488 8.897-.977 13.346-1.221 4.943-.244 9.886-.122 14.582-1.344.494-.122 1.112 0 1.73-.122-2.101 6.718-6.797 10.382-12.852 12.948-4.572 1.954-9.268 3.175-14.088 4.03-1.112.245-1.73.611-2.1 1.71-.742 1.833-1.483 3.543-2.225 5.253-.123.244-.247.488-.247.733-.37 4.885-3.46 7.45-7.785 9.038-.495.245-.989.367-1.73.733 1.235 1.955 2.842 3.176 4.943 3.787 1.236.366 2.471.488 3.707.855 1.236.244 1.606 1.1 1.606 2.32-.123 1.466-.988 2.2-2.471 1.833-2.472-.733-4.943-1.71-7.415-2.565-1.112-.367-2.1-1.1-3.09-1.466-.988-.244-2.1-.367-3.088-.122-1.607.488-3.09 1.221-4.573 1.954-1.236.61-1.36 1.344-.741 2.565 1.112 2.199 2.471 4.031 4.572 5.497 4.078 2.81 7.044 6.351 9.268 10.749 1.36 2.565 3.09 4.885 4.943 7.084 3.831 4.275 5.438 9.405 6.55 14.78.124.855.494 1.71.741 2.931-.617 0-1.359.122-1.977 0-7.167-1.099-12.605-4.886-16.56-10.749-1.976-2.931-3.46-5.985-5.19-9.038-.246-.367-.37-.855-.74-1.466-.99 3.664-4.326 4.641-6.427 6.84-.618.733-1.36 1.344-2.1 1.954-.618.367-1.36.611-1.978.855-.865.245-1.73.245-2.595.611-3.707 1.222-7.291 1.099-10.751-.733-.989-.488-1.854-1.588-2.595-2.687-1.607-2.32-3.09-4.642-4.449-7.084-.494-.978-.618-2.077-.989-3.176-.865-2.199-1.73-4.398-2.595-6.474a326.347 326.347 0 00-2.595-6.596zm24.468-13.558c1.113 1.343 2.348 2.076 3.831 1.954 1.483-.122 3.09-.244 4.573-.488 1.977-.245 3.83-.733 5.808-.733 3.954 0 7.661-.61 11.122-2.321 2.224-1.1 3.83-2.81 4.572-5.252.865-2.443 1.606-4.886 2.472-7.329.37-1.344.988-2.565 1.235-3.909.618-3.42-1.112-6.351-2.348-9.405-.865-2.32-2.842-3.664-4.696-5.13-2.224-1.71-4.448-1.832-7.167-1.588-4.696.489-9.021 1.588-13.1 3.787-1.235.732-2.347 1.587-3.46 2.565-1.112.977-2.1 2.076-3.336 2.809-3.213 1.954-5.19 5.008-6.797 8.062-.988 1.954-.865 2.076.865 3.664 1.73-2.931 4.078-5.252 6.797-7.329 4.943-3.908 6.92-5.008 8.898-4.641-.865.61-1.607 1.099-2.225 1.71-2.348 1.71-4.82 3.175-6.92 5.13-2.842 2.687-5.314 5.619-7.909 8.428.37.855.741 1.588 1.112 2.199 1.73-.123 3.337-.123 4.943-.245v.489c-2.348 1.221-5.313.122-7.785 2.443 1.236.488 2.1 1.1 3.09 1.343 1.73.367 3.089 1.1 4.325 2.199.617.61 1.606 1.1 2.347 1.1 2.596 0 5.19-.245 7.786-.367.988-.122 1.977-.244 3.09-.366v.366c-3.214.977-7.045 1.221-11.123.855zm-17.795 2.32c-1.977 1.833-3.707 3.299-3.954 5.864-.124 1.099-.37 2.076-.495 3.053-.123 1.1-.37 2.199 0 3.176.495 1.832 1.483 3.665 2.225 5.497.865 2.076 1.606 4.275 2.348 6.474.494 1.343.618 2.687 1.236 3.908.865 1.588 2.1 3.054 2.842 4.642 1.853 4.275 5.932 5.496 9.886 4.886 1.73-.245 3.337-.855 4.943-1.344.865-.244 1.73-.489 2.472-1.1 2.1-1.71 4.201-3.42 6.302-5.252.37-.366.865-.733.865-1.221.494-3.054 2.224-5.741 2.224-9.039-.123-5.008-1.853-9.405-5.437-12.947-3.09-3.054-6.055-5.986-9.145-8.917-1.112-.977-2.224-2.077-3.46-2.687-1.36-.733-3.09-1.1-4.572-1.588-.37 1.1-.247 1.832 1.112 2.687 1.977 1.1 3.831 2.565 5.685 4.03.37.245.617.734.865 1.1-.248.245-.371.489-.618.733-.247-.366-.495-.855-.742-1.1-1.853-1.465-3.83-2.686-5.684-4.152-.494-.367-.989-.611-1.36.122-.494 1.221-1.235 2.199-3.212 2.076 2.471 3.665 4.572 7.085 6.796 10.383-.123.122-.247.122-.37.244-3.213-3.176-5.685-6.962-7.786-10.993-3.707 4.397-.741 8.917-.618 13.314-2.471-3.42-2.595-7.451-2.348-11.848zM38.25 23.043c-.865 6.596 1.73 12.337 4.325 18.078.618-.122.989-.367 1.483-.489-.494-3.786-1.236-7.45-.618-11.115h.495c.494 3.909.865 7.817 1.359 11.726 1.236-.244 2.224-.366 3.09-.489.988-5.374 1.977-7.328 3.83-7.328-.123.366-.247.733-.494.977-1.854 3.053-2.595 6.23-1.73 9.771.247 1.1.989 1.222 1.854 1.344.37 0 .988-.489 1.235-.977 2.101-3.787 4.078-7.817 8.28-10.016 1.607-.855 2.348-2.32 2.348-4.153.124-3.42.247-6.962.741-10.383.495-3.42.371-6.84 0-10.26-.123-1.71-.988-3.053-2.471-3.908-2.1-1.222-4.325-2.321-6.55-3.298-2.842-1.344-5.56-1.1-7.909.977-.988.733-1.853.855-3.089.733-2.348-.245-4.82 0-6.55 1.71-2.1 2.076-2.965 4.886-2.842 7.817.124 3.909.742 7.817.247 11.726-.37 3.054.248 5.985 1.73 8.795.742 1.343 1.236 2.809 1.978 4.153.741 1.343 1.606 2.687 2.348 4.03.247-.122.37-.122.617-.244-.123-.489-.123-.977-.247-1.343-.988-2.443-2.1-4.764-2.966-7.207-1.235-3.664-1.359-7.207-.494-10.627zm-3.213 43.484c-.123-.122-.37-.244-.494-.366.989-1.71 2.1-3.42 3.09-5.13-.742-1.71-1.978-1.955-3.584-1.588-2.348.733-4.696 1.343-7.044 1.954-.495.122-.989.244-1.483.244 0-.122-.124-.244-.124-.488 3.213-2.077 6.92-2.687 10.751-3.298-4.201-1.1-8.156.244-12.234.733 3.46-1.344 7.044-1.71 10.751-1.955-.123-.244-.247-.244-.494-.366-4.572-1.344-9.145-.733-13.47 1.1-3.213 1.343-6.055 3.42-9.268 4.885-5.437 2.443-8.527 6.474-9.639 12.215-.247 1.466 0 2.687.989 4.03.865 1.222 1.853 2.688 2.1 4.031.989 5.13 4.573 6.84 9.516 7.085 1.854.122 3.83-.367 5.437-1.222 2.225-1.221 4.202-3.053 6.303-4.52 1.112-.854 2.471-1.465 3.707-2.198.865-.61 1.854-1.099 2.472-1.832 1.235-1.71 2.347-3.664 3.46-5.496.865-1.344 2.1-2.688 2.471-4.276.865-2.687 1.854-5.007 3.955-6.962.247-.244.247-.977.123-1.343-.37-.733-2.966-.611-3.707.122-.742.855-1.483 1.832-2.224 2.809-.495.733-.865 1.344-1.36 1.832zm.37-13.314c-2.841-.977-5.684-2.076-7.784-4.397 2.965.855 5.313 3.054 8.403 3.176-.494-.489-1.236-.855-1.73-1.344-1.73-1.465-1.483-3.053.494-4.153.247-.122.618-.61.618-.855-.124-.855-.124-1.954-.618-2.565-1.36-1.832-2.966-3.664-4.449-5.374a5.427 5.427 0 01-.988-1.344l.37-.366c2.966 1.71 4.696 4.52 6.55 7.328.494-.366.989-.61 1.606-.977-1.977-2.81-3.954-5.496-5.931-8.184.494.123.865.367 1.112.733 1.606 2.199 3.337 4.398 4.943 6.596.494.611.741 1.1 1.606.733-.865-1.71-1.73-3.42-2.471-5.13-1.607-3.42-3.584-6.718-6.302-9.527-1.978-2.077-3.708-4.276-5.685-6.352-.741-.733-1.854-1.1-2.719-1.344-3.336-.855-6.55.245-9.639 1.222-.865.244-1.73.977-2.224 1.71-2.472 3.786-3.707 7.817-3.337 12.337.124.977-.37 2.076-.618 3.175-.123.733-.617 1.588-.494 2.321.742 3.176 2.348 5.985 5.067 7.818 2.471 1.587 5.19 3.053 7.909 4.397 1.606.733 3.336 1.344 5.066 1.466 3.213.244 6.303-.122 9.516 0 1.112.244 1.606 0 1.73-1.1zm61.048-16.49c.37 2.444.618 4.642.989 7.085.247 0 .74 0 1.112-.122 2.966-.733 6.055-1.344 9.021-2.32 4.943-1.71 9.639-3.787 13.223-7.818.865-.977 1.606-2.077 2.347-3.176-4.078.244-7.785.733-11.492.855-2.472 0-3.707 1.71-5.561 3.176 4.572.244 8.403-1.1 12.234-2.321-1.854.977-3.584 2.199-5.561 2.687-3.089.733-6.302.855-9.515 1.222l-3.337.366v.61c3.337.734 6.673 1.467 10.01 2.077 0 .123 0 .245-.124.367-1.977-.244-4.078-.489-6.055-.977-1.483-.367-2.966-.733-4.078-1.466-1.36-.61-2.225-.489-3.213-.244zM24.409 9.119c2.595 1.465 4.448 3.786 6.055 6.229.123 0 .247-.122.37-.122l-.74-5.497c.493.977.864 2.077 1.111 3.176.247 1.344.371 2.687.618 4.03.247 1.589 1.236 2.81 2.224 4.032.124-.611.124-1.1.124-1.588 0-2.932-.247-5.863-.123-8.795 0-.977 0-1.465-.99-1.71-3.46-.855-6.92-1.71-10.503-2.565.123.855.247 1.588.494 2.321l3.337 9.527c.865 2.565 3.707 4.276 6.673 4.153-2.595-4.641-4.82-9.405-8.65-13.191zm62.282 89.9c0 .121-.123.243-.123.243 3.336 3.787 6.673 7.451 10.01 11.238-1.607-11.36-7.91-18.81-17.054-20.765 2.348 3.787 4.078 7.94 8.774 9.405 1.112.367 2.1 1.344 3.213 2.077-.124.122-.124.244-.247.366-1.607-.855-3.09-1.71-4.573-2.565zM75.817 78.373c.123 1.588.37 2.932.37 4.276-.123 2.565 1.236 4.641 2.966 5.862 2.224 1.588 4.943 2.321 7.538 3.42-2.471-5.985-6.426-10.993-10.874-13.558zm19.03 32.247c-4.696-5.13-9.144-10.016-13.593-14.78-1.236 5.008 7.167 14.536 13.593 14.78zm-24.22-40.919h.494c.494-.489.865-1.221 1.483-1.466 2.471-.977 4.943-1.832 7.414-2.687.37-.122.865 0 1.236.122.989.489 1.853 1.1 2.842 1.466 2.595.977 5.314 1.954 7.91 2.81.37.121.74-.245 1.235-.367-.247-.367-.247-1.1-.618-1.222-.618-.366-1.36-.488-2.1-.61-2.225-.245-4.326-1.1-5.809-2.81-1.36-1.588-2.842-2.32-4.943-1.71-.247.122-.618 0-.989.122-.247.123-.617.245-.741.367-.247 1.466-1.483 1.344-2.472 1.588-1.977.366-3.707 1.221-4.82 3.053-.123.489-.123.978-.123 1.344zm-24.84-12.459h.371c.124.61.124 1.1.37 1.71.372 1.1 1.237 2.199 2.349 1.954.741-.122 1.235-1.465 1.606-2.442.247-.733.124-1.833-.247-2.321-.618-.733-1.73-.977-2.719-1.466-.988.61-2.224 1.466-3.46 2.32-1.977 1.589-1.36 3.787.124 5.009.123.122 1.112-.122 1.236-.367.247-.977.37-1.954.494-2.931-.124-.489-.124-.977-.124-1.466zM108.07 31.47c-4.572.245-9.145-.244-13.593 1.466l.494.977c.37 1.466 1.236 1.71 2.595 1.344 1.483-.367 3.089-.61 4.572-.489 2.719.245 4.202-1.71 5.932-3.298zM49.742 51.99c0-.244 0-.366-.124-.61.618-.122 1.236-.366 1.854-.366 1.236-.123 1.483-1.222 1.977-2.077.124-.244-.123-.855-.37-.977-1.854-1.71-4.944-.733-5.809 1.588-.123.244-.123.488 0 .61.247 1.1.618 2.321.989 3.665.247.122.741.244 1.236.489 1.235.733 2.471.366 3.336-.611.247-.244.494-.855.37-1.1-.123-.244-.74-.488-1.111-.488-.618-.122-1.483-.122-2.348-.122zm-9.021 3.665c-.495.245-1.236.489-1.607.855-.618.611-1.112 1.222-1.36 2.077-.246.977.99 1.954 2.225 2.076 1.236.122 1.236-.733 1.36-1.588 0-.61.494-1.099.617-1.71a2.944 2.944 0 000-1.465c-.123-.49-.247-.855-.494-1.222-.494-.733-1.112-1.954-1.73-2.199-.865-.122-1.977.489-2.719 1.1-.494.488-.741 1.343-.988 2.076-.371 1.1.37 1.222 1.112.977.37-.122.618-.488.989-.732.741-.49 1.483-1.1 2.595-.245zm4.448-14.047c-.865.367-1.606.489-2.1.855-.989.855-1.236 4.276-.124 5.13.865.611 2.472.856 3.46.49.989-.367 1.854-1.467 2.595-2.444.248-.366 0-.977 0-1.588 0-.855-.37-1.832-1.235-1.832-.618 0-1.236.733-1.73 1.344-.495.488-.742 1.221-1.236 2.076-.247-.61-.371-.733-.371-.855.124-.977.37-1.832.741-3.176zm35.714 58.631c.495-5.13-1.977-9.161-4.572-13.192-1.112 1.71-1.112 1.954-.37 3.664l2.594 5.497c.618 1.221 1.483 2.565 2.348 4.031zM33.924 28.905v-4.641c0-.367-.247-.855-.494-.977-1.854-.611-3.708-1.1-5.561-1.588-.124 0-.124.122-.247.122 1.977 2.32 3.954 4.52 6.302 7.084zm31.512 35.667c1.236 1.221 2.348 2.443 3.584 3.664 1.854-2.076 3.83-3.908 6.797-4.03 0-.123-.124-.367-.124-.49-3.337.245-6.673.612-10.257.856zm-24.221-19.3l.247-.243c-.618-.49-1.112-1.1-1.73-1.222-.741-.122-1.73 0-2.224.366-1.236.855-.989 2.2.37 2.932.742.489 1.483.977 2.225 1.344.247.122.741.244.988 0 .248-.245.618-.611.618-.978-.247-.732-.37-1.465-.494-2.198zm-1.36 5.742c-.123-.489-.246-1.344-.617-1.588-.865-.733-1.854-1.344-2.966-1.71-.37-.122-1.236 0-1.483.366-.247.244-.124 1.222.124 1.466 1.235.977 2.471 2.565 4.943 1.466zm6.18.122c-.495.855-.99 1.343-.99 1.954 0 .367.742.733 1.237 1.222.37-.733.741-1.344.988-2.077 0-.244-.618-.61-1.236-1.1zm.247-1.1c0-.122-.124-.366-.124-.488-.618-.122-1.236-.367-1.854-.367-.247 0-.741.855-.741.978.247.366.865.855 1.112.855.618-.123 1.112-.611 1.607-.978zm-2.966 1.955c-.495-.855-.989-1.588-1.36-2.321-1.235.733-.741 1.588-.37 2.32.37.856.988.49 1.73 0zm.741 1.343h-.618c-.617.489-1.235 1.1-.494 1.955.247.244.865.244 1.36.244-.124-.733-.124-1.466-.248-2.199z" fill="#BA9151" fill-opacity=".5"/></svg>