<svg width="362" height="237" fill="none" xmlns="http://www.w3.org/2000/svg"><path d="M148.451 47.804c-.657-12.176-6.359-21.286-13.189-29.98-1.139-1.449-2.277-2.898-3.523-4.253-1.314-1.672-1.726-1.502-3.193.334-.556-2.329-2.241-4.241-1.582-6.875.046.522.18 1.156.227 1.678.247 1.472.901 1.842 2.158 1.126.52-.264 1.081-.938 1.688-1.09.912-.23 2.039-.645 2.91-.463 1.936.381 3.104-.446 2.919-2.534-.186-2.088-2.107-3.607-4.28-3.596-.5.059-1.195.1-1.653-.252-3.317-2.37-6.226-1.908-9.011 1.26-2.941-1.198-8.496.062-10.808 2.443-1.663 1.818-1.456 3.701-.683 5.842-.696.041-1.195.1-1.694.158-2.714.481-4.248 2-4.536 4.874-.02.205.047.522-.082.821-.515 1.197-.617 2.223.366 3.244 1.18 1.038 2.488 1.777 4.223 1.209 2.667-1.003 4.475-.322 5.49 2.358 1.566 4.077 3.132 8.154 4.374 12.512 2.35 8.083 6.862 14.29 13.3 19.012 3.121 2.353 6.628 3.808 10.454 4.05-.46 18.393 8.755 29.891 23.813 37.255-.108.093-.216.187-.345.486-1.457-.234-2.806-.563-4.264-.798-11.833-2.102-23.455-1.388-34.967 3.168-4.12 1.7-7.801 3.958-10.431 7.553-2.718 3.484-4.998 7.525-3.035 12.569-.587-.053-.783-.07-1.066-.199-9.208-2.694-18.03-6.285-26.532-11.09-.937-.499-.875-1.115-.598-1.918.55-2.54 1.189-4.968 1.74-7.508 1.44-6.499.233-12.2-4.227-16.952-1.772-2.024-3.544-4.048-5.207-6.165-.35-.446-.788-1.003-1.247-1.355-.37-.241-.958-.294-1.349-.33-.15.505-.407 1.104-.252 1.532.948 2.364 1.984 4.84 3.148 7.015 1.231 2.493 2.679 4.799 2.782 7.708a9.437 9.437 0 01-.01 2.07c-.613-.78-.855-1.32-1.205-1.765-7.886-10.964-10.087-23.487-8.84-36.942.55-6.476 1.1-12.951 1.562-19.538.18-2.78-.336-5.52-1.784-7.825-.592-.985-1.576-2.006-2.493-2.71-2.029-1.426-4.371-.705-5.684 1.56-2.151 3.741-3.54 7.759-4.343 11.83-.211 1.12-.51 2.128-1.22 3.307-.046-.522-.288-1.062-.335-1.584-.469-2.217-.742-4.416-1.32-6.54-.819-2.663-2.498-3.643-5.165-2.64-1.54.586-3.12 1.583-4.134 2.838-3.259 3.953-5.384 8.422-5.898 13.554-.185 1.848.325 3.655.552 5.332.047.522.093 1.044.314 1.79-.37-.241-.566-.259-.654-.37-3.25-2.054-6.72-.916-8.351 2.562-1.503 3.178-1.245 6.516.337 9.455 1.164 2.176 2.653 4.07 4.296 6.394-4.646-2.904-9.295-2.805-13.666.426-4.263 3.137-6.039 8.052-4.683 13.25-1.54.586-2.971 1.078-4.51 1.664C8.672 88.137 5.212 91.14 2.19 94.7c-1.23 1.443-2.043 3.648-1.142 5.49.881 2.047 2.864 2.951 4.908 3.238 3.131.282 6.39.265 9.542.342.587.053 1.282.012 2.044.288l-4.417 2.709c-4.093 2.428-7.048 6.304-9.982 9.976-.798 1.067-1.617 2.34-.782 3.865 1.03 1.543 2.446 2.188 4.181 1.619 3.255-.949 6.4-1.805 9.48-2.978 2.754-.891 5.442-2.099 8.109-3.102 1.494 2.828 3.45 3.004 5.566.605.108-.093.217-.187.237-.392 2.213-4.358 6.282-3.577 9.886-4.081.196.017.458.352.742.481.37.24.72.686 1.2.833 5.767 1.555 11.406 3.41 17.302 4.666 7.832 1.637 15.324.759 21.966-4.443 1.168-.827 1.864-.868 3.172-.129a133.744 133.744 0 0026.732 12.041c.675.164 1.241.422 2.199.716l-1.081.938c-1.75 1.706-3.588 3.302-5.143 5.026-1.771 1.912-1.626 4.41-.05 6.417 3.023 4.311 7.334 5.632 12.246 5.867 5.108.253 10.062.078 14.943-1.347.716-.246 1.411-.287 2.518-.498-4.695 3.513-26.038 10.601-34.528 11.597-2.566-3.96-5.78-7.357-9.94-9.181-3.116-1.42-6.685-2.26-10.186-2.782-3.785-.652-7.74-.594-11.586-.63-2.173.012-4.388.434-6.277.574-.943-1.431-1.319-2.604-2.236-3.308-1.267-1.15-6.93.204-7.965 1.664-.237.393-.69.974-.623 1.291.01 1.865-1.225 2.375-2.656 2.867-.608.153-1.149.622-1.669.886-1.709 1.296-1.894 3.143-.472 4.721.262.335.72.687.983 1.021-.108.094-.02.206-.02.206-1.06.733-2.688 1.207-2.178 3.014.423 1.695 1.927 2.452 3.364 2.892.87.182 1.436.44 1.833 1.408.53 1.602 2.271 1.966 3.872.763 1.17-.826 1.931-.551 2.956.059 4.511 2.271 8.982 4.952 13.75 6.625 9.234 3.421 17.827 1.399 25.57-4.947 1.19-1.032 2.425-1.542 4.032-1.812 14.608-2.93 28.927-6.922 41.963-14.862 2.729-1.619 5.107-3.683 7.661-5.524.432-.375 1.04-.528 1.56-.792 3.856-2.034 7.712-4.069 11.656-5.992.304-.077.52-.264.912-.229-1.596 2.135-3.212 4.475-4.983 6.387-6.497 7.7-10.923 16.415-13.192 26.257-1.78 7.919-1.258 15.526 3.084 22.442l1.778 2.957c1.097 1.859 2.668 2.933 4.773 2.605 1.911-.346 2.878-2.123 3.259-3.953 1.08-4.874 2.052-9.654 3.025-14.435a62.463 62.463 0 012.299-8.182c-.061.616-.015 1.138-.076 1.754-.663 5.637-.24 11.268.987 16.764.758 3.279 2.988 5.655 5.151 7.714 1.246 1.355 3.049 1.103 4.279-.34.906-1.161 1.832-2.527 2.172-3.947 2.428-8.481 3.117-17.326 4.371-25.913.941-6.44 2.536-12.511 4.63-18.64.556-1.607 1.004-3.12 1.6-5.138.222.745.377 1.174.531 1.602 1.381 5.924 4.729 9.954 10.26 11.902 3.332 1.233 6.694.189 9.84-.667 3.342-.838 6.441-2.216 9.165-4.767.324-.281 1.215-.305 1.694-.158 10.16 2.054 20.464 2.672 30.742 2.562 3.759-.076 7.45-.468 11.142-.86 4.496-.528 8.368.236 12.251 2.864 5.279 3.479 10.105 7.539 14.241 12.572 1.313 1.672 2.323 3.42 3.703 5.408-2.065-.082-3.651-.018-4.944-1.895-1.205-1.766-2.734-3.25-4.156-4.828-2.647-3.138-6.108-4.071-9.867-3.996-.695.041-1.823.457-1.972.962-.149.504.227 1.677.773 2.141 2.292 1.76 4.712 3.221 7.025 4.775.458.352 1.025.611 1.375 1.056-4.218-.276-8.347-.441-12.76-.735 1.034-1.46 1.57-2.862.756-4.592-1.056-2.27-3.039-3.174-5.15-3.778-5.923-1.984-12.158-1.821-18.327-1.341-5.777.516-11.024 2.632-15.807 6.033-.952.64-1.817 1.39-2.595 2.252-3.927 4.722-8.906 8.105-14.06 11.266-1.797 1.184-3.506 2.48-5.215 3.776-1.73 1.502-1.658 2.751.217 3.748 7.019 3.843 14.188 7.182 22.149 8.521 3.393.616 6.977.317 10.453.113 4.475-.322 8.795-1.072 13.182-1.506 3.584-.298 6.529-2.104 9.582-4.004 3.465-2.07 6.559-4.381 8.973-7.788 1.745-2.639 1.781-3.983-.558-6.265-.633-.575-1.266-1.15-1.792-1.818 6.648-.334 13.131.975 19.228 3.182-1.21 1.237-2.615 2.457-3.737 3.806-1.143 1.554-2.111 3.331-3.078 5.108-3.12 5.519-2.629 11.467-1.747 17.45 1.083 6.933 4.807 12.136 9.679 16.718 4.697 4.359 9.286 8.811 13.875 13.264.896.909 1.576 2.006 2.452 3.121.263.334.721.686 1.179 1.038 2.934-7.607 1.418-14.165-1.858-20.881-3.122-6.289-7.629-11.562-11.616-17.1-2.081-2.88-4.053-5.854-6.222-8.846-1.401-1.783-1.304-3.742-.228-5.613 2.733-4.622 6.868-7.46 11.996-7.412 1.978-.03 4.094 1.508 5.861 2.599 11.211 7.328 20.632 16.772 29.146 27.379 3.327 4.235 6.33 8.752 9.529 13.286l10.384 14.607c.613.78 1.118 1.654 1.839 2.341 1.813 1.613 4.722 1.15 5.926-1.02.237-.393.319-1.214.077-1.754-.288-1.061-.773-2.141-1.386-2.921-10.492-14.513-21.396-28.856-33.943-41.586-8.415-8.629-17.737-16.097-27.147-23.677-1.375-1.056-2.513-2.505-3.564-3.842-.7-.892-.598-1.919.813-2.206.912-.228 1.823-.457 2.606-.386 6.086.341 11.992-.474 17.692-3.171 2.796-1.302 5.942-2.158 9.067-2.808 5.947-1.225 10.73-4.626 15.271-8.567.757-.657 1.601-1.202 2.574-2.047-.458-.352-.896-.909-1.355-1.261-6.324-3.884-12.889-4.372-19.964-2.731-5.056 1.202-9.649 3.688-14.329 6.063-3.12 1.583-6.523 3.037-9.643 4.62-3.532 1.754-6.802 3.841-9.149 7.566-1.638-1.391-3.275-2.781-4.718-4.154-2.271-1.965-4.65-3.837-6.597-6.084-2.385-2.804-4.662-5.702-6.506-8.975-3.446-6.007-8.508-9.673-14.734-11.58-3.353-1.027-4.388-3.503-5.234-6.893.938.498 1.571 1.073 2.225 1.443 2.158 1.127 3.178.804 4.557-1.143.906-1.161 1.725-2.434 2.152-3.742 2.032-5.513 3.869-11.044 2.117-17.209-.953-3.297-1.17-7.045-1.712-10.511-1.01-5.684-3.689-10.482-6.996-14.923-2.364-3.01-4.924-6.036-7.484-9.063-1.509-1.69-2.616-1.479-3.321.633-.983 2.915-1.574 5.865-2.557 8.78-.983 2.915-1.791 6.053-3.34 8.71-3.526 6.621-4.204 13.396-2.75 20.569 1.093 4.863 2.469 9.855 5.209 14.037a11.385 11.385 0 001.926 2.452c2.076 1.948 3.77 1.79 5.865-.403.443 1.489.907 2.774 1.417 4.581a875.328 875.328 0 00-19.908-4.279c1.208-9.109-2.048-16.031-8.815-21.405-3.296-2.575-7.235-3.655-11.195-4.53-1.545-.346-3.476.205-5.386.55.061-.615-.032-1.66.267-2.668 1.862-8.74 4.29-17.22 7.481-25.426 1.626-4.41 4.015-8.545 6.207-12.698 2.322-4.451 4.535-8.809 5.615-13.683.34-1.42.463-2.65-.717-3.69-1.287-.944-2.616-1.478-4.263-.798-.412.17-.932.434-1.344.604-4.84 1.014-8.017 4.146-10.426 8.486a341.84 341.84 0 01-5.939 10.03c-.237.392-.366.691-.886.955.344-4.422 1.363-8.68 2.773-12.904 1.538-4.522 2.902-9.267 4.44-13.789.746-2.522.905-5.097.066-7.554-.82-2.663-3.477-3.732-5.773-2.488-2.925 1.6-5.762 3.313-7.81 6.028-1.123 1.35-2.703 2.346-3.846 3.9-3.753 4.944-6.022 10.85-6.551 17.12-.596 5.954-.693 11.849-1.005 17.931l.139 1.566c-.391-.035-.499.059-.391-.035l-5.935-11.72c-3.122-6.288-5.137-12.788-6.111-19.815-.408-2.833-3.436-4.141-5.619-2.06a28.057 28.057 0 00-5.482 6.446c-1.982 3.032-2.028 6.446-1.378 9.819.763 4.211 1.742 8.235 2.289 12.634-.747-1.414-1.581-2.939-2.22-4.446-1.144-2.382-2.092-4.746-3.344-7.034-1.823-3.478-3.389-3.619-6.153-.657.242.54.005.932-.427 1.307zm98.158 15.471c.196.018.304-.076.5-.058 2.781 3.772 5.671 7.45 8.452 11.222 2.081 2.88 4.054 5.854 4.771 9.544 1.139 5.384 2.19 10.658 3.026 16.119.923 5.572-.873 10.692-3.235 15.554-1.848 3.666-2.131 3.537-5.469 1.372-.087-.112-.175-.223-.283-.129-.587-.053-1.437-.44-1.673-.047-.433.375-.623 1.29-.489 1.923.268 1.267.84 2.458 1.412 3.649.813 1.73 1.864 3.068 3.78 3.655 6.792 2.165 12.313 6.184 15.806 12.713 1.89 3.795 4.43 7.027 7.51 9.79 4.063 3.784 8.039 7.457 12.123 11.035.088.112.284.129.675.165-.046-.522-.201-.951-.052-1.455.34-1.419.612-3.156 1.39-4.018 3.737-3.806 8.639-5.436 13.19-7.511-1.018 4.258-5.04 3.999-7.681 5.729.978.088 1.977-.029 2.801-.369 3.167-1.061 6.354-2.328 9.52-3.389.412-.17 1.04-.527 1.519-.381l7.385 3.151c-1.236.51-2.363.927-3.403 1.454-4.464 2.187-9.217 3.313-14.129 3.077-1.869-.064-3.563.094-5.366.346-1.498.175-2.667 1.002-3.027 2.627-.36 1.625.212 2.815 1.391 3.854 1.463 1.167 2.73 2.317 4.193 3.485 6.005 5.098 12.247 9.803 18.036 15.088 15.641 14.356 29.079 30.998 41.457 48.374.525.668.922 1.636 1.339 2.399.505.874.052 1.454-.597 2.017-1.276.921-2.234.628-3.46-.933-4.775-6.54-9.55-13.081-14.108-19.81-10.04-15.093-22.411-27.6-37.202-37.633-1.112-.721-2.441-1.255-3.682-1.678-4.964-1.69-12.914 2.773-15.297 7.84-1.245 2.581-1.188 4.968.455 7.291l3.091 4.628 4.404 6.301c-.021.205-.129.299-.258.598-2.873-.88-5.855-1.667-8.708-2.752-.762-.276-1.442-1.373-1.751-2.23-2.298-6.628-1.29-12.751 3.657-17.795.994-1.05 2.163-1.877 3.244-2.815.324-.281.581-.88.818-1.273-.371-.24-.829-.592-1.22-.627-3.373-.822-6.638-1.738-10.032-2.354-3.393-.616-7.023-.84-10.458-1.046-.587-.053-1.54.587-1.797 1.185-.237.393.248 1.472.598 1.918.438.557 1.092.927 1.638 1.39 1.725 1.502 1.838 2.341.567 4.194-3.861 5.038-8.906 8.105-14.457 10.298-2.147.739-4.691.509-6.992.82-2.801.369-5.731 1.037-8.532 1.406-5.603.739-10.865.057-16.241-1.463-5.856-1.666-11.108-4.418-16.665-7.094l1.838-1.595c3.702-2.463 7.687-4.797 11.301-7.371 1.709-1.296 3.424-1.659 5.447-1.166 1.35.328 2.503.639 3.852.968.479.147.85.387 1.7.775-7.178 2.667-13.459 6.244-20.668 7.252.371.241.742.481.938.499 2.821-.575 5.818-.926 8.573-1.817 5.617-1.876 11.168-4.069 16.697-6.057 1.432-.492 2.734-.686 4.253-1.067-3.752 4.944-7.835 9.237-12.988 12.398 1.215-.305 2.538-.703 3.511-1.548 3.805-3.489 7.609-6.979 11.326-10.579.433-.376.906-1.162 1.406-1.22 3.429-.727 7.054-1.436 10.55-1.846 1.195-.1 2.456.117 3.738.129-1.858 1.801-3.588 3.302-4.859 5.155-1.359 1.742-2.172 3.947-3.269 6.024.088.111.283.129.459.352 1.055-1.666 1.914-3.349 3.057-4.903 2.934-3.672 6.152-7.214 11.394-6.327.196.017.52-.264.716-.247.02-.205-.067-.316-.047-.522-1.282-.012-2.544-.229-3.826-.241-3.846-.036-7.24-.652-10.083-3.808-2.297-2.693-5.758-3.626-9.28-3.943-.587-.053-1.302.193-1.802.252l-.062.616c5 .347 9.465 2.095 12.793 6.331-.412.17-.52.263-.716.246-5.231.978-10.55 1.846-15.715 3.141-3.038.762-5.88 1.542-8.888.028-1.503-.757-3.285-.71-5.025-1.074 4.293-5.413 9.4-9.096 15.692-10.808 6.508-1.899 13.094-1.616 19.706-.607 2.24.306 4.594 1.45 6.556 2.559 1.591.868 1.401 1.783.562 3.261-.366.692-.556 1.607-.334 2.352.154.428 1.112.722 1.807.681 1.478.029 2.868-.053 4.346-.023 3.239.188 6.566.488 9.804.676.392.035.912-.229 1.432-.492-.155-.429-.181-1.156-.551-1.397-.721-.686-1.463-1.167-2.4-1.666-1.679-.98-3.358-1.959-5.125-3.051-.829-.592-1.55-1.278-2.291-1.76.02-.205.128-.299.149-.504 2.132.399 4.433.089 6.246 1.702 2.251 2.171 4.502 4.341 6.536 6.699 1.159 1.244 2.38 1.872 3.945 2.013 2.652.135 5.196.364 7.848.5l.324-.282c-.458-.352-.984-1.021-1.483-.962-2.827-.358-3.883-2.628-5.156-4.711l-.875-1.114c-4.487-5.479-9.446-10.173-15.4-13.816-4.274-2.664-8.693-3.89-13.6-3.193-3.496.41-7.1.914-10.447.82-7.585-.166-15.042-.63-22.585-1.206-3.044-.171-6.133-.864-9.352-1.257.211-1.12.422-2.241.545-3.472.871.182 1.741.364 2.416.528 14.531 2.759 29.186 4.286 43.99 1.374 3.625-.71 3.511-1.548 2.213-4.358-2.529-5.303-6.809-8.899-12.077-10.513-7.38-2.218-14.821-3.821-22.241-5.628-2.699-.658-5.417-1.11-8.224-1.673-.087-.112-.067-.317-.242-.54 1.344-.604 2.749-1.824 3.815-1.624 6.875 1.344 13.816 3.005 20.758 4.666.391.035.675.164 1.437.44-.712-2.757-1.376-4.992-1.954-7.115-.242-.54-.746-1.414-1.05-1.337-.587-.053-1.432.492-1.668.885-.711 1.179-1.493 1.108-2.323.516-.741-.481-1.375-1.056-1.792-1.819-3.374-4.757-4.884-10.383-5.982-16.178-.876-5.05-.754-10.218 1.588-14.874 2.579-5.05 4.287-10.282 5.429-15.772-.165-2.293.627-4.293 1.203-6.106zm-82.831 69.077c-.432.375-1.06.733-1.688 1.091-7.821 4.163-15.93 7.265-24.684 7.926a23.72 23.72 0 00-3.713.598c-4.773 1.331-9.422 1.43-14.335 1.194-4.521-.2-8.46-1.28-11.201-5.462-.855-1.32-1.123-2.587-.304-3.86 1.94-2.621 4.056-5.02 7.048-6.304 7.434-3.266 15.353-5.453 23.144-7.34 4.057-1.085 8.249-1.536 12.198-2.526 7.595-1.905 15.014-4.033 22.836-4.261 1.782-.047 3.604-.504 5.406-.756 1.715-.363 2.086-.123 2.097 1.743-12.374 2.303-23.907 7.064-35.548 11.919 1.086-.006 2.193-.217 3.125-.651 6.658-2.404 13.228-4.919 19.952-7.006 5.705-1.765 11.652-2.99 17.532-4.531 1.215-.305 2.297-1.244 3.275-1.155 2.652.135 5.175.569 7.698 1.004.392.035.742.481 1.005.815-.325.282-.865.751-1.169.827-2.348-.211-4.696-.423-7.024-.84-2.044-.288-4.089-.575-5.468 1.372-.582.88-.139 2.369-.282 3.807-5.685 1.559-9.958 6.767-15.745 9.353-1.488-1.895-3.193-3.602-5.886-3.327-1.89.14-2.837 1.712-1.699 3.161.855 1.32 2.163 2.059 3.43 3.209zm17.668-22.644c.067.317.154.428.221.745-.628.358-1.169.827-1.864.868-4.691.509-9.361.814-14.093 1.734-7.445 1.401-14.932 3.212-22.398 4.818-2.518.498-4.995.586-7.492.879-4.408.638-8.728 1.388-13.048 2.138-2.409.405-4.541.006-6.612-1.01-1.133-.516-1.55-1.278-1.818-2.545-.716-3.69 1.245-6.517 3.165-8.933 2.285-3.108 5.575-5.401 9.174-6.838 10.926-4.608 22.069-5.469 33.532-3.608 10.396 1.662 20.453 4.743 29.955 9.431 2.353 1.144 4.491 2.476 6.628 3.808.458.352.788 1.003 1.226 1.56-1.869-.065-3.522-.317-4.98-.552-.195-.018-.391-.035-.479-.147-.335-1.584-1.746-1.296-2.811-1.496-.284-.129-.871-.182-.938-.499-.489-2.012-1.792-1.818-3.29-1.643-.5.059-.979-.088-1.545-.346-9.038-3.403-18.451-4.044-27.967-3.658-.587-.053-1.107.211-1.802.251.088.112-.021.206.067.317l6.782.3c-.267 2.669.284 4.065 2.421 5.397 2.421 1.461 3.656.951 4.268-2.205 4.501.406 9.109.717 13.698 1.234zm18.701-5.358c-1.36-2.194-3.997-3.467-4.08-6.582.041-.41-.505-.874-.66-1.302-.504-.874-1.205-1.766-1.71-2.64-2.859-5.954-5.09-12.265-6.41-18.805-.536-2.534-1.679-4.916-1.737-7.303a401.57 401.57 0 01.397-21.714c.205-5.989 2.521-11.373 5.686-16.37l1.035-1.46c-1.065 3.736-2.696 7.214-2.5 11.167.345-.486.602-1.085.772-1.794l2.501-7.232c1.796-5.12 5.23-8.85 9.91-11.225 1.972-.962 3.496-.41 4.161 1.825.577 2.123.371 4.176-.225 6.194l-3.458 10.874c-2.095 6.129-3.777 12.088-4.131 18.58-.036 1.344.124 2.705-.195 3.919-2.66 9.807-3.95 19.737-2.393 29.82.454 3.355 1.428 6.446 3.422 9.215.875 1.115.737 3.484-.385 4.833zM159.07 76.829a84.38 84.38 0 01-.325.281c.351.446.505.874.856 1.32l7.442 9.474c.876 1.115 1.752 2.23 2.843 3.156 5.259 3.684 10.537 7.163 15.816 10.642 2.137 1.332 4.362 2.775 6.649 3.603 1.72.569 3.46.933 4.923 2.1 1.179 1.039 1.421 1.579.366 3.244-4.604-3.315-9.769-5.955-15.084-8.091-7.776-3.186-15.444-6.466-22.577-11.148-7.699-4.94-12.628-11.909-15.092-20.83-2.174-7.86-1.543-15.157 4.419-21.456 3.305-3.43 3.413-3.524 5.633.922 4.219 8.148 8.33 16.39 12.657 24.444 1.912 3.59 4.147 6.898 6.362 10.412-2.503-.64-4.366.228-5.457 3.237a246.2 246.2 0 00-9.431-11.31zm10.856 73.994c-.937 3.437-1.502 7.115-2.897 10.2-2.038 4.581-3.206 9.343-4.374 14.106-1.06 4.669-1.924 9.355-3.091 14.118-.191.915-1.292 2.058-2.116 2.398-.716.247-1.916-.587-2.529-1.367-4.054-5.854-6.372-12.277-5.72-19.779.802-8.006 3.89-15.185 7.719-21.883 2.517-4.434 5.776-8.387 9.034-12.34 6.409-7.811 13.782-14.397 23.523-17.041.412-.17 1.107-.211 1.344-.604 1.231-1.443 2.606-.387 3.908-.58-4.901 1.63-7.856 5.506-10.898 9.272-2.049 2.715-4.098 5.43-6.059 8.257-1.745 2.639-3.295 5.296-4.952 8.047-.71 1.179-1.138 2.487-1.935 3.554-3.429 4.663-5.832 9.935-7.953 15.337-1.049 2.598-1.708 5.232-2.562 7.848.196.017.283.129.566.258 2.527-6.504 4.812-13.549 8.992-19.801zm99.106-8.782c-16.168 3.722-32.023 1.361-47.683-.981-1.191-6.84-3.638-12.964-8.145-18.238 4.3-.544 8.362-.696 12.343-.027 6.2 1.18 12.251 2.864 18.342 4.138 5.701 1.239 11.597 2.495 16.85 5.246 3.729 2.201 6.68 5.263 8.293 9.862zM132.236 51.005c1.71 2.64 4.023 4.194 6.227 5.843-1.437-.44-2.765-.974-3.965-1.808-6.762-4.44-11.491-10.46-13.949-18.449-1.417-4.58-3.246-8.992-4.858-13.59-.088-.112.128-.3.149-.505 5.732 2.898 7.551 9.38 11.661 13.686-1.541-3.35-3.405-6.418-4.75-9.75-1.54-3.349-1.866-7.003-2.603-10.487.304-.077.412-.17.716-.247 2.478 3.849 4.847 7.79 7.325 11.639.216-.188.412-.17.628-.358-2.092-4.745-5.419-8.98-4.411-15.104 3.842 3.039 5.887 7.262 7.088 12.03.304-.075.52-.263.824-.34-.335-1.583-.67-3.167-1.093-4.862-.423-1.695-1.061-3.202-.748-5.35 6.964 9.328 14.293 17.963 16.32 30.263-.922-1.636-1.777-2.956-2.437-4.258-.195-.018-.412.17-.607.152 4.707 6.224 3.025 12.183-1.047 18.341-3.553-1.977-6.87-4.347-10.47-6.846zM47.211 93.68c-1.21 1.238-2.1 1.261-3.084.24-1.16-1.243-2.534-2.3-3.39-3.62-2.72-4.387-4.399-9.302 1.97-12.768l.108-.094c2.641-1.73 4.17-4.181 4.303-7.484.056-1.548.22-3.19.385-4.833.38-1.83 1.94-2.621 3.424-1.659a8.632 8.632 0 011.988 1.836c1.448 2.305 2.895 4.61 4.018 7.198 4.06 10.723 10.39 19.475 18.647 26.743.72.687 1.658 1.186 2.487 1.778.216-.188.237-.393.453-.581-1.334-1.466-2.668-2.933-4.022-4.194-5.048-4.805-9.014-10.548-12.744-16.683-2.544-4.165-2.875-8.752-1.815-13.421.592-2.95 1.487-5.977 2.47-8.892.298-1.009.88-1.888 1.266-2.786.195.018.283.13.479.147l.697 7.83c.33 4.588.965 9.098 2.793 13.51 2.798 6.57 7.5 11.86 11.467 17.603l.175.223c1.483.963 1.035 2.476.87 4.118-4.191-3.485-7.797-6.917-10.28-11.697-2.132-4.335-4.245-8.876-6.377-13.21-.242-.54-.505-.874-.855-1.32l-.325.281c.242.54.376 1.173.706 1.825.969 2.158 2.045 4.223 3.014 6.382 2.952 6.998 6.769 13.245 12.62 17.915 2.008 1.63 2.101 2.675 1.139 5.384-1.396-.85-2.88-1.812-4.491-2.475-1.612-.663-3.352-1.027-5.072-1.597-.48-.146-.938-.498-1.288-.944l-2.452-3.121-12.959-16.496c-.263-.334-.525-.668-.896-.91l-.432.376c3.636 5.092 7.36 10.295 11.192 15.405-6.4-2.13-10.3-7.557-14.868-12.214 2.261 4.035 5.604 7.133 8.792 9.802-2.626.592-5.252 1.184-7.899 1.981-1.02.323-1.714.364-2.523-.434-1.597-1.801-3.39-3.62-4.986-5.42l-.324.281c1.705 1.707 3.564 3.843 5.619 5.995zm143.738 5.906l-1.113-.722c-3.059-2.968-5.923-5.919-8.874-8.981-11.892-12.36-18.476-27.454-20.772-44.957-.479-4.082.761-7.595 3.242-10.686l.973-.845c.176 4.16.156 8.3 1.98 11.779.103-1.027.097-1.96-.104-2.91-.232-2.61-.552-5.331-.676-8.035a7.284 7.284 0 01.205-2.053c.34-1.42 1.447-1.63 2.729-1.619 1.282.012 1.18 1.039 1.293 1.877.335 1.584.475 3.15.81 4.734 1.386 6.857 4.009 13.204 7.347 19.304 3.271 5.784 6.022 11.832 7.342 18.372-2.688 1.208-4.021 3.677-4.371 7.167-.35-.446-.417-.762-.592-.985-.175-.223-.35-.446-.633-.575.026.727.268 1.267.51 1.806 2.617 5.415 6.315 9.89 10.229 14.179 1.159 1.244 1.185 1.97.475 3.15zm21.257 49.971c-1.128.416-2.255.833-3.558 1.026-2.605.387-5.164 1.296-7.93.321-5.989-2.3-8.971-7.022-9.508-13.492-.444-5.425.765-10.598 3.215-15.349.967-1.777 2.022-3.443 3.098-5.314.937.499 1.787.886 2.421 1.461 2.467 1.983 5.211 3.162 8.085 4.043 1.632.457 3.203 1.531 4.362 2.775 3.585 3.637 4.961 8.629 6.553 13.433.154.428.113.839.072 1.249-2.442-5.191-4.992-10.289-10.075-13.75.067.317.047.522.134.633 4.414 4.23 7.119 9.756 9.411 15.452.155.428.289 1.061.335 1.583-.138 2.37-1.693 4.094-4.211 4.592-4.536.938-8.692.046-12.487-2.471-.654-.37-1.396-.851-1.942-1.314 3.302 3.508 7.416 4.811 12.025 5.122zm-63.178-8.902c.087.112.154.429.242.54-3.033 1.695-5.978 3.501-9.01 5.195-12.002 6.48-24.848 9.569-37.803 12.752-.304.076-.695.041-.891.023-.695.041-1.498.176-2.127.534-1.992 1.167-3.742 2.873-5.781 3.518-6.03 2.046-12.266 2.209-18.404.414a83.708 83.708 0 01-6.792-2.166c6.844 3.62 14.11 5 21.86 3.523-2.405 1.337-8.615 2.228-11.334 1.775-7.961-1.338-14.872-5.275-21.614-9.921 6.365-.463 12.709-.72 19.073-1.182-6.138-1.796-12.39-.495-18.646-.126 1.756-.774 3.512-1.548 5.247-2.117 7.744-2.41 15.39-2.86 23.203-1.017 2.219.511 4.33 1.115 6.462 1.514.283.129.695-.041 1-.117.02-.205.128-.299.148-.504-4.876-1.579-9.326-4.465-14.373-5.334-5.046-.869-10.113-1.533-15.355-2.419 3.146-.856 5.926-1.02 8.841-.55 5.046.869 10.37.934 15.098 3.017.567.258 1.174.106 1.87.065.02-.205.128-.299.149-.505-1.329-.534-2.637-1.273-4.074-1.713-2.981-.786-6.092-1.274-9.181-1.966-1.35-.329-2.59-.751-3.94-1.08.02-.205.129-.299.15-.505.303-.076.607-.152.89-.023 4.372.705 8.723 1.614 13.095 2.319 5.634.922 9.934 4.313 13.241 8.753 1.401 1.784 2.575 1.889 4.182 1.62a17.223 17.223 0 003.125-.651c2.539-.703 4.902-1.63 7.42-2.128a82.86 82.86 0 0023.7-8.947c3.166-1.061 6.992-.82 10.329-2.591zm44.387-20.34l.263.334c-.129.299-.15.505-.278.804-1.869 3.871-3.541 7.759-3.581 12.106-.042.41-.191.915-.232 1.325-.875 2.821-1.945 5.625-2.82 8.446-1.966 5.83-3.844 11.771-4.764 18.006-1.296 8.998-2.895 18.071-4.582 27.034-.211 1.12-.921 2.299-1.503 3.178-.906 1.162-2.08 1.056-2.847-.152-.593-.986-1.185-1.971-1.366-3.127-.588-3.989-.872-8.053-1.264-12.024-.134-.634-.072-1.25-.206-1.883-.196-.018-.392-.036-.608.152.068 4.253.244 8.411.312 12.664-6.058-10.489 1.565-45.223 11.456-52.307-.726 2.317-1.431 4.428-2.136 6.54-.617 2.223-1.235 4.446-1.744 6.575-.53 2.334-1.06 4.669-1.481 6.909-.314 2.147-.54 4.405-.854 6.552.196.017.392.035.479.146.319-1.214.442-2.445.761-3.66 1.657-6.686 3.205-13.279 4.97-20.059 1.703-6.164 4.694-11.384 9.538-15.401.778-.862 1.622-1.408 2.487-2.158zm9.419-17.173c-.366-3.243-.701-4.827 2.934-7.607 1.925-1.484 3.768-2.146 6.055-1.319l4.31 1.32c7.554 2.442 13.401 10.115 13.753 18.432.165 2.294-.54 4.405-2.6 5.255-1.863.868-3.969 1.196-5.967 1.43-1.998.235-4.042-.053-6.04.181-3.193.334-6.324.052-9.156-1.239-2.353-1.144-4.254-2.869-6.479-4.312l.617-6.158c.02-.206.02-.206.129-.3.833-2.41 2.058-4.786 4.839-4.949 2.693-.276 5.453-.234 8.125-.304.5-.059 1.066.2 1.566.141.02-.205-.067-.317.041-.411-4.161-1.824-8.136-1.561-12.127-.16zm2.145-35.228c-3.814 9.496-4.8 19.35-3.784 29.902-.417-.763-.767-1.208-.834-1.525-.51-1.807-1.129-3.52-1.443-5.309-1.66-9.056-.668-17.977 1.41-26.904 1.399-6.089 4.215-11.531 7.313-16.845 3.099-5.314 6.244-10.105 12.583-11.295.195.018.324-.281.411-.17.979.088 1.978-.029 2.827.358.371.24.444 1.49.166 2.294-1.328 3.401-2.46 6.82-4.071 10.094-2.491 5.16-5.549 10.064-7.561 15.372-3.299 8.299-5.835 16.874-7.502 25.63-.211 1.121-.334 2.353-.241 3.397.139 1.566-.463 2.651-1.935 3.554-1.578-9.878.346-19.233 2.661-28.553zM57.016 98.292c8.765 1.204 17.415 1.569 24.296 7.782.2-2.986.251-5.467.41-8.042.55-6.475-.136-12.44-4.164-17.568-.876-1.114-1.319-2.604-1.978-3.906 2.668 2.933 5.444 5.772 7.68 9.08 2.322 3.42 2.998 7.52 2.175 11.796-.571 2.745-1.142 5.49-1.8 8.124-.66 2.633-.68 2.839 1.566 4.077 3.945 2.012 7.76 4.324 11.834 6.037 8.343 3.444 16.752 7.205 26.551 6.949-2.559.909-4.618 1.759-6.657 2.404-.912.228-2.019.439-2.976.146-9.97-2.97-19.492-7.452-28.777-12.328-1.875-.997-3.44-1.138-5.345.14-6.256 4.304-13.228 4.919-20.298 3.557-3.872-.763-7.791-2.048-11.73-3.128-.675-.164-1.437-.44-2.2-.716 1.931-.551 3.713-.598 5.515-.85 3.929-.785 7.992-.937 11.843.032 4.723 1.15 9.413.64 14.084.336.695-.041 1.236-.51 1.951-.756-.087-.112-.067-.317-.154-.428-5.088-.459-10.731.69-14.327-4.812 2.091.809 4.27 1.731 6.38 2.335 2.874.88 5.155.775 6.628-.128-8.105.099-14.388-4.196-20.507-10.133zm-16.328-1.574l.2.95c-1.343.604-2.857 1.917-4.227 1.794-3.434-.206-6.91 0-10.293 1.248-5.138 2.023-10.53 1.641-15.982 1.874-1.586.065-3.348-.094-4.872-.646-3.744-1.062-4.32-3.185-1.819-6.481 3.732-4.739 8.912-7.172 14.468-8.433 6.271-1.506 12.404-.643 18.625.332.39.035.741.48.916.704.505.874.902 1.842 1.474 3.032-1.37-.123-2.632-.34-3.806-.446-1.174-.106-2.456-.118-3.63-.223l-.062.615c4.156.893 9.171.102 11.762 4.789-.777.862-1.755.773-2.909.463-3.306-.506-6.632-.805-9.959-1.105-.391-.035-.911.229-1.41.287 0 0 .087.112-.021.206 4.042.053 7.74.593 11.545 1.04zm16.77-27.49c-.108.095-.304.077-.412.17-2.036-6.293-4.18-12.493-6.302-18.899-.108.094-.304.076-.412.17 1.046 4.34 2.2 8.588 3.247 12.928-4.1-2.44-3.89-7.496-5.78-11.292-.108.094-.304.077-.412.17.886 2.98 1.793 5.755 2.767 8.846-2.22-.51-3.383 1.249-4.546 3.008-.505-.874-.922-1.636-1.143-2.381-.887-2.98-1.773-5.96-2.572-8.828-1.933-7.32-.013-13.673 4.604-19.367 1.014-1.255 2.662-1.936 4.114-2.633 1.04-.528 2.152.194 2.529 1.367.463 1.284.71 2.757 1.066 4.135 1.165 6.112 2.243 12.113 3.32 18.113.202.95.49 2.012.495 2.945-.194 3.918-.389 7.836-.563 11.549zm245.415 145.978c-.525-.669-.963-1.226-1.421-1.578-3.229-2.259-6.371-4.406-9.728-6.366-3.358-1.959-4.507-5.273-5.873-8.4 3.09.693 5.984 1.368 8.858 2.248.87.182 1.915.587 2.441 1.256 2.673 3.865 5.346 7.731 7.716 11.673 2.282 3.831 3.72 8.207 3.942 12.887.052 1.455-.113 3.097-.277 4.74-1.509-1.69-2.755-3.045-4.11-4.306l-12.454-11.686c-4.238-4.007-7.612-8.765-8.777-14.877-.469-2.217-.547-4.399-.8-6.804.196.018.304-.076.5-.058.067.316.242.539.309.856 1.536 6.353 4.848 11.726 9.329 16.272 3.322 3.303 6.515 6.905 9.925 10.319.175.223.566.259.849.388.108-.094.217-.188.345-.487-3.008-5.45-8.328-8.518-11.877-13.498.108-.094.129-.3.237-.393 3.471 2.798 7.071 5.297 10.866 7.814zM70.724 78.709a2.8 2.8 0 01-.505-.874c-2.26-4.035-3.287-8.581-3.705-13.28-.392-3.97-1.088-7.865-1.784-11.76-.067-.317.19-.915.231-1.326.376-2.762.859-5.619 1.039-8.399.102-1.026-.753-2.346-1.561-3.144-.896-.91-1.74-.364-2.168.944-.849 3.548-1.785 6.985-2.634 10.534-.15.504-.407 1.102-.576 1.812-1.02-3.613-1.953-7.115-1.192-10.775.74-3.455 1.697-7.097 2.83-10.516.596-2.018 1.564-3.795 2.444-5.684.752-1.589 2.183-2.081 3.512-1.547 1.503.756 2.986 1.719 3.301 3.508.315 1.789.717 3.69.727 5.554-.174 3.713-.456 7.52-.826 11.215-1.65 11.555-2.369 22.676.867 33.738zm-44.58 32.131c-.55 2.539-1.477 3.906-3.711 4.533-2.95.873-5.855 2.269-8.913 3.236a79.593 79.593 0 01-7.615 2.111c-.608.152-1.653-.253-1.983-.904-.35-.446-.14-1.566.205-2.053 2.785-3.167 5.483-6.445 8.51-9.072 4.412-3.642 9.638-5.553 14.931-7.148 2.647-.797 5.427-.961 8.229-1.33-.021.205.154.428.134.633-2.96 2.944-5.725 5.906-8.685 8.85-.325.281-.932.434-1.52.381-3.995.469-7.769 1.682-11.389 3.324-.52.264-.952.639-1.364.809 2.214-.422 4.274-1.272 6.508-1.899 2.127-.534 4.34-.956 6.663-1.471zm10.56-3.917l.258-.598c3.057-4.903 6.728-9.026 11.928-11.665 5.72-2.902 12.919-1.84 17.338 3.323-.195-.018-.304.076-.5.058-3.305-.505-6.415-.992-9.721-1.497-.48-.147-1 .117-1.499.176.134.633.18 1.155.423 1.695.613.78 1.334 1.467 1.967 2.042 3.497 3.525 6.907 6.939 10.6 10.483-2.044-.288-3.873-.763-5.721-1.033-.87-.182-1.849-.271-2.807-.564-2.873-.88-5.685-2.376-8.62-2.641-4.413-.294-8.996.122-13.646.221zm.444-21.192c-.588-.053-.87-.182-1.175-.106-5.046-.868-9.917-1.514-15.02-.835-1.607.27-2.328-.417-2.447-2.188-.036-2.593.494-4.927 2.177-6.95 5.416-6.762 12.136-5.846 18.687-.285-2.96 2.944-3.31 6.434-2.222 10.364zm3.648-11.789c-.809-.798-1.53-1.484-2.143-2.264-1.926-2.452-4.069-4.717-5.583-7.339-1.602-2.733-1.685-5.848.08-8.693 1.055-1.665 2.595-2.252 4.335-1.888 1.74.364 3.286.71 3.93 3.15.799 2.87 2.118 5.474 3.22 8.266.067.316.33.65.201.95-.556 1.607-1.199 3.103-2.079 4.991-1.798-2.751-3.528-5.185-5.151-7.714-.062.616.072 1.25.423 1.695l3.353 4.963c1.293 1.877 1.293 1.877-.586 3.883zm274.426 74.124c2.533-1.636 24.931-6.454 27.042-5.85-.108.094-.02.206-.128.299-3.872 3.173-7.898 5.917-12.692 7.453-4.989 1.519-9.644.685-14.222-1.902zm-7.425 1.195c-.088-.111-.155-.428-.242-.539 6.028-5.982 13.509-8.726 21.758-10.262-1.338 1.537-2.461 2.886-3.562 4.029-.433.376-1.061.733-1.668.886-2.647.797-5.273 1.389-7.832 2.298-2.883 1.19-5.571 2.398-8.454 3.588zM105.37 15.649c.617-2.223 2.419-2.475 4.046-2.95.912-.228 1.478.03 1.875.998.773 2.14 2.39 3.736 4.028 5.127 1.375 1.056 2.405 2.599 3.652 3.954-1.633-.458-3.394-.617-4.681-1.561-2.117-1.537-4.053-1.919-6.417-.992-.932.433-2.786-.77-2.791-1.702.036-1.343 1.143-1.554 2.25-1.765l1.823-.457c.02-.205.041-.41-.134-.634-1.087.006-2.173.012-3.651-.018zm13.214 4.09a59.096 59.096 0 00-3.101-2.557c-2.966-1.925-3.616-5.297-4.178-8.559-.335-1.584.726-2.317 2.183-2.082 2.045.288 2.9 1.608 3.194 3.602.268 1.267.623 2.646 2.209 2.581 1.195-.1 1.633.458 1.658 1.185-.736.452-1.735.57-1.884 1.073-.257.599-.056 1.549-.092 2.892-2.148-3.197-4.79-5.403-5.615-8.998.048 4.457 3.843 6.974 5.626 10.863zM38.84 100.383l.262.335c-1.291 2.058-2.583 4.117-3.963 6.064-2.07 2.921-4.03 5.748-6.1 8.668-.345.487-.885.956-1.297 1.126-.412.17-1.107.211-1.478-.029-.283-.129-.397-.968-.16-1.361.751-1.59 1.523-3.384 2.558-4.845 1.25-1.648 2.785-3.167 4.211-4.592 1.946-1.689 4-3.471 5.967-5.366zm22.553 44.91c-.36 1.625-.293 1.941 1.252 2.288 2.436.323 4.784.534 7.22.857 3.501.523 6.915.934 10.417 1.457l-.062.615c-6.802-.095-13.625.016-20.427-.079.02-.205.129-.299.257-.598-.525-.669-1.03-1.543-1.643-2.323.55-2.54.55-2.54 2.986-2.217zm-6.161-36.08l-.082.822c-7.06.503-14.207.895-21.266 1.398.88-1.888 1.225-2.375 3.114-2.516 3.389-.316 6.797-.837 10.252-.837 2.673-.07 5.263.681 7.982 1.133zM117.319 3.779c2.559-.909 5.721 1.033 5.629 3.925.005.933-.226 2.258-.875 2.821-.865.75-2.08 1.056-3.167 1.061-.391-.035-.963-1.226-1.097-1.86-.294-1.993-1.236-3.425-3.044-4.105-.196-.018-.175-.223-.458-.352 2.971-1.08 3.357 1.96 4.82 3.127l.432-.376c-.638-1.507-1.493-2.827-2.24-4.24zm223.174 136.413c-.021.206-.042.411.025.728-4.711.715-9.335 1.541-14.046 2.256-.175-.223-.242-.54-.33-.651 1.709-1.296 3.197-3.337 4.912-3.701 3.233-.744 6.519-.034 9.439 1.368zM185.42 82.827c2.416 4.464 4.899 9.245 7.47 14.137l-.433.376c-3.739-4.066-7.35-8.43-10.245-13.041 1.148-.622 2.276-1.038 3.208-1.472zM63.425 41.181c.108-.094.303-.076.412-.17.221.745.638 1.507.664 2.235.258 3.337-.354 6.493-1.836 9.466-.988 1.983-1.801 4.188-2.506 6.3-.15.504-.407 1.102-.556 1.607-.242-.54-.397-.968-.268-1.267 1.4-6.089 2.798-12.177 4.09-18.171zm100.96 64.401c6.499.171 12.848.847 18.816 3.352a2.602 2.602 0 01-1.411.287c-4.202-1.414-8.615-1.708-13.089-1.386-1.978.029-3.069-.898-4.316-2.253zM50.082 150.799c-1.813-1.613-1.582-2.939.802-4.071 1.56-.791 3.1-1.377 4.66-2.169 1.04-.528 1.478.029 1.787.886.242.54.072 1.249.098 1.977l-.35-.446c-2.384 1.131-4.593 2.486-6.997 3.823zm122.925-61.322c3.188 2.67 6.288 5.227 9.497 7.69 2.291 1.76 4.907 3.239 7.436 4.606.937.499 1.504.757 1.252 2.288-6.35-4.611-13.411-8.044-19.416-13.142.561-.674.886-.955 1.231-1.442zM54.954 155.38c-1.025-.611-1.591-.869-2.137-1.332-1.55-1.279-1.407-2.716.37-3.695l1.884-1.073c1.277-.921 2.235-.628 3.522.317-2.1 1.261-4.18 2.316-3.64 5.783zm118.675-67.195c.108-.093.196.018.304-.076 4.846 3.855 9.693 7.709 14.519 11.769-.217.187-.345.486-.562.674-4.671-3.631-9.321-7.468-14.08-11.211-.067-.317-.114-.839-.181-1.156zM61.213 144.137c-1.087.006-2.322.516-2.868.053-1.267-1.15-2.467-1.983-4.352-.91.582-.88 1.164-1.759 1.88-2.006 1.43-.492 2.842-.779 4.34-.955 1.195-.1 1.828.475 1.772 2.024-1.066-.2-1.936-.382-3.002-.581-.02.205-.237.393-.258.598.83.592 1.571 1.073 2.488 1.777zM122.993 4.29c.968-1.777 3.027-2.627 4.16-2.11 1.7.774 2.344 3.214 1.423 5.513-1.278-3.015-2.02-3.496-5.583-3.403zm59.828 106.474c.715-.246 1.647-.68 2.559-.909.607-.152 1.153.311 1.74.364-.386.898-.597 2.018-1.225 2.376-.757.656-1.843.662-2.842.779-.304.077-.87-.182-1.045-.405-.176-.222-.026-.727.102-1.026.129-.299.453-.581.711-1.179zm10.544-6.714c-1.792-1.819-1.721-4.505.184-5.784.216-.187.824-.34.911-.228.284.129.33.651.397.968.005.932-.185 1.847-.18 2.78.181 1.155-.293 1.941-1.312 2.264zM50.618 153.333c1.092.927 2.075 1.948 3.255 2.986-.912.229-1.668.885-2.343.721-1.045-.405-2.05-1.22-3.075-1.83l1.947-1.689c.02-.206.128-.3.216-.188zM185.84 76.651c.067.317.417.763.288 1.062-.839 1.478-1.678 2.956-2.625 4.527-.371-.24-.849-.387-.916-.704-.403-1.9 1.322-4.334 3.253-4.885zm3.726 39.692c-.859 1.684-1.899 2.211-4.139 1.906-.391-.035-1.045-.405-1.025-.61-.067-.317.19-.915.515-1.197 1.081-.938 3.254-.949 4.649-.099zM132.179 3.253c2.477-.087 3.79 1.585 3.065 3.902-.87-.182-1.741-.364-2.698-.658-.093-1.044-.186-2.088-.367-3.243zm34.328 127.481c-1.545-.347-2.719-.452-3.744-1.063-.566-.258-.855-1.319-1.292-1.877.695-.041 1.39-.082 2.064.083 1.046.405 2.611.546 2.972 2.857zM41.137 76.458c1.42-2.357 2.882-5.126 4.519-7.671.108 3.842-1.44 6.499-4.52 7.671zm84.081-70.724c.273 2.2.48 4.082.882 5.983-.654-.37-1.504-.757-2.158-1.127.165-1.642.329-3.285.406-5.038.195.017.674.164.87.182zm37.257 100.194c1.807.681 3.687 2.611 3.564 3.842-2.564-.024-4.444-1.954-3.564-3.842zm11.077-19.924c-.603 1.085-1.097 2.077-1.678 2.956-.237.393-.953.64-1.236.51-.283-.129-.613-.78-.572-1.19-.031-1.66 1.137-2.487 3.486-2.276zm12.81-5.681c.195.018.303-.076.499-.059.995 2.886 1.969 5.978 2.963 8.864-1.447-2.306-2.591-4.688-3.627-7.163-.067-.317.103-1.026.165-1.642zM56.848 152.237c2.466-1.953 4.691-.509 6.864-.521-2.013 1.372-4.233.862-6.864.521zm123.538-60.542l-.216.188c-1.746-1.297-3.492-2.593-5.109-4.189-.371-.24-.376-1.173-.423-1.695.196.017.304-.076.5-.059 1.684 1.913 3.564 3.843 5.248 5.755zm18.86 14.749c-.108.094-.237.393-.345.487-1.2-.833-2.421-1.461-3.708-2.406.345-.487.669-.768.906-1.161 1.071 1.132 2.163 2.059 3.147 3.08zM130.162 7.629c-.227-1.678-.454-3.355-.594-4.921 1.963 1.109 2.257 3.103.594 4.921zm-73.796 151.4c-.824.34-1.452.698-1.931.551-.392-.035-.83-.592-1.092-.927-.175-.223.103-1.026.19-.915.5-.058 1-.117 1.37.124.479.146.83.592 1.463 1.167zm143.395-53.782l-.433.376c-.943-1.432-2.838-2.224-3.394-4.552 1.421 1.578 2.58 2.821 3.827 4.176zM62.717 144.894c.319-1.214 2.229-1.56 4.145-.973a31.565 31.565 0 01-4.145.973zm132.808-27.91c-1.673-.048-3.239-.189-4.804-.33 1.648-.68 3.239.189 4.804.33zM59.181 153.586c-1.127.417-1.843.663-2.755.892-.03-1.66.077-1.754 2.755-.892z" fill="#BA9151" fill-opacity=".5"/></svg>