<svg width="324" height="481" fill="none" xmlns="http://www.w3.org/2000/svg"><path d="M238.497 287.678c-5.524-4.145-11.048-8.29-16.264-12.535-3.58-2.797-7.468-5.493-11.048-8.29-2.002-1.612-4.637-1.599-7.348-.427-3.269 1.639-6.904 3.114-10.23 4.488-3.635 1.475-3.786 3.794-3.207 6.44 2.374 10.848-1.253 21.396-9.593 31.503-1.806 2.294-4.651 4.361-7.247 6.063-2.845 2.067-4.981 1.349-5.002-1.763-.08-3.377.206-6.591.492-9.804-5.752-.667-6.465-2.418-3.642-7.598 2.132-3.818 4.63-7.473 7.128-11.127.499-.731 1.364-1.299 1.864-2.03l-1.097-.491c-7.345 4.109-15.113 7.79-22.4 12.164-7.286 4.374-14.711 5.106-22.367 4.78-3.674-.214-4.195-2.595-1.466-5.191 10.918-10.385 21.527-20.67 38.262-21.051 3.924-.152 8.058-2.358 12.058-3.669-.116-.529-.174-.794.018-1.424-3.193.48-6.751.795-9.886 1.539-4.366 1.148-8.789 2.031-12.753.494-3.964-1.536-4.079-2.066-1.582-5.72-2.251-1.247-5.06-2.028-6.754-3.742-1.271-1.285-2.773-3.628-2.14-5.254.634-1.625 3.479-3.692 5.383-4.033 9.097-2.131 17.118-1.641 23.24 3.726 6.544 5.795 17.683 6.965 25.509 3.548-12.956-12.485-25.662-25.335-39.041-38.249.329 3.012.543 5.494 1.122 8.14.989 9.035-5.104 15.853-15.355 17.228-.981.038-1.962.076-2.827.644-5.922 3.075-10.31 1.11-14.755-1.119-7.062-3.641-9.857-10.381-14.324-15.723-4.583-5.872-7.685-12.512-7.211-20.891.018-1.424-.271-2.747-.869-3.969-.767 2.52-1.592 4.776-2.052 7.195-1.973 10.573-8.217 19.709-14.71 29.212-3.94 6.112-6.531 12.35-7.41 18.877-.402 2.684-1.825 3.717-4.095 3.894-4.847.455-9.828 1.804-14.273-.426-1.828-.818-5.212.291-6.657-1.788l-3.236-5.745c-5.01-10.836-3.768-21.736 4.224-33.431-8.058 2.358-21.285 11.231-26.262 17.117-.807.832-1.556 1.928-2.364 2.76-2.48 2.231-4.865 1.878-6.001-.301-6.53-11.756-2.734-26.046 10.262-35.978 9.592-7.398 20.322-12.617 30.935-18.365 5.614-2.975 10.747-6.642 16.553-10.247-1.578-1.184-2.367-1.776-3.522-2.532-1.364 1.298-2.787 2.331-4.21 3.365-7.304 5.798-15.246 8.685-23.576 8.295-6.983-.263-13.715-.892-20.814-1.684-4.405-.541-5.426-2.192-4.025-6.338.883-1.991 2.132-3.818 3.015-5.809 1.824-3.718 3.225-7.864 5.357-11.682 1.44-2.458 3.555-4.852 5.42-6.881 1.056-1.198 2.902-1.803 4.267-3.101 4.727-5.52 10.172-4.752 15.366-3.619l14.487 2.908c2.02.189 4.174-.517 6.443-.694.036-2.848-.12-5.066 3.573-6.276 1.23-.403 2.172-2.13 3.287-3.063 2.845-2.067 5.748-3.869 8.593-5.936-.173-.794-.231-1.059-.597-1.222-5.024-4.876-3.432-9.652 4.934-12.111 2.461-.807 4.557-1.777 6.056-3.97.749-1.096 1.614-1.664 2.787-2.332 5.441-3.768 17.792-1.578 19.815 3.147.887 2.545 1.467 5.191 1.988 7.573 7.153-3.479 14.555-7.324 22.016-10.904 3.269-1.639 6.693-1.06 8.503 1.183 1.694 1.713 3.388 3.427 5.39 5.039 2.367 1.777 4.177 4.019 3.334 7.699 4.232-.253 5.56 1.297 4.775 5.241-.326 1.525 1.368 3.238 2.523 3.994 2.675 1.675 4.177 4.019 3.583 7.333-.325 1.525-.285 3.213.062 4.801.485 5.229-2.07 8.619-7.974 10.271-1.231.403-2.52.542-3.751.946 8.12 2.443 16.239 4.886 24.051 7.43 6.407 2.153 11.2 5.971 14.128 11.817 1.253 2.709 3.063 4.951 4.315 7.66 2.024 4.725 1.238 8.669-2.932 13.723-4.419 5.419-8.459 5.042-13.538 4.438-1.347-.126-3.001-.151-3.79-.743-8.948-4.723-20.221-4.998-30.168-8.26-3.54-1.109-7.081-2.217-11.486-2.758 3.986 4.649 7.164 10.13 11.957 13.947 9.951 7.798 17.614 17.197 27.008 25.462 16.362 14.488 32.532 29.606 50.816 42.329.366.164.673.063 1.097.491-.174-.793.018-1.424-.098-1.953.054-4.271 1.111-5.469 6.074-5.394 5.636.138 11.214.011 16.543.249 7.348.427 13.314 3.576 18.165 7.658 3.638 3.061 7.525 5.757 12.22 7.621 6.465 2.418 10.027 6.639 12.59 12.322.598 1.222 1.195 2.444 1.908 4.195 5.013-8.733 1.68-16.431-7.555-17.942-2.385-.352-4.405-.541-6.541-1.259-5.926-1.46-6.755-3.741-3.066-9.488-5.234-2.821-5.528-8.681-6.936-13.607-.405-1.853-.369-4.7.938-6.263.749-1.096 4.173-.517 6.443-.694 1.654.025 3.117.68 4.521 1.07 6.176 1.095 9.814 4.156 11.146 10.242.637 2.911 2.813 5.317 4.431 8.19l1.23-.403c.134-.895.326-1.525.153-2.319-.891-7.081-1.782-14.163-2.307-21.081-.677-4.599-7.449-6.916-13.122-4.206-8.018 4.046-16.517 7.4-25.212 6.847-3.674-.214-7.157-1.057-10.639-1.901-3.174-.944-2.465-3.729.322-6.061 7.363-5.533 14.997-8.319 23.808-7.237 1.712.289 3.558-.316 6.02-1.123l-2.194-.982c-7.388-2.116-15.352-2.341-23.391-1.407-6.444.694-11.504-1.334-15.316-5.189-2.965-2.998-2.813-5.317-.065-9.337-.847-.857-1.636-1.449-2.484-2.306-2.233-2.671-1.715-4.826 2.342-5.872 3.443-.845 7.309-1.262 10.618-1.212 7.656.326 13.813 2.846 17.722 8.654 1.387 1.814 3.023 3.263 5.217 4.245-.232-1.058-.771-2.016-1.003-3.074-.637-2.911 1.477-5.305 4.594-4.625 4.155.906 7.869 2.808 11.467 4.181.732.327 1.579 1.184 2.791 2.205-1.524-5.456-2.508-9.955-3.801-14.352-.829-2.281-3.406-2.003-5.56-1.297-11.808 3.304-22.389 1.667-31.087-3.422-3.041-1.839-5.274-4.51-7.2-7.282-1.81-2.242-.254-4.171 3.247-4.751l10.675-.947c3.073-5.545 4.553-6.314 10.345-3.958 3.233 1.209 6.274 3.048 9.198 4.358 1.097.491 1.828.819 3.425.579-1.021-1.651-2.042-3.301-2.755-5.053-2.505-5.417-5.625-10.634-6.534-16.291-1.158-5.292-.471-11.19.641-16.659.785-3.944 4.477-5.154 7.076-2.32 4.717 4.977 9.492 10.218 12.786 16.228 2.157 3.83 1.662 9.098 1.358 13.735-.304 4.637.199 8.442 1.741 12.474.308-.101.673.063.981-.038.094-2.583.745-5.632.532-8.115-.677-4.599-.681-9.135 2.99-13.458 2.114-2.395 4.036-4.159 6.769-2.219 2.422-2.495 4.228-4.789 6.707-7.02 3.653-2.899 7.751-2.257 8.254 1.549 1.064 7.875-1.18 15.7-8.619 22.393-9.976 8.658-14.237 20.832-10.323 31.176 1.484 3.767 3.218 7.169 5.01 10.836 2.747-4.02 3.225-7.864 3.029-11.77-.872-8.505 1.68-16.432 8.271-23.981 1.307-1.562 3.903-3.264 5.807-3.605 2.885-.378 3.156 2.369 3.254 4.322l.011 13.609c.557-.467 1.057-1.197 1.98-1.5 2.903-1.803 5.748-3.87 8.518-4.777 3.692-1.211 7.865-1.728 11.732-2.145 5.154-.555 7.08 2.217 4.083 6.602-2.997 4.386-5.937 9.036-9.665 13.095-4.228 4.789-10.805 6.378-16.478 9.088-2.403 1.071-4.749 2.407-7.095 3.743.482.693.54.958.598 1.223l2.888 4.157c-2.038 1.236-3.71 2.635-5.806 3.605-1.173.668-2.827.643-4.174.518-3.982-.113-4.597.089-4.459 3.73.391 7.813 1.089 15.524 1.423 23.072 6.845-3.378 13.556-5.862 19.304-9.731 5.749-3.87 9.321-10.146 10.624-16.245 1.973-10.572 10.701-17.403 19.544-23.705 1.73-1.135 4.865-1.879 6.635-1.325 1.039.227 1.676 3.138 1.408 4.927-.745 5.633-1.799 11.366-2.544 16.999 4.557-1.777 9.057-3.82 13.306-5.496 3.693-1.211 7.75-2.257 11.559-2.938 5.404-.921 7.388 2.115 4.756 6.665-.442.995-.941 1.726-1.383 2.722-2.975 7.498-6.935 10.497-15.648 11.368 1.155.756 2.617 1.411 3.098 2.104.598 1.222 1.311 2.974.619 4.335-.441.995-3.019 1.273-4.615 1.513-2.885.378-5.828.492-8.771.606-2.943.114-5.77.757-8.405.77-3.982-.112-7.714-.591-11.754-.968-4.405-.541-8.289 1.3-11.942 4.198-4.825 3.567-10.132 6.441-15.131 9.214-1.173.668-2.403 1.072-3.576 1.74-7.403 3.845-8.844 6.302-8.319 13.22l.587 11.718c4.04.378 7.732-.833 10.345-3.958 4.228-4.789 9.17-7.827 15.016-9.743 1.538-.505 3.21-1.904 4.209-3.365 3.363-4.222 7.573-7.588 12.63-10.096 5.672-2.71 8.058-2.358 11.62 1.863.847.856 2.501.881 3.906 1.272 2.867 1.045 6.041 1.99 8.659 3.4 2.982 1.575 2.888 4.158.101 6.49-2.23 1.865-4.883 3.302-7.595 4.475-2.095.97-4.98 1.349-7.018 2.584-8.152 4.941-16.058 4.98-23.504 2.6-2.809-.781-5.021-.339-7.559 1.627-.807.832-2.345 1.336-3.152 2.168-4.728 5.52-10.418 9.654-17.495 11.974-.923.302-1.998 2.924-2.016 4.347.119 5.066 1.893 10.156.724 15.361-1.705 8.783 2.646 13.596 8.901 18.068 4.311 3.124 7.758 6.815 11.512 10.406 1.636 1.449 2.099 3.565-.381 5.796-2.229 1.866-4.499 2.042-6.501.43-11.953-9.411-24.271-18.985-36.532-28.295-5.582-4.409-11.164-8.818-16.438-13.329-2.425-2.04-5.328-.238-7.848.304-2.211.442-4.615 1.513-6.577 1.589-3.616.051-4.695-1.864-4.043-4.913.633-1.626 1.209-3.516 1.842-5.142 2.016-4.348-1.969-8.997-6.816-8.542-8.04.934-16.138 1.603-23.833-.412-1.405-.39-3.233-1.209-3.465-2.267-.232-1.058.96-3.15 2.016-4.348 1.825-3.717 4.978-5.885 8.688-8.519zm51.33-12.573c-.25.366-.134.895-.384 1.26 3.117.68 5.926 1.461 8.985 1.876 8.926 1.611 12.796 5.731 12.264 13.846-.322 6.061-.395 11.757-1.024 17.919-.134.895-.942 1.726-1.441 2.457-.731-.327-1.52-.919-1.636-1.448-2.274-4.36-4.855-8.619-7.128-12.978-.481-.693-.963-1.386-1.137-2.18-1.907-4.196-5.429-6.728-9.817-8.693-4.445-2.229-8.89-4.459-12.586-7.785-5.698-4.938-12.279-7.886-20.858-7.909-4.597.089-8.945-.188-14.215-.161.963 1.386 1.137 2.179 1.868 2.507l9.469 7.105c1.213 1.02 2.983 1.575 4.695 1.864 1.405.39 3.982.113 3.157 2.368-.442.996-2.538 1.967-3.826 2.105-7.309 1.262-14.675 2.259-21.539 7.061-.865.567-1.672 1.399-2.787 2.332l.232 1.058c4.655.176 9.56-.014 14.023.791 7.888 1.385 13.694-2.22 18.73-7.841 2.421-2.495 4.883-3.302 7.941-2.887 4.098.642 8.196 1.284 12.044 2.291 2.078.454 3.656 1.638 5.542 2.721-.25.366-.5.731-.442.996-1.596.239-3.192.479-5.097.82-5.288 1.45-9.132 4.979-13.516 7.55-5.191 3.403-6.592 7.549-8.184 12.325-.576 1.89.463 2.117 2.367 1.776 9.155-1.866 20.036-9.404 22.106-18.023.192-.63 1.365-1.298 2.172-2.13.482.693 1.578 1.184 1.752 1.978.04 1.689-.286 3.213-.13 5.431 1.115-.932 1.672-1.399 2.172-2.13 2.556-3.39 4.094-3.894 6.078-.858 5.104 8.253 9.285 16.808 10.505 26.901.347 1.588-.228 3.478-.322 6.061-1.521-.919-2.867-1.045-3.714-1.902-7.584-6.022-14.86-12.144-22.386-17.902-.789-.592-2.327-.087-3.366-.314.539.958.463 2.117 1.252 2.709 7.218 5.858 14.436 11.716 21.597 17.31l31.297 25.473c1.249-1.828 1.94-3.189-.003-4.536-5.159-3.981-10.067-8.328-15.226-12.309-2.733-1.94-4.601-4.447-4.68-7.824-.333-7.548-.974-14.995-1.307-22.543-.333-7.548.782-8.48 8.973-11.733 2.404-1.071 5.423-2.344 7.037-4.008 7.092-8.28 14.918-11.696 24.999-9.329 3.848 1.007 8.387.654 12.521-1.552 3.269-1.639 6.961-2.849 10.288-4.224 1.231-.403 2.827-.643 3.692-1.21.865-.567 2.288-1.601 2.48-2.231.192-.63-1.021-1.65-1.752-1.978-5.792-2.355-12.218-3.085-18.889 1.087-.865.568-1.788.87-2.711 1.173.496-5.267 6.132-5.13 9.668-8.558-2.269.177-3.25.215-4.539.354-5.596 1.551-9.69 5.445-13.361 9.768-1.614 1.663-3.478 3.692-5.574 4.663-6.038 2.547-11.287 5.685-15.939 10.046-3.844 3.529-8.517 4.777-13.114 4.866-.981.038-2.56-1.146-2.426-2.041-.369-4.7-.065-9.337-.742-13.936-1.256-7.245 3.03-11.77 10.067-15.778 1.173-.668 2.711-1.173 3.826-2.105 5.249-3.139 10.556-6.013 15.804-9.151 3.769-2.37 7.305-5.798 12.268-5.723l13.043.829c3.732.478 7.29.162 10.866-1.577-.347-1.588-1.676-3.137-.868-3.969 1.057-1.197 3.152-2.168 4.633-2.937.923-.303 2.212-.441 3.193-.479 5.636.137 10.02-2.434 12.17-7.677.883-1.991 1.458-3.881 2.284-6.137-.308.101-1.347-.125-2.27.177-10.385 2.27-20.347 4.969-28.477 13.022-.808.832-2.462.807-3.693 1.21.442-.995.518-2.154.96-3.15l2.649-5.973c-.365-.164-.673-.063-1.039-.227-1.422 1.034-3.095 2.433-5.324 4.298-.12-5.066 4.629-7.473 5.838-10.989 1.209-3.516 1.995-7.46 3.088-11.505-1.538.504-1.904.34-2.519.542-7.363 5.533-15.399 11.003-17.354 20.152-2.28 10.673-9.064 18.853-20.043 24.437-5.057 2.508-9.998 5.546-14.997 8.319-2.346 1.336-2.827.643-2.925-1.31-.329-3.011-.293-5.859-.623-8.871-.293-5.859-.894-11.618-1.187-17.477-.12-5.065 2.917-7.763 8.803-7.991 1.597-.239 3.193-.479 4.482-.618-6.465-2.418-6.697-3.476-.333-7.548 5.191-3.403 11.171-6.214 16.901-8.659 8.076-3.782 11.283-10.222 15.048-17.128-9.81.38-18.35 2.045-23.613 11.144-1.441 2.457-2.881 4.915-4.688 7.208-.499.731-1.73 1.135-2.595 1.702-.174-.794-.655-1.487-.771-2.016-.174-.794.268-1.79.46-2.42 1.169-5.204 2.953-10.61 3.757-15.978.344-2.949.072-5.696.051-8.808-6.574 6.125-9.723 12.829-9.14 20.012.525 6.917-1.394 13.218-5.64 19.431-.749 1.097-2.114 2.395-2.787 2.332-1.039-.227-2.252-1.247-2.483-2.306-1.485-3.767-2.411-8.001-4.261-11.932-5.358-12.423-1.944-25.453 10.396-36.872 5.766-5.293 7.435-11.229 7.391-17.453.094-2.584-1.676-3.138-3.54-1.109-4.286 4.525-8.879 9.15-10.182 15.249-.134.895-.884 1.991-1.517 3.617-3.139-3.792-.333-7.548.202-11.127-1.114.933-2.172 2.13-2.305 3.025-.46 2.419-.554 5.003-.398 7.22.369 4.7.68 9.136-2.99 13.459-1.557 1.928-3.711 2.634-4.482.618-2.023-4.725-4.72-9.513-3.417-15.612 2.798-12.828-3.96-21.106-13.238-28.841-.688 5.897-1.799 11.366.224 16.091 1.253 2.709 2.256 5.784 3.816 8.392l6.646 12.284c1.079 1.916 3.08 3.528.89 7.082a6908.523 6908.523 0 00-23.974-8.589c.713 1.751 1.926 2.771 2.889 4.157.539.958.771 2.016 1.002 3.075-1.346-.126-2.635.013-3.674-.214-.307.101-.731-.327-.789-.592-3.812-3.855-9.176-1.246-14.081-1.056l.289 1.323c.424.429.905 1.122 1.637 1.449 8.872 5.883 18.953 8.25 31.127 5.11 6.27-1.488 10.291.313 11.142 5.706l.985 4.499c2.295 7.472 4.897 14.843 7.25 22.579.232 1.059-.517 2.155-.901 3.415-.789-.592-2.194-.982-2.733-1.94-3.562-4.221-6.566-8.908-10.436-13.027-2.234-2.671-5.774-3.779-10.795-4.119 1.079 1.915 1.619 2.873 2.466 3.73 1.27 1.285 2.79 2.204 3.753 3.59.424.429.656 1.487.464 2.117.058.265-1.423 1.034-1.788.87-4.638-1.6-9.333-3.464-13.412-5.53-1.828-.818-2.965-2.998-4.235-4.283-5.506-5.569-13.22-6.159-21.568-5.125-.307.101-.557.467-1.115.933 1.213 1.02 2.676 1.675 3.888 2.696 1.578 1.184 1.868 2.507-.536 3.579-3.884 1.84-2.497 3.654-.919 4.839 3.638 3.061 8.217 4.396 13.68 3.739 7.981-1.198 15.08-.406 21.795 1.647a77.032 77.032 0 019.332 3.464c1.097.491 1.694 1.713 2.541 2.57-1.173.668-2.537 1.966-3.826 2.105-5.828.492-11.906 1.35-17.85 1.314-5.578.127-9.962 2.698-14.979 6.895 3.675.214 6.426.73 9.426.88 6.925-.001 13.694-2.22 19.924-5.396 5.307-2.874 10.02-2.434 14.599-1.099 3.483.843 4.927 2.922 5.006 6.299.583 7.183 2.089 14.062 2.73 21.509.272 2.747-.438 5.532-.84 8.216-.192.63-1.248 1.828-1.922 1.765-.615.201-1.462-.655-2.193-.983-1.271-1.285-2.849-2.469-3.812-3.855-1.81-2.243-4.293-4.548-4.873-7.194-1.372-7.775-8.354-8.038-15.627-9.624 2.313 6.048 2.415 12.537 8.996 15.484 2.559 1.147 1.984 3.037-1.035 4.31 0 0-.558.466-1.173.668zM67.233 228.397c.366.163.981-.038 1.347.125-.384 1.26-.71 2.785-1.093 4.045-2.303 7.561-3.932 15.185-3.29 22.632.582 7.182.582 7.182 8.93 6.148.307-.101.615-.202.673.063 2.02.188 3.135-.744 3.037-2.698.206-6.59 3.413-13.029 7.66-19.242 8.05-11.431 14.33-23.415 16.455-36.306.785-3.945 1.513-8.153 1.375-11.795-.039-1.689-1.791-3.667-3.504-3.956-2.385-.353-2.845 2.067-3.786 3.793-3.783 8.33-7.565 16.66-11.406 24.725-.883 1.991-2.805 3.756-4.362 5.684l-.731-.327c5.954-10.46 10.928-20.882 13.824-31.757-5.42 6.881-8.894 15.11-14.736 21.563.267-1.79.535-3.579 1.534-5.041 3.573-6.276 7.454-12.653 11.276-19.294 2.382-4.184 2.44-3.919 6.961-2.849.366.164.673.063.981-.038 3.576-1.739 5.213-.291 6.599 1.524 3.019-1.274 6.461-2.118 8.076-3.782 2.979-2.962 6.498-4.966 10.382-6.806 2.096-.971 4.018-2.736 5.324-4.298 1.999-2.924 3.573-6.276 5.206-9.364.499-.731 1.364-1.298 1.864-2.029.557-.466 1.365-1.298 1.307-1.562-.522-2.382 2.15-5.243-.026-7.649-.423-.429.21-2.054.652-3.05.442-.995.883-1.991 1.017-2.886-.308.101-.557.467-.865.568-2.31-1.512-5.119-2.293-6.563-4.372-1.502-2.343-2.023-4.725-5.006-6.299-1.828-.819-2.657-3.099-3.678-4.75-.424-.428-.232-1.058-.29-1.323 2.44-3.919.207-6.59-1.104-9.564-.539-.957-1.694-1.713-3.041-1.839-2.077-.453-4.405-.541-6.791-.893-3.116-.68-4.923 1.613-7.094 3.743-2.114 2.395.271 2.747.926 4.234 1.021 1.651 1.734 3.402 2.447 5.153-.307.101-.865.568-1.172.668-.848-.856-1.387-1.814-2.234-2.671-1.271-1.285-2.541-2.57-4.004-3.225-2.559-1.146-4.73.984-6.653 2.749-1.922 1.764-.71 2.784.445 3.54 1.213 1.021 1.734 3.402 4.753 2.129 1.846-.605 3.635-1.475 5.289-1.45 1.289-.139 2.751.516 3.54 1.108.424.428.04 1.689.214 2.482-1.039-.226-2.328-.087-3.674-.213-1.615 1.664-5.557 3.239-6.654 2.748-3.576 1.74-6.23 3.177-8.94 4.349-1.365 1.298-2.364 2.76-3.421 3.957-1.423 1.034-2.904 1.803-4.384 2.572 7.022 1.952-1.86 6.565-.185 9.702-1.654-.025-3.866.417-4.04-.377-.597-1.222.037-2.848.305-4.637-7.808 1.992-14.773.305-21.796-1.647-4.213-1.171-8.619-1.712-12.29 2.611-.499.731-1.422 1.033-1.98 1.5-6.786 3.643-7.532 9.275-9.009 14.58 2.943-.114 5.213-.29 7.482-.467.058.264-.134.895-.076 1.159-1.23.404-2.52.542-4.057 1.047-5.405.921-6.462 2.118-8.42 6.73-.884 1.991-.344 2.949 1.983 3.037 6.002.301 12.062.867 18.064 1.168 12.369.767 22.54-3.986 29.784-14.584.5-.731 1.73-1.135 2.595-1.702 1.195 2.444 4.793 3.817.16 6.754 5.907 2.885 5.907 2.885 3.833 6.968.923-.303 1.846-.606 3.443-.845-.018 1.424-.402 2.684-.478 3.843 1.538-.504 2.769-.908 4.98-1.349-.69 1.361-.825 2.256-1.44 2.457-4.134 2.206-5.593 6.087-7.11 9.704-.633 1.626-1.632 3.088-2.996 4.386-4.42 5.419-9.148 10.939-13.51 16.623-5.918 7.612-12.144 15.325-12.81 24.334-.706 7.322.127 14.138 4.286 19.581.847.857 2.251 1.247 3.406 2.003.25-.365.558-.466.808-.832-1.528-9.992.137-20.463 5.476-30.721zm72.358 15.7c-4.601-4.448-8.163-8.668-9.072-14.326 2.118 2.142 3.928 4.385 5.738 6.627l5.43 6.728c-3.027-7.799-3.084-8.064-2.183-11.479a56.365 56.365 0 001.676 3.137c1.137 2.18 1.965 4.461 3.41 6.54.481.692 2.251 1.247 3.117.679 6.345-2.647 8.343-5.571 7.742-11.329-.213-2.482-.677-4.599-.89-7.082-1.47-9.727-3.613-19.518-10.198-27.001-4.832-5.506-10.28-10.81-14.863-16.681-2.233-2.671-4.927-2.923-9.061-.717 1.445 2.079 2.831 3.893 4.218 5.708 1.386 1.814 2.83 3.893 4.217 5.707-.25.365-.865.567-1.115.933-4.869-2.658-6.892-7.383-10.954-10.873-.941 1.727-1.882 3.453-1.593 4.776 1.854 8.468 3.957 16.57 6.118 24.936.29 1.323.522 2.382.503 3.805l-1.23.404c-5.836-8.58-8.095-18.9-8.757-29.459-2.462.807-4.981 1.349-4.709 4.096.796 9.665 1.958 19.493 2.755 29.158.057.264.115.529.481.693 3.852 5.543 7.088 11.289 11.247 16.732a33.26 33.26 0 008.123 6.979c2.925 1.31 5.6 2.985 9.85 1.309zm-8.75-68.598c.174.794.29 1.323.655 1.487 6.045 6.526 13.897 10.759 22.863 14.058 12.565 4.673 27.454 4.897 39.077 11.296.731.328 1.463.655 2.386.353 1.904-.341 4.231-.253 5.346-1.186 5.882-4.764 6.61-8.973 3.432-14.454-4.373-7.925-11.418-12.989-21.133-15.192-6.965-1.688-14.371-2.379-21.586-3.701-1.039-.227-2.135-.718-3.232-1.209.25-.366.192-.63.383-1.26 4.348.276 9.003.452 13.351.728.249-.365.441-.995.383-1.26-1.346-.126-2.635.013-3.674-.214-3.059-.415-6.425-.729-8.927-1.611-5.791-2.355-12.6-1.825-18.968-2.29-.981.038-2.269.177-3.192.48-.616.201-1.057 1.197-1.249 1.827.058.265.847.857 1.212 1.02 1.655.025 3.617-.051 5.271-.026 1.347.126 2.136.718 3.482.844-.249.365-.192.63-.441.995-2.636.014-5.271.027-8.579-.023 2.617 1.411 4.81 2.393 7.004 3.376l-.749 1.096c-1.039-.227-2.328-.088-3.425-.579-1.404-.39-2.559-1.146-3.848-1.007-1.654-.025-3.192.479-4.731.983.597 1.222.945 2.81 1.792 3.667 2.675 1.675 5.908 2.884 8.891 4.459 1.096.491 1.885 1.083 2.733 1.94-.25.365-.5.731-1.057 1.197-4.272-1.436-8.659-3.4-13.47-5.794zm27.015 34.534l-1.672 1.399c1.021 1.651 2.042 3.301 3.005 4.687 1.694 1.714 3.33 3.162 5.024 4.876 9.26 9.159 18.462 18.053 27.721 27.213 3.331 3.162 6.969 6.223 10.299 9.385 2.002 1.613 1.003 3.075-1.709 4.247-12.383 5.194-22.523 2.562-31.087-3.422-5.466-3.88-11.526-4.446-18.277-3.651-1.289.139-2.711 1.173-3.884 1.841.539.957.887 2.545 1.926 2.772 5.06 2.027 9.18 5.782 15.873 4.722.615-.202 1.404.39 2.136.718 1.404.39 2.501.882 3.848 1.007 3.366.315 6.982.264 10.465 1.107 2.077.454 1.925 2.772-.478 3.844-6.23 3.176-12.402 6.617-19.576 6.984-13.368.696-22.422 9.052-31.859 18.668 6.444-.694 12.388-.658 17.578-4.061 3.461-2.269 7.037-4.008 10.614-5.748 5.364-2.609 10.19-6.176 15.131-9.214 2.038-1.235 4.21-3.365 7.192-1.79-4.206 7.901-8.354 16.067-12.56 23.969.365.163.423.428.731.327 1.365-1.298 2.671-2.861 4.344-4.26 1.115-.932 2.403-1.071 3.576-1.739-.383 1.26-.459 2.419-.843 3.679.058.265-.25.366-.5.731-4.959 4.462-2.686 8.821-2.682 13.358 1.73-1.135 3.153-2.168 4.152-3.63 7.167-9.44 10.353-18.992 8.459-29.148-.984-4.498 1.763-8.518 6.263-10.56 3.942-1.576 8.191-3.253 12.075-5.093 3.327-1.374 5.962-1.387 8.695.553 9.47 7.105 18.94 14.21 28.352 21.051.847.856 2.251 1.247 3.348 1.738.25-.366.499-.731.807-.832-31.641-22.524-59.746-48.477-86.487-75.728zM25.348 240.425a625.31 625.31 0 014.919-6.15c5.477-6.616 13.303-10.032 20.647-14.142 4.692-2.672 9.325-5.609 13.112-9.402 4.651-4.361 8.456-9.578 12.318-14.531 2.863-3.491 5.303-7.411 5.723-11.518-3.23 3.327-5.785 6.717-8.822 9.414-3.344 2.798-7.055 5.432-11.189 7.638-7.902 4.576-9.19 4.714-11.634 4.098 5.556-3.24 11.537-6.051 16.67-9.719 5.133-3.668 9.36-8.457 14.012-12.817-.963-1.386-1.752-1.978-1.868-2.508-5.19 3.404-10.132 6.441-15.073 9.479-10.19 6.176-20.496 11.823-30.32 18.163-11.497 7.739-15.37 23.189-8.496 31.995zm114.481-82.619c7.906-.039 14.888.224 22.371-.243 2.943-.114 6.078-.858 9.154-1.867 2.77-.908 4.018-2.735 3.497-5.117-.405-1.852.112-4.007-.293-5.859-.29-1.323-.33-3.011-1.119-3.604-3.714-1.902-5.332-4.774-5.086-9.676-1.422 1.033-2.537 1.966-3.402 2.533-3.711 2.635-7.421 5.269-11.497 7.739-3.519 2.004-7.403 3.845-10.921 5.849-.865.567-1.615 1.664-2.114 2.395.058.264.423.428.481.693 4.058-1.047 8.174-1.829 12.232-2.876l.232 1.059c-4.268 3.1-12.33.922-13.535 8.974zm24.694-28.797c.286-3.214-1.1-5.028-3.41-6.54-1.52-.919-3.348-1.738-4.311-3.124-1.926-2.772-4.253-2.859-7.83-1.12-4.499 2.042-9.057 3.82-13.498 6.127-1.788.869-3.768 2.369-5.075 3.932-.749 1.096-.402 2.684-.42 4.108 1.289-.139 2.577-.278 3.808-.681 4.25-1.677 8.134-3.517 12.384-5.194.615-.202 1.654.025 3.25-.215-1.422 1.034-1.98 1.5-2.595 1.702-3.019 1.273-6.038 2.546-8.691 3.983-3.269 1.639-4.652 4.361-3.573 6.276 1.56 2.608 2.907 2.734 6.983.263 2.595-1.701 5.306-2.874 8.018-4.046 4.807-2.143 9.73-3.757 14.96-5.471zm139.252 196.258c.307-.101.865-.568 1.172-.669-3.16-6.904-6.262-13.544-9.364-20.184-3.635 1.475-7.519 3.315-11.711 5.256a9989.16 9989.16 0 0119.903 15.597zm-23.609-32.532c-2.386-.352-3.675-.213-4.772-.704-4.944-1.499-5.867-1.196-9.672 4.021 1.828.819 3.888 2.696 5.426 2.192 2.77-.908 5.249-3.139 9.018-5.509zM142.222 143.126c5.922-3.076 11.594-5.786 16.959-8.396-.058-.264-.482-.693-.54-.957-5.115 2.244-9.98 4.122-15.095 6.366-1.846.605-2.903 1.802-1.324 2.987zM260.589 299.72c2.831 3.893 3.87 4.12 5.984 1.725-3.696-3.326-3.696-3.326-5.984-1.725z" fill="#BA9151" fill-opacity=".5"/><path d="M65.85 165.138c-6.413 1.235-12.9 3.551-18.682 1.942l-.168-.74c.892-.282 2.081-.659 3.03-.694 5.464-1.199 10.631-2.305 16.04-3.751 3.624-.882 5.335-.365 4.89 1.891-.185.587-.314 1.422-.91 1.61-5.24 2.186-10.722 4.714-15.962 6.9-.298.094-.948.036-2.603-.234 5.78-2.622 10.072-4.773 14.364-6.924zM119.778 150.932c4.207 1.339 5.163 4.02 3.328 13.272-1.825-1.804-2.8-2.985-4.231-4.617 5.321-3.202-1.186-5.295.903-8.655zM131.946 160.714c-.193.634-.636 1.635-.771 2.535-.735-.33-1.72-.291-2.455-.621-.368-.164-.426-.431-.793-.595l-2.379-1.787c.56-.469 1.313-1.572 1.99-1.509 1.353.127 2.455.621 3.557 1.115.309-.101.425.431.851.862zM115.747 169.693c-1.679 1.071-3.004 2.297-4.44 3.023-1.195.381-2.501.262-3.808.143l2.35-2.356c1.921-1.416 3.843-2.832 5.898-.81zM100.098 156.089c1.843.827 2.639 1.424 3.376 1.755.369.165.796.598 1.164.763.427.433 1.416.394 1.475.661.117.535-.697 1.375-1.008 1.477-.562.47-1.861.611-2.23.445-1.106-.496-2.27-1.259-3.124-2.124-.679-.063-.234-1.068.347-2.977z" fill="#BA9151" fill-opacity=".5"/><path d="M117.17 153.553c-.23-1.044-.097-1.927-.326-2.971 1.638.025 2.972.149 4.611.173-.495.722-.57 1.865-1.18 2.064-.914.299-2.191.436-3.105.734zM107.32 143.211c-.707 1.393-.844 2.309-1.296 3.328-.807-.606-2.244-1.006-2.796-1.986-.493-.709.274-1.831.411-2.747 1.122.503 2.559.902 3.681 1.405zM117.559 153.57c.172.781.706 1.723 1.182 2.405-.913.297-2.435.793-3.158.471-.665-.062-.952-1.363-1.371-1.785l3.347-1.091zM107.916 145.994c.336-1.571.732-2.869 1.187-3.895.815.61 1.887.844 2.066 1.661.179.818-.534 2.22-.672 3.142-.695-.065-1.45-.402-2.581-.908zM113.471 150.593c.019-1.484-.286-2.863-.268-4.348.648-.21 1.68-.25 1.68-.25l.854 3.862-2.266.736z" fill="#BA9151" fill-opacity=".5"/></svg>