<svg width="30" height="31" viewBox="0 0 30 31" fill="none" xmlns="http://www.w3.org/2000/svg">
<g id="icon/action/account_balance_wallet_24px" opacity="0.7">
<path id="icon/action/account_balance_wallet_24px_2" fill-rule="evenodd" clip-rule="evenodd" d="M11.875 20.6667V10.3333C11.875 8.9125 12.9875 7.75 14.375 7.75H25.625V6.45833C25.625 5.0375 24.5 3.875 23.125 3.875H5.625C4.2375 3.875 3.125 5.0375 3.125 6.45833V24.5417C3.125 25.9625 4.2375 27.125 5.625 27.125H23.125C24.5 27.125 25.625 25.9625 25.625 24.5417V23.25H14.375C12.9875 23.25 11.875 22.0875 11.875 20.6667ZM15.625 10.3333C14.9375 10.3333 14.375 10.9146 14.375 11.625V19.375C14.375 20.0854 14.9375 20.6667 15.625 20.6667H26.875V10.3333H15.625ZM17.5 15.5C17.5 16.5721 18.3375 17.4375 19.375 17.4375C20.4125 17.4375 21.25 16.5721 21.25 15.5C21.25 14.4279 20.4125 13.5625 19.375 13.5625C18.3375 13.5625 17.5 14.4279 17.5 15.5Z" fill="#1C1C1C"/>
</g>
</svg>
