<svg width="30" height="30" viewBox="0 0 30 30" fill="none" xmlns="http://www.w3.org/2000/svg">
<g opacity="0.7" clip-path="url(#clip0)">
<path d="M7.62202 26.3386C8.45616 25.7825 8.95392 24.8522 8.95392 23.8499C8.95392 22.8476 8.45616 21.9172 7.62202 21.3612C7.21526 21.0909 6.67198 21.2007 6.40339 21.6048C6.13392 22.009 6.24372 22.5549 6.64708 22.8235C6.99636 23.056 7.19634 23.4302 7.19634 23.8499C7.19634 24.2696 6.99636 24.6438 6.64708 24.8764C5.81294 25.4325 5.31519 26.3042 5.31519 27.3065C5.31519 28.3088 5.81294 29.2977 6.64708 29.8538C7.05776 30.126 7.60069 30.0083 7.86571 29.6101C8.13519 29.2059 8.0262 28.6609 7.62202 28.3915C7.27274 28.1589 7.07276 27.7262 7.07276 27.3064C7.07276 26.8867 7.27274 26.5712 7.62202 26.3386Z" fill="#1C1C1C"/>
<path d="M12.8947 26.3366C13.7289 25.7805 14.2266 24.8502 14.2266 23.8479C14.2266 22.8456 13.7289 21.9153 12.8947 21.3592C12.488 21.0889 11.9447 21.1987 11.6761 21.6029C11.4066 22.0071 11.5164 22.5529 11.9198 22.8215C12.2691 23.0541 12.469 23.4283 12.469 23.848C12.469 24.2677 12.2691 24.6418 11.9198 24.8744C11.0856 25.4305 10.5879 26.3022 10.5879 27.3045C10.5879 28.3069 11.0856 29.2958 11.9198 29.8518C12.3305 30.124 12.8734 30.0063 13.1384 29.6081C13.4079 29.204 13.2989 28.659 12.8947 28.3895C12.5454 28.1569 12.3455 27.7242 12.3455 27.3045C12.3455 26.8848 12.5454 26.5692 12.8947 26.3366Z" fill="#1C1C1C"/>
<path d="M18.1677 26.3366C19.0018 25.7805 19.4996 24.8502 19.4996 23.8479C19.4996 22.8456 19.0018 21.9153 18.1677 21.3592C17.7617 21.0889 17.2168 21.1987 16.949 21.6029C16.6796 22.0071 16.7894 22.5529 17.1927 22.8215C17.542 23.0541 17.742 23.4283 17.742 23.848C17.742 24.2677 17.542 24.6418 17.1927 24.8744C16.3586 25.4305 15.8608 26.3022 15.8608 27.3045C15.8608 28.3069 16.3586 29.2958 17.1927 29.8518C17.6034 30.124 18.1463 30.0063 18.4114 29.6081C18.6808 29.204 18.5719 28.659 18.1677 28.3895C17.8184 28.1569 17.6184 27.7242 17.6184 27.3045C17.6184 26.8848 17.8184 26.5692 18.1677 26.3366Z" fill="#1C1C1C"/>
<path d="M23.4404 26.3386C24.2745 25.7825 24.7723 24.8522 24.7723 23.8499C24.7723 22.8475 24.2745 21.9172 23.4404 21.3612C23.0353 21.0909 22.4895 21.2007 22.2217 21.6048C21.9523 22.009 22.0621 22.5549 22.4654 22.8235C22.8147 23.056 23.0147 23.4302 23.0147 23.8499C23.0147 24.2696 22.8147 24.6438 22.4654 24.8764C21.6313 25.4325 21.1335 26.3042 21.1335 27.3065C21.1335 28.3088 21.6313 29.2977 22.4654 29.8538C22.8761 30.126 23.4191 30.0083 23.6841 29.6101C23.9535 29.2059 23.8446 28.6609 23.4404 28.3915C23.0911 28.1589 22.8911 27.7262 22.8911 27.3064C22.8911 26.8867 23.0911 26.5712 23.4404 26.3386Z" fill="#1C1C1C"/>
<path d="M23.7878 12.3027H6.21204C5.72718 12.3027 5.33325 12.6967 5.33325 13.1815V14.0603H24.6666V13.1815C24.6666 12.6967 24.2727 12.3027 23.7878 12.3027Z" fill="#1C1C1C"/>
<path d="M25.5454 0H4.45441C2.33268 0 0.499102 1.51207 0.0908203 3.51516H29.9089C29.5007 1.51207 27.6671 0 25.5454 0Z" fill="#1C1C1C"/>
<path d="M24.6664 15.8184H5.33301V19.3921H24.6664V15.8184Z" fill="#1C1C1C"/>
<path d="M0.00195312 5.27344V14.9401C0.00195312 17.0619 1.57256 18.8954 3.5757 19.3037V13.1825C3.5757 11.7288 4.7583 10.5462 6.21207 10.5462H23.7879C25.2416 10.5462 26.4242 11.7288 26.4242 13.1825V19.3037C28.4273 18.8954 29.998 17.0619 29.998 14.9401V5.27344H0.00195312ZM20.2727 8.78859C19.7874 8.78859 19.3939 8.39514 19.3939 7.9098C19.3939 7.42447 19.7874 7.03102 20.2727 7.03102C20.758 7.03102 21.1515 7.42447 21.1515 7.9098C21.1515 8.39514 20.758 8.78859 20.2727 8.78859ZM23.7879 8.78859C23.3025 8.78859 22.9091 8.39514 22.9091 7.9098C22.9091 7.42447 23.3026 7.03102 23.7879 7.03102C24.2732 7.03102 24.6666 7.42447 24.6666 7.9098C24.6666 8.39514 24.2732 8.78859 23.7879 8.78859Z" fill="#1C1C1C"/>
</g>
<defs>
<clipPath id="clip0">
<rect width="30" height="30" fill="white"/>
</clipPath>
</defs>
</svg>
