<svg width="50" height="50" viewBox="0 0 50 50" fill="none" xmlns="http://www.w3.org/2000/svg">
<g clip-path="url(#clip0)">
<path d="M32.7583 19.8275C33.7105 19.8275 34.4825 19.0556 34.4825 18.1034C34.4825 17.1512 33.7105 16.3793 32.7583 16.3793C31.8061 16.3793 31.0342 17.1512 31.0342 18.1034C31.0342 19.0556 31.8061 19.8275 32.7583 19.8275Z" fill="#1C1C1C"/>
<path d="M37.4997 8.62066C39.166 8.62066 40.5169 7.2698 40.5169 5.60342C40.5169 3.93705 39.166 2.58618 37.4997 2.58618C35.8333 2.58618 34.4824 3.93705 34.4824 5.60342C34.4824 7.2698 35.8333 8.62066 37.4997 8.62066Z" fill="#1C1C1C"/>
<path d="M39.224 16.3792C40.4143 16.3792 41.3792 15.4143 41.3792 14.2241C41.3792 13.0338 40.4143 12.0689 39.224 12.0689C38.0338 12.0689 37.0688 13.0338 37.0688 14.2241C37.0688 15.4143 38.0338 16.3792 39.224 16.3792Z" fill="#1C1C1C"/>
<path d="M11.6376 15.5172C11.427 15.5173 11.2237 15.4403 11.066 15.3008C10.1038 14.6235 9.51696 13.5323 9.48242 12.356C9.51737 11.1801 10.1041 10.0893 11.066 9.41205C11.7281 8.8155 12.0686 8.47584 12.0686 7.74826C12.0686 7.02067 11.7238 6.68791 11.066 6.11033C10.1031 5.4316 9.5163 4.3388 9.48242 3.16119C9.51696 1.98493 10.1038 0.893724 11.066 0.216363C11.297 0.0121668 11.6194 -0.0532858 11.9117 0.0446601C12.2041 0.142606 12.422 0.38907 12.4833 0.691212C12.5446 0.993353 12.4401 1.30527 12.2091 1.50947C11.5686 2.07412 11.2066 2.43016 11.2066 3.16119C11.2066 3.89222 11.5686 4.2474 12.2091 4.81464C13.1746 5.48402 13.7629 6.5738 13.7928 7.74826C13.7634 8.91692 13.1844 10.0033 12.2307 10.6793C11.5686 11.2698 11.2066 11.6258 11.2066 12.356C11.2066 13.0862 11.5686 13.4431 12.2091 14.0095C12.4776 14.2469 12.5711 14.6256 12.4441 14.9607C12.317 15.2958 11.9959 15.5174 11.6376 15.5172Z" fill="#1C1C1C"/>
<path d="M16.81 15.5172C16.5994 15.5173 16.3961 15.4403 16.2384 15.3008C15.2761 14.6235 14.6893 13.5323 14.6548 12.356C14.6897 11.1801 15.2765 10.0893 16.2384 9.41205C16.9005 8.8155 17.241 8.47584 17.241 7.74826C17.241 7.02067 16.8962 6.68791 16.2384 6.11033C15.2755 5.4316 14.6887 4.3388 14.6548 3.16119C14.6893 1.98493 15.2761 0.893724 16.2384 0.216363C16.4694 0.0121668 16.7918 -0.0532858 17.0841 0.0446601C17.3764 0.142606 17.5943 0.38907 17.6557 0.691212C17.717 0.993353 17.6125 1.30527 17.3815 1.50947C16.741 2.07412 16.3789 2.43016 16.3789 3.16119C16.3789 3.89222 16.741 4.2474 17.3815 4.81464C18.347 5.48402 18.9353 6.5738 18.9651 7.74826C18.9357 8.91692 18.3568 10.0033 17.4031 10.6793C16.741 11.2698 16.3789 11.6258 16.3789 12.356C16.3789 13.0862 16.741 13.4431 17.3815 14.0095C17.6499 14.2469 17.7434 14.6256 17.6164 14.9607C17.4894 15.2958 17.1683 15.5174 16.81 15.5172Z" fill="#1C1C1C"/>
<path d="M21.9828 15.5172C21.7723 15.5173 21.569 15.4403 21.4113 15.3008C20.449 14.6235 19.8622 13.5323 19.8276 12.356C19.8626 11.1801 20.4493 10.0893 21.4113 9.41205C22.0733 8.8155 22.4138 8.47584 22.4138 7.74826C22.4138 7.02067 22.069 6.68791 21.4113 6.11033C20.4483 5.4316 19.8615 4.3388 19.8276 3.16119C19.8622 1.98493 20.449 0.893724 21.4113 0.216363C21.6422 0.0121668 21.9646 -0.0532858 22.257 0.0446601C22.5493 0.142606 22.7672 0.38907 22.8285 0.691212C22.8899 0.993353 22.7853 1.30527 22.5544 1.50947C21.9138 2.07412 21.5518 2.43016 21.5518 3.16119C21.5518 3.89222 21.9138 4.2474 22.5544 4.81464C23.5198 5.48402 24.1081 6.5738 24.138 7.74826C24.1086 8.91692 23.5296 10.0033 22.5759 10.6793C21.9138 11.2698 21.5518 11.6258 21.5518 12.356C21.5518 13.0862 21.9138 13.4431 22.5544 14.0095C22.8228 14.2469 22.9163 14.6256 22.7893 14.9607C22.6622 15.2958 22.3412 15.5174 21.9828 15.5172Z" fill="#1C1C1C"/>
<path d="M17.241 48.2758H13.7927C13.3166 48.2758 12.9307 48.6618 12.9307 49.1379C12.9307 49.614 13.3166 50 13.7927 50H17.241C17.7171 50 18.1031 49.614 18.1031 49.1379C18.1031 48.6618 17.7171 48.2758 17.241 48.2758Z" fill="#1C1C1C"/>
<path d="M28.4478 24.5094V24.5086V23.1103L21.5513 20.2551V31.8965H28.4478V24.5094Z" fill="#1C1C1C"/>
<path d="M19.8274 24.3819V21.537C9.83425 17.8336 3.87046 19.1267 1.75149 19.8732C1.41773 19.9903 1.14452 20.2357 0.992524 20.5551C0.840532 20.8745 0.822348 21.2413 0.942011 21.5741C1.1736 22.2412 1.89 22.607 2.56615 22.4034C2.57253 22.4 2.57916 22.3972 2.58598 22.3948C2.59805 22.3905 2.60925 22.3948 2.62132 22.3905H2.6377C4.15322 21.8551 9.84805 20.4577 19.8274 24.3819Z" fill="#1C1C1C"/>
<path d="M22.4133 36.2069H27.5857C28.0619 36.2069 28.4478 35.8209 28.4478 35.3448V33.6207H21.5513V35.3448C21.5513 35.8209 21.9372 36.2069 22.4133 36.2069Z" fill="#1C1C1C"/>
<path d="M49.0517 25.7439C48.9247 25.4138 48.6713 25.1479 48.3477 25.0054C48.024 24.8628 47.6568 24.8552 47.3275 24.9844C39.2525 28.1163 36.0801 28.0681 30.1724 25.7732V28.6206C32.4299 29.5418 34.838 30.0386 37.2758 30.0862C40.2232 30.0862 43.6206 29.2775 48.2913 27.4638C48.6218 27.3372 48.8879 27.0838 49.0304 26.76C49.1729 26.4361 49.1799 26.0687 49.0499 25.7396L49.0517 25.7439Z" fill="#1C1C1C"/>
<path d="M37.931 48.2758H34.4827C34.0066 48.2758 33.6206 48.6618 33.6206 49.1379C33.6206 49.614 34.0066 50 34.4827 50H37.931C38.4071 50 38.793 49.614 38.793 49.1379C38.793 48.6618 38.4071 48.2758 37.931 48.2758Z" fill="#1C1C1C"/>
<path d="M30.1722 30.4578V35.3449C30.1722 36.7732 29.0144 37.9311 27.586 37.9311H22.4136C20.9853 37.9311 19.8274 36.7732 19.8274 35.3449V26.2328L19.7455 26.2L19.4817 26.094C11.105 22.738 6.02224 23.2828 3.93604 23.7992L8.18948 37.1078C8.94078 39.4606 10.6681 41.3764 12.9309 42.3664V42.2414C12.9309 41.7653 13.3168 41.3793 13.7929 41.3793C14.269 41.3793 14.655 41.7653 14.655 42.2414V46.5517H15.8464L18.1938 41.8561C18.4066 41.4299 18.9246 41.257 19.3507 41.4698C19.7768 41.6827 19.9497 42.2006 19.7369 42.6267L19.4981 43.1035H32.2257L31.9869 42.6267C31.7741 42.2006 31.947 41.6827 32.3731 41.4698C32.7992 41.257 33.3172 41.4299 33.53 41.8561L35.8774 46.5517H37.0688V42.2414C37.0688 41.7653 37.4548 41.3793 37.9309 41.3793C38.407 41.3793 38.7929 41.7653 38.7929 42.2414V42.4466C41.0705 41.514 42.8395 39.6505 43.6524 37.3276L46.1938 30.0569C43.3369 31.1248 40.3242 31.7172 37.2757 31.8104C34.8467 31.7817 32.4418 31.3238 30.1722 30.4578ZM10.9171 37.1414C10.8335 37.1685 10.7463 37.1824 10.6584 37.1828C10.2826 37.1821 9.95052 36.9379 9.83776 36.5793L6.76535 26.9871C6.64601 26.6878 6.70357 26.3469 6.91459 26.1033C7.1256 25.8598 7.45482 25.7543 7.76809 25.8298C8.08136 25.9053 8.32637 26.1492 8.40328 26.4621L11.4722 36.0578C11.6175 36.5103 11.3692 36.995 10.9171 37.1414Z" fill="#1C1C1C"/>
</g>
<defs>
<clipPath id="clip0">
<rect width="50" height="50" fill="white"/>
</clipPath>
</defs>
</svg>
