<svg width="40" height="40" viewBox="0 0 40 40" fill="none" xmlns="http://www.w3.org/2000/svg">
<path d="M3.31944 22.3791H36.6804C38.0554 22.3791 39.17 21.2645 39.17 19.8895C39.17 18.5145 38.0554 17.3999 36.6804 17.3999H3.31944C1.94444 17.3999 0.829834 18.5145 0.829834 19.8895C0.829756 21.2645 1.94444 22.3791 3.31944 22.3791Z" fill="#E9BD54"/>
<path d="M22.4896 12.0298C21.763 12.0298 21.1719 12.6209 21.1719 13.3475V15.0559H31.3702V13.3475C31.3702 12.6209 30.7791 12.0298 30.0525 12.0298H22.4896Z" fill="#E9BD54"/>
<path d="M6.28593 13.3478C6.28593 11.3288 7.92843 9.68627 9.94741 9.68627H17.5103C18.4711 9.68627 19.3461 10.0588 19.9999 10.6663C20.6537 10.0588 21.5287 9.68627 22.4895 9.68627H30.0524C32.0714 9.68627 33.7139 11.3288 33.7139 13.3478V15.0561H37.5177V6.98424C37.5177 5.60924 36.403 4.49463 35.0281 4.49463H4.97179C3.59679 4.49463 2.48218 5.60924 2.48218 6.98424V15.0561H6.28593V13.3478Z" fill="#E9BD54"/>
<path d="M9.94762 12.0298C9.22098 12.0298 8.62988 12.6209 8.62988 13.3475V15.0559H18.8282V13.3475C18.8282 12.6209 18.2371 12.0298 17.5105 12.0298H9.94762Z" fill="#E9BD54"/>
<path d="M0 24.7231V35.5057H2.34375V31.2325H37.6562V35.5057H40V24.7231H0Z" fill="#E9BD54"/>
</svg>
