<svg width="50" height="50" viewBox="0 0 50 50" fill="none" xmlns="http://www.w3.org/2000/svg">
<path d="M8.25498 33.4178C8.1751 33.5373 13.1929 26.0344 13.4569 25.6394C7.21025 22.7312 0 27.318 0 34.2321C0 39.4553 4.24941 43.7048 9.47266 43.7048C14.1979 43.7048 18.1257 40.2271 18.8319 35.6969H9.47451C8.30664 35.6969 7.60322 34.3909 8.25498 33.4178Z" fill="#E9BD54"/>
<path d="M18.832 32.7675C18.4955 30.609 17.4274 28.6897 15.8902 27.2715L12.2146 32.7675H18.832Z" fill="#E9BD54"/>
<path d="M38.5766 24.8425L41.8065 33.7317C42.0828 34.4922 41.6904 35.3325 40.93 35.6089C40.1695 35.885 39.3292 35.4927 39.0528 34.7323L35.8237 25.8453C32.8671 27.4757 30.8594 30.6236 30.8594 34.232C30.8594 39.5091 35.1526 43.8023 40.4297 43.8023C45.7067 43.8023 50 39.5091 50 34.232C50 28.2187 44.492 23.677 38.5766 24.8425Z" fill="#E9BD54"/>
<path d="M32.1522 7.16182C31.9418 6.58271 31.3915 6.19727 30.7754 6.19727H26.2648C25.4559 6.19727 24.8 6.85312 24.8 7.66211C24.8 8.47109 25.4559 9.12695 26.2648 9.12695H29.7492L31.0803 12.7903L24.5868 22.5135H20.7784C19.8387 20.634 18.4682 17.8931 17.8487 16.6541H20.3401C21.1491 16.6541 21.805 15.9982 21.805 15.1893C21.805 14.3803 21.1491 13.7244 20.3401 13.7244H13.309C12.5 13.7244 11.8441 14.3803 11.8441 15.1893C11.8441 15.9982 12.5 16.6541 13.309 16.6541H14.5733L16.5675 20.6424C12.6045 18.5646 7.99247 18.3725 3.97841 19.9179C3.22352 20.2085 2.84706 21.0562 3.13778 21.8112C3.4285 22.5663 4.27645 22.9427 5.03104 22.6519C8.18749 21.4368 11.8716 21.5312 15.0999 23.1831L13.4571 25.6395C14.3527 26.0564 15.1726 26.6092 15.8903 27.2714L18.1744 23.8561L22.6301 32.7674H18.8321C18.9833 33.7367 18.9834 34.7271 18.8321 35.6971C18.8488 35.6971 24.9847 35.6974 25.0014 35.6974C25.4559 35.6974 25.8886 35.4978 26.2184 35.0458L34.6044 22.4889L35.824 25.8455C36.6719 25.378 37.5977 25.0355 38.5768 24.8426L32.1522 7.16182ZM25.1824 31.3216L22.2433 25.4432H25.37C25.8594 25.4432 26.3164 25.1988 26.5882 24.7919L32.3217 16.2067L33.363 19.0725L25.1824 31.3216Z" fill="#E9BD54"/>
</svg>
