<svg width="50" height="50" viewBox="0 0 50 50" fill="none" xmlns="http://www.w3.org/2000/svg">
<path d="M49.7244 29.4111L44.1709 19.3121H44.2242V9.96727C44.2242 8.05642 42.6697 6.50195 40.7589 6.50195H9.24111C7.33026 6.50195 5.77579 8.05642 5.77579 9.96727V19.3121H5.82906L0.275332 29.4111H49.7244ZM12.7998 15.9687C12.7998 14.8484 13.7115 13.9367 14.8319 13.9367H34.8037C36.1251 13.9367 37.2002 15.0115 37.2002 16.3328V16.7651C37.2002 18.0862 36.1251 19.1613 34.8037 19.1613H15.196C13.8747 19.1613 12.7998 18.0865 12.7998 16.7651V15.9687ZM8.17838 19.3123H11.547C12.3531 20.4636 13.6868 21.2196 15.196 21.2196H34.804C36.3129 21.2196 37.6469 20.4636 38.453 19.3123H41.8216L46.2431 27.3528H3.75686L8.17838 19.3123ZM50 31.0477V40.5075C50 42.1564 48.6586 43.4981 47.0097 43.4981H2.99057C1.34166 43.4978 0 42.1564 0 40.5072V31.0474H50V31.0477Z" fill="#1C1C1C"/>
</svg>
