<svg width="40" height="40" viewBox="0 0 40 40" fill="none" xmlns="http://www.w3.org/2000/svg">
<g clip-path="url(#clip0)">
<path d="M36.985 15.4155L34.1797 6.06445C33.5401 3.93188 31.615 2.5 29.3896 2.5H10.6104C8.38501 2.5 6.45995 3.93189 5.8203 6.06445L3.01497 15.4155C1.24358 16.1853 0 17.9481 0 20V30C0 31.3806 1.11939 32.5 2.5 32.5H2.50015L2.5 34.9998C2.5 36.3806 3.61923 37.5 5 37.5H7.50015C8.88076 37.5 10.0002 36.3806 10.0002 35L9.99908 32.5H30L29.9999 34.9998C29.9999 36.3806 31.1191 37.5 32.4999 37.5H35C36.3808 37.5 37.5 36.3806 37.5 35V32.5001L37.4991 32.5H37.5C38.8806 32.5 40 31.3806 40 30V20C40 17.9481 38.7564 16.1853 36.985 15.4155L36.985 15.4155ZM10.6103 7.5H29.3896L31.6396 15H8.36021L10.6103 7.5H10.6103ZM9.99992 26.25C8.61915 26.25 7.49992 25.1306 7.49992 23.75C7.49992 22.3692 8.61915 21.25 9.99992 21.25C11.3807 21.25 12.4999 22.3692 12.4999 23.75C12.4999 25.1306 11.3807 26.25 9.99992 26.25ZM29.9999 26.25C28.6192 26.25 27.4999 25.1306 27.4999 23.75C27.4999 22.3692 28.6192 21.25 29.9999 21.25C31.3807 21.25 32.4999 22.3692 32.4999 23.75C32.4999 25.1306 31.3807 26.25 29.9999 26.25Z" fill="#E9BD54"/>
</g>
<defs>
<clipPath id="clip0">
<rect width="40" height="40" fill="white"/>
</clipPath>
</defs>
</svg>
