<svg width="40" height="40" viewBox="0 0 40 40" fill="none" xmlns="http://www.w3.org/2000/svg">
<g clip-path="url(#clip0)">
<path d="M6.66675 11.25C6.66675 6.885 10.2184 3.33333 14.5834 3.33333H29.8051C29.2568 1.415 27.5084 0 25.4167 0H6.25008C3.72175 0 1.66675 2.055 1.66675 4.58333V30.4167C1.66675 32.945 3.72175 35 6.25008 35H6.66675V11.25Z" fill="#E9BD54"/>
<path d="M33.75 6.6665H14.5833C12.055 6.6665 10 8.7215 10 11.2498V35.4165C10 37.9448 12.055 39.9998 14.5833 39.9998H33.75C36.2783 39.9998 38.3333 37.9448 38.3333 35.4165V11.2498C38.3333 8.7215 36.2783 6.6665 33.75 6.6665ZM30.4167 34.9998H17.9167C17.2267 34.9998 16.6667 34.4398 16.6667 33.7498C16.6667 33.0598 17.2267 32.4998 17.9167 32.4998H30.4167C31.1067 32.4998 31.6667 33.0598 31.6667 33.7498C31.6667 34.4398 31.1067 34.9998 30.4167 34.9998ZM30.4167 28.3332H17.9167C17.2267 28.3332 16.6667 27.7732 16.6667 27.0832C16.6667 26.3932 17.2267 25.8332 17.9167 25.8332H30.4167C31.1067 25.8332 31.6667 26.3932 31.6667 27.0832C31.6667 27.7732 31.1067 28.3332 30.4167 28.3332ZM30.4167 22.4998H17.9167C17.2267 22.4998 16.6667 21.9398 16.6667 21.2498C16.6667 20.5598 17.2267 19.9998 17.9167 19.9998H30.4167C31.1067 19.9998 31.6667 20.5598 31.6667 21.2498C31.6667 21.9398 31.1067 22.4998 30.4167 22.4998ZM30.4167 15.8332H17.9167C17.2267 15.8332 16.6667 15.2732 16.6667 14.5832C16.6667 13.8932 17.2267 13.3332 17.9167 13.3332H30.4167C31.1067 13.3332 31.6667 13.8932 31.6667 14.5832C31.6667 15.2732 31.1067 15.8332 30.4167 15.8332Z" fill="#E9BD54"/>
</g>
<defs>
<clipPath id="clip0">
<rect width="40" height="40" fill="white"/>
</clipPath>
</defs>
</svg>
