<svg width="50" height="50" viewBox="0 0 50 50" fill="none" xmlns="http://www.w3.org/2000/svg">
<g clip-path="url(#clip0)">
<path d="M25 8.33325C15.8101 8.33325 8.33325 15.8101 8.33325 25C8.33325 34.1898 15.8101 41.6666 25 41.6666C34.1898 41.6666 41.6666 34.1898 41.6666 25C41.6666 15.8101 34.1898 8.33325 25 8.33325ZM14.5833 25C14.5833 25.5757 14.1173 26.0416 13.5416 26.0416C12.9658 26.0416 12.4999 25.5757 12.4999 25C12.4999 18.1071 18.107 12.5 24.9999 12.5C25.5756 12.5 26.0415 12.9659 26.0415 13.5417C26.0415 14.1174 25.5756 14.5833 24.9999 14.5833C19.2566 14.5833 14.5833 19.2566 14.5833 25ZM37.5 25C37.5 31.8928 31.8928 37.5 25 37.5C24.4242 37.5 23.9583 37.034 23.9583 36.4583C23.9583 35.8825 24.4242 35.4165 25 35.4165C30.7434 35.4165 35.4166 30.7433 35.4166 24.9999C35.4166 24.4241 35.8826 23.9582 36.4584 23.9582C37.034 23.9583 37.5 24.4242 37.5 25Z" fill="#E9BD54"/>
<path d="M48.9583 8.33325C46.0855 8.33325 43.75 10.6699 43.75 13.5416V25C43.75 26.7232 45.1518 28.125 46.875 28.125H47.9167V40.625C47.9167 41.2007 48.3826 41.6666 48.9584 41.6666C49.5342 41.6666 50.0001 41.2007 50.0001 40.625V9.37495C50 8.79917 49.5341 8.33325 48.9583 8.33325Z" fill="#E9BD54"/>
<path d="M8.3333 9.37495C8.3333 8.79917 7.86738 8.33325 7.2916 8.33325C6.71592 8.33325 6.25 8.79917 6.25 9.37495V18.75C6.25 19.5111 5.81953 20.1496 5.2083 20.5132V9.37495C5.2083 8.79917 4.74238 8.33325 4.1666 8.33325C3.59092 8.33325 3.125 8.79917 3.125 9.37495V20.5132C2.51377 20.1496 2.0833 19.5111 2.0833 18.75V9.37495C2.0833 8.79917 1.61738 8.33325 1.0416 8.33325C0.465918 8.33325 0 8.79917 0 9.37495V18.75C0 20.6861 1.3334 22.3029 3.125 22.7686V40.625C3.125 41.2007 3.59092 41.6666 4.1667 41.6666C4.74248 41.6666 5.2084 41.2007 5.2084 40.625V22.7686C7 22.3028 8.3334 20.686 8.3334 18.75V9.37495H8.3333Z" fill="#E9BD54"/>
</g>
<defs>
<clipPath id="clip0">
<rect width="50" height="50" fill="white"/>
</clipPath>
</defs>
</svg>
