<svg width="50" height="50" viewBox="0 0 50 50" fill="none" xmlns="http://www.w3.org/2000/svg">
<path fill-rule="evenodd" clip-rule="evenodd" d="M39.5833 8.33342H37.5V6.25008C37.5 5.10425 36.5625 4.16675 35.4167 4.16675C34.2708 4.16675 33.3333 5.10425 33.3333 6.25008V8.33342H16.6667V6.25008C16.6667 5.10425 15.7292 4.16675 14.5833 4.16675C13.4375 4.16675 12.5 5.10425 12.5 6.25008V8.33342H10.4167C8.10417 8.33342 6.27083 10.2084 6.27083 12.5001L6.25 41.6668C6.25 43.9584 8.10417 45.8334 10.4167 45.8334H39.5833C41.875 45.8334 43.75 43.9584 43.75 41.6668V12.5001C43.75 10.2084 41.875 8.33342 39.5833 8.33342ZM39.5833 39.5834C39.5833 40.7292 38.6458 41.6667 37.5 41.6667H12.5C11.3542 41.6667 10.4167 40.7292 10.4167 39.5834V18.7501H39.5833V39.5834ZM18.75 22.9167H14.5833V27.0834H18.75V22.9167ZM22.9167 22.9167H27.0833V27.0834H22.9167V22.9167ZM35.4167 27.0834V22.9167H31.25V27.0834H35.4167Z" fill="#E9BD54"/>
</svg>
