<svg width="30" height="33" viewBox="0 0 30 33" fill="none" xmlns="http://www.w3.org/2000/svg">
<g opacity="0.7">
<path d="M15 31.3047C23.2843 31.3047 30 24.589 30 16.3047C30 8.02042 23.2843 1.30469 15 1.30469C6.71573 1.30469 0 8.02042 0 16.3047C0 24.589 6.71573 31.3047 15 31.3047Z" fill="#1C1C1C"/>
<path d="M17.047 18.8674H13.2639L12.6792 8.02246H17.6317L17.047 18.8674ZM12.725 22.8798C12.725 22.1843 12.9314 21.6455 13.3441 21.2634C13.7569 20.8736 14.3568 20.6787 15.144 20.6787C15.9235 20.6787 16.512 20.8736 16.9094 21.2634C17.3145 21.6455 17.517 22.1843 17.517 22.8798C17.517 23.5676 17.3068 24.1064 16.8865 24.4962C16.4738 24.8784 15.8929 25.0694 15.144 25.0694C14.3873 25.0694 13.795 24.8784 13.367 24.4962C12.939 24.1064 12.725 23.5676 12.725 22.8798Z" fill="white"/>
</g>
</svg>
