<svg width="30" height="30" viewBox="0 0 30 30" fill="none" xmlns="http://www.w3.org/2000/svg">
<path d="M10.3125 28.2422H9.60938V25.8984H3.86719V28.2422H3.16406C2.67867 28.2422 2.28516 28.6357 2.28516 29.1211C2.28516 29.6065 2.67867 30 3.16406 30H10.3125C10.7979 30 11.1914 29.6065 11.1914 29.1211C11.1914 28.6357 10.7979 28.2422 10.3125 28.2422Z" fill="#1C1C1C" fill-opacity="0.7"/>
<path d="M7.03117 5.42773C5.79432 5.42773 4.78809 6.43397 4.78809 7.67082C4.78809 8.90768 5.79438 9.91391 7.03117 9.91391C8.26797 9.91391 9.27426 8.90768 9.27426 7.67082C9.27426 6.43397 8.26803 5.42773 7.03117 5.42773ZM7.03117 8.54973C6.54713 8.54973 6.15227 8.15492 6.15227 7.67082C6.15227 7.18672 6.54707 6.79191 7.03117 6.79191C7.51528 6.79191 7.91008 7.18672 7.91008 7.67082C7.91008 8.15492 7.51528 8.54973 7.03117 8.54973Z" fill="#1C1C1C" fill-opacity="0.7"/>
<path d="M11.4258 0H2.63672C1.18283 0 0 1.12805 0 2.51467V21.626C0 23.0126 1.18283 24.1406 2.63672 24.1406H11.4258C12.8797 24.1406 14.0625 23.0126 14.0625 21.626V2.51467C14.0625 1.12805 12.8797 0 11.4258 0V0ZM7.03125 20.4703C5.31891 20.4703 3.92578 19.0772 3.92578 17.3648C3.92578 15.6524 5.31891 14.2593 7.03125 14.2593C8.74359 14.2593 10.1367 15.6524 10.1367 17.3648C10.1367 19.0772 8.74365 20.4703 7.03125 20.4703ZM7.03125 11.6722C4.82514 11.6722 3.03035 9.87738 3.03035 7.67127C3.03035 5.46516 4.8252 3.67037 7.03125 3.67037C9.2373 3.67037 11.0321 5.46516 11.0321 7.67127C11.0321 9.87738 9.23736 11.6722 7.03125 11.6722Z" fill="#1C1C1C" fill-opacity="0.7"/>
<path d="M7.03125 16.0176C6.28816 16.0176 5.68359 16.6221 5.68359 17.3652C5.68359 18.1084 6.28816 18.7129 7.03125 18.7129C7.77434 18.7129 8.37891 18.1084 8.37891 17.3652C8.37891 16.6221 7.77439 16.0176 7.03125 16.0176Z" fill="#1C1C1C" fill-opacity="0.7"/>
<path d="M26.25 28.2422H25.5469V25.8984H19.8047V28.2422H19.1016C18.6162 28.2422 18.2227 28.6357 18.2227 29.1211C18.2227 29.6065 18.6162 30 19.1016 30H26.25C26.7354 30 27.1289 29.6065 27.1289 29.1211C27.1289 28.6357 26.7354 28.2422 26.25 28.2422Z" fill="#1C1C1C" fill-opacity="0.7"/>
<path d="M22.9687 5.42773C21.7318 5.42773 20.7256 6.43397 20.7256 7.67082C20.7256 8.90768 21.7318 9.91391 22.9687 9.91391C24.2055 9.91391 25.2118 8.90768 25.2118 7.67082C25.2118 6.43397 24.2055 5.42773 22.9687 5.42773ZM22.9687 8.54973C22.4846 8.54973 22.0898 8.15492 22.0898 7.67082C22.0898 7.18672 22.4846 6.79191 22.9687 6.79191C23.4528 6.79191 23.8476 7.18672 23.8476 7.67082C23.8476 8.15492 23.4528 8.54973 22.9687 8.54973Z" fill="#1C1C1C" fill-opacity="0.7"/>
<path d="M27.3633 0H18.5742C17.1203 0 15.9375 1.12805 15.9375 2.51467V21.626C15.9375 23.0126 17.1203 24.1406 18.5742 24.1406H27.3633C28.8172 24.1406 30 23.0126 30 21.626V2.51467C30 1.12805 28.8172 0 27.3633 0V0ZM22.9688 20.4703C21.2564 20.4703 19.8633 19.0772 19.8633 17.3648C19.8633 15.6524 21.2564 14.2593 22.9688 14.2593C24.6811 14.2593 26.0742 15.6524 26.0742 17.3648C26.0742 19.0772 24.6812 20.4703 22.9688 20.4703ZM22.9688 11.6722C20.7626 11.6722 18.9679 9.87738 18.9679 7.67127C18.9679 5.46516 20.7627 3.67037 22.9688 3.67037C25.1748 3.67037 26.9696 5.46516 26.9696 7.67127C26.9696 9.87738 25.1749 11.6722 22.9688 11.6722Z" fill="#1C1C1C" fill-opacity="0.7"/>
<path d="M22.9688 16.0176C22.2257 16.0176 21.6211 16.6221 21.6211 17.3652C21.6211 18.1084 22.2257 18.7129 22.9688 18.7129C23.7118 18.7129 24.3164 18.1084 24.3164 17.3652C24.3164 16.6221 23.7119 16.0176 22.9688 16.0176Z" fill="#1C1C1C" fill-opacity="0.7"/>
</svg>
