<svg width="40" height="40" viewBox="0 0 40 40" fill="none" xmlns="http://www.w3.org/2000/svg">
<g clip-path="url(#clip0)">
<path d="M39.4141 3.2591C39.0481 3.01785 38.5854 2.97723 38.1819 3.14863L33.9131 4.97817V19.3695L38.182 21.1989C38.3467 21.2695 38.5216 21.3043 38.6958 21.3043C38.9472 21.3043 39.1976 21.2312 39.4142 21.0886C39.7802 20.8475 40.0001 20.4382 40.0001 20V4.34778C40.0001 3.90965 39.7801 3.50028 39.4141 3.2591Z" fill="#E9BD54"/>
<path d="M11.7392 8.26074C9.58148 8.26074 7.82617 10.0161 7.82617 12.1738C7.82617 14.3315 9.58148 16.0868 11.7392 16.0868C13.8969 16.0868 15.6523 14.3315 15.6523 12.1738C15.6523 10.0161 13.8969 8.26074 11.7392 8.26074Z" fill="#E9BD54"/>
<path d="M14.7733 0.832236C13.7873 0.569033 12.7666 0.434814 11.7391 0.434814C5.26586 0.434814 0 5.70067 0 12.174C0 18.6472 5.26586 23.9131 11.7391 23.9131C12.7666 23.9131 13.7874 23.779 14.7733 23.5157L31.3043 19.0909V5.257L14.7733 0.832236ZM11.7391 18.6957C8.14289 18.6957 5.21742 15.7702 5.21742 12.174C5.21742 8.57771 8.14289 5.65224 11.7391 5.65224C15.3354 5.65224 18.2609 8.57771 18.2609 12.174C18.2609 15.7702 15.3354 18.6957 11.7391 18.6957Z" fill="#E9BD54"/>
<path d="M23.2176 24.0623L23.185 23.9646L20.6607 24.6403L20.7431 24.8877C20.8687 25.2656 20.8051 25.6834 20.5715 26.0069C20.3397 26.3288 19.9636 26.5216 19.5653 26.5216H18.5371L18.1353 25.3164L15.4476 26.0359C14.2392 26.3585 12.9917 26.5216 11.7392 26.5216C10.195 26.5216 8.71011 26.2694 7.31519 25.8159L10.8068 36.2838C11.6032 38.2769 13.5054 39.5651 15.6522 39.5651C18.5293 39.5651 20.8696 37.2248 20.8696 34.3476C20.8696 33.6768 20.744 33.0255 20.524 32.4829L19.4066 29.1303H19.5653C20.8 29.1303 21.9676 28.5325 22.6886 27.5312C23.4104 26.5301 23.6082 25.2334 23.2176 24.0623Z" fill="#E9BD54"/>
</g>
<defs>
<clipPath id="clip0">
<rect width="40" height="40" fill="white"/>
</clipPath>
</defs>
</svg>
