<svg width="24" height="24" viewBox="0 0 24 24" fill="none" xmlns="http://www.w3.org/2000/svg">
<path d="M22.875 18.375H22.395L21.75 16.4325C21.7307 14.0542 20.8436 11.7647 19.2554 9.99424C17.6673 8.22377 15.4873 7.09412 13.125 6.8175V5.25H14.0625C14.4106 5.25 14.7444 5.11172 14.9906 4.86558C15.2367 4.61944 15.375 4.2856 15.375 3.9375C15.375 3.5894 15.2367 3.25556 14.9906 3.00942C14.7444 2.76328 14.4106 2.625 14.0625 2.625H9.9375C9.5894 2.625 9.25556 2.76328 9.00942 3.00942C8.76328 3.25556 8.625 3.5894 8.625 3.9375C8.625 4.2856 8.76328 4.61944 9.00942 4.86558C9.25556 5.11172 9.5894 5.25 9.9375 5.25H10.875V6.8175C8.51272 7.09412 6.33273 8.22377 4.74456 9.99424C3.15638 11.7647 2.26931 14.0542 2.25 16.4325L1.605 18.375H1.125C1.02554 18.375 0.930161 18.4145 0.859835 18.4848C0.789509 18.5552 0.75 18.6505 0.75 18.75V21C0.75 21.0995 0.789509 21.1948 0.859835 21.2652C0.930161 21.3355 1.02554 21.375 1.125 21.375H22.875C22.9745 21.375 23.0698 21.3355 23.1402 21.2652C23.2105 21.1948 23.25 21.0995 23.25 21V18.75C23.25 18.6505 23.2105 18.5552 23.1402 18.4848C23.0698 18.4145 22.9745 18.375 22.875 18.375ZM9.9375 4.5C9.78832 4.5 9.64524 4.44074 9.53975 4.33525C9.43426 4.22976 9.375 4.08668 9.375 3.9375C9.375 3.78832 9.43426 3.64524 9.53975 3.53975C9.64524 3.43426 9.78832 3.375 9.9375 3.375H14.0625C14.2117 3.375 14.3548 3.43426 14.4602 3.53975C14.5657 3.64524 14.625 3.78832 14.625 3.9375C14.625 4.08668 14.5657 4.22976 14.4602 4.33525C14.3548 4.44074 14.2117 4.5 14.0625 4.5H9.9375ZM12.375 5.25V6.76125C12.2513 6.75375 12.1275 6.75 12 6.75C11.8725 6.75 11.7487 6.75375 11.625 6.76125V5.25H12.375ZM12 7.5C14.321 7.50246 16.5514 8.40084 18.2261 10.0078C19.9008 11.6147 20.8905 13.8061 20.9888 16.125H4.51875C4.61604 14.2052 5.44627 12.396 6.83823 11.0703C8.23019 9.74462 10.0778 9.00359 12 9V8.25C9.87774 8.25199 7.83777 9.07124 6.30362 10.5377C4.76947 12.0041 3.859 14.005 3.76125 16.125H3.01125C3.10953 13.8061 4.09922 11.6147 5.77393 10.0078C7.44863 8.40084 9.67904 7.50246 12 7.5ZM2.895 16.875H21.105L21.6038 18.375H2.39625L2.895 16.875ZM22.5 20.625H1.5V19.125H22.5V20.625Z" fill="black"/>
<path d="M1.875 9.375H3.375V10.125H1.875V9.375Z" fill="black"/>
<path d="M4.125 7.125H4.875V8.625H4.125V7.125Z" fill="black"/>
<path d="M2.37744 8.1582L2.90777 7.62787L3.96843 8.68853L3.4381 9.21886L2.37744 8.1582Z" fill="black"/>
<path d="M20.625 9.375H22.125V10.125H20.625V9.375Z" fill="black"/>
<path d="M19.125 7.125H19.875V8.625H19.125V7.125Z" fill="black"/>
<path d="M20.0273 8.69092L21.088 7.63026L21.6183 8.16059L20.5577 9.22125L20.0273 8.69092Z" fill="black"/>
</svg>
