<svg width="20" height="20" viewBox="0 0 20 20" fill="none" xmlns="http://www.w3.org/2000/svg">
<path fill-rule="evenodd" clip-rule="evenodd" d="M3.33342 3.33325H16.6668C17.5834 3.33325 18.3334 4.08325 18.3334 4.99992V14.9999C18.3334 15.9166 17.5834 16.6666 16.6668 16.6666H3.33342C2.41675 16.6666 1.66675 15.9166 1.66675 14.9999L1.67508 4.99992C1.67508 4.08325 2.41675 3.33325 3.33342 3.33325ZM10.4417 10.5582L16.3334 6.87491C16.5417 6.74157 16.6667 6.51657 16.6667 6.27491C16.6667 5.71657 16.0584 5.38324 15.5834 5.67491L10.0001 9.16658L4.41675 5.67491C3.94175 5.38324 3.33342 5.71657 3.33342 6.27491C3.33342 6.51657 3.45842 6.74157 3.66675 6.87491L9.55841 10.5582C9.82508 10.7249 10.1751 10.7249 10.4417 10.5582Z" fill="white"/>
</svg>
