<svg width="69" height="20" viewBox="0 0 69 20" fill="none" xmlns="http://www.w3.org/2000/svg">
<g clip-path="url(#clip0)">
<path d="M11.1752 3.98969L9.99988 4.62169L8.82455 3.98836C8.66236 3.9011 8.46014 3.96184 8.37288 4.12402C8.28562 4.28621 8.34636 4.48843 8.50855 4.57569L9.66655 5.20002V6.00002C9.66655 6.18412 9.81578 6.33336 9.99988 6.33336C10.184 6.33336 10.3332 6.18412 10.3332 6.00002V5.20002L11.4912 4.57769C11.6534 4.49043 11.7141 4.28821 11.6269 4.12602C11.5396 3.96384 11.3374 3.9031 11.1752 3.99036V3.98969Z" fill="white"/>
<path d="M14.6666 7.33329V2.66662C14.6665 2.54938 14.6049 2.44077 14.5043 2.38062C14.4999 2.37796 14.4949 2.37696 14.4903 2.37462L10.1569 0.0412899C10.0583 -0.0118102 9.93956 -0.0118102 9.84092 0.0412899L5.50759 2.37462C5.50292 2.37696 5.49792 2.37796 5.49359 2.38062C5.39371 2.44127 5.33288 2.54978 5.33325 2.66662V7.33329C5.33332 7.45587 5.40065 7.56852 5.50859 7.62662L9.84192 9.95996C9.94056 10.0131 10.0593 10.0131 10.1579 9.95996L14.4913 7.62662C14.5992 7.56852 14.6665 7.45587 14.6666 7.33329ZM13.9999 7.13329L10.3333 9.10862V7.99996C10.3333 7.81586 10.184 7.66662 9.99992 7.66662C9.81582 7.66662 9.66659 7.81586 9.66659 7.99996V9.10862L5.99992 7.13329V3.22429L6.84192 3.67696C7.00411 3.76422 7.20633 3.70348 7.29359 3.54129C7.38085 3.3791 7.32011 3.17688 7.15792 3.08962L6.37025 2.66662L9.99992 0.711957L13.6296 2.66662L12.8419 3.08996C12.6797 3.17722 12.619 3.37944 12.7063 3.54162C12.7935 3.70381 12.9957 3.76455 13.1579 3.67729L13.9999 3.22429V7.13329Z" fill="white"/>
<path d="M16.5667 8.74656L18 8.31922C18.1164 8.28712 18.2064 8.19456 18.2351 8.07728C18.2639 7.96 18.2269 7.83633 18.1386 7.75401C18.0503 7.6717 17.9243 7.64359 17.8093 7.68056L15.5733 8.34722C15.397 8.39991 15.2967 8.58553 15.3493 8.76189L16.016 10.9979C16.0581 11.1391 16.188 11.2359 16.3353 11.2359C16.3676 11.2359 16.3997 11.2313 16.4307 11.2222C16.5154 11.1969 16.5867 11.139 16.6287 11.0611C16.6707 10.9833 16.68 10.892 16.6547 10.8072L16.2083 9.31022C18.198 10.4032 19.3333 11.9466 19.3333 13.5872C19.3333 16.7556 15.1463 19.3332 10 19.3332C4.85367 19.3332 0.666667 16.7556 0.666667 13.5872C0.666667 11.9499 1.80333 10.4049 3.79333 9.31156L3.34733 10.8072C3.32197 10.892 3.33132 10.9833 3.37334 11.0611C3.41535 11.139 3.48658 11.1969 3.57133 11.2222C3.6023 11.2313 3.6344 11.2359 3.66667 11.2359C3.81401 11.2359 3.94386 11.1391 3.986 10.9979L4.65267 8.76189C4.70527 8.58553 4.605 8.39991 4.42867 8.34722L2.19267 7.68056C2.01783 7.63233 1.83651 7.73275 1.78463 7.90654C1.73275 8.08033 1.82934 8.26371 2.002 8.31922L3.43533 8.74689C1.24867 9.96022 0 11.7082 0 13.5872C0 17.1232 4.486 19.9999 10 19.9999C15.514 19.9999 20 17.1232 20 13.5872C20 11.7052 18.7537 9.95989 16.5667 8.74656Z" fill="white"/>
<path d="M7.00007 11C6.42524 10.9987 5.91446 11.3664 5.73341 11.912C5.67532 12.0869 5.77002 12.2758 5.94491 12.3338C6.1198 12.3919 6.30866 12.2972 6.36674 12.1223C6.47448 11.7994 6.80822 11.6095 7.14086 11.6819C7.4735 11.7543 7.69819 12.0656 7.66203 12.4041C7.62588 12.7426 7.3405 12.9995 7.00007 13C6.81598 13 6.66674 13.1492 6.66674 13.3333C6.66674 13.5174 6.81598 13.6667 7.00007 13.6667C7.3405 13.6671 7.62588 13.924 7.66203 14.2625C7.69819 14.601 7.4735 14.9124 7.14086 14.9848C6.80822 15.0571 6.47448 14.8673 6.36674 14.5443C6.30866 14.3694 6.1198 14.2748 5.94491 14.3328C5.77002 14.3909 5.67532 14.5798 5.73341 14.7547C5.91098 15.2865 6.40234 15.6505 6.96287 15.6653C7.5234 15.6801 8.0333 15.3426 8.23874 14.8209C8.44417 14.2992 8.30123 13.7047 7.88107 13.3333C8.29684 12.9667 8.44236 12.381 8.24654 11.8624C8.05072 11.3437 7.55443 11.0004 7.00007 11Z" fill="white"/>
<path d="M10 15.6665C10.7807 15.617 11.3757 14.9477 11.3333 14.1665C11.3757 13.3854 10.7807 12.716 10 12.6665C9.84809 12.6685 9.69795 12.6995 9.55768 12.7579C9.69545 12.2752 10.0251 11.8702 10.4697 11.6372C10.5821 11.5909 10.6604 11.4871 10.6741 11.3663C10.6877 11.2455 10.6345 11.1269 10.5352 11.0567C10.4359 10.9866 10.3063 10.976 10.197 11.0292C8.68401 11.7082 8.66668 13.9065 8.66668 13.9999C8.66874 14.0172 8.6722 14.0344 8.67701 14.0512C8.67435 14.0899 8.66668 14.1272 8.66668 14.1665C8.62432 14.9477 9.21931 15.617 10 15.6665ZM10 13.3332C10.4108 13.3853 10.706 13.7543 10.6667 14.1665C10.706 14.5788 10.4108 14.9477 10 14.9999C9.5892 14.9477 9.29404 14.5788 9.33335 14.1665C9.29404 13.7543 9.5892 13.3853 10 13.3332Z" fill="white"/>
<path d="M11.6667 12.3333V14.3333C11.6667 15.0697 12.2637 15.6667 13.0001 15.6667C13.7365 15.6667 14.3334 15.0697 14.3334 14.3333V12.3333C14.3334 11.597 13.7365 11 13.0001 11C12.2637 11 11.6667 11.597 11.6667 12.3333ZM13.6667 12.3333V14.3333C13.6667 14.7015 13.3683 15 13.0001 15C12.6319 15 12.3334 14.7015 12.3334 14.3333V12.3333C12.3334 11.9651 12.6319 11.6667 13.0001 11.6667C13.3683 11.6667 13.6667 11.9651 13.6667 12.3333Z" fill="white"/>
</g>
<path d="M34.8945 7.44922C34.8945 7.99609 34.7402 8.44336 34.4316 8.79102C34.127 9.13867 33.6934 9.37109 33.1309 9.48828V9.53516C33.8184 9.62109 34.3281 9.83984 34.6602 10.1914C34.9922 10.543 35.1582 11.0039 35.1582 11.5742C35.1582 12.3906 34.875 13.0195 34.3086 13.4609C33.7422 13.8984 32.9375 14.1172 31.8945 14.1172C31.4414 14.1172 31.0254 14.082 30.6465 14.0117C30.2715 13.9453 29.9062 13.8262 29.5508 13.6543V12.7285C29.9219 12.9121 30.3164 13.0527 30.7344 13.1504C31.1562 13.2441 31.5547 13.291 31.9297 13.291C33.4102 13.291 34.1504 12.7109 34.1504 11.5508C34.1504 10.5117 33.334 9.99219 31.7012 9.99219H30.8574V9.1543H31.7129C32.3809 9.1543 32.9102 9.00781 33.3008 8.71484C33.6914 8.41797 33.8867 8.00781 33.8867 7.48438C33.8867 7.06641 33.7422 6.73828 33.4531 6.5C33.168 6.26172 32.7793 6.14258 32.2871 6.14258C31.9121 6.14258 31.5586 6.19336 31.2266 6.29492C30.8945 6.39648 30.5156 6.58398 30.0898 6.85742L29.5977 6.20117C29.9492 5.92383 30.3535 5.70703 30.8105 5.55078C31.2715 5.39062 31.7559 5.31055 32.2637 5.31055C33.0957 5.31055 33.7422 5.50195 34.2031 5.88477C34.6641 6.26367 34.8945 6.78516 34.8945 7.44922ZM43.8828 9.63477C43.8828 11.0488 43.498 12.1309 42.7285 12.8809C41.9629 13.627 40.8594 14 39.418 14H37.0449V5.43359H39.6699C41.002 5.43359 42.0371 5.80273 42.7754 6.54102C43.5137 7.2793 43.8828 8.31055 43.8828 9.63477ZM42.8281 9.66992C42.8281 8.55273 42.5469 7.71094 41.9844 7.14453C41.4258 6.57812 40.5938 6.29492 39.4883 6.29492H38.041V13.1387H39.2539C40.4414 13.1387 41.334 12.8477 41.9316 12.2656C42.5293 11.6797 42.8281 10.8145 42.8281 9.66992ZM45.1133 11.2285V10.3379H47.9902V11.2285H45.1133ZM53.8496 8.41016H51.7637V14H50.791V8.41016H48.7285V7.57812H53.8496V8.41016ZM54.1016 7.57812H55.1445L56.5508 11.2402C56.8594 12.0762 57.0508 12.6797 57.125 13.0508H57.1719C57.2227 12.8516 57.3281 12.5117 57.4883 12.0312C57.6523 11.5469 58.1836 10.0625 59.082 7.57812H60.125L57.3652 14.8906C57.0918 15.6133 56.7715 16.125 56.4043 16.4258C56.041 16.7305 55.5938 16.8828 55.0625 16.8828C54.7656 16.8828 54.4727 16.8496 54.1836 16.7832V16.0039C54.3984 16.0508 54.6387 16.0742 54.9043 16.0742C55.5723 16.0742 56.0488 15.6992 56.334 14.9492L56.6914 14.0352L54.1016 7.57812ZM64.1562 14.1172C63.7383 14.1172 63.3555 14.041 63.0078 13.8887C62.6641 13.7324 62.375 13.4941 62.1406 13.1738H62.0703C62.1172 13.5488 62.1406 13.9043 62.1406 14.2402V16.8828H61.168V7.57812H61.959L62.0938 8.45703H62.1406C62.3906 8.10547 62.6816 7.85156 63.0137 7.69531C63.3457 7.53906 63.7266 7.46094 64.1562 7.46094C65.0078 7.46094 65.6641 7.75195 66.125 8.33398C66.5898 8.91602 66.8223 9.73242 66.8223 10.7832C66.8223 11.8379 66.5859 12.6582 66.1133 13.2441C65.6445 13.8262 64.9922 14.1172 64.1562 14.1172ZM64.0156 8.28711C63.3594 8.28711 62.8848 8.46875 62.5918 8.83203C62.2988 9.19531 62.1484 9.77344 62.1406 10.5664V10.7832C62.1406 11.6855 62.291 12.332 62.5918 12.7227C62.8926 13.1094 63.375 13.3027 64.0391 13.3027C64.5938 13.3027 65.0273 13.0781 65.3398 12.6289C65.6562 12.1797 65.8145 11.5605 65.8145 10.7715C65.8145 9.9707 65.6562 9.35742 65.3398 8.93164C65.0273 8.50195 64.5859 8.28711 64.0156 8.28711Z" fill="white"/>
<defs>
<clipPath id="clip0">
<rect width="20" height="20" fill="white"/>
</clipPath>
</defs>
</svg>
