<svg width="20" height="20" viewBox="0 0 20 20" fill="none" xmlns="http://www.w3.org/2000/svg">
<path fill-rule="evenodd" clip-rule="evenodd" d="M4.16675 7.72079C4.16675 4.49578 6.77508 1.88745 10.0001 1.88745C13.2251 1.88745 15.8334 4.49578 15.8334 7.72079C15.8334 11.1958 12.1501 15.9875 10.6417 17.8125C10.3084 18.2125 9.70008 18.2125 9.36675 17.8125C7.85008 15.9875 4.16675 11.1958 4.16675 7.72079ZM7.91675 7.72078C7.91675 8.87078 8.85009 9.80412 10.0001 9.80412C11.1501 9.80412 12.0834 8.87078 12.0834 7.72078C12.0834 6.57078 11.1501 5.63745 10.0001 5.63745C8.85009 5.63745 7.91675 6.57078 7.91675 7.72078Z" fill="white"/>
</svg>
