<svg width="30" height="30" viewBox="0 0 30 30" fill="none" xmlns="http://www.w3.org/2000/svg">
<path d="M19.6875 15C18.4829 15 17.318 14.4621 16.4063 13.4859C15.5198 12.5338 14.9784 11.2641 14.8829 9.91172C14.7809 8.46914 15.2209 7.14258 16.1215 6.17578C17.0221 5.20898 18.2813 4.6875 19.6875 4.6875C21.0838 4.6875 22.3465 5.21836 23.2442 6.18281C24.1506 7.15664 24.5918 8.48086 24.4899 9.91113C24.392 11.2652 23.8512 12.5344 22.9665 13.4854C22.0571 14.4621 20.8928 15 19.6875 15Z" fill="#1C1C1C" fill-opacity="0.7"/>
<path d="M27.4121 25.3125H11.9638C11.7154 25.3138 11.4701 25.2582 11.2466 25.1498C11.0231 25.0414 10.8275 24.8832 10.6747 24.6873C10.5127 24.475 10.4009 24.2287 10.3475 23.9671C10.2941 23.7054 10.3006 23.435 10.3665 23.1762C10.8599 21.1951 12.0822 19.5521 13.9009 18.4254C15.5152 17.4258 17.5701 16.875 19.6876 16.875C21.8468 16.875 23.8478 17.4023 25.4714 18.4014C27.2943 19.5223 28.5183 21.1746 29.0093 23.1797C29.0744 23.4387 29.0802 23.7091 29.0263 23.9706C28.9723 24.2322 28.8599 24.4782 28.6976 24.6902C28.545 24.8852 28.3498 25.0426 28.127 25.1505C27.9042 25.2584 27.6596 25.3138 27.4121 25.3125Z" fill="#1C1C1C" fill-opacity="0.7"/>
<path d="M8.61316 15.2344C6.55125 15.2344 4.73836 13.3172 4.5702 10.9611C4.48699 9.7541 4.86316 8.63789 5.62488 7.81934C6.3784 7.00898 7.44129 6.5625 8.61316 6.5625C9.78504 6.5625 10.8397 7.01133 11.5973 7.82637C12.3649 8.65137 12.7399 9.76523 12.652 10.9623C12.4839 13.3178 10.6716 15.2344 8.61316 15.2344Z" fill="#1C1C1C" fill-opacity="0.7"/>
<path d="M12.4605 17.0771C11.4298 16.5732 10.0921 16.3213 8.6138 16.3213C6.88763 16.3213 5.21126 16.7713 3.8929 17.5881C2.39818 18.5156 1.39271 19.8662 0.986652 21.4969C0.927229 21.7314 0.921609 21.9764 0.970212 22.2134C1.01881 22.4504 1.12038 22.6734 1.26732 22.8656C1.40674 23.0446 1.58535 23.1892 1.78943 23.2884C1.9935 23.3875 2.21759 23.4385 2.44446 23.4375H8.94837C9.05815 23.4375 9.16443 23.3989 9.2487 23.3286C9.33297 23.2582 9.38988 23.1605 9.4095 23.0525C9.41595 23.0156 9.42415 22.9787 9.43353 22.9424C9.9304 20.9467 11.0947 19.2604 12.815 18.0311C12.8782 17.9854 12.9291 17.9248 12.963 17.8545C12.9969 17.7843 13.0128 17.7067 13.0091 17.6288C13.0054 17.5509 12.9824 17.4751 12.942 17.4083C12.9017 17.3416 12.8453 17.286 12.7781 17.2465C12.6861 17.1926 12.5806 17.1357 12.4605 17.0771Z" fill="#1C1C1C" fill-opacity="0.7"/>
</svg>
