<svg width="40" height="40" viewBox="0 0 40 40" fill="none" xmlns="http://www.w3.org/2000/svg">
<path d="M39.977 32.4809L37.6971 16.3965V9.44187C37.6971 6.20766 35.0655 3.57617 31.8314 3.57617H10.7148C6.06594 3.57617 6.06227 10.6151 10.7148 10.6151H30.6583V15.3077H17.7536C8.05 15.3076 0 23.2011 0 32.9048V35.2511C0 35.8995 0.524687 36.4242 1.17313 36.4242H36.4838C38.5849 36.4242 40.2145 34.6141 39.977 32.4809ZM11.8879 29.3853C9.94719 29.3853 8.36844 27.8066 8.36844 25.8659C8.36844 23.9252 9.94719 22.3464 11.8879 22.3464C13.8286 22.3464 15.4073 23.9252 15.4073 25.8659C15.4073 27.8066 13.8286 29.3853 11.8879 29.3853ZM21.273 29.3853C19.3323 29.3853 17.7536 27.8066 17.7536 25.8659C17.7536 23.9252 19.3323 22.3464 21.273 22.3464C23.2138 22.3464 24.7925 23.9252 24.7925 25.8659C24.7925 27.8066 23.2138 29.3853 21.273 29.3853ZM30.6582 29.3853C28.7175 29.3853 27.1388 27.8066 27.1388 25.8659C27.1388 23.9252 28.7175 22.3464 30.6582 22.3464C32.5989 22.3464 34.1777 23.9252 34.1777 25.8659C34.1777 27.8066 32.5989 29.3853 30.6582 29.3853Z" fill="#E9BD54"/>
</svg>
