<svg width="30" height="30" viewBox="0 0 30 30" fill="none" xmlns="http://www.w3.org/2000/svg">
<g clip-path="url(#clip0)">
<path d="M20.3113 30.0006C20.0788 30.0006 19.8426 29.9356 19.6338 29.7993L14.3213 26.3618C13.7426 25.9868 13.5763 25.2131 13.9513 24.6331C14.3263 24.0543 15.1001 23.8881 15.6801 24.2631L20.9926 27.7006C21.5713 28.0756 21.7376 28.8493 21.3626 29.4293C21.1226 29.7993 20.7213 30.0006 20.3113 30.0006Z" fill="#1C1C1C" fill-opacity="0.7"/>
<path d="M9.68881 30.0011C9.27881 30.0011 8.87756 29.7999 8.63881 29.4299C8.26381 28.8499 8.43006 28.0761 9.00881 27.7011L14.3213 24.2636C14.9013 23.8874 15.6751 24.0549 16.0501 24.6336C16.4251 25.2136 16.2588 25.9874 15.6801 26.3624L10.3676 29.7999C10.1563 29.9361 9.92131 30.0011 9.68881 30.0011Z" fill="#1C1C1C" fill-opacity="0.7"/>
<path d="M13.75 23.75V28.75C13.75 29.44 14.31 30 15 30C15.69 30 16.25 29.44 16.25 28.75V23.75H13.75Z" fill="#1C1C1C" fill-opacity="0.7"/>
<path d="M27.1875 8.12625H2.8125C2.59875 8.12625 2.3925 8.095 2.1875 8.0625V20.3138C2.1875 21.52 3.16875 22.5013 4.375 22.5013H25.625C26.8312 22.5013 27.8125 21.52 27.8125 20.3138V8.0625C27.6075 8.095 27.4013 8.12625 27.1875 8.12625ZM22.5275 12.045L17.755 17.8488C17.3513 18.34 16.6425 18.45 16.1088 18.1038L13.3675 16.325L9.30875 20.2725C9.06625 20.5087 8.75125 20.6263 8.4375 20.6263C8.11125 20.6263 7.78625 20.5 7.54125 20.2475C7.06 19.7525 7.07125 18.9612 7.56625 18.48L12.3388 13.8375C12.755 13.43 13.3988 13.3662 13.8912 13.685L16.5338 15.3987L20.5975 10.4575C21.0363 9.925 21.825 9.84875 22.3575 10.2862C22.89 10.725 22.9662 11.5113 22.5275 12.045Z" fill="#1C1C1C" fill-opacity="0.7"/>
<path d="M27.1875 6.875H2.8125C1.26125 6.875 0 5.61375 0 4.0625C0 2.51125 1.26125 1.25 2.8125 1.25H27.1875C28.7388 1.25 30 2.51125 30 4.0625C30 5.61375 28.7388 6.875 27.1875 6.875Z" fill="#1C1C1C" fill-opacity="0.7"/>
</g>
<defs>
<clipPath id="clip0">
<rect width="30" height="30" fill="white"/>
</clipPath>
</defs>
</svg>
