<svg width="45" height="45" viewBox="0 0 45 45" fill="none" xmlns="http://www.w3.org/2000/svg">
<path d="M40.7812 24.9128C40.7813 24.241 40.5408 23.5914 40.1033 23.0815C39.6659 22.5716 39.0604 22.2352 38.3964 22.133L37.7343 22.0312L30.6592 31.5322C30.5283 31.708 30.3581 31.8507 30.1623 31.9491C29.9665 32.0474 29.7504 32.0986 29.5312 32.0986C29.3121 32.0986 29.096 32.0474 28.9002 31.9491C28.7044 31.8507 28.5342 31.708 28.4033 31.5322L21.3282 22.0312L20.6661 22.133C20.0021 22.2352 19.3966 22.5716 18.9592 23.0815C18.5217 23.5914 18.2812 24.241 18.2813 24.9128V34.4531H40.7812V24.9128Z" fill="#E9BD54"/>
<path d="M0.351562 35.5078H44.6484V44.6484H0.351562V35.5078Z" fill="#E9BD54"/>
<path d="M4.21875 34.8047H12.6562C12.936 34.8047 13.2042 34.6936 13.402 34.4958C13.5998 34.298 13.7109 34.0297 13.7109 33.75C13.7109 30.9621 12.0546 28.984 9.49219 28.5618V28.125C9.49219 27.8453 9.38107 27.577 9.18328 27.3792C8.98548 27.1814 8.71722 27.0703 8.4375 27.0703C8.15778 27.0703 7.88952 27.1814 7.69172 27.3792C7.49393 27.577 7.38281 27.8453 7.38281 28.125V28.5618C4.82036 28.9837 3.16406 30.9621 3.16406 33.75C3.16406 34.0297 3.27518 34.298 3.47297 34.4958C3.67077 34.6936 3.93903 34.8047 4.21875 34.8047Z" fill="#E9BD54"/>
<path d="M6.20009 25.8874C6.4939 25.5936 6.84272 25.3605 7.22662 25.2015C7.61052 25.0425 8.02198 24.9606 8.43752 24.9606C8.85305 24.9606 9.26452 25.0425 9.64842 25.2015C10.0323 25.3605 10.3811 25.5936 10.675 25.8874C10.8733 26.0826 11.1407 26.1914 11.4189 26.1902C11.6972 26.1891 11.9637 26.0781 12.1604 25.8813C12.3571 25.6845 12.4682 25.418 12.4693 25.1398C12.4704 24.8616 12.3615 24.5942 12.1664 24.3958C11.1774 23.4069 9.8361 22.8513 8.43752 22.8513C7.03893 22.8513 5.69763 23.4069 4.70867 24.3958C4.51352 24.5942 4.40465 24.8616 4.40577 25.1398C4.40689 25.418 4.5179 25.6845 4.71463 25.8813C4.91136 26.0781 5.17786 26.1891 5.45609 26.1902C5.73432 26.1914 6.00174 26.0826 6.20009 25.8874Z" fill="#E9BD54"/>
<path d="M3.21677 22.9042C3.90233 22.2186 4.7162 21.6748 5.61193 21.3038C6.50765 20.9327 7.46768 20.7418 8.43721 20.7418C9.40674 20.7418 10.3668 20.9327 11.2625 21.3038C12.1582 21.6748 12.9721 22.2186 13.6576 22.9042C13.7556 23.0021 13.8719 23.0798 13.9998 23.1328C14.1278 23.1858 14.2649 23.2131 14.4034 23.2131C14.542 23.2131 14.6791 23.1858 14.8071 23.1328C14.935 23.0798 15.0513 23.0021 15.1492 22.9042C15.2472 22.8062 15.3249 22.6899 15.3779 22.562C15.4309 22.434 15.4582 22.2969 15.4582 22.1584C15.4582 22.0199 15.4309 21.8827 15.3779 21.7547C15.3249 21.6268 15.2472 21.5105 15.1492 21.4126C14.2678 20.5311 13.2214 19.8319 12.0697 19.3549C10.9181 18.8779 9.68375 18.6323 8.43721 18.6323C7.19067 18.6323 5.95633 18.8779 4.80468 19.3549C3.65303 19.8319 2.60661 20.5311 1.72518 21.4126C1.62724 21.5105 1.54955 21.6268 1.49655 21.7547C1.44354 21.8827 1.41626 22.0199 1.41626 22.1584C1.41626 22.2969 1.44354 22.434 1.49655 22.562C1.54955 22.6899 1.62724 22.8062 1.72518 22.9042C1.92298 23.102 2.19125 23.2131 2.47097 23.2131C2.60948 23.2131 2.74663 23.1858 2.8746 23.1328C3.00256 23.0798 3.11883 23.0021 3.21677 22.9042Z" fill="#E9BD54"/>
<path d="M27.1273 20.3594C26.9542 20.647 26.7162 20.89 26.4323 21.0691C26.1485 21.2482 25.8266 21.3582 25.4925 21.3905L23.4075 21.7112C24.9448 23.063 27.1198 23.9061 29.5312 23.9061C31.9427 23.9061 34.1177 23.063 35.6554 21.7112L33.5703 21.3905C32.5042 21.2958 31.626 20.3696 31.6406 19.2839V18.4382C32.5682 18.0982 33.4005 17.5405 34.0677 16.812C34.7349 16.0834 35.2174 15.2053 35.4746 14.2515C35.3997 14.3331 35.4582 11.0282 32.8507 8.35289C32.6053 8.09373 32.3082 7.88907 31.9786 7.7522C31.649 7.61534 31.2943 7.54932 30.9375 7.55845C29.7564 7.55845 28.1346 8.84622 26.8059 10.8392C25.7055 12.4884 24.9574 14.347 24.6087 16.2987C25.321 17.265 26.2978 18.0043 27.4212 18.4275C27.4241 19.0305 27.4817 19.8479 27.1273 20.3594Z" fill="#E9BD54"/>
<path d="M37.0833 8.07839C37.6809 7.99176 38.2473 7.75694 38.7309 7.39535C39.2145 7.03376 39.6 6.55689 39.8521 6.00819C40.1042 5.45949 40.215 4.85642 40.1744 4.25394C40.1338 3.65145 39.943 3.06872 39.6195 2.55883C39.296 2.04895 38.85 1.62813 38.3223 1.33473C37.7945 1.04134 37.2017 0.884688 36.5978 0.879063C35.994 0.873439 35.3984 1.01902 34.8652 1.30253C34.3321 1.58605 33.8784 1.99849 33.5454 2.50226C33.9703 2.6369 34.3742 2.83029 34.7455 3.0768C35.7732 3.76164 36.9899 5.18283 37.0833 8.07839Z" fill="#E9BD54"/>
<path d="M23.5054 16.5305C23.8408 14.2855 24.6683 12.1424 25.9284 10.2544C27.4939 7.90594 29.3665 6.50391 30.9375 6.50391C31.4351 6.49467 31.9292 6.58882 32.3885 6.78039C32.8478 6.97197 33.2624 7.2568 33.6059 7.61687C34.5805 8.62828 35.3143 9.84646 35.7529 11.1807C35.9502 10.2799 36.0449 9.35964 36.0352 8.4375C36.0352 6.32215 35.387 4.77193 34.1605 3.95437C33.6432 3.6111 33.0486 3.40166 32.4303 3.34485L32.1661 3.32385L31.9432 3.18059C30.8788 2.47829 29.6325 2.10216 28.3573 2.09839C27.7056 2.10057 27.0574 2.19257 26.4309 2.37182C24.7861 2.83658 23.459 3.81902 22.9219 4.53516C21.3029 6.69366 21.0271 9.69064 22.1245 13.2021C22.4878 14.3493 22.9498 15.463 23.5054 16.5305Z" fill="#E9BD54"/>
</svg>
