<svg width="50" height="50" viewBox="0 0 50 50" fill="none" xmlns="http://www.w3.org/2000/svg">
<path d="M16.6092 23.0441C15.5308 23.0441 14.6533 23.9215 14.6533 25C14.6533 26.0785 15.5308 26.9559 16.6092 26.9559C17.6876 26.9559 18.565 26.0785 18.565 25C18.565 23.9215 17.6877 23.0441 16.6092 23.0441Z" fill="#1C1C1C"/>
<path d="M26.4671 37.2992H23.5327V41.1438C24.0162 41.1874 24.5053 41.2109 24.9999 41.2109C25.4945 41.2109 25.9836 41.1874 26.4671 41.1438V37.2992Z" fill="#1C1C1C"/>
<path d="M23.5327 12.7008H26.4671V8.85615C25.9836 8.8126 25.4945 8.78906 24.9999 8.78906C24.5053 8.78906 24.0162 8.8126 23.5327 8.85615V12.7008Z" fill="#1C1C1C"/>
<path d="M29.3969 9.39529V15.6305H20.6031V9.39529C13.7939 11.3165 8.78906 17.5846 8.78906 25C8.78906 32.4154 13.7939 38.6835 20.6031 40.6047V34.3695H29.3969V40.6047C36.2061 38.6835 41.2109 32.4154 41.2109 25C41.2109 17.5846 36.2061 11.3165 29.3969 9.39529ZM16.609 29.8855C13.915 29.8855 11.7234 27.6939 11.7234 25C11.7234 22.306 13.915 20.1144 16.609 20.1144C19.3028 20.1144 21.4945 22.306 21.4945 25C21.4945 27.6939 19.3029 29.8855 16.609 29.8855ZM33.391 29.8855C30.6972 29.8855 28.5055 27.6939 28.5055 25C28.5055 22.306 30.6971 20.1144 33.391 20.1144C36.085 20.1144 38.2766 22.306 38.2766 25C38.2766 27.6939 36.085 29.8855 33.391 29.8855Z" fill="#1C1C1C"/>
<path d="M33.3909 23.0441C32.3125 23.0441 31.4351 23.9215 31.4351 25C31.4351 26.0785 32.3124 26.9559 33.3909 26.9559C34.4694 26.9559 35.3468 26.0785 35.3468 25C35.3468 23.9215 34.4693 23.0441 33.3909 23.0441Z" fill="#1C1C1C"/>
<path d="M42.6777 7.32227C37.9558 2.60049 31.6777 0 25 0C18.3223 0 12.0442 2.60049 7.32227 7.32227C2.60049 12.0442 0 18.3223 0 25C0 31.6777 2.60049 37.9558 7.32227 42.6777C12.0442 47.3995 18.3223 50 25 50C31.6777 50 37.9558 47.3995 42.6777 42.6777C47.3995 37.9558 50 31.6777 50 25C50 18.3223 47.3995 12.0442 42.6777 7.32227ZM25 44.1406C14.4458 44.1406 5.85938 35.5542 5.85938 25C5.85938 14.4458 14.4458 5.85938 25 5.85938C35.5542 5.85938 44.1406 14.4458 44.1406 25C44.1406 35.5542 35.5542 44.1406 25 44.1406Z" fill="#1C1C1C"/>
</svg>
