<svg width="30" height="30" viewBox="0 0 30 30" fill="none" xmlns="http://www.w3.org/2000/svg">
<path d="M25.9414 7.46178H25.1528V5.07227H4.84692V11.5201C4.84692 13.4622 5.3973 15.3501 6.43845 16.9796C6.90726 17.7134 7.46595 18.3788 8.09735 18.9645H11.1688H18.8308H21.9023C22.5337 18.3788 23.0924 17.7133 23.5612 16.9796C23.8479 16.5309 24.096 16.0621 24.307 15.5785H25.9414C28.1793 15.5785 29.9999 13.7579 29.9999 11.52C29.9998 9.28234 28.1792 7.46178 25.9414 7.46178ZM25.9414 13.7962H24.8944C25.0644 13.0545 25.1527 12.2917 25.1527 11.52V9.24402H25.9413C27.1965 9.24402 28.2175 10.2651 28.2175 11.52C28.2176 12.7752 27.1965 13.7962 25.9414 13.7962Z" fill="#1C1C1C" fill-opacity="0.7"/>
<path d="M19.2464 20.7461H10.7536H0V21.0432C0 23.1858 1.74311 24.929 3.88564 24.929H26.1143C28.2568 24.929 30 23.1858 30 21.0432V20.7461H19.2464Z" fill="#1C1C1C" fill-opacity="0.7"/>
</svg>
