<svg width="50" height="50" viewBox="0 0 50 50" fill="none" xmlns="http://www.w3.org/2000/svg">
<path d="M43.2358 12.4347H41.9214V8.45215H8.07837V19.1985C8.07837 22.4353 8.99565 25.5819 10.7309 28.2978C11.5123 29.5207 12.4434 30.6297 13.4958 31.6059H18.6148H31.3849H36.504C37.5563 30.6297 38.4874 29.5205 39.2689 28.2978C39.7467 27.5499 40.1601 26.7686 40.5119 25.9625H43.2359C46.9657 25.9625 49.9999 22.9281 49.9999 19.1984C49.9998 15.4689 46.9655 12.4347 43.2358 12.4347ZM43.2358 22.9921H41.4908C41.7742 21.7559 41.9213 20.4846 41.9213 19.1984V15.4051H43.2357C45.3276 15.4051 47.0293 17.1068 47.0293 19.1984C47.0294 21.2903 45.3276 22.9921 43.2358 22.9921Z" fill="#E9BD54"/>
<path d="M32.0773 34.5764H17.9227H0V35.0715C0 38.6425 2.90518 41.5479 6.47607 41.5479H43.5238C47.0947 41.5479 50 38.6425 50 35.0715V34.5764H32.0773Z" fill="#E9BD54"/>
</svg>
