<svg width="80" height="80" viewBox="0 0 80 80" fill="none" xmlns="http://www.w3.org/2000/svg">
<g clip-path="url(#clip0)">
<path d="M39.9993 20.0004C45.5221 20.0004 49.9992 15.5233 49.9992 10.0006C49.9992 4.47784 45.5221 0.000770569 39.9993 0.000770569C34.4766 0.000770569 29.9995 4.47784 29.9995 10.0006C29.9995 15.5233 34.4766 20.0004 39.9993 20.0004Z" fill="black"/>
<path d="M54.9788 47.18L52.7088 29.5003C52.4538 26.9353 50.3138 25.0004 47.7389 25.0004H44.9989C44.3339 25.0004 43.6989 25.2653 43.229 25.7303L39.999 28.9603L36.7691 25.7303C36.2991 25.2653 35.6641 25.0004 34.9991 25.0004H32.2642C29.6842 25.0004 27.5442 26.9353 27.2942 29.4353L25.0193 47.185C24.9293 47.895 25.1493 48.6149 25.6243 49.1499C26.0993 49.6899 26.7792 49.9999 27.4992 49.9999H30.1992L32.2892 75.4995C32.5391 78.0594 34.6841 79.9994 37.2641 79.9994H42.739C45.3189 79.9994 47.4589 78.0594 47.7189 75.4545L49.8038 49.9999H52.4988C53.2188 49.9999 53.8988 49.6899 54.3738 49.1499C54.8538 48.6149 55.0737 47.895 54.9788 47.18Z" fill="black"/>
<path d="M64.9988 20.0004C70.5216 20.0004 74.9987 15.5233 74.9987 10.0006C74.9987 4.47784 70.5216 0.000770569 64.9988 0.000770569C59.4761 0.000770569 54.999 4.47784 54.999 10.0006C54.999 15.5233 59.4761 20.0004 64.9988 20.0004Z" fill="black"/>
<path d="M14.9993 0.000770569C9.48443 0.000770569 4.99951 4.48569 4.99951 10.0006C4.99951 15.5155 9.48443 20.0004 14.9993 20.0004C20.5092 20.0004 24.9992 15.5155 24.9992 10.0006C24.9992 4.48569 20.5092 0.000770569 14.9993 0.000770569Z" fill="black"/>
<path d="M79.9784 47.18L77.7084 29.5053C77.4534 26.9353 75.3184 25.0004 72.7385 25.0004H69.9985C69.3335 25.0004 68.6986 25.2653 68.2286 25.7303L64.9986 28.9603L61.7687 25.7303C61.2987 25.2653 60.6637 25.0004 60.0037 25.0004H57.2638C56.9538 25.0004 56.6738 25.1103 56.3788 25.1653C57.0238 26.3053 57.5288 27.5403 57.6788 28.9253L59.9437 46.545C60.2237 48.6899 59.5537 50.8499 58.1137 52.4749C57.4338 53.2549 56.5638 53.8049 55.6338 54.2348L57.2938 70.4996C57.5488 73.0645 59.6887 74.9995 62.2687 74.9995H67.7436C70.3235 74.9995 72.4635 73.0595 72.7235 70.4546L74.8034 49.9999H77.4984C78.2184 49.9999 78.8984 49.6899 79.3734 49.1499C79.8534 48.6149 80.0734 47.895 79.9784 47.18Z" fill="black"/>
<path d="M21.8695 52.4499C20.4496 50.8449 19.7896 48.6899 20.0596 46.555L22.3345 28.8003C22.4645 27.4703 22.9545 26.2703 23.5795 25.1603C23.2995 25.1103 23.0345 25.0004 22.7395 25.0004H19.9996C19.3346 25.0004 18.6996 25.2653 18.2296 25.7303L14.9997 28.9603L11.7697 25.7303C11.2997 25.2653 10.6647 25.0004 10.0047 25.0004H7.26464C4.68469 25.0004 2.54472 26.9353 2.29473 29.4353L0.019768 47.185C-0.0702304 47.895 0.149766 48.6149 0.624757 49.1499C1.09975 49.6899 1.78474 49.9999 2.49972 49.9999H5.19968L7.28964 70.4996C7.53964 73.0595 9.6846 74.9995 12.2646 74.9995H17.7395C20.3194 74.9995 22.4594 73.0595 22.7194 70.4546L24.3793 54.2298C23.4445 53.7948 22.5695 53.2399 21.8695 52.4499Z" fill="black"/>
</g>
<defs>
<clipPath id="clip0">
<rect width="80" height="80" fill="white"/>
</clipPath>
</defs>
</svg>
