<svg width="20" height="20" viewBox="0 0 20 20" fill="none" xmlns="http://www.w3.org/2000/svg">
<path d="M10 20C15.5228 20 20 15.5228 20 10C20 4.47715 15.5228 0 10 0C4.47715 0 0 4.47715 0 10C0 15.5228 4.47715 20 10 20Z" fill="#139BD0"/>
<path fill-rule="evenodd" clip-rule="evenodd" d="M9.7945 12.1585C9.40939 12.5336 9.02761 12.9025 8.64939 13.2743C8.51716 13.4045 8.3685 13.4765 8.17872 13.4665C8.04916 13.4596 7.97672 13.4027 7.93694 13.2798C7.64716 12.3805 7.35316 11.4834 7.06494 10.5832C7.03694 10.4958 6.99561 10.4534 6.90716 10.4261C6.2245 10.2176 5.54316 10.0043 4.86294 9.78807C4.75828 9.75473 4.65272 9.71118 4.56228 9.64962C4.4225 9.55496 4.40205 9.40051 4.52739 9.2894C4.64316 9.18696 4.78139 9.09762 4.92494 9.04073C5.75939 8.71007 6.59828 8.39007 7.43583 8.06718C9.56139 7.24651 11.6869 6.42651 13.8127 5.60584C14.2169 5.44962 14.5276 5.66962 14.4856 6.10673C14.4587 6.38629 14.3863 6.6614 14.3278 6.9374C13.8663 9.11673 13.4043 11.2963 12.9403 13.4752C12.8301 13.9925 12.4667 14.1276 12.0409 13.8136C11.3278 13.2881 10.6154 12.7607 9.90272 12.2343C9.86872 12.2096 9.83339 12.1858 9.7945 12.1585ZM8.19383 12.8203C8.20183 12.8181 8.20983 12.8158 8.21783 12.8138C8.22228 12.7934 8.22872 12.7734 8.2305 12.7532C8.27628 12.2592 8.32472 11.7654 8.3645 11.2705C8.37339 11.1603 8.41116 11.0821 8.49405 11.0078C9.15139 10.4201 9.80472 9.82851 10.4594 9.23829C11.1841 8.58473 11.9089 7.93184 12.6309 7.27562C12.6756 7.23518 12.6943 7.16629 12.7249 7.11029C12.6569 7.10295 12.5841 7.07562 12.5223 7.09162C12.4381 7.1134 12.3583 7.16229 12.2832 7.20962C10.6838 8.21696 9.08583 9.22607 7.48539 10.2314C7.39494 10.2883 7.37805 10.3365 7.4125 10.4358C7.5305 10.7747 7.63783 11.1167 7.74916 11.4581C7.89739 11.9123 8.04561 12.3663 8.19383 12.8203Z" fill="white"/>
</svg>
