<svg width="40" height="40" viewBox="0 0 40 40" fill="none" xmlns="http://www.w3.org/2000/svg">
<path d="M27.5 26.25H17.5C16.4645 26.25 15.625 27.0895 15.625 28.125V31.875C15.625 32.9105 16.4645 33.75 17.5 33.75H27.5C28.5355 33.75 29.375 32.9105 29.375 31.875V28.125C29.375 27.0895 28.5355 26.25 27.5 26.25Z" fill="#E9BD54"/>
<path d="M21.1426 8.75H22.5001V7.5C22.3343 7.5 22.1753 7.43415 22.0581 7.31694C21.9409 7.19973 21.8751 7.04076 21.8751 6.875C21.8751 6.70924 21.9409 6.55027 22.0581 6.43306C22.1753 6.31585 22.3343 6.25 22.5001 6.25V5C22.3343 5 22.1753 4.93415 22.0581 4.81694C21.9409 4.69973 21.8751 4.54076 21.8751 4.375C21.8751 4.20924 21.9409 4.05027 22.0581 3.93306C22.1753 3.81585 22.3343 3.75 22.5001 3.75V2.5H21.1426C21.2138 2.70068 21.2502 2.91206 21.2501 3.125V8.125C21.2502 8.33794 21.2138 8.54932 21.1426 8.75Z" fill="#E9BD54"/>
<path d="M33.75 11.875C33.7498 11.7093 33.6839 11.5504 33.5667 11.4333C33.4496 11.3161 33.2907 11.2502 33.125 11.25H29.375C29.2093 11.2502 29.0504 11.3161 28.9333 11.4333C28.8161 11.5504 28.7502 11.7093 28.75 11.875V12.5H33.75V11.875Z" fill="#E9BD54"/>
<path d="M36.25 3.125C36.2498 2.9593 36.1839 2.80043 36.0667 2.68326C35.9496 2.56609 35.7907 2.50019 35.625 2.5H29.375C29.2093 2.50019 29.0504 2.56609 28.9333 2.68326C28.8161 2.80043 28.7502 2.9593 28.75 3.125V3.75H35.625C35.7907 3.74981 35.9496 3.68391 36.0667 3.56674C36.1839 3.44957 36.2498 3.2907 36.25 3.125Z" fill="#E9BD54"/>
<path d="M20 8.125V3.125C19.9998 2.9593 19.9339 2.80043 19.8167 2.68326C19.6996 2.56609 19.5407 2.50019 19.375 2.5H18.125C17.9593 2.50019 17.8004 2.56609 17.6833 2.68326C17.5661 2.80043 17.5002 2.9593 17.5 3.125V8.75H19.375C19.5407 8.74981 19.6996 8.68391 19.8167 8.56674C19.9339 8.44957 19.9998 8.2907 20 8.125Z" fill="#E9BD54"/>
<path d="M30 8.75H32.5V10H30V8.75Z" fill="#E9BD54"/>
<path d="M30.625 5H31.875V7.5H30.625V5Z" fill="#E9BD54"/>
<path d="M12.3665 8.125H2.63354L3.72401 33.75H6.25003V18.125C6.25003 17.9592 6.31588 17.8003 6.43309 17.6831C6.5503 17.5658 6.70927 17.5 6.87503 17.5H11.9675L12.3665 8.125Z" fill="#E9BD54"/>
<path d="M17.5 10H18.75V17.5H17.5V10Z" fill="#E9BD54"/>
<path d="M12.5 34.375C12.5 34.2092 12.5658 34.0503 12.6831 33.9331C12.8003 33.8158 12.9592 33.75 13.125 33.75H15.0017C14.5943 33.2099 14.3743 32.5515 14.375 31.875V28.125C14.3759 27.2965 14.7055 26.5022 15.2913 25.9163C15.8772 25.3305 16.6715 25.0009 17.5 25H23.75V18.75H11.25V19.375C11.25 19.5408 11.1842 19.6997 11.0669 19.8169C10.9497 19.9342 10.7908 20 10.625 20C10.4592 20 10.3003 19.9342 10.1831 19.8169C10.0658 19.6997 10 19.5408 10 19.375V18.75H7.5V37.5H10V36.875C10 36.7092 10.0658 36.5503 10.1831 36.4331C10.3003 36.3158 10.4592 36.25 10.625 36.25C10.7908 36.25 10.9497 36.3158 11.0669 36.4331C11.1842 36.5503 11.25 36.7092 11.25 36.875V37.5H13.1267C12.7193 36.9599 12.4993 36.3015 12.5 35.625V34.375ZM11.25 34.375C11.25 34.5408 11.1842 34.6997 11.0669 34.8169C10.9497 34.9342 10.7908 35 10.625 35C10.4592 35 10.3003 34.9342 10.1831 34.8169C10.0658 34.6997 10 34.5408 10 34.375V33.125C10 32.9592 10.0658 32.8003 10.1831 32.6831C10.3003 32.5658 10.4592 32.5 10.625 32.5C10.7908 32.5 10.9497 32.5658 11.0669 32.6831C11.1842 32.8003 11.25 32.9592 11.25 33.125V34.375ZM11.25 30.625C11.25 30.7908 11.1842 30.9497 11.0669 31.0669C10.9497 31.1842 10.7908 31.25 10.625 31.25C10.4592 31.25 10.3003 31.1842 10.1831 31.0669C10.0658 30.9497 10 30.7908 10 30.625V29.375C10 29.2092 10.0658 29.0503 10.1831 28.9331C10.3003 28.8158 10.4592 28.75 10.625 28.75C10.7908 28.75 10.9497 28.8158 11.0669 28.9331C11.1842 29.0503 11.25 29.2092 11.25 29.375V30.625ZM11.25 26.875C11.25 27.0408 11.1842 27.1997 11.0669 27.3169C10.9497 27.4342 10.7908 27.5 10.625 27.5C10.4592 27.5 10.3003 27.4342 10.1831 27.3169C10.0658 27.1997 10 27.0408 10 26.875V25.625C10 25.4592 10.0658 25.3003 10.1831 25.1831C10.3003 25.0658 10.4592 25 10.625 25C10.7908 25 10.9497 25.0658 11.0669 25.1831C11.1842 25.3003 11.25 25.4592 11.25 25.625V26.875ZM11.25 23.125C11.25 23.2908 11.1842 23.4497 11.0669 23.5669C10.9497 23.6842 10.7908 23.75 10.625 23.75C10.4592 23.75 10.3003 23.6842 10.1831 23.5669C10.0658 23.4497 10 23.2908 10 23.125V21.875C10 21.7092 10.0658 21.5503 10.1831 21.4331C10.3003 21.3158 10.4592 21.25 10.625 21.25C10.7908 21.25 10.9497 21.3158 11.0669 21.4331C11.1842 21.5503 11.25 21.7092 11.25 21.875V23.125Z" fill="#E9BD54"/>
<path d="M3.75 35H6.25V37.5H3.75V35Z" fill="#E9BD54"/>
<path d="M12.4727 5.625H2.5271L2.5803 6.875H12.4195L12.4727 5.625Z" fill="#E9BD54"/>
<path d="M17.5 35H13.75V35.625C13.7506 36.1221 13.9483 36.5987 14.2998 36.9502C14.6513 37.3017 15.1279 37.4994 15.625 37.5H29.375C29.8721 37.4994 30.3487 37.3017 30.7002 36.9502C31.0517 36.5987 31.2494 36.1221 31.25 35.625V35H17.5Z" fill="#E9BD54"/>
<path d="M35.625 13.75H26.875C26.3779 13.7506 25.9013 13.9483 25.5498 14.2998C25.1983 14.6513 25.0006 15.1279 25 15.625V25H27.5C28.3285 25.0009 29.1228 25.3305 29.7087 25.9163C30.2945 26.5022 30.6241 27.2965 30.625 28.125V31.875C30.6257 32.5515 30.4057 33.2099 29.9983 33.75H31.875C32.0408 33.75 32.1997 33.8158 32.3169 33.9331C32.4342 34.0503 32.5 34.2092 32.5 34.375V35.625C32.5007 36.3015 32.2807 36.9599 31.8733 37.5H35.625C36.1221 37.4994 36.5987 37.3017 36.9502 36.9502C37.3017 36.5987 37.4994 36.1221 37.5 35.625V15.625C37.4994 15.1279 37.3017 14.6513 36.9502 14.2998C36.5987 13.9483 36.1221 13.7506 35.625 13.75ZM31.25 21.875C28.7969 21.875 26.875 20.5023 26.875 18.75C26.875 16.9977 28.7969 15.625 31.25 15.625C33.7031 15.625 35.625 16.9977 35.625 18.75C35.625 20.5023 33.7031 21.875 31.25 21.875Z" fill="#E9BD54"/>
<path d="M31.25 20.625C32.9759 20.625 34.375 19.7855 34.375 18.75C34.375 17.7145 32.9759 16.875 31.25 16.875C29.5241 16.875 28.125 17.7145 28.125 18.75C28.125 19.7855 29.5241 20.625 31.25 20.625Z" fill="#E9BD54"/>
</svg>
