<svg width="40" height="40" viewBox="0 0 40 40" fill="none" xmlns="http://www.w3.org/2000/svg">
<g clip-path="url(#clip0)">
<path d="M24.1825 32.005C24.1408 24.9067 23.7211 21.1185 23.3145 17.4493C22.9009 13.7167 22.4741 9.863 22.4323 2.6355H1.50773C0.676328 2.6355 0 3.3119 0 4.14323V32.3124C0.463359 32.1145 0.972891 32.005 1.50773 32.005H24.1825V32.005Z" fill="#E9BD54"/>
<path d="M36.1868 17.1913C36.6222 21.1207 37.0724 25.184 37.0724 33.177V34.3489H1.50773C0.676328 34.3489 0 35.0252 0 35.8566C0 36.688 0.676328 37.3643 1.50773 37.3643H40V7.90698H35.4348C35.5954 11.8537 35.8945 14.5533 36.1868 17.1913Z" fill="#E9BD54"/>
<path d="M28.5859 17.4493C28.1723 13.7167 27.7454 9.863 27.7036 2.6355H24.7761C24.8178 9.73378 25.2375 13.5221 25.6441 17.1912C26.0577 20.9238 26.4846 24.7775 26.5264 32.005H29.4539C29.4121 24.9067 28.9925 21.1184 28.5859 17.4493Z" fill="#E9BD54"/>
<path d="M30.0476 2.6355C30.0893 9.73378 30.509 13.5221 30.9156 17.1912C31.3292 20.9238 31.756 24.7775 31.7978 32.005H34.7254C34.6838 24.9061 34.264 21.1187 33.8574 17.4493C33.4439 13.7168 33.0169 9.863 32.9752 2.6355H30.0476Z" fill="#E9BD54"/>
</g>
<defs>
<clipPath id="clip0">
<rect width="40" height="40" fill="white"/>
</clipPath>
</defs>
</svg>
