<svg width="30" height="30" viewBox="0 0 30 30" fill="none" xmlns="http://www.w3.org/2000/svg">
<path d="M15 30C23.2843 30 30 23.2843 30 15C30 6.71573 23.2843 0 15 0C6.71573 0 0 6.71573 0 15C0 23.2843 6.71573 30 15 30Z" fill="#34E0A1"/>
<path fill-rule="evenodd" clip-rule="evenodd" d="M14.9196 20.9717C14.8461 20.9008 14.8043 20.8255 14.7539 20.7569C14.7049 20.692 14.6586 20.6248 14.6114 20.559C14.561 20.4882 14.5106 20.4174 14.4597 20.347C14.4134 20.2807 14.3653 20.214 14.3181 20.1477C14.2673 20.0778 14.2173 20.0066 14.1674 19.9357C14.1197 19.8699 14.0721 19.8045 14.0253 19.7378C13.9745 19.667 13.9254 19.5953 13.8737 19.5249C13.8256 19.4618 13.7874 19.3901 13.7203 19.3279C12.6058 20.5681 11.2285 21.2145 9.56115 21.1773C8.30598 21.1491 7.20015 20.7056 6.25049 19.8826C4.24857 18.1458 3.7819 15.0707 5.50555 12.7524C5.29311 12.0974 5.03799 11.4568 4.57677 10.9244C4.60446 10.8808 4.63987 10.8917 4.66938 10.8917C4.87093 10.8908 5.07158 10.8908 5.27222 10.8908C6.16242 10.8908 7.05171 10.8908 7.94191 10.8908C8.00092 10.8908 8.06084 10.8908 8.11441 10.8908C8.13257 10.874 8.14709 10.8649 8.15617 10.8517C8.33049 10.5971 8.55565 10.395 8.80442 10.218C9.19527 9.93792 9.62561 9.73319 10.075 9.56704C10.5953 9.37366 11.1305 9.23883 11.6747 9.14078C12.4823 8.99461 13.2981 8.92788 14.1179 8.90064C14.704 8.8793 15.29 8.88838 15.8756 8.91743C16.7595 8.96101 17.636 9.06361 18.499 9.27197C19.0165 9.39772 19.5208 9.56023 20.0034 9.78902C20.313 9.93429 20.6085 10.1054 20.8782 10.3174C21.0488 10.4532 21.2086 10.6002 21.3375 10.7768C21.3748 10.829 21.4193 10.8622 21.4837 10.8681C21.5591 10.8753 21.6335 10.8903 21.7084 10.8903C22.7344 10.8921 23.7598 10.8912 24.7849 10.8912C24.8439 10.8912 24.902 10.8912 24.9746 10.8912C24.9528 10.9779 24.8911 11.017 24.8529 11.0719C24.813 11.1295 24.7676 11.1836 24.7277 11.2421C24.6877 11.3007 24.6505 11.3601 24.6142 11.4205C24.5779 11.4818 24.5438 11.5431 24.5107 11.6048C24.4743 11.672 24.4408 11.7396 24.4067 11.8077C24.3772 11.8717 24.3486 11.9362 24.3209 12.0011C24.2932 12.066 24.2655 12.1305 24.2392 12.1963C24.2124 12.2621 24.1893 12.3284 24.1648 12.3942C24.1411 12.4601 24.1185 12.5263 24.0958 12.5904C25.0323 13.7829 25.4295 15.1243 25.2329 16.6192C25.0586 17.9483 24.4476 19.0592 23.4244 19.9253C22.3076 20.8704 21.008 21.2853 19.5476 21.1569C18.0923 21.0275 16.907 20.3688 15.9514 19.263C15.8452 19.4042 15.7707 19.554 15.6836 19.6956C15.5982 19.8341 15.5174 19.9757 15.4348 20.116C15.3486 20.2603 15.2641 20.406 15.1774 20.5495C15.0939 20.687 15.0167 20.83 14.9196 20.9717ZM13.9386 15.9224C13.9291 13.5818 12.0511 11.6956 9.71777 11.6924C7.3091 11.6879 5.48649 13.6517 5.47786 15.9019C5.46969 18.2312 7.36721 20.1418 9.69779 20.1486C11.9548 20.1568 13.9232 18.3374 13.9386 15.9224ZM24.2469 15.9305C24.2633 13.6653 22.4302 11.6997 20.0338 11.6924C17.6088 11.6852 15.7984 13.6703 15.7898 15.9028C15.7826 18.208 17.6583 20.1364 19.9984 20.1491C22.3267 20.1614 24.2496 18.2638 24.2469 15.9305ZM9.82944 10.9802C9.84306 10.982 9.85758 10.9875 9.8712 10.9856C10.4241 10.9289 10.9648 10.9938 11.4954 11.1463C12.4519 11.4196 13.2191 11.9698 13.8197 12.7574C14.2418 13.3117 14.5392 13.9295 14.7607 14.5855C14.8106 14.7344 14.856 14.8842 14.9028 15.034C14.9527 15.019 14.95 14.9763 14.96 14.9418C15.059 14.6095 15.1733 14.2813 15.3132 13.964C15.601 13.3121 15.9718 12.7166 16.4884 12.2217C17.4558 11.297 18.6148 10.8944 19.9466 10.9847C19.9657 10.9856 19.9857 10.9847 20.0138 10.9847C19.9916 10.9185 19.943 10.8899 19.9031 10.8563C19.6988 10.6851 19.4773 10.5399 19.2444 10.4114C18.8159 10.174 18.3633 9.99466 17.8921 9.86075C17.2279 9.67009 16.5502 9.56295 15.8602 9.52391C15.0898 9.48124 14.3208 9.48215 13.5523 9.55751C13.0498 9.60699 12.5541 9.69324 12.067 9.82534C11.5095 9.97605 10.9752 10.1826 10.4772 10.4754C10.2702 10.5971 10.0732 10.7305 9.89344 10.8885C9.86666 10.9121 9.82853 10.9298 9.82944 10.9802Z" fill="white"/>
<path fill-rule="evenodd" clip-rule="evenodd" d="M12.2335 15.9287C12.2399 17.2842 11.1254 18.459 9.68639 18.4486C8.30139 18.4395 7.16969 17.3128 7.17877 15.9042C7.18875 14.457 8.38491 13.3843 9.71908 13.3924C11.0891 13.3988 12.2458 14.5287 12.2335 15.9287ZM9.71317 17.6727C10.592 17.6782 11.4563 16.9778 11.4604 15.9228C11.4632 14.935 10.6728 14.1628 9.69956 14.1682C8.65592 14.1737 7.95184 15.0326 7.95366 15.9191C7.95457 16.8833 8.7449 17.6814 9.71317 17.6727Z" fill="white"/>
<path fill-rule="evenodd" clip-rule="evenodd" d="M20.0115 13.3949C21.4011 13.379 22.5418 14.5298 22.5491 15.9093C22.5555 17.2453 21.4805 18.4387 20.0347 18.4487C18.5988 18.4592 17.4916 17.2857 17.4907 15.9243C17.4898 14.5216 18.641 13.384 20.0115 13.3949ZM21.7715 15.9225C21.7819 15.0286 21.0669 14.1739 20.0297 14.168C18.9783 14.1616 18.2665 15.0286 18.2665 15.9188C18.2665 16.8685 19.0432 17.6684 20.0088 17.6734C20.9716 17.6788 21.7765 16.8908 21.7715 15.9225Z" fill="white"/>
<path fill-rule="evenodd" clip-rule="evenodd" d="M9.714 15.0649C10.1897 15.0685 10.5633 15.4539 10.5633 15.931C10.5633 16.3142 10.2642 16.7727 9.70856 16.7749C9.22101 16.7786 8.8515 16.3918 8.85059 15.9174C8.84968 15.443 9.23826 15.0617 9.714 15.0649Z" fill="white"/>
<path fill-rule="evenodd" clip-rule="evenodd" d="M20.8773 15.9137C20.8782 16.3545 20.5409 16.7739 20.0234 16.7753C19.5199 16.778 19.1604 16.379 19.1636 15.9196C19.1677 15.379 19.6094 15.0657 20.0084 15.0648C20.4855 15.0639 20.8727 15.4393 20.8773 15.9137Z" fill="white"/>
</svg>
