<svg width="40" height="40" viewBox="0 0 40 40" fill="none" xmlns="http://www.w3.org/2000/svg">
<path d="M20 34.0628C22.2265 34.0628 24.2432 33.1642 25.7227 31.719H21.1719C18.5866 31.719 16.4844 29.6167 16.4844 27.0315C16.4844 25.4785 17.2328 24.0892 18.415 23.2332C16.5823 22.0903 14.1234 22.1163 12.2611 23.2534C11.9826 24.0769 11.7969 24.9434 11.7969 25.8596C11.7969 30.3824 15.4773 34.0628 20 34.0628Z" fill="#E9BD54"/>
<path d="M21.4751 22.7889L22.8691 24.3739L20.7862 24.7184C19.6521 24.9061 18.8281 25.8788 18.8281 27.0312C18.8281 28.3233 19.8798 29.375 21.1719 29.375H27.3803C27.8924 28.3052 28.2031 27.1223 28.2031 25.8594C28.2031 21.3366 24.5227 17.6562 20 17.6562C17.6883 17.6562 15.6058 18.626 14.113 20.1701C16.7947 19.8117 19.6461 20.708 21.4751 22.7889Z" fill="#E9BD54"/>
<path d="M2.42188 4.6875C2.42188 7.27633 4.52054 9.375 7.10938 9.375H32.8906C35.4795 9.375 37.5781 7.27633 37.5781 4.6875C37.5781 2.09867 35.4795 0 32.8906 0H7.10937C4.52054 0 2.42188 2.09867 2.42188 4.6875ZM23.5156 4.6875C23.5156 4.04029 24.0403 3.51562 24.6875 3.51562H31.7188C32.366 3.51562 32.8906 4.04029 32.8906 4.6875C32.8906 5.33471 32.366 5.85938 31.7188 5.85938H24.6875C24.0403 5.85938 23.5156 5.33471 23.5156 4.6875ZM11.7969 4.6875C11.7969 4.04029 12.3215 3.51562 12.9688 3.51562C13.616 3.51562 14.1406 4.04029 14.1406 4.6875C14.1406 5.33471 13.616 5.85938 12.9688 5.85938C12.3215 5.85938 11.7969 5.33471 11.7969 4.6875ZM7.10938 4.6875C7.10938 4.04029 7.63404 3.51562 8.28125 3.51562C8.92846 3.51562 9.45312 4.04029 9.45312 4.6875C9.45312 5.33471 8.92846 5.85938 8.28125 5.85938C7.63404 5.85938 7.10938 5.33471 7.10938 4.6875Z" fill="#E9BD54"/>
<path d="M2.42188 35C2.42188 37.7614 4.66045 40 7.42188 40H32.5781C35.3396 40 37.5781 37.7614 37.5781 35V16.7188C37.5781 13.9573 35.3396 11.7188 32.5781 11.7188H7.42188C4.66045 11.7188 2.42188 13.9573 2.42188 16.7188V35ZM20 15.3125C25.8159 15.3125 30.5469 20.0435 30.5469 25.8594C30.5469 31.6752 25.8159 36.4062 20 36.4062C14.1841 36.4062 9.45312 31.6752 9.45312 25.8594C9.45312 20.0435 14.1841 15.3125 20 15.3125Z" fill="#E9BD54"/>
</svg>
