<svg width="30" height="30" viewBox="0 0 30 30" fill="none" xmlns="http://www.w3.org/2000/svg">
<g clip-path="url(#clip0)">
<path d="M19.2498 0H10.7502C9.31459 0 7.96875 1.10801 7.96875 2.90625H22.0312C22.0312 1.11949 20.696 0 19.2498 0Z" fill="#1C1C1C" fill-opacity="0.7"/>
<path d="M25.3125 28.1248H23.625V20.3125C23.625 19.0715 22.6154 18.0625 21.375 18.0625H8.625C7.38457 18.0625 6.375 19.0715 6.375 20.3125V28.1248H4.6875C4.16977 28.1248 3.75 28.5445 3.75 29.0623C3.75 29.5801 4.16977 29.9998 4.6875 29.9998H25.3125C25.8302 29.9998 26.25 29.5801 26.25 29.0623C26.25 28.5445 25.8302 28.1248 25.3125 28.1248ZM20.7188 28.1248H18.8438V22.8438H15.9375V24.5623C15.9375 25.0803 15.518 25.4998 15 25.4998C14.482 25.4998 14.0625 25.0803 14.0625 24.5623V22.8438H11.1562V28.1248H9.28125V21.9063C9.28125 21.3883 9.70078 20.9688 10.2187 20.9688H19.7812C20.2992 20.9688 20.7188 21.3883 20.7188 21.9063V28.1248Z" fill="#1C1C1C" fill-opacity="0.7"/>
<path d="M7.96875 6.65625V10.875H22.0312V6.65625C22.549 6.65625 22.9688 6.23654 22.9688 5.71875C22.9688 5.20096 22.549 4.78125 22.0312 4.78125H7.96875C7.45102 4.78125 7.03125 5.20096 7.03125 5.71875C7.03125 6.23654 7.45102 6.65625 7.96875 6.65625Z" fill="#1C1C1C" fill-opacity="0.7"/>
<path d="M7.96875 14.625H8.25064C8.70316 15.5493 9.65332 16.1877 10.7502 16.1877H19.2498C20.3467 16.1877 21.2968 15.5493 21.7494 14.625H22.0312C22.549 14.625 22.9688 14.2053 22.9688 13.6875C22.9688 13.1697 22.549 12.75 22.0312 12.75H7.96875C7.45102 12.75 7.03125 13.1697 7.03125 13.6875C7.03125 14.2053 7.45102 14.625 7.96875 14.625Z" fill="#1C1C1C" fill-opacity="0.7"/>
</g>
<defs>
<clipPath id="clip0">
<rect width="30" height="30" fill="white"/>
</clipPath>
</defs>
</svg>
