<svg width="40" height="40" viewBox="0 0 40 40" fill="none" xmlns="http://www.w3.org/2000/svg">
<g clip-path="url(#clip0)">
<path d="M19.9913 28.3047C18.0795 28.3047 16.5242 29.8549 16.5242 31.7595C16.5242 33.6646 18.0795 35.2155 19.9913 35.2155C21.9037 35.2155 23.459 33.6646 23.459 31.7595C23.459 29.8549 21.9034 28.3047 19.9913 28.3047Z" fill="#E9BD54"/>
<path d="M28.4505 23.5973C26.1933 21.3414 23.1887 20.0984 19.9913 20.0984C16.8063 20.0984 13.8099 21.3332 11.5533 23.5749C10.6419 24.4819 10.6403 25.9596 11.5495 26.8682C11.9912 27.3105 12.5792 27.5534 13.2051 27.5534C13.8282 27.5534 14.414 27.3118 14.8551 26.8733C16.2283 25.5085 18.0524 24.7567 19.9913 24.7567C21.9375 24.7567 23.7667 25.5132 25.1409 26.8862C25.5825 27.3272 26.1703 27.5708 26.7955 27.5708C27.4192 27.5708 28.0048 27.3291 28.4461 26.8906C29.3588 25.9835 29.3604 24.5065 28.4505 23.5973Z" fill="#E9BD54"/>
<path d="M39.3172 12.7668C34.1567 7.61891 27.2928 4.78467 19.9914 4.78467C12.6998 4.78467 5.84294 7.61229 0.683954 12.7479C-0.227459 13.6549 -0.22809 15.1326 0.682692 16.0412C1.12404 16.4813 1.71115 16.7233 2.33579 16.7233C2.96012 16.7233 3.54659 16.4822 3.98794 16.0425C8.26423 11.786 13.9475 9.44142 19.9914 9.44142C26.0442 9.44142 31.7332 11.7908 36.0104 16.0585C36.4518 16.4989 37.0398 16.7419 37.6641 16.7419C38.2881 16.7419 38.8746 16.4996 39.3157 16.0604C40.2274 15.1527 40.2283 13.6745 39.3172 12.7668Z" fill="#E9BD54"/>
<path d="M33.7462 18.3178C30.0728 14.6529 25.1879 12.6348 19.9914 12.6348C14.8043 12.6348 9.92673 14.6466 6.25647 18.2985C5.81449 18.738 5.57126 19.3226 5.57031 19.945C5.57031 20.5668 5.8126 21.152 6.25395 21.5921C6.6953 22.0325 7.28272 22.2754 7.90736 22.2754C8.53106 22.2754 9.11753 22.0331 9.55952 21.5946C12.3477 18.8206 16.0527 17.2925 19.9914 17.2925C23.9383 17.2925 27.6483 18.826 30.4384 21.6095C30.8804 22.0505 31.4675 22.2934 32.0924 22.2934C32.7165 22.2934 33.3032 22.0511 33.744 21.612C34.1853 21.1725 34.4292 20.5879 34.4295 19.9655C34.4301 19.3431 34.1872 18.7585 33.7462 18.3178Z" fill="#E9BD54"/>
</g>
<defs>
<clipPath id="clip0">
<rect width="40" height="40" fill="white"/>
</clipPath>
</defs>
</svg>
