<svg width="50" height="50" viewBox="0 0 50 50" fill="none" xmlns="http://www.w3.org/2000/svg">
<path d="M41.876 25.9172H1.02614C0.459301 25.9172 0 25.4577 0 24.891C0 24.3243 0.459301 23.8649 1.02614 23.8649H41.6776C41.7418 23.8523 41.8081 23.8457 41.876 23.8457C45.2239 23.8457 47.9477 21.1219 47.9477 17.774C47.9477 14.426 45.2239 11.7021 41.876 11.7021C38.528 11.7021 35.8042 14.4259 35.8042 17.7739C35.8042 18.3406 35.3449 18.8 34.7781 18.8C34.2113 18.8 33.752 18.3406 33.752 17.7739C33.752 13.2943 37.3964 9.64984 41.876 9.64984C46.3556 9.64984 50 13.2943 50 17.7739C50 22.1827 46.4699 25.7825 42.0879 25.8951C42.0195 25.9096 41.9488 25.9172 41.876 25.9172Z" fill="#1C1C1C"/>
<path d="M20.8352 18.8097H1.02614C0.4593 18.8097 0 18.3503 0 17.7836C0 17.2169 0.4593 16.7574 1.02614 16.7574H20.6368C20.7009 16.7449 20.7673 16.7383 20.8352 16.7383C24.1831 16.7383 26.9069 14.0145 26.9069 10.6665C26.9069 7.31858 24.1831 4.59479 20.8352 4.59479C17.4871 4.59479 14.7633 7.31858 14.7633 10.6665C14.7633 11.2332 14.304 11.6927 13.7371 11.6927C13.1703 11.6927 12.711 11.2332 12.711 10.6665C12.711 6.18695 16.3556 2.54251 20.8352 2.54251C25.3147 2.54251 28.9592 6.18695 28.9592 10.6665C28.9592 15.0754 25.4291 18.6752 21.0471 18.7878C20.9787 18.8021 20.9078 18.8097 20.8352 18.8097Z" fill="#1C1C1C"/>
<path d="M33.4092 47.4578C28.9296 47.4578 25.2851 43.8133 25.2851 39.3338C25.2851 38.7671 25.7444 38.3076 26.3112 38.3076C26.878 38.3076 27.3373 38.7671 27.3373 39.3338C27.3373 42.6817 30.0611 45.4055 33.4092 45.4055C36.7572 45.4055 39.481 42.6817 39.481 39.3338C39.481 35.9858 36.7572 33.262 33.4092 33.262H1.02614C0.459301 33.262 0 32.8026 0 32.2359C0 31.6692 0.459301 31.2097 1.02614 31.2097H33.4092C37.8888 31.2097 41.5332 34.8542 41.5332 39.3338C41.5332 43.8133 37.8888 47.4578 33.4092 47.4578Z" fill="#1C1C1C"/>
</svg>
