<svg width="30" height="30" viewBox="0 0 30 30" fill="none" xmlns="http://www.w3.org/2000/svg">
<path d="M15 30C23.2843 30 30 23.2843 30 15C30 6.71573 23.2843 0 15 0C6.71573 0 0 6.71573 0 15C0 23.2843 6.71573 30 15 30Z" fill="#FF0000"/>
<path d="M22 11.5625C22 11.5 22 11.4375 21.9375 11.375V11.3125C21.75 10.75 21.25 10.375 20.625 10.375H20.75C20.75 10.375 18.3125 10 15 10C11.75 10 9.25 10.375 9.25 10.375H9.375C8.75 10.375 8.25 10.75 8.0625 11.3125V11.375C8.0625 11.4375 8.0625 11.5 8 11.5625C7.9375 12.1875 7.75 13.5 7.75 15C7.75 16.5 7.9375 17.8125 8 18.4375C8 18.5 8 18.5625 8.0625 18.625V18.6875C8.25 19.25 8.75 19.625 9.375 19.625H9.25C9.25 19.625 11.6875 20 15 20C18.25 20 20.75 19.625 20.75 19.625H20.625C21.25 19.625 21.75 19.25 21.9375 18.6875V18.625C21.9375 18.5625 21.9375 18.5 22 18.4375C22.0625 17.8125 22.25 16.5 22.25 15C22.25 13.5 22.125 12.1875 22 11.5625ZM17.125 15.3125L14.1875 17.4375C14.125 17.5 14.0625 17.5 14 17.5C13.9375 17.5 13.875 17.5 13.8125 17.4375C13.6875 17.375 13.625 17.25 13.625 17.125V12.875C13.625 12.75 13.6875 12.625 13.8125 12.5625C13.9375 12.5 14.0625 12.5 14.1875 12.5625L17.125 14.6875C17.1875 14.75 17.25 14.875 17.25 15C17.3125 15.125 17.25 15.25 17.125 15.3125Z" fill="white"/>
</svg>
