<svg xmlns="http://www.w3.org/2000/svg" width="36" height="36" viewBox="0 0 36 36"><g><g><path fill="#c8c8c8" d="M34.615 18c0 9.176-7.439 16.615-16.615 16.615-9.176 0-16.615-7.439-16.615-16.615C1.385 8.824 8.824 1.385 18 1.385c9.172.01 16.605 7.443 16.615 16.615zM36 18c0-9.941-8.059-18-18-18S0 8.059 0 18s8.059 18 18 18c9.936-.011 17.989-8.064 18-18z"/></g><g><path fill="#c8c8c8" d="M11.77 24.923a.692.692 0 0 1-.49-1.182L23.74 11.28a.692.692 0 1 1 .98.979L12.258 24.72a.69.69 0 0 1-.49.203z"/></g><g><path fill="#c8c8c8" d="M24.23 24.923a.69.69 0 0 1-.489-.203L11.28 12.26a.692.692 0 0 1 .979-.98L24.72 23.742a.692.692 0 0 1-.49 1.182z"/></g></g></svg>