<svg xmlns="http://www.w3.org/2000/svg" width="36" height="36" viewBox="0 0 36 36"><g><g opacity=".1"><path fill="#1dce2f" d="M.692 18C.692 8.441 8.442.692 18 .692c9.559 0 17.308 7.75 17.308 17.308 0 9.559-7.75 17.308-17.308 17.308C8.441 35.308.692 27.558.692 18z"/></g><g opacity=".3"><path fill="#1dce2f" d="M2.77 18C2.77 8.441 9.587.692 18 .692 8.441.692.692 8.442.692 18c0 9.559 7.75 17.308 17.308 17.308-8.412 0-15.23-7.75-15.23-17.308z"/></g><g><path fill="#1dce2f" d="M34.615 18c0 9.176-7.439 16.615-16.615 16.615-9.176 0-16.615-7.439-16.615-16.615C1.385 8.824 8.824 1.385 18 1.385c9.172.01 16.605 7.443 16.615 16.615zM36 18c0-9.941-8.059-18-18-18S0 8.059 0 18s8.059 18 18 18c9.936-.011 17.989-8.064 18-18z"/></g><g><path fill="#1dce2f" d="M15.923 24.23a.691.691 0 0 1-.432-.15l-6.923-5.54a.692.692 0 0 1 .864-1.08l6.41 5.127 10.64-11.97a.692.692 0 0 1 1.035.92L16.441 23.998a.691.691 0 0 1-.518.233z"/></g></g></svg>