<svg width="33" height="32" viewBox="0 0 33 32" fill="none" xmlns="http://www.w3.org/2000/svg">
<g clip-path="url(#clip0_469_55)">
<mask id="mask0_469_55" style="mask-type:luminance" maskUnits="userSpaceOnUse" x="0" y="0" width="33" height="32">
<path d="M0.5 1.90735e-06H32.5V32H0.5V1.90735e-06Z" fill="white"/>
</mask>
<g mask="url(#mask0_469_55)">
<path d="M17.8694 11.7185L18.3579 11.231L19.6364 9.95544C20.2961 9.29719 20.2961 8.21907 19.6364 7.56082C18.9767 6.90251 17.8962 6.90251 17.2364 7.56082L15.4695 9.32388" stroke="white" stroke-width="1.5" stroke-miterlimit="10" stroke-linecap="round" stroke-linejoin="round"/>
<path d="M26.0892 15.193C25.5115 14.6166 24.5647 14.6166 23.987 15.193L21.7421 17.4346C21.1644 18.0111 21.1644 18.954 21.7421 19.5304C22.3198 20.1068 23.2649 20.1068 23.8426 19.5304L26.0892 17.2888C26.6669 16.7124 26.6669 15.7694 26.0892 15.193Z" stroke="white" stroke-width="1.5" stroke-miterlimit="10" stroke-linecap="round" stroke-linejoin="round"/>
<path d="M21.8117 12.5742C21.587 12.7984 22.0488 12.3375 22.056 12.3305C22.696 11.6704 22.689 10.6083 22.0363 9.95536C21.3766 9.29711 20.2961 9.29711 19.6363 9.95536L18.752 10.8378" stroke="white" stroke-width="1.5" stroke-miterlimit="10" stroke-linecap="round" stroke-linejoin="round"/>
<path d="M21.5496 26.6004C21.5157 25.7945 21.669 24.9797 22.0132 24.2343L14.257 16.4935M23.1775 19.9129L24.7608 21.4927C26.6544 20.6245 28.9813 20.9661 30.5361 22.5174C31.7771 23.7557 32.2461 25.4849 31.9412 27.0932C31.622 28.7815 30.7305 27.5042 30.5486 27.3227L28.3715 25.1505C27.6101 24.3908 26.3852 24.3588 25.5846 25.0562C24.8856 25.855 24.9178 27.0772 25.6791 27.8369L27.8562 30.0092C28.0381 30.1906 29.3183 31.0802 27.6262 31.3986C26.0143 31.7029 24.2812 31.2349 23.0403 29.9967C22.6533 29.6089 22.3413 29.1747 22.1041 28.7122M12.9304 9.69029L10.9868 7.74929C11.857 5.85992 11.5146 3.53823 9.95976 1.98692C8.71883 0.748665 6.98576 0.280728 5.37383 0.584978C3.6817 0.903416 4.96195 1.79298 5.14383 1.97442L7.32095 4.14667C8.08226 4.90635 8.11439 6.1286 7.41545 6.92735C6.61483 7.62479 5.38989 7.59273 4.62858 6.8331L2.45145 4.66085C2.26958 4.47935 1.37808 3.20198 1.05883 4.89035C0.754015 6.49867 1.22289 8.22792 2.46395 9.46616C4.01876 11.0175 6.34558 11.3591 8.2392 10.4909L10.2968 12.5439" stroke="white" stroke-width="1.5" stroke-miterlimit="10" stroke-linecap="round" stroke-linejoin="round"/>
<path d="M9.51409 24.6186L12.2029 27.3014C12.6184 27.7159 12.6184 28.3938 12.2029 28.8083L9.8119 31.1941C9.3964 31.6086 8.71709 31.6086 8.30165 31.1941L1.69903 24.6061C1.28359 24.1916 1.28359 23.5138 1.69903 23.0992L4.09009 20.7135C4.50553 20.2989 5.18484 20.2989 5.60034 20.7135L7.96465 23.0726" stroke="white" stroke-width="1.5" stroke-miterlimit="10" stroke-linecap="round" stroke-linejoin="round"/>
<path d="M12.2029 27.3014L15.3874 24.124C16.5803 22.9338 16.812 23.19 18.2206 23.391C18.8518 23.4817 19.7523 23.1455 20.4762 22.7007" stroke="white" stroke-width="1.5" stroke-miterlimit="10" stroke-linecap="round" stroke-linejoin="round"/>
<path d="M23.9871 12.7984C23.3273 12.1401 22.2468 12.1401 21.5871 12.7984L19.8272 14.5543C19.1657 15.2144 19.1657 16.2907 19.8272 16.9489C20.4869 17.609 21.5674 17.609 22.2272 16.9489L23.9871 15.193C24.6486 14.5347 24.6486 13.4566 23.9871 12.7984Z" stroke="white" stroke-width="1.5" stroke-miterlimit="10" stroke-linecap="round" stroke-linejoin="round"/>
<path d="M20.0447 14.3391C20.0929 13.8712 19.319 13.1649 18.5238 12.3714L15.0273 8.88263C14.6742 8.53038 14.0929 8.53038 13.7382 8.88444L10.8513 11.7648C10.1952 12.4194 9.90097 13.3819 9.95272 14.2466C10.033 15.5702 9.41597 16.9081 7.58659 18.7316L5.60034 20.7135M14.2481 12.8944C14.2783 12.9264 15.4605 14.1043 15.4908 14.1345C16.4269 15.0383 18.3152 15.8174 19.533 14.9493" stroke="white" stroke-width="1.5" stroke-miterlimit="10" stroke-linecap="round" stroke-linejoin="round"/>
<path d="M14.2482 12.8944C15.2912 13.9352 15.0024 15.91 13.6045 17.3047" stroke="white" stroke-width="1.5" stroke-miterlimit="10" stroke-linecap="round" stroke-linejoin="round"/>
</g>
</g>
<defs>
<clipPath id="clip0_469_55">
<rect width="32" height="32" fill="white" transform="translate(0.5)"/>
</clipPath>
</defs>
</svg>
