<svg width="33" height="32" viewBox="0 0 33 32" fill="none" xmlns="http://www.w3.org/2000/svg">
<path d="M3.5 15H15.5V17H3.5V15ZM1.5 10H11.5V12H1.5V10Z" fill="white"/>
<path d="M30.4158 15.605L27.2977 8.60565C27.2177 8.42575 27.0845 8.27242 26.9147 8.16469C26.7449 8.05697 26.5459 7.9996 26.3425 7.99971H23.2244V5.9999C23.2244 5.73471 23.1149 5.48038 22.9199 5.29287C22.725 5.10535 22.4606 5 22.185 5H5.55495V6.99981H21.1456V19.5546C20.672 19.8192 20.2575 20.1713 19.9261 20.5907C19.5946 21.0102 19.3528 21.4886 19.2144 21.9984H12.683C12.43 21.0558 11.8284 20.2343 10.9909 19.688C10.1534 19.1416 9.13749 18.9079 8.13364 19.0305C7.1298 19.1532 6.20692 19.6238 5.53799 20.3543C4.86905 21.0847 4.5 22.0248 4.5 22.9983C4.5 23.9717 4.86905 24.9118 5.53799 25.6422C6.20692 26.3727 7.1298 26.8433 8.13364 26.966C9.13749 27.0887 10.1534 26.8549 10.9909 26.3085C11.8284 25.7622 12.43 24.9407 12.683 23.9982H19.2144C19.4405 24.8563 19.9576 25.6174 20.6839 26.1611C21.4102 26.7048 22.3041 27 23.2244 27C24.1446 27 25.0386 26.7048 25.7648 26.1611C26.4911 25.6174 27.0082 24.8563 27.2343 23.9982H29.4606C29.7363 23.9982 30.0007 23.8928 30.1956 23.7053C30.3905 23.5178 30.5 23.2635 30.5 22.9983V15.9989C30.5 15.8635 30.4714 15.7294 30.4158 15.605ZM8.67308 24.9981C8.26194 24.9981 7.86004 24.8808 7.51819 24.661C7.17634 24.4413 6.9099 24.129 6.75256 23.7636C6.59523 23.3981 6.55406 22.996 6.63427 22.6081C6.71448 22.2202 6.91246 21.8639 7.20318 21.5842C7.4939 21.3045 7.8643 21.114 8.26754 21.0369C8.67077 20.9597 9.08874 20.9993 9.46859 21.1507C9.84843 21.302 10.1731 21.5584 10.4015 21.8872C10.6299 22.2161 10.7518 22.6027 10.7518 22.9983C10.7513 23.5285 10.5321 24.0368 10.1424 24.4118C9.75265 24.7867 9.22423 24.9975 8.67308 24.9981ZM23.2244 9.99952H25.6565L27.8849 14.999H23.2244V9.99952ZM23.2244 24.9981C22.8132 24.9981 22.4113 24.8808 22.0695 24.661C21.7276 24.4413 21.4612 24.129 21.3038 23.7636C21.1465 23.3981 21.1053 22.996 21.1855 22.6081C21.2658 22.2202 21.4637 21.8639 21.7545 21.5842C22.0452 21.3045 22.4156 21.114 22.8188 21.0369C23.2221 20.9597 23.64 20.9993 24.0199 21.1507C24.3997 21.302 24.7244 21.5584 24.9528 21.8872C25.1812 22.2161 25.3031 22.6027 25.3031 22.9983C25.3026 23.5285 25.0834 24.0368 24.6937 24.4118C24.3039 24.7867 23.7755 24.9975 23.2244 24.9981ZM28.4212 21.9984H27.2343C27.0053 21.1419 26.4874 20.3827 25.7617 19.8398C25.036 19.297 24.1436 19.0011 23.2244 18.9986V16.9988H28.4212V21.9984Z" fill="white"/>
</svg>
