<svg width="33" height="32" viewBox="0 0 33 32" fill="none" xmlns="http://www.w3.org/2000/svg">
<g clip-path="url(#clip0_469_3)">
<path d="M25.5025 30.1176L29.2155 24.0282L27.6583 23.0306L23.3368 30.1176H20.8764L22.7967 26.8372L21.2219 25.8687L18.7348 30.1176H17.4182V21.6471H20.0074L20.9256 16.9412H22.9276V9.41177H25.6822V5.64706H29.3551V0C28.5667 0 4.39137 0 3.64491 0V5.64706H7.3178V9.41177H10.0725V16.9412H12.0744L12.9926 21.6471H15.5818V30.1176H14.2652L11.778 25.8687L10.2033 26.8372L12.1236 30.1176H9.66318L5.34179 23.0306L3.78454 24.0282L7.49759 30.1176H1.80847V32H31.1915V30.1176H25.5025ZM23.8458 7.52941C23.3913 7.52941 19.7726 7.52941 19.2547 7.52941V5.64706H23.8458V7.52941ZM27.5187 1.88235V3.76471C26.4838 3.76471 20.1409 3.76471 19.2547 3.76471V1.88235H27.5187ZM17.4182 1.88235V7.52941H15.5818V1.88235H17.4182ZM5.48136 3.76471V1.88235H13.7453V3.76471C12.9007 3.76471 6.56706 3.76471 5.48136 3.76471ZM9.15424 7.52941V5.64706H13.7453V7.52941C13.2281 7.52941 9.6117 7.52941 9.15424 7.52941ZM21.0911 9.41177V15.0588H11.9089V9.41177H21.0911ZM13.9472 16.9412H19.0528L18.5019 19.7647H14.4981L13.9472 16.9412Z" fill="white"/>
<path d="M22.6212 23.5155L23.9999 21.1611L25.5756 22.1306L24.1969 24.4849L22.6212 23.5155Z" fill="white"/>
<path d="M7.4624 22.139L9.03807 21.1696L10.4167 23.5239L8.84108 24.4933L7.4624 22.139Z" fill="white"/>
</g>
<defs>
<clipPath id="clip0_469_3">
<rect width="31.2195" height="32" fill="white" transform="translate(0.890259)"/>
</clipPath>
</defs>
</svg>
