<svg width="33" height="32" viewBox="0 0 33 32" fill="none" xmlns="http://www.w3.org/2000/svg">
<g clip-path="url(#clip0_469_11)">
<path d="M16.0294 15.0588C17.5864 15.0588 18.8529 13.7923 18.8529 12.2353C18.8529 11.0083 18.066 9.96223 16.9706 9.57365V7.52942H15.0882V9.57365C13.9928 9.96217 13.2059 11.0083 13.2059 12.2353C13.2059 13.7923 14.4724 15.0588 16.0294 15.0588ZM16.0294 11.2941C16.5484 11.2941 16.9706 11.7163 16.9706 12.2353C16.9706 12.7543 16.5484 13.1765 16.0294 13.1765C15.5104 13.1765 15.0882 12.7543 15.0882 12.2353C15.0882 11.7163 15.5104 11.2941 16.0294 11.2941Z" fill="white"/>
<path d="M27.3235 24.4706V26.3529C26.5616 26.3529 20.4743 26.3529 19.7941 26.3529V23.8772C24.7042 22.2856 28.2647 17.6688 28.2647 12.2353C28.2647 5.48875 22.776 0 16.0294 0C9.28288 0 3.79413 5.48875 3.79413 12.2353C3.79413 17.6688 7.3546 22.2856 12.2647 23.8772V26.3529H6.61766V32H25.4412V28.2353H27.3235V30.1176H29.2059V24.4706H27.3235ZM5.67648 12.2353C5.67648 6.52668 10.3208 1.88235 16.0294 1.88235C21.738 1.88235 26.3824 6.52668 26.3824 12.2353C26.3824 17.9439 21.738 22.5882 16.0294 22.5882C10.3208 22.5882 5.67648 17.9439 5.67648 12.2353ZM14.1471 24.3257C15.3909 24.5187 16.6652 24.5191 17.9118 24.3257V26.3529H14.1471V24.3257ZM23.5588 30.1176H8.50001V28.2353H23.5588V30.1176Z" fill="white"/>
<path d="M15.0883 3.76471H16.9706V5.64706H15.0883V3.76471Z" fill="white"/>
<path d="M10.29 5.93309L11.8129 4.82627L12.9197 6.34909L11.3969 7.45591L10.29 5.93309Z" fill="white"/>
<path d="M7.68195 10.5131L8.26359 8.72294L10.0537 9.30459L9.47206 11.0947L7.68195 10.5131Z" fill="white"/>
<path d="M7.68152 13.9576L9.47164 13.376L10.0533 15.1661L8.26317 15.7478L7.68152 13.9576Z" fill="white"/>
<path d="M22.0032 15.1672L22.5848 13.3771L24.3749 13.9587L23.7933 15.7489L22.0032 15.1672Z" fill="white"/>
<path d="M22.0029 9.30505L23.793 8.72341L24.3747 10.5135L22.5846 11.0952L22.0029 9.30505Z" fill="white"/>
<path d="M19.1449 6.35417L20.2517 4.83135L21.7745 5.93817L20.6677 7.461L19.1449 6.35417Z" fill="white"/>
<path d="M11.3235 16.9412H20.7353V18.8235H11.3235V16.9412Z" fill="white"/>
</g>
<defs>
<clipPath id="clip0_469_11">
<rect width="32" height="32" fill="white" transform="translate(0.5)"/>
</clipPath>
</defs>
</svg>
