<svg width="58" height="51" viewBox="0 0 58 51" fill="none" xmlns="http://www.w3.org/2000/svg">
<path d="M57.0378 8.11091C56.4606 7.79873 55.7543 7.83012 55.2068 8.18765C55.1557 8.22209 49.8902 11.5483 40.1038 11.4556L40.1189 25.7501C40.1189 28.3066 39.6456 30.7488 38.8208 33.0239C39.243 32.9461 39.6741 32.8929 40.1189 32.8929C44.0637 32.8929 47.2617 36.0907 47.2617 40.0357H34.6172C32.6148 42.2659 30.1623 44.0775 27.3907 45.3148C30.6907 48.7365 35.2261 50.75 40.1189 50.75C49.9647 50.75 57.976 42.7388 57.976 32.8928V9.67858C57.976 9.02293 57.6133 8.42299 57.0378 8.11091ZM43.6903 25.7501C43.6903 23.7776 45.2893 22.1786 47.2618 22.1786C49.2343 22.1786 50.8333 23.7776 50.8333 25.7501H43.6903Z" fill="#71AFCA"/>
<path d="M36.5474 25.7521V2.53773C36.5474 1.88208 36.1847 1.28213 35.6092 0.969952C35.0303 0.659514 34.3275 0.689162 33.7782 1.04669C33.7276 1.07983 28.6391 4.32341 18.6903 4.32341C8.79738 4.32341 3.71057 1.11645 3.60419 1.04843C3.05144 0.68393 2.35208 0.650793 1.77665 0.962976C1.19589 1.27341 0.83313 1.8786 0.83313 2.53773V25.7521C0.83313 35.5979 8.84436 43.6093 18.6903 43.6093C28.5363 43.6093 36.5474 35.5979 36.5474 25.7521ZM11.5474 15.0377C13.5199 15.0377 15.1189 16.6366 15.1189 18.6091H7.97594C7.97594 16.6366 9.5749 15.0377 11.5474 15.0377ZM18.6903 32.8949C14.7455 32.8949 11.5475 29.6969 11.5475 25.7521H25.8332C25.8331 29.6969 22.6351 32.8949 18.6903 32.8949ZM22.2617 18.6091C22.2617 16.6366 23.8606 15.0377 25.8331 15.0377C27.8056 15.0377 29.4046 16.6366 29.4046 18.6091H22.2617Z" fill="#71AFCA"/>
</svg>
