<svg width="41" height="51" viewBox="0 0 41 51" fill="none" xmlns="http://www.w3.org/2000/svg">
<path d="M39.293 46.8652H37.5924C35.7431 46.8652 34.2397 45.3836 34.2046 43.5426C34.1684 41.6429 35.7595 40.088 37.6596 40.088H39.293C39.9812 40.088 40.3348 39.2602 39.8564 38.7659C38.6254 37.494 36.9012 36.7032 34.9916 36.7032C32.2991 36.7032 29.9741 38.2741 28.8819 40.5492H11.992C10.8998 38.2738 8.57478 36.7032 5.88237 36.7032C3.97235 36.7032 2.24811 37.494 1.01749 38.7659C0.539123 39.2602 0.892746 40.088 1.58092 40.088H3.21437C5.11447 40.088 6.70558 41.6429 6.66934 43.5426C6.63425 45.3836 5.13087 46.8652 3.28151 46.8652H1.58092C0.892746 46.8652 0.538742 47.693 1.01749 48.1874C2.24811 49.4588 3.97235 50.25 5.88199 50.25C8.5744 50.25 10.8998 48.6791 11.992 46.404H28.8819C29.9741 48.6791 32.2991 50.25 34.9916 50.25C36.9012 50.25 38.6254 49.4588 39.8564 48.1874C40.3348 47.693 39.9812 46.8652 39.293 46.8652Z" fill="#71AFCA"/>
<path d="M38.6228 22.791H2.7135C1.90517 22.791 1.2498 23.4464 1.2498 24.2547V28.1579C1.2498 28.7424 1.59732 29.2707 2.13405 29.5019C8.06972 32.0604 14.1458 33.381 20.1932 33.4268C20.3023 33.4276 20.411 33.4279 20.5201 33.4279C26.6778 33.4279 32.9564 32.11 39.187 29.5087C39.7317 29.281 40.0865 28.7485 40.0865 28.1579V24.2547C40.0865 23.4464 39.4311 22.791 38.6228 22.791Z" fill="#71AFCA"/>
<path d="M37.1534 15.5088C37.1534 10.6656 33.9063 6.56638 29.4751 5.27319V8.1964C29.4751 9.00473 28.8198 9.6601 28.0114 9.6601C27.2031 9.6601 26.5477 9.00473 26.5477 8.1964V4.83527C25.8866 2.20389 23.5013 0.25 20.6681 0.25C17.8529 0.25 15.4801 2.17986 14.8019 4.78606V8.1964C14.8019 9.00473 14.1465 9.6601 13.3382 9.6601C12.5299 9.6601 11.8745 9.00473 11.8745 8.1964V5.269C7.43648 6.55798 4.18292 10.6607 4.18292 15.5088V19.8663H37.1534V15.5088Z" fill="#71AFCA"/>
</svg>
