<svg width="51" height="51" viewBox="0 0 51 51" fill="none" xmlns="http://www.w3.org/2000/svg">
<path d="M20.987 11.1473C18.3463 9.21184 15.6369 6.82636 13.7085 3.93386L12.0204 1.4018C11.6628 0.865374 10.9962 0.626504 10.3768 0.812443C9.75879 0.999847 9.33681 1.56919 9.33681 2.21441V25.1974C8.47157 24.6928 7.47908 24.3826 6.4071 24.3826C3.17552 24.3826 0.547668 27.0104 0.547668 30.242C0.547668 33.4736 3.17552 36.1013 6.4071 36.1013C9.63867 36.1013 12.2665 33.4735 12.2665 30.2419V7.02412C14.3365 9.64055 16.9257 11.8025 19.2547 13.5105C20.399 14.3488 21.0557 15.6421 21.0557 17.0582C21.0557 19.4815 19.0844 21.4528 16.6611 21.4528C15.8514 21.4528 15.1962 22.1079 15.1962 22.9176C15.1962 23.7273 15.8514 24.3825 16.6611 24.3825C20.6995 24.3825 23.9854 21.0966 23.9854 17.0582C23.9854 14.7336 22.8653 12.5249 20.987 11.1473Z" fill="#71AFCA"/>
<path d="M48.6813 12.7195L27.978 18.5789C27.3486 18.7592 26.9151 19.3342 26.9151 19.988V39.846C26.0499 39.3414 25.0574 39.0311 23.9854 39.0311C20.7538 39.0311 18.126 41.659 18.126 44.8906C18.126 48.1221 20.7538 50.75 23.9854 50.75C27.217 50.75 29.8448 48.1221 29.8448 44.8906C29.8448 44.5566 29.8448 26.9529 29.8448 26.9529L47.6184 21.9305V33.9866C46.7532 33.482 45.7607 33.1717 44.6887 33.1717C41.4571 33.1717 38.8293 35.7996 38.8293 39.0311C38.8293 42.2627 41.4571 44.8906 44.6887 44.8906C47.9203 44.8906 50.5481 42.2627 50.5481 39.0311C50.5481 38.6972 50.5481 14.1286 50.5481 14.1286C50.5481 13.1597 49.6214 12.454 48.6813 12.7195Z" fill="#71AFCA"/>
</svg>
