<svg width="51" height="51" viewBox="0 0 51 51" fill="none" xmlns="http://www.w3.org/2000/svg">
<path d="M13.8089 24.1371C6.47119 24.1371 0.502441 30.1058 0.502441 37.4435C0.502441 44.7812 6.47119 50.75 13.8089 50.75C21.1466 50.75 27.1153 44.7812 27.1153 37.4435C27.1153 30.1058 21.1466 24.1371 13.8089 24.1371ZM13.3497 35.5791L15.3196 36.2584C19.1398 37.5755 19.2529 42.9967 15.4218 44.4306C15.4218 45.4693 14.6438 46.1129 13.8089 46.1129C12.9742 46.1129 12.196 45.4706 12.196 44.4306C10.5482 43.8138 9.3717 42.2235 9.3717 40.363C9.3717 39.4722 10.0939 38.7501 10.9846 38.7501C11.8753 38.7501 12.5975 39.4722 12.5975 40.363C12.5975 40.9783 13.0981 41.479 13.7135 41.479H13.9042C15.1604 41.479 15.4514 39.7159 14.268 39.3079L12.2981 38.6286C8.47784 37.3115 8.36474 31.8903 12.1959 30.4564C12.1959 29.4177 12.9739 28.7741 13.8088 28.7741C14.6435 28.7741 15.4217 29.4164 15.4217 30.4564C17.0695 31.0732 18.246 32.6635 18.246 34.524C18.246 35.4148 17.5238 36.1369 16.6331 36.1369C15.7424 36.1369 15.0202 35.4148 15.0202 34.524C15.0202 33.9087 14.5196 33.408 13.9042 33.408H13.7135C12.4574 33.408 12.1664 35.1711 13.3497 35.5791ZM45.6637 0.75H17.0347C14.3623 0.75 12.196 2.91633 12.196 5.58871V20.0091C12.196 20.6914 12.7598 21.2333 13.442 21.2178C20.5446 21.0573 26.7342 25.5118 29.0627 31.9002C29.2387 32.3831 29.6942 32.7064 30.2081 32.7036C30.6689 32.7012 31.4436 32.7055 32.8152 32.7056C33.6836 32.7057 34.4315 33.3729 34.4724 34.2402C34.5161 35.1666 33.778 35.9314 32.8613 35.9314H31.2452C30.5652 35.9314 30.0244 36.4915 30.0362 37.1713C30.0438 37.6074 30.0337 38.0434 30.0057 38.4806C29.9611 39.1764 30.5223 39.7621 31.2196 39.7621H32.8158C33.6843 39.7621 34.4316 40.4295 34.4725 41.297C34.5161 42.2232 33.778 42.9879 32.8613 42.9879C31.2122 42.9879 30.3878 43.0003 29.9216 42.986C29.4265 42.9708 28.9687 43.2594 28.7766 43.716C27.992 45.5816 26.8685 47.2709 25.4835 48.706C24.7452 49.4711 25.3 50.75 26.3631 50.75H45.6637C48.3361 50.75 50.5024 48.5837 50.5024 45.9113V5.58871C50.5024 2.91633 48.3361 0.75 45.6637 0.75ZM32.8613 28.875H29.8371C28.9463 28.875 28.2242 28.1528 28.2242 27.2621C28.2242 26.3714 28.9463 25.6492 29.8371 25.6492H32.8613C33.7521 25.6492 34.4742 26.3714 34.4742 27.2621C34.4742 28.1528 33.7521 28.875 32.8613 28.875ZM44.2524 41.375C44.2524 42.2657 43.5304 42.9879 42.6395 42.9879H39.6153C38.7245 42.9879 38.0024 42.2657 38.0024 41.375V27.2621C38.0024 26.3714 38.7245 25.6492 39.6153 25.6492H42.6395C43.5304 25.6492 44.2524 26.3714 44.2524 27.2621V41.375ZM44.2524 15.6694C44.2524 17.8927 42.4436 19.7016 40.2202 19.7016H22.4782C20.2549 19.7016 18.446 17.8927 18.446 15.6694V10.629C18.446 8.40564 20.2549 6.59677 22.4782 6.59677H40.2202C42.4436 6.59677 44.2524 8.40564 44.2524 10.629V15.6694Z" fill="#71AFCA"/>
</svg>
