<svg width="38" height="51" viewBox="0 0 38 51" fill="none" xmlns="http://www.w3.org/2000/svg">
<path d="M36.2552 9.36229H22.5816C22.0294 9.36229 21.5487 9.84296 21.5487 10.3952V16.8383C21.5487 17.5951 22.3464 18.1064 23.0214 17.7485L36.695 11.3157C37.687 10.8248 37.329 9.36229 36.2552 9.36229Z" fill="#71AFCA"/>
<path d="M16.5477 16.828V10.385C16.5477 9.83274 16.067 9.35207 15.5148 9.35207H1.8412C0.726454 9.35207 0.409415 10.8657 1.40144 11.2952L15.075 17.7689C15.75 18.1064 16.5477 17.5848 16.5477 16.828Z" fill="#71AFCA"/>
<path d="M21.6714 19.3746C21.1192 19.2927 20.6385 19.6916 20.5567 20.2439C20.4749 20.7961 20.8737 21.2768 21.426 21.3586C24.7293 21.7984 26.2327 22.9847 26.2327 23.6188C26.2327 24.4881 23.8089 25.8074 20.076 26.0426V7.32711C21.5896 6.88735 22.6941 5.49647 22.6941 3.87037C22.6532 1.88633 21.0271 0.25 19.0431 0.25C17.059 0.25 15.4227 1.8761 15.4227 3.87037C15.4227 5.53738 16.5375 6.92826 18.0408 7.32711V26.0426C14.308 25.8483 11.8842 24.529 11.8842 23.6188C11.8842 22.9438 13.3978 21.7881 16.6909 21.3586C17.2431 21.2768 17.6011 20.8064 17.5602 20.2439C17.4783 19.6916 17.0079 19.3337 16.4454 19.3746C12.4364 19.9268 9.88988 21.5632 9.88988 23.629C9.88988 25.296 11.516 26.5335 13.7455 27.2801C12.3137 28.0778 11.4444 29.1925 11.4444 30.5016C11.4444 32.1686 12.8762 33.5595 15.1364 34.3163C14.2261 35.114 13.6637 36.1878 13.6637 37.3332C13.6637 38.7241 14.4614 39.9514 15.6477 40.7491C14.4205 41.5468 13.6637 42.8149 13.6637 44.1649C13.6637 45.6785 14.5739 47.0694 16.0875 47.8569C16.5681 48.133 17.1613 47.9387 17.4374 47.458C17.7136 46.9773 17.5193 46.3842 17.0386 46.108C16.1693 45.6274 15.6477 44.9115 15.6477 44.1649C15.6477 43.0911 16.6806 42.14 18.0715 41.8229V49.258C18.0715 49.8102 18.5113 50.25 19.0635 50.25C19.6158 50.25 20.0556 49.8102 20.0556 49.258V41.8229C21.4464 42.14 22.4794 43.0502 22.4794 44.1649C22.4794 44.9217 21.9578 45.6376 21.0885 46.108C20.6078 46.3842 20.4135 46.9773 20.6896 47.458C20.8839 47.7751 21.3442 48.1944 22.0396 47.8569C23.5532 47.0183 24.4634 45.6683 24.4634 44.1649C24.4634 42.774 23.6657 41.5468 22.4794 40.7491C23.7066 39.9514 24.4634 38.6832 24.4634 37.3332C24.4634 36.1367 23.9112 35.1038 22.9907 34.3163C25.2202 33.5595 26.6827 32.1686 26.6827 30.5016C26.6827 29.1925 25.8134 28.0778 24.3816 27.2801C26.6111 26.5642 28.2372 25.3369 28.2372 23.629C28.227 21.5632 25.7213 19.9268 21.6714 19.3746ZM18.0511 39.7161C16.6602 39.3991 15.6273 38.4889 15.6273 37.3742C15.6273 36.3003 16.6602 35.3492 18.0511 35.0322V39.7161ZM18.0511 32.8845C15.3511 32.6902 13.4387 31.5345 13.4387 30.5016C13.4387 29.4687 15.3511 28.3539 18.0511 28.1187V32.8845ZM20.0453 39.7571V35.0731C21.4362 35.3901 22.4691 36.3003 22.4691 37.4151C22.4691 38.4889 21.4362 39.44 20.0453 39.7571ZM24.6475 30.5016C24.6475 31.5345 22.735 32.6902 20.0351 32.8845V28.1187C22.7453 28.3539 24.6475 29.4687 24.6475 30.5016Z" fill="#71AFCA"/>
</svg>
