<svg width="48" height="51" viewBox="0 0 48 51" fill="none" xmlns="http://www.w3.org/2000/svg">
<path d="M32.1112 4.94827C29.3887 3.74905 26.8044 2.25754 24.4041 0.5C22.0038 2.25755 19.4195 3.74906 16.6969 4.94827V12.4966C16.6969 15.2597 17.978 17.6043 20.5056 19.4653C21.6554 20.3009 22.9213 20.9636 24.2631 21.4323C25.6516 20.9652 26.9659 20.3011 28.1657 19.4605C30.7837 17.5991 32.1112 15.2562 32.1112 12.4966V4.94827ZM28.4375 8.76925L23.2821 13.9247C23.1649 14.0419 23.0059 14.1077 22.8402 14.1077C22.6745 14.1077 22.5156 14.0419 22.3984 13.9247L20.3704 11.8968C20.2532 11.7796 20.1874 11.6207 20.1874 11.4549C20.1874 11.2892 20.2532 11.1302 20.3704 11.013C20.4876 10.8958 20.6465 10.83 20.8123 10.83C20.978 10.8299 21.137 10.8958 21.2542 11.013L22.8403 12.5991L27.5536 7.88574C27.6115 7.82693 27.6804 7.78017 27.7564 7.74813C27.8324 7.7161 27.914 7.69943 27.9965 7.6991C28.079 7.69876 28.1608 7.71476 28.237 7.74618C28.3133 7.77759 28.3826 7.82379 28.4409 7.88212C28.4993 7.94045 28.5455 8.00976 28.5769 8.08603C28.6083 8.16231 28.6243 8.24405 28.624 8.32654C28.6236 8.40903 28.607 8.49064 28.5749 8.56666C28.5429 8.64268 28.4961 8.7116 28.4373 8.76945L28.4375 8.76925Z" fill="#71AFCA"/>
<path d="M7.48118 7.13491C7.64691 7.13491 7.80586 7.20075 7.92305 7.31795C8.04024 7.43514 8.10608 7.59408 8.10608 7.75982C8.10608 7.92555 8.04024 8.0845 7.92305 8.20169C7.80586 8.31888 7.64691 8.38472 7.48118 8.38472H5.08051C5.21892 8.90346 5.52462 9.36203 5.95019 9.68935C6.37576 10.0167 6.89743 10.1944 7.43431 10.1951H11.7185C11.8843 10.1951 12.0432 10.2609 12.1604 10.3781C12.2776 10.4953 12.3435 10.6542 12.3435 10.82C12.3435 10.9857 12.2776 11.1447 12.1604 11.2618C12.0432 11.379 11.8843 11.4449 11.7185 11.4449H8.90648C9.04492 11.9636 9.35062 12.4221 9.77619 12.7494C10.2018 13.0767 10.7234 13.2545 11.2603 13.2551H15.2657L14.6239 9.40509C14.4368 8.26357 13.8493 7.22599 12.9667 6.4783C12.0841 5.73061 10.964 5.32167 9.80728 5.32478H0.84314C0.981657 5.84344 1.28738 6.30193 1.71294 6.62919C2.13849 6.95645 2.66011 7.13421 3.19694 7.13491H7.48118Z" fill="#71AFCA"/>
<path d="M34.1854 9.40509L33.5436 13.2551H37.549C38.0859 13.2545 38.6076 13.0767 39.0331 12.7494C39.4587 12.4221 39.7644 11.9636 39.9029 11.4449H37.0908C36.925 11.4449 36.7661 11.379 36.6489 11.2618C36.5317 11.1447 36.4659 10.9857 36.4659 10.82C36.4659 10.6542 36.5317 10.4953 36.6489 10.3781C36.7661 10.2609 36.925 10.1951 37.0908 10.1951H41.3749C41.9118 10.1944 42.4335 10.0167 42.859 9.68935C43.2846 9.36203 43.5903 8.90346 43.7287 8.38472H41.328C41.1623 8.38472 41.0034 8.31888 40.8862 8.20169C40.769 8.0845 40.7031 7.92555 40.7031 7.75982C40.7031 7.59408 40.769 7.43514 40.8862 7.31795C41.0034 7.20075 41.1623 7.13491 41.328 7.13491H45.6122C46.149 7.13421 46.6706 6.95645 47.0962 6.62919C47.5217 6.30193 47.8275 5.84344 47.966 5.32478H39.002C37.8453 5.32167 36.7253 5.73061 35.8426 6.4783C34.96 7.22599 34.3725 8.26357 34.1854 9.40509Z" fill="#71AFCA"/>
<path d="M23.9763 26.4694C23.8106 26.4694 23.6517 26.5353 23.5345 26.6525C23.4173 26.7697 23.3514 26.9286 23.3514 27.0943V29.0724C23.3514 29.2381 23.4173 29.397 23.5345 29.5142C23.6517 29.6314 23.8106 29.6973 23.9763 29.6973C24.1421 29.6973 24.301 29.6314 24.4182 29.5142C24.5354 29.397 24.6012 29.2381 24.6012 29.0724V27.0943C24.6012 26.9286 24.5354 26.7697 24.4182 26.6525C24.301 26.5353 24.1421 26.4694 23.9763 26.4694Z" fill="#71AFCA"/>
<path d="M24.6645 31.3765C24.6645 31.2108 24.5986 31.0518 24.4814 30.9346C24.3642 30.8174 24.2053 30.7516 24.0396 30.7516C23.8738 30.7516 23.7149 30.8174 23.5977 30.9346C23.4805 31.0518 23.4147 31.2108 23.4147 31.3765V32.1695C23.4147 32.3352 23.4805 32.4942 23.5977 32.6114C23.7149 32.7286 23.8738 32.7944 24.0396 32.7944C24.2053 32.7944 24.3642 32.7286 24.4814 32.6114C24.5986 32.4942 24.6645 32.3352 24.6645 32.1695V31.3765Z" fill="#71AFCA"/>
<path d="M24.0396 46.411C23.8738 46.411 23.7149 46.4769 23.5977 46.5941C23.4805 46.7113 23.4147 46.8702 23.4147 47.036V49.8751C23.4147 50.0408 23.4805 50.1998 23.5977 50.317C23.7149 50.4342 23.8738 50.5 24.0396 50.5C24.2053 50.5 24.3642 50.4342 24.4814 50.317C24.5986 50.1998 24.6645 50.0408 24.6645 49.8751V47.036C24.6645 46.8702 24.5986 46.7113 24.4814 46.5941C24.3642 46.4769 24.2053 46.411 24.0396 46.411Z" fill="#71AFCA"/>
<path d="M24.6645 34.501C24.6645 34.3353 24.5986 34.1763 24.4814 34.0591C24.3642 33.9419 24.2053 33.8761 24.0396 33.8761C23.8738 33.8761 23.7149 33.9419 23.5977 34.0591C23.4805 34.1763 23.4147 34.3353 23.4147 34.501V44.7918C23.4147 44.9576 23.4805 45.1165 23.5977 45.2337C23.7149 45.3509 23.8738 45.4167 24.0396 45.4167C24.2053 45.4167 24.3642 45.3509 24.4814 45.2337C24.5986 45.1165 24.6645 44.9576 24.6645 44.7918V34.501Z" fill="#71AFCA"/>
<path d="M18.6461 32.8218C18.8119 32.8218 18.9708 32.756 19.088 32.6388C19.2052 32.5216 19.271 32.3626 19.271 32.1969V23.7094C19.271 23.5437 19.2052 23.3848 19.088 23.2676C18.9708 23.1504 18.8119 23.0845 18.6461 23.0845C18.4804 23.0845 18.3214 23.1504 18.2043 23.2676C18.0871 23.3848 18.0212 23.5437 18.0212 23.7094V32.1969C18.0212 32.3626 18.0871 32.5216 18.2043 32.6388C18.3214 32.756 18.4804 32.8218 18.6461 32.8218Z" fill="#71AFCA"/>
<path d="M19.3341 34.501C19.3341 34.3353 19.2683 34.1763 19.1511 34.0591C19.0339 33.9419 18.875 33.8761 18.7092 33.8761C18.5435 33.8761 18.3846 33.9419 18.2674 34.0591C18.1502 34.1763 18.0843 34.3353 18.0843 34.501V36.3355C18.0843 36.5013 18.1502 36.6602 18.2674 36.7774C18.3846 36.8946 18.5435 36.9604 18.7092 36.9604C18.875 36.9604 19.0339 36.8946 19.1511 36.7774C19.2683 36.6602 19.3341 36.5013 19.3341 36.3355V34.501Z" fill="#71AFCA"/>
<path d="M18.7092 45.2925C18.875 45.2925 19.0339 45.2266 19.1511 45.1094C19.2683 44.9922 19.3341 44.8333 19.3341 44.6676V38.667C19.3341 38.5013 19.2683 38.3424 19.1511 38.2252C19.0339 38.108 18.875 38.0421 18.7092 38.0421C18.5435 38.0421 18.3846 38.108 18.2674 38.2252C18.1502 38.3424 18.0843 38.5013 18.0843 38.667V44.6676C18.0843 44.8333 18.1502 44.9922 18.2674 45.1094C18.3846 45.2266 18.5435 45.2925 18.7092 45.2925Z" fill="#71AFCA"/>
<path d="M13.316 22.4067C13.4817 22.4067 13.6407 22.3409 13.7579 22.2237C13.8751 22.1065 13.9409 21.9476 13.9409 21.7818V19.5434C13.9409 19.3777 13.8751 19.2187 13.7579 19.1015C13.6407 18.9844 13.4817 18.9185 13.316 18.9185C13.1503 18.9185 12.9913 18.9844 12.8741 19.1015C12.7569 19.2187 12.6911 19.3777 12.6911 19.5434V21.7818C12.6911 21.9476 12.7569 22.1065 12.8741 22.2237C12.9913 22.3409 13.1503 22.4067 13.316 22.4067Z" fill="#71AFCA"/>
<path d="M14.004 24.0859C14.004 23.9202 13.9382 23.7613 13.821 23.6441C13.7038 23.5269 13.5449 23.461 13.3791 23.461C13.2134 23.461 13.0544 23.5269 12.9373 23.6441C12.8201 23.7613 12.7542 23.9202 12.7542 24.0859V36.3355C12.7542 36.5013 12.8201 36.6602 12.9373 36.7774C13.0544 36.8946 13.2134 36.9604 13.3791 36.9604C13.5449 36.9604 13.7038 36.8946 13.821 36.7774C13.9382 36.6602 14.004 36.5013 14.004 36.3355V24.0859Z" fill="#71AFCA"/>
<path d="M13.3791 41.1264C13.5449 41.1264 13.7038 41.0606 13.821 40.9434C13.9382 40.8262 14.004 40.6673 14.004 40.5015V38.667C14.004 38.5013 13.9382 38.3424 13.821 38.2252C13.7038 38.108 13.5449 38.0421 13.3791 38.0421C13.2134 38.0421 13.0544 38.108 12.9373 38.2252C12.8201 38.3424 12.7542 38.5013 12.7542 38.667V40.5015C12.7542 40.6673 12.8201 40.8262 12.9373 40.9434C13.0544 41.0606 13.2134 41.1264 13.3791 41.1264Z" fill="#71AFCA"/>
<path d="M29.3065 25.5312C29.4722 25.5312 29.6311 25.4654 29.7483 25.3482C29.8655 25.231 29.9314 25.0721 29.9314 24.9063V23.7094C29.9314 23.5437 29.8655 23.3848 29.7483 23.2676C29.6311 23.1504 29.4722 23.0845 29.3065 23.0845C29.1407 23.0845 28.9818 23.1504 28.8646 23.2676C28.7474 23.3848 28.6816 23.5437 28.6816 23.7094V24.9063C28.6816 25.0721 28.7474 25.231 28.8646 25.3482C28.9818 25.4654 29.1407 25.5312 29.3065 25.5312Z" fill="#71AFCA"/>
<path d="M29.3696 26.5856C29.2038 26.5856 29.0449 26.6514 28.9277 26.7686C28.8105 26.8858 28.7447 27.0447 28.7447 27.2105V36.3355C28.7447 36.5013 28.8105 36.6602 28.9277 36.7774C29.0449 36.8946 29.2038 36.9604 29.3696 36.9604C29.5353 36.9604 29.6943 36.8946 29.8115 36.7774C29.9286 36.6602 29.9945 36.5013 29.9945 36.3355V27.2105C29.9945 27.0447 29.9286 26.8858 29.8115 26.7686C29.6943 26.6514 29.5353 26.5856 29.3696 26.5856Z" fill="#71AFCA"/>
<path d="M29.3696 45.2925C29.5353 45.2925 29.6943 45.2266 29.8115 45.1094C29.9286 44.9922 29.9945 44.8333 29.9945 44.6676V38.667C29.9945 38.5013 29.9286 38.3424 29.8115 38.2252C29.6943 38.108 29.5353 38.0421 29.3696 38.0421C29.2038 38.0421 29.0449 38.108 28.9277 38.2252C28.8105 38.3424 28.7447 38.5013 28.7447 38.667V44.6676C28.7447 44.8333 28.8105 44.9922 28.9277 45.1094C29.0449 45.2266 29.2038 45.2925 29.3696 45.2925Z" fill="#71AFCA"/>
<path d="M34.6367 18.9185C34.4709 18.9185 34.312 18.9844 34.1948 19.1015C34.0776 19.2187 34.0118 19.3777 34.0118 19.5434V31.1554C34.0118 31.3211 34.0776 31.4801 34.1948 31.5973C34.312 31.7144 34.4709 31.7803 34.6367 31.7803C34.8024 31.7803 34.9614 31.7144 35.0786 31.5973C35.1957 31.4801 35.2616 31.3211 35.2616 31.1554V19.5434C35.2616 19.3777 35.1957 19.2187 35.0786 19.1015C34.9614 18.9844 34.8024 18.9185 34.6367 18.9185Z" fill="#71AFCA"/>
<path d="M35.3247 33.4595C35.3247 33.2938 35.2589 33.1348 35.1417 33.0176C35.0245 32.9004 34.8655 32.8346 34.6998 32.8346C34.5341 32.8346 34.3751 32.9004 34.2579 33.0176C34.1407 33.1348 34.0749 33.2938 34.0749 33.4595V36.3355C34.0749 36.5013 34.1407 36.6602 34.2579 36.7774C34.3751 36.8946 34.5341 36.9604 34.6998 36.9604C34.8655 36.9604 35.0245 36.8946 35.1417 36.7774C35.2589 36.6602 35.3247 36.5013 35.3247 36.3355V33.4595Z" fill="#71AFCA"/>
<path d="M34.6998 38.0421C34.5341 38.0421 34.3751 38.108 34.2579 38.2252C34.1407 38.3424 34.0749 38.5013 34.0749 38.667V40.5015C34.0749 40.6673 34.1407 40.8262 34.2579 40.9434C34.3751 41.0606 34.5341 41.1264 34.6998 41.1264C34.8655 41.1264 35.0245 41.0606 35.1417 40.9434C35.2589 40.8262 35.3247 40.6673 35.3247 40.5015V38.667C35.3247 38.5013 35.2589 38.3424 35.1417 38.2252C35.0245 38.108 34.8655 38.0421 34.6998 38.0421Z" fill="#71AFCA"/>
</svg>
