<svg width="51" height="51" viewBox="0 0 51 51" fill="none" xmlns="http://www.w3.org/2000/svg">
<path d="M42.6382 5.19171L32.7958 7.92016C33.2273 8.78202 33.5005 9.73558 33.5789 10.7434L39.2487 9.17168L35.1424 18.76H38.3296L41.7957 10.6666L45.2616 18.76H48.4488L42.6382 5.19171Z" fill="#71AFCA"/>
<path d="M19.0639 14.7672C18.6325 13.9053 18.3593 12.9518 18.2808 11.944L8.99452 14.5182L3.41096 27.5565H6.59812L10.0641 19.4631L13.5301 27.5565H16.7172L12.0704 16.7058L19.0639 14.7672Z" fill="#71AFCA"/>
<path d="M0.929883 30.4864V32.9067C0.929883 35.8599 3.33253 38.2626 6.2857 38.2626H13.8424C16.7957 38.2626 19.1983 35.8599 19.1983 32.9067V30.4864H0.929883Z" fill="#71AFCA"/>
<path d="M32.6614 21.6898V24.1102C32.6614 27.0634 35.0641 29.4661 38.0174 29.4661H45.5741C48.5273 29.4661 50.9299 27.0634 50.9299 24.1102V21.6898H32.6614Z" fill="#71AFCA"/>
<path d="M47.3064 47.8202V47.3912C47.3064 45.2012 45.5247 43.4197 43.3349 43.4197H28.9412V15.0105C29.9996 14.1403 30.6747 12.8209 30.6747 11.3437C30.6747 9.86644 29.9996 8.54705 28.9412 7.67679V0.75H22.9185V7.67679C21.8601 8.54705 21.1849 9.86644 21.1849 11.3437C21.1849 12.8209 21.8601 14.1403 22.9185 15.0105V43.4197H8.52487C6.33502 43.4197 4.55339 45.2012 4.55339 47.3912V47.8202H0.928711V50.75H50.9311V47.8202H47.3064Z" fill="#71AFCA"/>
</svg>
