<svg width="51" height="51" viewBox="0 0 51 51" fill="none" xmlns="http://www.w3.org/2000/svg">
<path d="M25.7395 15.3984C21.7009 15.3984 18.4153 12.1128 18.4153 8.07422C18.4153 4.0356 21.7009 0.75 25.7395 0.75C29.7781 0.75 33.0637 4.0356 33.0637 8.07422C33.0637 12.1128 29.7781 15.3984 25.7395 15.3984Z" fill="#71AFCA"/>
<path d="M35.9934 30.0469H15.4856V25.6523C15.4856 19.9982 20.0854 15.3984 25.7395 15.3984C31.3936 15.3984 35.9934 19.9982 35.9934 25.6523V30.0469Z" fill="#71AFCA"/>
<path d="M22.7122 39.2948V50.75H10.9934V47.9374L0.739502 35.4863V17.0586C3.96216 17.0586 6.59888 19.6953 6.59888 22.918V33.5236L15.0362 41.9609L17.1164 39.9102L9.52856 32.3223V32.293C10.4075 31.7364 11.4329 31.4434 12.4583 31.4434C14.0112 31.4434 15.5051 32.0587 16.5892 33.1719L22.7122 39.2948Z" fill="#71AFCA"/>
<path d="M28.7668 39.2948V50.75H40.4856V47.9374L50.7395 35.4863V17.0586C47.5168 17.0586 44.8801 19.6953 44.8801 22.918V33.5236L36.4428 41.9609L34.3626 39.9102L41.9504 32.3223V32.293C41.0715 31.7364 40.0461 31.4434 39.0208 31.4434C37.4678 31.4434 35.974 32.0587 34.8898 33.1719L28.7668 39.2948Z" fill="#71AFCA"/>
</svg>
