<svg width="50" height="51" viewBox="0 0 50 51" fill="none" xmlns="http://www.w3.org/2000/svg">
<path d="M46.0767 31.4438C43.1736 31.6227 39.3563 34.5231 35.6748 36.1904C31.16 38.2322 24.1349 36.5913 24.1341 36.5913C25.2201 36.0824 29.6238 35.0335 30.5103 34.6429C35.2245 32.5696 34.8228 28.2455 32.5783 28.2818C29.6137 28.3318 27.8701 29.0599 21.952 29.8671C17.4657 30.4766 12.1597 30.2537 9.61482 31.2253C6.02236 32.598 0.238098 41.8305 0.238098 41.8305L9.18301 50.5C9.18301 50.5 14.7226 45.0453 17.4165 45.0453C23.5583 45.0453 23.8059 44.9608 29.5068 44.653C31.9329 44.5234 32.4368 44.4238 33.8257 43.9561C41.2176 41.4573 49.1532 34.8024 49.2993 34.0014C49.6353 32.1478 47.6076 31.3484 46.0767 31.4438Z" fill="#71AFCA"/>
<path d="M9.18465 25.1654C9.43111 25.3233 9.73935 25.348 10.0032 25.2288C14.7914 23.0781 19.6457 23.0781 24.4328 25.2288C24.6573 25.3277 24.9151 25.3277 25.1398 25.2288C29.9273 23.0781 34.7823 23.0781 39.5691 25.2288C39.6794 25.2783 39.8013 25.3042 39.9197 25.3042C40.0845 25.3042 40.2475 25.2572 40.3885 25.1654C40.6327 25.0078 40.781 24.7363 40.781 24.4444V3.02827C40.781 2.44165 40.2838 2.24684 40.2678 2.23999C37.7 1.0858 35.0653 0.5 32.4386 0.5C30.1281 0.5 27.8101 0.95702 25.5342 1.85298V12.3658C25.5342 12.7793 25.201 13.1144 24.7858 13.1144C24.374 13.1144 24.0374 12.7793 24.0374 12.3658V1.85298C21.7638 0.95702 19.4461 0.5 17.1351 0.5C14.5094 0.5 11.8736 1.0858 9.30411 2.23999C9.28863 2.24684 8.79175 2.50179 8.79175 3.02827V24.4444C8.79161 24.7363 8.93929 25.0077 9.18465 25.1654ZM10.5113 20.3771C12.696 19.5132 14.9196 19.074 17.1351 19.074C19.6358 19.074 22.1534 19.6336 24.6113 20.7385C24.7213 20.7878 24.8507 20.7878 24.9613 20.7385C27.4194 19.6336 29.9367 19.074 32.4386 19.074C34.653 19.074 36.8767 19.5132 39.0607 20.3771V23.1574C36.8485 22.3238 34.5976 21.9025 32.3516 21.9025C29.8144 21.9025 27.2706 22.4405 24.7857 23.5057C22.3021 22.4404 19.7583 21.9025 17.2198 21.9025C14.9743 21.9025 12.7241 22.3239 10.5112 23.1576L10.5113 20.3771Z" fill="#71AFCA"/>
</svg>
