<svg width="51" height="51" viewBox="0 0 51 51" fill="none" xmlns="http://www.w3.org/2000/svg">
<path d="M31.5536 33.8332C31.66 33.1519 31.7119 32.4519 31.7119 31.75C31.7119 31.0519 31.66 30.3603 31.5559 29.6832L34.9994 26.9812C35.8077 26.3457 36.0309 25.196 35.5182 24.2999L33.2954 20.4501C32.7785 19.5563 31.6684 19.1729 30.7121 19.5582L26.6536 21.1936C25.5454 20.3002 24.343 19.604 23.0705 19.1207L22.4536 14.7876C22.3079 13.7687 21.4225 13 20.391 13H15.9496C14.9181 13 14.0327 13.7687 13.887 14.7895L13.2701 19.1249C11.9952 19.6147 10.7806 20.3189 9.70375 21.1936L5.6266 19.5582C4.67026 19.1749 3.56209 19.5582 3.0452 20.4501L0.824281 24.2999C0.307771 25.196 0.532838 26.3499 1.34728 26.9832L4.78699 29.6668C4.68056 30.3481 4.62868 31.0481 4.62868 31.75C4.62868 32.4481 4.68056 33.1397 4.7847 33.8168L1.34117 36.5188C0.532838 37.1543 0.31006 38.304 0.822374 39.2001L3.04329 43.0499C3.5598 43.9418 4.67026 44.3251 5.6266 43.9418L9.68506 42.3064C10.7932 43.1998 11.9952 43.896 13.2682 44.3793L13.885 48.7124C14.0327 49.7313 14.9181 50.5 15.9496 50.5H20.391C21.4225 50.5 22.3079 49.7313 22.4536 48.7105L23.0705 44.3751C24.3453 43.8853 25.5599 43.1811 26.6368 42.3064L30.714 43.9418C31.6745 44.3271 32.7808 43.9437 33.2954 43.0499L35.5163 39.2001C36.0328 38.304 35.8077 37.1501 34.9933 36.5168L31.5536 33.8332ZM18.1705 39.0418C14.1494 39.0418 10.8787 35.7707 10.8787 31.75C10.8787 27.7293 14.1494 24.4582 18.1705 24.4582C22.1912 24.4582 25.4619 27.7293 25.4619 31.75C25.4619 35.7707 22.1912 39.0418 18.1705 39.0418Z" fill="#71AFCA"/>
<path d="M47.7599 11.8937C47.7996 11.571 47.858 11.2521 47.858 10.9168C47.858 10.5811 47.7996 10.2626 47.7599 9.93947L49.6371 8.51888C50.0556 8.20226 50.1724 7.6228 49.9099 7.16656L48.2246 4.24985C47.9621 3.7959 47.4014 3.60631 46.918 3.81039L44.7578 4.72096C44.2306 4.31889 43.6702 3.96451 43.0515 3.70625L42.7642 1.41248C42.6975 0.891769 42.2557 0.5 41.7308 0.5H38.362C37.8371 0.5 37.3931 0.891769 37.3286 1.41248L37.041 3.70625C36.4223 3.96451 35.86 4.3208 35.3347 4.72096L33.1744 3.81039C32.6892 3.60631 32.1285 3.79361 31.866 4.24985L30.183 7.16656C29.9201 7.6209 30.0369 8.19997 30.4557 8.51888L32.3329 9.93947C32.291 10.2626 32.233 10.5811 32.233 10.9168C32.233 11.2521 32.291 11.571 32.3306 11.8937L30.4538 13.3147C30.0349 13.6313 29.9182 14.2104 30.1807 14.6666L31.866 17.5834C32.1285 18.0377 32.6892 18.2269 33.1725 18.0228L35.3328 17.1103C35.86 17.5124 36.4204 17.8668 37.0391 18.125L37.3264 20.4188C37.3931 20.9418 37.8349 21.3332 38.3598 21.3332H41.7285C42.2538 21.3332 42.6975 20.9418 42.7619 20.4207L43.0495 18.127C43.6683 17.8687 44.2306 17.5124 44.7559 17.1126L46.9161 18.0228C47.4014 18.2269 47.9621 18.0396 48.2246 17.5834L49.9076 14.6666C50.1704 14.2123 50.0537 13.6332 49.6349 13.3147L47.7599 11.8937ZM40.0455 15.0832C37.7433 15.0832 35.8787 13.2186 35.8787 10.9168C35.8787 8.61462 37.7433 6.75 40.0455 6.75C42.3473 6.75 44.2119 8.61462 44.2119 10.9168C44.2119 13.2186 42.3473 15.0832 40.0455 15.0832Z" fill="#71AFCA"/>
</svg>
