<svg width="130" height="13" viewBox="0 0 130 13" fill="none" xmlns="http://www.w3.org/2000/svg">
<path opacity="0.75" d="M5.32907 0.0415039H0.0654297V12.4581H5.32907V0.0415039Z" fill="#B7B7B7"/>
<path opacity="0.75" d="M73.3745 0.0415039H68.1108V12.4581H73.3745V0.0415039Z" fill="#B7B7B7"/>
<path opacity="0.75" d="M5.32907 0.0415039H0.0654297V8.97491H5.32907C7.78543 8.97491 9.77664 6.97514 9.77664 4.5082C9.77664 2.04127 7.78543 0.0415039 5.32907 0.0415039Z" fill="#B7B7B7"/>
<path opacity="0.75" d="M22.7523 12.4581H14.4011V0.0415039L22.7523 12.4581Z" fill="#B7B7B7"/>
<path opacity="0.75" d="M18.3047 0.0415039H14.4011V8.97491H18.3047C18.9598 8.97491 19.5812 8.83148 20.1413 8.5761C21.6809 7.87372 22.7523 6.31718 22.7523 4.5082C22.7523 2.04127 20.7611 0.0415039 18.3047 0.0415039Z" fill="#B7B7B7"/>
<path opacity="0.75" d="M56.3675 0.0415039L49.8918 12.4581H56.3675H62.8433L56.3675 0.0415039Z" fill="#B7B7B7"/>
<path opacity="0.75" d="M49.7081 0.0415039L43.2324 12.4581H49.7081H56.1838L49.7081 0.0415039Z" fill="#B7B7B7"/>
<path opacity="0.75" d="M33.8507 12.4581C37.2647 12.4581 40.0324 9.67856 40.0324 6.24981C40.0324 2.82106 37.2647 0.0415039 33.8507 0.0415039C30.4366 0.0415039 27.6689 2.82106 27.6689 6.24981C27.6689 9.67856 30.4366 12.4581 33.8507 12.4581Z" fill="#B7B7B7"/>
<path opacity="0.75" d="M123.126 0.0415039L116.65 12.4581H123.126H129.602L123.126 0.0415039Z" fill="#B7B7B7"/>
<path opacity="0.75" d="M116.467 0.0415039L109.991 12.4581H116.467H122.942L116.467 0.0415039Z" fill="#B7B7B7"/>
<path opacity="0.75" d="M100.828 12.4581C104.242 12.4581 107.01 9.67856 107.01 6.24981C107.01 2.82106 104.242 0.0415039 100.828 0.0415039C97.4138 0.0415039 94.6461 2.82106 94.6461 6.24981C94.6461 9.67856 97.4138 12.4581 100.828 12.4581Z" fill="#B7B7B7"/>
<path opacity="0.75" d="M89.1211 2.09537C87.9897 0.834529 86.3512 0.0415039 84.5282 0.0415039C84.0796 0.0415039 83.6427 0.0906791 83.2213 0.181816C80.4351 0.784206 78.3464 3.27163 78.3464 6.24981C78.3464 9.22799 80.4351 11.7154 83.2213 12.3178C83.6427 12.4089 84.0796 12.4581 84.5282 12.4581C86.3512 12.4581 87.9896 11.6651 89.1211 10.4042L86.7235 6.24981L89.1211 2.09537Z" fill="#B7B7B7"/>
<path opacity="0.75" d="M89.1212 2.09537C87.9898 0.834528 86.3513 0.0415039 84.5282 0.0415039C84.0797 0.0415039 83.6427 0.090679 83.2213 0.181816L86.7234 6.2498L89.1212 2.09537Z" fill="#B7B7B7"/>
<path opacity="0.75" d="M83.2213 12.318C83.6427 12.4091 84.0797 12.4583 84.5282 12.4583C86.3513 12.4583 87.9896 11.6653 89.1212 10.4044L86.7236 6.25L83.2213 12.318Z" fill="#B7B7B7"/>
<path opacity="0.75" d="M29.4795 10.6393C30.5982 11.7628 32.1436 12.4577 33.8507 12.4577C37.2648 12.4577 40.0324 9.67815 40.0324 6.24936C40.0324 4.53497 39.3405 2.98285 38.2219 1.85938L29.4795 10.6393Z" fill="#B7B7B7"/>
<path opacity="0.75" d="M96.4567 10.6394C97.5753 11.7628 99.1208 12.4577 100.828 12.4577C104.242 12.4577 107.01 9.67815 107.01 6.24937C107.01 4.53497 106.318 2.98285 105.199 1.85938L96.4567 10.6394Z" fill="#B7B7B7"/>
</svg>
