<svg xmlns="http://www.w3.org/2000/svg" width="34" height="21" viewBox="0 0 34 21"><g><g><g><path fill="#fff" d="M2.735 1.212L.162 7.217A2 2 0 0 0 0 8.005v6.63a2 2 0 0 0 2 2h29.995a2 2 0 0 0 2-2V8.872a2 2 0 0 0-2-2H25.3a2.014 2.014 0 0 1-1.667-.888A740.478 740.478 0 0 0 20.123.86 1.992 1.992 0 0 0 18.48 0H4.574a2 2 0 0 0-1.839 1.212z"/></g><g><path fill="#253751" d="M20.876 7.236H2.883a1 1 0 0 1-.936-1.35l1.42-3.787a1 1 0 0 1 .936-.649h13.97a1 1 0 0 1 .824.433L21.7 5.67a1 1 0 0 1-.824 1.566z"/></g><g/><g><path fill="#ff2d53" d="M0 13.74h33.995v.893a2 2 0 0 1-2 2H2a2 2 0 0 1-2-2z"/></g><g><path fill="#434343" d="M10.85 16.64a4.34 4.34 0 1 1-8.68 0 4.34 4.34 0 0 1 8.68 0z"/></g><g opacity=".8"><path fill="#fff" d="M8.68 16.64a2.17 2.17 0 1 1-4.34 0 2.17 2.17 0 0 1 4.34 0z"/></g><g><path fill="#434343" d="M31.1 16.64a4.34 4.34 0 1 1-8.68 0 4.34 4.34 0 0 1 8.68 0z"/></g><g opacity=".8"><path fill="#fff" d="M28.93 16.64a2.17 2.17 0 1 1-4.34 0 2.17 2.17 0 0 1 4.34 0z"/></g><g><path fill="#ff2d53" d="M32.55 10.4a1 1 0 0 1 1-1h.447v2.893h-.447a1 1 0 0 1-1-1z"/></g></g></g></svg>