<svg xmlns="http://www.w3.org/2000/svg" width="27" height="30" viewBox="0 0 27 30"><g><g><g/><g><g><path fill="#fff" d="M16.508 22.736L5.926 11.694A16.567 16.567 0 0 1 1.32.23a.23.23 0 0 1 .402-.153L19.15 19.764z"/></g><g><path fill="#fff" d="M9.905 23.02l10.582-11.043A16.567 16.567 0 0 0 25.093.514a.23.23 0 0 0-.403-.152L7.263 20.048z"/></g><g><path fill="#fff" d="M26.416 24.713a5.283 5.283 0 1 1-10.566 0 5.283 5.283 0 0 1 10.566 0z"/></g><g><path fill="#253751" d="M17.831 24.713a3.302 3.302 0 1 1 6.604 0 3.302 3.302 0 0 1-6.604 0zm3.302 5.283a5.283 5.283 0 1 0 0-10.566 5.283 5.283 0 0 0 0 10.566z"/></g><g><path fill="#2f2929" d="M14.531 16.13a1.32 1.32 0 1 1-2.641 0 1.32 1.32 0 0 1 2.641 0z"/></g></g><g><g><path fill="#fff" d="M0 24.717a5.283 5.283 0 1 0 10.565 0 5.283 5.283 0 0 0-10.566 0z"/></g><g><path fill="#253751" d="M5.282 28.019a3.302 3.302 0 1 1 0-6.604 3.302 3.302 0 0 1 0 6.604zm5.283-3.302a5.283 5.283 0 1 0-10.566 0 5.283 5.283 0 0 0 10.566 0z"/></g><g><path fill="#2f2929" d="M11.886 16.132a1.32 1.32 0 1 0 2.642 0 1.32 1.32 0 0 0-2.642 0z"/></g></g></g></g></svg>