<svg xmlns="http://www.w3.org/2000/svg" width="30" height="28" viewBox="0 0 30 28"><g><g><g><path fill="#111625" d="M2.195 1.865c.26-.26.683-.26.943 0l6.667 6.667a.667.667 0 1 1-.943.943L2.195 2.808a.667.667 0 0 1 0-.943z"/></g><g><path fill="#111625" d="M.086 8.34a.667.667 0 0 1 .908-.254l5.333 3a.667.667 0 0 1-.654 1.162l-5.333-3a.667.667 0 0 1-.254-.908z"/></g><g><path fill="#253751" d="M18.003 14.997a6.667 6.667 0 1 1-13.333 0 6.667 6.667 0 0 1 13.333 0z"/></g><g><path fill="#ff2d53" d="M14.667 15.003a3.333 3.333 0 1 1-6.667 0 3.333 3.333 0 0 1 6.667 0z"/></g><g transform="rotate(27.6 13.5 3.5)"><path fill="#253751" d="M15.043 3.233c0 2.14-1.722 3.874-1.722 3.874S11.6 5.372 11.6 3.233c0-2.139 1.721-3.873 1.721-3.873s1.722 1.734 1.722 3.873z"/></g><g><path fill="#253751" d="M27.997 13.333a8.333 8.333 0 1 1-16.667 0 8.333 8.333 0 0 1 16.667 0z"/></g><g><path fill="#ff2d53" d="M23.997 13.333a4.333 4.333 0 1 1-8.667 0 4.333 4.333 0 0 1 8.667 0z"/></g><g><path fill="#fff" d="M2 15.67c0 6.627 6.268 12 14 12s14-5.373 14-12z"/></g></g></g></svg>