<svg xmlns="http://www.w3.org/2000/svg" width="30" height="28" viewBox="0 0 30 28"><g><g><g><path fill="#fff" d="M1.944 18.1C-.94 14.678-.054 4.717 1.039 0h12.67c-.11 3.4.657 12.67 9.05 12.67 6.882 0 7.24 6.418 7.24 9.05H17.33l-6.335-3.62z"/></g><g/><g/><g/><g><path fill="#111625" d="M28.382 21.05l.667.89c1.79 2.386.087 5.792-2.896 5.792H.18v-1.81h25.973c1.492 0 2.343-1.703 1.448-2.896l-.667-.89z"/></g><g><path fill="#111625" d="M5.56 27.15v-5.43h1.81v5.43z"/></g><g><path fill="#111625" d="M17.33 27.15v-5.43h1.81v5.43z"/></g><g><path fill="#253751" d="M1.04 18.1h9.05v3.62H1.04z"/></g><g><path fill="#253751" d="M11.9 19.91h-1.81V18.1h2.715l5.43 2.715H30v1.81H17.33z"/></g></g></g></svg>