<svg xmlns="http://www.w3.org/2000/svg" width="23" height="30" viewBox="0 0 23 30"><g><g><g><path fill="#111625" d="M11.347 25.36c.369 0 .668.299.668.667v3.304a.667.667 0 1 1-1.335 0v-3.304c0-.368.299-.667.667-.667z"/></g><g><path fill="#fff" d="M8.266 24.867l3.084-2.847 3.084 2.847a.667.667 0 0 1-.453 1.157H8.719a.667.667 0 0 1-.453-1.157z"/></g><g><path fill="#fff" d="M22.692 11.68c0 6.45-5.08 11.679-11.346 11.679S0 18.129 0 11.679C0 5.23 5.08 0 11.346 0s11.346 5.23 11.346 11.68z"/></g><g><path fill="#ff2d53" d="M11.67 5.212a1.001 1.001 0 0 1-.863 1.122c-1.714.223-2.975.84-3.808 1.744-.828.899-1.327 2.184-1.327 3.937a1.001 1.001 0 1 1-2.002 0c0-2.147.621-3.952 1.856-5.293 1.228-1.335 2.97-2.106 5.022-2.373a1.001 1.001 0 0 1 1.122.863z"/></g></g></g></svg>