<svg xmlns="http://www.w3.org/2000/svg" width="30" height="25" viewBox="0 0 30 25"><g><g><g><g><path fill="#ff2d53" d="M4.6 13.43h20.716v11.509H4.6z"/></g><g><path fill="#ff2d53" d="M2.687 1.019A1 1 0 0 1 3.664.23h22.672a1 1 0 0 1 .977.789l2.426 11.235a1 1 0 0 1-.978 1.211H1.24a1 1 0 0 1-.978-1.21z"/></g><g><path fill="#fff" d="M13.116.92l-6.1 8.134a.575.575 0 0 0 .46.92h14.962a.575.575 0 0 0 .46-.92L16.798.92a2.302 2.302 0 0 0-3.682 0z"/></g><g><path fill="#fff" d="M9.21 9.97h11.509v14.962H9.21z"/></g><g><path fill="#253751" d="M12.66 17.73a2 2 0 0 1 2-2h1.179a2 2 0 0 1 2 2v7.207H12.66z"/></g><g><path fill="#ff2d53" d="M16.693 8.546a1.726 1.726 0 1 1-3.453 0 1.726 1.726 0 0 1 3.453 0z"/></g></g></g></g></svg>