<?xml version="1.0" standalone="no"?>
<!DOCTYPE svg PUBLIC "-//W3C//DTD SVG 20010904//EN"
 "http://www.w3.org/TR/2001/REC-SVG-20010904/DTD/svg10.dtd">
<svg version="1.0" xmlns="http://www.w3.org/2000/svg"
 width="600.000000pt" height="600.000000pt" viewBox="0 0 600.000000 600.000000"
 preserveAspectRatio="xMidYMid meet">
<metadata>
Created by potrace 1.14, written by Peter Selinger 2001-2017
</metadata>
<g transform="translate(0.000000,600.000000) scale(0.100000,-0.100000)"
fill="#000000" stroke="none">
<path d="M694 4403 c4 -9 47 -143 96 -297 50 -155 98 -292 108 -306 11 -14 34
-34 53 -45 33 -19 48 -20 551 -16 284 2 521 0 527 -3 6 -4 -9 -63 -44 -165
-30 -88 -55 -162 -55 -165 0 -3 214 -6 475 -6 l474 0 10 38 c5 20 21 89 35
152 15 63 31 122 36 130 8 13 129 15 1012 11 713 -2 1015 0 1043 8 45 12 96
60 113 106 16 42 182 562 182 569 0 3 -1040 6 -2311 6 -2157 0 -2311 -1 -2305
-17z"/>
<path d="M1290 3329 c0 -27 175 -547 192 -572 43 -61 -80 -57 1734 -55 l1657
3 79 305 c43 168 78 311 78 318 0 9 -381 12 -1870 12 -1342 0 -1870 -3 -1870
-11z"/>
<path d="M3840 2469 c-40 -116 -62 -167 -79 -180 -23 -18 -62 -19 -1079 -19
-1044 0 -1056 0 -1098 -20 -23 -12 -49 -31 -57 -44 -9 -12 -63 -137 -120 -277
-58 -140 -115 -275 -126 -302 l-20 -47 1367 2 1367 3 74 23 c165 51 300 130
412 241 70 70 164 205 200 287 24 56 169 472 169 485 0 5 -210 9 -477 9 l-478
0 -55 -161z"/>
</g>
</svg>
