<svg width="40" height="10" viewBox="0 0 40 10" fill="none" xmlns="http://www.w3.org/2000/svg">
<path d="M10.152 4.8086C10.3471 7.49463 8.0069 9.98881 5.27672 9.98881C2.54654 10.1807 0.0113759 7.87835 0.0113759 5.19232C-0.183637 2.50628 2.15652 0.0121046 4.8867 0.0121046C7.81189 -0.179755 10.152 1.9307 10.152 4.8086Z" fill="black"/>
<path d="M8.20265 3.27347C8.20265 4.04091 7.61761 4.61649 7.03257 4.61649C6.25252 4.61649 5.66748 4.04091 5.66748 3.46533C5.66748 2.69789 6.25252 2.12231 6.83756 2.12231C7.4226 2.12231 8.00763 2.69789 8.20265 3.27347Z" fill="white"/>
<path d="M39.9885 4.8086C40.1835 7.49463 37.8433 9.98881 35.1131 9.98881C32.383 10.1807 29.8478 7.87835 29.8478 5.19232C29.6528 2.50628 31.9929 0.0121046 34.7231 0.0121046C37.4533 -0.179755 39.9885 1.9307 39.9885 4.8086Z" fill="black"/>
<path d="M37.8447 3.27347C37.8447 4.04091 37.2597 4.61649 36.6747 4.61649C35.8946 4.61649 35.3096 4.04091 35.3096 3.46533C35.3096 2.69789 35.8946 2.12231 36.4796 2.12231C37.2597 2.12231 37.8447 2.69789 37.8447 3.27347Z" fill="white"/>
</svg>
