<svg width="64" height="4" viewBox="0 0 64 4" fill="none" xmlns="http://www.w3.org/2000/svg">
<g clip-path="url(#clip0)">
<path d="M18.6667 3.73355C16.2667 3.20021 13.8667 2.40021 11.2 1.86688C7.46667 1.06688 3.73333 1.60021 0 2.66688C3.2 1.06688 6.66667 -0.266454 10.1333 0.000212621C12.8 0.266879 15.7333 0.800213 18.4 1.33355C19.7333 1.60021 22.1333 2.13355 22.6667 3.20021C23.2 4.53355 19.2 3.73355 18.6667 3.73355Z" fill="#885633"/>
<path d="M41.333 3.20021C41.8663 1.86688 44.533 1.60021 45.5997 1.33355C48.2663 0.800213 50.933 0.266879 53.8663 0.000212621C57.333 -0.266454 60.7997 1.06688 63.9997 2.66688C60.2663 1.60021 56.533 1.06688 52.7997 1.86688C50.3997 2.40021 47.733 3.20021 45.333 3.73355C44.7997 3.73355 40.7997 4.53355 41.333 3.20021Z" fill="#885633"/>
</g>
<defs>
<clipPath id="clip0">
<rect width="64" height="4" fill="white"/>
</clipPath>
</defs>
</svg>
