<svg width="45" height="50" viewBox="0 0 45 50" fill="none" xmlns="http://www.w3.org/2000/svg">
<path d="M16.4763 49.848C16.4763 49.848 2.64082 53.1437 0.271736 29.0382C-2.09735 4.9326 11.7381 0.601133 14.1072 1.54276C14.1072 1.54276 25.5735 -2.22374 32.207 2.01357C38.8404 6.25087 40.2618 14.8196 40.2618 14.8196C40.2618 14.8196 43.1047 28.5674 45 29.509L43.1047 29.0382C43.1047 29.0382 44.0524 48.9064 28.3217 49.848C28.3217 49.848 35.4289 45.6107 36.3765 36.1003C36.3765 36.1003 39.2194 37.042 39.6933 32.8047C40.1671 28.5674 39.2194 28.5674 39.2194 28.5674C39.2194 28.5674 22.5411 23.8592 15.9077 14.3488C15.9077 14.3488 10.6957 24.33 8.32661 26.6841C8.32661 26.6841 4.53608 26.6841 4.53608 30.4506C4.53608 34.2171 4.53608 36.1003 7.8528 36.1003C7.8528 36.1945 8.32661 45.1399 16.4763 49.848Z" fill="#885633"/>
</svg>
