<svg width="37" height="8" viewBox="0 0 37 8" fill="none" xmlns="http://www.w3.org/2000/svg">
<path d="M7.91436 3.8C7.91436 6.2 6.24818 8 4.16545 8C1.87445 8 0.208273 6.4 0 4.2C0 2 1.66618 0 3.74891 0C6.0399 0 7.91436 1.6 7.91436 3.8Z" fill="black"/>
<path d="M36.9998 3.8C36.9998 6.2 35.4555 8 33.1391 8C31.0158 8 29.2785 6.4 29.0854 4.2C29.0854 2 30.6297 0.2 32.7531 0C35.0695 0 36.8068 1.6 36.9998 3.8Z" fill="black"/>
<ellipse cx="34.6255" cy="3" rx="0.989294" ry="1" fill="#FAFAFA"/>
<ellipse cx="4.94633" cy="3" rx="0.989294" ry="1" fill="#FAFAFA"/>
</svg>
