<svg width="44" height="4" viewBox="0 0 44 4" fill="none" xmlns="http://www.w3.org/2000/svg">
<path d="M0 4C0.605505 2.8 1.61468 1.8 2.82569 1.2C4.0367 0.400001 5.44954 0 6.86239 0C8.27523 0 9.68807 0.400001 10.8991 1.2C11.5046 1.6 11.9083 2 12.5138 2.4C12.9174 3 13.3211 3.4 13.7248 4C13.1193 3.8 12.5138 3.6 11.9083 3.4C11.3028 3.2 10.6972 3 10.2936 2.8C9.2844 2.4 8.07339 2.4 7.06422 2.4C6.05505 2.4 4.84404 2.6 3.83486 2.8C2.42202 3.2 1.21101 3.6 0 4Z" fill="black"/>
<path d="M30.2754 4C30.8809 2.8 31.8901 1.8 33.1011 1.2C34.3121 0.400001 35.7249 0 37.1378 0C38.5506 0 39.9635 0.400001 41.1745 1.2C41.78 1.6 42.1836 2 42.7892 2.4C43.1928 3 43.5965 3.4 44.0002 4C43.3947 3.8 42.7892 3.6 42.1836 3.4C41.5781 3.2 40.9726 3 40.569 2.8C39.5598 2.4 38.3488 2.4 37.3396 2.4C36.3304 2.4 35.1194 2.6 34.1103 2.8C32.6974 3.2 31.4864 3.6 30.2754 4Z" fill="black"/>
</svg>
