<svg xmlns="http://www.w3.org/2000/svg" viewBox="0 0 57.35 48.06"><title>icon-social_02</title><g id="Layer_1" data-name="Layer 1"><g id="Het1PX.tif"><path d="M-70.21,964.21A35.54,35.54,0,0,1-71,968.6Q-75,987.27-79,1005.94a6.42,6.42,0,0,1-.7,2.07,2.3,2.3,0,0,1-2.73,1.16,5.32,5.32,0,0,1-2-1c-4-3-8-5.89-11.95-8.86a.78.78,0,0,0-1.23.09c-2,1.94-4,3.85-5.92,5.79a3.46,3.46,0,0,1-2.67,1.14,1.37,1.37,0,0,1-1.44-1.07c-1.23-3.84-2.48-7.67-3.72-11.5-.43-1.3-.87-2.6-1.27-3.91a1.12,1.12,0,0,0-.86-.85c-3.9-1.2-7.79-2.43-11.68-3.64a6,6,0,0,1-1.48-.61,1.42,1.42,0,0,1-.24-2.52A7.17,7.17,0,0,1-124.6,981l15.93-6.15,34.38-13.25.27-.11C-71.86,960.66-70.22,961.78-70.21,964.21Zm-36,38.49a.33.33,0,0,0,.2-.35c.26-2.8.53-5.6.76-8.4a2.34,2.34,0,0,1,.82-1.69Q-93.18,982.2-82,972.09c.47-.43,1-.85,1.41-1.28.19-.18.44-.39.29-.69s-.48-.3-.78-.27a3.72,3.72,0,0,0-1.53.65q-13.8,8.7-27.59,17.39a.84.84,0,0,0-.41,1.19c1.14,3.4,2.24,6.82,3.36,10.23C-106.91,1000.43-106.54,1001.56-106.17,1002.7Z" transform="translate(127.55 -961.2)" fill="#4f4f4f"/></g></g></svg>