<svg id="Layer_1" data-name="Layer 1" xmlns="http://www.w3.org/2000/svg" viewBox="0 0 512 471.61"><title>icon-advantages_02</title><path d="M537,248.35l1.19-3.33H552a10,10,0,0,0,0-20H531.17a9.9,9.9,0,0,0-4.51,1.08L518,190.61a40.13,40.13,0,0,0-39-30.61h-100a40.12,40.12,0,0,0-39,30.61l-8.72,35.5a9.83,9.83,0,0,0-4.5-1.08H305.79a10,10,0,0,0,0,20h13.79l1.19,3.33a38.36,38.36,0,0,0-25,35.91v3.13H258.88A26,26,0,0,0,236,273.66H158a26,26,0,0,0-22.91,13.73H82a32,32,0,0,0-32,32V599.64a32,32,0,0,0,32,32H312a32,32,0,0,0,32-32V400.09a23.82,23.82,0,0,0,3.71.29H363a23.62,23.62,0,0,0,23.6-23.6V357.93h84.69v18.85a23.62,23.62,0,0,0,23.6,23.6h15.24a23.62,23.62,0,0,0,23.6-23.6V357.93H552a10,10,0,0,0,10-10V284.26a38.37,38.37,0,0,0-25-35.91Zm-177.76-53A20.18,20.18,0,0,1,378.89,180h100a20.17,20.17,0,0,1,19.63,15.4L511,246H346.84ZM158,293.64H236a6,6,0,0,1,6,6v23a6,6,0,0,1-6,6H158a6,6,0,0,1-6-6v-23a6,6,0,0,1,6-6Zm166,306a12,12,0,0,1-12,12H82a12,12,0,0,1-12-12V319.37a12,12,0,0,1,12-12h50.09v15.24a26,26,0,0,0,26,26H236a26,26,0,0,0,26-26V307.38H312a12,12,0,0,1,12,12Zm42.55-222.86A3.63,3.63,0,0,1,363,380.4H347.72a3.63,3.63,0,0,1-3.62-3.62V357.93h22.47Zm147.13,0a3.63,3.63,0,0,1-3.62,3.62H494.84a3.62,3.62,0,0,1-3.61-3.62V357.93H513.7ZM542,338H344V319.37a32,32,0,0,0-28.23-31.75v-3.37A18.32,18.32,0,0,1,334.06,266H523.74A18.32,18.32,0,0,1,542,284.25Zm0,0" transform="translate(-50 -160)" fill="#636363"/><path d="M371.07,292a10,10,0,1,0,7.07,2.93,10.05,10.05,0,0,0-7.07-2.93Zm0,0" transform="translate(-50 -160)" fill="#636363"/><path d="M486.73,292a10,10,0,1,0,7.06,2.93,10.06,10.06,0,0,0-7.06-2.93Zm0,0" transform="translate(-50 -160)" fill="#636363"/><path d="M446.76,292.22H411a10,10,0,0,0,0,20h35.72a10,10,0,0,0,0-20Zm0,0" transform="translate(-50 -160)" fill="#636363"/><path d="M144.28,457.18l-20.91,20.91-7.52-7.51a10,10,0,0,0-14.13,14.13l14.58,14.58a10,10,0,0,0,14.13,0l28-28a10,10,0,0,0-14.13-14.14Zm0,0" transform="translate(-50 -160)" fill="#636363"/><path d="M284.2,473.74H199.6a10,10,0,1,0,0,20h84.6a10,10,0,1,0,0-20Zm0,0" transform="translate(-50 -160)" fill="#636363"/><path d="M144.28,377.25l-20.91,20.91-7.52-7.51a10,10,0,0,0-14.13,14.12l14.58,14.59a10,10,0,0,0,14.13,0l28-28a10,10,0,0,0-14.13-14.13Zm0,0" transform="translate(-50 -160)" fill="#636363"/><path d="M284.2,393.81a10,10,0,1,0,7.06,2.92,10.11,10.11,0,0,0-7.06-2.92Zm0,0" transform="translate(-50 -160)" fill="#636363"/><path d="M199.6,413.79h44.63a10,10,0,0,0,0-20H199.6a10,10,0,1,0,0,20Zm0,0" transform="translate(-50 -160)" fill="#636363"/><path d="M144.28,537.12,123.37,558l-7.52-7.52a10,10,0,0,0-14.13,14.13l14.58,14.59a10,10,0,0,0,14.13,0l28-28a10,10,0,1,0-14.13-14.13Zm0,0" transform="translate(-50 -160)" fill="#636363"/><path d="M284.2,553.68H199.6a10,10,0,1,0,0,20h84.6a10,10,0,0,0,0-20Zm0,0" transform="translate(-50 -160)" fill="#636363"/></svg>