<svg id="Capa_1" data-name="Capa 1" xmlns="http://www.w3.org/2000/svg" viewBox="0 0 512 512"><title>icon-advantages_03</title><path d="M-318.46,80a10,10,0,0,0-10,10,10,10,0,0,0,10,10,10,10,0,0,0,10-10A10,10,0,0,0-318.46,80Z" transform="translate(580.46 20)" fill="#636363"/><path d="M-76,190.3-113.35,181a206.62,206.62,0,0,0-25.35-61.44L-119,86.66a10,10,0,0,0-1.5-12.22L-162.9,32a10,10,0,0,0-12.22-1.51L-208,50.23a206.88,206.88,0,0,0-61.44-25.35l-9.32-37.31A10,10,0,0,0-288.47-20h-60a10,10,0,0,0-9.71,7.57l-9.43,37.74a206.54,206.54,0,0,0-60.64,25.34L-461.81,30.5A10,10,0,0,0-474,32l-42.43,42.43A10,10,0,0,0-518,86.66l20.47,34.1A206.79,206.79,0,0,0-522,180.59l-38.84,9.71a10,10,0,0,0-7.57,9.7v60a10,10,0,0,0,7.57,9.7l39.28,9.82a207.18,207.18,0,0,0,24.26,58.65l-54.32,54.33h0l-14.13,14.14A49.65,49.65,0,0,0-580.46,442a49.64,49.64,0,0,0,14.64,35.35A49.67,49.67,0,0,0-530.46,492a49.64,49.64,0,0,0,35.35-14.65L-481,463.21h0l54.32-54.33A207.27,207.27,0,0,0-368,433.15l9.82,39.27a10,10,0,0,0,9.71,7.58h60a10,10,0,0,0,9.71-7.58l9.7-38.84A206.82,206.82,0,0,0-209.23,409l34.11,20.46A10,10,0,0,0-162.9,428l42.43-42.43a10,10,0,0,0,1.5-12.22l-20.15-33.57a206.48,206.48,0,0,0,25.34-60.63L-76,269.7a10,10,0,0,0,7.57-9.7V200A10,10,0,0,0-76,190.3ZM-477.56,346.66l.05,0,43-43,.05-.06,34.74-34.74a90.24,90.24,0,0,0,42.43,42.43L-392,346s0,0-.05.05l-43,43.05,0,.05L-488,442l-42.43-42.43ZM-388.46,230a70.08,70.08,0,0,1,70-70,70.07,70.07,0,0,1,70,70,70.07,70.07,0,0,1-70,70c-.93,0-1.85,0-2.77-.06L-294,218.16a10,10,0,0,0-2.41-10.23,10,10,0,0,0-10.24-2.42l-81.77,27.26C-388.44,231.85-388.46,230.92-388.46,230ZM-342,295.94a70.12,70.12,0,0,1-42.43-42.43l1.49-1.49,63.64-21.21-21.21,63.64ZM-530.46,472a29.8,29.8,0,0,1-21.22-8.8,29.79,29.79,0,0,1-8.78-21.2,29.76,29.76,0,0,1,8.79-21.21l7.07-7.08,42.42,42.42-7.08,7.08A29.76,29.76,0,0,1-530.46,472Zm442-219.81-36.13,9a10,10,0,0,0-7.36,7.64,186.91,186.91,0,0,1-27.25,65.18,10,10,0,0,0-.25,10.68l19.32,32.21-31.39,31.39-32.67-19.61a10,10,0,0,0-10.58.19,187.28,187.28,0,0,1-64.48,26.44,10,10,0,0,0-7.7,7.37L-296.27,460h-44.39l-9.41-37.66a10,10,0,0,0-7.62-7.35A188.11,188.11,0,0,1-412,394.28l28.94-28.95A150.06,150.06,0,0,0-318.46,380c82.7,0,150-67.29,150-150a148.86,148.86,0,0,0-27.35-86.28,150,150,0,0,0-69.92-54.16,10,10,0,0,0-12.88,5.84,10,10,0,0,0,5.83,12.88A130.73,130.73,0,0,1-188.47,230a130.14,130.14,0,0,1-130,130,130.3,130.3,0,0,1-49.48-9.81L-336,318.28A90.28,90.28,0,0,0-318.47,320a90.1,90.1,0,0,0,90-90,90.1,90.1,0,0,0-90-90,90.1,90.1,0,0,0-90,90,90.39,90.39,0,0,0,1.72,17.57l-31.91,31.91A130.26,130.26,0,0,1-448.47,230a130.74,130.74,0,0,1,84.33-121.72,10,10,0,0,0,5.83-12.89,10,10,0,0,0-12.88-5.83,149.92,149.92,0,0,0-69.92,54.16A148.87,148.87,0,0,0-468.47,230a150,150,0,0,0,14.67,64.62l-28.95,28.95a188,188,0,0,1-20.71-54.35,10,10,0,0,0-7.35-7.61l-37.66-9.42V207.81l37.28-9.32a10,10,0,0,0,7.37-7.7,186.94,186.94,0,0,1,26.45-64.47,10,10,0,0,0,.19-10.59l-19.61-32.67,31.38-31.39L-433.21,71a10,10,0,0,0,10.68-.24,186.91,186.91,0,0,1,65.2-27.26,10,10,0,0,0,7.64-7.35l9-36.14h44.39l8.93,35.75a10,10,0,0,0,7.72,7.38,187.1,187.1,0,0,1,66,27.21,10,10,0,0,0,10.64.23l31.49-18.9,31.38,31.39L-159,114.54a10,10,0,0,0,.22,10.65,186.87,186.87,0,0,1,27.21,66,10,10,0,0,0,7.38,7.72l35.75,8.94v44.38Z" transform="translate(580.46 20)" fill="#636363"/></svg>