<svg id="_16" data-name="16" xmlns="http://www.w3.org/2000/svg" viewBox="0 0 47.78 47.78"><title>icon-clock</title><path d="M2055.65,1408.93a23.29,23.29,0,1,0,23.29,23.29A23.29,23.29,0,0,0,2055.65,1408.93Zm1,44.53v-4.1a1,1,0,0,0-2,0v4.1a21.27,21.27,0,0,1-20.24-20.24h4.09a1,1,0,0,0,0-2h-4.09a21.27,21.27,0,0,1,20.24-20.24v4.09a1,1,0,1,0,2,0V1411a21.28,21.28,0,0,1,20.24,20.24h-4.1a1,1,0,0,0,0,2h4.11A21.28,21.28,0,0,1,2056.65,1453.46Z" transform="translate(-2031.76 -1408.33)" fill="#4f4f4f" stroke="#4f4f4f" stroke-miterlimit="10" stroke-width="1.2"/><path d="M2066.19,1441.51l-9.54-9.7v-10.08a1,1,0,0,0-2,0v10.49a1,1,0,0,0,.29.7l9.82,10a1,1,0,0,0,1.43-1.4Z" transform="translate(-2031.76 -1408.33)" fill="#4f4f4f" stroke="#4f4f4f" stroke-miterlimit="10" stroke-width="1.2"/></svg>