<svg id="_16" data-name="16" xmlns="http://www.w3.org/2000/svg" viewBox="0 0 55.59 32.56"><title>icon-social_01</title><path d="M-86.34,1138.29c-.74-.55-3.4-.55-6-.55a37.22,37.22,0,0,0-6,.3c-.58.22-1.87,3.35-3.54,6.55-1.92,3.62-4.25,7.13-5.73,7.08-2,0-1.48-6-1.34-10.37,0-2.88-.44-3.81-.85-4a16.18,16.18,0,0,0-3.81-1.4s-8.4-.63-9.57,3c1.61.22,4.36-.28,3.29,10.93-.09.55-1.29,5.16-5.19-1.06-1-1.57-4.71-10.92-6-11-4.3-.08-8.58-.28-10.06.55s1.86,7.24,7.38,15.85c4.46,7.07,9.21,12.55,17.43,13.92,1.57.17,5.57.33,6.86-.27.85-.41-.22-6.5,2.71-7.1,1.29-.25,6.31,6.36,8.2,7.1a18.3,18.3,0,0,0,6.25.55c2.8-.08,6,.27,6.28-1.65.69-4.19-8.47-9.68-8.72-12.25-.22-1.87,3.35-5.29,5.16-7.93,2.24-3.18,4.71-7,3.31-8.22Z" transform="translate(141.52 -1135.81)" fill="#4f4f4f" fill-rule="evenodd"/></svg>