<svg id="Layer_1" data-name="Layer 1" xmlns="http://www.w3.org/2000/svg" viewBox="0 0 512 397.78"><title>icon-advantages_04</title><path d="M556.81,292.68l-172-94.45a10,10,0,0,0-9.62,0l-64.68,35.52a10,10,0,0,0-4,2.18L203.19,292.68a10,10,0,0,0-5.19,8.77v20.44H82.63a10,10,0,0,0,0,20H198v36H140.67a10,10,0,1,0,0,20H198v52H114a10,10,0,0,0,0,20h84v20.45a10,10,0,0,0,5.19,8.76l172,94.45a10,10,0,0,0,9.62,0l172-94.45a10,10,0,0,0,5.19-8.76V445.56a10,10,0,1,0-20,0v38.86L390,567.89V401.81l48.34-26.54v42.12a10,10,0,0,0,14.82,8.76L490,405.87a10,10,0,0,0,5.18-8.77V344.05l46.8-25.7v47.21a10,10,0,0,0,20,0V301.45a10,10,0,0,0-5.19-8.77ZM370,567.89,218,484.42V318.35l152,83.46Zm10-183.41-151.22-83,47.52-26.1,151.23,83ZM448.31,347l-151.23-83,16.4-9L464.7,338Zm26.88,44.22-16.85,9.27V364.28L475.19,355Zm10.29-64.63-151.23-83L380,218.41l151.22,83Zm0,0" transform="translate(-50 -197)" fill="#636363"/><path d="M552,395.56a10,10,0,1,0,7.07,2.93,10,10,0,0,0-7.07-2.93Zm0,0" transform="translate(-50 -197)" fill="#636363"/><path d="M74.33,449.89H60a10,10,0,0,0,0,20H74.33a10,10,0,1,0,0-20Zm0,0" transform="translate(-50 -197)" fill="#636363"/><path d="M110.67,387.89a10,10,0,1,0-2.93,7.07,10.08,10.08,0,0,0,2.93-7.07Zm0,0" transform="translate(-50 -197)" fill="#636363"/></svg>