<svg id="Layer_1" data-name="Layer 1" xmlns="http://www.w3.org/2000/svg" viewBox="0 0 23.55 22.22"><title>Vector Smart Object1</title><g id="g4780"><g id="g15"><path id="path17-6" d="M1330.77,1158.92c-.62-.49-1.27-.93-1.92-1.39-1.28-.9-2.46-1-3.42.48a1.49,1.49,0,0,1-2.08.5,9.22,9.22,0,0,1-4.84-4.72,1.82,1.82,0,0,1,.58-2.55,1.79,1.79,0,0,0,1-1.6c-.05-1-2.58-4.52-3.58-4.89a1.85,1.85,0,0,0-1.25,0c-2.35.79-4.39,3.22-3.46,5.5a26,26,0,0,0,14.37,14.45,7.48,7.48,0,0,0,1,.29c1.53,0,4.4-2,4.91-3.43s-.55-2-1.38-2.64Z" transform="translate(-1310.81 -1143.56)" fill="none" stroke="#4f4f4f" stroke-miterlimit="10" stroke-width="1.6"/></g></g><path d="M1323.87,1144.37a10.78,10.78,0,0,1,7,2.42c3.12,2.62,2.67,7,2.67,7" transform="translate(-1310.81 -1143.56)" fill="none" stroke="#4f4f4f" stroke-linecap="round" stroke-linejoin="round" stroke-width="1.6"/><path d="M1323.13,1147a8.32,8.32,0,0,1,5.38,1.86,6.73,6.73,0,0,1,2.06,5.39" transform="translate(-1310.81 -1143.56)" fill="none" stroke="#4f4f4f" stroke-linecap="round" stroke-linejoin="round" stroke-width="1.6"/><path d="M1323.13,1149.85a4.85,4.85,0,0,1,3.14,1.09,3.9,3.9,0,0,1,1.21,3.14" transform="translate(-1310.81 -1143.56)" fill="none" stroke="#4f4f4f" stroke-linecap="round" stroke-linejoin="round" stroke-width="1.6"/></svg>