<svg id="Isolation_Mode" data-name="Isolation Mode" xmlns="http://www.w3.org/2000/svg" viewBox="0 0 409.6 387.59"><title>icon-advantages_01</title><path d="M882.12,565.87a8,8,0,1,0-10.93-2.93,8,8,0,0,0,10.93,2.93Zm0,0" transform="translate(-772.55 -319.29)" fill="#636363"/><path d="M849.33,621.09l40.29,69.78a32,32,0,1,0,55.43-32l-24-41.57,20.78-12a8,8,0,0,0,2.93-10.93l-10.41-18,153.23-30.06a24,24,0,0,0,19.46-36l-26.59-46,17-25.74a8,8,0,0,0,.25-8.41l-16-27.71a8,8,0,0,0-7.4-4l-30.78,1.85L1014,349.17a23.8,23.8,0,0,0-20.48-12h-.31A23.81,23.81,0,0,0,973,348.23L868.49,481.37l-67.94,39.22a56,56,0,0,0,48.78,100.5Zm81.86,45.79a16,16,0,1,1-27.71,16l-40-69.28,27.71-16,40,69.29Zm-18.14-63.44-8-13.85,13.85-8,8,13.85Zm157.26-188.73,11.06,19.15-9.86,14.94-19.06-33ZM986.38,357a8,8,0,0,1,13.75.16l93.05,161.17a8,8,0,0,1-6.73,12,29.19,29.19,0,0,0-4.38.75L983.64,360.59c2.06-2.65,2.33-2.91,2.74-3.58ZM973,374.16l92.48,160.17L925.9,561.71,883.46,488.2ZM793.91,589.09a40,40,0,0,1,14.64-54.64l62.35-36,40,69.28-62.35,36a40,40,0,0,1-54.64-14.64Zm0,0" transform="translate(-772.55 -319.29)" fill="#636363"/><path d="M857.33,570.94A8,8,0,0,0,846.4,568l-13.85,8a8,8,0,0,1-10.93-2.93,8,8,0,0,0-13.86,8,24,24,0,0,0,32.79,8.78l13.85-8a8,8,0,0,0,2.93-10.93Zm0,0" transform="translate(-772.55 -319.29)" fill="#636363"/><path d="M1170.26,354.28l-44.58,24.81a8,8,0,1,0,7.78,14l44.57-24.8a8,8,0,0,0-7.77-14Zm0,0" transform="translate(-772.55 -319.29)" fill="#636363"/><path d="M1165.58,437.14l-30.91-8.28a8,8,0,1,0-4.14,15.45l30.91,8.28a8,8,0,1,0,4.14-15.45Zm0,0" transform="translate(-772.55 -319.29)" fill="#636363"/><path d="M1087.9,325.22l-8.28,30.91a8,8,0,1,0,15.45,4.14l8.29-30.91a8,8,0,0,0-15.46-4.14Zm0,0" transform="translate(-772.55 -319.29)" fill="#636363"/></svg>