<svg id="_16" data-name="16" xmlns="http://www.w3.org/2000/svg" viewBox="0 0 50.59 37.1"><title>icon-social_04</title><path d="M-94.94,1275.62s-.52-3.65-2-5.24a7.27,7.27,0,0,0-5-2.25c-7.08-.52-17.69-.52-17.69-.52h0s-10.59,0-17.66.52a7.24,7.24,0,0,0-5.07,2.25c-1.51,1.59-2,5.24-2,5.24a80.71,80.71,0,0,0-.52,8.5v4a79.71,79.71,0,0,0,.52,8.5s.52,3.64,2,5.26c1.92,2.11,4.44,2,5.59,2.25,4,.41,17.19.55,17.19.55s10.61-.06,17.69-.55a7.13,7.13,0,0,0,5-2.25c1.51-1.62,2-5.26,2-5.26a84.52,84.52,0,0,0,.49-8.5v-4c0-4.23-.49-8.5-.49-8.5Zm-16.34,10L-125,1293v-14.8l6.19,3.37Z" transform="translate(145.03 -1267.61)" fill="#4f4f4f" fill-rule="evenodd"/></svg>