<svg fill="none" xmlns="http://www.w3.org/2000/svg" viewBox="0 0 112 24"><path d="M15.53 8.727h-.532a.715.715 0 0 0-.513.214l-6.228 6.242-6.21-6.242a.729.729 0 0 0-.512-.214h-.532c-.4 0-.722.323-.722.724v13.803c0 .401.326.724.722.724h.365c.4 0 .722-.327.722-.724V11.548l5.65 5.663a.738.738 0 0 0 1.025.004l5.673-5.67v11.71c0 .4.323.723.723.723h.365c.4 0 .722-.327.722-.724V9.451a.716.716 0 0 0-.718-.724ZM66.89 8.725h-.345a.76.76 0 0 0-.761.762v13.746a.76.76 0 0 0 .76.763h.346a.76.76 0 0 0 .761-.763V9.487a.758.758 0 0 0-.76-.762ZM85.366 9.075a.762.762 0 0 0-.645-.354h-.404a.76.76 0 0 0-.69.444l-5.515 11.842-5.56-11.846a.763.763 0 0 0-.691-.44h-.404a.763.763 0 0 0-.691 1.09l6.453 13.745c.124.269.396.44.691.44h.404a.76.76 0 0 0 .691-.443l6.4-13.746a.746.746 0 0 0-.04-.732ZM97.834 10.616a.76.76 0 0 0 .761-.763v-.366a.76.76 0 0 0-.76-.762h-8.54a.76.76 0 0 0-.76.762v13.746a.76.76 0 0 0 .76.763h8.54a.76.76 0 0 0 .76-.763v-.366a.76.76 0 0 0-.76-.763h-7.429v-4.958h6.861a.76.76 0 0 0 .761-.762v-.366a.76.76 0 0 0-.76-.763h-6.862v-4.631h7.428v-.008ZM108.33 18.194c2.039-.565 3.549-2.444 3.549-4.64 0-2.661-2.163-4.833-4.822-4.833h-4.625a.76.76 0 0 0-.761.763V23.23a.76.76 0 0 0 .761.762h.349a.76.76 0 0 0 .761-.762v-4.865h2.711l3.017 5.246a.76.76 0 0 0 .66.381h.419a.769.769 0 0 0 .661-.381.769.769 0 0 0 0-.763l-2.68-4.654Zm-4.788-7.593h3.515c1.607.016 2.916 1.343 2.916 2.958a2.949 2.949 0 0 1-2.913 2.938h-3.514V10.6h-.004ZM44.71 12.586v5.234c-.015 2.35-1.945 4.265-4.302 4.265a4.286 4.286 0 0 1-4.287-4.277V12.59l-1.89-.969v6.188c0 3.413 2.768 6.192 6.173 6.192a6.201 6.201 0 0 0 6.194-6.192v-6.191l-1.887.969ZM29.19 9.029c-.015.02-.043.03-.054.054l-4.206 7.278-4.19-7.274a.724.724 0 0 0-.628-.366h-.44a.725.725 0 0 0-.624 1.094l4.99 8.542v4.904c0 .4.326.724.722.724h.35c.4 0 .721-.323.721-.724v-4.904l4.967-8.5-1.608-.828ZM61.97 8.725h-.364a.76.76 0 0 0-.761.762v11.185l-9.21-11.636-1.981 1.016v13.18a.76.76 0 0 0 .76.764h.366a.76.76 0 0 0 .76-.763V12.04l9.266 11.668a.765.765 0 0 0 .598.288h.567a.76.76 0 0 0 .76-.763V9.487a.76.76 0 0 0-.76-.762Z" fill="#000"/><path d="M51.413 5.526 40.846.106a.936.936 0 0 0-.862 0l-10.566 5.42a.944.944 0 0 0-.512.845c0 .358.198.68.512.844l2.05 1.055v6.487a.944.944 0 1 0 .792 0V8.671l7.724 3.965a.939.939 0 0 0 .862 0l10.566-5.42a.949.949 0 0 0 .512-.845.949.949 0 0 0-.512-.845ZM40.416 10.73l-8.488-4.358 8.488-4.359 8.492 4.359-8.492 4.358Z" fill="#000"/></svg>