<svg fill="none" xmlns="http://www.w3.org/2000/svg" viewBox="0 0 89 18"><path fill-rule="evenodd" clip-rule="evenodd" d="M35.239 8.875h2.245V5.508l-2.245.02V1.06h-3.367V5.53l-2.183-.02v3.366h2.183l-.021 9.042h3.388V8.875Zm-22.199 9H9.735l-.02-6.131c0-.832-.291-1.56-.873-2.141C8.26 9.02 7.532 8.73 6.7 8.73c-.77 0-1.434.25-1.996.769-.56.499-.893 1.122-.956 1.891l-.062 6.485H.32v-6.194C.34 9.935.964 8.46 2.21 7.233c1.247-1.226 2.744-1.85 4.469-1.85 1.767 0 3.263.624 4.49 1.871 1.247 1.226 1.87 2.723 1.87 4.49v6.131Zm14.737-4.884-9 .02c.187.562.54 1.06 1.102 1.435a3.15 3.15 0 0 0 1.85.582c.852 0 1.62-.312 2.327-.956.832.852 1.538 1.559 2.12 2.12C24.95 17.397 23.474 18 21.77 18c-1.725 0-3.2-.624-4.448-1.85-1.226-1.226-1.85-2.702-1.85-4.448 0-1.746.624-3.242 1.85-4.469 1.226-1.226 2.702-1.85 4.448-1.85 2.432 0 4.178 1.019 5.238 3.056.561 1.06.831 2.245.831 3.554-.041.333-.041.644-.062.998Zm-3.118-2.64c-.582-1.206-1.559-1.808-2.93-1.808-1.351 0-2.328.602-2.931 1.808h5.861Z" fill="#000"/><path d="M43.262 0h-3.388v17.875h3.388V0Z" fill="#000"/><path fill-rule="evenodd" clip-rule="evenodd" d="M70.386 17.875h3.305v-6.11c0-1.767-.623-3.264-1.87-4.49-1.227-1.247-2.723-1.871-4.49-1.871-1.725 0-3.222.624-4.469 1.85-1.247 1.205-1.87 2.681-1.891 4.448v6.173h3.367l.02-6.464c.063-.77.396-1.393.957-1.891a2.864 2.864 0 0 1 1.995-.77c.832 0 1.56.291 2.141.873.582.582.873 1.31.873 2.141l.063 6.111ZM85.331.02v6.07a6.225 6.225 0 0 0-2.93-.707c-1.726 0-3.202.603-4.449 1.83-1.226 1.226-1.85 2.68-1.85 4.406 0 1.725.624 3.2 1.85 4.427 1.227 1.226 2.702 1.83 4.448 1.83 1.705 0 3.18-.583 4.386-1.747 1.206-1.185 1.85-2.619 1.933-4.302V.02h-3.388ZM84.5 13.74c-.562.561-1.268.852-2.12.852-.811 0-1.518-.29-2.12-.852a2.95 2.95 0 0 1-.853-2.12c0-.81.291-1.497.853-2.079a2.886 2.886 0 0 1 2.12-.873c.83 0 1.538.291 2.12.873.582.562.873 1.248.873 2.079 0 .831-.291 1.538-.873 2.12ZM58.352 11.494v6.36h-3.326v-6.152c0-.831-.29-1.559-.873-2.14-.56-.562-1.268-.853-2.12-.853-.81 0-1.517.291-2.12.852a2.999 2.999 0 0 0-.852 2.141c0 .81.29 1.517.852 2.079a2.886 2.886 0 0 0 2.12.872h1.746v3.222h-1.746c-1.725 0-3.2-.499-4.448-1.746-1.226-1.226-1.85-2.702-1.85-4.448 0-1.746.624-3.242 1.85-4.469 1.227-1.226 2.702-1.85 4.448-1.85 1.705 0 3.18.583 4.386 1.767 1.226 1.227 1.87 2.682 1.933 4.365Z" fill="#000"/></svg>