<svg fill="none" xmlns="http://www.w3.org/2000/svg" viewBox="0 0 64 18"><path fill-rule="evenodd" clip-rule="evenodd" d="M.893 3.48V0h11.583c2.024 0 3.622.613 4.806 1.838.51.5.868.974 1.075 1.406.22.459.385.904.495 1.336.124.432.18.863.18 1.295v.515c0 .654-.138 1.308-.414 1.963-.275.654-.702 1.28-1.308 1.893a5.165 5.165 0 0 1-1.033.877 5.549 5.549 0 0 1-.964.473c1.515 1.615 2.272 3.745 2.272 6.404H13.95v-.265c0-1.976-.798-3.55-2.396-4.677-.895-.64-2.08-.96-3.567-.96H.879v-3.48h11.83c1.282 0 2.163-.641 2.631-1.908.028-.125.042-.25.07-.348.027-.111.027-.209.027-.292.014-.696-.29-1.337-.882-1.922-.523-.403-1.06-.598-1.625-.598 0-.028-.179-.056-.523-.056H.893V3.48Zm22.188.014V.014h18.124v3.48h-7.244v14.492h-3.636V3.494H23.08Zm22.16 4.622V.014h3.635V8.52c0 1.197.235 2.227.689 3.076.455.85 1.143 1.56 2.052 2.116.4.25.882.446 1.405.585.523.14 1.115.209 1.79.209h8.58V18h-8.456c-2.3 0-4.132-.473-5.495-1.42a4.712 4.712 0 0 1-.73-.473 7.99 7.99 0 0 1-.992-.92 8.32 8.32 0 0 1-1.253-1.656 8.448 8.448 0 0 1-.757-1.712c-.152-.432-.262-.96-.33-1.56-.097-.626-.139-1.336-.139-2.143Z" fill="#000"/></svg>