<?xml version="1.0" encoding="utf-8"?>
<!-- Generator: Adobe Illustrator 23.0.3, SVG Export Plug-In . SVG Version: 6.00 Build 0)  -->
<svg version="1.1" id="Layer_1" xmlns="http://www.w3.org/2000/svg" xmlns:xlink="http://www.w3.org/1999/xlink" x="0px" y="0px"
	 viewBox="0 0 474 206.4" style="enable-background:new 0 0 474 206.4;" xml:space="preserve">
<polygon points="132.4,126 127.5,126 110.8,104.2 110.9,102.6 115.7,102.6 132.6,124.6 "/>
<rect x="250.6" y="102.6" width="5.2" height="23.4"/>
<rect x="144.7" y="102.6" width="5.2" height="23.4"/>
<rect x="94" y="102.6" width="5.2" height="23.4"/>
<rect x="110.4" y="102.6" width="5.2" height="23.4"/>
<rect x="127.5" y="102.6" width="5.2" height="23.4"/>
<rect x="382" y="102.6" width="5.2" height="23.4"/>
<polygon points="273,126 267.2,126 261.9,116.4 267.7,116.4 "/>
<g>
	<path d="M157,126h-7.3v-23.4h7.2c6.9,0,11.6,4.8,11.6,12.2C168.5,121.9,164.1,126,157,126z M149.7,107.1v14.4h7.3
		c4.7,0,6.6-2.6,6.6-7.2c0-5-2.3-7.2-6.8-7.2H149.7z"/>
</g>
<path d="M204.5,114.8c0-6.1-3.1-10.3-8-11.7c-3.6-0.6-7.2-0.6-10.8-0.1c-5.1,1.2-8,4.9-8,10.8c0,6.1,3.1,10.3,8,11.7
	c3.6,0.6,7.2,0.6,10.8,0.1C201.5,124.4,204.5,120.7,204.5,114.8z M193,121.5h-4.6c-3.8-0.3-5.8-2.6-5.8-7.2c0-4.6,1.9-7.2,6.6-7.2
	h4.6c3.9,0.3,5.8,2.6,5.8,7.2C199.6,118.9,197.7,121.5,193,121.5z"/>
<path d="M240.5,114.8c0-6.1-3.1-10.3-8-11.7c-3.6-0.6-7.2-0.6-10.8-0.1c-5.1,1.2-8,4.9-8,10.8c0,6.1,3.1,10.3,8,11.7
	c3.6,0.6,7.2,0.6,10.8,0.1C237.5,124.4,240.5,120.7,240.5,114.8z M229,121.5h-4.6c-3.8-0.3-5.8-2.6-5.8-7.2c0-4.6,1.9-7.2,6.6-7.2
	h4.6c3.9,0.3,5.8,2.6,5.8,7.2C235.6,118.9,233.7,121.5,229,121.5z"/>
<path d="M310.5,114.8c0-6.1-3.1-10.3-8-11.7c-3.6-0.6-7.2-0.6-10.8-0.1c-5.1,1.2-8,4.9-8,10.8c0,6.1,3.1,10.3,8,11.7
	c3.6,0.6,7.2,0.6,10.8,0.1C307.5,124.4,310.5,120.7,310.5,114.8z M299,121.5h-4.6c-3.8-0.3-5.8-2.6-5.8-7.2c0-4.6,1.9-7.2,6.6-7.2
	h4.6c3.9,0.3,5.8,2.6,5.8,7.2C305.6,118.9,303.7,121.5,299,121.5z"/>
<path d="M417.9,120.4c-1.1,0.3-3.1,1.1-4.9,1.1h-4.6c-3.8-0.3-5.8-2.6-5.8-7.2c0-4.6,1.9-7.2,6.6-7.2h4.6c1.2,0.1,3,0.8,4,1.2
	l1.9-3.6c-1-0.7-2.1-1.3-3.3-1.6c-3.6-0.6-7.2-0.6-10.8-0.1c-5.1,1.2-8,4.9-8,10.8c0,6.1,3.1,10.3,8,11.7c3.6,0.6,7.2,0.6,10.8,0.1
	c1.5-0.3,2.2-0.5,3.3-1.3L417.9,120.4z"/>
<path d="M273,110.5c0-4-2.6-7.2-8-7.7c-3.3-0.2-5.8-0.1-9.3-0.1v15.3c3.2,0,6,0.1,9.3-0.3C270.4,117.1,273,114.4,273,110.5z
	 M261.3,113.9h-4.6c-0.6,0-1.1-0.1-1.6-0.1c-2.8-0.3-4.1-1.1-4.1-3.7c0-2.5,0.8-3.3,3.6-3.5c0.7-0.1,1.5-0.1,2.4-0.1h4.6
	c3.9,0.2,6.2,0.4,6.2,3.5C267.9,113.1,266,113.9,261.3,113.9z"/>
<g>
	<rect x="318.8" y="102.6" width="5.2" height="23.4"/>
	<rect x="326.8" y="94.6" transform="matrix(6.123234e-17 -1 1 6.123234e-17 224.1735 434.5831)" width="5.2" height="21.2"/>
	<rect x="324.9" y="106" transform="matrix(6.123234e-17 -1 1 6.123234e-17 212.7647 442.2086)" width="5.2" height="17.4"/>
</g>
<g>
	<rect x="350.6" y="102.6" width="5.2" height="23.4"/>
	<rect x="358.6" y="94.6" transform="matrix(6.123234e-17 -1 1 6.123234e-17 255.9812 466.3908)" width="5.2" height="21.2"/>
	<rect x="356.7" y="106" transform="matrix(6.123234e-17 -1 1 6.123234e-17 244.5724 474.0162)" width="5.2" height="17.4"/>
</g>
<rect x="428.6" y="102.6" width="5.2" height="23.4"/>
<rect x="436.6" y="94.6" transform="matrix(6.123234e-17 -1 1 6.123234e-17 333.9812 544.3908)" width="5.2" height="21.2"/>
<rect x="436.6" y="112.7" transform="matrix(6.123234e-17 -1 1 6.123234e-17 315.8322 562.5398)" width="5.2" height="21.2"/>
<rect x="434.7" y="106" transform="matrix(6.123234e-17 -1 1 6.123234e-17 322.5724 552.0162)" width="5.2" height="17.4"/>
<path d="M41.6,89.7c-7.8,0-14.2,6.3-14.2,14.2v33.3c0,7.8,6.3,14.2,14.2,14.2l14.2,0.3v-14.4v-33.3C55.8,96,49.4,89.7,41.6,89.7z"/>
<path d="M99.9,28.3c0.4,0,0.8,0,1.2,0c37.5,0.6,52.2,20.4,55.8,26.4c2,3.4,2.1,14.1,0.1,28.9h4c1.5-11.7,2.4-25.7-0.7-31
	c-3.9-6.5-19.7-27.8-59.2-28.4c-0.4,0-0.8,0-1.3,0c-35.8,0-54.2,23.6-55.2,31.3c-0.7,6-1.2,16.1,0.9,30.3l4-0.6
	c-2-13.8-1.6-23.5-0.9-29.2C49.3,51.3,65.2,28.3,99.9,28.3z"/>
<path d="M141.8,83.7h9.4l0.1-0.9c-0.1,0-14.4-1-18.6-18.6l-0.8-3.4l-2.5,2.5c-0.2,0.2-19.3,18.1-72.7,12.7l-2.2-0.2V86h4v-5.8
	c43.7,3.9,64.5-7.3,71.2-12C132.4,76.5,137.3,81.1,141.8,83.7z"/>
<path d="M150.3,144.9c-1,4.7-1.8,8.4-2.3,10.6c-2.4,10.6-23.4,32-27.2,32.9c-4.4,1.1-22.6,1.8-34.3,0c-10.8-1.7-24.5-22.6-29.4-33.5
	c-3.3-7.3-6.7-29.3-9.4-47c-1.1-7.2-2.1-14-3.1-19c-3.2-17.4-2.7-29.6-1.8-36.8c0.7-5.2,18.3-30.2,56.7-30.2c0.4,0,0.9,0,1.4,0
	c41.5,0.6,57.8,22.1,61.8,28.7c3.1,5,1.5,22-0.1,33.1h4c1.5-10.6,3.3-28.9-0.6-35.2c-4.3-7-21.7-29.9-65.2-30.6
	c-22.4-0.3-37.5,7.4-46.3,13.9c-10.1,7.5-15.3,16.1-15.8,19.8c-0.9,7.4-1.4,20.1,1.9,38c0.9,5,1.9,11.8,3,18.9
	c2.9,18.9,6.2,40.2,9.7,48c4.9,10.8,19.4,33.8,32.5,35.8c5.3,0.8,12.2,1.2,18.5,1.2c7.6,0,14.6-0.5,17.4-1.2
	c5.5-1.4,27.5-24.1,30.1-35.9c0.5-2.3,1.4-6.4,2.5-11.5H150.3z"/>
<path d="M148.9,144.9v6.7l14.2-0.3c5,0,9.3-2.6,11.9-6.5H148.9z"/>
</svg>
