<svg fill="none" xmlns="http://www.w3.org/2000/svg" viewBox="0 0 32 32"><path d="m3.252 24.26-2.86 7.594h1.796l.466-1.285h3.17l.455 1.285h1.795l-2.85-7.594H3.253Zm-.166 4.883 1.153-3.267 1.154 3.267H3.086ZM11.585 29.063h1.951v.91c-.3.286-.92.581-1.573.581-1.342 0-2.318-1.06-2.318-2.493 0-1.435.976-2.493 2.318-2.493.787 0 1.42.456 1.751.99l1.308-.729c-.554-.9-1.52-1.696-3.06-1.696-2.16 0-3.934 1.526-3.934 3.928 0 2.39 1.773 3.939 3.935 3.939 1.341 0 2.395-.569 3.149-1.435V27.65h-3.527v1.412ZM21.403 29.03l-3.425-4.77h-1.617v7.594h1.573v-4.953l3.525 4.953h1.518V24.26h-1.574v4.77ZM28.019 25.568c.766 0 1.43.49 1.74 1.105l1.353-.684c-.522-.944-1.464-1.856-3.093-1.856-2.217 0-3.935 1.594-3.935 3.928 0 2.335 1.72 3.929 3.935 3.929 1.63 0 2.561-.922 3.093-1.867l-1.354-.672c-.31.627-.975 1.105-1.74 1.105-1.34 0-2.316-1.06-2.316-2.493 0-1.435.975-2.495 2.317-2.495ZM26.725 11.777v2.407h-5.992l6.288-7.149V0L14.544 14.184V18.9H31.32v-7.124h-4.595ZM8.35 18.9h5.094c-1.434-3.953-4.526-7.08-8.403-8.489V4.943h9.667V.226H.448v9.372H.424v4.717c3.353 0 6.29 1.842 7.926 4.585Z" fill="#000"/></svg>