<svg width="20" height="20" viewBox="0 0 20 20" fill="none" xmlns="http://www.w3.org/2000/svg">
<path d="M9.07711 3.21948C9.4187 2.39819 10.5822 2.39819 10.9237 3.21949L12.1464 6.15908C12.2904 6.50531 12.616 6.74188 12.9898 6.77185L16.1633 7.02627C17.05 7.09735 17.4095 8.20386 16.734 8.78253L14.3161 10.8537C14.0313 11.0977 13.9069 11.4804 13.9939 11.8452L14.7326 14.942C14.939 15.8073 13.9978 16.4911 13.2387 16.0275L10.5217 14.3679C10.2017 14.1725 9.79919 14.1725 9.47917 14.3679L6.76218 16.0275C6.00308 16.4911 5.06183 15.8073 5.26822 14.942L6.00693 11.8452C6.09394 11.4804 5.96956 11.0977 5.68478 10.8537L3.26687 8.78253C2.59134 8.20386 2.95086 7.09735 3.83752 7.02627L7.01105 6.77185C7.38484 6.74188 7.71045 6.50531 7.85446 6.15908L9.07711 3.21948Z" fill="#7CB6FF"/>
</svg>
