<svg width="30" height="30" viewBox="0 0 30 30" fill="none" xmlns="http://www.w3.org/2000/svg">
<path d="M13.5 7H6.5C5.94772 7 5.5 7.44772 5.5 8V23C5.5 23.5523 5.94772 24 6.5 24H21.5C22.0523 24 22.5 23.5523 22.5 23V17" stroke="#91B1D9" stroke-width="2" stroke-miterlimit="10"/>
<path d="M10.9042 17.3831C10.7211 18.1155 11.3845 18.7789 12.1169 18.5958L14.2538 18.0615C14.4154 18.0212 14.5643 17.9411 14.687 17.8285L25.7301 7.70574C26.1498 7.32103 26.1641 6.66406 25.7615 6.26148L24.177 4.67703C23.7985 4.29845 23.1889 4.28521 22.7942 4.64698L11.7215 14.7969C11.577 14.9294 11.4747 15.1014 11.4271 15.2915L10.9042 17.3831Z" stroke="#91B1D9" stroke-width="2" stroke-miterlimit="10"/>
<path d="M20.8999 6.19922L23.8999 9.19922" stroke="#91B1D9" stroke-width="2" stroke-miterlimit="10"/>
</svg>
