<svg width="15" height="15" viewBox="0 0 15 15" fill="none" xmlns="http://www.w3.org/2000/svg">
<path fill-rule="evenodd" clip-rule="evenodd" d="M5.5 2C4.67157 2 4 2.67157 4 3.5V11.5C4 12.3284 4.67157 13 5.5 13H9.5C10.3284 13 11 12.3284 11 11.5V3.5C11 2.67157 10.3284 2 9.5 2H5.5ZM6.5 3C6.22386 3 6 3.22386 6 3.5C6 3.77614 6.22386 4 6.5 4H8.5C8.77614 4 9 3.77614 9 3.5C9 3.22386 8.77614 3 8.5 3H6.5ZM6 11C6 10.7239 6.22386 10.5 6.5 10.5H8.5C8.77614 10.5 9 10.7239 9 11C9 11.2761 8.77614 11.5 8.5 11.5H6.5C6.22386 11.5 6 11.2761 6 11Z" fill="#253751"/>
</svg>
