<svg width="31" height="31" viewBox="0 0 31 31" fill="none" xmlns="http://www.w3.org/2000/svg">
<g filter="url(#filter0_d)">
<rect x="8.1499" y="8.19922" width="14.7" height="12.6" fill="#253751"/>
<g filter="url(#filter1_d)">
<mask id="path-2-outside-1" maskUnits="userSpaceOnUse" x="4" y="3" width="23" height="23" fill="black">
<rect fill="white" x="4" y="3" width="23" height="23"/>
<path d="M26 14.5C26 20.299 21.299 25 15.5 25C9.70101 25 5 20.299 5 14.5C5 8.70101 9.70101 4 15.5 4C21.299 4 26 8.70101 26 14.5Z"/>
</mask>
<path d="M26 14.5C26 20.299 21.299 25 15.5 25C9.70101 25 5 20.299 5 14.5C5 8.70101 9.70101 4 15.5 4C21.299 4 26 8.70101 26 14.5Z" fill="#FFBA42"/>
<path d="M25 14.5C25 19.7467 20.7467 24 15.5 24V26C21.8513 26 27 20.8513 27 14.5H25ZM15.5 24C10.2533 24 6 19.7467 6 14.5H4C4 20.8513 9.14873 26 15.5 26V24ZM6 14.5C6 9.25329 10.2533 5 15.5 5V3C9.14873 3 4 8.14873 4 14.5H6ZM15.5 5C20.7467 5 25 9.25329 25 14.5H27C27 8.14873 21.8513 3 15.5 3V5Z" fill="white" mask="url(#path-2-outside-1)"/>
</g>
<path d="M15.5 10.3008V18.7008" stroke="#253751" stroke-width="2"/>
<path d="M11.2998 14.5H19.6998" stroke="#253751" stroke-width="2"/>
</g>
<defs>
<filter id="filter0_d" x="1" y="0" width="29" height="29" filterUnits="userSpaceOnUse" color-interpolation-filters="sRGB">
<feFlood flood-opacity="0" result="BackgroundImageFix"/>
<feColorMatrix in="SourceAlpha" type="matrix" values="0 0 0 0 0 0 0 0 0 0 0 0 0 0 0 0 0 0 127 0"/>
<feOffset/>
<feGaussianBlur stdDeviation="1.5"/>
<feColorMatrix type="matrix" values="0 0 0 0 0.780392 0 0 0 0 0.843137 0 0 0 0 0.921569 0 0 0 1 0"/>
<feBlend mode="normal" in2="BackgroundImageFix" result="effect1_dropShadow"/>
<feBlend mode="normal" in="SourceGraphic" in2="effect1_dropShadow" result="shape"/>
</filter>
<filter id="filter1_d" x="0" y="0" width="31" height="31" filterUnits="userSpaceOnUse" color-interpolation-filters="sRGB">
<feFlood flood-opacity="0" result="BackgroundImageFix"/>
<feColorMatrix in="SourceAlpha" type="matrix" values="0 0 0 0 0 0 0 0 0 0 0 0 0 0 0 0 0 0 127 0"/>
<feOffset dy="1"/>
<feGaussianBlur stdDeviation="2"/>
<feColorMatrix type="matrix" values="0 0 0 0 0 0 0 0 0 0 0 0 0 0 0 0 0 0 0.25 0"/>
<feBlend mode="normal" in2="BackgroundImageFix" result="effect1_dropShadow"/>
<feBlend mode="normal" in="SourceGraphic" in2="effect1_dropShadow" result="shape"/>
</filter>
</defs>
</svg>
