<svg width="30" height="31" viewBox="0 0 30 31" fill="none" xmlns="http://www.w3.org/2000/svg">
<g opacity="0.4">
<path d="M15 20C16.1046 20 17 19.1046 17 18C17 16.8954 16.1046 16 15 16C13.8954 16 13 16.8954 13 18C13 19.1046 13.8954 20 15 20Z" stroke="#111625" stroke-width="2" stroke-miterlimit="10"/>
<path d="M15 20V23" stroke="#111625" stroke-width="2" stroke-miterlimit="10"/>
<path d="M22 26H9C7.3 26 6 24.7 6 23V14C6 12.9 6.9 12 8 12H22C23.1 12 24 12.9 24 14V24C24 25.1 23.1 26 22 26Z" stroke="#111625" stroke-width="2" stroke-miterlimit="10"/>
<path d="M20 12H10V9C10 6.2 12.2 4 15 4C17.8 4 20 6.2 20 9V12Z" stroke="#111625" stroke-width="2" stroke-miterlimit="10"/>
</g>
</svg>
