<svg width="20" height="20" viewBox="0 0 20 20" fill="none" xmlns="http://www.w3.org/2000/svg">
<path d="M10.3333 5C7 5 4.15333 7.07333 3 10C4.15333 12.9267 7 15 10.3333 15C13.6667 15 16.5133 12.9267 17.6667 10C16.5133 7.07333 13.6667 5 10.3333 5ZM10.3333 13.3333C8.49333 13.3333 7 11.84 7 10C7 8.16 8.49333 6.66667 10.3333 6.66667C12.1733 6.66667 13.6667 8.16 13.6667 10C13.6667 11.84 12.1733 13.3333 10.3333 13.3333ZM10.3333 8C9.22667 8 8.33333 8.89333 8.33333 10C8.33333 11.1067 9.22667 12 10.3333 12C11.44 12 12.3333 11.1067 12.3333 10C12.3333 8.89333 11.44 8 10.3333 8Z" fill="#91B1D9"/>
</svg>
