<svg width="30" height="31" viewBox="0 0 30 31" fill="none" xmlns="http://www.w3.org/2000/svg">
<g opacity="0.4">
<g opacity="0.6">
<path d="M21.6 8H26V26H4V8H8.40002" stroke="#111625" stroke-width="2" stroke-miterlimit="10"/>
<path d="M17.3341 11.8481L17.577 11.4231L17.1573 11.1713C16.613 10.8447 15.7229 10.5 15 10.5C14.6298 10.5 14.2004 10.5898 13.822 10.7115C13.447 10.832 13.063 11.0027 12.8 11.2L12.4469 11.4648L12.6659 11.8481C12.8811 12.2247 13.2216 12.7212 13.5846 13.1749C13.9385 13.6173 14.3539 14.0702 14.7226 14.316L15 14.5009L15.2773 14.316C15.6461 14.0702 16.0615 13.6173 16.4154 13.1749C16.7784 12.7212 17.1189 12.2247 17.3341 11.8481ZM11.5 11.3C11.5 11.1436 11.5745 10.9534 11.7798 10.7331C11.9849 10.5131 12.29 10.2981 12.6638 10.1083C13.4162 9.72636 14.3392 9.5 15 9.5C15.6083 9.5 16.5321 9.72505 17.3014 10.1097C17.683 10.3005 17.9983 10.5168 18.2113 10.7385C18.4254 10.9615 18.5 11.1501 18.5 11.3C18.5 11.5 18.3917 11.867 18.1412 12.3542C17.9007 12.8222 17.5605 13.341 17.1725 13.8246C16.7836 14.3092 16.3589 14.743 15.9549 15.0506C15.5339 15.3712 15.2067 15.5 15 15.5C14.7933 15.5 14.4661 15.3712 14.0451 15.0506C13.6411 14.743 13.2164 14.3092 12.8275 13.8246C12.4395 13.341 12.0993 12.8222 11.8588 12.3542C11.6083 11.867 11.5 11.5 11.5 11.3Z" fill="#FF0606" stroke="#111625"/>
<path d="M10.3254 7.92037L9.5 7.21288V8.3V12.2V13.4071L10.3536 12.5536L12.4535 10.4535L12.8353 10.0718L12.4254 9.72037L10.3254 7.92037ZM8.5 5.08711L14.2647 10.0282L8.5 15.7929V5.08711Z" fill="#FF0606" stroke="#111625"/>
<path d="M19.6746 7.92037L20.5 7.21288V8.3V12.2V13.4071L19.6464 12.5536L17.5465 10.4535L17.1647 10.0718L17.5746 9.72037L19.6746 7.92037ZM21.5 5.08711L15.7353 10.0282L21.5 15.7929V5.08711Z" fill="#FF0606" stroke="#111625"/>
<path d="M8 4.5H22" stroke="#111625" stroke-width="2" stroke-miterlimit="10"/>
<path d="M11.5 25.5L14 15" stroke="#111625" stroke-width="2" stroke-miterlimit="10" stroke-linecap="round"/>
<path d="M18.7002 25.5L16.2002 15" stroke="#111625" stroke-width="2" stroke-miterlimit="10" stroke-linecap="round"/>
</g>
</g>
</svg>
