<svg width="16" height="15" viewBox="0 0 16 15" fill="none" xmlns="http://www.w3.org/2000/svg">
<path d="M7.07711 1.21948C7.4187 0.398192 8.58215 0.398193 8.92375 1.21949L10.1464 4.15908C10.2904 4.50531 10.616 4.74188 10.9898 4.77185L14.1633 5.02627C15.05 5.09735 15.4095 6.20386 14.734 6.78253L12.3161 8.85372C12.0313 9.09767 11.9069 9.48045 11.9939 9.8452L12.7326 12.942C12.939 13.8073 11.9978 14.4911 11.2387 14.0275L8.52168 12.3679C8.20167 12.1725 7.79919 12.1725 7.47917 12.3679L4.76218 14.0275C4.00308 14.4911 3.06183 13.8073 3.26822 12.942L4.00693 9.8452C4.09394 9.48045 3.96956 9.09767 3.68478 8.85372L1.26687 6.78253C0.591337 6.20386 0.950865 5.09735 1.83752 5.02627L5.01105 4.77185C5.38484 4.74188 5.71045 4.50531 5.85446 4.15908L7.07711 1.21948Z" stroke="#C7D7EB"/>
</svg>
