<svg width="30" height="31" viewBox="0 0 30 31" fill="none" xmlns="http://www.w3.org/2000/svg">
<path d="M10 12H20" stroke="#0172FF" stroke-width="2" stroke-miterlimit="10"/>
<path d="M10 16H17" stroke="#0172FF" stroke-width="2" stroke-miterlimit="10"/>
<path d="M22.2969 23.2569L23.1228 23.624L22.995 22.7293L22.6965 20.6397L22.6211 19.886L23.1536 19.3536C24.6354 17.8717 25.5 15.9486 25.5 14C25.5 9.22551 20.6663 5.5 15 5.5C9.33374 5.5 4.5 9.22551 4.5 14C4.5 18.7745 9.33374 22.5 15 22.5C16.1557 22.5 17.4011 22.2907 18.5316 21.9824L18.5316 21.9824L18.5374 21.9808L19.0664 21.8296L19.6 22.0583L22.2969 23.2569ZM19.1988 22.9412L19.0294 22.8678L18.853 22.9221C17.6002 23.3076 16.3498 23.5 15 23.5C8.58691 23.5 3.5 19.1424 3.5 14C3.5 8.85763 8.58691 4.5 15 4.5C21.4131 4.5 26.5 8.85763 26.5 14C26.5 16.2474 25.4678 18.4251 23.8464 20.0464L23.6697 20.2232L23.705 20.4707L24.3786 25.1858L19.1988 22.9412Z" stroke="#0172FF"/>
</svg>
