<svg width="24" height="22" viewBox="0 0 24 22" fill="none" xmlns="http://www.w3.org/2000/svg">
<path d="M10.6157 1.8302C11.1281 0.598264 12.8732 0.598266 13.3856 1.8302L15.2196 6.23959C15.4356 6.75895 15.924 7.1138 16.4847 7.15875L21.245 7.54038C22.575 7.64701 23.1143 9.30677 22.101 10.1748L18.4741 13.2816C18.0469 13.6475 17.8604 14.2216 17.9909 14.7688L19.099 19.414C19.4085 20.7119 17.9967 21.7377 16.858 21.0422L12.7825 18.5529C12.3025 18.2597 11.6988 18.2597 11.2188 18.5529L7.14327 21.0422C6.00463 21.7377 4.59275 20.7119 4.90233 19.414L6.01039 14.7688C6.1409 14.2216 5.95435 13.6475 5.52716 13.2816L1.90031 10.1748C0.887006 9.30677 1.4263 7.64701 2.75628 7.54038L7.51658 7.15875C8.07727 7.1138 8.56568 6.75895 8.78169 6.23959L10.6157 1.8302Z" fill="#91B1D9" stroke="#91B1D9"/>
</svg>
