<!DOCTYPE svg PUBLIC "-//W3C//DTD SVG 20010904//EN" "http://www.w3.org/TR/2001/REC-SVG-20010904/DTD/svg10.dtd">
<svg version="1.0" xmlns="http://www.w3.org/2000/svg" width="121px" height="179px" viewBox="0 0 1210 1790" preserveAspectRatio="xMidYMid meet">
<g id="layer101" fill="#589829" stroke="none">
 <path d="M522 1725 c-135 -143 -359 -525 -446 -758 -62 -165 -79 -254 -74 -392 5 -142 24 -205 94 -308 59 -85 128 -146 218 -191 98 -49 172 -66 291 -66 119 0 193 17 291 66 90 45 159 106 218 191 70 103 89 166 94 308 5 138 -12 227 -74 392 -116 312 -445 823 -529 823 -15 0 -43 -22 -83 -65z m168 -831 c105 -31 190 -149 190 -264 0 -147 -130 -280 -275 -280 -145 0 -275 133 -275 280 0 147 126 276 271 279 19 1 59 -6 89 -15z"/>
 </g>

</svg>