<svg xmlns="http://www.w3.org/2000/svg" width="239" height="54" viewBox="0 0 239 54">
    <g fill="none" fill-rule="nonzero">
        <path fill="#fff" d="M75.57 19.95h-7.29v15.86h-3.52V19.95h-7.28v-2.79h18.09v2.79zM218.29 33.49V33h-10a2 2 0 0 1-1.22-.23.92.92 0 0 1-.25-.73v-4.35h11.06v-2.8h-11.02v-3.76a1.16 1.16 0 0 1 .3-.91 1.38 1.38 0 0 1 1-.27h10.07v-.58a2.23 2.23 0 0 0-2.48-2.2h-9.49a2.9 2.9 0 0 0-2.24.72 2.82 2.82 0 0 0-.64 1.95V33a2.91 2.91 0 0 0 .7 2.18 3.08 3.08 0 0 0 2.14.59h10a2.2 2.2 0 0 0 2.13-2.32l-.06.04zM114.49 35.81h-4.16l-4.99-6.98-4.98 6.98H96.2l7.14-9.47-6.93-9.18h4.16l4.77 6.71 4.77-6.71h4.16l-6.93 9.18 7.15 9.47zM134.61 35.81h-3.52V27.6h-9.7v8.21h-3.52V17.16h3.52v7.64h9.7v-7.64h3.52v18.65zM157.37 26.48c0 3.66-.7 6.183-2.1 7.57a7 7 0 0 1-3.68 1.73 22.59 22.59 0 0 1-3.76.24 22.76 22.76 0 0 1-3.78-.24 7 7 0 0 1-3.68-1.78 7 7 0 0 1-1.87-3.76 21 21 0 0 1-.26-3.79 19.83 19.83 0 0 1 .32-4 6.65 6.65 0 0 1 1.84-3.55 7 7 0 0 1 3.6-1.72 30 30 0 0 1 7.54 0 6.89 6.89 0 0 1 3.68 1.73c1.407 1.373 2.107 3.897 2.1 7.57h.05zm-3.62 0c0-2.45-.39-4.18-1.17-5.17-.78-.99-2.42-1.57-4.77-1.57a11.56 11.56 0 0 0-2.54.21 4 4 0 0 0-2.21 1.36c-.8 1-1.2 2.72-1.2 5.17 0 2.45.4 4.11 1.2 5.14a3.88 3.88 0 0 0 2.15 1.38c.85.181 1.72.258 2.59.23 2.347 0 3.937-.53 4.77-1.59.833-1.06 1.223-2.773 1.17-5.14l.01-.02zM180.13 35.81h-21.67V33H160l6.29-14.1a3.58 3.58 0 0 1 1-1.38 3.86 3.86 0 0 1 3.89-.12 3.42 3.42 0 0 1 1.12 1.51L178.56 33h1.57V35.81zM175 33l-5.22-12.1c-.16-.39-.3-.59-.43-.59s-.29.2-.45.59L163.63 33H175zM199.66 23.17c0 2.533-.54 4.243-1.62 5.13a4.4 4.4 0 0 1-2.86.9h-8.74v6.61h-3.52V20a2.87 2.87 0 0 1 .68-2.12 2.79 2.79 0 0 1 2.07-.68h8.87a5.17 5.17 0 0 1 3.71 1.12c.94.907 1.41 2.54 1.41 4.9v-.05zm-3.62 0a3.7 3.7 0 0 0-.64-2.53 3 3 0 0 0-2.21-.67h-5.68a1.15 1.15 0 0 0-.83.24 1.26 1.26 0 0 0-.24.88v5.31h6.69a3 3 0 0 0 2.29-.69 4 4 0 0 0 .61-2.56l.01.02zM238.12 30.7a5.83 5.83 0 0 1-1.07 3.91 3.33 3.33 0 0 1-1.68 1 6.93 6.93 0 0 1-1.73.16h-8.93a8.7 8.7 0 0 1-1.33-.06 2 2 0 0 1-1.21-.69 2.75 2.75 0 0 1-.64-1.89V19.84a2.94 2.94 0 0 1 .62-2 2.41 2.41 0 0 1 1.95-.73h9.17a4.56 4.56 0 0 1 3.39 1.12 5.59 5.59 0 0 1 1.17 4 4.58 4.58 0 0 1-.88 3 2.49 2.49 0 0 1-1.75 1v.11a3 3 0 0 1 2.05 1 5 5 0 0 1 .88 3.33l-.01.03zm-3.92-8.26a2.7 2.7 0 0 0-.61-2 2.51 2.51 0 0 0-1.73-.48h-5.76a1.1 1.1 0 0 0-.83.24 1.21 1.21 0 0 0-.21.8v4h6.82a2.29 2.29 0 0 0 1.92-.67 3.23 3.23 0 0 0 .4-1.89zm.29 8a3.3 3.3 0 0 0-.4-1.89 2.11 2.11 0 0 0-1.89-.77h-7.14v3.84c-.043.39.04.782.24 1.12a1.61 1.61 0 0 0 1.12.26H232a2.58 2.58 0 0 0 2.05-.66 3 3 0 0 0 .48-1.89l-.04-.01zM93.44 33.49V33h-10a2 2 0 0 1-1.21-.23.92.92 0 0 1-.25-.73v-4.35h11.09v-2.8H82v-3.76a1.2 1.2 0 0 1 .29-.91 1.4 1.4 0 0 1 1-.27h10.05v-.58a2.23 2.23 0 0 0-2.48-2.2h-9.49a2.9 2.9 0 0 0-2.23.72 2.82 2.82 0 0 0-.64 1.95V33a2.91 2.91 0 0 0 .69 2.18 3.06 3.06 0 0 0 2.13.59h10a2.2 2.2 0 0 0 2.12-2.32v.04zM154.41 46.14a1.27 1.27 0 0 1 1 1.28c0 1-.73 1.5-1.78 1.5h-2.43v-5.35h2.19c1 0 1.76.44 1.76 1.45a1.14 1.14 0 0 1-.75 1.12h.01zm-2.53-2v1.78h1.38c.72 0 1.24-.23 1.24-.87s-.48-.91-1.14-.91h-1.48zm1.38 2.33h-1.38v1.89h1.62c.71 0 1.23-.29 1.24-.94.01-.65-.73-1-1.49-1l.01.05zM159.19 43.53a2.48 2.48 0 0 1 2.49 1.68H161a1.94 1.94 0 0 0-1.84-1.09 2.05 2.05 0 0 0-2.16 2.15 2.08 2.08 0 0 0 2.15 2.15 1.91 1.91 0 0 0 1.88-1.2h.65a2.47 2.47 0 0 1-2.49 1.78 2.74 2.74 0 1 1 0-5.47zM166.19 44.15h-2.58v1.75h2.49v.56h-2.49v1.89h2.67v.59h-3.35v-5.35h3.26v.56zM169.76 49.84h-.56v-1.45h.59l2.05-4.84h.29l2.14 4.84h.62v1.45h-.56v-.9h-4.58v.9h.01zm.72-1.45h3.11L172 44.62l-1.52 3.77zM175.94 48.94h-.65v-.07l2.42-5.3h.3l2.42 5.3v.07h-.64l-1.93-4.29-1.92 4.29zM182.56 46.91a1.62 1.62 0 0 1-1.35-1.61 1.75 1.75 0 0 1 1.91-1.72h2.24v5.35h-.67V47h-1.47l-1.52 1.93h-.7v-.1l1.59-1.93-.03.01zm2.13-.47v-2.3h-1.57a1.15 1.15 0 1 0 0 2.3h1.57zM189.12 49.84h-.57v-1.45h.61l2.05-4.84h.29l2.13 4.84h.64v1.45h-.56v-.9h-4.58v.9h-.01zm.72-1.45H193l-1.59-3.77-1.52 3.77h-.05zM198.49 44.15h-2.59v1.75h2.5v.56h-2.5v1.89h2.69v.59h-3.36v-5.35h3.26v.56zM199.91 48.93v-5.34h2.25a1.83 1.83 0 1 1 0 3.65h-1.58v1.7l-.67-.01zm2.25-2.27a1.26 1.26 0 1 0 0-2.52h-1.59v2.52h1.59zM208.51 44.15h-2.6v1.75h2.51v.56h-2.51v1.89h2.69v.59h-3.35v-5.35h3.26v.56zM213.13 46.14a1.27 1.27 0 0 1 1 1.28c0 1-.72 1.5-1.78 1.5h-2.43v-5.35h2.2c1 0 1.77.44 1.77 1.45.02.5-.288.954-.76 1.12zm-2.52-2v1.78H212c.71 0 1.23-.23 1.23-.87s-.49-.91-1.14-.91h-1.48zm1.39 2.33h-1.38v1.89h1.62c.71 0 1.23-.29 1.24-.94.01-.65-.74-1-1.48-1v.05zM216 47.62l-.65 1.32h-.7v-.08l2.61-5.3h.3l2.59 5.3v.08h-.69l-.66-1.32H216zm.22-.55h2.36l-1.18-2.5-1.18 2.5zM81.94 46.14a1.27 1.27 0 0 1 1 1.28c0 1-.73 1.5-1.78 1.5h-2.42v-5.35h2.19c1 0 1.76.44 1.76 1.45a1.15 1.15 0 0 1-.75 1.12zm-2.53-2v1.78h1.38c.71 0 1.23-.23 1.23-.87s-.48-.91-1.14-.91h-1.47zm1.38 2.33h-1.38v1.89H81c.71 0 1.23-.29 1.24-.94.01-.65-.73-1-1.48-1l.03.05zM86.71 43.53a2.48 2.48 0 0 1 2.49 1.68h-.65a1.92 1.92 0 0 0-1.84-1.09 2.05 2.05 0 0 0-2.16 2.15 2.08 2.08 0 0 0 2.15 2.15 1.91 1.91 0 0 0 1.88-1.2h.65A2.47 2.47 0 0 1 86.71 49a2.74 2.74 0 1 1 0-5.47zM93.71 44.15h-2.58v1.75h2.5v.56h-2.5v1.89h2.67v.59h-3.35v-5.35h3.26v.56zM97.56 48.95h-.22v-5.36h.67v2.51l-.07 1.53 3.65-4.05h.23v5.36h-.65v-2.57l.05-1.47-3.66 4.05zM103.18 44.82c0-1 .86-1.36 1.78-1.36a1.55 1.55 0 0 1 1.75 1.45 1.19 1.19 0 0 1-.81 1.09 1.43 1.43 0 0 1 1.1 1.46c0 1-.85 1.62-2 1.62a1.72 1.72 0 0 1-2-1.71h.6a1.2 1.2 0 0 0 1.4 1.15c.76 0 1.39-.36 1.39-1.1 0-.74-.66-1.09-1.39-1.09h-.38v-.53h.38c.57 0 1.15-.31 1.15-.88 0-.57-.6-.92-1.15-.92-.55 0-1.17.23-1.17.83l-.65-.01zM110.42 49.84h-.56v-1.45h.6l2.06-4.84h.28l2.14 4.84h.63v1.45H115v-.9h-4.59v.9h.01zm.73-1.45h3.11l-1.59-3.77-1.51 3.77h-.01zM119.8 44.15h-2.6v1.75h2.5v.56h-2.5v1.89h2.68v.59h-3.35v-5.35h3.27v.56zM121.21 48.93v-5.34h2.25a1.83 1.83 0 1 1 0 3.65h-1.58v1.7l-.67-.01zm2.25-2.27a1.26 1.26 0 0 0 1.32-1.26 1.24 1.24 0 0 0-1.32-1.26h-1.58v2.52h1.58zM129.81 44.15h-2.59v1.75h2.5v.56h-2.5v1.89h2.67v.59h-3.34v-5.35h3.26v.56zM134.42 46.14a1.27 1.27 0 0 1 1 1.28c0 1-.72 1.5-1.78 1.5h-2.43v-5.35h2.19c1 0 1.77.44 1.77 1.45.02.5-.288.954-.76 1.12h.01zm-2.53-2v1.78h1.38c.71 0 1.23-.23 1.23-.87s-.48-.91-1.14-.91h-1.47zm1.38 2.33h-1.37v1.89h1.62c.71 0 1.23-.29 1.24-.94.01-.65-.72-1-1.48-1l-.01.05zM137.29 47.62l-.65 1.32h-.7v-.08l2.62-5.3h.3l2.59 5.3v.08h-.69l-.66-1.32h-2.81zm.22-.55h2.35l-1.17-2.5-1.18 2.5z"/>
        <path fill="#5C2D0F" d="M18.49 29l.1.2.07.14a5.25 5.25 0 0 0 2 2.06l1.58.93v-1.84a5.39 5.39 0 0 0-.51-2.27L21.6 28l-.07-.13a5.24 5.24 0 0 0-2-2.05L18 24.89v1.83a5.38 5.38 0 0 0 .49 2.28z"/>
        <path fill="#5C2D0F" d="M13.52 29.34a5.35 5.35 0 0 0 .48 2.27c0 .07.06.14.1.21l.07.14a5.23 5.23 0 0 0 2 2.05l6 3.56V34l-3.06-1.8a5.24 5.24 0 0 1-2-2.05V30l-.1-.21a5.34 5.34 0 0 1-.5-2.27V24l-3-1.78v7.12h.01z"/>
        <path fill="#5C2D0F" d="M9 32a5.37 5.37 0 0 0 .51 2.27l.1.21.07.14a5.24 5.24 0 0 0 2 2.05L20.72 42l1.49.87v-3.6l-7.57-4.45a5.3 5.3 0 0 1-2-2.06l-.08-.14-.09-.2a5.4 5.4 0 0 1-.5-2.28v-8.82L9 19.53V32z"/>
        <path fill="#5C2D0F" d="M4.51 34.66A5.34 5.34 0 0 0 5 36.93l.1.2.07.14a5.18 5.18 0 0 0 2 2.05l9.07 5.34 6 3.52v-3.57l-3-1.77-9.06-5.34a5.19 5.19 0 0 1-2-2.05l-.08-.14-.1-.2a5.43 5.43 0 0 1-.5-2.27V18.63l-3-1.78v17.81h.01z"/>
        <path fill="#5C2D0F" d="M0 14.18v23.16a5.4 5.4 0 0 0 .51 2.28l.1.2.07.18a5.24 5.24 0 0 0 2 2.05l9.06 5.34L17.85 51l4.35 2.56v-3.61l-1.36-.8-6.14-3.62-9.07-5.34a5.18 5.18 0 0 1-2-2.05L3.6 38l-.1-.21a5.4 5.4 0 0 1-.5-2.27V17.61v-1.66L0 14.2v-.02z"/>
        <path fill="#B27736" d="M27.58 26.72v-1.83l-1.58.93a5.25 5.25 0 0 0-2 2.05V28c0 .07-.07.14-.09.21a5.39 5.39 0 0 0-.51 2.27v1.83l1.57-.93a5.25 5.25 0 0 0 2-2.06l.07-.14.1-.2a5.34 5.34 0 0 0 .51-2.27l-.07.01z"/>
        <path fill="#B27736" d="M32.05 29.34a5.36 5.36 0 0 1-.51 2.27l-.1.21-.07.14a5.24 5.24 0 0 1-2 2.05l-6 3.56V34l3.05-1.8a5.24 5.24 0 0 0 2-2.05l.08-.14.09-.21a5.31 5.31 0 0 0 .51-2.27V24l3-1.78v7.12h-.05z"/>
        <path fill="#B27736" d="M36.56 32a5.33 5.33 0 0 1-.51 2.27 2.17 2.17 0 0 1-.1.21l-.07.14a5.26 5.26 0 0 1-2 2.05L24.85 42l-1.48.87v-3.6l7.56-4.45a5.28 5.28 0 0 0 2-2.06l.08-.14.1-.2a5.4 5.4 0 0 0 .51-2.28v-8.82l3-1.78V32h-.06z"/>
        <path fill="#B27736" d="M41.06 34.66a5.3 5.3 0 0 1-.51 2.27c0 .07-.06.14-.1.2l-.07.14a5.22 5.22 0 0 1-2 2.05l-9.07 5.34-6 3.52v-3.57l3-1.77 9.07-5.34a5.21 5.21 0 0 0 2-2.05l.08-.14.1-.2c.33-.712.5-1.486.5-2.27V18.63l3-1.78v17.81z"/>
        <path fill="#B27736" d="M45.57 14.18v23.16a5.37 5.37 0 0 1-.51 2.28l-.09.2a.73.73 0 0 0-.07.13 5.28 5.28 0 0 1-2 2.05l-9.06 5.34L27.71 51l-4.34 2.56v-3.61l1.36-.8 6.15-3.62 9.07-5.34a5.2 5.2 0 0 0 2-2.05L42 38l.1-.21a5.35 5.35 0 0 0 .51-2.27V17.61v-1.66l2.94-1.76.02-.01z"/>
        <path fill="#8BA53C" d="M23.27 22.2h-.37a5.12 5.12 0 0 0-2.72.72l-1.57.94 1.56.9a5.13 5.13 0 0 0 2.19.68h.37a5.13 5.13 0 0 0 2.72-.72l1.55-.94-1.56-.91a5.13 5.13 0 0 0-2.19-.68l.02.01z"/>
        <path fill="#8BA53C" d="M25.43 17.63a5.07 5.07 0 0 0-2.18-.63h-.37a5.08 5.08 0 0 0-2.72.72l-6 3.59 3 1.77 3-1.81a5.15 5.15 0 0 1 2.72-.72h.37a5.08 5.08 0 0 1 2.19.67l3 1.74 3-1.76-6.07-3.53.06-.04z"/>
        <path fill="#8BA53C" d="M25.43 12.34a5 5 0 0 0-2.19-.68h-.37a5.16 5.16 0 0 0-2.73.72l-9 5.39-1.48.88 3 1.77 7.54-4.49a5.09 5.09 0 0 1 2.72-.72h.37a5.1 5.1 0 0 1 2.19.67L33 20.26l3-1.76-10.57-6.16z"/>
        <path fill="#8BA53C" d="M25.36 7a5.07 5.07 0 0 0-2.19-.68h-.37a5.15 5.15 0 0 0-2.72.68l-9 5.38L5.07 16l3 1.77 3-1.78 9-5.38a5.1 5.1 0 0 1 2.72-.72h.37a5.2 5.2 0 0 1 2.19.67l12.11 7 3-1.76L25.36 7z"/>
        <path fill="#8BA53C" d="M45 13.17L25.31 1.69A5.1 5.1 0 0 0 23.13 1h-.38a5.1 5.1 0 0 0-2.75.72L11 7.1l-6.14 3.65-4.34 2.58 3 1.77 1.35-.81 6.14-3.65 9-5.39a5.15 5.15 0 0 1 2.72-.72h.37a5.09 5.09 0 0 1 2.19.68l15.27 8.87 1.43.79L45 13.18v-.01z"/>
        <circle cx="145.48" cy="46.27" r="1" fill="#fff"/>
    </g>
</svg>
