<svg xmlns="http://www.w3.org/2000/svg" width="124" height="39" viewBox="0 0 124 39"><defs><linearGradient id="dyk8a" x1="26.35" x2="14.37" y1="34.11" y2=".08" gradientUnits="userSpaceOnUse"><stop offset="0" stop-color="#0172ff" stop-opacity=".8"/><stop offset="1" stop-color="#0172ff" stop-opacity="0"/></linearGradient></defs><g><g><g/><g><g><g><path fill="#253751" d="M59.265 31.426H45.16V11.28h4.032v16.114h10.073z"/></g><g><path fill="#253751" d="M81.414 21.44c0 .955-.127 1.878-.38 2.767-.243.881-.59 1.71-1.039 2.487a10.39 10.39 0 0 1-1.63 2.107 10.819 10.819 0 0 1-2.107 1.644c-.768.45-1.597.796-2.486 1.04-.89.253-1.813.379-2.768.379-.955 0-1.878-.126-2.768-.38a10.57 10.57 0 0 1-2.486-1.039 10.82 10.82 0 0 1-2.107-1.644 10.817 10.817 0 0 1-1.644-2.107c-.45-.777-.8-1.606-1.054-2.487a10.434 10.434 0 0 1-.365-2.767c0-.955.122-1.878.365-2.768.253-.89.604-1.718 1.054-2.486a10.822 10.822 0 0 1 1.644-2.107c.636-.637 1.339-1.18 2.107-1.63.777-.45 1.606-.796 2.486-1.04.89-.253 1.813-.379 2.768-.379.955 0 1.878.126 2.768.38a10.26 10.26 0 0 1 4.593 2.669 10.255 10.255 0 0 1 2.67 4.594c.253.89.379 1.812.379 2.767zm-4.004 0c0-.88-.168-1.71-.506-2.487a6.31 6.31 0 0 0-1.376-2.037 6.308 6.308 0 0 0-2.037-1.376 6.181 6.181 0 0 0-2.487-.506c-.89 0-1.723.168-2.5.506a6.518 6.518 0 0 0-2.038 1.376 6.31 6.31 0 0 0-1.376 2.037 6.182 6.182 0 0 0-.506 2.487c0 .88.168 1.71.506 2.486a6.522 6.522 0 0 0 3.414 3.4c.777.337 1.61.506 2.5.506.88 0 1.71-.168 2.487-.506a6.312 6.312 0 0 0 2.037-1.376 6.566 6.566 0 0 0 1.376-2.023 6.18 6.18 0 0 0 .506-2.487z"/></g><g><path fill="#253751" d="M101.151 29.361a10.265 10.265 0 0 1-3.146 1.855c-1.162.43-2.365.646-3.611.646-.955 0-1.878-.126-2.768-.38-.88-.243-1.709-.59-2.486-1.039a10.825 10.825 0 0 1-2.107-1.644 10.817 10.817 0 0 1-1.644-2.107c-.45-.777-.8-1.606-1.054-2.486a10.442 10.442 0 0 1-.365-2.768c0-.955.122-1.878.365-2.768.253-.89.604-1.718 1.054-2.486a10.636 10.636 0 0 1 1.644-2.121c.637-.637 1.339-1.18 2.107-1.63.777-.459 1.606-.81 2.486-1.054.89-.253 1.813-.379 2.768-.379a10.3 10.3 0 0 1 3.61.646 9.905 9.905 0 0 1 3.147 1.855l-2.135 3.512a5.954 5.954 0 0 0-2.093-1.461 6.333 6.333 0 0 0-2.529-.52c-.89 0-1.723.169-2.5.506a6.517 6.517 0 0 0-2.038 1.376 6.306 6.306 0 0 0-1.376 2.037 6.179 6.179 0 0 0-.506 2.487c0 .88.168 1.71.506 2.487a6.521 6.521 0 0 0 3.414 3.4c.777.337 1.61.505 2.5.505.88 0 1.723-.168 2.529-.506a6.115 6.115 0 0 0 2.093-1.475z"/></g><g><path fill="#253751" d="M108.298 23.376v-4.032c0-.553.103-1.073.309-1.56.215-.496.506-.927.871-1.292s.791-.65 1.278-.857a3.91 3.91 0 0 1 1.574-.323c.552 0 1.072.108 1.56.323.496.206.926.492 1.292.857.365.365.65.796.857 1.292.215.487.323 1.007.323 1.56v4.032zm12.096-4.032c0-1.115-.211-2.159-.633-3.133a8.115 8.115 0 0 0-1.728-2.57 8.12 8.12 0 0 0-2.57-1.729 7.804 7.804 0 0 0-3.133-.632c-1.115 0-2.164.21-3.147.632a8.16 8.16 0 0 0-2.557 1.728 8.24 8.24 0 0 0-1.714 2.571 7.805 7.805 0 0 0-.632 3.133v12.082h4.018v-4.032h8.064v4.032h4.032z"/></g></g><g><path fill="#67b2ca" d="M0 17.54C.306 9.47 6.916 3 14.815 3c2.664 0 5.18.735 7.359 2.02zm26.104-9.176a15.241 15.241 0 0 1 2.912 5.431L3.901 27.975a14.216 14.216 0 0 1-3.183-5.278zm3.511 10.656c-.344 5.826-4.03 10.277-8.868 12.498-4.576 2.074-5.633 4.926-5.932 6.482-.298-1.556-1.356-4.408-5.931-6.482-.254-.116-.505-.24-.752-.368z"/><path fill="url(#dyk8a)" d="M0 17.54C.306 9.47 6.916 3 14.815 3c2.664 0 5.18.735 7.359 2.02zm26.104-9.176a15.241 15.241 0 0 1 2.912 5.431L3.901 27.975a14.216 14.216 0 0 1-3.183-5.278zm3.511 10.656c-.344 5.826-4.03 10.277-8.868 12.498-4.576 2.074-5.633 4.926-5.932 6.482-.298-1.556-1.356-4.408-5.931-6.482-.254-.116-.505-.24-.752-.368z"/></g></g></g></g></svg>