<svg width="134" height="48" fill="none" xmlns="http://www.w3.org/2000/svg"><g clip-path="url(#clip0)"><path fill-rule="evenodd" clip-rule="evenodd" d="M55.36 16.89l-.38-.57 2.25.42s2.66-1 3.39-1.44c.73-.44 1.07-1.44 1.07-1.44l-4.65.59-.22-.29.63-.36 4.27-.52s.58-.37-.66-.81c-1.24-.44-4.19-.37-4.51-.22-.32.15-2.1 1.32-2.1 1.32l1.32 1.88-1.42-.09-1.37-2.06s9.57-6.83 20.17-9.56c1.73-.45 3.5-.78 5.25-.96 10.82-.36 25.72-1.56 37.78 6.01 0 0-34.11 3.82-45.6 7.71 9.44-1.87 43.35-6.32 57.15-6.52 2.98-.04 3.67.21 6.18-1.36C118.37 5.38 104.54-1 88.14.15c-13.93.96-14.61 1.74-14.61 1.74S57.27 6.76 45.38 13.67C32.31 16.2 1.37 15.69 0 34.42 3.53 21 27.29 18.9 31.16 36.17c13.75-11.69 63.92-19.6 80.57-19.6-17.01-2.59-65.23 5.57-79.79 14.83-3.34-6.93-10.14-9.85-16.26-9.25 0 0 1.66-.97 7.69-2.43 6.04-1.47 24.79-4.29 31.99-2.83z" fill="#FF0101"/></g><path d="M96.4 37.632l-1.408-3.848a8.453 8.453 0 01-.216-.608c-.075-.235-.15-.488-.224-.76-.07.272-.141.528-.216.768-.075.235-.147.44-.216.616l-1.4 3.832h3.68zM100.2 42h-1.664a.724.724 0 01-.456-.136.904.904 0 01-.264-.352l-.864-2.36H92.16l-.864 2.36a.767.767 0 01-.248.336.692.692 0 01-.456.152h-1.68l4.552-11.568h2.192L100.2 42zm5.572-1.736c.416 0 .787-.07 1.112-.208.331-.139.608-.333.832-.584.224-.25.395-.555.512-.912.123-.357.184-.757.184-1.2v-6.928h2.152v6.928c0 .688-.112 1.325-.336 1.912a4.304 4.304 0 01-.952 1.512c-.41.422-.912.752-1.504.992-.592.235-1.258.352-2 .352-.746 0-1.416-.117-2.008-.352a4.438 4.438 0 01-1.512-.992 4.482 4.482 0 01-.952-1.512 5.448 5.448 0 01-.328-1.912v-6.928h2.152v6.92c0 .443.059.843.176 1.2.123.358.296.664.52.92.23.25.507.445.832.584.331.139.704.208 1.12.208zm15.299-8.064h-3.488V42h-2.152v-9.8h-3.488v-1.768h9.128V32.2zm12.155 4.016c0 .848-.141 1.635-.424 2.36a5.485 5.485 0 01-1.184 1.872 5.446 5.446 0 01-1.848 1.24c-.72.293-1.52.44-2.4.44-.874 0-1.672-.147-2.392-.44a5.54 5.54 0 01-1.856-1.24 5.596 5.596 0 01-1.192-1.872 6.457 6.457 0 01-.424-2.36c0-.848.142-1.632.424-2.352a5.578 5.578 0 011.192-1.88 5.44 5.44 0 011.856-1.232c.72-.299 1.518-.448 2.392-.448.587 0 1.139.07 1.656.208a5.6 5.6 0 011.424.576c.432.245.819.547 1.16.904.347.352.64.747.88 1.184.24.438.422.912.544 1.424a6.64 6.64 0 01.192 1.616zm-2.2 0c0-.635-.085-1.203-.256-1.704a3.64 3.64 0 00-.728-1.288 3.1 3.1 0 00-1.152-.808 3.917 3.917 0 00-1.52-.28c-.565 0-1.074.093-1.528.28a3.2 3.2 0 00-1.152.808 3.67 3.67 0 00-.728 1.288 5.29 5.29 0 00-.256 1.704c0 .635.086 1.206.256 1.712.171.502.414.928.728 1.28.32.347.704.614 1.152.8.454.187.963.28 1.528.28.566 0 1.072-.093 1.52-.28a3.143 3.143 0 001.152-.8c.315-.352.558-.779.728-1.28a5.337 5.337 0 00.256-1.712z" fill="#FF0101"/><path d="M54.56 36.216c0 .848-.141 1.627-.424 2.336-.283.71-.68 1.32-1.192 1.832a5.333 5.333 0 01-1.848 1.192c-.72.283-1.52.424-2.4.424h-4.408V30.432h4.408c.88 0 1.68.144 2.4.432.72.283 1.336.68 1.848 1.192.512.507.91 1.115 1.192 1.824.283.71.424 1.488.424 2.336zm-2.208 0c0-.635-.085-1.203-.256-1.704a3.421 3.421 0 00-.728-1.28 3.11 3.11 0 00-1.152-.808 3.92 3.92 0 00-1.52-.28h-2.248v8.144h2.248a3.92 3.92 0 001.52-.28 3.154 3.154 0 001.152-.8c.32-.352.563-.779.728-1.28a5.36 5.36 0 00.256-1.712zm7.604-.28c.405 0 .757-.05 1.056-.152.304-.101.552-.24.744-.416.197-.181.344-.395.44-.64.096-.245.144-.514.144-.808 0-.587-.195-1.037-.584-1.352-.384-.314-.973-.472-1.768-.472h-1.376v3.84h1.344zM65.492 42h-1.944c-.368 0-.635-.144-.8-.432l-2.432-3.704a.84.84 0 00-.304-.296c-.107-.058-.267-.088-.48-.088h-.92V42H56.46V30.432h3.528c.784 0 1.456.083 2.016.248.565.16 1.027.387 1.384.68.363.294.63.645.8 1.056.17.406.256.854.256 1.344 0 .39-.059.758-.176 1.104a3.077 3.077 0 01-.496.944c-.213.283-.48.53-.8.744a3.952 3.952 0 01-1.08.504c.139.08.267.176.384.288.117.107.224.235.32.384L65.492 42zm5.811-1.736c.416 0 .787-.07 1.112-.208a2.28 2.28 0 00.832-.584 2.53 2.53 0 00.513-.912c.122-.357.183-.757.183-1.2v-6.928h2.153v6.928c0 .688-.112 1.325-.337 1.912a4.314 4.314 0 01-.951 1.512 4.35 4.35 0 01-1.505.992c-.591.235-1.258.352-2 .352-.746 0-1.415-.117-2.007-.352a4.438 4.438 0 01-1.513-.992 4.472 4.472 0 01-.951-1.512 5.432 5.432 0 01-.328-1.912v-6.928h2.151v6.92c0 .443.06.843.177 1.2.122.358.296.664.52.92.229.25.506.445.831.584.331.139.704.208 1.12.208zM88.058 36.2v4.68a6.195 6.195 0 01-1.88.952 7.41 7.41 0 01-2.127.296c-.945 0-1.8-.147-2.569-.44a5.79 5.79 0 01-1.96-1.224 5.389 5.389 0 01-1.248-1.872 6.278 6.278 0 01-.44-2.376c0-.87.142-1.666.424-2.392a5.425 5.425 0 011.2-1.872 5.414 5.414 0 011.897-1.216c.74-.288 1.573-.432 2.495-.432.47 0 .907.038 1.313.112.41.075.789.179 1.136.312.351.128.671.285.96.472.287.187.552.392.791.616l-.615.976a.604.604 0 01-.377.288c-.154.032-.322-.008-.504-.12l-.528-.304a3.367 3.367 0 00-.591-.264 4.666 4.666 0 00-.728-.184 5.29 5.29 0 00-.928-.072c-.571 0-1.088.096-1.552.288-.46.192-.851.467-1.177.824a3.713 3.713 0 00-.751 1.288 5.047 5.047 0 00-.265 1.68c0 .661.094 1.253.28 1.776.193.518.46.958.8 1.32.347.358.763.632 1.248.824a4.49 4.49 0 001.625.28c.426 0 .808-.045 1.144-.136.335-.09.663-.213.984-.368v-2.096h-1.456a.461.461 0 01-.329-.112.407.407 0 01-.111-.288V36.2h3.84z" fill="#fff"/><defs><clipPath id="clip0"><path fill="#fff" d="M0 0h133.91v36.17H0z"/></clipPath></defs></svg>