<svg xmlns="http://www.w3.org/2000/svg" xmlns:xlink="http://www.w3.org/1999/xlink" width="76" height="172" viewBox="0 0 76 172">
    <defs>
        <path id="prefix__a" d="M84.603 91.76l-.741-3.169-.379-1.216-.608-1.522-1.085-.745-.212-.421-.144-.648-.047-.9-.138-1.335.058-1.099.133-.656.468-.44.676-1.247.142-.908.058-1.396.311-1.223.346-.62-.087-.492-.238-.707-.505-1.005-.768-1.228-.569-1.178-.25-1.104-.128-.989.021-.902.213-.614.727-.775.097-.33-.288-1.718-.506-.314-.862-.166-.48-.015-.093-.188-.023-.347.097-.709.272-.813.227-.519.03-.44-.287-1.51-.086-1.86.098-1.46.913-1.082.041-.395-1.146-1.178-.827-1.338-.257-.784-.948-.118-.59-2.284-.852-1.117-.845-.966-.499-.451-2.927-1.393-1.163-.266-1.376-.816-1.025-1.026-.88-.661-.751-.817-1.049-.766-.3-.655-1.132-1.216-.532-.803-1.844-1.52-.067-.6-.013-.58-.083-.242L60 32.64l.374-.64 1.486-.038 1.229.583.27-.25.162-.517-.524-2.082.094-.544.54-.656.858-.523 1.354-.076.922.078.196.057 1.378 2.296 1.182 2.229.628.946 1.537 2.67.574 1.539.196 1.098.625-.007 2.16.48 1.816.405.506.613 1.25-.124.965-.552 1.703-.7.456-.86.567-.921.999.145 1.091.727 1.239.955 1.104.441 1.48.691.692.892.967.255 1.014-.892.598-2.426.531-1.087.752-.8.862-.353.658-.127.497-.623.707-1.387.139-1.685-.136-3.061.129-1.014.578-1.666.775-4.444.348-1.289.424-.786.583-.468 1.059-1.362 1.512-2.71.41-.23 1.086-.138 1.351.1 1.215.48.131-.037.544-.25.992-.845 1.697-1.686 1.086-.465.99.065 1.095 1.847 1.545 2.048.993.991 2.706 1.852 2.376 1.214 1.336 3.988-.658 1.578-.328.543-1.162 1.563-1.244 2.197-.095 1.141.413 1.148.514.757-.465.242-1.44.95-.879.641-1.058.47.275.62 1.758.131.27.177.196.319.033.509-.178.821-1.9 4.505-.06.943.624 2.613.87 3.06 2.631 1.354 1.956 1.054 1.256 2.485 2.07 3.256 1.098 1.21.062.375-.327 2.224-1.327 2.217-1.242 1.86-1.285 2.23-1.005 1.894-1.089 2.258-.125.729-.02.688.187.759 1.394 2.733.543 1.388.649 1.497.556 1.625.323 1.452.559 1.408.347.719.576 1.005.696 1.49.231 1.177 1.051 4.06.106 1.029-.052.76-.461.186-1.02.12-1.105.498-.056.167.721.947-.636 1.613-.092 2.299-.68 1.201-.064.28.03.232.121.182 1.26.32.108.325.006.672-.113.62-.632.46-.68.678-.15.623.024.556.231.938.447 1.09.568.683 2.017.646.26.534.111.73-.042.712-.937 1.42.008.546.384 1.317.461 1.254 1.968 1.354.677.74.18.59.099.947-.013 1.024-.155.908-.616 1.169-1.429 2.295-1.435.889-.088.192.445.73 2.529 2.916 1.648 1.359 2.226 1.826 1.434 1.438.464 1.032.622 1.144.698.933.503.808.19.52-.018.557-.673 1.678-.382 1.292-.674 1.888-.69 1.313-1.747 2.385-2.577 2.95-.599.89-1.206 1.544-2.065 3.083-.534.678-1.693 2.441-.77.774-.607.722-1.676 2.288-1.801 1.729-1.768 1.6-.53.81-.66.615-.788.586-.331.327-1.78 2.171-2.466 2.998-.251.047-.643.482-1.004.117-.437.369-1.535-1.05-.255-.07-.904.262-.866.764-1.6.233-.794.247-.506.352-.104-.834.219-1.06.352-.707.033-.461-.259.048-.512 1.038-.274 1.21-.548.607-1.205.248-1.175-.97-.557.01.35.695.237.762-.031.426-.626-.074-.697.455-.612.666-.296.001-.411-.93-.754.434-.644.584-1.308.182-.78.765-1.38.516-.759-.012-1.729.62-.574.955-.504.35-.717-.294-2.21.465-2.113.61-.9-.035-.898-.253-.953.846-1.012 1.13-1.113.403-.4-.144.32-.592.737-.614.507-.832.07-.696-.349-.273-.475-.084-.599-.72-.574-1.566-.31-.086-.158.412-.176 1.2-.18.346-.303.274-.365.276-.357.134-1.278-.016-.168-.605v-.253l.227-.797-.198-.14.189-.626.3.034.358-.093.179-.323-.014-.385-.496-.1-.031-.263.443-1.1.063-.305-.171-.063-.278.12-1.828-.345-2.256-1.412-.555-.073-.34-1.265-.545.16-.793.74-.595-.562-.639-.37-.177-.58.009-.857-.055-1.011-.175-1.188-.128-1.692.12-1.327.51-.985.196-.63.24-1.611.053-1.895-.135-.647.034-.43h.407l-.089-.371-.179-.202-.198-.422.17-.223.486-.016.04-.143.055-.2-.377-1.112-.044-.53-.523-1.613-.596-1.535-.898-1.114.319-1.84.362-1.668-.072-.807-.139-.983-1.099-1.08-.163-1.528-.269-1.645.102-1.012.179-.776.36-.774 1.824-2.451.112-1.285 1.235-.094-.573-1.152-.135-.648-.029-.758 1.778-.52.663.428 1.565-.528 1.388-1.033-.024-.55-.214-.493-.294-.951.209-.264.506.194-.232-.473.042-.5.553.208.902-1.397.033-1.07 1.56-.561 1.797-2.195.83-.686.802-.497 1.707-2.21.731-.102.376-1.497 1.452-1.998.442-.256.678-1.81 1.783-2.102 1.13-2.694.624-.96.193-1.026.694-.087.626-.755 1.356-.527 1.337.146.557.358.515-.113-.052-.926-.367-.573.3-.551.707-.418-.072-.925-.154-.557-.587-.744.292-1.67.07-1.838.279-2.132-.739-1.134-2.802-1.936-.523.067-.622-.243-.65-1.474.29-1.275.033-.47-.254.013-.41.623-.894.71-1.161-.545-.574.121zm-20.456 41.823l.075.29.408-.08.55-.529.389.248-.044.755-.265-.03-.073-.124-.339.431-.06.261-.393.166-.725-.737-.456-1.216 1.062-.003-.102.29-.027.278zm6.666 42.62l.882.329.37-.118.422.743-.715.473-.05.584.283.364.1.524h-.713l-.34-.442-.149-.562-.33-.397-.442-.303.216-.403.123-.58.343-.212zm-5.043-2.257l-.097.662-.473-.073-.48.12-.389-.657-.207-1.111.07-.24.303-.252.231.61 1.042.941zm23.657-68.472l-1.04.55-.837-.343-.014-1.068.52-.517.938-.207 1.285.517.188.276-.737.207-.303.585z"/>
    </defs>
    <g fill="none" fill-rule="evenodd" transform="translate(-60 -12)">
        <use fill="#00B3F0" fill-opacity=".4" xlink:href="#prefix__a"/>
    </g>
</svg>
