<svg xmlns="http://www.w3.org/2000/svg" xmlns:xlink="http://www.w3.org/1999/xlink" width="75" height="172" viewBox="0 0 75 172">
    <defs>
        <path id="prefix__a" d="M115.623 12l1.574.915.07.198.01.476.056.493 1.527 1.245.44.658.938.997.248.537.869.627.623.67.728.541.849.842 1.14.668.963.218 2.424 1.142.413.37.7.792.706.915.488 1.871.785.097.212.643.685 1.097.95.965-.034.324-.757.887-.08 1.197.07 1.524.238 1.238-.024.36-.188.426-.225.666-.081.581.02.284.076.155.398.011.713.137.42.257.238 1.409-.08.27-.602.635-.176.503-.018.74.107.81.207.905.47.965.637 1.007.418.824.198.579.072.404-.287.508-.258 1.002-.048 1.144-.117.744-.56 1.022-.388.361-.11.538-.047.9.113 1.094.04.738.119.531.175.346.899.61.503 1.247.314.997.614 2.598-1.528.323-1.148-.65-.573.326-1.002.013-1.138.256-.383.507-.301.204-1.056-.716-.996-1.185-.728.904-.471.17-.424-.817-.37-.133-.2.273-.175.722-.28.568-.072.358-.048 1.444-.073.333-.967-.186.058.378.21.19.085.24-.35.314-.961-.03-.098.333.27.526-.21.46-.196.181-1.147.285-.664-.065-.19.297-.053.386.126.378.292.2.097.24-.02.52-.244.093-.693-.911-.21.047.158.474.395.516.229.527.2.632-.039.479-.86 1.541-.756.97-.564.873-.333.922.386.463.428.669.301 1.28.36 1.14.725 1.084-.146.625-.169.486-1.207 1.067-1.368 1.602-1.475 4.069-.49.541-1.292.684-.475.66-.961.784-1.679.672-.761.934-.344.964-.382.068-.379-.376-.506-.28-.066.628.022.46-.81-.683-.381.627-.299 1.044-1.164 1.401-1.256-.251-.14.246.333.18.051.222-.228.12-.345-.013-.533.276-.35-.022-.167.66-.27.798-.71.33-.365.068-.181.453 1.09.095-.087.383-.024.382-.113.41-1.24.59-.191.463-.26.287-.55-.016.02-.268.09-.303-.822.027-.256-.666-.156.172.092.537.215.558.24.817-.195.515-.217.255.158.236.439.18.177.32-.52.276-.65.944-.672.023-.412.621-.437-.001-.355-.392-.57-.322-.183.568-.03.45.321 1.137.613.879.568.378-.408.255-.305.567-.366 1.763-.2.692-.216 1.217.137 1.025.11.503.277.681-.754-.087-.797-.399.11.826-.489.975.091.857.103.557-.152.92.23.289.125.546-.206.403.092.347.035 1.225.156 1.907-.057.403.438 1.649-.102.576-.06.733.629.703.56-.011.568-.01.217.175.217.497.175.585.467-.048.747-.477.485-.113.32.915.872 1.206.508.54.862.283.909.968-.128 1.164.38.388 1.071.458.379.617.182.525.282.435.33 1.31-.115.806-.432.276-1.02.86-.454.642-.357.399-1.013.854-.37.152-.356.443-.344.194-.307-.111-1.15.8.09.342.881.145.45-.172.345-.402.378-.093.345.077.365-.318.287-.126.296.152.33.76-.685.395-.487.018-.237 1.241-.295.533-.211.255-1.08.526-.712.666-.84.536-.367-.116-.552.543-1.228.642-.629.865-1.412.77-.719.627-1.954.033-1.865-.138-.586.298.599.092.42.292.502-.122 1.182.146.608.159.781 1.02-.574.361-.994.278.373 1.44.307.967-.402.582-.03 2.639-.565.05-.24 1.086.178.553-.014 1.281.118.787.277.724-.124.752-.893 1.757.02.821.161.487.119.777-.406 1.49-.287 1.241-.34 1.042-.763 1.245-.38.93-.888 2.883-.44.57-.54.437-.603-.405-.551-.22-.675.026-1.055.332-1.589-.22-1.552.106-.392.286.235 1.04-.572.135-.56-.295-.492.352-.41.386-.808.915-.27.561-.07 1.057.424.944.376 1.104-.969 1.327-.54.045-1.578-.367-2.797.83-2.512-.657.316-.71-.011-.523.142-.807.084-.826-.023-.554-.184-.591-.62-.775-1.396-2.626-.412-1.114-.287-.465.206-.025 1.15.599.268-.074.281-.225-.343-.858-.294-.39-.2-.583.673-.157.486.035.358-.657-.207-1.065-.522-.328-.436-.143-.835-1.68-.872-.872-1.555-3.386-.569-2.34-.529.222-.256-1.024-.185-.971-.036-.717-.83-.41-.033-.504-.15-2.253-.889-.304-.575-1.271-.102-2.417-.586-.442-.471.122.022-.602.112-.566-.275-2.25-.092-2.065-.223-.626-.108-.623v-.218l.095-.528.166-.366.574-.096.536.562.476 1.415.42.184.572-.368.4-1.031.23-1.553.266-1.485-.316-1.595-.337-1.407-.024-.414.886-1.192.27-.972.294-.928.323-.316.483-.073.561-.174.708-.624.635-.836.485-.768.164-1.526.007-.768.213-.572.207-1.12-.201-1.106-.626-1.686-.753-2.383-.118-1.308.343-.243.657-.217 1.242-.063.133-.155.126-.575.28-.782.299-.57.204-.818.098-.742-.71-1.121-.931-1.151-.63-.382-1.123-.973-.789-.815.452-3.118.336-2.338.054-.57.012-.886-1.09-3.803.043-.851.104-.768-.117-1.313-.063-1.18.186-.357.445-.668-.458-1.122-.8-2.58 1.223-2.572-.213-1.338.732-.973 1.33-2.24.749-1.265.159-.222.592-.558 1.124-.662 1.245-.324.554.005 2.14.448 1.672.35.243-.35.349-.72.45-1.028.039-1.147-.162-1.69-.244-1.015-1.177-.661-1.288-.909L77 74.325l1.098-2.02 1.369-3.063.426-1.281.308-.51.402-4.775.267-1.348.224-.705.003-.726-.145-1.228-.385-2.787 2.161-.347.704-.196.653-.335 1.278-.87.628-.77-.35-2.639.773-.898 1.886-3.144 2.04-3.037.955-1.156.1-.567.078-.912-.425-1.438-.456-.894-.889-1.7.382-1.189.654-.232.865-.468.675-1.023.066-.132 1.142-4.05 2.232-2.07.888-1.134 1.385.853 2.03 1.282.903-1.889.298-.703.298-1.038-.12-1.803-.05-2.356.089-.951.81-.424.436-.11 2.256.979.568-.017 1.063.132 1.19.429 2.493 1.14 1.03.47.576.092.497-.53 1.062-1.363-1.564-1.012 1.03-1.027.534-1.04.458-1.28.165-1.505-.064-.812-.315-.554-.956-1.388 2.165-.199.75-.057zM94.881 163.288l.368.136.164.133-.388.418.045.543-.027.226-.98 2.355-.261 1.521-.348.37-1.439 5.362-.296.52-.262-.037-.176-.694-.04-1.792.104-.889 1.258-3.22.561-.265.79-1.99.213-.887.342-.802.202-.717.17-.291zm10.814-6.118l.322.167.692.692-.477.257-.28.76-.386.127-.371.253-.132 2.39.674.905-.37.126-.34.27-.242.4-.247.859-.931.485-.353.36-.52.797-.27 1.154-.527.492-.592.116.348-.944.454-.771-.437-.53-.263-.83-.34-.639.27-.714-.132-1.173.044-1.149.394-.58.451-.476.704-1.093.763-.794 1.063-.358.48.33.208-.724.343-.165zm1.351-.713l.844.042.29.158-1.01.436-.104.674-.299-.051-.272-.498.551-.76z"/>
    </defs>
    <g fill="none" fill-rule="evenodd" transform="translate(-61 -12)">
        <use fill="#00B3F0" fill-opacity=".4" xlink:href="#prefix__a"/>
    </g>
</svg>
