<svg xmlns="http://www.w3.org/2000/svg" viewBox="0 0 1200 106.23" width="1200" height="107"><title>footer</title><g id="Слой_2" data-name="Слой 2"><g id="Layer_1" data-name="Layer 1"><polygon points="882.54 7.35 873.98 7.35 873.98 4.52 868.82 4.52 868.82 0 863.95 0 863.95 43.79 835.29 43.79 835.29 48.64 840.15 48.64 840.15 81.67 844.66 81.67 844.66 67.59 873.98 67.59 873.98 81.67 878.75 81.67 878.75 14.38 882.54 14.38 882.54 7.35"/><rect x="821.45" y="0.09" width="2.28" height="16.74"/><rect x="823.73" y="3.87" width="2.28" height="14.14"/><rect x="826.02" y="8.04" width="6.05" height="2.9"/><rect x="822.63" y="9.66" width="7.12" height="2.9"/><rect x="819.97" y="12.03" width="7.12" height="2.9"/><rect x="825.19" y="14.44" width="2.9" height="2.9"/><rect x="825.19" y="16.83" width="3.92" height="2.9"/><rect x="821.29" y="0.09" width="2.28" height="16.74" transform="translate(1644.87 16.92) rotate(-180)"/><rect x="819.01" y="3.87" width="2.28" height="14.14" transform="translate(1640.3 21.89) rotate(-180)"/><rect x="813.26" y="8.04" width="5.75" height="2.9" transform="translate(1632.27 18.99) rotate(-180)"/><rect x="815.27" y="9.66" width="7.12" height="2.9" transform="translate(1637.66 22.23) rotate(-180)"/><rect x="817.93" y="12.03" width="7.12" height="2.9" transform="translate(1642.98 26.97) rotate(-180)"/><rect x="816.93" y="14.44" width="2.9" height="2.9" transform="translate(1636.77 31.79) rotate(-180)"/><rect x="815.91" y="16.83" width="3.92" height="2.9" transform="translate(1635.75 36.57) rotate(-180)"/><rect x="771.83" y="39.47" width="1.57" height="11.49"/><rect x="773.4" y="42.07" width="1.57" height="9.71"/><rect x="774.97" y="44.93" width="4.15" height="1.99"/><rect x="772.65" y="46.04" width="4.89" height="1.99"/><rect x="770.82" y="47.67" width="4.89" height="1.99"/><rect x="774.4" y="49.32" width="1.99" height="1.99"/><rect x="774.4" y="50.96" width="2.69" height="1.99"/><rect x="771.73" y="39.47" width="1.57" height="11.49" transform="translate(1545.03 90.44) rotate(-180)"/><rect x="770.16" y="42.07" width="1.57" height="9.71" transform="translate(1541.89 93.85) rotate(-180)"/><rect x="766.22" y="44.93" width="3.94" height="1.99" transform="translate(1536.38 91.86) rotate(-180)"/><rect x="767.59" y="46.04" width="4.89" height="1.99" transform="translate(1540.08 94.08) rotate(-180)"/><rect x="769.42" y="47.67" width="4.89" height="1.99" transform="translate(1543.73 97.33) rotate(-180)"/><rect x="768.73" y="49.32" width="1.99" height="1.99" transform="translate(1539.46 100.64) rotate(-180)"/><rect x="768.04" y="50.96" width="2.69" height="1.99" transform="translate(1538.76 103.92) rotate(-180)"/><rect x="746.39" y="21.17" width="2" height="6.83"/><rect x="746.39" y="21.17" width="2" height="6.83" transform="translate(771.97 -722.81) rotate(90)"/><rect x="296.7" y="22.76" width="2" height="6.83"/><rect x="296.7" y="22.76" width="2" height="6.83" transform="translate(323.87 -271.52) rotate(90)"/><rect x="698.39" y="37.62" width="2" height="6.83"/><rect x="698.39" y="37.62" width="2" height="6.83" transform="translate(740.43 -658.34) rotate(90)"/><rect x="369.11" y="39.68" width="2" height="6.83"/><rect x="369.11" y="39.68" width="2" height="6.83" transform="translate(413.21 -327.02) rotate(90)"/><rect x="653.17" y="24.58" width="2" height="2"/><rect x="575.03" y="38.43" width="2" height="2"/><rect x="127.03" y="31.1" width="2" height="2"/><rect x="235.36" y="43.43" width="2" height="2"/><rect x="606.04" y="15.83" width="2" height="2"/><rect x="453.7" y="12.43" width="2" height="2"/><rect y="81.67" width="1200" height="24.57"/><path d="M932,31.69a23.84,23.84,0,0,1-20.8,24.17l0-.18a25.13,25.13,0,0,0,8.08-2.85,24.5,24.5,0,0,0,6.63-5.39,25,25,0,0,0,4.41-7.33A25.67,25.67,0,0,0,932,31.69Z"/><polygon points="907.68 56.02 912.46 53.56 911.47 55.69 912.82 57.61 907.68 56.02"/><polygon points="17.36 73.76 32.86 73.76 32.86 60.26 54.86 60.26 54.86 68.26 68.36 68.26 68.36 78.26 91.86 78.26 91.86 72.26 110.36 72.26 110.36 65.76 120.86 65.76 120.86 73.26 137.86 73.26 137.86 78.26 171.36 78.26 171.36 72.76 192.86 72.76 192.86 78.26 228.86 78.26 228.86 86.76 263.86 86.76 263.86 59.26 275.36 59.26 275.36 51.76 286.36 51.76 286.36 58.26 301.86 58.26 301.86 64.26 318.86 64.26 318.86 73.76 337.86 73.76 337.86 87.26 382.36 87.26 382.36 75.76 399.86 75.76 399.86 62.76 427.36 62.76 427.36 74.76 453.86 74.76 453.86 84.26 518.86 84.26 518.86 73.26 541.36 73.26 541.36 48.26 554.36 48.26 554.36 64.26 576.36 64.26 576.36 50.76 595.36 50.76 595.36 59.26 607.86 59.26 607.86 37.76 636.86 37.76 636.86 55.76 657.86 55.76 657.86 64.26 675.36 64.26 675.36 74.76 723.86 74.76 723.86 85.76 749.86 85.76 749.86 74.76 772.36 74.76 772.36 84.26 789.36 84.26 789.36 68.76 806.36 68.76 806.36 82.26 806.36 94.26 946.86 94.26 946.86 77.26 973.36 77.26 973.36 67.76 993.36 67.76 993.36 58.26 1016.36 58.26 1016.36 66.76 1049.36 66.76 1049.36 77.26 1070.36 77.26 1070.36 85.26 1099.86 85.26 1099.86 74.76 1129.86 74.76 1129.86 64.76 1158.86 64.76 1158.86 73.76 1168.36 73.76 1168.36 86.26 1168.36 96.76 1168.36 103.26 17.36 103.26 17.36 73.76"/></g></g></svg>