<svg xmlns="http://www.w3.org/2000/svg" xmlns:xlink="http://www.w3.org/1999/xlink" viewBox="0 0 351.38 487.47" width="334" height="488"><defs><style>.cls-1{fill:none;clip-rule:evenodd;}.cls-2{fill:#fff;}.cls-3{fill:#e90089;}.cls-4{fill:#f4901e;}.cls-5{fill:#00a49a;}.cls-6{fill:#4b4989;}.cls-7{fill:#25a7de;}.cls-8{fill:#89c33f;}.cls-9{clip-path:url(#clip-path);}.cls-10{fill:#5b1637;fill-rule:evenodd;}</style><clipPath id="clip-path"><path class="cls-1" d="M87.09,49.43l4.62-4.2,48.76,21.44,44,70.88,75.66-18.07,51.28,48.34-21,15.55-29.84-16.81,20.84,43.58-20.84,10.21-32-24.38-35.3,30.27L191.6,264.9l-16.81,3-6.3-45L152.1,261.12l-14.3-2.94,9.67-63.47L105.16,107l-24.38,4.21L76.16,88.11,107.68,70Zm34,36.08a7.43,7.43,0,1,1-7.43-7.42A7.43,7.43,0,0,1,121.11,85.51Z"/></clipPath></defs><title>Ресурс 1</title><g id="Слой_2" data-name="Слой 2"><g id="Layer_1" data-name="Layer 1"><rect class="cls-2" x="103.27" y="75.16" width="20.47" height="20.47"/><polygon class="cls-3" points="46.56 93.25 15.12 87.94 19.72 74.81 48.57 88.74 46.56 93.25"/><polygon class="cls-4" points="231.86 36.73 227.28 34.65 241.42 0 256.52 7.05 231.86 36.73"/><polygon class="cls-5" points="272.18 72.23 269.49 68.15 318.38 32.8 326.55 46.42 272.18 72.23"/><polygon class="cls-6" points="340.78 127.2 299.19 123.37 299.09 118.52 340.95 115.82 340.78 127.2"/><polygon class="cls-7" points="22.2 178.93 18.32 163.69 64.08 154.13 65.61 159.98 22.2 178.93"/><polygon class="cls-8" points="69.03 239.44 58.84 229.39 89.39 206.32 93.33 209.64 69.03 239.44"/><g class="cls-9"><polygon class="cls-4" points="52.72 78.14 291.79 64.06 294.02 109.17 34.72 128.14 52.72 78.14"/><polygon class="cls-7" points="105.16 107.02 172.25 81.47 194.25 124.81 110.72 152.14 105.16 107.02"/><polygon class="cls-4" points="106.72 149.47 198.25 132.81 276.54 116.62 333.3 153.73 296.92 187.21 277.27 185.75 114.05 199.47 106.72 149.47"/><polygon class="cls-5" points="147.47 194.72 260.82 166.84 287.45 225.78 193.28 226.24 147.47 194.72"/><polygon class="cls-8" points="121.53 214.14 147.47 194.72 193.28 226.24 203.04 268.72 124.44 262.17 121.53 214.14"/><polygon class="cls-3" points="0 19.1 245.97 54.76 195.03 72.95 2.91 95.52 0 19.1"/><path class="cls-3" d="M121.38,238.14c7.27,1.81.66.25,106,22L200.72,272.8l-86-3.33Z"/><polygon class="cls-3" points="259.91 116.81 260.75 166.81 228.58 195.97 275.38 245.47 351.38 210.81 338.72 150.81 259.91 116.81"/><polygon class="cls-8" points="191.25 127.2 147.47 194.72 107.26 126.82 182.26 122.53 191.25 127.2"/><polygon class="cls-6" points="260.75 166.81 184.45 137.56 260.11 119.48 260.75 166.81"/></g><polygon class="cls-10" points="37.39 381.19 39.1 291.27 56.43 291.27 71.2 362.25 74.03 362.25 92.75 288.27 110.58 288.27 114.55 380.9 99.38 380.9 95.41 321.15 94.3 320.79 80.2 378.31 63.36 378.31 48.93 323.47 46.93 323.81 45.56 381.19 37.39 381.19"/><polygon class="cls-10" points="187.48 480.75 188.9 401.66 207.65 401.66 220.72 461.25 223.55 461.25 240.57 396.68 258.4 396.68 259.82 485.29 244.65 485.29 243.24 425.53 242.12 425.53 228.3 479.57 214.3 479.57 202.42 422.47 201.57 422.47 200.15 480.75 187.48 480.75"/><path class="cls-10" d="M129.14,293.31h23.67L166.13,384H149.26l-3.51-22.83-14.5-.33-3.12,19.66h-10.4Zm17.29,57.16-6.59-48.36h-1.65l-6.26,48Z"/><path class="cls-10" d="M274.92,396.81h24.24l13.21,90.66H298.62l-4.25-22.83-13.65-.33-2.24,18.13H264.1Zm20,57.16-6.63-46.5H285.2l-5.93,46.17Z"/><path class="cls-10" d="M145.5,396.81h24.8l12.29,90.66h-14L165,464.36l-20.16-.05-2.66,17h-11Zm16.94,56.88-6-49.22h-2.83L146,453.64Z"/><path class="cls-10" d="M169.08,380.31v-94a93.93,93.93,0,0,1,18.45-2c18.49,0,24.77,13.12,24.77,27.78,0,16.68-15.92,30.05-15.92,30.05l11,23.83h23.84v14.17H201.05l-18.5-40.67h-2.83v40.84ZM193,330.64V297.8H180.22v32.84Z"/><polygon class="cls-10" points="219.72 359.31 230.84 359.31 230.84 319.97 232.2 319.97 246.53 380.47 261.53 380.47 274.7 321.31 275.87 321.31 275.87 377.81 292.68 377.81 292.68 293.64 270.9 293.64 256.2 358.81 253.53 358.81 240.53 297.9 219.72 297.9 219.72 359.31"/><polygon class="cls-10" points="300.14 292.32 300.14 378.97 345.35 378.97 345.35 367.64 314.52 367.64 314.52 350.47 342.3 350.47 342.3 341.64 311.79 341.64 311.79 311.65 348.19 311.65 348.19 292.32 300.14 292.32"/><polygon class="cls-10" points="76.67 393.47 76.67 481.31 123.25 481.31 123.25 461.95 86 461.95 86 393.47 76.67 393.47"/><polygon class="cls-10" points="96.06 396.02 96.06 454.52 126.08 454.52 126.08 438.24 105.58 438.24 105.75 396.02 96.06 396.02"/></g></g></svg>