<svg xmlns="http://www.w3.org/2000/svg" viewBox="0 0 272.78 353.98" width="273" height="354"><defs><style>.cls-1{fill:#f4901e;}.cls-2{fill:#00a49a;}.cls-3{fill:#4b4989;}.cls-4{fill:#e90089;}.cls-5{fill:#25a7de;}.cls-6{fill:#89c33f;}</style></defs><title>stock</title><g id="Слой_2" data-name="Слой 2"><g id="Layer_1" data-name="Layer 1"><polygon class="cls-1" points="135.84 40.11 130.81 40.16 128.99 2.78 145.66 2.79 135.84 40.11"/><polygon class="cls-2" points="187.39 55.26 183.22 52.69 212.61 0 225.76 8.89 187.39 55.26"/><polygon class="cls-3" points="272.78 76.1 233.47 90.19 231.32 85.84 268.13 65.71 272.78 76.1"/><polygon class="cls-4" points="31.71 271.48 6.63 291.16 0 278.93 29.72 266.95 31.71 271.48"/><polygon class="cls-5" points="78.7 347.14 64.83 339.76 88.53 299.48 93.89 302.28 78.7 347.14"/><polygon class="cls-6" points="154.98 353.2 140.69 353.98 144.18 315.86 149.28 315.18 154.98 353.2"/></g></g></svg>