<svg xmlns="http://www.w3.org/2000/svg" fill="none" viewBox="0 0 32 32"><path fill="#E62F4D" fill-rule="evenodd" d="M23.326 3.975a2.433 2.433 0 0 0-3.36-.745c-.632.403-1.61 1.411-2.309 2.526-.345.55-.587 1.072-.695 1.508-.044.179-.061.321-.061.434v.007c0 .165.037.264.071.318.058.091.23.24.684.33.44.086 1.016.087 1.66.007 1.306-.162 2.633-.622 3.265-1.025a2.433 2.433 0 0 0 .745-3.36ZM15.1 7.698v.007a.597.597 0 0 1-.071.318c-.058.091-.23.24-.684.33-.44.086-1.016.087-1.66.007-1.306-.162-2.633-.622-3.265-1.025a2.433 2.433 0 0 1 2.615-4.105c.632.403 1.61 1.411 2.309 2.526.345.55.587 1.072.695 1.508.044.179.06.321.061.434Zm.9-2.684.131-.215c.795-1.267 1.946-2.5 2.867-3.087a4.233 4.233 0 1 1 4.549 7.141c-.541.345-1.32.668-2.17.913h7.956a.9.9 0 0 1 .9.9v5.333a.9.9 0 0 1-.9.9h-.433V27a1.9 1.9 0 0 1-1.9 1.9H5A1.9 1.9 0 0 1 3.1 27V16.9h-.433a.9.9 0 0 1-.9-.9v-5.333a.9.9 0 0 1 .9-.9h7.957c-.852-.245-1.63-.568-2.171-.913a4.233 4.233 0 0 1 4.549-7.14c.92.586 2.072 1.819 2.867 3.086.044.071.088.143.13.215Zm-.297 4.752c.102-.057.202-.12.297-.19.095.07.194.133.297.19h-.594ZM4.901 16.899V27a.1.1 0 0 0 .1.1h10.1V16.9H4.9Zm10.2-1.8H3.568v-3.533H15.1v3.533Zm1.8 1.8v10.2H27a.1.1 0 0 0 .1-.1V16.9H16.9Zm11.533-1.8H16.901v-3.533h11.533v3.533Z" clip-rule="evenodd"/></svg>