<svg xmlns="http://www.w3.org/2000/svg" fill="none" viewBox="0 0 32 32"><g filter="url(#a)"><path fill="#E62F4D" fill-rule="evenodd" d="M0 16c0 8.837 7.163 16 16 16s16-7.163 16-16S24.837 0 16 0 0 7.163 0 16Zm13.066 7.333.273-4.078 7.419-6.696c.325-.289-.071-.43-.504-.168l-9.156 5.777-3.955-1.234c-.854-.262-.86-.849.192-1.27L22.747 9.72c.704-.32 1.383.17 1.114 1.247l-2.624 12.368c-.184.88-.715 1.09-1.45.683l-3.999-2.954-1.921 1.87c-.007.005-.013.01-.019.017-.215.209-.392.382-.782.382Z" clip-rule="evenodd"/></g><defs><filter id="a" width="182.292" height="182.292" x="-75.146" y="-75.146" color-interpolation-filters="sRGB" filterUnits="userSpaceOnUse"><feFlood flood-opacity="0" result="BackgroundImageFix"/><feGaussianBlur in="BackgroundImageFix" stdDeviation="37.573"/><feComposite in2="SourceAlpha" operator="in" result="effect1_backgroundBlur_446_807"/><feBlend in="SourceGraphic" in2="effect1_backgroundBlur_446_807" result="shape"/></filter></defs></svg>