<svg xmlns="http://www.w3.org/2000/svg" fill="none" viewBox="0 0 246 246"><circle cx="123" cy="123" r="123" fill="#E62F4D"/><path fill="#fff" d="M218.103 89.389a1.372 1.372 0 0 1 .88-1.723 1.372 1.372 0 0 1 1.724.88 1.362 1.362 0 0 1-.881 1.723 1.361 1.361 0 0 1-1.723-.88ZM217.311 122.034c-.052-1.952 1.033-3.934 3.245-4.039l4.211-.112c2.058-.147 3.016-1.711 2.974-3.278-.055-1.491-.938-2.867-3.043-2.811l-4.627.108c-.907.024-.917.809-.914.901v.015l-.031.001-.071-2.674.046-.001.001.03c.004.154.069.86.93.837l4.549-.121c2.057-.147 3.015-1.726 2.973-3.309-.039-1.476-.938-2.867-3.059-2.81l-4.611.122c-.538.015-.928.363-.913.948l.001.03-.031.001-.075-2.828.031-.001v.016c.004.153.056.936.901.914l6.947-.185c.922-.025.931-.871.928-.963v-.015l.046-.002c.021.784.087 1.551.296 1.869l-1.476.039c.881.746 1.28 1.858 1.328 3.072.037 1.398-.51 2.797-1.66 3.52.361.267.614.506.693.581.742.734 1.125 1.816 1.154 2.907.051 1.937-1.004 3.903-3.247 4.009l-4.211.112c-1.996.13-3.232 1.655-3.182 3.53.007.246.029.491.082.751.061-.001.108.013.11.09a.099.099 0 0 1-.09.094.1.1 0 0 1-.095-.09c-.001-.046.029-.077.059-.093a5.074 5.074 0 0 1-.169-1.165Z"/><path fill="#fff" d="M219.612 125.3c-.154 1.962 1.743 3.73 3.935 3.901 2.161.17 4.348-1.17 4.529-3.47.18-2.299-1.771-3.978-3.932-4.148-1.533-.12-2.949.433-3.845 1.642.675-.548 1.498-.823 2.234-.765.966.075 1.78.71 1.895 1.999l-.063.01c-.175-1.108-.875-1.626-1.703-1.691-1.318-.103-2.928.958-3.05 2.522Zm-.319-.257c.2-2.559 2.311-4.707 4.933-4.502 2.605.204 4.357 2.655 4.156 5.214-.2 2.56-2.312 4.708-4.918 4.504-2.621-.205-4.372-2.656-4.171-5.216ZM228.855 139.95c.908.163 1.088-.664 1.104-.754l.003-.016.03.006-.06.333c-.085.562-.135 1.272-.027 1.541l-10.517-1.892c-1.981-.279-3.501.963-3.836 2.824a4.33 4.33 0 0 0-.073.753l.016.002c.045.009.085.047.074.107-.008.046-.062.083-.107.075-.045-.008-.083-.062-.075-.107a.105.105 0 0 1 .077-.08 4.99 4.99 0 0 1 .071-1.175c.319-1.77 1.606-3.366 3.522-3.334l-.023-.051a4.603 4.603 0 0 1-.499-3.042c.45-2.497 2.812-4.165 5.294-3.718 2.481.446 4.129 2.836 3.679 5.333a4.684 4.684 0 0 1-1.528 2.677l2.875.518Zm-5.13-.923c1.559.28 3.079-.181 3.466-2.329.408-2.27-1.494-3.94-3.537-4.308-2.027-.365-4.408.535-4.816 2.804-.3 1.665.484 3.04 1.997 3.312l2.89.521Z"/><path fill="#fff" d="M214.87 144.657c.416-1.907 1.944-3.573 4.117-3.146l9.208 2.009c.902.197 1.112-.623 1.132-.713l.003-.015.045.01-.036.165c-.138.631-.233 1.429-.124 1.72l-10.41-2.271c-1.969-.351-3.533.834-3.93 2.652-.052.24-.09.484-.101.749.061.013.099.053.086.113-.013.06-.065.08-.11.07a.087.087 0 0 1-.07-.109c.006-.03.046-.069.076-.062a5.067 5.067 0 0 1 .114-1.172Z"/><path fill="#fff" d="M220.371 145.673c-1.964-.621-3.429.545-3.941 2.06l-.009.029c-.352 1.114-.158 2.95 1.058 3.334l1.657.524c1.569.496 2.751-.388 3.252-1.923l.024-.073c.486-1.539-.062-3.325-2.041-3.951Zm-8.338 9.184a.103.103 0 0 1 .087-.069c.028-.395.104-.79.225-1.171.547-1.73 2.032-3.163 3.952-2.862-.024-.024-.054-.033-.064-.053-.414-.985-.406-2.079-.087-3.091.65-2.004 2.568-3.429 4.503-2.817 1.965.621 2.705 2.919 2.061 4.957l-.018.058c-.336.959-.964 1.824-1.826 2.358l.601.19c1.554.491 2.543-.599 2.951-1.889l.047-.147c.248-.937.288-2.746-.856-3.108l.028-.088 1.164.142c.371.714.304 2.048-.089 3.294l-.028.088c-.534 1.637-1.644 3.108-3.036 2.716-1.73-.546-3.44-1.103-5.17-1.65-1.885-.516-3.662.616-4.186 2.272-.079.25-.118.527-.143.81.059.018.079.057.06.116-.014.044-.057.078-.115.06-.044-.014-.074-.072-.061-.116Z"/><path fill="#fff" d="m213.534 156.775.288-.679c5.684.104 3.134.092 8.916.121 1.451-.036 2.538-.828 3.024-1.975.27-.637.354-1.386.222-2.177l-.049-.004c-.057-.024-.053-.072-.043-.135.024-.057.073-.053.115-.035.071.03.079.05.055.107a.119.119 0 0 1-.058.059c.234.984.164 2.056-.22 2.962-.504 1.189-1.53 2.074-3.03 2.106-5.687-.055-2.578-.024-8.419-.111 1.838 1.848 3.659 3.738 5.51 5.558.073.064.158.1.228.13.453.192.66-.255.689-.326l.006-.014.043.018-.858 2.025-.042-.018.018-.043c.072-.17.285-.831-.362-1.472l-6.033-6.097ZM209.568 175.388a1.372 1.372 0 0 1 1.887-.431c.637.4.831 1.248.43 1.886a1.36 1.36 0 0 1-1.886.431 1.36 1.36 0 0 1-.431-1.886ZM181.306 197.983c1.508-1.24 3.739-1.601 5.181.079l2.675 3.254c1.38 1.533 3.203 1.328 4.414.332 1.142-.959 1.686-2.5.348-4.127l-2.928-3.585c-.576-.7-1.201-.226-1.272-.168l-.012.01-.02-.024 2.067-1.699.029.036-.024.019c-.118.098-.635.583-.089 1.248l2.891 3.515c1.38 1.533 3.214 1.319 4.437.313 1.14-.938 1.686-2.501.338-4.14l-2.929-3.563c-.342-.415-.857-.509-1.308-.138l-.024.019-.02-.023 2.185-1.797.02.024-.012.009c-.119.098-.705.62-.168 1.273l4.414 5.368c.586.712 1.259.199 1.33.14l.012-.009.029.035c-.606.498-1.17 1.022-1.292 1.382l-.938-1.141c-.047 1.154-.679 2.152-1.608 2.935-1.081.889-2.52 1.316-3.797.853.011.449-.023.795-.033.903-.123 1.037-.742 2.004-1.585 2.697-1.497 1.23-3.696 1.606-5.157-.099l-2.676-3.254c-1.329-1.495-3.291-1.533-4.74-.342-.19.156-.37.324-.543.526.039.048.057.093-.003.142-.035.029-.1.023-.13-.013a.1.1 0 0 1 .013-.13.104.104 0 0 1 .11-.011 5.09 5.09 0 0 1 .815-.849Z"/><path fill="#fff" d="M180.092 201.826c-1.644 1.082-1.876 3.665-.668 5.501 1.192 1.811 3.592 2.716 5.518 1.448 1.927-1.268 2.057-3.838.865-5.649-.845-1.284-2.15-2.064-3.655-2.03.847.197 1.569.679 1.975 1.295.533.809.531 1.841-.417 2.723l-.046-.043c.768-.819.747-1.689.291-2.382-.727-1.105-2.553-1.725-3.863-.863Zm.007-.409c2.144-1.412 5.136-1.062 6.581 1.134 1.437 2.183.576 5.07-1.568 6.481-2.145 1.412-5.137 1.062-6.574-1.121-1.445-2.196-.584-5.083 1.561-6.494ZM174.289 218.046c.428.817 1.192.452 1.273.409l.014-.007.014.028-.299.157c-.497.277-1.088.674-1.234.924l-4.96-9.465c-.996-1.735-2.909-2.173-4.584-1.295a4.255 4.255 0 0 0-.639.404l.007.014c.021.041.016.096-.039.124-.041.022-.103.002-.124-.039-.022-.04-.002-.103.038-.124a.102.102 0 0 1 .111.012c.297-.261.616-.48.97-.665 1.594-.835 3.644-.799 4.794.734l.027-.049a4.592 4.592 0 0 1 2.095-2.261c2.247-1.178 5.014-.336 6.185 1.897 1.17 2.234.294 5.001-1.953 6.179a4.692 4.692 0 0 1-3.052.436l1.356 2.587Zm-2.419-4.616c.735 1.402 2.032 2.32 3.965 1.307 2.043-1.071 2.195-3.598 1.231-5.436-.956-1.825-3.127-3.152-5.17-2.082-1.498.785-2.103 2.248-1.389 3.61l1.363 2.601Z"/><path fill="#fff" d="M161.965 209.903c1.763-.839 4.015-.651 5.009 1.328l4.05 8.51c.396.833 1.173.498 1.256.458l.014-.007.02.042-.153.073c-.583.277-1.271.69-1.435.955l-4.579-9.621c-.928-1.771-2.823-2.283-4.503-1.483a4.283 4.283 0 0 0-.654.379c.027.056.019.111-.037.137-.055.026-.103-.002-.123-.044a.089.089 0 0 1 .044-.123c.028-.013.082-.005.096.023.307-.249.648-.462.995-.627Z"/><path fill="#fff" d="M164.228 215.007c-.709-1.934-2.527-2.38-4.039-1.859l-.029.011c-1.097.403-2.431 1.678-1.991 2.876l.598 1.631c.567 1.544 1.99 1.94 3.51 1.398l.073-.026c1.515-.557 2.593-2.082 1.878-4.031Zm-12.365-.982a.103.103 0 0 1 .108.026 5.11 5.11 0 0 1 1.064-.538c1.703-.625 3.745-.326 4.681 1.378.004-.034-.006-.063.003-.083.527-.93 1.397-1.593 2.393-1.959 1.983-.711 4.283-.065 4.982 1.841.71 1.934-.656 3.925-2.662 4.661l-.058.021c-.963.321-2.032.353-2.982-.003l.218.592c.561 1.53 2.029 1.647 3.299 1.181l.144-.053c.894-.377 2.35-1.452 1.937-2.578l.086-.032.6 1.009c-.338.73-1.434 1.492-2.661 1.942l-.087.032c-1.622.579-3.465.6-4.006-.741-.625-1.703-1.23-3.397-1.855-5.101-.745-1.806-2.726-2.52-4.357-1.922-.246.09-.49.229-.728.382.021.058.003.097-.055.118a.09.09 0 0 1-.119-.055c-.015-.043.012-.102.055-.118Z"/><path fill="#fff" d="m151.197 216.415.714-.186c3.384 4.567 1.838 2.539 5.343 7.138.914 1.128 2.204 1.507 3.409 1.192.67-.175 1.315-.565 1.86-1.153l-.026-.04c-.016-.06.025-.087.081-.117.059-.015.086.025.097.07.02.074.009.093-.051.109a.122.122 0 0 1-.082-.011c-.637.786-1.529 1.385-2.482 1.633-1.249.326-2.576.053-3.516-1.116-3.426-4.54-1.554-2.057-5.048-6.739-.343 2.584-.73 5.18-1.043 7.756a.832.832 0 0 0 .036.261c.125.476.604.367.679.347l.015-.004.011.045-2.127.555-.012-.044.045-.012c.178-.047.832-.281.946-1.184l1.151-8.5ZM134.136 224.624a1.37 1.37 0 0 1 1.496 1.227 1.37 1.37 0 0 1-1.227 1.496 1.36 1.36 0 0 1-1.496-1.227 1.361 1.361 0 0 1 1.227-1.496ZM99.016 216.029c1.903.438 3.551 1.984 3.1 4.152l-.943 4.106c-.371 2.028.903 3.346 2.432 3.698 1.457.319 3.01-.192 3.481-2.245l1.051-4.507c.204-.884-.554-1.09-.644-1.11l-.015-.004.007-.03 2.608.599-.011.045-.03-.007c-.15-.034-.849-.148-1.042.691l-1.019 4.436c-.371 2.029.918 3.35 2.462 3.705 1.438.33 3.01-.192 3.485-2.26l1.032-4.495c.121-.525-.119-.99-.689-1.121l-.03-.007.007-.03 2.757.633-.006.03-.015-.003c-.15-.034-.921-.18-1.111.644l-1.556 6.773c-.206.899.611 1.119.701 1.139l.015.004-.01.045c-.765-.176-1.524-.303-1.884-.181l.331-1.438c-.942.667-2.119.775-3.306.518-1.363-.313-2.581-1.192-2.994-2.486-.349.283-.644.467-.736.525-.896.536-2.039.636-3.103.392-1.888-.434-3.528-1.947-3.071-4.145l.944-4.106c.372-1.965-.796-3.543-2.624-3.963a4.222 4.222 0 0 0-.748-.108c-.013.06-.039.101-.114.084-.045-.01-.08-.066-.069-.111.01-.045.066-.079.11-.069.046.01.069.047.077.081.395-.004.795.04 1.17.126Z"/><path fill="#fff" d="M95.232 217.42c-1.86-.641-4.048.752-4.764 2.831-.706 2.05.043 4.503 2.223 5.254 2.18.751 4.296-.716 5.002-2.766.5-1.453.321-2.962-.625-4.134.362.791.421 1.658.18 2.355-.315.916-1.133 1.545-2.41 1.333l.006-.063c1.117.108 1.793-.44 2.064-1.224.43-1.251-.193-3.075-1.676-3.586Zm.328-.245c2.428.836 3.977 3.419 3.121 5.905-.85 2.471-3.662 3.552-6.09 2.716-2.428-.837-3.977-3.419-3.126-5.891.856-2.485 3.668-3.566 6.095-2.73ZM78.834 222.738c-.385.839.371 1.219.455 1.258l.014.006-.013.028-.307-.141c-.524-.223-1.199-.448-1.486-.411l4.453-9.713c.763-1.849-.06-3.631-1.78-4.419a4.31 4.31 0 0 0-.71-.258l-.007.014c-.019.042-.066.071-.122.046-.042-.02-.065-.081-.045-.123.019-.042.08-.064.122-.045.042.019.057.06.058.094.388.077.757.195 1.12.361 1.635.75 2.86 2.394 2.352 4.242l.055-.009a4.596 4.596 0 0 1 3.07.275c2.306 1.057 3.333 3.76 2.282 6.052-1.05 2.292-3.775 3.293-6.082 2.235a4.685 4.685 0 0 1-2.212-2.147l-1.217 2.655ZM81.006 218c-.66 1.44-.593 3.027 1.392 3.937 2.097.961 4.188-.465 5.053-2.352.859-1.873.58-4.402-1.516-5.363-1.537-.705-3.064-.289-3.705 1.109L81.006 218Z"/><path fill="#fff" d="M77.758 208.021c1.744.878 2.977 2.772 2.023 4.77l-4.237 8.419c-.414.824.327 1.232.41 1.273l.013.007-.02.041-.152-.076c-.576-.29-1.325-.581-1.635-.547l4.79-9.518c.83-1.82.071-3.63-1.59-4.467a4.292 4.292 0 0 0-.701-.283c-.028.055-.076.082-.131.054-.055-.027-.062-.082-.041-.123.02-.042.069-.069.124-.041.027.013.055.062.04.089.386.091.763.229 1.107.402Z"/><path fill="#fff" d="M75.437 213.111c1.089-1.748.324-3.457-1.017-4.328l-.026-.017c-.992-.618-2.818-.886-3.492.198l-.92 1.474c-.869 1.396-.306 2.761 1.056 3.628l.065.041c1.37.853 3.236.766 4.334-.996Zm-6.826-10.357c.04.025.05.067.046.101a5.06 5.06 0 0 1 1.078.509c1.54.959 2.56 2.754 1.791 4.539.03-.018.046-.044.067-.049 1.057-.156 2.115.123 3.016.684 1.78 1.127 2.684 3.339 1.61 5.061-1.089 1.749-3.5 1.896-5.313.766l-.052-.033c-.845-.563-1.528-1.386-1.83-2.354l-.334.535c-.862 1.383-.052 2.613 1.097 3.328l.13.081c.847.473 2.59.962 3.224-.056l.078.048-.427 1.093c-.784.182-2.059-.214-3.168-.905l-.078-.049c-1.454-.923-2.603-2.364-1.878-3.615.96-1.54 1.924-3.059 2.883-4.598.968-1.698.313-3.7-1.162-4.619a3.833 3.833 0 0 0-.748-.34c-.033.052-.075.062-.127.03-.04-.025-.062-.075-.03-.127a.1.1 0 0 1 .127-.03Z"/><path fill="#fff" d="m66.412 203.756.587.448c-1.515 5.479-.87 3.012-2.336 8.605-.326 1.415.17 2.665 1.16 3.421.55.42 1.255.687 2.053.756l.016-.046c.038-.049.084-.033.142-.008.049.037.033.083.005.12-.047.061-.068.064-.117.027a.12.12 0 0 1-.043-.071c-1.011-.019-2.032-.354-2.814-.951-1.027-.784-1.628-1.998-1.286-3.458 1.469-5.495.664-2.491 2.202-8.127-2.247 1.321-4.53 2.614-6.753 3.954-.08.054-.137.128-.184.189-.298.391.083.702.145.748l.012.01-.028.036-1.748-1.334.029-.037.036.028c.147.112.734.483 1.516.016l7.406-4.326ZM49.438 195.351a1.37 1.37 0 0 1-.05 1.934 1.37 1.37 0 0 1-1.935-.05 1.36 1.36 0 0 1 .05-1.934 1.36 1.36 0 0 1 1.935.05ZM34.576 162.252c.819 1.773.605 4.023-1.386 4.993l-3.824 1.766c-1.832.948-2.095 2.763-1.437 4.186.639 1.348 1.993 2.263 3.906 1.38l4.207-1.926c.824-.381.523-1.105.484-1.189l-.006-.014.028-.013 1.122 2.429-.042.019-.013-.028c-.065-.139-.403-.762-1.185-.401l-4.131 1.908c-1.832.948-2.088 2.777-1.424 4.214.619 1.34 1.993 2.263 3.92 1.374l4.187-1.934c.489-.226.71-.701.465-1.231l-.013-.028.028-.013 1.186 2.569-.028.012-.006-.014c-.065-.139-.421-.838-1.19-.484l-6.308 2.914c-.838.387-.511 1.168-.472 1.251l.006.014-.042.02c-.329-.712-.693-1.391-1.01-1.6l1.34-.619c-1.104-.337-1.91-1.201-2.433-2.297-.586-1.27-.636-2.772.135-3.89-.437-.103-.764-.223-.866-.26-.972-.381-1.75-1.224-2.208-2.215-.813-1.759-.62-3.982 1.399-4.965l3.824-1.766c1.783-.908 2.316-2.797 1.53-4.5a4.284 4.284 0 0 0-.372-.658c-.056.026-.105.031-.137-.039-.02-.042.003-.103.045-.122.042-.02.103.003.123.045.02.042.004.082-.017.109.245.311.454.654.615 1.003Z"/><path fill="#fff" d="M31.129 160.078c-.635-1.862-3.077-2.736-5.158-2.026-2.052.699-3.53 2.795-2.787 4.978.744 2.183 3.2 2.954 5.252 2.254 1.455-.496 2.537-1.563 2.882-3.029-.403.771-1.05 1.349-1.749 1.587-.917.313-1.915.052-2.53-1.086l.052-.035c.6.949 1.447 1.148 2.233.88 1.252-.427 2.31-2.038 1.805-3.523Zm.394.109c.829 2.431-.261 5.239-2.75 6.087-2.474.843-5.051-.715-5.88-3.145-.828-2.43.262-5.238 2.736-6.082 2.488-.848 5.066.71 5.894 3.14ZM16.778 150.083c-.899.209-.737 1.04-.716 1.13l.003.015-.03.007-.076-.33c-.144-.551-.38-1.222-.585-1.427l10.409-2.419c1.93-.527 2.834-2.269 2.406-4.111a4.28 4.28 0 0 0-.23-.72l-.015.004c-.045.01-.097-.009-.11-.069-.011-.045.023-.101.068-.111.045-.01.1.024.11.069a.104.104 0 0 1-.038.104c.177.353.309.717.4 1.107.406 1.752-.145 3.727-1.917 4.454l.04.038a4.6 4.6 0 0 1 1.661 2.598c.575 2.471-.936 4.937-3.392 5.508-2.456.57-4.914-.973-5.488-3.444a4.688 4.688 0 0 1 .345-3.064l-2.845.661Zm5.077-1.18c-1.543.359-2.757 1.383-2.263 3.509.522 2.247 2.93 3.029 4.952 2.559 2.006-.466 3.837-2.233 3.315-4.48-.383-1.647-1.646-2.601-3.144-2.252l-2.86.664Z"/><path fill="#fff" d="M27.819 140.546c.376 1.916-.365 4.051-2.528 4.523l-9.249 1.815c-.905.178-.772 1.014-.754 1.104l.003.015-.046.009-.032-.166c-.125-.633-.354-1.403-.57-1.627l10.455-2.052c1.946-.461 2.911-2.17 2.553-3.996a4.274 4.274 0 0 0-.205-.727c-.06.012-.112-.01-.124-.07-.012-.06.028-.099.073-.108.045-.009.096.012.108.073.006.03-.015.081-.045.087.164.359.287.743.36 1.12Z"/><path fill="#fff" d="M22.354 141.801c2.05-.21 2.93-1.861 2.798-3.455l-.003-.031c-.12-1.162-1.026-2.769-2.296-2.639l-1.728.177c-1.637.168-2.37 1.449-2.221 3.057l.008.076c.165 1.606 1.377 3.027 3.442 2.815Zm4.003-11.74a.103.103 0 0 1-.051.098c.13.373.217.766.258 1.164.185 1.805-.608 3.71-2.49 4.197.032.012.062.009.08.023.77.74 1.199 1.747 1.307 2.802.2 2.097-.994 4.167-3.013 4.374-2.05.21-3.642-1.604-3.86-3.73l-.007-.062c-.073-1.012.16-2.056.74-2.888l-.628.064c-1.621.166-2.096 1.56-1.958 2.906l.015.153c.145.958.827 2.635 2.02 2.513l.01.091-1.125.332c-.624-.508-1.093-1.758-1.226-3.058l-.01-.092c-.16-1.714.274-3.505 1.707-3.699 1.805-.185 3.596-.353 5.4-.539 1.936-.275 3.117-2.019 2.94-3.748-.027-.26-.102-.53-.191-.799-.061.006-.095-.022-.101-.083-.005-.046.021-.095.082-.101.046-.005.097.037.101.082Z"/><path fill="#fff" d="m24.197 128.901.003.738c-5.265 2.143-2.917 1.15-8.243 3.401-1.32.605-2.007 1.761-2.002 3.006.003.692.221 1.414.655 2.089l.046-.016c.061 0 .077.046.092.107 0 .062-.045.077-.092.077-.077.001-.092-.015-.092-.076 0-.031.015-.062.03-.077-.603-.812-.96-1.826-.964-2.81-.006-1.291.589-2.508 1.955-3.129 5.25-2.189 2.379-.993 7.782-3.214-2.418-.974-4.836-1.995-7.254-2.938-.092-.03-.184-.03-.261-.03-.492.002-.505.494-.505.571v.016H15.3l-.01-2.199h.047v.046c0 .185.065.876.912 1.211l7.947 3.227ZM20.482 110.172a1.371 1.371 0 0 1-1.565 1.139 1.371 1.371 0 0 1-1.139-1.564c.12-.76.82-1.256 1.564-1.139a1.362 1.362 0 0 1 1.14 1.564ZM37.425 78.426c-.897 1.735-2.804 2.947-4.792 1.971l-3.743-1.934c-1.872-.865-3.466.042-4.186 1.435-.671 1.332-.563 2.964 1.309 3.93l4.104 2.14c.805.416 1.193-.266 1.235-.348l.007-.014.027.014-1.228 2.377-.041-.021.014-.028c.07-.136.355-.786-.41-1.181l-4.043-2.09c-1.873-.864-3.473.056-4.2 1.463-.679 1.311-.563 2.963 1.322 3.938l4.097 2.118c.478.247.989.13 1.257-.39l.014-.026.027.014-1.299 2.513-.027-.014.007-.014c.07-.137.403-.847-.348-1.236l-6.173-3.19c-.82-.425-1.236.313-1.278.394l-.007.014-.04-.021c.36-.697.671-1.4.642-1.78l1.311.678c-.412-1.078-.224-2.244.32-3.33.642-1.243 1.797-2.204 3.153-2.282a7.401 7.401 0 0 1-.326-.843c-.296-1.002-.109-2.134.393-3.103.89-1.721 2.762-2.934 4.777-1.944l3.743 1.935c1.81.85 3.63.11 4.49-1.556a4.28 4.28 0 0 0 .292-.697c-.055-.029-.089-.063-.053-.132.02-.04.083-.06.124-.04.04.022.06.084.04.125a.104.104 0 0 1-.097.054c-.095.383-.238.76-.414 1.101Z"/><path fill="#fff" d="M37.056 74.276c1.083-1.643.277-4.108-1.559-5.318-1.81-1.193-4.372-1.077-5.641.849-1.27 1.925-.374 4.338 1.436 5.531 1.284.847 2.79 1.048 4.16.422-.856.154-1.71-.004-2.326-.41-.809-.533-1.215-1.482-.692-2.666l.06.021c-.383 1.056-.02 1.847.673 2.304 1.104.728 3.026.577 3.89-.733Zm.156.379c-1.413 2.144-4.3 3.003-6.495 1.556-2.182-1.438-2.53-4.43-1.118-6.573 1.413-2.144 4.3-3.004 6.482-1.566 2.195 1.447 2.544 4.439 1.13 6.583ZM36.103 56.872c-.717-.581-1.273.056-1.331.127l-.01.012-.024-.02.213-.262c.347-.451.733-1.049.768-1.337l8.298 6.733c1.6 1.2 3.53.846 4.722-.622.155-.191.299-.392.427-.624l-.012-.01c-.035-.029-.052-.082-.013-.13.029-.035.094-.042.13-.013a.1.1 0 0 1 .013.13.104.104 0 0 1-.106.033c-.17.356-.377.684-.628.994-1.134 1.397-3.032 2.174-4.694 1.221l-.005.055a4.598 4.598 0 0 1-1.031 2.906c-1.599 1.97-4.473 2.29-6.43.702-1.959-1.589-2.248-4.477-.65-6.447a4.69 4.69 0 0 1 2.631-1.608l-2.268-1.84Zm4.047 3.284c-1.23-.998-2.783-1.328-4.16.367-1.452 1.791-.592 4.172 1.02 5.48 1.6 1.298 4.118 1.659 5.571-.132 1.066-1.313 1.043-2.896-.15-3.865l-2.281-1.85Z"/><path fill="#fff" d="M50.544 59.582c-1.286 1.47-3.428 2.19-5.125.768l-7.094-6.205c-.695-.607-1.275.01-1.335.079l-.01.011-.035-.03.111-.127c.425-.486.894-1.139.939-1.447l8.02 7.014c1.555 1.258 3.498.975 4.722-.425a4.26 4.26 0 0 0 .45-.607c-.046-.04-.06-.094-.02-.14.04-.047.095-.04.13-.01s.049.084.009.13c-.02.024-.074.038-.097.018-.184.35-.412.681-.665.97Z"/><path fill="#fff" d="M45.95 56.292c1.425 1.489 3.27 1.171 4.447.088l.022-.021c.844-.808 1.556-2.51.674-3.432l-1.2-1.256c-1.138-1.189-2.6-.982-3.777.123l-.055.053c-1.167 1.116-1.545 2.945-.11 4.445Zm11.727-4.045a.104.104 0 0 1-.11.02 5.084 5.084 0 0 1-.76.917c-1.31 1.254-3.302 1.797-4.841.61.01.033.031.055.03.077-.11 1.063-.643 2.02-1.41 2.753-1.532 1.444-3.9 1.772-5.302.306-1.424-1.49-.969-3.86.576-5.338l.044-.042c.755-.68 1.722-1.136 2.734-1.19l-.435-.456c-1.127-1.177-2.519-.697-3.496.238l-.111.106c-.668.703-1.573 2.27-.744 3.137l-.067.064-.953-.685c.018-.804.718-1.941 1.662-2.844l.067-.064c1.255-1.18 2.935-1.936 3.968-.923 1.254 1.311 2.486 2.622 3.74 3.933 1.405 1.358 3.507 1.22 4.763.019.189-.18.357-.405.514-.641-.042-.044-.041-.088.003-.13.033-.032.088-.042.13.002a.1.1 0 0 1-.002.13Z"/><path fill="#fff" d="m57.167 49.887-.58.456c-4.926-2.838-2.7-1.595-7.747-4.415-1.288-.67-2.623-.502-3.602.267-.544.428-.98 1.043-1.246 1.8l.04.026c.039.048.012.09-.027.14-.049.037-.09.01-.118-.026-.047-.06-.044-.082.004-.12a.117.117 0 0 1 .08-.023c.27-.975.85-1.88 1.624-2.487 1.016-.798 2.341-1.076 3.67-.38 4.952 2.797 2.246 1.267 7.317 4.166-.717-2.506-1.397-5.04-2.138-7.528a.805.805 0 0 0-.137-.225c-.304-.387-.7-.095-.76-.047l-.013.01-.028-.037 1.729-1.358.029.036-.037.029c-.145.114-.651.59-.395 1.463l2.335 8.253ZM69.67 35.403a1.371 1.371 0 0 1-1.86-.534 1.371 1.371 0 0 1 .534-1.86 1.362 1.362 0 0 1 1.86.534c.365.66.138 1.488-.535 1.86ZM106.137 29.001c-1.922.347-4.045-.426-4.484-2.597l-.748-4.145c-.457-2.012-2.147-2.722-3.69-2.444-1.466.28-2.692 1.361-2.318 3.434l.806 4.557c.162.893.939.784 1.03.767l.015-.002.005.03-2.633.475-.008-.046.03-.005c.152-.027.84-.198.687-1.046l-.808-4.478c-.457-2.011-2.163-2.72-3.721-2.438-1.453.262-2.692 1.36-2.315 3.449l.819 4.539c.095.53.5.863 1.074.76l.03-.006.006.03-2.784.502-.005-.03.015-.003c.15-.027.917-.197.767-1.029l-1.234-6.839c-.164-.908-1.002-.788-1.092-.771l-.016.002-.008-.045c.772-.14 1.52-.321 1.803-.575l.262 1.452c.603-.983 1.642-1.546 2.835-1.777 1.377-.248 2.842.081 3.73 1.108.21-.397.409-.683.47-.772.614-.845 1.625-1.387 2.7-1.58 1.906-.345 4.009.4 4.453 2.602l.748 4.145c.431 1.954 2.125 2.945 3.971 2.612.242-.044.481-.103.73-.195-.011-.06-.004-.108.072-.122.045-.008.099.03.107.074.008.046-.029.1-.074.108-.046.008-.081-.017-.102-.045a5.057 5.057 0 0 1-1.125.344Z"/><path fill="#fff" d="M108.452 26.275c1.963-.149 3.419-2.295 3.253-4.487-.164-2.162-1.824-4.117-4.124-3.943-2.299.175-3.66 2.36-3.496 4.521.116 1.533.879 2.848 2.212 3.548-.646-.583-1.043-1.355-1.099-2.09-.073-.966.429-1.868 1.685-2.179l.02.06c-1.069.343-1.473 1.114-1.41 1.942.1 1.319 1.395 2.747 2.959 2.628Zm-.204.355c-2.56.194-5.007-1.563-5.205-4.185-.198-2.606 1.955-4.712 4.515-4.907 2.56-.194 5.007 1.564 5.204 4.17.199 2.621-1.954 4.728-4.514 4.922ZM122.031 14.86c.024-.922-.821-.975-.913-.978h-.015l.001-.03.338.008c.569 0 1.278-.06 1.528-.206l-.277 10.682c.025 2 1.483 3.314 3.373 3.363.246.006.492-.003.755-.042v-.015c.001-.046.033-.092.095-.09.046.001.091.049.09.095-.002.046-.049.09-.095.09-.046-.002-.076-.033-.091-.064a4.953 4.953 0 0 1-1.171.108c-1.799-.047-3.571-1.077-3.83-2.976l-.047.03a4.596 4.596 0 0 1-2.931.954c-2.536-.066-4.543-2.148-4.478-4.669.066-2.52 2.178-4.511 4.714-4.445a4.687 4.687 0 0 1 2.878 1.105l.076-2.92Zm-.135 5.21c.041-1.583-.645-3.016-2.827-3.072-2.306-.06-3.668 2.073-3.722 4.148-.054 2.06 1.196 4.276 3.502 4.336 1.69.044 2.931-.94 2.971-2.476l.076-2.936Z"/><path fill="#fff" d="M128.743 27.963c-1.949-.123-3.826-1.382-3.732-3.595l.596-9.406c.058-.92-.784-1.005-.876-1.01l-.015-.001.003-.046.169.01c.644.041 1.447.015 1.718-.137l-.673 10.633c-.05 2 1.358 3.368 3.214 3.485.246.016.492.016.756-.013.004-.062.038-.106.099-.102.061.004.089.052.086.098-.003.046-.036.09-.098.086-.03-.002-.075-.035-.073-.066a5.051 5.051 0 0 1-1.174.064Z"/><path fill="#fff" d="M128.555 22.324c-.313 2.036 1.064 3.305 2.639 3.578l.031.005c1.155.177 2.938-.296 3.132-1.558l.264-1.717c.249-1.626-.806-2.659-2.399-2.919l-.076-.012c-1.596-.244-3.276.571-3.591 2.623Zm10.353 6.83c-.045-.007-.071-.042-.082-.074a5.083 5.083 0 0 1-1.191-.043c-1.793-.275-3.437-1.523-3.434-3.467-.02.028-.025.058-.042.071-.911.56-1.993.721-3.042.56-2.079-.335-3.782-2.011-3.474-4.017.312-2.037 2.47-3.121 4.582-2.797l.061.01c.998.184 1.95.672 2.61 1.442l.095-.623c.248-1.611-.981-2.422-2.319-2.627l-.152-.023c-.964-.102-2.758.136-2.94 1.322l-.091-.014-.038-1.173c.648-.476 1.976-.614 3.268-.416l.091.014c1.7.276 3.324 1.148 3.15 2.583-.275 1.794-.563 3.57-.838 5.363-.22 1.941 1.17 3.523 2.887 3.787.259.04.539.036.822.017.009-.06.045-.086.105-.077.046.007.087.044.078.105-.007.046-.06.084-.106.077Z"/><path fill="#fff" d="m140.918 27.42-.715-.184c-.743-5.635-.375-3.112-1.207-8.834-.252-1.43-1.197-2.387-2.403-2.697-.67-.172-1.423-.143-2.186.105l.004.049c-.016.06-.064.063-.128.062-.059-.015-.063-.063-.051-.108.019-.075.038-.086.097-.07.03.007.056.03.067.049.939-.378 2.009-.469 2.962-.224 1.251.322 2.279 1.205 2.534 2.683.791 5.632.36 2.553 1.143 8.342 1.554-2.093 3.152-4.175 4.676-6.276a.819.819 0 0 0 .094-.245c.123-.477-.35-.614-.424-.633l-.015-.004.011-.045 2.13.547-.012.045-.044-.011c-.179-.046-.864-.159-1.402.576l-5.131 6.873ZM159.76 28.466a1.371 1.371 0 0 1-.713-1.799 1.371 1.371 0 0 1 1.799-.713 1.362 1.362 0 0 1 .713 1.8 1.362 1.362 0 0 1-1.799.712ZM188.922 55.287c-1.406-1.355-2.023-3.529-.52-5.155l2.922-3.034c1.363-1.548.949-3.335-.18-4.423-1.085-1.023-2.679-1.385-4.14.132l-3.222 3.322c-.63.654-.086 1.22-.02 1.284l.011.01-.021.023-1.927-1.856.032-.034.023.022c.11.106.652.564 1.249-.056l3.157-3.278c1.363-1.547.938-3.345-.202-4.443-1.063-1.024-2.679-1.386-4.151.142l-3.2 3.322c-.374.388-.407.91.013 1.316l.022.021-.021.022-2.037-1.962.021-.023.011.011c.111.107.697.629 1.284.02l4.821-5.005c.64-.665.052-1.273-.014-1.337l-.011-.011.032-.033c.564.544 1.15 1.044 1.521 1.124l-1.024 1.063c1.151-.087 2.216.426 3.101 1.258 1.008.97 1.599 2.351 1.287 3.673.444-.063.792-.07.901-.072 1.044.003 2.075.505 2.861 1.263 1.395 1.344 2.023 3.485.499 5.134l-2.923 3.034c-1.331 1.492-1.143 3.446.208 4.747.177.171.365.33.585.479.043-.044.086-.067.141-.014.034.032.035.098.003.13-.032.034-.097.035-.131.003a.102.102 0 0 1-.023-.108 5.055 5.055 0 0 1-.938-.711ZM193.137 56.276c1.262 1.511 3.854 1.45 5.542.04 1.664-1.39 2.291-3.876.813-5.646s-4.047-1.609-5.711-.22c-1.18.986-1.807 2.37-1.602 3.863.099-.865.496-1.637 1.063-2.11.743-.62 1.769-.736 2.752.106l-.038.051c-.9-.67-1.762-.551-2.399-.02-1.015.848-1.425 2.733-.42 3.936Zm-.407.04c-1.646-1.97-1.637-4.983.381-6.668 2.006-1.675 4.972-1.146 6.617.825 1.646 1.97 1.637 4.983-.369 6.658-2.018 1.685-4.984 1.156-6.629-.815ZM209.909 60.167c.763-.519.313-1.235.261-1.312l-.009-.012.026-.018.19.28c.333.462.794 1.003 1.06 1.12l-8.836 6.01c-1.609 1.188-1.825 3.14-.761 4.703.138.203.289.398.474.588l.013-.009c.038-.025.093-.026.128.025.026.038.014.102-.024.128-.039.026-.103.014-.129-.024-.026-.038-.017-.081-.001-.111a4.98 4.98 0 0 1-.771-.889c-1.012-1.487-1.21-3.528.18-4.846l-.051-.02a4.6 4.6 0 0 1-2.486-1.824c-1.427-2.097-.908-4.942 1.177-6.36 2.085-1.419 4.934-.865 6.361 1.232.588.864.863 1.924.783 2.982l2.415-1.643Zm-4.309 2.932c1.309-.891 2.072-2.284.844-4.09-1.297-1.906-3.824-1.767-5.541-.6-1.703 1.159-2.773 3.468-1.476 5.374.951 1.399 2.474 1.832 3.745.967L205.6 63.1Z"/><path fill="#fff" d="M203.251 73.37c-1.036-1.656-1.108-3.914.744-5.128l7.989-5c.782-.49.36-1.223.311-1.301l-.008-.014.039-.024.089.143c.343.548.832 1.185 1.114 1.316l-9.031 5.654c-1.654 1.125-1.944 3.066-.957 4.643.131.209.274.41.452.606.052-.032.107-.03.14.021.033.053.01.103-.029.128-.039.024-.095.022-.127-.03-.017-.026-.015-.081.011-.097a5.06 5.06 0 0 1-.737-.918Z"/><path fill="#fff" d="M207.729 69.966c-1.836.935-2.063 2.793-1.364 4.232l.014.028c.53 1.04 1.955 2.213 3.092 1.633l1.549-.788c1.465-.747 1.688-2.206.969-3.652l-.035-.068c-.733-1.439-2.376-2.327-4.225-1.385Zm.499 12.394a.104.104 0 0 1 .012-.11 5.093 5.093 0 0 1-.66-.992c-.824-1.617-.77-3.68.809-4.813-.034 0-.061.014-.082.008-.986-.412-1.749-1.197-2.23-2.143-.943-1.884-.575-4.245 1.233-5.166 1.836-.935 3.976.183 4.946 2.088l.028.054c.433.918.592 1.976.352 2.961l.562-.286c1.452-.74 1.393-2.21.779-3.416l-.07-.137c-.481-.842-1.722-2.16-2.79-1.616l-.042-.082.93-.715c.765.248 1.652 1.246 2.246 2.41l.042.082c.767 1.542 1.008 3.369-.259 4.066-1.616.824-3.226 1.627-4.843 2.45-1.705.955-2.178 3.007-1.389 4.555.119.233.285.46.466.678.055-.028.096-.015.124.04.021.041.014.096-.04.124-.042.021-.104 0-.124-.04Z"/><path fill="#fff" d="m210.672 82.707-.271-.687c4.131-3.905 2.302-2.128 6.451-6.156 1.011-1.042 1.232-2.368.777-3.527-.254-.644-.719-1.238-1.367-1.71l-.037.031c-.057.023-.089-.014-.125-.066-.023-.057.014-.088.057-.105.072-.028.092-.02.114.038a.117.117 0 0 1 0 .082c.856.54 1.557 1.354 1.917 2.27.473 1.201.359 2.551-.689 3.624-4.099 3.943-1.857 1.789-6.089 5.816 2.607.032 5.23.107 7.826.11a.8.8 0 0 0 .254-.067c.458-.18.292-.644.264-.715l-.006-.014.043-.017.805 2.046-.043.017-.017-.043c-.067-.172-.378-.793-1.288-.799l-8.576-.128Z"/></svg>