<svg xmlns="http://www.w3.org/2000/svg" width="31" height="40" viewBox="0 0 31 40">
    <g fill="#061058" transform="translate(1.18 .76)">
        <path d="M27.387 8.359c-.375-.815-.83-1.6-1.352-2.333-.518-.726-1.107-1.408-1.75-2.027-.646-.62-1.352-1.181-2.1-1.67-.754-.493-1.558-.916-2.39-1.258C18.065.36 16.23 0 14.345 0 12.41 0 10.53.38 8.761 1.127c-.85.359-1.67.804-2.436 1.322-.76.513-1.474 1.102-2.123 1.75-.65.65-1.239 1.364-1.752 2.123-.518.767-.963 1.586-1.323 2.435C.38 10.526 0 12.403 0 14.34c.003 1.077.21 2.294.617 3.617.364 1.186.882 2.46 1.584 3.897.888 1.81 2.05 3.804 3.452 5.927 1.114 1.688 2.39 3.472 3.793 5.303 1.307 1.705 2.461 3.11 3.252 4.048H8.154c-.417 0-.755.337-.755.754s.338.755.755.755h12.382c.417 0 .755-.338.755-.755s-.338-.754-.755-.754h-4.545c.87-1.031 2.181-2.629 3.633-4.547 1.506-1.99 2.853-3.912 4.003-5.711 1.45-2.268 2.607-4.374 3.44-6.259.168-.38-.004-.827-.385-.994-.097-.043-.2-.065-.305-.065-.299 0-.57.176-.69.45-1.814 4.111-4.953 8.614-7.266 11.668-1.316 1.739-2.51 3.2-3.277 4.119-.273.327-.542.644-.799.943-1.13-1.317-4.05-4.809-6.807-8.855-1.79-2.626-3.206-5.037-4.21-7.168-1.194-2.52-1.823-4.725-1.818-6.373 0-3.426 1.336-6.648 3.76-9.072 2.424-2.423 5.647-3.758 9.075-3.758h.002c6.899 0 12.531 5.393 12.822 12.278.017.406.348.723.754.723h.032c.416-.018.74-.37.723-.786-.08-1.87-.514-3.675-1.29-5.365z"/>
        <path d="M18.858 10.326c-.341-.24-.812-.159-1.053.182l-3.987 5.646-3.142-3.455c-.28-.308-.758-.33-1.067-.05-.308.28-.331.757-.05 1.066l3.774 4.15c.144.158.37.247.582.247.229-.014.462-.132.594-.319l4.53-6.415c.24-.34.16-.811-.181-1.052z"/>
        <circle cx="27.529" cy="17.115" r="1"/>
        <path d="M14.345 3.773c-5.838 0-10.57 4.73-10.57 10.566 0 5.835 4.733 10.566 10.57 10.566 5.838 0 10.57-4.73 10.57-10.566 0-5.835-4.732-10.566-10.57-10.566zm0 19.622c-5.004 0-9.06-4.054-9.06-9.056 0-5.002 4.056-9.056 9.06-9.056 5.004 0 9.06 4.054 9.06 9.056 0 5.002-4.056 9.056-9.06 9.056z"/>
    </g>
</svg>
