<svg xmlns="http://www.w3.org/2000/svg" width="41" height="37" viewBox="0 0 41 37">
    <g fill="#061058">
        <path d="M38.21 22.343c-.811-1.314-2.526-1.737-3.989-.984l-6.709 3.444c-.55-.595-1.337-.968-2.21-.968h-4.557c-.271 0-.342-.023-.357-.03-.044-.02-.16-.13-.271-.235l-.04-.037c-3.653-3.438-6.741-3.219-10.255-1.833-.58.229-.602.23-1.173.255l-1.019.002v-.284c0-1.18-.96-2.14-2.14-2.14H2.14c-1.18 0-2.14.96-2.14 2.14v10.585c0 1.18.96 2.14 2.14 2.14h3.35c1.18 0 2.14-.96 2.14-2.14v-.282h1.857c.178 0 .178 0 .378.056l2.396.643c.065.018.13.026.195.026.333 0 .638-.223.728-.56.108-.402-.13-.816-.533-.924l-2.378-.638c-.311-.087-.417-.112-.786-.112H7.63v-7h.989l.034-.001.063-.003c.684-.03.875-.05 1.66-.359 3.143-1.24 5.569-1.387 8.666 1.527l.038.036c.509.481.802.677 1.665.677h4.558c.829 0 1.504.675 1.504 1.505 0 .829-.675 1.503-1.504 1.503l-7.385.002c-.417 0-.755.339-.755.755 0 .417.338.755.755.755l7.385-.002c1.661 0 3.013-1.352 3.013-3.013 0-.247-.03-.487-.087-.718l6.682-3.43c.659-.339 1.562-.298 2.016.436.4.646.182 1.501-.506 1.99l-10.678 7.602c-2.229 1.484-3.17 1.21-5.443.551-.346-.1-.704-.204-1.1-.311-.403-.109-.817.129-.926.531-.11.402.129.817.531.926.384.103.735.205 1.075.304 1.1.32 2.025.588 2.99.588 1.087 0 2.225-.342 3.72-1.34l.019-.012 10.686-7.609c1.347-.955 1.74-2.68.916-4.014zM6.122 32.258c0 .348-.283.631-.631.631H2.14c-.348 0-.63-.283-.63-.63V21.672c0-.348.282-.63.63-.63h3.35c.348 0 .631.282.631.63v10.585zM11.517 11.368l8.336 8.045c.147.141.335.212.524.212.19 0 .378-.07.524-.212l3.035-2.927 3.035 2.927c.146.141.335.212.524.212s.378-.07.524-.212l4.816-4.645.02-.02c1.605-1.665 1.605-4.371 0-6.033-.485-.503-1.095-.837-1.77-.981.39-2.201-.274-4.46-1.826-6.066C28.161.53 26.654-.061 25.016.007c-1.554.064-3.053.702-4.223 1.796l-.077.071c-.115.108-.24.225-.337.31-.098-.085-.223-.202-.338-.31l-.076-.07C18.795.708 17.295.07 15.742.006c-1.639-.067-3.145.523-4.244 1.66-2.578 2.671-2.577 7.014 0 9.682l.019.019zm20.252-1.605c1.045 1.081 1.047 2.841.008 3.928l-4.282 4.13-4.282-4.13c-1.04-1.087-1.036-2.847.009-3.929.906-.938 2.377-.669 3.22.119l.045.042c.314.295.586.55 1.007.55.421 0 .68-.242 1.008-.549l.045-.042c.844-.789 2.315-1.059 3.222-.12zM12.584 2.716c1.608-1.666 4.457-1.581 6.35.19l.075.07c.517.484.858.803 1.37.803.51 0 .852-.32 1.369-.803l.075-.07c1.893-1.771 4.742-1.856 6.35-.19 1.275 1.32 1.781 3.205 1.374 5.015-.749.148-1.454.51-2.03 1.048l-.022.02-.022-.02c-.732-.684-1.671-1.083-2.644-1.122-1.038-.043-1.994.333-2.693 1.057-1.606 1.663-1.606 4.37 0 6.034l.019.02.694.67-2.472 2.383-7.802-7.53c-2.011-2.09-2.008-5.486.009-7.575z" transform="translate(.59 .76)"/>
        <path d="M15.73 32.068c-.417 0-.755.338-.755.755 0 .416.338.754.755.754h.002c.417 0 .754-.338.754-.754 0-.417-.34-.755-.756-.755z" transform="translate(.59 .76)"/>
    </g>
</svg>
