<svg xmlns="http://www.w3.org/2000/svg" width="41" height="40" viewBox="0 0 41 40">
    <g fill="#061058">
        <path d="M37.885 8.37h-4.358c.065-1.657-.08-3.145-.432-4.433-.522-1.91-1.686-3.228-3.28-3.714-.052-.015-1.292-.377-3.058-.013-1.507.311-3.718 1.228-5.87 3.808-.492-.206-1.032-.32-1.597-.32h-.091c-.532 0-1.041.1-1.51.284C15.543 1.423 13.34.515 11.838.208c-1.76-.36-2.994 0-3.049.016-1.59.485-2.754 1.804-3.276 3.713-.352 1.288-.497 2.776-.433 4.433H.755c-.417 0-.755.338-.755.755v6.042c0 .416.338.754.755.754h1.367v19.907c0 1.476 1.2 2.677 2.677 2.677h29.042c1.476 0 2.677-1.2 2.677-2.677V15.92h1.367c.417 0 .755-.338.755-.754V9.124c0-.416-.338-.754-.755-.754zm-8.5-6.7c1.449.445 2.034 1.86 2.254 2.665.31 1.137.44 2.52.377 4.035h-8.573c.011-.105.019-.211.022-.318l3.072-1.55c.372-.188.521-.642.333-1.014s-.641-.521-1.014-.334l-2.634 1.33c-.224-.627-.592-1.185-1.063-1.634 1.454-1.703 3.072-2.76 4.817-3.143 1.385-.304 2.356-.051 2.408-.037zm-5.386 12.742H14.64V9.879H24v4.533zm-4.71-9.205c1.472 0 2.67 1.211 2.67 2.7 0 .156-.014.31-.04.463h-5.35c-.026-.152-.04-.307-.04-.464 0-1.488 1.198-2.699 2.67-2.699h.09zM6.969 4.335c.22-.805.805-2.22 2.254-2.665.053-.015 1.02-.266 2.398.035 1.727.376 3.331 1.413 4.775 3.084-.49.447-.875 1.01-1.11 1.645l-2.535-1.28c-.372-.187-.826-.038-1.014.334-.187.372-.038.826.334 1.014l2.951 1.49c.003.127.01.253.025.378H6.59c-.062-1.514.067-2.898.378-4.035zM1.509 9.879h11.623v4.533H1.509V9.879zm2.122 6.042H14.95v21.075H4.8c-.645 0-1.17-.524-1.17-1.168V15.92zm31.378 19.907c0 .644-.524 1.168-1.168 1.168H23.69V25.301c0-.417-.339-.755-.755-.755-.417 0-.755.338-.755.755v11.695h-5.722V15.921h5.722v2.557c0 .416.338.754.755.754.416 0 .754-.338.754-.754V15.92h11.32v19.907zm2.122-21.416H25.508V9.879h11.623v4.533z" transform="translate(.59 .45)"/>
        <path d="M22.936 22.63c-.317 0-.603-.204-.71-.5-.106-.292-.015-.629.222-.83.246-.21.61-.237.886-.066.264.165.402.484.341.789-.069.348-.384.607-.74.607z" transform="translate(.59 .45)"/>
    </g>
</svg>
