<svg xmlns="http://www.w3.org/2000/svg" width="31" height="40" viewBox="0 0 31 40">
    <g fill="#061058">
        <path d="M3.056 14.34c0 6.241 5.079 11.32 11.32 11.32 6.243 0 11.321-5.079 11.321-11.32 0-6.243-5.078-11.321-11.32-11.321s-11.32 5.078-11.32 11.32zm11.32-9.812c5.41 0 9.812 4.401 9.812 9.811s-4.401 9.811-9.811 9.811-9.811-4.401-9.811-9.81c0-5.41 4.4-9.812 9.81-9.812z" transform="translate(1.42 .76)"/>
        <path d="M7.388 12.994l2.925 2.882-.673 4.05c-.047.283.07.567.3.735.232.168.538.19.792.06l3.645-1.893 3.644 1.892c.252.13.558.11.791-.059.232-.168.348-.452.301-.734l-.673-4.051 2.926-2.882c.203-.2.276-.5.188-.771-.089-.272-.323-.47-.606-.513l-4.06-.611-1.836-3.674c-.128-.255-.39-.417-.675-.417-.286 0-.547.162-.675.417L11.865 11.1l-4.06.61c-.283.043-.517.242-.605.514-.089.272-.016.57.188.77zm5.09-.461c.242-.037.452-.19.562-.409l1.337-2.674 1.337 2.674c.11.22.32.372.562.409l2.955.445-2.13 2.097c-.174.173-.254.42-.214.662l.49 2.948-2.653-1.377c-.108-.057-.228-.085-.347-.085-.12 0-.239.028-.348.085l-2.653 1.377.49-2.948c.04-.243-.04-.49-.215-.662l-2.129-2.097 2.955-.445zM15.131.755c0 .417-.337.754-.754.754s-.755-.337-.755-.754S13.96 0 14.377 0s.754.338.754.755z" transform="translate(1.42 .76)"/>
        <path d="M10.82.445C4.472 2.065.038 7.779.038 14.339c0 4.074 1.713 7.914 4.72 10.633L.211 32.985c-.146.258-.128.577.047.816.174.24.473.355.763.295l5.164-1.072 1.814 5.114c.099.278.35.473.645.5.294.025.576-.123.722-.38l5.01-8.808 5.01 8.808c.136.238.387.382.657.382l.066-.003c.294-.026.546-.221.645-.5l1.815-5.113 5.163 1.072c.29.06.589-.055.763-.295.175-.239.193-.558.047-.816l-4.547-8.013c3.007-2.72 4.72-6.559 4.72-10.633 0-6.56-4.433-12.274-10.781-13.894-.405-.103-.815.14-.918.544-.104.404.14.815.544.918 5.68 1.45 9.646 6.562 9.646 12.432 0 7.144-5.801 12.83-12.83 12.83-7.032 0-12.829-5.69-12.829-12.83 0-5.87 3.967-10.982 9.646-12.432.404-.103.648-.514.545-.918-.103-.404-.514-.647-.918-.544zM8.87 36.078l-1.483-4.18c-.126-.355-.495-.563-.865-.486l-4.175.867 3.599-6.342c2.098 1.526 4.582 2.455 7.165 2.685l-4.24 7.456zm13.36-4.666c-.368-.077-.738.131-.864.487l-1.483 4.18-4.24-7.457c2.583-.23 5.067-1.16 7.165-2.685l3.598 6.342-4.175-.867z" transform="translate(1.42 .76)"/>
    </g>
</svg>
