<svg xmlns="http://www.w3.org/2000/svg" width="41" height="36" viewBox="0 0 41 36">
    <path fill="#061058" d="M24.952 2.424l.665-.243c2.681-.995 3.962-1.186 5.722-.436.284.12.476.384.508.686l.005.091v6.184c0 .28-.138.542-.37.699-.233.157-.527.188-.787.084-1.258-.504-2.217-.367-4.348.41l-.668.246c-1.454.525-2.211.709-3.184.709-.31 0-.617-.026-.921-.08l-.246-.05v3.407l.012.008c.096.064.183.14.26.226l.072.09.066.097 12.097 19.66 4.085.002-7.677-12.478-.94 1.528c-.177.287-.525.405-.832.303l-.076-.03-.074-.04c-.312-.191-.424-.584-.273-.908l.04-.074 1.017-1.654c.245-.398.671-.636 1.138-.636.431 0 .827.203 1.078.547l.06.089 7.841 12.745c.254.411.265.93.029 1.351-.218.39-.615.643-1.055.68l-.111.004H3.115c-.483 0-.93-.262-1.166-.684-.216-.387-.225-.854-.03-1.246l.059-.105L9.819 20.86c.245-.398.671-.636 1.138-.636.431 0 .827.203 1.078.547l.06.089 1.742 2.833 5.625-9.142c.082-.133.185-.25.305-.345l.092-.068.012-.008V3.411c0-.027.002-.054.005-.077l.004-.03.006-.019v-.02c0-.242.123-.467.326-.599.203-.132.458-.151.68-.053.887.397 1.772.436 2.825.188l.205-.05c.303-.078.6-.173 1.03-.327zM20.6 15.427l-8.502 13.819c-.207.336-.646.44-.982.234-.312-.192-.425-.585-.274-.909l.04-.073 2.117-3.442-2.042-3.32-7.678 12.478h4.085l2.183-3.547c.192-.312.585-.424.909-.273l.073.04c.312.191.424.584.274.908l-.04.073-1.722 2.799h23.118L20.6 15.427zm5.042-11.735c-1.899.68-2.955.87-4.219.59l-.11-.026v4.982l.071.024c.668.2 1.349.207 2.12.051l.212-.046.205-.05c.37-.096.732-.217 1.34-.439l.432-.16c2.125-.788 3.268-1.032 4.625-.732l.107.024V2.927l-.018-.006c-1.106-.358-2.013-.22-3.851.438l-.914.333z"/>
</svg>
