<svg xmlns="http://www.w3.org/2000/svg" width="41" height="40" viewBox="0 0 41 40">
    <g fill="#061058" transform="translate(.59 .07)">
        <path d="M25.429 29.528c-2.621.327-5.046.85-7.276 1.573v-1.575h2.41c.219 0 .42-.119.527-.31.106-.192.1-.426-.017-.612l-.93-1.488h.42c.213 0 .411-.113.52-.297.108-.184.11-.412.006-.599l-3.013-5.423c-.106-.191-.307-.31-.526-.31-.219 0-.42.119-.527.31l-3.012 5.423c-.104.187-.102.414.007.599.108.184.306.297.52.297h.418l-.93 1.488c-.116.186-.122.42-.016.612.106.191.308.31.527.31h2.41v1.808c0 .058.009.117.026.173-2.39.876-4.522 1.989-6.398 3.338-1.274-.337-2.567-.598-3.871-.782V32.54h2.41c.219 0 .421-.119.527-.31.106-.192.1-.426-.016-.612l-.93-1.488h.419c.213 0 .411-.113.52-.297.108-.184.11-.412.006-.598L6.628 23.81c-.107-.191-.308-.31-.527-.31-.219 0-.42.119-.526.31l-3.013 5.424c-.104.186-.102.414.007.598.108.184.306.297.52.297h.419l-.93 1.488c-.117.186-.123.42-.017.612.106.191.308.31.527.31h2.41v1.372c-1.6-.175-3.21-.26-4.82-.257-.333 0-.603.27-.603.602 0 .333.27.603.603.603 4.235 0 7.51.583 9.831 1.226.016.004.031.01.047.012.661.185 1.244.373 1.75.554 2.468.885 3.661 1.78 3.672 1.789.263.2.64.149.84-.113.203-.263.155-.639-.106-.843-.11-.084-1.592-1.195-4.653-2.198 3.583-2.356 8.123-3.89 13.519-4.562.328-.043.56-.343.52-.672-.041-.329-.34-.563-.67-.524zM4.175 31.334l.93-1.489c.117-.185.123-.42.017-.611-.106-.192-.308-.31-.527-.31h-.483l1.99-3.58 1.988 3.58h-.483c-.219 0-.42.118-.527.31-.106.192-.1.426.017.611l.93 1.489H4.174zm11.449-3.013l.93-1.488c.117-.186.123-.42.017-.612s-.308-.31-.527-.31h-.483l1.989-3.58 1.988 3.58h-.482c-.219 0-.42.118-.527.31-.106.192-.1.426.017.612l.93 1.488h-3.852zM23.632 4.587c.279 0 .52-.19.586-.461.065-.271-.064-.551-.312-.678-.247-.127-.55-.067-.731.144-.182.211-.195.52-.032.745.114.157.296.25.49.25z"/>
        <path d="M31.12 17.515l-2.547 2.546c-.152.153-.212.374-.156.582.055.208.218.37.426.427.208.055.43-.004.582-.156l3.013-3.013 1.864-1.865 3.219 5.364c.17.285.541.378.826.207.286-.172.378-.542.207-.827l-3.615-6.026c-.096-.159-.26-.265-.443-.288-.185-.023-.369.04-.5.172l-2.021 2.021-3.123-2.602-3.12-4.8c.083-.057.16-.12.233-.189.392-.366.617-.876.624-1.412-.003-.4-.132-.788-.367-1.11l-.692-.959c-.113-.157-.295-.25-.489-.25-.226 0-.433.126-.536.328-.103.201-.085.443.048.627l.691.958c.089.117.138.26.14.406-.006.205-.095.399-.247.536-.192.175-.444.27-.704.264h-.004c-.338 0-.662-.162-.825-.41l-.393-.592c-.343-.488-.902-.777-1.498-.777s-1.154.29-1.497.777l-.902 1.355c-.339.514-.97.832-1.651.832h-.005c-.49.01-.969-.16-1.342-.478-.04-.057-.091-.107-.149-.146-.267-.284-.418-.656-.425-1.046.002-.303.097-.597.273-.844l3.843-5.62c.145-.198.377-.31.622-.302.239-.007.467.1.614.29l.64.887c.113.157.295.25.489.25.126 0 .25-.04.352-.114.27-.195.33-.571.136-.841l-.64-.888c-.185-.256-.433-.462-.72-.596C21.08.066 20.784 0 20.484 0h-.007c-.641-.007-1.245.302-1.614.826l-3.843 5.62c-.542.77-.635 1.77-.243 2.626.079.176.176.343.288.499l-1.999 2.998c-.12.179-.136.41-.04.603.095.194.287.322.502.335.216.014.422-.09.541-.27l1.898-2.846c.511.302 1.095.459 1.688.455h.003c.526 0 1.045-.123 1.514-.36.461-.234.855-.581 1.145-1.009l.902-1.356c.115-.155.298-.244.49-.24h.008c.193-.004.376.085.49.24l.394.592c.415.601 1.102.956 1.832.948h.003l.12-.003 3.069 4.723-1.463 1.462c-.057.058-.103.127-.133.203l-1.205 3.013c-.124.309.027.66.336.783s.66-.027.783-.336l1.16-2.898 1.33-1.331 2.686 2.238zM4.556 13.198l-.106.172c-.448.717-.463 1.622-.038 2.352L.166 22.581c-.119.183-.13.416-.028.609.102.193.3.316.519.32.218.006.422-.107.533-.295l4.102-6.626c.339.186.718.283 1.104.283h.005c.767 0 1.484-.383 1.908-1.021.327-.492.879-.787 1.47-.787h.005c.305 0 .606-.066.883-.192l3.966 6.405c.178.274.543.356.822.184.278-.173.368-.536.202-.818l-4.07-6.574c.442-.692.446-1.576.011-2.272l-1.55-2.505c-.326-.53-.904-.854-1.528-.856h-.012c-.507 0-.99.213-1.332.588-.224.246-.206.627.04.851.247.224.629.205.852-.041.129-.138.314-.208.5-.19.188.018.356.123.456.283l1.55 2.504c.093.146.142.316.143.489-.001.244-.097.48-.266.655-.175.184-.419.287-.673.284-.993-.001-1.921.496-2.471 1.323l-.005.007c-.203.3-.54.478-.901.478-.296.004-.58-.116-.784-.33-.196-.206-.307-.479-.308-.763 0-.202.058-.4.165-.57l.107-.171c.084-.136.11-.3.074-.455-.036-.156-.133-.29-.27-.374-.282-.176-.653-.089-.829.194z"/>
        <path d="M6.02 11.978c.244.152.562.11.759-.1.197-.21.217-.53.05-.764-.169-.234-.479-.317-.74-.197-.263.119-.404.407-.338.687.036.156.133.29.269.374zM38.568 30.413c.106-.196.095-.434-.029-.619l-1.786-2.678h1.284c.232 0 .443-.133.543-.342.1-.209.073-.456-.072-.637l-4.82-6.026c-.115-.143-.288-.226-.471-.226s-.356.083-.47.226l-4.822 6.026c-.144.18-.173.428-.072.637.1.21.312.342.543.342h1.284l-1.785 2.678c-.123.185-.135.423-.03.619.105.196.31.318.531.318h1.284l-1.785 2.679c-.124.185-.135.422-.03.618.105.197.309.319.531.319h2.88l-.36 1.807H29.6c-.332 0-.602.27-.602.603 0 .333.27.603.602.603h7.231c.333 0 .603-.27.603-.603 0-.333-.27-.603-.603-.603h-1.314l-.361-1.807h2.88c.223 0 .427-.122.532-.319.105-.196.093-.433-.03-.618l-1.786-2.679h1.284c.223 0 .427-.122.531-.318zm-6.424 5.741l.361-1.807h1.423l.362 1.807h-2.146zm3.483-6.628h-2.41c-.333 0-.603.27-.603.603 0 .332.27.602.603.602h2.087l1.607 2.41h-7.389l1.786-2.678c.123-.185.134-.423.03-.618-.105-.196-.31-.319-.531-.319h-1.285l1.786-2.678c.123-.185.134-.423.03-.619-.105-.196-.31-.318-.531-.318H29.65l3.567-4.459 3.566 4.459h-3.566c-.333 0-.603.27-.603.602 0 .333.27.603.603.603h2.087l1.607 2.41h-1.284zM25.3 26.216c.108-.184.11-.411.007-.598l-3.012-5.424c-.107-.19-.308-.31-.527-.31-.219.001-.42.12-.526.311l-1.005 1.807c-.078.14-.097.305-.053.459.044.154.147.284.287.36.29.163.658.058.82-.233l.477-.86 1.988 3.58h-.482c-.219 0-.42.119-.527.31-.106.192-.1.426.017.612l.93 1.488H22.37c-.333 0-.603.27-.603.603 0 .333.27.603.603.603h2.41c.219 0 .42-.12.527-.31.106-.193.1-.427-.017-.612l-.93-1.489h.42c.213 0 .41-.113.52-.297z"/>
        <circle cx="33.217" cy=".603" r="1"/>
        <circle cx="28.396" cy="4.218" r="1"/>
        <circle cx="30.807" cy="12.654" r="1"/>
        <circle cx="36.832" cy="13.859" r="1"/>
        <circle cx="34.422" cy="7.231" r="1"/>
        <circle cx="10.922" cy=".603" r="1"/>
        <circle cx="12.729" cy="4.393" r="1"/>
        <circle cx=".678" cy="12.654" r="1"/>
        <circle cx="4.293" cy="3.013" r="1"/>
    </g>
</svg>
