<svg xmlns="http://www.w3.org/2000/svg" width="41" height="34" viewBox="0 0 41 34">
    <g fill="#061058">
        <path d="M35.301 3.854c-.14-.141-.335-.222-.533-.222-.2 0-.394.08-.535.222-.14.14-.22.334-.22.533s.08.393.22.534c.141.14.335.221.535.221.198 0 .392-.08.533-.221.14-.14.22-.335.22-.534s-.08-.393-.22-.533zM17.967 21.628c-.141-.14-.335-.22-.534-.22s-.393.08-.534.22c-.14.14-.22.335-.22.534s.08.393.22.534c.141.14.335.22.534.22s.393-.08.534-.22c.14-.14.22-.335.22-.534 0-.2-.08-.393-.22-.534z" transform="translate(.59 .07)"/>
        <path d="M37.13 6.36c-.207-.362-.668-.489-1.03-.283-.362.206-.489.667-.283 1.03 2.242 3.942 1.565 8.938-1.646 12.149l-.572.572c-.138-.363-.352-.703-.644-.995L25.2 11.078c.507-.25.976-.582 1.387-.993l1.487-1.488c.295-.295.295-.772 0-1.067-.294-.295-.772-.295-1.067 0L25.52 9.017c-.7.699-1.628 1.084-2.616 1.084H19.93c-.2 0-.392.08-.533.22l-2.276 2.277c-.676.676-1.776.676-2.452 0-.676-.676-.676-1.776 0-2.452l5.196-5.196C23.041 1.774 28 1.076 31.921 3.252c.365.202.824.07 1.027-.294.202-.365.07-.824-.294-1.027C30.49.731 27.94.251 25.476.58c-2.308.307-4.42 1.273-6.15 2.806C17.198 1.501 14.491.47 11.625.47 8.52.47 5.6 1.679 3.404 3.875 1.209 6.07 0 8.99 0 12.095c0 3.105 1.21 6.024 3.405 8.22l.284.285c.05.05.105.09.163.122.05.653.324 1.292.822 1.79.555.555 1.283.832 2.011.832l.114-.003-.003.115c0 .76.296 1.474.833 2.011.555.555 1.283.832 2.011.832l.114-.003c-.002.038-.003.077-.003.115 0 .76.296 1.474.833 2.011.555.555 1.283.832 2.011.832l.115-.003c-.03.766.245 1.542.829 2.126.537.537 1.251.833 2.01.833.76 0 1.475-.296 2.012-.833l1.055-1.055 1.425 1.425c.537.537 1.251.833 2.01.833.76 0 1.475-.296 2.012-.833.59-.59.866-1.379.828-2.154.047.003.095.004.142.004.729 0 1.457-.277 2.011-.832.584-.583.86-1.359.83-2.125l.114.003c.76 0 1.474-.296 2.011-.833.584-.583.86-1.359.83-2.124l.114.002c.76 0 1.474-.296 2.011-.833.273-.273.478-.588.617-.924.073-.036.142-.083.203-.144l1.464-1.464c3.69-3.69 4.468-9.432 1.891-13.963zM6.684 21.836c-.356 0-.691-.139-.943-.391s-.391-.587-.391-.944c0-.356.138-.691.39-.944l1.301-1.3c.252-.252.588-.391.944-.391s.692.139.944.39c.52.521.52 1.368 0 1.888l-1.3 1.301c-.253.252-.588.39-.945.39zM8.697 24.4c-.252-.252-.391-.587-.391-.944 0-.356.139-.691.39-.944l1.301-1.3c.252-.252.588-.391.944-.391.357 0 .692.139.944.39.52.521.52 1.368 0 1.888l-1.3 1.3c-.521.521-1.368.521-1.888 0zm2.954 2.955c-.252-.252-.39-.588-.39-.944s.138-.692.39-.944l1.301-1.3c.252-.253.587-.391.944-.391.356 0 .692.138.944.39.52.521.52 1.368 0 1.888l-1.301 1.3c-.52.521-1.367.521-1.888 0zm6.144 1.654l-1.301 1.3c-.252.253-.587.392-.944.392-.356 0-.692-.139-.944-.391-.52-.52-.52-1.367 0-1.888l1.301-1.3c.252-.253.587-.391.944-.391.356 0 .691.138.944.39.252.253.39.588.39.944 0 .357-.138.692-.39.944zm14.092-7.221c-.252.252-.587.39-.943.39-.357 0-.692-.138-.944-.39l-3.142-3.142-2.955-2.955c-.294-.294-.772-.294-1.067 0-.295.295-.295.773 0 1.068l6.096 6.096c.52.52.52 1.367 0 1.888-.252.252-.587.39-.943.39-.357 0-.692-.138-.944-.39l-6.097-6.097c-.294-.294-.772-.294-1.067 0-.295.295-.295.773 0 1.068l2.954 2.954 3.143 3.142c.52.52.52 1.367 0 1.888-.52.52-1.368.52-1.888 0l-3.142-3.142c-.058-.058-.123-.104-.192-.14l-.896-.895c-.295-.295-.773-.295-1.068 0-.295.294-.295.772 0 1.067l4.204 4.204c.52.52.52 1.367 0 1.887-.252.252-.587.391-.944.391-.356 0-.692-.139-.944-.39l-1.6-1.6c.123-.32.187-.662.187-1.015 0-.76-.296-1.474-.833-2.01-.537-.538-1.251-.834-2.011-.834-.038 0-.077.001-.115.003.03-.766-.245-1.542-.829-2.125-.537-.537-1.251-.833-2.01-.833-.04 0-.077.001-.116.003.03-.766-.245-1.541-.829-2.125-.537-.537-1.251-.833-2.01-.833-.04 0-.077.002-.115.003.03-.766-.246-1.541-.83-2.125-1.108-1.109-2.913-1.109-4.022 0l-1.3 1.301c-.165.164-.304.344-.42.534-1.772-1.883-2.745-4.331-2.745-6.93 0-2.701 1.052-5.242 2.963-7.152 1.91-1.91 4.45-2.963 7.153-2.963 2.455 0 4.777.87 6.614 2.462l-4.638 4.638c-.613.612-.95 1.427-.95 2.293 0 .866.337 1.68.95 2.293.632.632 1.463.949 2.293.949.83 0 1.661-.316 2.293-.949l2.056-2.055h2.66c.22 0 .437-.015.652-.042l8.332 8.332c.52.52.52 1.368 0 1.888z" transform="translate(.59 .07)"/>
    </g>
</svg>
