<svg xmlns="http://www.w3.org/2000/svg" width="35" height="40" viewBox="0 0 35 40">
    <path fill="#061058" d="M11.385.644c1.362-.106 2.547.843 2.786 2.135l.02.13.011.108.065-.034c.615-.312 1.283-.505 1.976-.565l.232-.015.234-.005c2.716 0 5 2.022 5.36 4.679l.009.077h.904c.31 0 .568.215.636.503l.013.074.004.076c0 .335-.252.61-.577.649l-.076.004h-.904l-.01.082c-.32 2.338-2.136 4.204-4.45 4.598l-.174.026-.082.01v5.06l3.498-.908-.026-3.182c-.006-.726.235-1.416.683-1.974l.107-.127.115-.121c.55-.554 1.3-.877 2.096-.918l.171-.005h3.774V8.46h-2.217c-.31 0-.568-.215-.636-.503l-.013-.074-.004-.076c0-.335.252-.61.576-.648l.077-.005h4.205c1.42 0 2.595 1.134 2.62 2.53.013.705-.255 1.369-.754 1.868-.45.45-1.036.713-1.664.75l-.158.005h-5.814c-.518 0-1.009.2-1.353.557-.297.31-.472.705-.5 1.129l-.005.142.028 3.424 5.002 5.002c.874.874.935 2.258.184 3.203l-.087.103-.097.103-2.493 2.492 4.703 1.333c1.715.486 2.943 2.005 3.082 3.76l.01.164.003.167c0 .392-.054.783-.162 1.162-.52 1.84-2.207 3.095-4.095 3.095-.31 0-.622-.034-.928-.103l-.23-.058-17.546-4.971c-.346-.098-.548-.46-.45-.806.092-.322.41-.519.732-.467l.074.017 17.546 4.97c1.565.443 3.198-.469 3.641-2.033.075-.263.112-.534.112-.806 0-1.264-.82-2.394-2.011-2.794l-.134-.041-5.162-1.463.023.044c.46.964.33 2.121-.346 2.959l-.096.112-.102.108-.28.28c-.122.122-.288.19-.462.19-.146 0-.286-.048-.4-.136l-.064-.058-1.398-1.421-.063-.045-.058-.052-2.457-2.514c-.232-.237-.247-.604-.048-.858l.054-.061.125-.126-.193-.055-1.43 1.423.05.083c.175.308.289.645.336.998l.018.177.007.18c.006.701-.266 1.386-.748 1.92l-.107.112-.242.242c-.122.123-.288.192-.462.192-.145 0-.285-.048-.398-.136l-.065-.057-1.399-1.423-.063-.045-.058-.052-2.458-2.514c-.23-.237-.246-.604-.047-.858l.054-.061 1.694-1.688-5.606-1.588c-1.473-.417-3.006.367-3.551 1.765l-.048.133-.042.136c-.075.263-.113.534-.113.805 0 1.265.82 2.394 2.012 2.795l.134.041 1.76.499c.347.098.549.46.45.806-.09.322-.408.519-.73.467l-.075-.017-1.761-.499c-1.823-.516-3.096-2.199-3.096-4.092 0-.392.055-.783.162-1.161.626-2.207 2.893-3.514 5.103-2.974l.15.04 6.313 1.788 1.133-1.128-2.005-2.005c-.977-.977-1.556-2.246-1.655-3.61l-.012-.217-.003-.207V14.12c0-.964-.753-1.753-1.703-1.81l-.11-.003H3.648c-1.42 0-2.595-1.135-2.619-2.532-.012-.705.256-1.368.754-1.866.448-.449 1.035-.712 1.664-.75l.158-.005h7.734l.018-.133c.043-.297.11-.587.202-.87l.073-.211.024-.062-.064.002c-1.427 0-2.58-1.141-2.62-2.545l-.001-.133.006-.133c.088-1.24 1.054-2.253 2.275-2.411l.132-.014zm9.743 26.384l-1.584 1.577 1.898 1.945.061.043.056.05 1.027 1.043.004-.005c.378-.548.344-1.292-.087-1.803l-.08-.088c-.234-.236-.251-.605-.053-.86l.055-.061.271-.272-1.568-1.569zm-7.101.022l-1.563 1.554 1.898 1.946c.021.013.042.028.061.043l.056.05 1.027 1.043.01-.013c.144-.21.23-.453.252-.708l.005-.129c0-.397-.155-.77-.435-1.051-.123-.123-.192-.289-.192-.462 0-.145.048-.284.135-.398l.057-.064.25-.25-1.561-1.561zm7.293-8.492l-7.996 2.078.039.06c.117.172.245.335.386.49l.144.15 2.468 2.468c.123.123.191.29.191.463 0 .144-.048.284-.135.397l-.057.065-1.408 1.4 1.56 1.56 2.655-2.643c.405-.404.429-1.05.071-1.483l-.072-.079-.836-.836c-.377-.377-.49-.94-.285-1.432.204-.492.68-.81 1.213-.81.42 0 .923.194 1.253.475l.086.079 2.844 2.844c.123.123.192.29.191.463 0 .144-.048.284-.135.397l-.057.064-1.387 1.38 1.566 1.566 2.628-2.627c.405-.405.429-1.05.071-1.484l-.071-.078-4.927-4.927zm-2.008 3.158l-.06-.005-.003.01.84.84c.907.907.94 2.36.098 3.307l-.097.102-.933.929.195.054 2.702-2.689-2.38-2.381c-.066-.066-.244-.145-.362-.167zM11.34 8.46H5.637V11h3.848c1.672 0 3.041 1.323 3.116 2.977l.003.142v4.105c0 .37.046.734.135 1.087l.032.117 3.285-.853v-5.4l-.082-.01c-2.396-.327-4.297-2.228-4.624-4.624l-.01-.082zm9.412.042l.006-.042h-1.311v.485c0 .334-.252.61-.577.648l-.076.005c-.335 0-.61-.252-.648-.577l-.005-.076V8.46h-1.486v.485c0 .334-.252.61-.576.648l-.076.005c-.335 0-.611-.253-.649-.577l-.004-.076V8.46h-2.691l.007.042c.325 1.898 1.946 3.331 3.885 3.406l.158.003c2.008 0 3.71-1.46 4.043-3.41zm9.016-.042h-.682V11h.727c.339 0 .657-.132.898-.372.246-.246.378-.573.372-.922-.012-.654-.547-1.193-1.214-1.243l-.1-.004zm-25.437 0h-.725c-.302 0-.587.104-.815.296l-.083.076c-.246.246-.378.573-.372.921.01.655.545 1.195 1.212 1.245l.1.003h.683V8.46zM16.71 3.704c-2.008 0-3.71 1.46-4.043 3.408l-.006.042h8.098l-.006-.042c-.325-1.898-1.946-3.33-3.885-3.405l-.158-.003zm-5.116-1.762c-.725 0-1.316.59-1.316 1.316 0 .726.59 1.316 1.316 1.316.726 0 1.317-.59 1.317-1.316 0-.726-.591-1.316-1.317-1.316z"/>
</svg>
