<svg xmlns="http://www.w3.org/2000/svg" width="41" height="40" viewBox="0 0 41 40">
    <g fill="#061058">
        <path d="M19.253 4.91c.42 0 .76-.34.76-.76V.76c0-.42-.34-.76-.76-.76s-.76.34-.76.76v3.39c0 .42.34.76.76.76zM37.831 26.111l-1.343-1.339c-.477-.477-1.114-.74-1.792-.74-.434 0-.85.108-1.22.31l-2.53-2.527.124-.123c1.026-1.028 1.026-2.7 0-3.725-.367-.367-.825-.612-1.323-.715.068-.237.105-.485.105-.74 0-.705-.275-1.367-.771-1.862-.367-.367-.824-.612-1.323-.715.068-.237.105-.486.105-.74 0-.706-.275-1.368-.772-1.863-.375-.375-.837-.612-1.322-.713.26-.895.038-1.9-.665-2.605-.586-.583-1.38-.834-2.146-.752l-5.014-.95c-.764-.144-1.72-.24-2.322.31-.038.034-.077.074-.115.118-.935-.34-2.025-.137-2.773.61-.497.496-.77 1.158-.77 1.864 0 .254.036.502.104.739-.498.103-.955.348-1.32.714-.498.495-.772 1.156-.773 1.861 0 .255.036.504.105.742-.498.102-.956.347-1.322.713-.498.497-.772 1.159-.772 1.864 0 .54.162 1.055.46 1.49-.377.128-.722.34-1.012.63-1.027 1.025-1.027 2.697 0 3.727l.124.122-2.53 2.526c-.941-.443-2.1-.277-2.876.498L.808 26.18c-.477.477-.74 1.114-.74 1.792 0 .68.263 1.316.74 1.793l1.677 1.675c.297.297.778.296 1.075 0 .297-.298.296-.779 0-1.076L1.882 28.69c-.19-.19-.295-.445-.295-.718 0-.272.104-.527.294-.716l1.344-1.34c.336-.335.85-.385 1.24-.152.027.041.059.08.095.117.065.065.14.115.219.152l7.704 7.693c.037.08.087.155.153.22.064.065.136.114.214.15.163.185.253.42.253.671 0 .273-.105.527-.295.717l-1.343 1.341c-.396.395-1.041.395-1.437.001L8.353 35.15c-.297-.296-.778-.296-1.075 0-.297.297-.297.778 0 1.075l1.678 1.678c.494.492 1.142.738 1.791.738s1.298-.246 1.793-.739l1.343-1.341c.478-.477.74-1.114.74-1.793 0-.484-.134-.947-.384-1.346l2.848-2.844.009-.01c.326-.337 1.234-.274 2.112-.213.624.044 1.32.092 2 .014l3.118 3.115c-.202.368-.31.784-.31 1.217 0 .678.263 1.314.741 1.792l1.343 1.341c.478.477 1.115.74 1.793.74.678 0 1.315-.263 1.792-.74l8.147-8.136c.477-.477.74-1.114.74-1.793 0-.679-.263-1.315-.741-1.793zM17.661 7.806l3.297.624-1.973 1.973c-.306-.147-.724-.42-1.183-.86-.628-.6-1.078-1.295-1.119-1.727v-.001c-.003-.031-.003-.056-.003-.075.1-.024.363-.051.981.066zm-3.853.62c.385-.385.983-.43 1.418-.135.247 1.034 1.129 1.971 1.525 2.35.294.282 1.238 1.126 2.19 1.357.129.185.199.405.199.638 0 .299-.115.579-.325.788-.209.21-.49.325-.789.325-.3 0-.58-.115-.79-.326L13.807 10c-.21-.209-.324-.488-.324-.787 0-.3.115-.58.324-.788zm-1.986 3.316c.209-.209.489-.324.788-.324.3 0 .58.115.791.325l2.76 2.755c.435.435.435 1.144.002 1.577-.21.21-.492.325-.792.325-.3 0-.581-.115-.79-.324l-2.095-2.093-.01-.01-.655-.655c-.21-.21-.326-.49-.326-.789 0-.298.116-.577.327-.787zm-1.99 3.316c.21-.209.49-.324.79-.324.298 0 .576.114.784.32l2.1 2.098c.21.209.325.488.325.787 0 .3-.115.579-.325.788-.21.209-.49.324-.79.324-.3 0-.58-.115-.79-.324l-.762-.76v-.001l-1.332-1.33c-.21-.21-.325-.49-.325-.789 0-.299.115-.579.325-.789zm-1.324 3.984c.21-.21.491-.326.791-.326.3 0 .58.116.79.326l.763.761c.21.209.325.488.325.787 0 .3-.115.579-.326.789-.21.21-.49.325-.79.325-.3 0-.58-.116-.79-.327l-.095-.095-.004-.004-.004-.004-.659-.656c-.435-.435-.435-1.142 0-1.576zm15.49 8.638c-.298-.297-.779-.297-1.076 0l-.676.675c-.642.642-1.807.561-2.933.483-1.222-.085-2.487-.172-3.305.668l-2.8 2.796-7-6.99 2.477-2.474c.41.251.882.386 1.377.386.706 0 1.368-.274 1.863-.77.498-.496.773-1.158.773-1.864v-.02l.019.001c.705 0 1.367-.273 1.862-.768.498-.496.773-1.158.773-1.864v-.02l.02.001c.704 0 1.366-.272 1.865-.769.518-.519.774-1.201.769-1.883h.02c.707 0 1.369-.273 1.864-.77.497-.495.77-1.157.77-1.862 0-.494-.134-.966-.384-1.374l2.172-2.171c.161-.161.36-.262.57-.304.023-.002.045-.006.067-.01.336-.047.688.057.945.312.434.436.434 1.144.001 1.578l-.661.659-.007.006-.762.76c-.297.297-.297.778 0 1.075.296.297.778.297 1.075 0l.664-.662.1-.1c.436-.432 1.142-.432 1.578.003.21.209.325.488.325.787 0 .299-.116.578-.327.789l-.665.666-.762.759c-.297.296-.298.777-.002 1.075.296.297.777.298 1.075.002l.765-.762c.209-.21.49-.325.789-.325.3 0 .58.115.79.326.21.21.325.489.325.787 0 .3-.115.579-.326.788l-1.326 1.327c-.296.297-.296.778 0 1.075.149.148.343.222.538.222.194 0 .389-.074.537-.222l.65-.65.012-.01c.209-.21.489-.326.789-.326.3 0 .58.116.79.326.434.434.433 1.14 0 1.575l-.661.66v.001h-.001l-1.05 1.048c-.296.297-.296.778 0 1.075.149.149.343.223.538.223.194 0 .389-.074.537-.222l.513-.513 2.459 2.456-7 6.992-2.509-2.505c.175-.113.342-.245.5-.402l.675-.675c.297-.297.298-.778.001-1.075zm12.76.941l-8.147 8.137c-.19.19-.446.295-.718.295-.273 0-.528-.105-.719-.295l-1.343-1.342c-.19-.19-.295-.444-.295-.716 0-.272.105-.526.295-.716l8.147-8.136c.19-.19.445-.296.718-.296.272 0 .528.105.719.296l1.342 1.339c.19.19.295.445.295.717 0 .273-.104.527-.295.717zM9.16 4.27c.149.147.343.221.537.221.195 0 .39-.074.538-.223.297-.297.296-.778-.001-1.075L7.464.43C7.167.133 6.686.133 6.39.43c-.297.297-.296.779 0 1.075L9.16 4.27zM28.808 4.491c.194 0 .389-.074.537-.222l2.768-2.764c.297-.297.297-.778 0-1.075-.296-.297-.778-.297-1.075 0l-2.767 2.764c-.297.296-.297.777 0 1.074.148.149.342.223.537.223z" transform="translate(.9 .76)"/>
        <path d="M4.74 32.693c-.293.3-.29.78.01 1.075l.002.002c.148.146.34.218.531.218.197 0 .394-.076.543-.228.294-.3.289-.782-.01-1.076-.3-.294-.78-.29-1.075.01zM25.856 26.585c.116 0 .233-.026.343-.082.375-.189.525-.646.336-1.02-.189-.375-.646-.526-1.02-.337l-.005.002c-.374.19-.523.645-.334 1.02.134.265.402.417.68.417z" transform="translate(.9 .76)"/>
    </g>
</svg>
