<svg xmlns="http://www.w3.org/2000/svg" width="41" height="40" viewBox="0 0 41 40">
    <g fill="#061058">
        <path d="M37.727 17.816c-.578-.534-1.365-.864-2.159-.905-.901-.046-1.745.275-2.374.904l-4.297 4.251c-.084-.147-.181-.286-.29-.414-.529-.628-1.302-.974-2.176-.974h-6.015c-1.134 0-2.24-.147-3.288-.436-2.732-.756-5.341-.204-7.547 1.596-.897.733-1.552 1.53-1.966 2.11l-1.078-1.046c-.142-.138-.334-.216-.532-.216H6c-.205.001-.403.086-.545.234L.213 28.362c-.14.146-.217.341-.213.544.005.202.09.394.236.534l8.867 8.443c.147.14.335.21.524.21.198 0 .395-.077.544-.23l5.194-5.328c.141-.146.22-.345.216-.548-.003-.2-.087-.394-.231-.534l-.453-.439 1.035-.116c.627-.073 1.263-.11 1.894-.11h9.15c1.488 0 2.75-.325 3.755-.966l.024-.017c.36-.25.686-.546.97-.88l6.167-7.255c1.055-1.241.989-2.79-.165-3.854zM9.607 36.264l-7.77-7.398 4.186-4.345 7.724 7.495-4.14 4.248zm27.126-15.578l-6.166 7.255c-.196.23-.42.434-.668.608-.754.477-1.737.72-2.922.72h-9.152c-.688 0-1.384.04-2.065.119l-2.276.255L8.72 25.02c.332-.49.94-1.284 1.822-2.004 1.833-1.496 3.913-1.937 6.18-1.31 1.18.327 2.423.493 3.694.493h6.015c1.08 0 1.368.935 1.368 1.488 0 .404-.13.788-.356 1.055-.245.289-.594.435-1.036.435H21.17c-.42 0-.76.34-.76.76s.34.76.76.76h5.236c.884 0 1.663-.345 2.195-.971.442-.52.695-1.205.716-1.937l4.948-4.896c.707-.707 1.812-.53 2.43.04.32.295.75.914.037 1.753z" transform="translate(.59 .07)"/>
        <path d="M18.8 25.735c-.095-.41-.504-.663-.913-.567-.409.096-.662.505-.566.914l.007.03c.082.35.394.587.74.587.057 0 .115-.006.173-.02.41-.096.663-.505.567-.913l-.007-.031zM5.138 16.075h7.406c.404 0 .777-.131 1.08-.352.304.221.677.352 1.08.352h7.407c.404 0 .777-.131 1.08-.352.304.221.677.352 1.08.352h7.407c1.015 0 1.84-.826 1.84-1.84V10.78c0-1.552-.868-2.9-2.167-3.564.63-.76 1.009-1.733 1.009-2.795 0-2.417-1.967-4.384-4.385-4.384-2.418 0-4.385 1.967-4.385 4.384 0 1.062.38 2.036 1.01 2.795-.562.288-1.043.703-1.408 1.207-.366-.504-.846-.92-1.408-1.207.63-.76 1.008-1.733 1.008-2.795 0-2.417-1.966-4.384-4.384-4.384s-4.385 1.967-4.385 4.384c0 1.062.38 2.036 1.01 2.795-.562.288-1.043.703-1.409 1.207-.365-.504-.846-.92-1.407-1.207.63-.76 1.008-1.733 1.008-2.794 0-2.418-1.967-4.385-4.384-4.385-2.418 0-4.385 1.967-4.385 4.385 0 1.06.38 2.035 1.01 2.794-1.3.665-2.169 2.013-2.169 3.564v3.453c0 1.015.826 1.84 1.84 1.84zM27.975 1.558c1.58 0 2.865 1.285 2.865 2.864 0 1.58-1.285 2.865-2.865 2.865-1.58 0-2.864-1.285-2.864-2.865 0-1.58 1.285-2.864 2.864-2.864zM26 8.335c.594.301 1.265.472 1.975.472.71 0 1.38-.17 1.975-.472 1.18.206 2.048 1.224 2.048 2.446v3.453c0 .177-.143.32-.32.32h-7.406c-.177 0-.32-.143-.32-.32v-3.453c0-1.222.867-2.24 2.048-2.446zm-7.592-6.777c1.58 0 2.864 1.285 2.864 2.864 0 1.58-1.285 2.865-2.864 2.865-1.58 0-2.864-1.285-2.864-2.865 0-1.58 1.285-2.864 2.864-2.864zm-1.974 6.777c.593.301 1.264.472 1.974.472s1.38-.17 1.975-.472c1.18.206 2.049 1.224 2.049 2.446v3.453c0 .177-.144.32-.32.32h-7.407c-.177 0-.32-.143-.32-.32v-3.453c0-1.222.868-2.24 2.049-2.446zM8.84 1.558c1.58 0 2.864 1.285 2.864 2.864 0 1.58-1.285 2.865-2.864 2.865-1.58 0-2.864-1.285-2.864-2.865 0-1.58 1.285-2.864 2.864-2.864zm-4.023 9.223c0-1.222.868-2.24 2.048-2.446.595.301 1.265.472 1.975.472.71 0 1.38-.17 1.975-.472 1.18.206 2.048 1.224 2.048 2.446v3.453c0 .177-.143.32-.32.32H5.138c-.177 0-.32-.143-.32-.32v-3.453z" transform="translate(.59 .07)"/>
    </g>
</svg>
