<svg width="15" height="18" viewBox="0 0 15 18" fill="none" xmlns="http://www.w3.org/2000/svg">
<path d="M7.45161 10.7897C10.4209 10.7897 12.8346 8.37151 12.8346 5.39657C12.8346 2.42163 10.4209 0 7.45161 0C4.48229 0 2.06866 2.42162 2.06866 5.39315C2.06866 8.36468 4.4857 10.7897 7.45161 10.7897ZM7.45161 1.36622C9.66752 1.36622 11.4709 3.17305 11.4709 5.39315C11.4709 7.61326 9.66752 9.42009 7.45161 9.42009C5.2357 9.42009 3.43229 7.61326 3.43229 5.39315C3.43229 3.17305 5.2357 1.36622 7.45161 1.36622Z" fill="white"/>
<path d="M0 17.9999H1.36364V14.1916C1.36364 12.3096 2.89432 10.7761 4.77273 10.7761H10.2273C12.1057 10.7761 13.6364 12.3096 13.6364 14.1916V17.9999H15V14.1916C15 11.5548 12.8591 9.40984 10.2273 9.40984H4.77273C2.14091 9.40984 0 11.5548 0 14.1916V17.9999Z" fill="white"/>
</svg>
