<svg width="20" height="24" viewBox="0 0 20 24" fill="none" xmlns="http://www.w3.org/2000/svg">
<path d="M15.5405 24H4.457C3.88218 24 3.39176 23.5922 3.26402 23.0056L1.32515 14.206C1.21338 13.6956 1.32744 13.171 1.63765 12.7608C1.94787 12.353 2.4132 12.117 2.91275 12.117H17.0847C17.5843 12.117 18.0496 12.3507 18.3598 12.7608C18.67 13.1686 18.7841 13.6956 18.6723 14.206L16.7335 23.0056C16.6057 23.5922 16.1153 24 15.5405 24ZM2.91503 13.3141C2.76448 13.3141 2.62534 13.3856 2.53181 13.5072C2.43829 13.6289 2.40408 13.7886 2.43829 13.9413L4.37716 22.7409C4.38629 22.7814 4.4205 22.81 4.45928 22.81H15.5428C15.5815 22.81 15.6158 22.7814 15.6249 22.7409L17.5637 13.9413C17.598 13.7886 17.5637 13.6289 17.4702 13.5072C17.3767 13.3832 17.2376 13.3141 17.087 13.3141H2.91503Z" fill="white"/>
<path d="M19.3157 13.4693H0.684307C0.305657 13.4693 0 13.1497 0 12.7539C0 12.358 0.305657 12.0385 0.684307 12.0385H19.3157C19.6943 12.0385 20 12.358 20 12.7539C20 13.1497 19.6921 13.4693 19.3157 13.4693Z" fill="white"/>
<path d="M3.52367 5.85483C3.34119 5.85483 3.1587 5.77851 3.02184 5.62589C2.76409 5.33734 2.78005 4.88425 3.05606 4.61478L5.77047 1.97013C8.10168 -0.452741 11.8813 -0.450356 14.2057 1.97967L16.7445 4.63385C17.0114 4.91286 17.0114 5.36596 16.7445 5.64497C16.4776 5.92398 16.0442 5.92398 15.7773 5.64497L13.2385 2.99317C11.4457 1.11879 8.52595 1.11879 6.73078 2.99317L6.71254 3.00986L3.99128 5.66405C3.85898 5.79044 3.69018 5.85483 3.52367 5.85483Z" fill="white"/>
<path d="M3.52367 9.85483C3.34119 9.85483 3.1587 9.77851 3.02184 9.62589C2.76409 9.33734 2.78005 8.88425 3.05606 8.61477L5.77047 5.97013C8.10168 3.54726 11.8813 3.54964 14.2057 5.97967L16.7445 8.63385C17.0114 8.91286 17.0114 9.36596 16.7445 9.64497C16.4776 9.92398 16.0442 9.92398 15.7773 9.64497L13.2385 6.99317C11.4457 5.11879 8.52595 5.11879 6.73078 6.99317L6.71254 7.00986L3.99128 9.66405C3.85898 9.79044 3.69018 9.85483 3.52367 9.85483Z" fill="white"/>
</svg>
