<svg width="68" height="66" viewBox="0 0 68 66" fill="none" xmlns="http://www.w3.org/2000/svg">
<path d="M8.9236 23.2712L43.9235 23.1888L43.9353 28.1887L8.93538 28.2712L8.9236 23.2712Z" fill="#D91C5B"/>
<path d="M47.4617 23.2435L58.4617 23.2176L58.4735 28.2176L47.4735 28.2435L47.4617 23.2435Z" fill="#D91C5B"/>
<path d="M9.33913 30.5805L39.339 30.5099L39.3508 35.5099L9.35091 35.5805L9.33913 30.5805Z" fill="#D91C5B"/>
<path d="M47.4015 30.5564L58.8772 30.5223L58.889 35.5223L47.4133 35.5564L47.4015 30.5564Z" fill="#D91C5B"/>
<path d="M9.3989 37.636L44.3988 37.5536L44.4106 42.5536L9.41068 42.636L9.3989 37.636Z" fill="#D91C5B"/>
<path d="M43.9374 37.6086L58.9374 37.5827L58.9492 42.5827L43.9492 42.6086L43.9374 37.6086Z" fill="#D91C5B"/>
</svg>
