<svg width="14" height="20" viewBox="0 0 14 20" fill="none" xmlns="http://www.w3.org/2000/svg">
<mask id="path-1-inside-1" fill="white">
<path d="M12 0H2C0.89543 0 0 0.89543 0 2V18C0 19.1046 0.89543 20 2 20H12C13.1046 20 14 19.1046 14 18V2C14 0.89543 13.1046 0 12 0Z"/>
<path d="M8 16C8 16.5523 7.55228 17 7 17C6.44772 17 6 16.5523 6 16C6 15.4477 6.44772 15 7 15C7.55228 15 8 15.4477 8 16Z"/>
</mask>
<path d="M2 1H12V-1H2V1ZM12 1C12.5523 1 13 1.44772 13 2H15C15 0.343146 13.6569 -1 12 -1V1ZM13 2V18H15V2H13ZM13 18C13 18.5523 12.5523 19 12 19V21C13.6569 21 15 19.6569 15 18H13ZM12 19H2V21H12V19ZM2 19C1.44771 19 1 18.5523 1 18H-1C-1 19.6569 0.343146 21 2 21V19ZM1 18V2H-1V18H1ZM1 2C1 1.44772 1.44772 1 2 1V-1C0.343146 -1 -1 0.343146 -1 2H1ZM7 16V18C8.10457 18 9 17.1046 9 16H7ZM7 16H5C5 17.1046 5.89543 18 7 18V16ZM7 16V14C5.89543 14 5 14.8954 5 16H7ZM7 16H9C9 14.8954 8.10457 14 7 14V16Z" fill="white" mask="url(#path-1-inside-1)"/>
</svg>
