<svg xmlns="http://www.w3.org/2000/svg" width="60" height="60" viewBox="0 0 60 60"><defs><linearGradient id="35tha" x1="30" x2="44.09" y1="-64.18" y2="90.49" gradientUnits="userSpaceOnUse"><stop offset="0" stop-color="#ffa31a"/><stop offset="1" stop-color="#f73c71"/></linearGradient><linearGradient id="35thc" x1="13.23" x2="19.45" y1="-13.23" y2="77.72" gradientUnits="userSpaceOnUse"><stop offset="0" stop-color="#ffa31a"/><stop offset="1" stop-color="#f73c71"/></linearGradient><linearGradient id="35thd" x1="10.84" x2="11.19" y1="34.55" y2="38.41" gradientUnits="userSpaceOnUse"><stop offset="0" stop-color="#ffa31a"/><stop offset="1" stop-color="#f73c71"/></linearGradient><linearGradient id="35the" x1="15.93" x2="16.28" y1="34.55" y2="38.41" gradientUnits="userSpaceOnUse"><stop offset="0" stop-color="#ffa31a"/><stop offset="1" stop-color="#f73c71"/></linearGradient><linearGradient id="35thf" x1="13.48" x2="14.56" y1="38.88" y2="44.91" gradientUnits="userSpaceOnUse"><stop offset="0" stop-color="#ffa31a"/><stop offset="1" stop-color="#f73c71"/></linearGradient><linearGradient id="35thg" x1="44.81" x2="45.89" y1="38.88" y2="44.91" gradientUnits="userSpaceOnUse"><stop offset="0" stop-color="#ffa31a"/><stop offset="1" stop-color="#f73c71"/></linearGradient><linearGradient id="35thh" x1="44.84" x2="51.96" y1="-13.23" y2="77.72" gradientUnits="userSpaceOnUse"><stop offset="0" stop-color="#ffa31a"/><stop offset="1" stop-color="#f73c71"/></linearGradient><linearGradient id="35thi" x1="42.04" x2="42.39" y1="34.55" y2="38.41" gradientUnits="userSpaceOnUse"><stop offset="0" stop-color="#ffa31a"/><stop offset="1" stop-color="#f73c71"/></linearGradient><linearGradient id="35thj" x1="47.13" x2="47.48" y1="34.55" y2="38.41" gradientUnits="userSpaceOnUse"><stop offset="0" stop-color="#ffa31a"/><stop offset="1" stop-color="#f73c71"/></linearGradient><linearGradient id="35thk" x1="28.57" x2="36.21" y1="-25.3" y2="36.18" gradientUnits="userSpaceOnUse"><stop offset="0" stop-color="#ffa31a"/><stop offset="1" stop-color="#f73c71"/></linearGradient><linearGradient id="35thl" x1="34.16" x2="36.93" y1="4.95" y2="9.51" gradientUnits="userSpaceOnUse"><stop offset="0" stop-color="#ffa31a"/><stop offset="1" stop-color="#f73c71"/></linearGradient><linearGradient id="35thm" x1="34.16" x2="36.93" y1="8.49" y2="13.05" gradientUnits="userSpaceOnUse"><stop offset="0" stop-color="#ffa31a"/><stop offset="1" stop-color="#f73c71"/></linearGradient><linearGradient id="35thn" x1="31.73" x2="33.37" y1="12.03" y2="16.59" gradientUnits="userSpaceOnUse"><stop offset="0" stop-color="#ffa31a"/><stop offset="1" stop-color="#f73c71"/></linearGradient><clipPath id="35thb"><path d="M0 60V0h60v60z"/></clipPath></defs><g><g><path fill="url(#35tha)" d="M0 60V0h60v60z"/></g><g clip-path="url(#35thb)"><g><g><g><path fill="url(#35thc)" d="M24.698 58.02H2.591V55.33a4.147 4.147 0 0 1 3.215-4.054l.25-.059a8.991 8.991 0 0 0 3.641 3.331.886.886 0 0 0 .788-1.588A7.199 7.199 0 0 1 7.9 50.786l.693-.162a3.637 3.637 0 0 0 2.819-3.5 7.611 7.611 0 0 0 4.465-.077v.02a3.638 3.638 0 0 0 2.82 3.557l.695.162a7.094 7.094 0 0 1-5.747 2.912.886.886 0 1 0 0 1.773 8.86 8.86 0 0 0 7.59-4.254l.248.059a4.147 4.147 0 0 1 3.215 4.054zM7.651 39.785v-4.952l.01-.005a9.79 9.79 0 0 0 1.572-1.077c2.106 1.51 4.54 2.332 7.07 2.332.635 0 1.93-.127 3.078-.474v4.176a5.872 5.872 0 0 1-5.865 5.865 5.872 5.872 0 0 1-5.865-5.865zm-1.11-6.376a.885.885 0 0 0-.276.124c-.028.012-.055.026-.084.037a7.054 7.054 0 0 1 .472-2.213c.375.443.77.858 1.18 1.243a7.825 7.825 0 0 1-1.011.666c-.093.05-.187.097-.281.143zm-.662 3.265a5.131 5.131 0 0 1-4.107-5.055 5.17 5.17 0 0 1 5.164-5.163c.362 0 .721.04 1.073.114l-.185.151c-.79.673-1.49 1.517-2.08 2.509v.002c-.003.002-.004.005-.006.008l-.006.01v.002a8.81 8.81 0 0 0-1.278 5.623.886.886 0 0 0 1.094.764 9.29 9.29 0 0 0 .33-.09v1.125zM21.887 49.55l-2.786-.652a1.873 1.873 0 0 1-1.452-1.83V46.2a7.636 7.636 0 0 0 3.504-6.417v-5.52-.017a.886.886 0 0 0-1.371-.724c-.743.487-2.527.786-3.48.786-2.34 0-4.598-.836-6.516-2.364L7.61 29.6a7.834 7.834 0 0 1 1.363-1.53c2.205-1.877 4.801-1.787 4.823-1.785 1.638.084 3.193.829 4.624 2.213 1.28 1.237 2.236 3.005 2.843 5.253a.887.887 0 0 0 1.711-.461c-.691-2.562-1.809-4.603-3.322-6.066-2.176-2.106-4.336-2.636-5.764-2.71-.1-.005-1.89-.08-3.939.856a6.947 6.947 0 0 0-3.013-.688A6.944 6.944 0 0 0 0 31.618c0 1.818.698 3.536 1.967 4.839a6.893 6.893 0 0 0 3.911 2.015v1.312a7.64 7.64 0 0 0 3.763 6.577v.705c0 .878-.597 1.63-1.452 1.831l-2.787.652a5.912 5.912 0 0 0-4.583 5.78v3.578c0 .49.397.886.886.886h23.88c.489 0 .886-.396.886-.886V55.33a5.912 5.912 0 0 0-4.584-5.78z"/></g></g></g><g><g><g><path fill="url(#35thd)" d="M10.09 36.899a.748.748 0 1 1 1.497 0 .748.748 0 0 1-1.497 0z"/></g></g></g><g><g><g><path fill="url(#35the)" d="M15.179 36.899a.748.748 0 1 1 1.496 0 .748.748 0 0 1-1.496 0z"/></g></g></g><g><g><g><g><path fill="url(#35thf)" d="M14.276 41.638a1.123 1.123 0 0 1-1.587 0 .879.879 0 1 0-1.242 1.243 2.87 2.87 0 0 0 2.036.842 2.87 2.87 0 0 0 2.036-.842.879.879 0 1 0-1.243-1.243z"/></g><g><path fill="url(#35thg)" d="M44.814 43.723c.737 0 1.475-.28 2.036-.842a.879.879 0 0 0-1.243-1.243 1.123 1.123 0 0 1-1.586 0 .879.879 0 0 0-1.243 1.243 2.87 2.87 0 0 0 2.036.842z"/></g><g><path fill="url(#35thh)" d="M38.852 39.784v-4.952l.01-.005a9.786 9.786 0 0 0 1.572-1.077c2.107 1.51 4.541 2.331 7.07 2.331.635 0 1.93-.126 3.078-.474v4.177a5.872 5.872 0 0 1-5.865 5.865 5.872 5.872 0 0 1-5.865-5.865zm-1.11-6.376a.884.884 0 0 0-.276.124c-.028.012-.055.026-.083.037a7.053 7.053 0 0 1 .472-2.213c.374.443.769.858 1.18 1.243a7.848 7.848 0 0 1-1.012.666c-.092.05-.186.097-.281.143zm7.104 16.734a6.576 6.576 0 0 1-3.544-1.038 3.33 3.33 0 0 0 .704-2.038v-.144a7.595 7.595 0 0 0 2.711.5 7.596 7.596 0 0 0 2.969-.601v.245c0 .751.256 1.454.704 2.038a6.577 6.577 0 0 1-3.544 1.038zm11.95.176a.886.886 0 0 0-.848 1.556c1.427.778 2.28 2.07 2.28 3.455v2.692h-3.63v-1.05a.886.886 0 1 0-1.773 0v1.05H36.872v-1.05a.886.886 0 1 0-1.772 0v1.05h-3.636v-2.692c0-1.929 1.622-3.593 3.944-4.047l3.33-.652a4.634 4.634 0 0 0 1.12-.37 8.348 8.348 0 0 0 9.976 0c.344.165.72.291 1.12.37l2.26.442a.887.887 0 0 0 .34-1.74l-2.26-.442c-1.063-.208-1.836-.975-1.836-1.824v-1.301a7.626 7.626 0 0 0 2.896-5.981v-5.52-.016a.886.886 0 0 0-1.371-.725c-.743.487-2.527.786-3.48.786-2.34 0-4.598-.836-6.516-2.364L38.812 29.6a7.834 7.834 0 0 1 1.362-1.53c2.205-1.877 4.801-1.786 4.823-1.785 1.638.084 3.193.829 4.624 2.213 1.28 1.237 2.236 3.005 2.843 5.254a.887.887 0 0 0 1.711-.462c-.691-2.562-1.809-4.603-3.322-6.066-2.176-2.105-4.336-2.635-5.764-2.71-.133-.006-3.305-.141-6.064 2.206-.79.673-1.49 1.518-2.08 2.51l-.004.007-.008.012-.001.002a8.812 8.812 0 0 0-1.277 5.623.886.886 0 0 0 1.093.764c.112-.028.222-.058.332-.09v4.236a7.63 7.63 0 0 0 3.154 6.177v1.105c0 .849-.773 1.616-1.837 1.824l-3.33.652c-3.165.62-5.375 3-5.375 5.787v3.578c0 .49.397.886.886.886h28.536c.49 0 .886-.396.886-.886V55.33c0-2.044-1.198-3.918-3.204-5.011z"/></g></g></g></g><g><g><g><path fill="url(#35thi)" d="M41.291 36.899a.748.748 0 1 1 1.497 0 .748.748 0 0 1-1.497 0z"/></g></g></g><g><g><g><path fill="url(#35thj)" d="M46.38 36.899a.748.748 0 1 1 1.496 0 .748.748 0 0 1-1.496 0z"/></g></g></g><g><g><g><path fill="url(#35thk)" d="M40.111 21.998c-.5-.15-2.022-.607-3.26-1.814a.886.886 0 0 0-.819-.23 9.162 9.162 0 0 1-2.306.233 9.01 9.01 0 0 1-4.594-1.396.88.88 0 0 0-.136-.089 9.24 9.24 0 0 1-1.485-1.212 9.154 9.154 0 0 1-1.945-2.9 9.016 9.016 0 0 1-.704-3.336 9.045 9.045 0 0 1 2.585-6.527 9.04 9.04 0 0 1 6.519-2.748c4.99 0 9.07 4.042 9.105 9.04a9.064 9.064 0 0 1-3.4 7.162.886.886 0 0 0-.314.861c.23 1.168.607 2.192 1.122 3.057a8.135 8.135 0 0 1-.368-.1zm1.098-2.798a10.821 10.821 0 0 0 3.635-8.194C44.8 5.036 39.929.206 33.966.206l-.075.001a10.8 10.8 0 0 0-7.713 3.283 10.858 10.858 0 0 0-2.297 3.503h-4.747a.886.886 0 0 0 0 1.773h4.201a10.94 10.94 0 0 0-.232 1.766h-4.309a.886.886 0 0 0 0 1.772h4.363c.068.601.187 1.191.352 1.766h-4.375a.886.886 0 0 0 0 1.773h5.056a10.952 10.952 0 0 0 2.754 3.532 9.024 9.024 0 0 1-3.51.812 9.16 9.16 0 0 1-2.308-.232.887.887 0 0 0-.819.229c-1.237 1.207-2.76 1.664-3.26 1.814-.121.037-.244.07-.368.101.516-.865.892-1.889 1.122-3.057a.886.886 0 0 0-.314-.861 9.064 9.064 0 0 1-3.4-7.163c.035-4.997 4.114-9.039 9.106-9.039h.063a9.177 9.177 0 0 1 1.59.15.885.885 0 1 0 .319-1.744 10.96 10.96 0 0 0-1.972-.178c-5.963 0-10.836 4.829-10.878 10.799A10.82 10.82 0 0 0 15.95 19.2c-.21.832-.588 1.843-1.26 2.657a1.34 1.34 0 0 0 1.197 2.19c.565-.07 1.127-.189 1.67-.352.558-.167 2.17-.65 3.633-1.917a11 11 0 0 0 2.289.18 10.806 10.806 0 0 0 5.1-1.433 10.77 10.77 0 0 0 5.1 1.433c.771.02 1.538-.04 2.29-.18 1.464 1.267 3.075 1.75 3.633 1.917.543.163 1.105.281 1.67.351a1.332 1.332 0 0 0 1.34-.684 1.34 1.34 0 0 0-.144-1.505c-.672-.814-1.049-1.825-1.26-2.657z"/></g></g></g><g><g><g><path fill="url(#35thl)" d="M39.174 6.84H29.146a.886.886 0 0 0 0 1.772h10.028a.886.886 0 0 0 0-1.773z"/></g></g></g><g><g><g><path fill="url(#35thm)" d="M39.174 10.378H29.146a.886.886 0 0 0 0 1.772h10.028a.886.886 0 0 0 0-1.772z"/></g></g></g><g><g><g><path fill="url(#35thn)" d="M34.323 13.916h-5.177a.886.886 0 0 0 0 1.773h5.177a.886.886 0 0 0 0-1.773z"/></g></g></g></g></g></svg>