<svg xmlns="http://www.w3.org/2000/svg" width="81" height="72" viewBox="0 0 81 72"><g><g><path fill="#ff9218" d="M2.291 71.76h75.985a1.991 1.991 0 0 0 1.987-1.978l.05-9.174a1.982 1.982 0 0 0-1.988-1.987H76.09a1.982 1.982 0 0 0-1.987 1.987v3.95a.997.997 0 0 1-.994.993h-4.14a.997.997 0 0 1-.993-.994v-3.95a1.982 1.982 0 0 0-1.988-1.986h-2.235a1.982 1.982 0 0 0-1.987 1.987v3.95a.997.997 0 0 1-.994.993h-4.223a.997.997 0 0 1-.993-.994v-3.95a1.982 1.982 0 0 0-1.987-1.986h-2.236a1.982 1.982 0 0 0-1.987 1.987v3.95a.997.997 0 0 1-.994.993h-3.966a.997.997 0 0 1-.993-.994V2.227A1.982 1.982 0 0 0 41.405.238H39.17a1.982 1.982 0 0 0-1.987 1.987v62.331a.996.996 0 0 1-.994.994h-3.916a.997.997 0 0 1-.994-.994v-3.95a1.982 1.982 0 0 0-1.987-1.986h-2.236a1.982 1.982 0 0 0-1.987 1.987v3.95a.996.996 0 0 1-.993.993h-4.14a.997.997 0 0 1-.994-.994v-3.95a1.982 1.982 0 0 0-1.987-1.986h-2.236a1.982 1.982 0 0 0-1.987 1.987v3.95a.997.997 0 0 1-.993.993H7.516a.997.997 0 0 1-.994-.994v-3.95a1.982 1.982 0 0 0-1.987-1.986H2.3a1.982 1.982 0 0 0-1.988 1.987l.009 9.166a1.963 1.963 0 0 0 1.97 1.987z"/></g><g><path fill="#ff9218" d="M12.69 30.866l4.083-5.48c.67-.895 2.086-.423 2.086.695v5.481c0 .638-.521 1.16-1.159 1.16h-4.082c-.952 0-1.498-1.086-.927-1.856zm5.018 9.49c.638 0 1.16.52 1.16 1.158v6.243c0 .638.521 1.16 1.159 1.16h6.268c.637 0 1.159-.522 1.159-1.16v-6.243c0-.637.522-1.159 1.159-1.159h2.6c.637 0 1.16-.521 1.16-1.159V33.88c0-.637-.523-1.159-1.16-1.159h-2.6c-.637 0-1.16-.521-1.16-1.159V11.624c0-.637-.52-1.16-1.158-1.16h-6.061a1.16 1.16 0 0 0-.928.465L3.79 31.744a2.925 2.925 0 0 0-.58 1.739v5.713a1.17 1.17 0 0 0 1.168 1.16z"/></g><g><path fill="#ff9218" d="M68.44 33.334a19.756 19.756 0 0 1-.638 4.181c-.34 1.284-.895 2.385-1.648 3.287-.687.82-1.673 1.217-3.014 1.217-1.3 0-2.26-.397-2.93-1.217-.738-.902-1.293-2.003-1.632-3.295a19.755 19.755 0 0 1-.638-4.181 87.838 87.838 0 0 1-.107-3.8c0-.655.008-1.425.025-2.286.016-.87.074-1.78.182-2.708.1-.91.273-1.83.505-2.724.232-.86.546-1.647.952-2.326a4.773 4.773 0 0 1 1.474-1.565c.563-.373 1.292-.563 2.161-.563.87 0 1.615.19 2.194.571a4.943 4.943 0 0 1 1.524 1.573c.414.67.728 1.45.943 2.302a25.483 25.483 0 0 1 .72 5.448c.017.92.026 1.664.026 2.285a67.255 67.255 0 0 1-.1 3.8zm.223-22.604c-1.714-.663-3.569-1.002-5.523-1.002-1.913 0-3.75.34-5.473 1.002-1.747.679-3.295 1.813-4.604 3.386-1.291 1.549-2.326 3.619-3.071 6.152-.737 2.5-1.11 5.622-1.11 9.274 0 3.75.373 6.938 1.11 9.48.745 2.567 1.78 4.662 3.072 6.21 1.308 1.565 2.856 2.708 4.603 3.386a15.108 15.108 0 0 0 5.473 1.002c1.946 0 3.809-.34 5.523-1.002 1.747-.678 3.303-1.813 4.628-3.378 1.308-1.548 2.352-3.643 3.105-6.21.737-2.542 1.11-5.73 1.11-9.48 0-3.643-.373-6.765-1.11-9.273-.745-2.534-1.788-4.604-3.105-6.16-1.325-1.574-2.881-2.717-4.628-3.387z"/></g></g></svg>