<svg xmlns="http://www.w3.org/2000/svg" width="80" height="64" viewBox="0 0 80 64"><g><g clip-path="url(#clip-7c32ea18-1ee1-49bc-a4c4-75c22a48a653)"><g><path fill="#ed6e28" d="M80 54.857H49.336l-2.857 4.286H33.52l-2.857-4.286H0v4.286a4.286 4.286 0 0 0 4.286 4.285h71.428A4.286 4.286 0 0 0 80 59.143z"/></g><g><path fill="#ed6e28" d="M26.724 13.01l-2.02-2.02 2.857-2.857 2.02 2.02zM12.44 27.296l-2.02-2.02 12.857-12.857 2.02 2.02zm9.408-20.592l2.02 2.02L11.01 21.581l-2.02-2.02zm49.582-.418H8.572v37.143h62.857z"/></g><g><path fill="#ed6e28" d="M44.95 56.286l.951-1.429H34.1l.951 1.429z"/></g><g><path fill="#ed6e28" d="M74.286 46.286H5.714V3.429h68.572zM42.857 50.57h-5.714v-2.857h5.714zm34.286-50H2.857V52h74.286z"/></g></g></g></svg>