<svg xmlns="http://www.w3.org/2000/svg" width="80" height="80" viewBox="0 0 80 80"><g><g clip-path="url(#clip-b4d8d60f-1af4-4ec6-bf35-cb77825b7979)"><g><g><g><path fill="#ed6e28" d="M40 0c-9.383 0-18.209 3.66-24.852 10.307l3.315 3.314C24.22 7.86 31.87 4.688 40 4.688c8.13 0 15.779 3.172 21.537 8.933l3.316-3.314C58.209 3.66 49.383 0 40 0z"/></g></g></g><g><g><g><path fill="#ed6e28" d="M40 18.884c-4.395 0-8.62 1.706-11.592 4.68l3.317 3.313c2.099-2.1 5.115-3.306 8.275-3.306s6.176 1.205 8.275 3.306l3.317-3.313c-2.972-2.974-7.197-4.68-11.592-4.68z"/></g></g></g><g><g><g><path fill="#ed6e28" d="M40 9.375c-6.876 0-13.347 2.685-18.222 7.56l3.315 3.314c3.989-3.99 9.283-6.186 14.907-6.186 5.624 0 10.918 2.197 14.908 6.186l3.314-3.315C53.347 12.06 46.876 9.375 40 9.375z"/></g></g></g><g><g><g><path fill="#ed6e28" d="M63.594 61.094H16.406c-6.461 0-11.718-5.257-11.718-11.719s5.257-11.719 11.718-11.719h47.188c6.461 0 11.718 5.257 11.718 11.719s-5.257 11.719-11.718 11.719zM29.178 75.312l3.142-9.53h15.36l3.142 9.53zM63.594 32.97H16.406C7.36 32.969 0 40.329 0 49.375s7.36 16.406 16.406 16.406h10.979l-3.143 9.531h-5.336V80h42.188v-4.688h-5.336l-3.143-9.53h10.979C72.64 65.781 80 58.421 80 49.374c0-9.046-7.36-16.406-16.406-16.406z"/></g></g></g><g><g><g><path fill="#ed6e28" d="M16.406 51.719a2.346 2.346 0 0 1-2.343-2.344 2.346 2.346 0 0 1 2.343-2.344 2.346 2.346 0 0 1 2.344 2.344 2.346 2.346 0 0 1-2.344 2.344zm0-9.375a7.04 7.04 0 0 0-7.031 7.031 7.04 7.04 0 0 0 7.031 7.031 7.04 7.04 0 0 0 7.032-7.031 7.04 7.04 0 0 0-7.032-7.031z"/></g></g></g><g><g><g><path fill="#ed6e28" d="M40 51.719a2.346 2.346 0 0 1-2.344-2.344A2.346 2.346 0 0 1 40 47.031a2.346 2.346 0 0 1 2.344 2.344A2.346 2.346 0 0 1 40 51.719zm0-9.375a7.04 7.04 0 0 0-7.031 7.031A7.04 7.04 0 0 0 40 56.406a7.04 7.04 0 0 0 7.031-7.031A7.04 7.04 0 0 0 40 42.344z"/></g></g></g><g><g><g><path fill="#ed6e28" d="M63.594 51.719a2.346 2.346 0 0 1-2.344-2.344 2.346 2.346 0 0 1 2.344-2.344 2.346 2.346 0 0 1 2.343 2.344 2.346 2.346 0 0 1-2.343 2.344zm0-9.375a7.04 7.04 0 0 0-7.032 7.031 7.04 7.04 0 0 0 7.032 7.031 7.04 7.04 0 0 0 7.031-7.031 7.04 7.04 0 0 0-7.031-7.031z"/></g></g></g></g></g></svg>